<?xml version="1.0" encoding="utf-8"?>
<svg xmlns="http://www.w3.org/2000/svg" xmlns:xlink="http://www.w3.org/1999/xlink" width="600" height="400" viewBox="0 0 2400 1600">
<defs>
  <clipPath id="clip980">
    <rect x="0" y="0" width="2400" height="1600"/>
  </clipPath>
</defs>
<path clip-path="url(#clip980)" d="
M0 1600 L2400 1600 L2400 0 L0 0  Z
  " fill="#ffffff" fill-rule="evenodd" fill-opacity="1"/>
<defs>
  <clipPath id="clip981">
    <rect x="480" y="0" width="1681" height="1600"/>
  </clipPath>
</defs>
<path clip-path="url(#clip980)" d="
M86.9921 1521.01 L2352.76 1521.01 L2352.76 47.2441 L86.9921 47.2441  Z
  " fill="#ffffff" fill-rule="evenodd" fill-opacity="1"/>
<defs>
  <clipPath id="clip982">
    <rect x="86" y="47" width="2267" height="1475"/>
  </clipPath>
</defs>
<polyline clip-path="url(#clip982)" style="stroke:#000000; stroke-width:2; stroke-opacity:0.1; fill:none" points="
  151.118,1521.01 151.118,47.2441 
  "/>
<polyline clip-path="url(#clip982)" style="stroke:#000000; stroke-width:2; stroke-opacity:0.1; fill:none" points="
  685.496,1521.01 685.496,47.2441 
  "/>
<polyline clip-path="url(#clip982)" style="stroke:#000000; stroke-width:2; stroke-opacity:0.1; fill:none" points="
  1219.87,1521.01 1219.87,47.2441 
  "/>
<polyline clip-path="url(#clip982)" style="stroke:#000000; stroke-width:2; stroke-opacity:0.1; fill:none" points="
  1754.25,1521.01 1754.25,47.2441 
  "/>
<polyline clip-path="url(#clip982)" style="stroke:#000000; stroke-width:2; stroke-opacity:0.1; fill:none" points="
  2288.63,1521.01 2288.63,47.2441 
  "/>
<polyline clip-path="url(#clip980)" style="stroke:#000000; stroke-width:4; stroke-opacity:1; fill:none" points="
  86.9921,1521.01 2352.76,1521.01 
  "/>
<polyline clip-path="url(#clip980)" style="stroke:#000000; stroke-width:4; stroke-opacity:1; fill:none" points="
  151.118,1521.01 151.118,1503.32 
  "/>
<polyline clip-path="url(#clip980)" style="stroke:#000000; stroke-width:4; stroke-opacity:1; fill:none" points="
  685.496,1521.01 685.496,1503.32 
  "/>
<polyline clip-path="url(#clip980)" style="stroke:#000000; stroke-width:4; stroke-opacity:1; fill:none" points="
  1219.87,1521.01 1219.87,1503.32 
  "/>
<polyline clip-path="url(#clip980)" style="stroke:#000000; stroke-width:4; stroke-opacity:1; fill:none" points="
  1754.25,1521.01 1754.25,1503.32 
  "/>
<polyline clip-path="url(#clip980)" style="stroke:#000000; stroke-width:4; stroke-opacity:1; fill:none" points="
  2288.63,1521.01 2288.63,1503.32 
  "/>
<path clip-path="url(#clip980)" d="M 0 0 M105.782 1577.74 L122.101 1577.74 L122.101 1581.68 L100.157 1581.68 L100.157 1577.74 Q102.819 1574.99 107.402 1570.36 Q112.009 1565.71 113.189 1564.37 Q115.435 1561.84 116.314 1560.11 Q117.217 1558.35 117.217 1556.66 Q117.217 1553.9 115.273 1552.17 Q113.352 1550.43 110.25 1550.43 Q108.051 1550.43 105.597 1551.19 Q103.166 1551.96 100.389 1553.51 L100.389 1548.79 Q103.213 1547.65 105.666 1547.07 Q108.12 1546.49 110.157 1546.49 Q115.527 1546.49 118.722 1549.18 Q121.916 1551.87 121.916 1556.36 Q121.916 1558.49 121.106 1560.41 Q120.319 1562.3 118.213 1564.9 Q117.634 1565.57 114.532 1568.79 Q111.43 1571.98 105.782 1577.74 Z" fill="#000000" fill-rule="evenodd" fill-opacity="1" /><path clip-path="url(#clip980)" d="M 0 0 M137.171 1550.2 Q133.56 1550.2 131.731 1553.76 Q129.925 1557.31 129.925 1564.43 Q129.925 1571.54 131.731 1575.11 Q133.56 1578.65 137.171 1578.65 Q140.805 1578.65 142.611 1575.11 Q144.439 1571.54 144.439 1564.43 Q144.439 1557.31 142.611 1553.76 Q140.805 1550.2 137.171 1550.2 M137.171 1546.49 Q142.981 1546.49 146.037 1551.1 Q149.115 1555.68 149.115 1564.43 Q149.115 1573.16 146.037 1577.77 Q142.981 1582.35 137.171 1582.35 Q131.361 1582.35 128.282 1577.77 Q125.226 1573.16 125.226 1564.43 Q125.226 1555.68 128.282 1551.1 Q131.361 1546.49 137.171 1546.49 Z" fill="#000000" fill-rule="evenodd" fill-opacity="1" /><path clip-path="url(#clip980)" d="M 0 0 M154.995 1577.74 L162.634 1577.74 L162.634 1551.38 L154.324 1553.05 L154.324 1548.79 L162.587 1547.12 L167.263 1547.12 L167.263 1577.74 L174.902 1577.74 L174.902 1581.68 L154.995 1581.68 L154.995 1577.74 Z" fill="#000000" fill-rule="evenodd" fill-opacity="1" /><path clip-path="url(#clip980)" d="M 0 0 M190.55 1562.54 Q187.402 1562.54 185.55 1564.69 Q183.722 1566.84 183.722 1570.59 Q183.722 1574.32 185.55 1576.49 Q187.402 1578.65 190.55 1578.65 Q193.698 1578.65 195.527 1576.49 Q197.379 1574.32 197.379 1570.59 Q197.379 1566.84 195.527 1564.69 Q193.698 1562.54 190.55 1562.54 M199.833 1547.88 L199.833 1552.14 Q198.073 1551.31 196.268 1550.87 Q194.485 1550.43 192.726 1550.43 Q188.096 1550.43 185.643 1553.56 Q183.212 1556.68 182.865 1563 Q184.231 1560.99 186.291 1559.92 Q188.351 1558.83 190.828 1558.83 Q196.036 1558.83 199.045 1562 Q202.078 1565.15 202.078 1570.59 Q202.078 1575.92 198.93 1579.13 Q195.782 1582.35 190.55 1582.35 Q184.555 1582.35 181.384 1577.77 Q178.212 1573.16 178.212 1564.43 Q178.212 1556.24 182.101 1551.38 Q185.99 1546.49 192.541 1546.49 Q194.3 1546.49 196.083 1546.84 Q197.888 1547.19 199.833 1547.88 Z" fill="#000000" fill-rule="evenodd" fill-opacity="1" /><path clip-path="url(#clip980)" d="M 0 0 M640.693 1577.74 L657.012 1577.74 L657.012 1581.68 L635.068 1581.68 L635.068 1577.74 Q637.73 1574.99 642.313 1570.36 Q646.92 1565.71 648.1 1564.37 Q650.345 1561.84 651.225 1560.11 Q652.128 1558.35 652.128 1556.66 Q652.128 1553.9 650.183 1552.17 Q648.262 1550.43 645.16 1550.43 Q642.961 1550.43 640.508 1551.19 Q638.077 1551.96 635.299 1553.51 L635.299 1548.79 Q638.123 1547.65 640.577 1547.07 Q643.031 1546.49 645.068 1546.49 Q650.438 1546.49 653.633 1549.18 Q656.827 1551.87 656.827 1556.36 Q656.827 1558.49 656.017 1560.41 Q655.23 1562.3 653.123 1564.9 Q652.545 1565.57 649.443 1568.79 Q646.341 1571.98 640.693 1577.74 Z" fill="#000000" fill-rule="evenodd" fill-opacity="1" /><path clip-path="url(#clip980)" d="M 0 0 M672.081 1550.2 Q668.47 1550.2 666.642 1553.76 Q664.836 1557.31 664.836 1564.43 Q664.836 1571.54 666.642 1575.11 Q668.47 1578.65 672.081 1578.65 Q675.716 1578.65 677.521 1575.11 Q679.35 1571.54 679.35 1564.43 Q679.35 1557.31 677.521 1553.76 Q675.716 1550.2 672.081 1550.2 M672.081 1546.49 Q677.892 1546.49 680.947 1551.1 Q684.026 1555.68 684.026 1564.43 Q684.026 1573.16 680.947 1577.77 Q677.892 1582.35 672.081 1582.35 Q666.271 1582.35 663.193 1577.77 Q660.137 1573.16 660.137 1564.43 Q660.137 1555.68 663.193 1551.1 Q666.271 1546.49 672.081 1546.49 Z" fill="#000000" fill-rule="evenodd" fill-opacity="1" /><path clip-path="url(#clip980)" d="M 0 0 M689.905 1577.74 L697.544 1577.74 L697.544 1551.38 L689.234 1553.05 L689.234 1548.79 L697.498 1547.12 L702.174 1547.12 L702.174 1577.74 L709.813 1577.74 L709.813 1581.68 L689.905 1581.68 L689.905 1577.74 Z" fill="#000000" fill-rule="evenodd" fill-opacity="1" /><path clip-path="url(#clip980)" d="M 0 0 M713.702 1547.12 L735.924 1547.12 L735.924 1549.11 L723.378 1581.68 L718.493 1581.68 L730.299 1551.06 L713.702 1551.06 L713.702 1547.12 Z" fill="#000000" fill-rule="evenodd" fill-opacity="1" /><path clip-path="url(#clip980)" d="M 0 0 M1174.67 1577.74 L1190.99 1577.74 L1190.99 1581.68 L1169.04 1581.68 L1169.04 1577.74 Q1171.7 1574.99 1176.29 1570.36 Q1180.89 1565.71 1182.07 1564.37 Q1184.32 1561.84 1185.2 1560.11 Q1186.1 1558.35 1186.1 1556.66 Q1186.1 1553.9 1184.16 1552.17 Q1182.24 1550.43 1179.13 1550.43 Q1176.93 1550.43 1174.48 1551.19 Q1172.05 1551.96 1169.27 1553.51 L1169.27 1548.79 Q1172.1 1547.65 1174.55 1547.07 Q1177 1546.49 1179.04 1546.49 Q1184.41 1546.49 1187.61 1549.18 Q1190.8 1551.87 1190.8 1556.36 Q1190.8 1558.49 1189.99 1560.41 Q1189.2 1562.3 1187.1 1564.9 Q1186.52 1565.57 1183.42 1568.79 Q1180.31 1571.98 1174.67 1577.74 Z" fill="#000000" fill-rule="evenodd" fill-opacity="1" /><path clip-path="url(#clip980)" d="M 0 0 M1206.05 1550.2 Q1202.44 1550.2 1200.61 1553.76 Q1198.81 1557.31 1198.81 1564.43 Q1198.81 1571.54 1200.61 1575.11 Q1202.44 1578.65 1206.05 1578.65 Q1209.69 1578.65 1211.49 1575.11 Q1213.32 1571.54 1213.32 1564.43 Q1213.32 1557.31 1211.49 1553.76 Q1209.69 1550.2 1206.05 1550.2 M1206.05 1546.49 Q1211.86 1546.49 1214.92 1551.1 Q1218 1555.68 1218 1564.43 Q1218 1573.16 1214.92 1577.77 Q1211.86 1582.35 1206.05 1582.35 Q1200.24 1582.35 1197.17 1577.77 Q1194.11 1573.16 1194.11 1564.43 Q1194.11 1555.68 1197.17 1551.1 Q1200.24 1546.49 1206.05 1546.49 Z" fill="#000000" fill-rule="evenodd" fill-opacity="1" /><path clip-path="url(#clip980)" d="M 0 0 M1223.88 1577.74 L1231.52 1577.74 L1231.52 1551.38 L1223.21 1553.05 L1223.21 1548.79 L1231.47 1547.12 L1236.15 1547.12 L1236.15 1577.74 L1243.79 1577.74 L1243.79 1581.68 L1223.88 1581.68 L1223.88 1577.74 Z" fill="#000000" fill-rule="evenodd" fill-opacity="1" /><path clip-path="url(#clip980)" d="M 0 0 M1258.86 1565.27 Q1255.52 1565.27 1253.6 1567.05 Q1251.7 1568.83 1251.7 1571.96 Q1251.7 1575.08 1253.6 1576.87 Q1255.52 1578.65 1258.86 1578.65 Q1262.19 1578.65 1264.11 1576.87 Q1266.03 1575.06 1266.03 1571.96 Q1266.03 1568.83 1264.11 1567.05 Q1262.21 1565.27 1258.86 1565.27 M1254.18 1563.28 Q1251.17 1562.54 1249.48 1560.48 Q1247.81 1558.42 1247.81 1555.45 Q1247.81 1551.31 1250.75 1548.9 Q1253.72 1546.49 1258.86 1546.49 Q1264.02 1546.49 1266.96 1548.9 Q1269.9 1551.31 1269.9 1555.45 Q1269.9 1558.42 1268.21 1560.48 Q1266.54 1562.54 1263.55 1563.28 Q1266.93 1564.06 1268.81 1566.36 Q1270.71 1568.65 1270.71 1571.96 Q1270.71 1576.98 1267.63 1579.67 Q1264.57 1582.35 1258.86 1582.35 Q1253.14 1582.35 1250.06 1579.67 Q1247 1576.98 1247 1571.96 Q1247 1568.65 1248.9 1566.36 Q1250.8 1564.06 1254.18 1563.28 M1252.47 1555.89 Q1252.47 1558.58 1254.13 1560.08 Q1255.82 1561.59 1258.86 1561.59 Q1261.86 1561.59 1263.55 1560.08 Q1265.27 1558.58 1265.27 1555.89 Q1265.27 1553.21 1263.55 1551.7 Q1261.86 1550.2 1258.86 1550.2 Q1255.82 1550.2 1254.13 1551.7 Q1252.47 1553.21 1252.47 1555.89 Z" fill="#000000" fill-rule="evenodd" fill-opacity="1" /><path clip-path="url(#clip980)" d="M 0 0 M1709.09 1577.74 L1725.41 1577.74 L1725.41 1581.68 L1703.47 1581.68 L1703.47 1577.74 Q1706.13 1574.99 1710.71 1570.36 Q1715.32 1565.71 1716.5 1564.37 Q1718.74 1561.84 1719.62 1560.11 Q1720.53 1558.35 1720.53 1556.66 Q1720.53 1553.9 1718.58 1552.17 Q1716.66 1550.43 1713.56 1550.43 Q1711.36 1550.43 1708.91 1551.19 Q1706.47 1551.96 1703.7 1553.51 L1703.7 1548.79 Q1706.52 1547.65 1708.97 1547.07 Q1711.43 1546.49 1713.47 1546.49 Q1718.84 1546.49 1722.03 1549.18 Q1725.22 1551.87 1725.22 1556.36 Q1725.22 1558.49 1724.41 1560.41 Q1723.63 1562.3 1721.52 1564.9 Q1720.94 1565.57 1717.84 1568.79 Q1714.74 1571.98 1709.09 1577.74 Z" fill="#000000" fill-rule="evenodd" fill-opacity="1" /><path clip-path="url(#clip980)" d="M 0 0 M1740.48 1550.2 Q1736.87 1550.2 1735.04 1553.76 Q1733.23 1557.31 1733.23 1564.43 Q1733.23 1571.54 1735.04 1575.11 Q1736.87 1578.65 1740.48 1578.65 Q1744.11 1578.65 1745.92 1575.11 Q1747.75 1571.54 1747.75 1564.43 Q1747.75 1557.31 1745.92 1553.76 Q1744.11 1550.2 1740.48 1550.2 M1740.48 1546.49 Q1746.29 1546.49 1749.34 1551.1 Q1752.42 1555.68 1752.42 1564.43 Q1752.42 1573.16 1749.34 1577.77 Q1746.29 1582.35 1740.48 1582.35 Q1734.67 1582.35 1731.59 1577.77 Q1728.53 1573.16 1728.53 1564.43 Q1728.53 1555.68 1731.59 1551.1 Q1734.67 1546.49 1740.48 1546.49 Z" fill="#000000" fill-rule="evenodd" fill-opacity="1" /><path clip-path="url(#clip980)" d="M 0 0 M1758.3 1577.74 L1765.94 1577.74 L1765.94 1551.38 L1757.63 1553.05 L1757.63 1548.79 L1765.9 1547.12 L1770.57 1547.12 L1770.57 1577.74 L1778.21 1577.74 L1778.21 1581.68 L1758.3 1581.68 L1758.3 1577.74 Z" fill="#000000" fill-rule="evenodd" fill-opacity="1" /><path clip-path="url(#clip980)" d="M 0 0 M1783.42 1580.96 L1783.42 1576.7 Q1785.18 1577.54 1786.98 1577.98 Q1788.79 1578.42 1790.53 1578.42 Q1795.15 1578.42 1797.59 1575.31 Q1800.04 1572.19 1800.39 1565.85 Q1799.04 1567.84 1796.98 1568.9 Q1794.92 1569.97 1792.42 1569.97 Q1787.24 1569.97 1784.21 1566.84 Q1781.2 1563.69 1781.2 1558.25 Q1781.2 1552.93 1784.34 1549.71 Q1787.49 1546.49 1792.72 1546.49 Q1798.72 1546.49 1801.87 1551.1 Q1805.04 1555.68 1805.04 1564.43 Q1805.04 1572.61 1801.15 1577.49 Q1797.28 1582.35 1790.73 1582.35 Q1788.97 1582.35 1787.17 1582 Q1785.36 1581.66 1783.42 1580.96 M1792.72 1566.31 Q1795.87 1566.31 1797.7 1564.16 Q1799.55 1562 1799.55 1558.25 Q1799.55 1554.53 1797.7 1552.37 Q1795.87 1550.2 1792.72 1550.2 Q1789.58 1550.2 1787.72 1552.37 Q1785.9 1554.53 1785.9 1558.25 Q1785.9 1562 1787.72 1564.16 Q1789.58 1566.31 1792.72 1566.31 Z" fill="#000000" fill-rule="evenodd" fill-opacity="1" /><path clip-path="url(#clip980)" d="M 0 0 M2243.56 1577.74 L2259.88 1577.74 L2259.88 1581.68 L2237.94 1581.68 L2237.94 1577.74 Q2240.6 1574.99 2245.18 1570.36 Q2249.79 1565.71 2250.97 1564.37 Q2253.21 1561.84 2254.09 1560.11 Q2255 1558.35 2255 1556.66 Q2255 1553.9 2253.05 1552.17 Q2251.13 1550.43 2248.03 1550.43 Q2245.83 1550.43 2243.38 1551.19 Q2240.95 1551.96 2238.17 1553.51 L2238.17 1548.79 Q2240.99 1547.65 2243.45 1547.07 Q2245.9 1546.49 2247.94 1546.49 Q2253.31 1546.49 2256.5 1549.18 Q2259.7 1551.87 2259.7 1556.36 Q2259.7 1558.49 2258.89 1560.41 Q2258.1 1562.3 2255.99 1564.9 Q2255.41 1565.57 2252.31 1568.79 Q2249.21 1571.98 2243.56 1577.74 Z" fill="#000000" fill-rule="evenodd" fill-opacity="1" /><path clip-path="url(#clip980)" d="M 0 0 M2274.95 1550.2 Q2271.34 1550.2 2269.51 1553.76 Q2267.7 1557.31 2267.7 1564.43 Q2267.7 1571.54 2269.51 1575.11 Q2271.34 1578.65 2274.95 1578.65 Q2278.58 1578.65 2280.39 1575.11 Q2282.22 1571.54 2282.22 1564.43 Q2282.22 1557.31 2280.39 1553.76 Q2278.58 1550.2 2274.95 1550.2 M2274.95 1546.49 Q2280.76 1546.49 2283.82 1551.1 Q2286.89 1555.68 2286.89 1564.43 Q2286.89 1573.16 2283.82 1577.77 Q2280.76 1582.35 2274.95 1582.35 Q2269.14 1582.35 2266.06 1577.77 Q2263.01 1573.16 2263.01 1564.43 Q2263.01 1555.68 2266.06 1551.1 Q2269.14 1546.49 2274.95 1546.49 Z" fill="#000000" fill-rule="evenodd" fill-opacity="1" /><path clip-path="url(#clip980)" d="M 0 0 M2295.99 1577.74 L2312.31 1577.74 L2312.31 1581.68 L2290.37 1581.68 L2290.37 1577.74 Q2293.03 1574.99 2297.61 1570.36 Q2302.22 1565.71 2303.4 1564.37 Q2305.64 1561.84 2306.52 1560.11 Q2307.43 1558.35 2307.43 1556.66 Q2307.43 1553.9 2305.48 1552.17 Q2303.56 1550.43 2300.46 1550.43 Q2298.26 1550.43 2295.81 1551.19 Q2293.38 1551.96 2290.6 1553.51 L2290.6 1548.79 Q2293.42 1547.65 2295.88 1547.07 Q2298.33 1546.49 2300.37 1546.49 Q2305.74 1546.49 2308.93 1549.18 Q2312.13 1551.87 2312.13 1556.36 Q2312.13 1558.49 2311.32 1560.41 Q2310.53 1562.3 2308.42 1564.9 Q2307.84 1565.57 2304.74 1568.79 Q2301.64 1571.98 2295.99 1577.74 Z" fill="#000000" fill-rule="evenodd" fill-opacity="1" /><path clip-path="url(#clip980)" d="M 0 0 M2327.38 1550.2 Q2323.77 1550.2 2321.94 1553.76 Q2320.13 1557.31 2320.13 1564.43 Q2320.13 1571.54 2321.94 1575.11 Q2323.77 1578.65 2327.38 1578.65 Q2331.01 1578.65 2332.82 1575.11 Q2334.65 1571.54 2334.65 1564.43 Q2334.65 1557.31 2332.82 1553.76 Q2331.01 1550.2 2327.38 1550.2 M2327.38 1546.49 Q2333.19 1546.49 2336.25 1551.1 Q2339.32 1555.68 2339.32 1564.43 Q2339.32 1573.16 2336.25 1577.77 Q2333.19 1582.35 2327.38 1582.35 Q2321.57 1582.35 2318.49 1577.77 Q2315.44 1573.16 2315.44 1564.43 Q2315.44 1555.68 2318.49 1551.1 Q2321.57 1546.49 2327.38 1546.49 Z" fill="#000000" fill-rule="evenodd" fill-opacity="1" /><polyline clip-path="url(#clip982)" style="stroke:#000000; stroke-width:2; stroke-opacity:0.1; fill:none" points="
  86.9921,1497.07 2352.76,1497.07 
  "/>
<polyline clip-path="url(#clip982)" style="stroke:#000000; stroke-width:2; stroke-opacity:0.1; fill:none" points="
  86.9921,1087.58 2352.76,1087.58 
  "/>
<polyline clip-path="url(#clip982)" style="stroke:#000000; stroke-width:2; stroke-opacity:0.1; fill:none" points="
  86.9921,678.1 2352.76,678.1 
  "/>
<polyline clip-path="url(#clip982)" style="stroke:#000000; stroke-width:2; stroke-opacity:0.1; fill:none" points="
  86.9921,268.616 2352.76,268.616 
  "/>
<polyline clip-path="url(#clip980)" style="stroke:#000000; stroke-width:4; stroke-opacity:1; fill:none" points="
  86.9921,1521.01 86.9921,47.2441 
  "/>
<polyline clip-path="url(#clip980)" style="stroke:#000000; stroke-width:4; stroke-opacity:1; fill:none" points="
  86.9921,1497.07 114.181,1497.07 
  "/>
<polyline clip-path="url(#clip980)" style="stroke:#000000; stroke-width:4; stroke-opacity:1; fill:none" points="
  86.9921,1087.58 114.181,1087.58 
  "/>
<polyline clip-path="url(#clip980)" style="stroke:#000000; stroke-width:4; stroke-opacity:1; fill:none" points="
  86.9921,678.1 114.181,678.1 
  "/>
<polyline clip-path="url(#clip980)" style="stroke:#000000; stroke-width:4; stroke-opacity:1; fill:none" points="
  86.9921,268.616 114.181,268.616 
  "/>
<path clip-path="url(#clip980)" d="M 0 0 M-111.805 1520.08 L-111.805 1515.82 Q-110.046 1516.65 -108.24 1517.09 Q-106.435 1517.53 -104.699 1517.53 Q-100.069 1517.53 -97.6384 1514.43 Q-95.1848 1511.31 -94.8375 1504.96 Q-96.1801 1506.95 -98.2403 1508.02 Q-100.3 1509.08 -102.8 1509.08 Q-107.986 1509.08 -111.018 1505.96 Q-114.027 1502.81 -114.027 1497.37 Q-114.027 1492.05 -110.879 1488.83 Q-107.731 1485.61 -102.5 1485.61 Q-96.5042 1485.61 -93.3561 1490.22 Q-90.1848 1494.8 -90.1848 1503.55 Q-90.1848 1511.72 -94.0736 1516.61 Q-97.9394 1521.47 -104.49 1521.47 Q-106.25 1521.47 -108.055 1521.12 Q-109.861 1520.77 -111.805 1520.08 M-102.5 1505.43 Q-99.3514 1505.43 -97.5227 1503.27 Q-95.6709 1501.12 -95.6709 1497.37 Q-95.6709 1493.64 -97.5227 1491.49 Q-99.3514 1489.32 -102.5 1489.32 Q-105.648 1489.32 -107.5 1491.49 Q-109.328 1493.64 -109.328 1497.37 Q-109.328 1501.12 -107.5 1503.27 Q-105.648 1505.43 -102.5 1505.43 Z" fill="#000000" fill-rule="evenodd" fill-opacity="1" /><path clip-path="url(#clip980)" d="M 0 0 M-85.1154 1514.92 L-80.2311 1514.92 L-80.2311 1520.8 L-85.1154 1520.8 L-85.1154 1514.92 Z" fill="#000000" fill-rule="evenodd" fill-opacity="1" /><path clip-path="url(#clip980)" d="M 0 0 M-65.1618 1489.32 Q-68.7729 1489.32 -70.6016 1492.88 Q-72.4071 1496.42 -72.4071 1503.55 Q-72.4071 1510.66 -70.6016 1514.22 Q-68.7729 1517.76 -65.1618 1517.76 Q-61.5275 1517.76 -59.722 1514.22 Q-57.8933 1510.66 -57.8933 1503.55 Q-57.8933 1496.42 -59.722 1492.88 Q-61.5275 1489.32 -65.1618 1489.32 M-65.1618 1485.61 Q-59.3516 1485.61 -56.2961 1490.22 Q-53.2174 1494.8 -53.2174 1503.55 Q-53.2174 1512.28 -56.2961 1516.88 Q-59.3516 1521.47 -65.1618 1521.47 Q-70.9719 1521.47 -74.0506 1516.88 Q-77.1061 1512.28 -77.1061 1503.55 Q-77.1061 1494.8 -74.0506 1490.22 Q-70.9719 1485.61 -65.1618 1485.61 Z" fill="#000000" fill-rule="evenodd" fill-opacity="1" /><path clip-path="url(#clip980)" d="M 0 0 M-19.9768 1495.33 L-30.5555 1505.96 L-19.9768 1516.54 L-22.7314 1519.34 L-33.3564 1508.71 L-43.9813 1519.34 L-46.7128 1516.54 L-36.1573 1505.96 L-46.7128 1495.33 L-43.9813 1492.53 L-33.3564 1503.16 L-22.7314 1492.53 L-19.9768 1495.33 Z" fill="#000000" fill-rule="evenodd" fill-opacity="1" /><path clip-path="url(#clip980)" d="M 0 0 M-14.0972 1516.86 L-6.45838 1516.86 L-6.45838 1490.5 L-14.7685 1492.16 L-14.7685 1487.9 L-6.50467 1486.24 L-1.82877 1486.24 L-1.82877 1516.86 L5.81008 1516.86 L5.81008 1520.8 L-14.0972 1520.8 L-14.0972 1516.86 Z" fill="#000000" fill-rule="evenodd" fill-opacity="1" /><path clip-path="url(#clip980)" d="M 0 0 M20.8794 1489.32 Q17.2683 1489.32 15.4397 1492.88 Q13.6341 1496.42 13.6341 1503.55 Q13.6341 1510.66 15.4397 1514.22 Q17.2683 1517.76 20.8794 1517.76 Q24.5137 1517.76 26.3192 1514.22 Q28.1479 1510.66 28.1479 1503.55 Q28.1479 1496.42 26.3192 1492.88 Q24.5137 1489.32 20.8794 1489.32 M20.8794 1485.61 Q26.6896 1485.61 29.7451 1490.22 Q32.8238 1494.8 32.8238 1503.55 Q32.8238 1512.28 29.7451 1516.88 Q26.6896 1521.47 20.8794 1521.47 Q15.0693 1521.47 11.9906 1516.88 Q8.93506 1512.28 8.93506 1503.55 Q8.93506 1494.8 11.9906 1490.22 Q15.0693 1485.61 20.8794 1485.61 Z" fill="#000000" fill-rule="evenodd" fill-opacity="1" /><path clip-path="url(#clip980)" d="M 0 0 M34.0087 1465.31 L48.9233 1465.31 L48.9233 1468.5 L37.4881 1468.5 L37.4881 1475.39 Q38.3157 1475.11 39.1432 1474.97 Q39.9708 1474.82 40.7983 1474.82 Q45.5003 1474.82 48.2462 1477.4 Q50.9921 1479.98 50.9921 1484.38 Q50.9921 1488.91 48.171 1491.43 Q45.3498 1493.93 40.2153 1493.93 Q38.4473 1493.93 36.6042 1493.63 Q34.7798 1493.33 32.8238 1492.73 L32.8238 1488.91 Q34.5165 1489.83 36.3221 1490.28 Q38.1276 1490.73 40.14 1490.73 Q43.3938 1490.73 45.2934 1489.02 Q47.193 1487.31 47.193 1484.38 Q47.193 1481.44 45.2934 1479.73 Q43.3938 1478.02 40.14 1478.02 Q38.6166 1478.02 37.0932 1478.36 Q35.5886 1478.7 34.0087 1479.41 L34.0087 1465.31 Z" fill="#000000" fill-rule="evenodd" fill-opacity="1" /><path clip-path="url(#clip980)" d="M 0 0 M-110.208 1110.59 L-110.208 1106.34 Q-108.449 1107.17 -106.643 1107.61 Q-104.837 1108.05 -103.101 1108.05 Q-98.4718 1108.05 -96.0412 1104.95 Q-93.5875 1101.82 -93.2403 1095.48 Q-94.5829 1097.47 -96.6431 1098.53 Q-98.7033 1099.6 -101.203 1099.6 Q-106.388 1099.6 -109.421 1096.47 Q-112.43 1093.33 -112.43 1087.89 Q-112.43 1082.56 -109.282 1079.34 Q-106.134 1076.13 -100.902 1076.13 Q-94.907 1076.13 -91.7588 1080.73 Q-88.5876 1085.32 -88.5876 1094.07 Q-88.5876 1102.24 -92.4764 1107.12 Q-96.3422 1111.98 -102.893 1111.98 Q-104.652 1111.98 -106.458 1111.64 Q-108.263 1111.29 -110.208 1110.59 M-100.902 1095.94 Q-97.7542 1095.94 -95.9255 1093.79 Q-94.0736 1091.64 -94.0736 1087.89 Q-94.0736 1084.16 -95.9255 1082.01 Q-97.7542 1079.83 -100.902 1079.83 Q-104.05 1079.83 -105.902 1082.01 Q-107.731 1084.16 -107.731 1087.89 Q-107.731 1091.64 -105.902 1093.79 Q-104.05 1095.94 -100.902 1095.94 Z" fill="#000000" fill-rule="evenodd" fill-opacity="1" /><path clip-path="url(#clip980)" d="M 0 0 M-83.5181 1105.43 L-78.6339 1105.43 L-78.6339 1111.31 L-83.5181 1111.31 L-83.5181 1105.43 Z" fill="#000000" fill-rule="evenodd" fill-opacity="1" /><path clip-path="url(#clip980)" d="M 0 0 M-69.5367 1107.38 L-53.2174 1107.38 L-53.2174 1111.31 L-75.1617 1111.31 L-75.1617 1107.38 Q-72.4997 1104.62 -67.9164 1099.99 Q-63.3099 1095.34 -62.1294 1094 Q-59.884 1091.47 -59.0044 1089.74 Q-58.1016 1087.98 -58.1016 1086.29 Q-58.1016 1083.53 -60.0461 1081.8 Q-61.9673 1080.06 -65.0692 1080.06 Q-67.2682 1080.06 -69.7219 1080.83 Q-72.1525 1081.59 -74.9302 1083.14 L-74.9302 1078.42 Q-72.1062 1077.28 -69.6525 1076.71 Q-67.1988 1076.13 -65.1618 1076.13 Q-59.7914 1076.13 -56.597 1078.81 Q-53.4026 1081.5 -53.4026 1085.99 Q-53.4026 1088.12 -54.2128 1090.04 Q-54.9998 1091.94 -57.1063 1094.53 Q-57.685 1095.2 -60.7868 1098.42 Q-63.8886 1101.61 -69.5367 1107.38 Z" fill="#000000" fill-rule="evenodd" fill-opacity="1" /><path clip-path="url(#clip980)" d="M 0 0 M-19.9768 1085.85 L-30.5555 1096.47 L-19.9768 1107.05 L-22.7314 1109.85 L-33.3564 1099.23 L-43.9813 1109.85 L-46.7128 1107.05 L-36.1573 1096.47 L-46.7128 1085.85 L-43.9813 1083.05 L-33.3564 1093.67 L-22.7314 1083.05 L-19.9768 1085.85 Z" fill="#000000" fill-rule="evenodd" fill-opacity="1" /><path clip-path="url(#clip980)" d="M 0 0 M-14.0972 1107.38 L-6.45838 1107.38 L-6.45838 1081.01 L-14.7685 1082.68 L-14.7685 1078.42 L-6.50467 1076.75 L-1.82877 1076.75 L-1.82877 1107.38 L5.81008 1107.38 L5.81008 1111.31 L-14.0972 1111.31 L-14.0972 1107.38 Z" fill="#000000" fill-rule="evenodd" fill-opacity="1" /><path clip-path="url(#clip980)" d="M 0 0 M20.8794 1079.83 Q17.2683 1079.83 15.4397 1083.4 Q13.6341 1086.94 13.6341 1094.07 Q13.6341 1101.17 15.4397 1104.74 Q17.2683 1108.28 20.8794 1108.28 Q24.5137 1108.28 26.3192 1104.74 Q28.1479 1101.17 28.1479 1094.07 Q28.1479 1086.94 26.3192 1083.4 Q24.5137 1079.83 20.8794 1079.83 M20.8794 1076.13 Q26.6896 1076.13 29.7451 1080.73 Q32.8238 1085.32 32.8238 1094.07 Q32.8238 1102.79 29.7451 1107.4 Q26.6896 1111.98 20.8794 1111.98 Q15.0693 1111.98 11.9906 1107.4 Q8.93506 1102.79 8.93506 1094.07 Q8.93506 1085.32 11.9906 1080.73 Q15.0693 1076.13 20.8794 1076.13 Z" fill="#000000" fill-rule="evenodd" fill-opacity="1" /><path clip-path="url(#clip980)" d="M 0 0 M34.0087 1055.82 L48.9233 1055.82 L48.9233 1059.02 L37.4881 1059.02 L37.4881 1065.9 Q38.3157 1065.62 39.1432 1065.49 Q39.9708 1065.34 40.7983 1065.34 Q45.5003 1065.34 48.2462 1067.92 Q50.9921 1070.49 50.9921 1074.89 Q50.9921 1079.43 48.171 1081.95 Q45.3498 1084.45 40.2153 1084.45 Q38.4473 1084.45 36.6042 1084.15 Q34.7798 1083.85 32.8238 1083.24 L32.8238 1079.43 Q34.5165 1080.35 36.3221 1080.8 Q38.1276 1081.25 40.14 1081.25 Q43.3938 1081.25 45.2934 1079.54 Q47.193 1077.83 47.193 1074.89 Q47.193 1071.96 45.2934 1070.25 Q43.3938 1068.54 40.14 1068.54 Q38.6166 1068.54 37.0932 1068.87 Q35.5886 1069.21 34.0087 1069.93 L34.0087 1055.82 Z" fill="#000000" fill-rule="evenodd" fill-opacity="1" /><path clip-path="url(#clip980)" d="M 0 0 M-112.291 701.11 L-112.291 696.851 Q-110.532 697.684 -108.726 698.124 Q-106.921 698.564 -105.185 698.564 Q-100.555 698.564 -98.1246 695.462 Q-95.6709 692.337 -95.3236 685.995 Q-96.6662 687.985 -98.7264 689.05 Q-100.787 690.115 -103.287 690.115 Q-108.472 690.115 -111.504 686.99 Q-114.513 683.842 -114.513 678.402 Q-114.513 673.078 -111.365 669.86 Q-108.217 666.643 -102.986 666.643 Q-96.9903 666.643 -93.8422 671.249 Q-90.6709 675.833 -90.6709 684.583 Q-90.6709 692.754 -94.5598 697.638 Q-98.4255 702.499 -104.976 702.499 Q-106.736 702.499 -108.541 702.152 Q-110.347 701.805 -112.291 701.11 M-102.986 686.458 Q-99.8375 686.458 -98.0088 684.305 Q-96.157 682.152 -96.157 678.402 Q-96.157 674.675 -98.0088 672.522 Q-99.8375 670.346 -102.986 670.346 Q-106.134 670.346 -107.986 672.522 Q-109.814 674.675 -109.814 678.402 Q-109.814 682.152 -107.986 684.305 Q-106.134 686.458 -102.986 686.458 Z" fill="#000000" fill-rule="evenodd" fill-opacity="1" /><path clip-path="url(#clip980)" d="M 0 0 M-85.6015 695.948 L-80.7172 695.948 L-80.7172 701.828 L-85.6015 701.828 L-85.6015 695.948 Z" fill="#000000" fill-rule="evenodd" fill-opacity="1" /><path clip-path="url(#clip980)" d="M 0 0 M-62.8007 671.342 L-74.6062 689.791 L-62.8007 689.791 L-62.8007 671.342 M-64.0275 667.268 L-58.1479 667.268 L-58.1479 689.791 L-53.2174 689.791 L-53.2174 693.68 L-58.1479 693.68 L-58.1479 701.828 L-62.8007 701.828 L-62.8007 693.68 L-78.4024 693.68 L-78.4024 689.166 L-64.0275 667.268 Z" fill="#000000" fill-rule="evenodd" fill-opacity="1" /><path clip-path="url(#clip980)" d="M 0 0 M-19.9768 676.365 L-30.5555 686.99 L-19.9768 697.569 L-22.7314 700.369 L-33.3564 689.745 L-43.9813 700.369 L-46.7128 697.569 L-36.1573 686.99 L-46.7128 676.365 L-43.9813 673.564 L-33.3564 684.189 L-22.7314 673.564 L-19.9768 676.365 Z" fill="#000000" fill-rule="evenodd" fill-opacity="1" /><path clip-path="url(#clip980)" d="M 0 0 M-14.0972 697.893 L-6.45838 697.893 L-6.45838 671.527 L-14.7685 673.194 L-14.7685 668.934 L-6.50467 667.268 L-1.82877 667.268 L-1.82877 697.893 L5.81008 697.893 L5.81008 701.828 L-14.0972 701.828 L-14.0972 697.893 Z" fill="#000000" fill-rule="evenodd" fill-opacity="1" /><path clip-path="url(#clip980)" d="M 0 0 M20.8794 670.346 Q17.2683 670.346 15.4397 673.911 Q13.6341 677.453 13.6341 684.583 Q13.6341 691.689 15.4397 695.254 Q17.2683 698.795 20.8794 698.795 Q24.5137 698.795 26.3192 695.254 Q28.1479 691.689 28.1479 684.583 Q28.1479 677.453 26.3192 673.911 Q24.5137 670.346 20.8794 670.346 M20.8794 666.643 Q26.6896 666.643 29.7451 671.249 Q32.8238 675.833 32.8238 684.583 Q32.8238 693.309 29.7451 697.916 Q26.6896 702.499 20.8794 702.499 Q15.0693 702.499 11.9906 697.916 Q8.93506 693.309 8.93506 684.583 Q8.93506 675.833 11.9906 671.249 Q15.0693 666.643 20.8794 666.643 Z" fill="#000000" fill-rule="evenodd" fill-opacity="1" /><path clip-path="url(#clip980)" d="M 0 0 M34.0087 646.337 L48.9233 646.337 L48.9233 649.535 L37.4881 649.535 L37.4881 656.418 Q38.3157 656.136 39.1432 656.005 Q39.9708 655.854 40.7983 655.854 Q45.5003 655.854 48.2462 658.431 Q50.9921 661.007 50.9921 665.408 Q50.9921 669.941 48.171 672.461 Q45.3498 674.963 40.2153 674.963 Q38.4473 674.963 36.6042 674.662 Q34.7798 674.361 32.8238 673.759 L32.8238 669.941 Q34.5165 670.863 36.3221 671.314 Q38.1276 671.766 40.14 671.766 Q43.3938 671.766 45.2934 670.054 Q47.193 668.343 47.193 665.408 Q47.193 662.474 45.2934 660.763 Q43.3938 659.051 40.14 659.051 Q38.6166 659.051 37.0932 659.39 Q35.5886 659.729 34.0087 660.443 L34.0087 646.337 Z" fill="#000000" fill-rule="evenodd" fill-opacity="1" /><path clip-path="url(#clip980)" d="M 0 0 M-111.967 291.626 L-111.967 287.366 Q-110.208 288.2 -108.402 288.64 Q-106.597 289.079 -104.861 289.079 Q-100.231 289.079 -97.8005 285.978 Q-95.3468 282.853 -94.9996 276.51 Q-96.3422 278.501 -98.4023 279.566 Q-100.463 280.63 -102.962 280.63 Q-108.148 280.63 -111.18 277.505 Q-114.189 274.357 -114.189 268.918 Q-114.189 263.593 -111.041 260.376 Q-107.893 257.158 -102.662 257.158 Q-96.6662 257.158 -93.5181 261.765 Q-90.3468 266.348 -90.3468 275.098 Q-90.3468 283.269 -94.2357 288.154 Q-98.1014 293.015 -104.652 293.015 Q-106.412 293.015 -108.217 292.667 Q-110.023 292.32 -111.967 291.626 M-102.662 276.973 Q-99.5134 276.973 -97.6847 274.82 Q-95.8329 272.667 -95.8329 268.918 Q-95.8329 265.191 -97.6847 263.038 Q-99.5134 260.862 -102.662 260.862 Q-105.81 260.862 -107.662 263.038 Q-109.49 265.191 -109.49 268.918 Q-109.49 272.667 -107.662 274.82 Q-105.81 276.973 -102.662 276.973 Z" fill="#000000" fill-rule="evenodd" fill-opacity="1" /><path clip-path="url(#clip980)" d="M 0 0 M-85.2774 286.464 L-80.3932 286.464 L-80.3932 292.343 L-85.2774 292.343 L-85.2774 286.464 Z" fill="#000000" fill-rule="evenodd" fill-opacity="1" /><path clip-path="url(#clip980)" d="M 0 0 M-64.7451 273.2 Q-67.8932 273.2 -69.7451 275.353 Q-71.5738 277.505 -71.5738 281.255 Q-71.5738 284.982 -69.7451 287.158 Q-67.8932 289.311 -64.7451 289.311 Q-61.597 289.311 -59.7683 287.158 Q-57.9164 284.982 -57.9164 281.255 Q-57.9164 277.505 -59.7683 275.353 Q-61.597 273.2 -64.7451 273.2 M-55.4627 258.547 L-55.4627 262.806 Q-57.222 261.973 -59.0275 261.533 Q-60.8099 261.093 -62.5692 261.093 Q-67.1988 261.093 -69.6525 264.218 Q-72.083 267.343 -72.4302 273.663 Q-71.0645 271.649 -69.0043 270.584 Q-66.9442 269.496 -64.4673 269.496 Q-59.259 269.496 -56.2498 272.667 Q-53.2174 275.816 -53.2174 281.255 Q-53.2174 286.579 -56.3655 289.797 Q-59.5136 293.015 -64.7451 293.015 Q-70.7404 293.015 -73.9117 288.431 Q-77.083 283.825 -77.083 275.098 Q-77.083 266.904 -73.1941 262.043 Q-69.3053 257.158 -62.7544 257.158 Q-60.9951 257.158 -59.2127 257.506 Q-57.4072 257.853 -55.4627 258.547 Z" fill="#000000" fill-rule="evenodd" fill-opacity="1" /><path clip-path="url(#clip980)" d="M 0 0 M-19.9768 266.88 L-30.5555 277.505 L-19.9768 288.084 L-22.7314 290.885 L-33.3564 280.26 L-43.9813 290.885 L-46.7128 288.084 L-36.1573 277.505 L-46.7128 266.88 L-43.9813 264.08 L-33.3564 274.705 L-22.7314 264.08 L-19.9768 266.88 Z" fill="#000000" fill-rule="evenodd" fill-opacity="1" /><path clip-path="url(#clip980)" d="M 0 0 M-14.0972 288.408 L-6.45838 288.408 L-6.45838 262.043 L-14.7685 263.709 L-14.7685 259.45 L-6.50467 257.783 L-1.82877 257.783 L-1.82877 288.408 L5.81008 288.408 L5.81008 292.343 L-14.0972 292.343 L-14.0972 288.408 Z" fill="#000000" fill-rule="evenodd" fill-opacity="1" /><path clip-path="url(#clip980)" d="M 0 0 M20.8794 260.862 Q17.2683 260.862 15.4397 264.427 Q13.6341 267.968 13.6341 275.098 Q13.6341 282.204 15.4397 285.769 Q17.2683 289.311 20.8794 289.311 Q24.5137 289.311 26.3192 285.769 Q28.1479 282.204 28.1479 275.098 Q28.1479 267.968 26.3192 264.427 Q24.5137 260.862 20.8794 260.862 M20.8794 257.158 Q26.6896 257.158 29.7451 261.765 Q32.8238 266.348 32.8238 275.098 Q32.8238 283.825 29.7451 288.431 Q26.6896 293.015 20.8794 293.015 Q15.0693 293.015 11.9906 288.431 Q8.93506 283.825 8.93506 275.098 Q8.93506 266.348 11.9906 261.765 Q15.0693 257.158 20.8794 257.158 Z" fill="#000000" fill-rule="evenodd" fill-opacity="1" /><path clip-path="url(#clip980)" d="M 0 0 M34.0087 236.853 L48.9233 236.853 L48.9233 240.05 L37.4881 240.05 L37.4881 246.934 Q38.3157 246.652 39.1432 246.52 Q39.9708 246.37 40.7983 246.37 Q45.5003 246.37 48.2462 248.946 Q50.9921 251.523 50.9921 255.924 Q50.9921 260.457 48.171 262.977 Q45.3498 265.478 40.2153 265.478 Q38.4473 265.478 36.6042 265.177 Q34.7798 264.876 32.8238 264.275 L32.8238 260.457 Q34.5165 261.378 36.3221 261.83 Q38.1276 262.281 40.14 262.281 Q43.3938 262.281 45.2934 260.57 Q47.193 258.858 47.193 255.924 Q47.193 252.99 45.2934 251.278 Q43.3938 249.567 40.14 249.567 Q38.6166 249.567 37.0932 249.906 Q35.5886 250.244 34.0087 250.959 L34.0087 236.853 Z" fill="#000000" fill-rule="evenodd" fill-opacity="1" /><polyline clip-path="url(#clip982)" style="stroke:#009af9; stroke-width:12; stroke-opacity:1; fill:none" points="
  151.118,1479.3 685.496,998.583 1219.87,532.119 1754.25,844.228 2288.63,88.9544 
  "/>
<polyline clip-path="url(#clip982)" style="stroke:#e26f46; stroke-width:12; stroke-opacity:1; fill:none" points="
  151.118,913.477 685.496,732.147 1219.87,488.661 1754.25,1023.79 2288.63,758.74 
  "/>
<polyline clip-path="url(#clip982)" style="stroke:#3da44d; stroke-width:12; stroke-opacity:1; fill:none" points="
  151.118,784.058 685.496,682.501 1219.87,502.096 1754.25,1088.47 2288.63,858.197 
  "/>
<path clip-path="url(#clip980)" d="
M1549.39 1471.88 L2277.23 1471.88 L2277.23 1229.96 L1549.39 1229.96  Z
  " fill="#ffffff" fill-rule="evenodd" fill-opacity="1"/>
<polyline clip-path="url(#clip980)" style="stroke:#000000; stroke-width:4; stroke-opacity:1; fill:none" points="
  1549.39,1471.88 2277.23,1471.88 2277.23,1229.96 1549.39,1229.96 1549.39,1471.88 
  "/>
<polyline clip-path="url(#clip980)" style="stroke:#009af9; stroke-width:4; stroke-opacity:1; fill:none" points="
  1574.57,1290.44 1725.62,1290.44 
  "/>
<path clip-path="url(#clip980)" d="M 0 0 M1769.71 1285.73 L1769.71 1271.7 L1773.97 1271.7 L1773.97 1307.72 L1769.71 1307.72 L1769.71 1303.83 Q1768.36 1306.15 1766.3 1307.28 Q1764.27 1308.39 1761.4 1308.39 Q1756.7 1308.39 1753.73 1304.64 Q1750.79 1300.89 1750.79 1294.78 Q1750.79 1288.67 1753.73 1284.92 Q1756.7 1281.17 1761.4 1281.17 Q1764.27 1281.17 1766.3 1282.31 Q1768.36 1283.42 1769.71 1285.73 M1755.19 1294.78 Q1755.19 1299.48 1757.11 1302.17 Q1759.06 1304.83 1762.44 1304.83 Q1765.82 1304.83 1767.76 1302.17 Q1769.71 1299.48 1769.71 1294.78 Q1769.71 1290.08 1767.76 1287.42 Q1765.82 1284.74 1762.44 1284.74 Q1759.06 1284.74 1757.11 1287.42 Q1755.19 1290.08 1755.19 1294.78 Z" fill="#000000" fill-rule="evenodd" fill-opacity="1" /><path clip-path="url(#clip980)" d="M 0 0 M1790.22 1294.69 Q1785.05 1294.69 1783.06 1295.87 Q1781.07 1297.05 1781.07 1299.9 Q1781.07 1302.17 1782.55 1303.51 Q1784.06 1304.83 1786.63 1304.83 Q1790.17 1304.83 1792.3 1302.33 Q1794.45 1299.81 1794.45 1295.64 L1794.45 1294.69 L1790.22 1294.69 M1798.71 1292.93 L1798.71 1307.72 L1794.45 1307.72 L1794.45 1303.79 Q1792.99 1306.15 1790.82 1307.28 Q1788.64 1308.39 1785.49 1308.39 Q1781.51 1308.39 1779.15 1306.17 Q1776.81 1303.93 1776.81 1300.18 Q1776.81 1295.8 1779.73 1293.58 Q1782.67 1291.36 1788.48 1291.36 L1794.45 1291.36 L1794.45 1290.94 Q1794.45 1288 1792.51 1286.4 Q1790.59 1284.78 1787.09 1284.78 Q1784.87 1284.78 1782.76 1285.32 Q1780.66 1285.85 1778.71 1286.91 L1778.71 1282.98 Q1781.05 1282.07 1783.25 1281.63 Q1785.45 1281.17 1787.53 1281.17 Q1793.16 1281.17 1795.93 1284.09 Q1798.71 1287 1798.71 1292.93 Z" fill="#000000" fill-rule="evenodd" fill-opacity="1" /><path clip-path="url(#clip980)" d="M 0 0 M1807.39 1274.44 L1807.39 1281.8 L1816.16 1281.8 L1816.16 1285.11 L1807.39 1285.11 L1807.39 1299.18 Q1807.39 1302.35 1808.25 1303.25 Q1809.13 1304.16 1811.79 1304.16 L1816.16 1304.16 L1816.16 1307.72 L1811.79 1307.72 Q1806.86 1307.72 1804.98 1305.89 Q1803.11 1304.04 1803.11 1299.18 L1803.11 1285.11 L1799.98 1285.11 L1799.98 1281.8 L1803.11 1281.8 L1803.11 1274.44 L1807.39 1274.44 Z" fill="#000000" fill-rule="evenodd" fill-opacity="1" /><path clip-path="url(#clip980)" d="M 0 0 M1832.41 1294.69 Q1827.25 1294.69 1825.26 1295.87 Q1823.27 1297.05 1823.27 1299.9 Q1823.27 1302.17 1824.75 1303.51 Q1826.26 1304.83 1828.83 1304.83 Q1832.37 1304.83 1834.5 1302.33 Q1836.65 1299.81 1836.65 1295.64 L1836.65 1294.69 L1832.41 1294.69 M1840.91 1292.93 L1840.91 1307.72 L1836.65 1307.72 L1836.65 1303.79 Q1835.19 1306.15 1833.02 1307.28 Q1830.84 1308.39 1827.69 1308.39 Q1823.71 1308.39 1821.35 1306.17 Q1819.01 1303.93 1819.01 1300.18 Q1819.01 1295.8 1821.93 1293.58 Q1824.87 1291.36 1830.68 1291.36 L1836.65 1291.36 L1836.65 1290.94 Q1836.65 1288 1834.71 1286.4 Q1832.79 1284.78 1829.29 1284.78 Q1827.07 1284.78 1824.96 1285.32 Q1822.85 1285.85 1820.91 1286.91 L1820.91 1282.98 Q1823.25 1282.07 1825.45 1281.63 Q1827.65 1281.17 1829.73 1281.17 Q1835.35 1281.17 1838.13 1284.09 Q1840.91 1287 1840.91 1292.93 Z" fill="#000000" fill-rule="evenodd" fill-opacity="1" /><polyline clip-path="url(#clip980)" style="stroke:#e26f46; stroke-width:4; stroke-opacity:1; fill:none" points="
  1574.57,1350.92 1725.62,1350.92 
  "/>
<path clip-path="url(#clip980)" d="M 0 0 M1764.2 1355.17 Q1759.04 1355.17 1757.04 1356.35 Q1755.05 1357.53 1755.05 1360.38 Q1755.05 1362.65 1756.54 1363.99 Q1758.04 1365.31 1760.61 1365.31 Q1764.15 1365.31 1766.28 1362.81 Q1768.43 1360.29 1768.43 1356.12 L1768.43 1355.17 L1764.2 1355.17 M1772.69 1353.41 L1772.69 1368.2 L1768.43 1368.2 L1768.43 1364.27 Q1766.98 1366.63 1764.8 1367.76 Q1762.62 1368.87 1759.48 1368.87 Q1755.49 1368.87 1753.13 1366.65 Q1750.79 1364.41 1750.79 1360.66 Q1750.79 1356.28 1753.71 1354.06 Q1756.65 1351.84 1762.46 1351.84 L1768.43 1351.84 L1768.43 1351.42 Q1768.43 1348.48 1766.49 1346.88 Q1764.57 1345.26 1761.07 1345.26 Q1758.85 1345.26 1756.74 1345.8 Q1754.64 1346.33 1752.69 1347.39 L1752.69 1343.46 Q1755.03 1342.55 1757.23 1342.11 Q1759.43 1341.65 1761.51 1341.65 Q1767.14 1341.65 1769.91 1344.57 Q1772.69 1347.48 1772.69 1353.41 Z" fill="#000000" fill-rule="evenodd" fill-opacity="1" /><path clip-path="url(#clip980)" d="M 0 0 M1794.22 1354.94 Q1794.22 1350.31 1792.3 1347.76 Q1790.4 1345.22 1786.95 1345.22 Q1783.53 1345.22 1781.6 1347.76 Q1779.71 1350.31 1779.71 1354.94 Q1779.71 1359.55 1781.6 1362.09 Q1783.53 1364.64 1786.95 1364.64 Q1790.4 1364.64 1792.3 1362.09 Q1794.22 1359.55 1794.22 1354.94 M1798.48 1364.98 Q1798.48 1371.61 1795.54 1374.82 Q1792.6 1378.06 1786.54 1378.06 Q1784.29 1378.06 1782.3 1377.72 Q1780.31 1377.39 1778.43 1376.7 L1778.43 1372.55 Q1780.31 1373.57 1782.14 1374.06 Q1783.97 1374.54 1785.86 1374.54 Q1790.05 1374.54 1792.14 1372.35 Q1794.22 1370.17 1794.22 1365.75 L1794.22 1363.64 Q1792.9 1365.93 1790.84 1367.07 Q1788.78 1368.2 1785.91 1368.2 Q1781.14 1368.2 1778.23 1364.57 Q1775.31 1360.93 1775.31 1354.94 Q1775.31 1348.92 1778.23 1345.29 Q1781.14 1341.65 1785.91 1341.65 Q1788.78 1341.65 1790.84 1342.79 Q1792.9 1343.92 1794.22 1346.21 L1794.22 1342.28 L1798.48 1342.28 L1798.48 1364.98 Z" fill="#000000" fill-rule="evenodd" fill-opacity="1" /><path clip-path="url(#clip980)" d="M 0 0 M1825.12 1354.17 L1825.12 1356.26 L1805.54 1356.26 Q1805.82 1360.66 1808.18 1362.97 Q1810.56 1365.26 1814.8 1365.26 Q1817.25 1365.26 1819.54 1364.66 Q1821.86 1364.06 1824.13 1362.86 L1824.13 1366.88 Q1821.84 1367.86 1819.43 1368.36 Q1817.02 1368.87 1814.54 1368.87 Q1808.34 1368.87 1804.71 1365.26 Q1801.1 1361.65 1801.1 1355.49 Q1801.1 1349.13 1804.52 1345.4 Q1807.97 1341.65 1813.8 1341.65 Q1819.04 1341.65 1822.07 1345.03 Q1825.12 1348.39 1825.12 1354.17 M1820.86 1352.92 Q1820.82 1349.43 1818.9 1347.35 Q1817 1345.26 1813.85 1345.26 Q1810.29 1345.26 1808.13 1347.28 Q1806 1349.29 1805.68 1352.95 L1820.86 1352.92 Z" fill="#000000" fill-rule="evenodd" fill-opacity="1" /><path clip-path="url(#clip980)" d="M 0 0 M1827.44 1353.32 L1839.91 1353.32 L1839.91 1357.11 L1827.44 1357.11 L1827.44 1353.32 Z" fill="#000000" fill-rule="evenodd" fill-opacity="1" /><path clip-path="url(#clip980)" d="M 0 0 M1860.91 1343.04 L1860.91 1347.07 Q1859.1 1346.14 1857.16 1345.68 Q1855.22 1345.22 1853.13 1345.22 Q1849.96 1345.22 1848.36 1346.19 Q1846.79 1347.16 1846.79 1349.11 Q1846.79 1350.59 1847.92 1351.44 Q1849.06 1352.28 1852.48 1353.04 L1853.94 1353.36 Q1858.48 1354.34 1860.38 1356.12 Q1862.3 1357.88 1862.3 1361.05 Q1862.3 1364.66 1859.43 1366.77 Q1856.58 1368.87 1851.58 1368.87 Q1849.5 1368.87 1847.23 1368.46 Q1844.98 1368.06 1842.48 1367.25 L1842.48 1362.86 Q1844.85 1364.08 1847.14 1364.71 Q1849.43 1365.31 1851.67 1365.31 Q1854.68 1365.31 1856.3 1364.29 Q1857.92 1363.25 1857.92 1361.37 Q1857.92 1359.64 1856.74 1358.71 Q1855.59 1357.79 1851.63 1356.93 L1850.15 1356.58 Q1846.19 1355.75 1844.43 1354.04 Q1842.67 1352.3 1842.67 1349.29 Q1842.67 1345.63 1845.26 1343.64 Q1847.85 1341.65 1852.62 1341.65 Q1854.98 1341.65 1857.07 1342 Q1859.15 1342.35 1860.91 1343.04 Z" fill="#000000" fill-rule="evenodd" fill-opacity="1" /><path clip-path="url(#clip980)" d="M 0 0 M1888.94 1354.17 L1888.94 1356.26 L1869.36 1356.26 Q1869.64 1360.66 1872 1362.97 Q1874.38 1365.26 1878.62 1365.26 Q1881.07 1365.26 1883.36 1364.66 Q1885.68 1364.06 1887.95 1362.86 L1887.95 1366.88 Q1885.66 1367.86 1883.25 1368.36 Q1880.84 1368.87 1878.36 1368.87 Q1872.16 1368.87 1868.53 1365.26 Q1864.91 1361.65 1864.91 1355.49 Q1864.91 1349.13 1868.34 1345.4 Q1871.79 1341.65 1877.62 1341.65 Q1882.85 1341.65 1885.89 1345.03 Q1888.94 1348.39 1888.94 1354.17 M1884.68 1352.92 Q1884.64 1349.43 1882.72 1347.35 Q1880.82 1345.26 1877.67 1345.26 Q1874.1 1345.26 1871.95 1347.28 Q1869.82 1349.29 1869.5 1352.95 L1884.68 1352.92 Z" fill="#000000" fill-rule="evenodd" fill-opacity="1" /><path clip-path="url(#clip980)" d="M 0 0 M1914.13 1342.28 L1904.75 1354.89 L1914.61 1368.2 L1909.59 1368.2 L1902.04 1358.02 L1894.5 1368.2 L1889.47 1368.2 L1899.54 1354.64 L1890.33 1342.28 L1895.35 1342.28 L1902.23 1351.51 L1909.1 1342.28 L1914.13 1342.28 Z" fill="#000000" fill-rule="evenodd" fill-opacity="1" /><path clip-path="url(#clip980)" d="M 0 0 M1945.93 1355.17 Q1940.77 1355.17 1938.78 1356.35 Q1936.79 1357.53 1936.79 1360.38 Q1936.79 1362.65 1938.27 1363.99 Q1939.78 1365.31 1942.34 1365.31 Q1945.89 1365.31 1948.02 1362.81 Q1950.17 1360.29 1950.17 1356.12 L1950.17 1355.17 L1945.93 1355.17 M1954.43 1353.41 L1954.43 1368.2 L1950.17 1368.2 L1950.17 1364.27 Q1948.71 1366.63 1946.53 1367.76 Q1944.36 1368.87 1941.21 1368.87 Q1937.23 1368.87 1934.87 1366.65 Q1932.53 1364.41 1932.53 1360.66 Q1932.53 1356.28 1935.45 1354.06 Q1938.39 1351.84 1944.2 1351.84 L1950.17 1351.84 L1950.17 1351.42 Q1950.17 1348.48 1948.22 1346.88 Q1946.3 1345.26 1942.81 1345.26 Q1940.59 1345.26 1938.48 1345.8 Q1936.37 1346.33 1934.43 1347.39 L1934.43 1343.46 Q1936.77 1342.55 1938.97 1342.11 Q1941.16 1341.65 1943.25 1341.65 Q1948.87 1341.65 1951.65 1344.57 Q1954.43 1347.48 1954.43 1353.41 Z" fill="#000000" fill-rule="evenodd" fill-opacity="1" /><path clip-path="url(#clip980)" d="M 0 0 M1975.96 1346.21 L1975.96 1332.18 L1980.21 1332.18 L1980.21 1368.2 L1975.96 1368.2 L1975.96 1364.31 Q1974.61 1366.63 1972.55 1367.76 Q1970.52 1368.87 1967.65 1368.87 Q1962.95 1368.87 1959.98 1365.12 Q1957.04 1361.37 1957.04 1355.26 Q1957.04 1349.15 1959.98 1345.4 Q1962.95 1341.65 1967.65 1341.65 Q1970.52 1341.65 1972.55 1342.79 Q1974.61 1343.9 1975.96 1346.21 M1961.44 1355.26 Q1961.44 1359.96 1963.36 1362.65 Q1965.31 1365.31 1968.69 1365.31 Q1972.07 1365.31 1974.01 1362.65 Q1975.96 1359.96 1975.96 1355.26 Q1975.96 1350.56 1974.01 1347.9 Q1972.07 1345.22 1968.69 1345.22 Q1965.31 1345.22 1963.36 1347.9 Q1961.44 1350.56 1961.44 1355.26 Z" fill="#000000" fill-rule="evenodd" fill-opacity="1" /><path clip-path="url(#clip980)" d="M 0 0 M1984.68 1342.28 L1988.94 1342.28 L1988.94 1368.67 Q1988.94 1373.62 1987.04 1375.84 Q1985.17 1378.06 1980.98 1378.06 L1979.36 1378.06 L1979.36 1374.45 L1980.49 1374.45 Q1982.92 1374.45 1983.8 1373.32 Q1984.68 1372.21 1984.68 1368.67 L1984.68 1342.28 M1984.68 1332.18 L1988.94 1332.18 L1988.94 1337.58 L1984.68 1337.58 L1984.68 1332.18 Z" fill="#000000" fill-rule="evenodd" fill-opacity="1" /><path clip-path="url(#clip980)" d="M 0 0 M1992.97 1357.97 L1992.97 1342.28 L1997.23 1342.28 L1997.23 1357.81 Q1997.23 1361.49 1998.66 1363.34 Q2000.1 1365.17 2002.97 1365.17 Q2006.42 1365.17 2008.41 1362.97 Q2010.42 1360.77 2010.42 1356.98 L2010.42 1342.28 L2014.68 1342.28 L2014.68 1368.2 L2010.42 1368.2 L2010.42 1364.22 Q2008.87 1366.58 2006.81 1367.74 Q2004.77 1368.87 2002.07 1368.87 Q1997.6 1368.87 1995.28 1366.1 Q1992.97 1363.32 1992.97 1357.97 M2003.69 1341.65 L2003.69 1341.65 Z" fill="#000000" fill-rule="evenodd" fill-opacity="1" /><path clip-path="url(#clip980)" d="M 0 0 M2035.68 1343.04 L2035.68 1347.07 Q2033.87 1346.14 2031.93 1345.68 Q2029.98 1345.22 2027.9 1345.22 Q2024.73 1345.22 2023.13 1346.19 Q2021.56 1347.16 2021.56 1349.11 Q2021.56 1350.59 2022.69 1351.44 Q2023.83 1352.28 2027.25 1353.04 L2028.71 1353.36 Q2033.25 1354.34 2035.15 1356.12 Q2037.07 1357.88 2037.07 1361.05 Q2037.07 1364.66 2034.2 1366.77 Q2031.35 1368.87 2026.35 1368.87 Q2024.27 1368.87 2022 1368.46 Q2019.75 1368.06 2017.25 1367.25 L2017.25 1362.86 Q2019.61 1364.08 2021.9 1364.71 Q2024.2 1365.31 2026.44 1365.31 Q2029.45 1365.31 2031.07 1364.29 Q2032.69 1363.25 2032.69 1361.37 Q2032.69 1359.64 2031.51 1358.71 Q2030.35 1357.79 2026.4 1356.93 L2024.91 1356.58 Q2020.96 1355.75 2019.2 1354.04 Q2017.44 1352.3 2017.44 1349.29 Q2017.44 1345.63 2020.03 1343.64 Q2022.62 1341.65 2027.39 1341.65 Q2029.75 1341.65 2031.83 1342 Q2033.92 1342.35 2035.68 1343.04 Z" fill="#000000" fill-rule="evenodd" fill-opacity="1" /><path clip-path="url(#clip980)" d="M 0 0 M2045.75 1334.92 L2045.75 1342.28 L2054.52 1342.28 L2054.52 1345.59 L2045.75 1345.59 L2045.75 1359.66 Q2045.75 1362.83 2046.6 1363.73 Q2047.48 1364.64 2050.14 1364.64 L2054.52 1364.64 L2054.52 1368.2 L2050.14 1368.2 Q2045.21 1368.2 2043.34 1366.37 Q2041.46 1364.52 2041.46 1359.66 L2041.46 1345.59 L2038.34 1345.59 L2038.34 1342.28 L2041.46 1342.28 L2041.46 1334.92 L2045.75 1334.92 Z" fill="#000000" fill-rule="evenodd" fill-opacity="1" /><path clip-path="url(#clip980)" d="M 0 0 M2081.16 1354.17 L2081.16 1356.26 L2061.58 1356.26 Q2061.86 1360.66 2064.22 1362.97 Q2066.6 1365.26 2070.84 1365.26 Q2073.29 1365.26 2075.58 1364.66 Q2077.9 1364.06 2080.17 1362.86 L2080.17 1366.88 Q2077.88 1367.86 2075.47 1368.36 Q2073.06 1368.87 2070.58 1368.87 Q2064.38 1368.87 2060.75 1365.26 Q2057.14 1361.65 2057.14 1355.49 Q2057.14 1349.13 2060.56 1345.4 Q2064.01 1341.65 2069.84 1341.65 Q2075.08 1341.65 2078.11 1345.03 Q2081.16 1348.39 2081.16 1354.17 M2076.9 1352.92 Q2076.86 1349.43 2074.94 1347.35 Q2073.04 1345.26 2069.89 1345.26 Q2066.33 1345.26 2064.17 1347.28 Q2062.04 1349.29 2061.72 1352.95 L2076.9 1352.92 Z" fill="#000000" fill-rule="evenodd" fill-opacity="1" /><path clip-path="url(#clip980)" d="M 0 0 M2102.69 1346.21 L2102.69 1332.18 L2106.95 1332.18 L2106.95 1368.2 L2102.69 1368.2 L2102.69 1364.31 Q2101.35 1366.63 2099.29 1367.76 Q2097.25 1368.87 2094.38 1368.87 Q2089.68 1368.87 2086.72 1365.12 Q2083.78 1361.37 2083.78 1355.26 Q2083.78 1349.15 2086.72 1345.4 Q2089.68 1341.65 2094.38 1341.65 Q2097.25 1341.65 2099.29 1342.79 Q2101.35 1343.9 2102.69 1346.21 M2088.18 1355.26 Q2088.18 1359.96 2090.1 1362.65 Q2092.04 1365.31 2095.42 1365.31 Q2098.8 1365.31 2100.75 1362.65 Q2102.69 1359.96 2102.69 1355.26 Q2102.69 1350.56 2100.75 1347.9 Q2098.8 1345.22 2095.42 1345.22 Q2092.04 1345.22 2090.1 1347.9 Q2088.18 1350.56 2088.18 1355.26 Z" fill="#000000" fill-rule="evenodd" fill-opacity="1" /><polyline clip-path="url(#clip980)" style="stroke:#3da44d; stroke-width:4; stroke-opacity:1; fill:none" points="
  1574.57,1411.4 1725.62,1411.4 
  "/>
<path clip-path="url(#clip980)" d="M 0 0 M1764.2 1415.65 Q1759.04 1415.65 1757.04 1416.83 Q1755.05 1418.01 1755.05 1420.86 Q1755.05 1423.13 1756.54 1424.47 Q1758.04 1425.79 1760.61 1425.79 Q1764.15 1425.79 1766.28 1423.29 Q1768.43 1420.77 1768.43 1416.6 L1768.43 1415.65 L1764.2 1415.65 M1772.69 1413.89 L1772.69 1428.68 L1768.43 1428.68 L1768.43 1424.75 Q1766.98 1427.11 1764.8 1428.24 Q1762.62 1429.35 1759.48 1429.35 Q1755.49 1429.35 1753.13 1427.13 Q1750.79 1424.89 1750.79 1421.14 Q1750.79 1416.76 1753.71 1414.54 Q1756.65 1412.32 1762.46 1412.32 L1768.43 1412.32 L1768.43 1411.9 Q1768.43 1408.96 1766.49 1407.36 Q1764.57 1405.74 1761.07 1405.74 Q1758.85 1405.74 1756.74 1406.28 Q1754.64 1406.81 1752.69 1407.87 L1752.69 1403.94 Q1755.03 1403.03 1757.23 1402.59 Q1759.43 1402.13 1761.51 1402.13 Q1767.14 1402.13 1769.91 1405.05 Q1772.69 1407.96 1772.69 1413.89 Z" fill="#000000" fill-rule="evenodd" fill-opacity="1" /><path clip-path="url(#clip980)" d="M 0 0 M1794.22 1415.42 Q1794.22 1410.79 1792.3 1408.24 Q1790.4 1405.7 1786.95 1405.7 Q1783.53 1405.7 1781.6 1408.24 Q1779.71 1410.79 1779.71 1415.42 Q1779.71 1420.03 1781.6 1422.57 Q1783.53 1425.12 1786.95 1425.12 Q1790.4 1425.12 1792.3 1422.57 Q1794.22 1420.03 1794.22 1415.42 M1798.48 1425.46 Q1798.48 1432.09 1795.54 1435.3 Q1792.6 1438.54 1786.54 1438.54 Q1784.29 1438.54 1782.3 1438.2 Q1780.31 1437.87 1778.43 1437.18 L1778.43 1433.03 Q1780.31 1434.05 1782.14 1434.54 Q1783.97 1435.02 1785.86 1435.02 Q1790.05 1435.02 1792.14 1432.83 Q1794.22 1430.65 1794.22 1426.23 L1794.22 1424.12 Q1792.9 1426.41 1790.84 1427.55 Q1788.78 1428.68 1785.91 1428.68 Q1781.14 1428.68 1778.23 1425.05 Q1775.31 1421.41 1775.31 1415.42 Q1775.31 1409.4 1778.23 1405.77 Q1781.14 1402.13 1785.91 1402.13 Q1788.78 1402.13 1790.84 1403.27 Q1792.9 1404.4 1794.22 1406.69 L1794.22 1402.76 L1798.48 1402.76 L1798.48 1425.46 Z" fill="#000000" fill-rule="evenodd" fill-opacity="1" /><path clip-path="url(#clip980)" d="M 0 0 M1825.12 1414.65 L1825.12 1416.74 L1805.54 1416.74 Q1805.82 1421.14 1808.18 1423.45 Q1810.56 1425.74 1814.8 1425.74 Q1817.25 1425.74 1819.54 1425.14 Q1821.86 1424.54 1824.13 1423.34 L1824.13 1427.36 Q1821.84 1428.34 1819.43 1428.84 Q1817.02 1429.35 1814.54 1429.35 Q1808.34 1429.35 1804.71 1425.74 Q1801.1 1422.13 1801.1 1415.97 Q1801.1 1409.61 1804.52 1405.88 Q1807.97 1402.13 1813.8 1402.13 Q1819.04 1402.13 1822.07 1405.51 Q1825.12 1408.87 1825.12 1414.65 M1820.86 1413.4 Q1820.82 1409.91 1818.9 1407.83 Q1817 1405.74 1813.85 1405.74 Q1810.29 1405.74 1808.13 1407.76 Q1806 1409.77 1805.68 1413.43 L1820.86 1413.4 Z" fill="#000000" fill-rule="evenodd" fill-opacity="1" /><path clip-path="url(#clip980)" d="M 0 0 M1827.44 1413.8 L1839.91 1413.8 L1839.91 1417.59 L1827.44 1417.59 L1827.44 1413.8 Z" fill="#000000" fill-rule="evenodd" fill-opacity="1" /><path clip-path="url(#clip980)" d="M 0 0 M1860.91 1403.52 L1860.91 1407.55 Q1859.1 1406.62 1857.16 1406.16 Q1855.22 1405.7 1853.13 1405.7 Q1849.96 1405.7 1848.36 1406.67 Q1846.79 1407.64 1846.79 1409.59 Q1846.79 1411.07 1847.92 1411.92 Q1849.06 1412.76 1852.48 1413.52 L1853.94 1413.84 Q1858.48 1414.82 1860.38 1416.6 Q1862.3 1418.36 1862.3 1421.53 Q1862.3 1425.14 1859.43 1427.25 Q1856.58 1429.35 1851.58 1429.35 Q1849.5 1429.35 1847.23 1428.94 Q1844.98 1428.54 1842.48 1427.73 L1842.48 1423.34 Q1844.85 1424.56 1847.14 1425.19 Q1849.43 1425.79 1851.67 1425.79 Q1854.68 1425.79 1856.3 1424.77 Q1857.92 1423.73 1857.92 1421.85 Q1857.92 1420.12 1856.74 1419.19 Q1855.59 1418.27 1851.63 1417.41 L1850.15 1417.06 Q1846.19 1416.23 1844.43 1414.52 Q1842.67 1412.78 1842.67 1409.77 Q1842.67 1406.11 1845.26 1404.12 Q1847.85 1402.13 1852.62 1402.13 Q1854.98 1402.13 1857.07 1402.48 Q1859.15 1402.83 1860.91 1403.52 Z" fill="#000000" fill-rule="evenodd" fill-opacity="1" /><path clip-path="url(#clip980)" d="M 0 0 M1888.94 1414.65 L1888.94 1416.74 L1869.36 1416.74 Q1869.64 1421.14 1872 1423.45 Q1874.38 1425.74 1878.62 1425.74 Q1881.07 1425.74 1883.36 1425.14 Q1885.68 1424.54 1887.95 1423.34 L1887.95 1427.36 Q1885.66 1428.34 1883.25 1428.84 Q1880.84 1429.35 1878.36 1429.35 Q1872.16 1429.35 1868.53 1425.74 Q1864.91 1422.13 1864.91 1415.97 Q1864.91 1409.61 1868.34 1405.88 Q1871.79 1402.13 1877.62 1402.13 Q1882.85 1402.13 1885.89 1405.51 Q1888.94 1408.87 1888.94 1414.65 M1884.68 1413.4 Q1884.64 1409.91 1882.72 1407.83 Q1880.82 1405.74 1877.67 1405.74 Q1874.1 1405.74 1871.95 1407.76 Q1869.82 1409.77 1869.5 1413.43 L1884.68 1413.4 Z" fill="#000000" fill-rule="evenodd" fill-opacity="1" /><path clip-path="url(#clip980)" d="M 0 0 M1914.13 1402.76 L1904.75 1415.37 L1914.61 1428.68 L1909.59 1428.68 L1902.04 1418.5 L1894.5 1428.68 L1889.47 1428.68 L1899.54 1415.12 L1890.33 1402.76 L1895.35 1402.76 L1902.23 1411.99 L1909.1 1402.76 L1914.13 1402.76 Z" fill="#000000" fill-rule="evenodd" fill-opacity="1" /><path clip-path="url(#clip980)" d="M 0 0 M1945.93 1415.65 Q1940.77 1415.65 1938.78 1416.83 Q1936.79 1418.01 1936.79 1420.86 Q1936.79 1423.13 1938.27 1424.47 Q1939.78 1425.79 1942.34 1425.79 Q1945.89 1425.79 1948.02 1423.29 Q1950.17 1420.77 1950.17 1416.6 L1950.17 1415.65 L1945.93 1415.65 M1954.43 1413.89 L1954.43 1428.68 L1950.17 1428.68 L1950.17 1424.75 Q1948.71 1427.11 1946.53 1428.24 Q1944.36 1429.35 1941.21 1429.35 Q1937.23 1429.35 1934.87 1427.13 Q1932.53 1424.89 1932.53 1421.14 Q1932.53 1416.76 1935.45 1414.54 Q1938.39 1412.32 1944.2 1412.32 L1950.17 1412.32 L1950.17 1411.9 Q1950.17 1408.96 1948.22 1407.36 Q1946.3 1405.74 1942.81 1405.74 Q1940.59 1405.74 1938.48 1406.28 Q1936.37 1406.81 1934.43 1407.87 L1934.43 1403.94 Q1936.77 1403.03 1938.97 1402.59 Q1941.16 1402.13 1943.25 1402.13 Q1948.87 1402.13 1951.65 1405.05 Q1954.43 1407.96 1954.43 1413.89 Z" fill="#000000" fill-rule="evenodd" fill-opacity="1" /><path clip-path="url(#clip980)" d="M 0 0 M1975.96 1406.69 L1975.96 1392.66 L1980.21 1392.66 L1980.21 1428.68 L1975.96 1428.68 L1975.96 1424.79 Q1974.61 1427.11 1972.55 1428.24 Q1970.52 1429.35 1967.65 1429.35 Q1962.95 1429.35 1959.98 1425.6 Q1957.04 1421.85 1957.04 1415.74 Q1957.04 1409.63 1959.98 1405.88 Q1962.95 1402.13 1967.65 1402.13 Q1970.52 1402.13 1972.55 1403.27 Q1974.61 1404.38 1975.96 1406.69 M1961.44 1415.74 Q1961.44 1420.44 1963.36 1423.13 Q1965.31 1425.79 1968.69 1425.79 Q1972.07 1425.79 1974.01 1423.13 Q1975.96 1420.44 1975.96 1415.74 Q1975.96 1411.04 1974.01 1408.38 Q1972.07 1405.7 1968.69 1405.7 Q1965.31 1405.7 1963.36 1408.38 Q1961.44 1411.04 1961.44 1415.74 Z" fill="#000000" fill-rule="evenodd" fill-opacity="1" /><path clip-path="url(#clip980)" d="M 0 0 M1984.68 1402.76 L1988.94 1402.76 L1988.94 1429.15 Q1988.94 1434.1 1987.04 1436.32 Q1985.17 1438.54 1980.98 1438.54 L1979.36 1438.54 L1979.36 1434.93 L1980.49 1434.93 Q1982.92 1434.93 1983.8 1433.8 Q1984.68 1432.69 1984.68 1429.15 L1984.68 1402.76 M1984.68 1392.66 L1988.94 1392.66 L1988.94 1398.06 L1984.68 1398.06 L1984.68 1392.66 Z" fill="#000000" fill-rule="evenodd" fill-opacity="1" /><path clip-path="url(#clip980)" d="M 0 0 M1992.97 1418.45 L1992.97 1402.76 L1997.23 1402.76 L1997.23 1418.29 Q1997.23 1421.97 1998.66 1423.82 Q2000.1 1425.65 2002.97 1425.65 Q2006.42 1425.65 2008.41 1423.45 Q2010.42 1421.25 2010.42 1417.46 L2010.42 1402.76 L2014.68 1402.76 L2014.68 1428.68 L2010.42 1428.68 L2010.42 1424.7 Q2008.87 1427.06 2006.81 1428.22 Q2004.77 1429.35 2002.07 1429.35 Q1997.6 1429.35 1995.28 1426.58 Q1992.97 1423.8 1992.97 1418.45 M2003.69 1402.13 L2003.69 1402.13 Z" fill="#000000" fill-rule="evenodd" fill-opacity="1" /><path clip-path="url(#clip980)" d="M 0 0 M2035.68 1403.52 L2035.68 1407.55 Q2033.87 1406.62 2031.93 1406.16 Q2029.98 1405.7 2027.9 1405.7 Q2024.73 1405.7 2023.13 1406.67 Q2021.56 1407.64 2021.56 1409.59 Q2021.56 1411.07 2022.69 1411.92 Q2023.83 1412.76 2027.25 1413.52 L2028.71 1413.84 Q2033.25 1414.82 2035.15 1416.6 Q2037.07 1418.36 2037.07 1421.53 Q2037.07 1425.14 2034.2 1427.25 Q2031.35 1429.35 2026.35 1429.35 Q2024.27 1429.35 2022 1428.94 Q2019.75 1428.54 2017.25 1427.73 L2017.25 1423.34 Q2019.61 1424.56 2021.9 1425.19 Q2024.2 1425.79 2026.44 1425.79 Q2029.45 1425.79 2031.07 1424.77 Q2032.69 1423.73 2032.69 1421.85 Q2032.69 1420.12 2031.51 1419.19 Q2030.35 1418.27 2026.4 1417.41 L2024.91 1417.06 Q2020.96 1416.23 2019.2 1414.52 Q2017.44 1412.78 2017.44 1409.77 Q2017.44 1406.11 2020.03 1404.12 Q2022.62 1402.13 2027.39 1402.13 Q2029.75 1402.13 2031.83 1402.48 Q2033.92 1402.83 2035.68 1403.52 Z" fill="#000000" fill-rule="evenodd" fill-opacity="1" /><path clip-path="url(#clip980)" d="M 0 0 M2045.75 1395.4 L2045.75 1402.76 L2054.52 1402.76 L2054.52 1406.07 L2045.75 1406.07 L2045.75 1420.14 Q2045.75 1423.31 2046.6 1424.21 Q2047.48 1425.12 2050.14 1425.12 L2054.52 1425.12 L2054.52 1428.68 L2050.14 1428.68 Q2045.21 1428.68 2043.34 1426.85 Q2041.46 1425 2041.46 1420.14 L2041.46 1406.07 L2038.34 1406.07 L2038.34 1402.76 L2041.46 1402.76 L2041.46 1395.4 L2045.75 1395.4 Z" fill="#000000" fill-rule="evenodd" fill-opacity="1" /><path clip-path="url(#clip980)" d="M 0 0 M2081.16 1414.65 L2081.16 1416.74 L2061.58 1416.74 Q2061.86 1421.14 2064.22 1423.45 Q2066.6 1425.74 2070.84 1425.74 Q2073.29 1425.74 2075.58 1425.14 Q2077.9 1424.54 2080.17 1423.34 L2080.17 1427.36 Q2077.88 1428.34 2075.47 1428.84 Q2073.06 1429.35 2070.58 1429.35 Q2064.38 1429.35 2060.75 1425.74 Q2057.14 1422.13 2057.14 1415.97 Q2057.14 1409.61 2060.56 1405.88 Q2064.01 1402.13 2069.84 1402.13 Q2075.08 1402.13 2078.11 1405.51 Q2081.16 1408.87 2081.16 1414.65 M2076.9 1413.4 Q2076.86 1409.91 2074.94 1407.83 Q2073.04 1405.74 2069.89 1405.74 Q2066.33 1405.74 2064.17 1407.76 Q2062.04 1409.77 2061.72 1413.43 L2076.9 1413.4 Z" fill="#000000" fill-rule="evenodd" fill-opacity="1" /><path clip-path="url(#clip980)" d="M 0 0 M2102.69 1406.69 L2102.69 1392.66 L2106.95 1392.66 L2106.95 1428.68 L2102.69 1428.68 L2102.69 1424.79 Q2101.35 1427.11 2099.29 1428.24 Q2097.25 1429.35 2094.38 1429.35 Q2089.68 1429.35 2086.72 1425.6 Q2083.78 1421.85 2083.78 1415.74 Q2083.78 1409.63 2086.72 1405.88 Q2089.68 1402.13 2094.38 1402.13 Q2097.25 1402.13 2099.29 1403.27 Q2101.35 1404.38 2102.69 1406.69 M2088.18 1415.74 Q2088.18 1420.44 2090.1 1423.13 Q2092.04 1425.79 2095.42 1425.79 Q2098.8 1425.79 2100.75 1423.13 Q2102.69 1420.44 2102.69 1415.74 Q2102.69 1411.04 2100.75 1408.38 Q2098.8 1405.7 2095.42 1405.7 Q2092.04 1405.7 2090.1 1408.38 Q2088.18 1411.04 2088.18 1415.74 Z" fill="#000000" fill-rule="evenodd" fill-opacity="1" /><path clip-path="url(#clip980)" d="M 0 0 M2131.12 1424.75 L2147.44 1424.75 L2147.44 1428.68 L2125.49 1428.68 L2125.49 1424.75 Q2128.15 1421.99 2132.74 1417.36 Q2137.34 1412.71 2138.52 1411.37 Q2140.77 1408.84 2141.65 1407.11 Q2142.55 1405.35 2142.55 1403.66 Q2142.55 1400.9 2140.61 1399.17 Q2138.69 1397.43 2135.58 1397.43 Q2133.39 1397.43 2130.93 1398.2 Q2128.5 1398.96 2125.72 1400.51 L2125.72 1395.79 Q2128.55 1394.65 2131 1394.08 Q2133.45 1393.5 2135.49 1393.5 Q2140.86 1393.5 2144.06 1396.18 Q2147.25 1398.87 2147.25 1403.36 Q2147.25 1405.49 2146.44 1407.41 Q2145.65 1409.31 2143.55 1411.9 Q2142.97 1412.57 2139.87 1415.79 Q2136.76 1418.98 2131.12 1424.75 Z" fill="#000000" fill-rule="evenodd" fill-opacity="1" /><path clip-path="url(#clip980)" d="M 0 0 M2162.51 1397.2 Q2158.89 1397.2 2157.07 1400.77 Q2155.26 1404.31 2155.26 1411.44 Q2155.26 1418.54 2157.07 1422.11 Q2158.89 1425.65 2162.51 1425.65 Q2166.14 1425.65 2167.95 1422.11 Q2169.77 1418.54 2169.77 1411.44 Q2169.77 1404.31 2167.95 1400.77 Q2166.14 1397.2 2162.51 1397.2 M2162.51 1393.5 Q2168.32 1393.5 2171.37 1398.1 Q2174.45 1402.69 2174.45 1411.44 Q2174.45 1420.16 2171.37 1424.77 Q2168.32 1429.35 2162.51 1429.35 Q2156.7 1429.35 2153.62 1424.77 Q2150.56 1420.16 2150.56 1411.44 Q2150.56 1402.69 2153.62 1398.1 Q2156.7 1393.5 2162.51 1393.5 Z" fill="#000000" fill-rule="evenodd" fill-opacity="1" /><path clip-path="url(#clip980)" d="M 0 0 M2183.55 1424.75 L2199.87 1424.75 L2199.87 1428.68 L2177.92 1428.68 L2177.92 1424.75 Q2180.58 1421.99 2185.17 1417.36 Q2189.77 1412.71 2190.95 1411.37 Q2193.2 1408.84 2194.08 1407.11 Q2194.98 1405.35 2194.98 1403.66 Q2194.98 1400.9 2193.04 1399.17 Q2191.12 1397.43 2188.01 1397.43 Q2185.82 1397.43 2183.36 1398.2 Q2180.93 1398.96 2178.15 1400.51 L2178.15 1395.79 Q2180.98 1394.65 2183.43 1394.08 Q2185.88 1393.5 2187.92 1393.5 Q2193.29 1393.5 2196.49 1396.18 Q2199.68 1398.87 2199.68 1403.36 Q2199.68 1405.49 2198.87 1407.41 Q2198.08 1409.31 2195.98 1411.9 Q2195.4 1412.57 2192.3 1415.79 Q2189.2 1418.98 2183.55 1424.75 Z" fill="#000000" fill-rule="evenodd" fill-opacity="1" /><path clip-path="url(#clip980)" d="M 0 0 M2214.94 1397.2 Q2211.32 1397.2 2209.5 1400.77 Q2207.69 1404.31 2207.69 1411.44 Q2207.69 1418.54 2209.5 1422.11 Q2211.32 1425.65 2214.94 1425.65 Q2218.57 1425.65 2220.38 1422.11 Q2222.2 1418.54 2222.2 1411.44 Q2222.2 1404.31 2220.38 1400.77 Q2218.57 1397.2 2214.94 1397.2 M2214.94 1393.5 Q2220.75 1393.5 2223.8 1398.1 Q2226.88 1402.69 2226.88 1411.44 Q2226.88 1420.16 2223.8 1424.77 Q2220.75 1429.35 2214.94 1429.35 Q2209.13 1429.35 2206.05 1424.77 Q2202.99 1420.16 2202.99 1411.44 Q2202.99 1402.69 2206.05 1398.1 Q2209.13 1393.5 2214.94 1393.5 Z" fill="#000000" fill-rule="evenodd" fill-opacity="1" /></svg>
