<?xml version="1.0" encoding="utf-8"?>
<svg xmlns="http://www.w3.org/2000/svg" xmlns:xlink="http://www.w3.org/1999/xlink" width="600" height="400" viewBox="0 0 2400 1600">
<defs>
  <clipPath id="clip460">
    <rect x="0" y="0" width="2400" height="1600"/>
  </clipPath>
</defs>
<path clip-path="url(#clip460)" d="
M0 1600 L2400 1600 L2400 0 L0 0  Z
  " fill="#ffffff" fill-rule="evenodd" fill-opacity="1"/>
<defs>
  <clipPath id="clip461">
    <rect x="480" y="0" width="1681" height="1600"/>
  </clipPath>
</defs>
<path clip-path="url(#clip460)" d="
M271.244 1521.01 L2352.76 1521.01 L2352.76 47.2441 L271.244 47.2441  Z
  " fill="#ffffff" fill-rule="evenodd" fill-opacity="1"/>
<defs>
  <clipPath id="clip462">
    <rect x="271" y="47" width="2083" height="1475"/>
  </clipPath>
</defs>
<polyline clip-path="url(#clip462)" style="stroke:#000000; stroke-width:2; stroke-opacity:0.1; fill:none" points="
  330.155,1521.01 330.155,47.2441 
  "/>
<polyline clip-path="url(#clip462)" style="stroke:#000000; stroke-width:2; stroke-opacity:0.1; fill:none" points="
  821.077,1521.01 821.077,47.2441 
  "/>
<polyline clip-path="url(#clip462)" style="stroke:#000000; stroke-width:2; stroke-opacity:0.1; fill:none" points="
  1312,1521.01 1312,47.2441 
  "/>
<polyline clip-path="url(#clip462)" style="stroke:#000000; stroke-width:2; stroke-opacity:0.1; fill:none" points="
  1802.92,1521.01 1802.92,47.2441 
  "/>
<polyline clip-path="url(#clip462)" style="stroke:#000000; stroke-width:2; stroke-opacity:0.1; fill:none" points="
  2293.85,1521.01 2293.85,47.2441 
  "/>
<polyline clip-path="url(#clip460)" style="stroke:#000000; stroke-width:4; stroke-opacity:1; fill:none" points="
  271.244,1521.01 2352.76,1521.01 
  "/>
<polyline clip-path="url(#clip460)" style="stroke:#000000; stroke-width:4; stroke-opacity:1; fill:none" points="
  330.155,1521.01 330.155,1503.32 
  "/>
<polyline clip-path="url(#clip460)" style="stroke:#000000; stroke-width:4; stroke-opacity:1; fill:none" points="
  821.077,1521.01 821.077,1503.32 
  "/>
<polyline clip-path="url(#clip460)" style="stroke:#000000; stroke-width:4; stroke-opacity:1; fill:none" points="
  1312,1521.01 1312,1503.32 
  "/>
<polyline clip-path="url(#clip460)" style="stroke:#000000; stroke-width:4; stroke-opacity:1; fill:none" points="
  1802.92,1521.01 1802.92,1503.32 
  "/>
<polyline clip-path="url(#clip460)" style="stroke:#000000; stroke-width:4; stroke-opacity:1; fill:none" points="
  2293.85,1521.01 2293.85,1503.32 
  "/>
<path clip-path="url(#clip460)" d="M 0 0 M284.819 1577.74 L301.139 1577.74 L301.139 1581.68 L279.194 1581.68 L279.194 1577.74 Q281.856 1574.99 286.44 1570.36 Q291.046 1565.71 292.227 1564.37 Q294.472 1561.84 295.352 1560.11 Q296.255 1558.35 296.255 1556.66 Q296.255 1553.9 294.31 1552.17 Q292.389 1550.43 289.287 1550.43 Q287.088 1550.43 284.634 1551.19 Q282.204 1551.96 279.426 1553.51 L279.426 1548.79 Q282.25 1547.65 284.704 1547.07 Q287.157 1546.49 289.194 1546.49 Q294.565 1546.49 297.759 1549.18 Q300.954 1551.87 300.954 1556.36 Q300.954 1558.49 300.143 1560.41 Q299.356 1562.3 297.25 1564.9 Q296.671 1565.57 293.569 1568.79 Q290.468 1571.98 284.819 1577.74 Z" fill="#000000" fill-rule="evenodd" fill-opacity="1" /><path clip-path="url(#clip460)" d="M 0 0 M316.208 1550.2 Q312.597 1550.2 310.768 1553.76 Q308.963 1557.31 308.963 1564.43 Q308.963 1571.54 310.768 1575.11 Q312.597 1578.65 316.208 1578.65 Q319.842 1578.65 321.648 1575.11 Q323.477 1571.54 323.477 1564.43 Q323.477 1557.31 321.648 1553.76 Q319.842 1550.2 316.208 1550.2 M316.208 1546.49 Q322.018 1546.49 325.074 1551.1 Q328.153 1555.68 328.153 1564.43 Q328.153 1573.16 325.074 1577.77 Q322.018 1582.35 316.208 1582.35 Q310.398 1582.35 307.319 1577.77 Q304.264 1573.16 304.264 1564.43 Q304.264 1555.68 307.319 1551.1 Q310.398 1546.49 316.208 1546.49 Z" fill="#000000" fill-rule="evenodd" fill-opacity="1" /><path clip-path="url(#clip460)" d="M 0 0 M334.032 1577.74 L341.671 1577.74 L341.671 1551.38 L333.361 1553.05 L333.361 1548.79 L341.625 1547.12 L346.301 1547.12 L346.301 1577.74 L353.939 1577.74 L353.939 1581.68 L334.032 1581.68 L334.032 1577.74 Z" fill="#000000" fill-rule="evenodd" fill-opacity="1" /><path clip-path="url(#clip460)" d="M 0 0 M369.587 1562.54 Q366.439 1562.54 364.587 1564.69 Q362.759 1566.84 362.759 1570.59 Q362.759 1574.32 364.587 1576.49 Q366.439 1578.65 369.587 1578.65 Q372.736 1578.65 374.564 1576.49 Q376.416 1574.32 376.416 1570.59 Q376.416 1566.84 374.564 1564.69 Q372.736 1562.54 369.587 1562.54 M378.87 1547.88 L378.87 1552.14 Q377.111 1551.31 375.305 1550.87 Q373.523 1550.43 371.763 1550.43 Q367.134 1550.43 364.68 1553.56 Q362.25 1556.68 361.902 1563 Q363.268 1560.99 365.328 1559.92 Q367.388 1558.83 369.865 1558.83 Q375.074 1558.83 378.083 1562 Q381.115 1565.15 381.115 1570.59 Q381.115 1575.92 377.967 1579.13 Q374.819 1582.35 369.587 1582.35 Q363.592 1582.35 360.421 1577.77 Q357.25 1573.16 357.25 1564.43 Q357.25 1556.24 361.138 1551.38 Q365.027 1546.49 371.578 1546.49 Q373.337 1546.49 375.12 1546.84 Q376.925 1547.19 378.87 1547.88 Z" fill="#000000" fill-rule="evenodd" fill-opacity="1" /><path clip-path="url(#clip460)" d="M 0 0 M776.274 1577.74 L792.594 1577.74 L792.594 1581.68 L770.649 1581.68 L770.649 1577.74 Q773.311 1574.99 777.895 1570.36 Q782.501 1565.71 783.682 1564.37 Q785.927 1561.84 786.807 1560.11 Q787.71 1558.35 787.71 1556.66 Q787.71 1553.9 785.765 1552.17 Q783.844 1550.43 780.742 1550.43 Q778.543 1550.43 776.089 1551.19 Q773.659 1551.96 770.881 1553.51 L770.881 1548.79 Q773.705 1547.65 776.159 1547.07 Q778.612 1546.49 780.649 1546.49 Q786.02 1546.49 789.214 1549.18 Q792.409 1551.87 792.409 1556.36 Q792.409 1558.49 791.598 1560.41 Q790.811 1562.3 788.705 1564.9 Q788.126 1565.57 785.024 1568.79 Q781.923 1571.98 776.274 1577.74 Z" fill="#000000" fill-rule="evenodd" fill-opacity="1" /><path clip-path="url(#clip460)" d="M 0 0 M807.663 1550.2 Q804.052 1550.2 802.223 1553.76 Q800.418 1557.31 800.418 1564.43 Q800.418 1571.54 802.223 1575.11 Q804.052 1578.65 807.663 1578.65 Q811.297 1578.65 813.103 1575.11 Q814.932 1571.54 814.932 1564.43 Q814.932 1557.31 813.103 1553.76 Q811.297 1550.2 807.663 1550.2 M807.663 1546.49 Q813.473 1546.49 816.529 1551.1 Q819.608 1555.68 819.608 1564.43 Q819.608 1573.16 816.529 1577.77 Q813.473 1582.35 807.663 1582.35 Q801.853 1582.35 798.774 1577.77 Q795.719 1573.16 795.719 1564.43 Q795.719 1555.68 798.774 1551.1 Q801.853 1546.49 807.663 1546.49 Z" fill="#000000" fill-rule="evenodd" fill-opacity="1" /><path clip-path="url(#clip460)" d="M 0 0 M825.487 1577.74 L833.126 1577.74 L833.126 1551.38 L824.816 1553.05 L824.816 1548.79 L833.08 1547.12 L837.756 1547.12 L837.756 1577.74 L845.394 1577.74 L845.394 1581.68 L825.487 1581.68 L825.487 1577.74 Z" fill="#000000" fill-rule="evenodd" fill-opacity="1" /><path clip-path="url(#clip460)" d="M 0 0 M849.283 1547.12 L871.505 1547.12 L871.505 1549.11 L858.959 1581.68 L854.075 1581.68 L865.88 1551.06 L849.283 1551.06 L849.283 1547.12 Z" fill="#000000" fill-rule="evenodd" fill-opacity="1" /><path clip-path="url(#clip460)" d="M 0 0 M1266.79 1577.74 L1283.11 1577.74 L1283.11 1581.68 L1261.17 1581.68 L1261.17 1577.74 Q1263.83 1574.99 1268.41 1570.36 Q1273.02 1565.71 1274.2 1564.37 Q1276.44 1561.84 1277.32 1560.11 Q1278.23 1558.35 1278.23 1556.66 Q1278.23 1553.9 1276.28 1552.17 Q1274.36 1550.43 1271.26 1550.43 Q1269.06 1550.43 1266.61 1551.19 Q1264.18 1551.96 1261.4 1553.51 L1261.4 1548.79 Q1264.22 1547.65 1266.68 1547.07 Q1269.13 1546.49 1271.17 1546.49 Q1276.54 1546.49 1279.73 1549.18 Q1282.93 1551.87 1282.93 1556.36 Q1282.93 1558.49 1282.12 1560.41 Q1281.33 1562.3 1279.22 1564.9 Q1278.64 1565.57 1275.54 1568.79 Q1272.44 1571.98 1266.79 1577.74 Z" fill="#000000" fill-rule="evenodd" fill-opacity="1" /><path clip-path="url(#clip460)" d="M 0 0 M1298.18 1550.2 Q1294.57 1550.2 1292.74 1553.76 Q1290.94 1557.31 1290.94 1564.43 Q1290.94 1571.54 1292.74 1575.11 Q1294.57 1578.65 1298.18 1578.65 Q1301.81 1578.65 1303.62 1575.11 Q1305.45 1571.54 1305.45 1564.43 Q1305.45 1557.31 1303.62 1553.76 Q1301.81 1550.2 1298.18 1550.2 M1298.18 1546.49 Q1303.99 1546.49 1307.05 1551.1 Q1310.13 1555.68 1310.13 1564.43 Q1310.13 1573.16 1307.05 1577.77 Q1303.99 1582.35 1298.18 1582.35 Q1292.37 1582.35 1289.29 1577.77 Q1286.24 1573.16 1286.24 1564.43 Q1286.24 1555.68 1289.29 1551.1 Q1292.37 1546.49 1298.18 1546.49 Z" fill="#000000" fill-rule="evenodd" fill-opacity="1" /><path clip-path="url(#clip460)" d="M 0 0 M1316 1577.74 L1323.64 1577.74 L1323.64 1551.38 L1315.33 1553.05 L1315.33 1548.79 L1323.6 1547.12 L1328.27 1547.12 L1328.27 1577.74 L1335.91 1577.74 L1335.91 1581.68 L1316 1581.68 L1316 1577.74 Z" fill="#000000" fill-rule="evenodd" fill-opacity="1" /><path clip-path="url(#clip460)" d="M 0 0 M1350.98 1565.27 Q1347.65 1565.27 1345.73 1567.05 Q1343.83 1568.83 1343.83 1571.96 Q1343.83 1575.08 1345.73 1576.87 Q1347.65 1578.65 1350.98 1578.65 Q1354.31 1578.65 1356.24 1576.87 Q1358.16 1575.06 1358.16 1571.96 Q1358.16 1568.83 1356.24 1567.05 Q1354.34 1565.27 1350.98 1565.27 M1346.31 1563.28 Q1343.3 1562.54 1341.61 1560.48 Q1339.94 1558.42 1339.94 1555.45 Q1339.94 1551.31 1342.88 1548.9 Q1345.84 1546.49 1350.98 1546.49 Q1356.14 1546.49 1359.08 1548.9 Q1362.02 1551.31 1362.02 1555.45 Q1362.02 1558.42 1360.33 1560.48 Q1358.67 1562.54 1355.68 1563.28 Q1359.06 1564.06 1360.93 1566.36 Q1362.83 1568.65 1362.83 1571.96 Q1362.83 1576.98 1359.75 1579.67 Q1356.7 1582.35 1350.98 1582.35 Q1345.26 1582.35 1342.19 1579.67 Q1339.13 1576.98 1339.13 1571.96 Q1339.13 1568.65 1341.03 1566.36 Q1342.93 1564.06 1346.31 1563.28 M1344.59 1555.89 Q1344.59 1558.58 1346.26 1560.08 Q1347.95 1561.59 1350.98 1561.59 Q1353.99 1561.59 1355.68 1560.08 Q1357.39 1558.58 1357.39 1555.89 Q1357.39 1553.21 1355.68 1551.7 Q1353.99 1550.2 1350.98 1550.2 Q1347.95 1550.2 1346.26 1551.7 Q1344.59 1553.21 1344.59 1555.89 Z" fill="#000000" fill-rule="evenodd" fill-opacity="1" /><path clip-path="url(#clip460)" d="M 0 0 M1757.76 1577.74 L1774.08 1577.74 L1774.08 1581.68 L1752.14 1581.68 L1752.14 1577.74 Q1754.8 1574.99 1759.38 1570.36 Q1763.99 1565.71 1765.17 1564.37 Q1767.41 1561.84 1768.29 1560.11 Q1769.2 1558.35 1769.2 1556.66 Q1769.2 1553.9 1767.25 1552.17 Q1765.33 1550.43 1762.23 1550.43 Q1760.03 1550.43 1757.58 1551.19 Q1755.15 1551.96 1752.37 1553.51 L1752.37 1548.79 Q1755.19 1547.65 1757.65 1547.07 Q1760.1 1546.49 1762.14 1546.49 Q1767.51 1546.49 1770.7 1549.18 Q1773.89 1551.87 1773.89 1556.36 Q1773.89 1558.49 1773.08 1560.41 Q1772.3 1562.3 1770.19 1564.9 Q1769.61 1565.57 1766.51 1568.79 Q1763.41 1571.98 1757.76 1577.74 Z" fill="#000000" fill-rule="evenodd" fill-opacity="1" /><path clip-path="url(#clip460)" d="M 0 0 M1789.15 1550.2 Q1785.54 1550.2 1783.71 1553.76 Q1781.9 1557.31 1781.9 1564.43 Q1781.9 1571.54 1783.71 1575.11 Q1785.54 1578.65 1789.15 1578.65 Q1792.78 1578.65 1794.59 1575.11 Q1796.42 1571.54 1796.42 1564.43 Q1796.42 1557.31 1794.59 1553.76 Q1792.78 1550.2 1789.15 1550.2 M1789.15 1546.49 Q1794.96 1546.49 1798.02 1551.1 Q1801.09 1555.68 1801.09 1564.43 Q1801.09 1573.16 1798.02 1577.77 Q1794.96 1582.35 1789.15 1582.35 Q1783.34 1582.35 1780.26 1577.77 Q1777.21 1573.16 1777.21 1564.43 Q1777.21 1555.68 1780.26 1551.1 Q1783.34 1546.49 1789.15 1546.49 Z" fill="#000000" fill-rule="evenodd" fill-opacity="1" /><path clip-path="url(#clip460)" d="M 0 0 M1806.97 1577.74 L1814.61 1577.74 L1814.61 1551.38 L1806.3 1553.05 L1806.3 1548.79 L1814.57 1547.12 L1819.24 1547.12 L1819.24 1577.74 L1826.88 1577.74 L1826.88 1581.68 L1806.97 1581.68 L1806.97 1577.74 Z" fill="#000000" fill-rule="evenodd" fill-opacity="1" /><path clip-path="url(#clip460)" d="M 0 0 M1832.09 1580.96 L1832.09 1576.7 Q1833.85 1577.54 1835.65 1577.98 Q1837.46 1578.42 1839.2 1578.42 Q1843.83 1578.42 1846.26 1575.31 Q1848.71 1572.19 1849.06 1565.85 Q1847.71 1567.84 1845.65 1568.9 Q1843.59 1569.97 1841.09 1569.97 Q1835.91 1569.97 1832.88 1566.84 Q1829.87 1563.69 1829.87 1558.25 Q1829.87 1552.93 1833.02 1549.71 Q1836.16 1546.49 1841.39 1546.49 Q1847.39 1546.49 1850.54 1551.1 Q1853.71 1555.68 1853.71 1564.43 Q1853.71 1572.61 1849.82 1577.49 Q1845.95 1582.35 1839.4 1582.35 Q1837.64 1582.35 1835.84 1582 Q1834.03 1581.66 1832.09 1580.96 M1841.39 1566.31 Q1844.54 1566.31 1846.37 1564.16 Q1848.22 1562 1848.22 1558.25 Q1848.22 1554.53 1846.37 1552.37 Q1844.54 1550.2 1841.39 1550.2 Q1838.25 1550.2 1836.39 1552.37 Q1834.57 1554.53 1834.57 1558.25 Q1834.57 1562 1836.39 1564.16 Q1838.25 1566.31 1841.39 1566.31 Z" fill="#000000" fill-rule="evenodd" fill-opacity="1" /><path clip-path="url(#clip460)" d="M 0 0 M2248.78 1577.74 L2265.1 1577.74 L2265.1 1581.68 L2243.15 1581.68 L2243.15 1577.74 Q2245.81 1574.99 2250.4 1570.36 Q2255 1565.71 2256.18 1564.37 Q2258.43 1561.84 2259.31 1560.11 Q2260.21 1558.35 2260.21 1556.66 Q2260.21 1553.9 2258.27 1552.17 Q2256.35 1550.43 2253.24 1550.43 Q2251.04 1550.43 2248.59 1551.19 Q2246.16 1551.96 2243.38 1553.51 L2243.38 1548.79 Q2246.21 1547.65 2248.66 1547.07 Q2251.11 1546.49 2253.15 1546.49 Q2258.52 1546.49 2261.72 1549.18 Q2264.91 1551.87 2264.91 1556.36 Q2264.91 1558.49 2264.1 1560.41 Q2263.31 1562.3 2261.21 1564.9 Q2260.63 1565.57 2257.53 1568.79 Q2254.42 1571.98 2248.78 1577.74 Z" fill="#000000" fill-rule="evenodd" fill-opacity="1" /><path clip-path="url(#clip460)" d="M 0 0 M2280.16 1550.2 Q2276.55 1550.2 2274.72 1553.76 Q2272.92 1557.31 2272.92 1564.43 Q2272.92 1571.54 2274.72 1575.11 Q2276.55 1578.65 2280.16 1578.65 Q2283.8 1578.65 2285.6 1575.11 Q2287.43 1571.54 2287.43 1564.43 Q2287.43 1557.31 2285.6 1553.76 Q2283.8 1550.2 2280.16 1550.2 M2280.16 1546.49 Q2285.97 1546.49 2289.03 1551.1 Q2292.11 1555.68 2292.11 1564.43 Q2292.11 1573.16 2289.03 1577.77 Q2285.97 1582.35 2280.16 1582.35 Q2274.35 1582.35 2271.28 1577.77 Q2268.22 1573.16 2268.22 1564.43 Q2268.22 1555.68 2271.28 1551.1 Q2274.35 1546.49 2280.16 1546.49 Z" fill="#000000" fill-rule="evenodd" fill-opacity="1" /><path clip-path="url(#clip460)" d="M 0 0 M2301.21 1577.74 L2317.53 1577.74 L2317.53 1581.68 L2295.58 1581.68 L2295.58 1577.74 Q2298.24 1574.99 2302.83 1570.36 Q2307.43 1565.71 2308.61 1564.37 Q2310.86 1561.84 2311.74 1560.11 Q2312.64 1558.35 2312.64 1556.66 Q2312.64 1553.9 2310.7 1552.17 Q2308.78 1550.43 2305.67 1550.43 Q2303.47 1550.43 2301.02 1551.19 Q2298.59 1551.96 2295.81 1553.51 L2295.81 1548.79 Q2298.64 1547.65 2301.09 1547.07 Q2303.54 1546.49 2305.58 1546.49 Q2310.95 1546.49 2314.15 1549.18 Q2317.34 1551.87 2317.34 1556.36 Q2317.34 1558.49 2316.53 1560.41 Q2315.74 1562.3 2313.64 1564.9 Q2313.06 1565.57 2309.96 1568.79 Q2306.85 1571.98 2301.21 1577.74 Z" fill="#000000" fill-rule="evenodd" fill-opacity="1" /><path clip-path="url(#clip460)" d="M 0 0 M2332.59 1550.2 Q2328.98 1550.2 2327.16 1553.76 Q2325.35 1557.31 2325.35 1564.43 Q2325.35 1571.54 2327.16 1575.11 Q2328.98 1578.65 2332.59 1578.65 Q2336.23 1578.65 2338.03 1575.11 Q2339.86 1571.54 2339.86 1564.43 Q2339.86 1557.31 2338.03 1553.76 Q2336.23 1550.2 2332.59 1550.2 M2332.59 1546.49 Q2338.41 1546.49 2341.46 1551.1 Q2344.54 1555.68 2344.54 1564.43 Q2344.54 1573.16 2341.46 1577.77 Q2338.41 1582.35 2332.59 1582.35 Q2326.78 1582.35 2323.71 1577.77 Q2320.65 1573.16 2320.65 1564.43 Q2320.65 1555.68 2323.71 1551.1 Q2326.78 1546.49 2332.59 1546.49 Z" fill="#000000" fill-rule="evenodd" fill-opacity="1" /><polyline clip-path="url(#clip462)" style="stroke:#000000; stroke-width:2; stroke-opacity:0.1; fill:none" points="
  271.244,1497.07 2352.76,1497.07 
  "/>
<polyline clip-path="url(#clip462)" style="stroke:#000000; stroke-width:2; stroke-opacity:0.1; fill:none" points="
  271.244,1087.58 2352.76,1087.58 
  "/>
<polyline clip-path="url(#clip462)" style="stroke:#000000; stroke-width:2; stroke-opacity:0.1; fill:none" points="
  271.244,678.1 2352.76,678.1 
  "/>
<polyline clip-path="url(#clip462)" style="stroke:#000000; stroke-width:2; stroke-opacity:0.1; fill:none" points="
  271.244,268.616 2352.76,268.616 
  "/>
<polyline clip-path="url(#clip460)" style="stroke:#000000; stroke-width:4; stroke-opacity:1; fill:none" points="
  271.244,1521.01 271.244,47.2441 
  "/>
<polyline clip-path="url(#clip460)" style="stroke:#000000; stroke-width:4; stroke-opacity:1; fill:none" points="
  271.244,1497.07 296.222,1497.07 
  "/>
<polyline clip-path="url(#clip460)" style="stroke:#000000; stroke-width:4; stroke-opacity:1; fill:none" points="
  271.244,1087.58 296.222,1087.58 
  "/>
<polyline clip-path="url(#clip460)" style="stroke:#000000; stroke-width:4; stroke-opacity:1; fill:none" points="
  271.244,678.1 296.222,678.1 
  "/>
<polyline clip-path="url(#clip460)" style="stroke:#000000; stroke-width:4; stroke-opacity:1; fill:none" points="
  271.244,268.616 296.222,268.616 
  "/>
<path clip-path="url(#clip460)" d="M 0 0 M78.5551 1513.63 L78.5551 1509.37 Q80.3144 1510.21 82.1199 1510.65 Q83.9255 1511.09 85.6616 1511.09 Q90.2912 1511.09 92.7217 1507.98 Q95.1754 1504.86 95.5226 1498.52 Q94.18 1500.51 92.1199 1501.57 Q90.0597 1502.64 87.5597 1502.64 Q82.3745 1502.64 79.3422 1499.51 Q76.3329 1496.36 76.3329 1490.92 Q76.3329 1485.6 79.481 1482.38 Q82.6292 1479.16 87.8606 1479.16 Q93.856 1479.16 97.0041 1483.77 Q100.175 1488.35 100.175 1497.1 Q100.175 1505.28 96.2865 1510.16 Q92.4208 1515.02 85.8699 1515.02 Q84.1106 1515.02 82.3051 1514.67 Q80.4996 1514.33 78.5551 1513.63 M87.8606 1498.98 Q91.0088 1498.98 92.8375 1496.83 Q94.6893 1494.67 94.6893 1490.92 Q94.6893 1487.2 92.8375 1485.04 Q91.0088 1482.87 87.8606 1482.87 Q84.7125 1482.87 82.8607 1485.04 Q81.032 1487.2 81.032 1490.92 Q81.032 1494.67 82.8607 1496.83 Q84.7125 1498.98 87.8606 1498.98 Z" fill="#000000" fill-rule="evenodd" fill-opacity="1" /><path clip-path="url(#clip460)" d="M 0 0 M115.245 1482.87 Q111.634 1482.87 109.805 1486.43 Q107.999 1489.97 107.999 1497.1 Q107.999 1504.21 109.805 1507.78 Q111.634 1511.32 115.245 1511.32 Q118.879 1511.32 120.685 1507.78 Q122.513 1504.21 122.513 1497.1 Q122.513 1489.97 120.685 1486.43 Q118.879 1482.87 115.245 1482.87 M115.245 1479.16 Q121.055 1479.16 124.11 1483.77 Q127.189 1488.35 127.189 1497.1 Q127.189 1505.83 124.11 1510.44 Q121.055 1515.02 115.245 1515.02 Q109.435 1515.02 106.356 1510.44 Q103.3 1505.83 103.3 1497.1 Q103.3 1488.35 106.356 1483.77 Q109.435 1479.16 115.245 1479.16 Z" fill="#000000" fill-rule="evenodd" fill-opacity="1" /><path clip-path="url(#clip460)" d="M 0 0 M142.258 1482.87 Q138.647 1482.87 136.819 1486.43 Q135.013 1489.97 135.013 1497.1 Q135.013 1504.21 136.819 1507.78 Q138.647 1511.32 142.258 1511.32 Q145.893 1511.32 147.698 1507.78 Q149.527 1504.21 149.527 1497.1 Q149.527 1489.97 147.698 1486.43 Q145.893 1482.87 142.258 1482.87 M142.258 1479.16 Q148.069 1479.16 151.124 1483.77 Q154.203 1488.35 154.203 1497.1 Q154.203 1505.83 151.124 1510.44 Q148.069 1515.02 142.258 1515.02 Q136.448 1515.02 133.37 1510.44 Q130.314 1505.83 130.314 1497.1 Q130.314 1488.35 133.37 1483.77 Q136.448 1479.16 142.258 1479.16 Z" fill="#000000" fill-rule="evenodd" fill-opacity="1" /><path clip-path="url(#clip460)" d="M 0 0 M169.272 1482.87 Q165.661 1482.87 163.832 1486.43 Q162.027 1489.97 162.027 1497.1 Q162.027 1504.21 163.832 1507.78 Q165.661 1511.32 169.272 1511.32 Q172.906 1511.32 174.712 1507.78 Q176.541 1504.21 176.541 1497.1 Q176.541 1489.97 174.712 1486.43 Q172.906 1482.87 169.272 1482.87 M169.272 1479.16 Q175.082 1479.16 178.138 1483.77 Q181.217 1488.35 181.217 1497.1 Q181.217 1505.83 178.138 1510.44 Q175.082 1515.02 169.272 1515.02 Q163.462 1515.02 160.383 1510.44 Q157.328 1505.83 157.328 1497.1 Q157.328 1488.35 160.383 1483.77 Q163.462 1479.16 169.272 1479.16 Z" fill="#000000" fill-rule="evenodd" fill-opacity="1" /><path clip-path="url(#clip460)" d="M 0 0 M196.286 1482.87 Q192.675 1482.87 190.846 1486.43 Q189.041 1489.97 189.041 1497.1 Q189.041 1504.21 190.846 1507.78 Q192.675 1511.32 196.286 1511.32 Q199.92 1511.32 201.726 1507.78 Q203.554 1504.21 203.554 1497.1 Q203.554 1489.97 201.726 1486.43 Q199.92 1482.87 196.286 1482.87 M196.286 1479.16 Q202.096 1479.16 205.152 1483.77 Q208.23 1488.35 208.23 1497.1 Q208.23 1505.83 205.152 1510.44 Q202.096 1515.02 196.286 1515.02 Q190.476 1515.02 187.397 1510.44 Q184.342 1505.83 184.342 1497.1 Q184.342 1488.35 187.397 1483.77 Q190.476 1479.16 196.286 1479.16 Z" fill="#000000" fill-rule="evenodd" fill-opacity="1" /><path clip-path="url(#clip460)" d="M 0 0 M223.3 1482.87 Q219.689 1482.87 217.86 1486.43 Q216.054 1489.97 216.054 1497.1 Q216.054 1504.21 217.86 1507.78 Q219.689 1511.32 223.3 1511.32 Q226.934 1511.32 228.739 1507.78 Q230.568 1504.21 230.568 1497.1 Q230.568 1489.97 228.739 1486.43 Q226.934 1482.87 223.3 1482.87 M223.3 1479.16 Q229.11 1479.16 232.165 1483.77 Q235.244 1488.35 235.244 1497.1 Q235.244 1505.83 232.165 1510.44 Q229.11 1515.02 223.3 1515.02 Q217.49 1515.02 214.411 1510.44 Q211.355 1505.83 211.355 1497.1 Q211.355 1488.35 214.411 1483.77 Q217.49 1479.16 223.3 1479.16 Z" fill="#000000" fill-rule="evenodd" fill-opacity="1" /><path clip-path="url(#clip460)" d="M 0 0 M80.1523 1104.15 L80.1523 1099.89 Q81.9116 1100.72 83.7171 1101.16 Q85.5227 1101.6 87.2588 1101.6 Q91.8884 1101.6 94.3189 1098.5 Q96.7726 1095.37 97.1198 1089.03 Q95.7772 1091.02 93.7171 1092.09 Q91.6569 1093.15 89.1569 1093.15 Q83.9718 1093.15 80.9394 1090.03 Q77.9301 1086.88 77.9301 1081.44 Q77.9301 1076.11 81.0783 1072.9 Q84.2264 1069.68 89.4578 1069.68 Q95.4532 1069.68 98.6013 1074.29 Q101.773 1078.87 101.773 1087.62 Q101.773 1095.79 97.8837 1100.67 Q94.018 1105.54 87.4671 1105.54 Q85.7079 1105.54 83.9023 1105.19 Q82.0968 1104.84 80.1523 1104.15 M89.4578 1089.49 Q92.606 1089.49 94.4347 1087.34 Q96.2865 1085.19 96.2865 1081.44 Q96.2865 1077.71 94.4347 1075.56 Q92.606 1073.38 89.4578 1073.38 Q86.3097 1073.38 84.4579 1075.56 Q82.6292 1077.71 82.6292 1081.44 Q82.6292 1085.19 84.4579 1087.34 Q86.3097 1089.49 89.4578 1089.49 Z" fill="#000000" fill-rule="evenodd" fill-opacity="1" /><path clip-path="url(#clip460)" d="M 0 0 M110.87 1100.93 L127.189 1100.93 L127.189 1104.86 L105.245 1104.86 L105.245 1100.93 Q107.907 1098.17 112.49 1093.55 Q117.097 1088.89 118.277 1087.55 Q120.522 1085.03 121.402 1083.29 Q122.305 1081.53 122.305 1079.84 Q122.305 1077.09 120.36 1075.35 Q118.439 1073.61 115.337 1073.61 Q113.138 1073.61 110.685 1074.38 Q108.254 1075.14 105.476 1076.69 L105.476 1071.97 Q108.3 1070.84 110.754 1070.26 Q113.208 1069.68 115.245 1069.68 Q120.615 1069.68 123.81 1072.36 Q127.004 1075.05 127.004 1079.54 Q127.004 1081.67 126.194 1083.59 Q125.407 1085.49 123.3 1088.08 Q122.722 1088.75 119.62 1091.97 Q116.518 1095.17 110.87 1100.93 Z" fill="#000000" fill-rule="evenodd" fill-opacity="1" /><path clip-path="url(#clip460)" d="M 0 0 M142.258 1073.38 Q138.647 1073.38 136.819 1076.95 Q135.013 1080.49 135.013 1087.62 Q135.013 1094.73 136.819 1098.29 Q138.647 1101.83 142.258 1101.83 Q145.893 1101.83 147.698 1098.29 Q149.527 1094.73 149.527 1087.62 Q149.527 1080.49 147.698 1076.95 Q145.893 1073.38 142.258 1073.38 M142.258 1069.68 Q148.069 1069.68 151.124 1074.29 Q154.203 1078.87 154.203 1087.62 Q154.203 1096.35 151.124 1100.95 Q148.069 1105.54 142.258 1105.54 Q136.448 1105.54 133.37 1100.95 Q130.314 1096.35 130.314 1087.62 Q130.314 1078.87 133.37 1074.29 Q136.448 1069.68 142.258 1069.68 Z" fill="#000000" fill-rule="evenodd" fill-opacity="1" /><path clip-path="url(#clip460)" d="M 0 0 M169.272 1073.38 Q165.661 1073.38 163.832 1076.95 Q162.027 1080.49 162.027 1087.62 Q162.027 1094.73 163.832 1098.29 Q165.661 1101.83 169.272 1101.83 Q172.906 1101.83 174.712 1098.29 Q176.541 1094.73 176.541 1087.62 Q176.541 1080.49 174.712 1076.95 Q172.906 1073.38 169.272 1073.38 M169.272 1069.68 Q175.082 1069.68 178.138 1074.29 Q181.217 1078.87 181.217 1087.62 Q181.217 1096.35 178.138 1100.95 Q175.082 1105.54 169.272 1105.54 Q163.462 1105.54 160.383 1100.95 Q157.328 1096.35 157.328 1087.62 Q157.328 1078.87 160.383 1074.29 Q163.462 1069.68 169.272 1069.68 Z" fill="#000000" fill-rule="evenodd" fill-opacity="1" /><path clip-path="url(#clip460)" d="M 0 0 M196.286 1073.38 Q192.675 1073.38 190.846 1076.95 Q189.041 1080.49 189.041 1087.62 Q189.041 1094.73 190.846 1098.29 Q192.675 1101.83 196.286 1101.83 Q199.92 1101.83 201.726 1098.29 Q203.554 1094.73 203.554 1087.62 Q203.554 1080.49 201.726 1076.95 Q199.92 1073.38 196.286 1073.38 M196.286 1069.68 Q202.096 1069.68 205.152 1074.29 Q208.23 1078.87 208.23 1087.62 Q208.23 1096.35 205.152 1100.95 Q202.096 1105.54 196.286 1105.54 Q190.476 1105.54 187.397 1100.95 Q184.342 1096.35 184.342 1087.62 Q184.342 1078.87 187.397 1074.29 Q190.476 1069.68 196.286 1069.68 Z" fill="#000000" fill-rule="evenodd" fill-opacity="1" /><path clip-path="url(#clip460)" d="M 0 0 M223.3 1073.38 Q219.689 1073.38 217.86 1076.95 Q216.054 1080.49 216.054 1087.62 Q216.054 1094.73 217.86 1098.29 Q219.689 1101.83 223.3 1101.83 Q226.934 1101.83 228.739 1098.29 Q230.568 1094.73 230.568 1087.62 Q230.568 1080.49 228.739 1076.95 Q226.934 1073.38 223.3 1073.38 M223.3 1069.68 Q229.11 1069.68 232.165 1074.29 Q235.244 1078.87 235.244 1087.62 Q235.244 1096.35 232.165 1100.95 Q229.11 1105.54 223.3 1105.54 Q217.49 1105.54 214.411 1100.95 Q211.355 1096.35 211.355 1087.62 Q211.355 1078.87 214.411 1074.29 Q217.49 1069.68 223.3 1069.68 Z" fill="#000000" fill-rule="evenodd" fill-opacity="1" /><path clip-path="url(#clip460)" d="M 0 0 M78.069 694.663 L78.069 690.403 Q79.8283 691.237 81.6338 691.677 Q83.4394 692.116 85.1755 692.116 Q89.8051 692.116 92.2356 689.015 Q94.6893 685.89 95.0365 679.547 Q93.6939 681.538 91.6338 682.603 Q89.5736 683.667 87.0736 683.667 Q81.8884 683.667 78.856 680.542 Q75.8468 677.394 75.8468 671.954 Q75.8468 666.63 78.9949 663.413 Q82.1431 660.195 87.3745 660.195 Q93.3699 660.195 96.518 664.802 Q99.6893 669.385 99.6893 678.135 Q99.6893 686.306 95.8004 691.19 Q91.9347 696.052 85.3838 696.052 Q83.6245 696.052 81.819 695.704 Q80.0134 695.357 78.069 694.663 M87.3745 680.01 Q90.5226 680.01 92.3513 677.857 Q94.2032 675.704 94.2032 671.954 Q94.2032 668.228 92.3513 666.075 Q90.5226 663.899 87.3745 663.899 Q84.2264 663.899 82.3745 666.075 Q80.5458 668.228 80.5458 671.954 Q80.5458 675.704 82.3745 677.857 Q84.2264 680.01 87.3745 680.01 Z" fill="#000000" fill-rule="evenodd" fill-opacity="1" /><path clip-path="url(#clip460)" d="M 0 0 M117.606 664.894 L105.8 683.343 L117.606 683.343 L117.606 664.894 M116.379 660.82 L122.259 660.82 L122.259 683.343 L127.189 683.343 L127.189 687.232 L122.259 687.232 L122.259 695.38 L117.606 695.38 L117.606 687.232 L102.004 687.232 L102.004 682.718 L116.379 660.82 Z" fill="#000000" fill-rule="evenodd" fill-opacity="1" /><path clip-path="url(#clip460)" d="M 0 0 M142.258 663.899 Q138.647 663.899 136.819 667.464 Q135.013 671.005 135.013 678.135 Q135.013 685.241 136.819 688.806 Q138.647 692.348 142.258 692.348 Q145.893 692.348 147.698 688.806 Q149.527 685.241 149.527 678.135 Q149.527 671.005 147.698 667.464 Q145.893 663.899 142.258 663.899 M142.258 660.195 Q148.069 660.195 151.124 664.802 Q154.203 669.385 154.203 678.135 Q154.203 686.862 151.124 691.468 Q148.069 696.052 142.258 696.052 Q136.448 696.052 133.37 691.468 Q130.314 686.862 130.314 678.135 Q130.314 669.385 133.37 664.802 Q136.448 660.195 142.258 660.195 Z" fill="#000000" fill-rule="evenodd" fill-opacity="1" /><path clip-path="url(#clip460)" d="M 0 0 M169.272 663.899 Q165.661 663.899 163.832 667.464 Q162.027 671.005 162.027 678.135 Q162.027 685.241 163.832 688.806 Q165.661 692.348 169.272 692.348 Q172.906 692.348 174.712 688.806 Q176.541 685.241 176.541 678.135 Q176.541 671.005 174.712 667.464 Q172.906 663.899 169.272 663.899 M169.272 660.195 Q175.082 660.195 178.138 664.802 Q181.217 669.385 181.217 678.135 Q181.217 686.862 178.138 691.468 Q175.082 696.052 169.272 696.052 Q163.462 696.052 160.383 691.468 Q157.328 686.862 157.328 678.135 Q157.328 669.385 160.383 664.802 Q163.462 660.195 169.272 660.195 Z" fill="#000000" fill-rule="evenodd" fill-opacity="1" /><path clip-path="url(#clip460)" d="M 0 0 M196.286 663.899 Q192.675 663.899 190.846 667.464 Q189.041 671.005 189.041 678.135 Q189.041 685.241 190.846 688.806 Q192.675 692.348 196.286 692.348 Q199.92 692.348 201.726 688.806 Q203.554 685.241 203.554 678.135 Q203.554 671.005 201.726 667.464 Q199.92 663.899 196.286 663.899 M196.286 660.195 Q202.096 660.195 205.152 664.802 Q208.23 669.385 208.23 678.135 Q208.23 686.862 205.152 691.468 Q202.096 696.052 196.286 696.052 Q190.476 696.052 187.397 691.468 Q184.342 686.862 184.342 678.135 Q184.342 669.385 187.397 664.802 Q190.476 660.195 196.286 660.195 Z" fill="#000000" fill-rule="evenodd" fill-opacity="1" /><path clip-path="url(#clip460)" d="M 0 0 M223.3 663.899 Q219.689 663.899 217.86 667.464 Q216.054 671.005 216.054 678.135 Q216.054 685.241 217.86 688.806 Q219.689 692.348 223.3 692.348 Q226.934 692.348 228.739 688.806 Q230.568 685.241 230.568 678.135 Q230.568 671.005 228.739 667.464 Q226.934 663.899 223.3 663.899 M223.3 660.195 Q229.11 660.195 232.165 664.802 Q235.244 669.385 235.244 678.135 Q235.244 686.862 232.165 691.468 Q229.11 696.052 223.3 696.052 Q217.49 696.052 214.411 691.468 Q211.355 686.862 211.355 678.135 Q211.355 669.385 214.411 664.802 Q217.49 660.195 223.3 660.195 Z" fill="#000000" fill-rule="evenodd" fill-opacity="1" /><path clip-path="url(#clip460)" d="M 0 0 M78.3931 285.178 L78.3931 280.919 Q80.1523 281.752 81.9579 282.192 Q83.7634 282.632 85.4995 282.632 Q90.1291 282.632 92.5597 279.53 Q95.0134 276.405 95.3606 270.062 Q94.018 272.053 91.9578 273.118 Q89.8977 274.183 87.3977 274.183 Q82.2125 274.183 79.1801 271.058 Q76.1709 267.91 76.1709 262.47 Q76.1709 257.146 79.319 253.928 Q82.4671 250.711 87.6986 250.711 Q93.6939 250.711 96.8421 255.317 Q100.013 259.9 100.013 268.65 Q100.013 276.822 96.1245 281.706 Q92.2587 286.567 85.7079 286.567 Q83.9486 286.567 82.1431 286.22 Q80.3375 285.873 78.3931 285.178 M87.6986 270.525 Q90.8467 270.525 92.6754 268.373 Q94.5273 266.22 94.5273 262.47 Q94.5273 258.743 92.6754 256.59 Q90.8467 254.414 87.6986 254.414 Q84.5505 254.414 82.6986 256.59 Q80.8699 258.743 80.8699 262.47 Q80.8699 266.22 82.6986 268.373 Q84.5505 270.525 87.6986 270.525 Z" fill="#000000" fill-rule="evenodd" fill-opacity="1" /><path clip-path="url(#clip460)" d="M 0 0 M115.661 266.752 Q112.513 266.752 110.661 268.905 Q108.833 271.058 108.833 274.808 Q108.833 278.535 110.661 280.711 Q112.513 282.863 115.661 282.863 Q118.81 282.863 120.638 280.711 Q122.49 278.535 122.49 274.808 Q122.49 271.058 120.638 268.905 Q118.81 266.752 115.661 266.752 M124.944 252.1 L124.944 256.359 Q123.185 255.526 121.379 255.086 Q119.597 254.646 117.837 254.646 Q113.208 254.646 110.754 257.771 Q108.323 260.896 107.976 267.215 Q109.342 265.201 111.402 264.137 Q113.462 263.049 115.939 263.049 Q121.147 263.049 124.157 266.22 Q127.189 269.368 127.189 274.808 Q127.189 280.132 124.041 283.349 Q120.893 286.567 115.661 286.567 Q109.666 286.567 106.495 281.984 Q103.324 277.377 103.324 268.65 Q103.324 260.456 107.212 255.595 Q111.101 250.711 117.652 250.711 Q119.411 250.711 121.194 251.058 Q122.999 251.405 124.944 252.1 Z" fill="#000000" fill-rule="evenodd" fill-opacity="1" /><path clip-path="url(#clip460)" d="M 0 0 M142.258 254.414 Q138.647 254.414 136.819 257.979 Q135.013 261.521 135.013 268.65 Q135.013 275.757 136.819 279.322 Q138.647 282.863 142.258 282.863 Q145.893 282.863 147.698 279.322 Q149.527 275.757 149.527 268.65 Q149.527 261.521 147.698 257.979 Q145.893 254.414 142.258 254.414 M142.258 250.711 Q148.069 250.711 151.124 255.317 Q154.203 259.9 154.203 268.65 Q154.203 277.377 151.124 281.984 Q148.069 286.567 142.258 286.567 Q136.448 286.567 133.37 281.984 Q130.314 277.377 130.314 268.65 Q130.314 259.9 133.37 255.317 Q136.448 250.711 142.258 250.711 Z" fill="#000000" fill-rule="evenodd" fill-opacity="1" /><path clip-path="url(#clip460)" d="M 0 0 M169.272 254.414 Q165.661 254.414 163.832 257.979 Q162.027 261.521 162.027 268.65 Q162.027 275.757 163.832 279.322 Q165.661 282.863 169.272 282.863 Q172.906 282.863 174.712 279.322 Q176.541 275.757 176.541 268.65 Q176.541 261.521 174.712 257.979 Q172.906 254.414 169.272 254.414 M169.272 250.711 Q175.082 250.711 178.138 255.317 Q181.217 259.9 181.217 268.65 Q181.217 277.377 178.138 281.984 Q175.082 286.567 169.272 286.567 Q163.462 286.567 160.383 281.984 Q157.328 277.377 157.328 268.65 Q157.328 259.9 160.383 255.317 Q163.462 250.711 169.272 250.711 Z" fill="#000000" fill-rule="evenodd" fill-opacity="1" /><path clip-path="url(#clip460)" d="M 0 0 M196.286 254.414 Q192.675 254.414 190.846 257.979 Q189.041 261.521 189.041 268.65 Q189.041 275.757 190.846 279.322 Q192.675 282.863 196.286 282.863 Q199.92 282.863 201.726 279.322 Q203.554 275.757 203.554 268.65 Q203.554 261.521 201.726 257.979 Q199.92 254.414 196.286 254.414 M196.286 250.711 Q202.096 250.711 205.152 255.317 Q208.23 259.9 208.23 268.65 Q208.23 277.377 205.152 281.984 Q202.096 286.567 196.286 286.567 Q190.476 286.567 187.397 281.984 Q184.342 277.377 184.342 268.65 Q184.342 259.9 187.397 255.317 Q190.476 250.711 196.286 250.711 Z" fill="#000000" fill-rule="evenodd" fill-opacity="1" /><path clip-path="url(#clip460)" d="M 0 0 M223.3 254.414 Q219.689 254.414 217.86 257.979 Q216.054 261.521 216.054 268.65 Q216.054 275.757 217.86 279.322 Q219.689 282.863 223.3 282.863 Q226.934 282.863 228.739 279.322 Q230.568 275.757 230.568 268.65 Q230.568 261.521 228.739 257.979 Q226.934 254.414 223.3 254.414 M223.3 250.711 Q229.11 250.711 232.165 255.317 Q235.244 259.9 235.244 268.65 Q235.244 277.377 232.165 281.984 Q229.11 286.567 223.3 286.567 Q217.49 286.567 214.411 281.984 Q211.355 277.377 211.355 268.65 Q211.355 259.9 214.411 255.317 Q217.49 250.711 223.3 250.711 Z" fill="#000000" fill-rule="evenodd" fill-opacity="1" /><polyline clip-path="url(#clip462)" style="stroke:#009af9; stroke-width:12; stroke-opacity:1; fill:none" points="
  330.155,1479.3 821.077,998.583 1312,532.119 1802.92,844.228 2293.85,88.9544 
  "/>
<polyline clip-path="url(#clip462)" style="stroke:#e26f46; stroke-width:12; stroke-opacity:1; fill:none" points="
  330.155,784.058 821.077,682.501 1312,502.096 1802.92,1088.47 2293.85,858.197 
  "/>
<path clip-path="url(#clip460)" d="
M1695.94 1471.88 L2283.37 1471.88 L2283.37 1290.44 L1695.94 1290.44  Z
  " fill="#ffffff" fill-rule="evenodd" fill-opacity="1"/>
<polyline clip-path="url(#clip460)" style="stroke:#000000; stroke-width:4; stroke-opacity:1; fill:none" points="
  1695.94,1471.88 2283.37,1471.88 2283.37,1290.44 1695.94,1290.44 1695.94,1471.88 
  "/>
<polyline clip-path="url(#clip460)" style="stroke:#009af9; stroke-width:4; stroke-opacity:1; fill:none" points="
  1719.07,1350.92 1857.83,1350.92 
  "/>
<path clip-path="url(#clip460)" d="M 0 0 M1899.87 1346.21 L1899.87 1332.18 L1904.13 1332.18 L1904.13 1368.2 L1899.87 1368.2 L1899.87 1364.31 Q1898.53 1366.63 1896.47 1367.76 Q1894.43 1368.87 1891.56 1368.87 Q1886.86 1368.87 1883.9 1365.12 Q1880.96 1361.37 1880.96 1355.26 Q1880.96 1349.15 1883.9 1345.4 Q1886.86 1341.65 1891.56 1341.65 Q1894.43 1341.65 1896.47 1342.79 Q1898.53 1343.9 1899.87 1346.21 M1885.36 1355.26 Q1885.36 1359.96 1887.28 1362.65 Q1889.22 1365.31 1892.6 1365.31 Q1895.98 1365.31 1897.93 1362.65 Q1899.87 1359.96 1899.87 1355.26 Q1899.87 1350.56 1897.93 1347.9 Q1895.98 1345.22 1892.6 1345.22 Q1889.22 1345.22 1887.28 1347.9 Q1885.36 1350.56 1885.36 1355.26 Z" fill="#000000" fill-rule="evenodd" fill-opacity="1" /><path clip-path="url(#clip460)" d="M 0 0 M1920.38 1355.17 Q1915.22 1355.17 1913.23 1356.35 Q1911.24 1357.53 1911.24 1360.38 Q1911.24 1362.65 1912.72 1363.99 Q1914.22 1365.31 1916.79 1365.31 Q1920.34 1365.31 1922.47 1362.81 Q1924.62 1360.29 1924.62 1356.12 L1924.62 1355.17 L1920.38 1355.17 M1928.88 1353.41 L1928.88 1368.2 L1924.62 1368.2 L1924.62 1364.27 Q1923.16 1366.63 1920.98 1367.76 Q1918.81 1368.87 1915.66 1368.87 Q1911.68 1368.87 1909.32 1366.65 Q1906.98 1364.41 1906.98 1360.66 Q1906.98 1356.28 1909.9 1354.06 Q1912.84 1351.84 1918.65 1351.84 L1924.62 1351.84 L1924.62 1351.42 Q1924.62 1348.48 1922.67 1346.88 Q1920.75 1345.26 1917.26 1345.26 Q1915.03 1345.26 1912.93 1345.8 Q1910.82 1346.33 1908.88 1347.39 L1908.88 1343.46 Q1911.22 1342.55 1913.41 1342.11 Q1915.61 1341.65 1917.7 1341.65 Q1923.32 1341.65 1926.1 1344.57 Q1928.88 1347.48 1928.88 1353.41 Z" fill="#000000" fill-rule="evenodd" fill-opacity="1" /><path clip-path="url(#clip460)" d="M 0 0 M1937.56 1334.92 L1937.56 1342.28 L1946.33 1342.28 L1946.33 1345.59 L1937.56 1345.59 L1937.56 1359.66 Q1937.56 1362.83 1938.41 1363.73 Q1939.29 1364.64 1941.96 1364.64 L1946.33 1364.64 L1946.33 1368.2 L1941.96 1368.2 Q1937.03 1368.2 1935.15 1366.37 Q1933.28 1364.52 1933.28 1359.66 L1933.28 1345.59 L1930.15 1345.59 L1930.15 1342.28 L1933.28 1342.28 L1933.28 1334.92 L1937.56 1334.92 Z" fill="#000000" fill-rule="evenodd" fill-opacity="1" /><path clip-path="url(#clip460)" d="M 0 0 M1962.58 1355.17 Q1957.42 1355.17 1955.43 1356.35 Q1953.44 1357.53 1953.44 1360.38 Q1953.44 1362.65 1954.92 1363.99 Q1956.42 1365.31 1958.99 1365.31 Q1962.53 1365.31 1964.66 1362.81 Q1966.82 1360.29 1966.82 1356.12 L1966.82 1355.17 L1962.58 1355.17 M1971.08 1353.41 L1971.08 1368.2 L1966.82 1368.2 L1966.82 1364.27 Q1965.36 1366.63 1963.18 1367.76 Q1961.01 1368.87 1957.86 1368.87 Q1953.88 1368.87 1951.52 1366.65 Q1949.18 1364.41 1949.18 1360.66 Q1949.18 1356.28 1952.09 1354.06 Q1955.03 1351.84 1960.84 1351.84 L1966.82 1351.84 L1966.82 1351.42 Q1966.82 1348.48 1964.87 1346.88 Q1962.95 1345.26 1959.46 1345.26 Q1957.23 1345.26 1955.13 1345.8 Q1953.02 1346.33 1951.08 1347.39 L1951.08 1343.46 Q1953.41 1342.55 1955.61 1342.11 Q1957.81 1341.65 1959.9 1341.65 Q1965.52 1341.65 1968.3 1344.57 Q1971.08 1347.48 1971.08 1353.41 Z" fill="#000000" fill-rule="evenodd" fill-opacity="1" /><polyline clip-path="url(#clip460)" style="stroke:#e26f46; stroke-width:4; stroke-opacity:1; fill:none" points="
  1719.07,1411.4 1857.83,1411.4 
  "/>
<path clip-path="url(#clip460)" d="M 0 0 M1894.36 1415.65 Q1889.2 1415.65 1887.21 1416.83 Q1885.22 1418.01 1885.22 1420.86 Q1885.22 1423.13 1886.7 1424.47 Q1888.21 1425.79 1890.78 1425.79 Q1894.32 1425.79 1896.45 1423.29 Q1898.6 1420.77 1898.6 1416.6 L1898.6 1415.65 L1894.36 1415.65 M1902.86 1413.89 L1902.86 1428.68 L1898.6 1428.68 L1898.6 1424.75 Q1897.14 1427.11 1894.97 1428.24 Q1892.79 1429.35 1889.64 1429.35 Q1885.66 1429.35 1883.3 1427.13 Q1880.96 1424.89 1880.96 1421.14 Q1880.96 1416.76 1883.88 1414.54 Q1886.82 1412.32 1892.63 1412.32 L1898.6 1412.32 L1898.6 1411.9 Q1898.6 1408.96 1896.66 1407.36 Q1894.73 1405.74 1891.24 1405.74 Q1889.02 1405.74 1886.91 1406.28 Q1884.8 1406.81 1882.86 1407.87 L1882.86 1403.94 Q1885.2 1403.03 1887.4 1402.59 Q1889.6 1402.13 1891.68 1402.13 Q1897.3 1402.13 1900.08 1405.05 Q1902.86 1407.96 1902.86 1413.89 Z" fill="#000000" fill-rule="evenodd" fill-opacity="1" /><path clip-path="url(#clip460)" d="M 0 0 M1924.39 1415.42 Q1924.39 1410.79 1922.47 1408.24 Q1920.57 1405.7 1917.12 1405.7 Q1913.69 1405.7 1911.77 1408.24 Q1909.87 1410.79 1909.87 1415.42 Q1909.87 1420.03 1911.77 1422.57 Q1913.69 1425.12 1917.12 1425.12 Q1920.57 1425.12 1922.47 1422.57 Q1924.39 1420.03 1924.39 1415.42 M1928.65 1425.46 Q1928.65 1432.09 1925.71 1435.3 Q1922.77 1438.54 1916.7 1438.54 Q1914.46 1438.54 1912.47 1438.2 Q1910.47 1437.87 1908.6 1437.18 L1908.6 1433.03 Q1910.47 1434.05 1912.3 1434.54 Q1914.13 1435.02 1916.03 1435.02 Q1920.22 1435.02 1922.3 1432.83 Q1924.39 1430.65 1924.39 1426.23 L1924.39 1424.12 Q1923.07 1426.41 1921.01 1427.55 Q1918.95 1428.68 1916.08 1428.68 Q1911.31 1428.68 1908.39 1425.05 Q1905.47 1421.41 1905.47 1415.42 Q1905.47 1409.4 1908.39 1405.77 Q1911.31 1402.13 1916.08 1402.13 Q1918.95 1402.13 1921.01 1403.27 Q1923.07 1404.4 1924.39 1406.69 L1924.39 1402.76 L1928.65 1402.76 L1928.65 1425.46 Z" fill="#000000" fill-rule="evenodd" fill-opacity="1" /><path clip-path="url(#clip460)" d="M 0 0 M1955.29 1414.65 L1955.29 1416.74 L1935.71 1416.74 Q1935.98 1421.14 1938.34 1423.45 Q1940.73 1425.74 1944.97 1425.74 Q1947.42 1425.74 1949.71 1425.14 Q1952.03 1424.54 1954.29 1423.34 L1954.29 1427.36 Q1952 1428.34 1949.59 1428.84 Q1947.19 1429.35 1944.71 1429.35 Q1938.51 1429.35 1934.87 1425.74 Q1931.26 1422.13 1931.26 1415.97 Q1931.26 1409.61 1934.69 1405.88 Q1938.14 1402.13 1943.97 1402.13 Q1949.2 1402.13 1952.23 1405.51 Q1955.29 1408.87 1955.29 1414.65 M1951.03 1413.4 Q1950.98 1409.91 1949.06 1407.83 Q1947.16 1405.74 1944.02 1405.74 Q1940.45 1405.74 1938.3 1407.76 Q1936.17 1409.77 1935.84 1413.43 L1951.03 1413.4 Z" fill="#000000" fill-rule="evenodd" fill-opacity="1" /><path clip-path="url(#clip460)" d="M 0 0 M1957.6 1413.8 L1970.08 1413.8 L1970.08 1417.59 L1957.6 1417.59 L1957.6 1413.8 Z" fill="#000000" fill-rule="evenodd" fill-opacity="1" /><path clip-path="url(#clip460)" d="M 0 0 M1991.08 1403.52 L1991.08 1407.55 Q1989.27 1406.62 1987.33 1406.16 Q1985.38 1405.7 1983.3 1405.7 Q1980.13 1405.7 1978.53 1406.67 Q1976.96 1407.64 1976.96 1409.59 Q1976.96 1411.07 1978.09 1411.92 Q1979.22 1412.76 1982.65 1413.52 L1984.11 1413.84 Q1988.65 1414.82 1990.54 1416.6 Q1992.46 1418.36 1992.46 1421.53 Q1992.46 1425.14 1989.59 1427.25 Q1986.75 1429.35 1981.75 1429.35 Q1979.66 1429.35 1977.4 1428.94 Q1975.15 1428.54 1972.65 1427.73 L1972.65 1423.34 Q1975.01 1424.56 1977.3 1425.19 Q1979.59 1425.79 1981.84 1425.79 Q1984.85 1425.79 1986.47 1424.77 Q1988.09 1423.73 1988.09 1421.85 Q1988.09 1420.12 1986.91 1419.19 Q1985.75 1418.27 1981.79 1417.41 L1980.31 1417.06 Q1976.35 1416.23 1974.59 1414.52 Q1972.84 1412.78 1972.84 1409.77 Q1972.84 1406.11 1975.43 1404.12 Q1978.02 1402.13 1982.79 1402.13 Q1985.15 1402.13 1987.23 1402.48 Q1989.32 1402.83 1991.08 1403.52 Z" fill="#000000" fill-rule="evenodd" fill-opacity="1" /><path clip-path="url(#clip460)" d="M 0 0 M2019.11 1414.65 L2019.11 1416.74 L1999.53 1416.74 Q1999.8 1421.14 2002.16 1423.45 Q2004.55 1425.74 2008.78 1425.74 Q2011.24 1425.74 2013.53 1425.14 Q2015.84 1424.54 2018.11 1423.34 L2018.11 1427.36 Q2015.82 1428.34 2013.41 1428.84 Q2011.01 1429.35 2008.53 1429.35 Q2002.33 1429.35 1998.69 1425.74 Q1995.08 1422.13 1995.08 1415.97 Q1995.08 1409.61 1998.51 1405.88 Q2001.96 1402.13 2007.79 1402.13 Q2013.02 1402.13 2016.05 1405.51 Q2019.11 1408.87 2019.11 1414.65 M2014.85 1413.4 Q2014.8 1409.91 2012.88 1407.83 Q2010.98 1405.74 2007.84 1405.74 Q2004.27 1405.74 2002.12 1407.76 Q1999.99 1409.77 1999.66 1413.43 L2014.85 1413.4 Z" fill="#000000" fill-rule="evenodd" fill-opacity="1" /><path clip-path="url(#clip460)" d="M 0 0 M2044.29 1402.76 L2034.92 1415.37 L2044.78 1428.68 L2039.76 1428.68 L2032.21 1418.5 L2024.66 1428.68 L2019.64 1428.68 L2029.71 1415.12 L2020.5 1402.76 L2025.52 1402.76 L2032.4 1411.99 L2039.27 1402.76 L2044.29 1402.76 Z" fill="#000000" fill-rule="evenodd" fill-opacity="1" /><path clip-path="url(#clip460)" d="M 0 0 M2076.1 1415.65 Q2070.94 1415.65 2068.95 1416.83 Q2066.96 1418.01 2066.96 1420.86 Q2066.96 1423.13 2068.44 1424.47 Q2069.94 1425.79 2072.51 1425.79 Q2076.05 1425.79 2078.18 1423.29 Q2080.33 1420.77 2080.33 1416.6 L2080.33 1415.65 L2076.1 1415.65 M2084.59 1413.89 L2084.59 1428.68 L2080.33 1428.68 L2080.33 1424.75 Q2078.88 1427.11 2076.7 1428.24 Q2074.52 1429.35 2071.38 1429.35 Q2067.4 1429.35 2065.03 1427.13 Q2062.7 1424.89 2062.7 1421.14 Q2062.7 1416.76 2065.61 1414.54 Q2068.55 1412.32 2074.36 1412.32 L2080.33 1412.32 L2080.33 1411.9 Q2080.33 1408.96 2078.39 1407.36 Q2076.47 1405.74 2072.97 1405.74 Q2070.75 1405.74 2068.65 1406.28 Q2066.54 1406.81 2064.59 1407.87 L2064.59 1403.94 Q2066.93 1403.03 2069.13 1402.59 Q2071.33 1402.13 2073.41 1402.13 Q2079.04 1402.13 2081.82 1405.05 Q2084.59 1407.96 2084.59 1413.89 Z" fill="#000000" fill-rule="evenodd" fill-opacity="1" /><path clip-path="url(#clip460)" d="M 0 0 M2106.12 1406.69 L2106.12 1392.66 L2110.38 1392.66 L2110.38 1428.68 L2106.12 1428.68 L2106.12 1424.79 Q2104.78 1427.11 2102.72 1428.24 Q2100.68 1429.35 2097.81 1429.35 Q2093.11 1429.35 2090.15 1425.6 Q2087.21 1421.85 2087.21 1415.74 Q2087.21 1409.63 2090.15 1405.88 Q2093.11 1402.13 2097.81 1402.13 Q2100.68 1402.13 2102.72 1403.27 Q2104.78 1404.38 2106.12 1406.69 M2091.61 1415.74 Q2091.61 1420.44 2093.53 1423.13 Q2095.47 1425.79 2098.85 1425.79 Q2102.23 1425.79 2104.18 1423.13 Q2106.12 1420.44 2106.12 1415.74 Q2106.12 1411.04 2104.18 1408.38 Q2102.23 1405.7 2098.85 1405.7 Q2095.47 1405.7 2093.53 1408.38 Q2091.61 1411.04 2091.61 1415.74 Z" fill="#000000" fill-rule="evenodd" fill-opacity="1" /><path clip-path="url(#clip460)" d="M 0 0 M2114.85 1402.76 L2119.11 1402.76 L2119.11 1429.15 Q2119.11 1434.1 2117.21 1436.32 Q2115.33 1438.54 2111.14 1438.54 L2109.52 1438.54 L2109.52 1434.93 L2110.66 1434.93 Q2113.09 1434.93 2113.97 1433.8 Q2114.85 1432.69 2114.85 1429.15 L2114.85 1402.76 M2114.85 1392.66 L2119.11 1392.66 L2119.11 1398.06 L2114.85 1398.06 L2114.85 1392.66 Z" fill="#000000" fill-rule="evenodd" fill-opacity="1" /><path clip-path="url(#clip460)" d="M 0 0 M2123.14 1418.45 L2123.14 1402.76 L2127.39 1402.76 L2127.39 1418.29 Q2127.39 1421.97 2128.83 1423.82 Q2130.27 1425.65 2133.14 1425.65 Q2136.58 1425.65 2138.58 1423.45 Q2140.59 1421.25 2140.59 1417.46 L2140.59 1402.76 L2144.85 1402.76 L2144.85 1428.68 L2140.59 1428.68 L2140.59 1424.7 Q2139.04 1427.06 2136.98 1428.22 Q2134.94 1429.35 2132.23 1429.35 Q2127.77 1429.35 2125.45 1426.58 Q2123.14 1423.8 2123.14 1418.45 M2133.85 1402.13 L2133.85 1402.13 Z" fill="#000000" fill-rule="evenodd" fill-opacity="1" /><path clip-path="url(#clip460)" d="M 0 0 M2165.84 1403.52 L2165.84 1407.55 Q2164.04 1406.62 2162.09 1406.16 Q2160.15 1405.7 2158.07 1405.7 Q2154.89 1405.7 2153.3 1406.67 Q2151.72 1407.64 2151.72 1409.59 Q2151.72 1411.07 2152.86 1411.92 Q2153.99 1412.76 2157.42 1413.52 L2158.88 1413.84 Q2163.41 1414.82 2165.31 1416.6 Q2167.23 1418.36 2167.23 1421.53 Q2167.23 1425.14 2164.36 1427.25 Q2161.51 1429.35 2156.51 1429.35 Q2154.43 1429.35 2152.16 1428.94 Q2149.92 1428.54 2147.42 1427.73 L2147.42 1423.34 Q2149.78 1424.56 2152.07 1425.19 Q2154.36 1425.79 2156.61 1425.79 Q2159.62 1425.79 2161.24 1424.77 Q2162.86 1423.73 2162.86 1421.85 Q2162.86 1420.12 2161.68 1419.19 Q2160.52 1418.27 2156.56 1417.41 L2155.08 1417.06 Q2151.12 1416.23 2149.36 1414.52 Q2147.6 1412.78 2147.6 1409.77 Q2147.6 1406.11 2150.2 1404.12 Q2152.79 1402.13 2157.56 1402.13 Q2159.92 1402.13 2162 1402.48 Q2164.08 1402.83 2165.84 1403.52 Z" fill="#000000" fill-rule="evenodd" fill-opacity="1" /><path clip-path="url(#clip460)" d="M 0 0 M2175.91 1395.4 L2175.91 1402.76 L2184.69 1402.76 L2184.69 1406.07 L2175.91 1406.07 L2175.91 1420.14 Q2175.91 1423.31 2176.77 1424.21 Q2177.65 1425.12 2180.31 1425.12 L2184.69 1425.12 L2184.69 1428.68 L2180.31 1428.68 Q2175.38 1428.68 2173.51 1426.85 Q2171.63 1425 2171.63 1420.14 L2171.63 1406.07 L2168.51 1406.07 L2168.51 1402.76 L2171.63 1402.76 L2171.63 1395.4 L2175.91 1395.4 Z" fill="#000000" fill-rule="evenodd" fill-opacity="1" /><path clip-path="url(#clip460)" d="M 0 0 M2211.33 1414.65 L2211.33 1416.74 L2191.75 1416.74 Q2192.02 1421.14 2194.39 1423.45 Q2196.77 1425.74 2201.01 1425.74 Q2203.46 1425.74 2205.75 1425.14 Q2208.07 1424.54 2210.33 1423.34 L2210.33 1427.36 Q2208.04 1428.34 2205.64 1428.84 Q2203.23 1429.35 2200.75 1429.35 Q2194.55 1429.35 2190.91 1425.74 Q2187.3 1422.13 2187.3 1415.97 Q2187.3 1409.61 2190.73 1405.88 Q2194.18 1402.13 2200.01 1402.13 Q2205.24 1402.13 2208.27 1405.51 Q2211.33 1408.87 2211.33 1414.65 M2207.07 1413.4 Q2207.02 1409.91 2205.1 1407.83 Q2203.2 1405.74 2200.06 1405.74 Q2196.49 1405.74 2194.34 1407.76 Q2192.21 1409.77 2191.89 1413.43 L2207.07 1413.4 Z" fill="#000000" fill-rule="evenodd" fill-opacity="1" /><path clip-path="url(#clip460)" d="M 0 0 M2232.86 1406.69 L2232.86 1392.66 L2237.12 1392.66 L2237.12 1428.68 L2232.86 1428.68 L2232.86 1424.79 Q2231.51 1427.11 2229.45 1428.24 Q2227.42 1429.35 2224.55 1429.35 Q2219.85 1429.35 2216.88 1425.6 Q2213.95 1421.85 2213.95 1415.74 Q2213.95 1409.63 2216.88 1405.88 Q2219.85 1402.13 2224.55 1402.13 Q2227.42 1402.13 2229.45 1403.27 Q2231.51 1404.38 2232.86 1406.69 M2218.34 1415.74 Q2218.34 1420.44 2220.26 1423.13 Q2222.21 1425.79 2225.59 1425.79 Q2228.97 1425.79 2230.91 1423.13 Q2232.86 1420.44 2232.86 1415.74 Q2232.86 1411.04 2230.91 1408.38 Q2228.97 1405.7 2225.59 1405.7 Q2222.21 1405.7 2220.26 1408.38 Q2218.34 1411.04 2218.34 1415.74 Z" fill="#000000" fill-rule="evenodd" fill-opacity="1" /></svg>
