<?xml version="1.0" encoding="utf-8"?>
<svg xmlns="http://www.w3.org/2000/svg" xmlns:xlink="http://www.w3.org/1999/xlink" width="600" height="400" viewBox="0 0 2400 1600">
<defs>
  <clipPath id="clip950">
    <rect x="0" y="0" width="2400" height="1600"/>
  </clipPath>
</defs>
<path clip-path="url(#clip950)" d="
M0 1600 L2400 1600 L2400 0 L0 0  Z
  " fill="#ffffff" fill-rule="evenodd" fill-opacity="1"/>
<defs>
  <clipPath id="clip951">
    <rect x="480" y="0" width="1681" height="1600"/>
  </clipPath>
</defs>
<path clip-path="url(#clip950)" d="
M86.9921 1505.26 L2352.76 1505.26 L2352.76 62.9921 L86.9921 62.9921  Z
  " fill="#ffffff" fill-rule="evenodd" fill-opacity="1"/>
<defs>
  <clipPath id="clip952">
    <rect x="86" y="62" width="2267" height="1443"/>
  </clipPath>
</defs>
<polyline clip-path="url(#clip952)" style="stroke:#000000; stroke-width:2; stroke-opacity:0.1; fill:none" points="
  486.833,1505.26 486.833,62.9921 
  "/>
<polyline clip-path="url(#clip952)" style="stroke:#000000; stroke-width:2; stroke-opacity:0.1; fill:none" points="
  931.1,1505.26 931.1,62.9921 
  "/>
<polyline clip-path="url(#clip952)" style="stroke:#000000; stroke-width:2; stroke-opacity:0.1; fill:none" points="
  1375.37,1505.26 1375.37,62.9921 
  "/>
<polyline clip-path="url(#clip952)" style="stroke:#000000; stroke-width:2; stroke-opacity:0.1; fill:none" points="
  1819.64,1505.26 1819.64,62.9921 
  "/>
<polyline clip-path="url(#clip952)" style="stroke:#000000; stroke-width:2; stroke-opacity:0.1; fill:none" points="
  2263.9,1505.26 2263.9,62.9921 
  "/>
<polyline clip-path="url(#clip950)" style="stroke:#000000; stroke-width:4; stroke-opacity:1; fill:none" points="
  86.9921,1505.26 2352.76,1505.26 
  "/>
<polyline clip-path="url(#clip950)" style="stroke:#000000; stroke-width:4; stroke-opacity:1; fill:none" points="
  486.833,1505.26 486.833,1487.95 
  "/>
<polyline clip-path="url(#clip950)" style="stroke:#000000; stroke-width:4; stroke-opacity:1; fill:none" points="
  931.1,1505.26 931.1,1487.95 
  "/>
<polyline clip-path="url(#clip950)" style="stroke:#000000; stroke-width:4; stroke-opacity:1; fill:none" points="
  1375.37,1505.26 1375.37,1487.95 
  "/>
<polyline clip-path="url(#clip950)" style="stroke:#000000; stroke-width:4; stroke-opacity:1; fill:none" points="
  1819.64,1505.26 1819.64,1487.95 
  "/>
<polyline clip-path="url(#clip950)" style="stroke:#000000; stroke-width:4; stroke-opacity:1; fill:none" points="
  2263.9,1505.26 2263.9,1487.95 
  "/>
<path clip-path="url(#clip950)" d="M 0 0 M463.708 1562 L471.347 1562 L471.347 1535.63 L463.037 1537.3 L463.037 1533.04 L471.3 1531.37 L475.976 1531.37 L475.976 1562 L483.615 1562 L483.615 1565.93 L463.708 1565.93 L463.708 1562 Z" fill="#000000" fill-rule="evenodd" fill-opacity="1" /><path clip-path="url(#clip950)" d="M 0 0 M498.685 1534.45 Q495.073 1534.45 493.245 1538.02 Q491.439 1541.56 491.439 1548.69 Q491.439 1555.79 493.245 1559.36 Q495.073 1562.9 498.685 1562.9 Q502.319 1562.9 504.124 1559.36 Q505.953 1555.79 505.953 1548.69 Q505.953 1541.56 504.124 1538.02 Q502.319 1534.45 498.685 1534.45 M498.685 1530.75 Q504.495 1530.75 507.55 1535.35 Q510.629 1539.94 510.629 1548.69 Q510.629 1557.41 507.55 1562.02 Q504.495 1566.6 498.685 1566.6 Q492.874 1566.6 489.796 1562.02 Q486.74 1557.41 486.74 1548.69 Q486.74 1539.94 489.796 1535.35 Q492.874 1530.75 498.685 1530.75 Z" fill="#000000" fill-rule="evenodd" fill-opacity="1" /><path clip-path="url(#clip950)" d="M 0 0 M912.246 1562 L928.565 1562 L928.565 1565.93 L906.621 1565.93 L906.621 1562 Q909.283 1559.24 913.866 1554.61 Q918.473 1549.96 919.654 1548.62 Q921.899 1546.09 922.778 1544.36 Q923.681 1542.6 923.681 1540.91 Q923.681 1538.15 921.737 1536.42 Q919.816 1534.68 916.714 1534.68 Q914.515 1534.68 912.061 1535.45 Q909.63 1536.21 906.853 1537.76 L906.853 1533.04 Q909.677 1531.9 912.13 1531.33 Q914.584 1530.75 916.621 1530.75 Q921.991 1530.75 925.186 1533.43 Q928.38 1536.12 928.38 1540.61 Q928.38 1542.74 927.57 1544.66 Q926.783 1546.56 924.677 1549.15 Q924.098 1549.82 920.996 1553.04 Q917.894 1556.23 912.246 1562 Z" fill="#000000" fill-rule="evenodd" fill-opacity="1" /><path clip-path="url(#clip950)" d="M 0 0 M943.635 1534.45 Q940.024 1534.45 938.195 1538.02 Q936.39 1541.56 936.39 1548.69 Q936.39 1555.79 938.195 1559.36 Q940.024 1562.9 943.635 1562.9 Q947.269 1562.9 949.075 1559.36 Q950.903 1555.79 950.903 1548.69 Q950.903 1541.56 949.075 1538.02 Q947.269 1534.45 943.635 1534.45 M943.635 1530.75 Q949.445 1530.75 952.501 1535.35 Q955.579 1539.94 955.579 1548.69 Q955.579 1557.41 952.501 1562.02 Q949.445 1566.6 943.635 1566.6 Q937.825 1566.6 934.746 1562.02 Q931.69 1557.41 931.69 1548.69 Q931.69 1539.94 934.746 1535.35 Q937.825 1530.75 943.635 1530.75 Z" fill="#000000" fill-rule="evenodd" fill-opacity="1" /><path clip-path="url(#clip950)" d="M 0 0 M1366.11 1547.3 Q1369.46 1548.02 1371.34 1550.28 Q1373.24 1552.55 1373.24 1555.89 Q1373.24 1561 1369.72 1563.8 Q1366.2 1566.6 1359.72 1566.6 Q1357.54 1566.6 1355.23 1566.16 Q1352.94 1565.75 1350.48 1564.89 L1350.48 1560.38 Q1352.43 1561.51 1354.74 1562.09 Q1357.06 1562.67 1359.58 1562.67 Q1363.98 1562.67 1366.27 1560.93 Q1368.59 1559.2 1368.59 1555.89 Q1368.59 1552.83 1366.43 1551.12 Q1364.3 1549.38 1360.48 1549.38 L1356.46 1549.38 L1356.46 1545.54 L1360.67 1545.54 Q1364.12 1545.54 1365.95 1544.17 Q1367.78 1542.78 1367.78 1540.19 Q1367.78 1537.53 1365.88 1536.12 Q1364 1534.68 1360.48 1534.68 Q1358.56 1534.68 1356.36 1535.1 Q1354.16 1535.52 1351.53 1536.39 L1351.53 1532.23 Q1354.19 1531.49 1356.5 1531.12 Q1358.84 1530.75 1360.9 1530.75 Q1366.22 1530.75 1369.33 1533.18 Q1372.43 1535.58 1372.43 1539.71 Q1372.43 1542.58 1370.78 1544.57 Q1369.14 1546.53 1366.11 1547.3 Z" fill="#000000" fill-rule="evenodd" fill-opacity="1" /><path clip-path="url(#clip950)" d="M 0 0 M1388.31 1534.45 Q1384.7 1534.45 1382.87 1538.02 Q1381.06 1541.56 1381.06 1548.69 Q1381.06 1555.79 1382.87 1559.36 Q1384.7 1562.9 1388.31 1562.9 Q1391.94 1562.9 1393.75 1559.36 Q1395.58 1555.79 1395.58 1548.69 Q1395.58 1541.56 1393.75 1538.02 Q1391.94 1534.45 1388.31 1534.45 M1388.31 1530.75 Q1394.12 1530.75 1397.17 1535.35 Q1400.25 1539.94 1400.25 1548.69 Q1400.25 1557.41 1397.17 1562.02 Q1394.12 1566.6 1388.31 1566.6 Q1382.5 1566.6 1379.42 1562.02 Q1376.36 1557.41 1376.36 1548.69 Q1376.36 1539.94 1379.42 1535.35 Q1382.5 1530.75 1388.31 1530.75 Z" fill="#000000" fill-rule="evenodd" fill-opacity="1" /><path clip-path="url(#clip950)" d="M 0 0 M1809.14 1535.45 L1797.33 1553.89 L1809.14 1553.89 L1809.14 1535.45 M1807.91 1531.37 L1813.79 1531.37 L1813.79 1553.89 L1818.72 1553.89 L1818.72 1557.78 L1813.79 1557.78 L1813.79 1565.93 L1809.14 1565.93 L1809.14 1557.78 L1793.54 1557.78 L1793.54 1553.27 L1807.91 1531.37 Z" fill="#000000" fill-rule="evenodd" fill-opacity="1" /><path clip-path="url(#clip950)" d="M 0 0 M1833.79 1534.45 Q1830.18 1534.45 1828.35 1538.02 Q1826.54 1541.56 1826.54 1548.69 Q1826.54 1555.79 1828.35 1559.36 Q1830.18 1562.9 1833.79 1562.9 Q1837.42 1562.9 1839.23 1559.36 Q1841.06 1555.79 1841.06 1548.69 Q1841.06 1541.56 1839.23 1538.02 Q1837.42 1534.45 1833.79 1534.45 M1833.79 1530.75 Q1839.6 1530.75 1842.66 1535.35 Q1845.73 1539.94 1845.73 1548.69 Q1845.73 1557.41 1842.66 1562.02 Q1839.6 1566.6 1833.79 1566.6 Q1827.98 1566.6 1824.9 1562.02 Q1821.85 1557.41 1821.85 1548.69 Q1821.85 1539.94 1824.9 1535.35 Q1827.98 1530.75 1833.79 1530.75 Z" fill="#000000" fill-rule="evenodd" fill-opacity="1" /><path clip-path="url(#clip950)" d="M 0 0 M2240.67 1531.37 L2259.03 1531.37 L2259.03 1535.31 L2244.96 1535.31 L2244.96 1543.78 Q2245.97 1543.43 2246.99 1543.27 Q2248.01 1543.08 2249.03 1543.08 Q2254.82 1543.08 2258.2 1546.26 Q2261.58 1549.43 2261.58 1554.84 Q2261.58 1560.42 2258.1 1563.52 Q2254.63 1566.6 2248.31 1566.6 Q2246.14 1566.6 2243.87 1566.23 Q2241.62 1565.86 2239.22 1565.12 L2239.22 1560.42 Q2241.3 1561.56 2243.52 1562.11 Q2245.74 1562.67 2248.22 1562.67 Q2252.22 1562.67 2254.56 1560.56 Q2256.9 1558.46 2256.9 1554.84 Q2256.9 1551.23 2254.56 1549.13 Q2252.22 1547.02 2248.22 1547.02 Q2246.34 1547.02 2244.47 1547.44 Q2242.62 1547.85 2240.67 1548.73 L2240.67 1531.37 Z" fill="#000000" fill-rule="evenodd" fill-opacity="1" /><path clip-path="url(#clip950)" d="M 0 0 M2276.65 1534.45 Q2273.03 1534.45 2271.21 1538.02 Q2269.4 1541.56 2269.4 1548.69 Q2269.4 1555.79 2271.21 1559.36 Q2273.03 1562.9 2276.65 1562.9 Q2280.28 1562.9 2282.09 1559.36 Q2283.91 1555.79 2283.91 1548.69 Q2283.91 1541.56 2282.09 1538.02 Q2280.28 1534.45 2276.65 1534.45 M2276.65 1530.75 Q2282.46 1530.75 2285.51 1535.35 Q2288.59 1539.94 2288.59 1548.69 Q2288.59 1557.41 2285.51 1562.02 Q2282.46 1566.6 2276.65 1566.6 Q2270.84 1566.6 2267.76 1562.02 Q2264.7 1557.41 2264.7 1548.69 Q2264.7 1539.94 2267.76 1535.35 Q2270.84 1530.75 2276.65 1530.75 Z" fill="#000000" fill-rule="evenodd" fill-opacity="1" /><path clip-path="url(#clip950)" d="M 0 0 M997.377 1602.6 L1003.81 1602.6 L1003.81 1622.69 L1025.13 1602.6 L1033.41 1602.6 L1009.82 1624.76 L1035.09 1650.12 L1026.63 1650.12 L1003.81 1627.24 L1003.81 1650.12 L997.377 1650.12 L997.377 1602.6 Z" fill="#000000" fill-rule="evenodd" fill-opacity="1" /><path clip-path="url(#clip950)" d="M 0 0 M1056.29 1632.2 Q1049.19 1632.2 1046.46 1633.83 Q1043.72 1635.45 1043.72 1639.37 Q1043.72 1642.48 1045.76 1644.33 Q1047.82 1646.15 1051.36 1646.15 Q1056.23 1646.15 1059.16 1642.71 Q1062.12 1639.24 1062.12 1633.51 L1062.12 1632.2 L1056.29 1632.2 M1067.97 1629.79 L1067.97 1650.12 L1062.12 1650.12 L1062.12 1644.71 Q1060.11 1647.96 1057.12 1649.52 Q1054.13 1651.05 1049.8 1651.05 Q1044.32 1651.05 1041.08 1647.99 Q1037.86 1644.9 1037.86 1639.75 Q1037.86 1633.73 1041.87 1630.68 Q1045.92 1627.62 1053.9 1627.62 L1062.12 1627.62 L1062.12 1627.05 Q1062.12 1623.01 1059.44 1620.81 Q1056.8 1618.58 1051.99 1618.58 Q1048.94 1618.58 1046.04 1619.31 Q1043.15 1620.05 1040.47 1621.51 L1040.47 1616.1 Q1043.69 1614.86 1046.71 1614.25 Q1049.73 1613.62 1052.6 1613.62 Q1060.33 1613.62 1064.15 1617.63 Q1067.97 1621.64 1067.97 1629.79 Z" fill="#000000" fill-rule="evenodd" fill-opacity="1" /><path clip-path="url(#clip950)" d="M 0 0 M1074.12 1600.6 L1079.97 1600.6 L1079.97 1650.12 L1074.12 1650.12 L1074.12 1600.6 Z" fill="#000000" fill-rule="evenodd" fill-opacity="1" /><path clip-path="url(#clip950)" d="M 0 0 M1116.61 1630.84 L1116.61 1633.7 L1089.68 1633.7 Q1090.06 1639.75 1093.31 1642.93 Q1096.59 1646.08 1102.41 1646.08 Q1105.78 1646.08 1108.94 1645.25 Q1112.12 1644.43 1115.24 1642.77 L1115.24 1648.31 Q1112.09 1649.65 1108.78 1650.35 Q1105.47 1651.05 1102.06 1651.05 Q1093.53 1651.05 1088.53 1646.08 Q1083.57 1641.12 1083.57 1632.65 Q1083.57 1623.9 1088.28 1618.77 Q1093.02 1613.62 1101.04 1613.62 Q1108.24 1613.62 1112.4 1618.26 Q1116.61 1622.88 1116.61 1630.84 M1110.75 1629.12 Q1110.69 1624.31 1108.04 1621.45 Q1105.43 1618.58 1101.11 1618.58 Q1096.2 1618.58 1093.24 1621.35 Q1090.32 1624.12 1089.87 1629.15 L1110.75 1629.12 Z" fill="#000000" fill-rule="evenodd" fill-opacity="1" /><path clip-path="url(#clip950)" d="M 0 0 M1152.38 1628.61 L1152.38 1650.12 L1146.53 1650.12 L1146.53 1628.8 Q1146.53 1623.74 1144.55 1621.22 Q1142.58 1618.71 1138.63 1618.71 Q1133.89 1618.71 1131.15 1621.73 Q1128.41 1624.76 1128.41 1629.98 L1128.41 1650.12 L1122.53 1650.12 L1122.53 1614.48 L1128.41 1614.48 L1128.41 1620.01 Q1130.52 1616.8 1133.35 1615.21 Q1136.21 1613.62 1139.94 1613.62 Q1146.08 1613.62 1149.23 1617.44 Q1152.38 1621.22 1152.38 1628.61 Z" fill="#000000" fill-rule="evenodd" fill-opacity="1" /><path clip-path="url(#clip950)" d="M 0 0 M1181.98 1619.89 L1181.98 1600.6 L1187.84 1600.6 L1187.84 1650.12 L1181.98 1650.12 L1181.98 1644.78 Q1180.14 1647.96 1177.3 1649.52 Q1174.5 1651.05 1170.56 1651.05 Q1164.09 1651.05 1160.02 1645.89 Q1155.98 1640.73 1155.98 1632.33 Q1155.98 1623.93 1160.02 1618.77 Q1164.09 1613.62 1170.56 1613.62 Q1174.5 1613.62 1177.3 1615.18 Q1180.14 1616.7 1181.98 1619.89 M1162.03 1632.33 Q1162.03 1638.79 1164.67 1642.48 Q1167.34 1646.15 1171.99 1646.15 Q1176.63 1646.15 1179.31 1642.48 Q1181.98 1638.79 1181.98 1632.33 Q1181.98 1625.87 1179.31 1622.21 Q1176.63 1618.52 1171.99 1618.52 Q1167.34 1618.52 1164.67 1622.21 Q1162.03 1625.87 1162.03 1632.33 Z" fill="#000000" fill-rule="evenodd" fill-opacity="1" /><path clip-path="url(#clip950)" d="M 0 0 M1224.47 1630.84 L1224.47 1633.7 L1197.55 1633.7 Q1197.93 1639.75 1201.17 1642.93 Q1204.45 1646.08 1210.28 1646.08 Q1213.65 1646.08 1216.8 1645.25 Q1219.99 1644.43 1223.1 1642.77 L1223.1 1648.31 Q1219.95 1649.65 1216.64 1650.35 Q1213.33 1651.05 1209.93 1651.05 Q1201.4 1651.05 1196.4 1646.08 Q1191.44 1641.12 1191.44 1632.65 Q1191.44 1623.9 1196.15 1618.77 Q1200.89 1613.62 1208.91 1613.62 Q1216.1 1613.62 1220.27 1618.26 Q1224.47 1622.88 1224.47 1630.84 M1218.62 1629.12 Q1218.55 1624.31 1215.91 1621.45 Q1213.3 1618.58 1208.97 1618.58 Q1204.07 1618.58 1201.11 1621.35 Q1198.18 1624.12 1197.74 1629.15 L1218.62 1629.12 Z" fill="#000000" fill-rule="evenodd" fill-opacity="1" /><path clip-path="url(#clip950)" d="M 0 0 M1251.27 1619.95 Q1250.29 1619.38 1249.11 1619.12 Q1247.96 1618.84 1246.56 1618.84 Q1241.6 1618.84 1238.92 1622.08 Q1236.28 1625.3 1236.28 1631.35 L1236.28 1650.12 L1230.39 1650.12 L1230.39 1614.48 L1236.28 1614.48 L1236.28 1620.01 Q1238.13 1616.77 1241.09 1615.21 Q1244.05 1613.62 1248.28 1613.62 Q1248.89 1613.62 1249.62 1613.71 Q1250.35 1613.78 1251.24 1613.93 L1251.27 1619.95 Z" fill="#000000" fill-rule="evenodd" fill-opacity="1" /><path clip-path="url(#clip950)" d="M 0 0 M1254.01 1614.48 L1259.87 1614.48 L1267.19 1642.29 L1274.48 1614.48 L1281.38 1614.48 L1288.7 1642.29 L1295.99 1614.48 L1301.85 1614.48 L1292.52 1650.12 L1285.62 1650.12 L1277.95 1620.91 L1270.24 1650.12 L1263.34 1650.12 L1254.01 1614.48 Z" fill="#000000" fill-rule="evenodd" fill-opacity="1" /><path clip-path="url(#clip950)" d="M 0 0 M1321.8 1618.58 Q1317.09 1618.58 1314.36 1622.27 Q1311.62 1625.93 1311.62 1632.33 Q1311.62 1638.73 1314.33 1642.42 Q1317.06 1646.08 1321.8 1646.08 Q1326.48 1646.08 1329.22 1642.39 Q1331.96 1638.7 1331.96 1632.33 Q1331.96 1626 1329.22 1622.31 Q1326.48 1618.58 1321.8 1618.58 M1321.8 1613.62 Q1329.44 1613.62 1333.8 1618.58 Q1338.16 1623.55 1338.16 1632.33 Q1338.16 1641.08 1333.8 1646.08 Q1329.44 1651.05 1321.8 1651.05 Q1314.13 1651.05 1309.77 1646.08 Q1305.45 1641.08 1305.45 1632.33 Q1305.45 1623.55 1309.77 1618.58 Q1314.13 1613.62 1321.8 1613.62 Z" fill="#000000" fill-rule="evenodd" fill-opacity="1" /><path clip-path="url(#clip950)" d="M 0 0 M1369.96 1615.84 L1369.96 1621.32 Q1367.48 1619.95 1364.96 1619.28 Q1362.48 1618.58 1359.94 1618.58 Q1354.24 1618.58 1351.09 1622.21 Q1347.94 1625.81 1347.94 1632.33 Q1347.94 1638.86 1351.09 1642.48 Q1354.24 1646.08 1359.94 1646.08 Q1362.48 1646.08 1364.96 1645.41 Q1367.48 1644.71 1369.96 1643.34 L1369.96 1648.76 Q1367.51 1649.9 1364.87 1650.47 Q1362.26 1651.05 1359.3 1651.05 Q1351.25 1651.05 1346.5 1645.99 Q1341.76 1640.93 1341.76 1632.33 Q1341.76 1623.61 1346.54 1618.61 Q1351.34 1613.62 1359.68 1613.62 Q1362.39 1613.62 1364.96 1614.19 Q1367.54 1614.73 1369.96 1615.84 Z" fill="#000000" fill-rule="evenodd" fill-opacity="1" /><path clip-path="url(#clip950)" d="M 0 0 M1405.74 1628.61 L1405.74 1650.12 L1399.88 1650.12 L1399.88 1628.8 Q1399.88 1623.74 1397.91 1621.22 Q1395.93 1618.71 1391.99 1618.71 Q1387.24 1618.71 1384.51 1621.73 Q1381.77 1624.76 1381.77 1629.98 L1381.77 1650.12 L1375.88 1650.12 L1375.88 1600.6 L1381.77 1600.6 L1381.77 1620.01 Q1383.87 1616.8 1386.7 1615.21 Q1389.57 1613.62 1393.29 1613.62 Q1399.43 1613.62 1402.59 1617.44 Q1405.74 1621.22 1405.74 1628.61 Z" fill="#000000" fill-rule="evenodd" fill-opacity="1" /><path clip-path="url(#clip950)" d="M 0 0 M1442.37 1630.84 L1442.37 1633.7 L1415.44 1633.7 Q1415.83 1639.75 1419.07 1642.93 Q1422.35 1646.08 1428.18 1646.08 Q1431.55 1646.08 1434.7 1645.25 Q1437.88 1644.43 1441 1642.77 L1441 1648.31 Q1437.85 1649.65 1434.54 1650.35 Q1431.23 1651.05 1427.83 1651.05 Q1419.3 1651.05 1414.3 1646.08 Q1409.33 1641.12 1409.33 1632.65 Q1409.33 1623.9 1414.04 1618.77 Q1418.79 1613.62 1426.81 1613.62 Q1434 1613.62 1438.17 1618.26 Q1442.37 1622.88 1442.37 1630.84 M1436.51 1629.12 Q1436.45 1624.31 1433.81 1621.45 Q1431.2 1618.58 1426.87 1618.58 Q1421.97 1618.58 1419.01 1621.35 Q1416.08 1624.12 1415.64 1629.15 L1436.51 1629.12 Z" fill="#000000" fill-rule="evenodd" fill-opacity="1" /><polyline clip-path="url(#clip952)" style="stroke:#000000; stroke-width:2; stroke-opacity:0.1; fill:none" points="
  86.9921,1505.26 2352.76,1505.26 
  "/>
<polyline clip-path="url(#clip952)" style="stroke:#000000; stroke-width:2; stroke-opacity:0.1; fill:none" points="
  86.9921,1279.91 2352.76,1279.91 
  "/>
<polyline clip-path="url(#clip952)" style="stroke:#000000; stroke-width:2; stroke-opacity:0.1; fill:none" points="
  86.9921,1054.55 2352.76,1054.55 
  "/>
<polyline clip-path="url(#clip952)" style="stroke:#000000; stroke-width:2; stroke-opacity:0.1; fill:none" points="
  86.9921,829.197 2352.76,829.197 
  "/>
<polyline clip-path="url(#clip952)" style="stroke:#000000; stroke-width:2; stroke-opacity:0.1; fill:none" points="
  86.9921,603.843 2352.76,603.843 
  "/>
<polyline clip-path="url(#clip952)" style="stroke:#000000; stroke-width:2; stroke-opacity:0.1; fill:none" points="
  86.9921,378.488 2352.76,378.488 
  "/>
<polyline clip-path="url(#clip952)" style="stroke:#000000; stroke-width:2; stroke-opacity:0.1; fill:none" points="
  86.9921,153.134 2352.76,153.134 
  "/>
<polyline clip-path="url(#clip950)" style="stroke:#000000; stroke-width:4; stroke-opacity:1; fill:none" points="
  86.9921,1505.26 86.9921,62.9921 
  "/>
<polyline clip-path="url(#clip950)" style="stroke:#000000; stroke-width:4; stroke-opacity:1; fill:none" points="
  86.9921,1505.26 114.181,1505.26 
  "/>
<polyline clip-path="url(#clip950)" style="stroke:#000000; stroke-width:4; stroke-opacity:1; fill:none" points="
  86.9921,1279.91 114.181,1279.91 
  "/>
<polyline clip-path="url(#clip950)" style="stroke:#000000; stroke-width:4; stroke-opacity:1; fill:none" points="
  86.9921,1054.55 114.181,1054.55 
  "/>
<polyline clip-path="url(#clip950)" style="stroke:#000000; stroke-width:4; stroke-opacity:1; fill:none" points="
  86.9921,829.197 114.181,829.197 
  "/>
<polyline clip-path="url(#clip950)" style="stroke:#000000; stroke-width:4; stroke-opacity:1; fill:none" points="
  86.9921,603.843 114.181,603.843 
  "/>
<polyline clip-path="url(#clip950)" style="stroke:#000000; stroke-width:4; stroke-opacity:1; fill:none" points="
  86.9921,378.488 114.181,378.488 
  "/>
<polyline clip-path="url(#clip950)" style="stroke:#000000; stroke-width:4; stroke-opacity:1; fill:none" points="
  86.9921,153.134 114.181,153.134 
  "/>
<path clip-path="url(#clip950)" d="M 0 0 M39.0477 1491.06 Q35.4367 1491.06 33.608 1494.62 Q31.8024 1498.16 31.8024 1505.29 Q31.8024 1512.4 33.608 1515.97 Q35.4367 1519.51 39.0477 1519.51 Q42.682 1519.51 44.4875 1515.97 Q46.3162 1512.4 46.3162 1505.29 Q46.3162 1498.16 44.4875 1494.62 Q42.682 1491.06 39.0477 1491.06 M39.0477 1487.35 Q44.8579 1487.35 47.9134 1491.96 Q50.9921 1496.54 50.9921 1505.29 Q50.9921 1514.02 47.9134 1518.63 Q44.8579 1523.21 39.0477 1523.21 Q33.2376 1523.21 30.1589 1518.63 Q27.1034 1514.02 27.1034 1505.29 Q27.1034 1496.54 30.1589 1491.96 Q33.2376 1487.35 39.0477 1487.35 Z" fill="#000000" fill-rule="evenodd" fill-opacity="1" /><path clip-path="url(#clip950)" d="M 0 0 M-50.9518 1262.63 L-32.5954 1262.63 L-32.5954 1266.56 L-46.6694 1266.56 L-46.6694 1275.03 Q-45.6509 1274.69 -44.6324 1274.52 Q-43.6138 1274.34 -42.5953 1274.34 Q-36.8083 1274.34 -33.4287 1277.51 Q-30.0491 1280.68 -30.0491 1286.1 Q-30.0491 1291.68 -33.5213 1294.78 Q-36.9935 1297.86 -43.3129 1297.86 Q-45.4888 1297.86 -47.7573 1297.49 Q-50.0027 1297.12 -52.4101 1296.38 L-52.4101 1291.68 Q-50.3268 1292.81 -48.1046 1293.37 Q-45.8824 1293.92 -43.4055 1293.92 Q-39.4009 1293.92 -37.063 1291.82 Q-34.725 1289.71 -34.725 1286.1 Q-34.725 1282.49 -37.063 1280.38 Q-39.4009 1278.27 -43.4055 1278.27 Q-45.2805 1278.27 -47.1555 1278.69 Q-49.0073 1279.11 -50.9518 1279.99 L-50.9518 1262.63 Z" fill="#000000" fill-rule="evenodd" fill-opacity="1" /><path clip-path="url(#clip950)" d="M 0 0 M-14.9797 1265.7 Q-18.5908 1265.7 -20.4195 1269.27 Q-22.2251 1272.81 -22.2251 1279.94 Q-22.2251 1287.05 -20.4195 1290.61 Q-18.5908 1294.15 -14.9797 1294.15 Q-11.3455 1294.15 -9.53996 1290.61 Q-7.71126 1287.05 -7.71126 1279.94 Q-7.71126 1272.81 -9.53996 1269.27 Q-11.3455 1265.7 -14.9797 1265.7 M-14.9797 1262 Q-9.16959 1262 -6.11405 1266.61 Q-3.03536 1271.19 -3.03536 1279.94 Q-3.03536 1288.67 -6.11405 1293.27 Q-9.16959 1297.86 -14.9797 1297.86 Q-20.7899 1297.86 -23.8686 1293.27 Q-26.9241 1288.67 -26.9241 1279.94 Q-26.9241 1271.19 -23.8686 1266.61 Q-20.7899 1262 -14.9797 1262 Z" fill="#000000" fill-rule="evenodd" fill-opacity="1" /><path clip-path="url(#clip950)" d="M 0 0 M12.034 1265.7 Q8.42291 1265.7 6.59422 1269.27 Q4.78867 1272.81 4.78867 1279.94 Q4.78867 1287.05 6.59422 1290.61 Q8.42291 1294.15 12.034 1294.15 Q15.6682 1294.15 17.4738 1290.61 Q19.3025 1287.05 19.3025 1279.94 Q19.3025 1272.81 17.4738 1269.27 Q15.6682 1265.7 12.034 1265.7 M12.034 1262 Q17.8442 1262 20.8997 1266.61 Q23.9784 1271.19 23.9784 1279.94 Q23.9784 1288.67 20.8997 1293.27 Q17.8442 1297.86 12.034 1297.86 Q6.22385 1297.86 3.14516 1293.27 Q0.089621 1288.67 0.089621 1279.94 Q0.089621 1271.19 3.14516 1266.61 Q6.22385 1262 12.034 1262 Z" fill="#000000" fill-rule="evenodd" fill-opacity="1" /><path clip-path="url(#clip950)" d="M 0 0 M39.0477 1265.7 Q35.4367 1265.7 33.608 1269.27 Q31.8024 1272.81 31.8024 1279.94 Q31.8024 1287.05 33.608 1290.61 Q35.4367 1294.15 39.0477 1294.15 Q42.682 1294.15 44.4875 1290.61 Q46.3162 1287.05 46.3162 1279.94 Q46.3162 1272.81 44.4875 1269.27 Q42.682 1265.7 39.0477 1265.7 M39.0477 1262 Q44.8579 1262 47.9134 1266.61 Q50.9921 1271.19 50.9921 1279.94 Q50.9921 1288.67 47.9134 1293.27 Q44.8579 1297.86 39.0477 1297.86 Q33.2376 1297.86 30.1589 1293.27 Q27.1034 1288.67 27.1034 1279.94 Q27.1034 1271.19 30.1589 1266.61 Q33.2376 1262 39.0477 1262 Z" fill="#000000" fill-rule="evenodd" fill-opacity="1" /><path clip-path="url(#clip950)" d="M 0 0 M-76.9702 1067.9 L-69.3313 1067.9 L-69.3313 1041.53 L-77.6414 1043.2 L-77.6414 1038.94 L-69.3776 1037.27 L-64.7017 1037.27 L-64.7017 1067.9 L-57.0629 1067.9 L-57.0629 1071.83 L-76.9702 1071.83 L-76.9702 1067.9 Z" fill="#000000" fill-rule="evenodd" fill-opacity="1" /><path clip-path="url(#clip950)" d="M 0 0 M-41.9935 1040.35 Q-45.6046 1040.35 -47.4333 1043.91 Q-49.2388 1047.46 -49.2388 1054.59 Q-49.2388 1061.69 -47.4333 1065.26 Q-45.6046 1068.8 -41.9935 1068.8 Q-38.3592 1068.8 -36.5537 1065.26 Q-34.725 1061.69 -34.725 1054.59 Q-34.725 1047.46 -36.5537 1043.91 Q-38.3592 1040.35 -41.9935 1040.35 M-41.9935 1036.65 Q-36.1833 1036.65 -33.1278 1041.25 Q-30.0491 1045.84 -30.0491 1054.59 Q-30.0491 1063.31 -33.1278 1067.92 Q-36.1833 1072.5 -41.9935 1072.5 Q-47.8036 1072.5 -50.8823 1067.92 Q-53.9379 1063.31 -53.9379 1054.59 Q-53.9379 1045.84 -50.8823 1041.25 Q-47.8036 1036.65 -41.9935 1036.65 Z" fill="#000000" fill-rule="evenodd" fill-opacity="1" /><path clip-path="url(#clip950)" d="M 0 0 M-14.9797 1040.35 Q-18.5908 1040.35 -20.4195 1043.91 Q-22.2251 1047.46 -22.2251 1054.59 Q-22.2251 1061.69 -20.4195 1065.26 Q-18.5908 1068.8 -14.9797 1068.8 Q-11.3455 1068.8 -9.53996 1065.26 Q-7.71126 1061.69 -7.71126 1054.59 Q-7.71126 1047.46 -9.53996 1043.91 Q-11.3455 1040.35 -14.9797 1040.35 M-14.9797 1036.65 Q-9.16959 1036.65 -6.11405 1041.25 Q-3.03536 1045.84 -3.03536 1054.59 Q-3.03536 1063.31 -6.11405 1067.92 Q-9.16959 1072.5 -14.9797 1072.5 Q-20.7899 1072.5 -23.8686 1067.92 Q-26.9241 1063.31 -26.9241 1054.59 Q-26.9241 1045.84 -23.8686 1041.25 Q-20.7899 1036.65 -14.9797 1036.65 Z" fill="#000000" fill-rule="evenodd" fill-opacity="1" /><path clip-path="url(#clip950)" d="M 0 0 M12.034 1040.35 Q8.42291 1040.35 6.59422 1043.91 Q4.78867 1047.46 4.78867 1054.59 Q4.78867 1061.69 6.59422 1065.26 Q8.42291 1068.8 12.034 1068.8 Q15.6682 1068.8 17.4738 1065.26 Q19.3025 1061.69 19.3025 1054.59 Q19.3025 1047.46 17.4738 1043.91 Q15.6682 1040.35 12.034 1040.35 M12.034 1036.65 Q17.8442 1036.65 20.8997 1041.25 Q23.9784 1045.84 23.9784 1054.59 Q23.9784 1063.31 20.8997 1067.92 Q17.8442 1072.5 12.034 1072.5 Q6.22385 1072.5 3.14516 1067.92 Q0.089621 1063.31 0.089621 1054.59 Q0.089621 1045.84 3.14516 1041.25 Q6.22385 1036.65 12.034 1036.65 Z" fill="#000000" fill-rule="evenodd" fill-opacity="1" /><path clip-path="url(#clip950)" d="M 0 0 M39.0477 1040.35 Q35.4367 1040.35 33.608 1043.91 Q31.8024 1047.46 31.8024 1054.59 Q31.8024 1061.69 33.608 1065.26 Q35.4367 1068.8 39.0477 1068.8 Q42.682 1068.8 44.4875 1065.26 Q46.3162 1061.69 46.3162 1054.59 Q46.3162 1047.46 44.4875 1043.91 Q42.682 1040.35 39.0477 1040.35 M39.0477 1036.65 Q44.8579 1036.65 47.9134 1041.25 Q50.9921 1045.84 50.9921 1054.59 Q50.9921 1063.31 47.9134 1067.92 Q44.8579 1072.5 39.0477 1072.5 Q33.2376 1072.5 30.1589 1067.92 Q27.1034 1063.31 27.1034 1054.59 Q27.1034 1045.84 30.1589 1041.25 Q33.2376 1036.65 39.0477 1036.65 Z" fill="#000000" fill-rule="evenodd" fill-opacity="1" /><path clip-path="url(#clip950)" d="M 0 0 M-75.9748 842.542 L-68.3359 842.542 L-68.3359 816.176 L-76.6461 817.843 L-76.6461 813.584 L-68.3822 811.917 L-63.7063 811.917 L-63.7063 842.542 L-56.0675 842.542 L-56.0675 846.477 L-75.9748 846.477 L-75.9748 842.542 Z" fill="#000000" fill-rule="evenodd" fill-opacity="1" /><path clip-path="url(#clip950)" d="M 0 0 M-50.9518 811.917 L-32.5954 811.917 L-32.5954 815.852 L-46.6694 815.852 L-46.6694 824.324 Q-45.6509 823.977 -44.6324 823.815 Q-43.6138 823.63 -42.5953 823.63 Q-36.8083 823.63 -33.4287 826.801 Q-30.0491 829.972 -30.0491 835.389 Q-30.0491 840.968 -33.5213 844.069 Q-36.9935 847.148 -43.3129 847.148 Q-45.4888 847.148 -47.7573 846.778 Q-50.0027 846.407 -52.4101 845.667 L-52.4101 840.968 Q-50.3268 842.102 -48.1046 842.657 Q-45.8824 843.213 -43.4055 843.213 Q-39.4009 843.213 -37.063 841.107 Q-34.725 839 -34.725 835.389 Q-34.725 831.778 -37.063 829.671 Q-39.4009 827.565 -43.4055 827.565 Q-45.2805 827.565 -47.1555 827.982 Q-49.0073 828.398 -50.9518 829.278 L-50.9518 811.917 Z" fill="#000000" fill-rule="evenodd" fill-opacity="1" /><path clip-path="url(#clip950)" d="M 0 0 M-14.9797 814.996 Q-18.5908 814.996 -20.4195 818.56 Q-22.2251 822.102 -22.2251 829.232 Q-22.2251 836.338 -20.4195 839.903 Q-18.5908 843.444 -14.9797 843.444 Q-11.3455 843.444 -9.53996 839.903 Q-7.71126 836.338 -7.71126 829.232 Q-7.71126 822.102 -9.53996 818.56 Q-11.3455 814.996 -14.9797 814.996 M-14.9797 811.292 Q-9.16959 811.292 -6.11405 815.898 Q-3.03536 820.482 -3.03536 829.232 Q-3.03536 837.958 -6.11405 842.565 Q-9.16959 847.148 -14.9797 847.148 Q-20.7899 847.148 -23.8686 842.565 Q-26.9241 837.958 -26.9241 829.232 Q-26.9241 820.482 -23.8686 815.898 Q-20.7899 811.292 -14.9797 811.292 Z" fill="#000000" fill-rule="evenodd" fill-opacity="1" /><path clip-path="url(#clip950)" d="M 0 0 M12.034 814.996 Q8.42291 814.996 6.59422 818.56 Q4.78867 822.102 4.78867 829.232 Q4.78867 836.338 6.59422 839.903 Q8.42291 843.444 12.034 843.444 Q15.6682 843.444 17.4738 839.903 Q19.3025 836.338 19.3025 829.232 Q19.3025 822.102 17.4738 818.56 Q15.6682 814.996 12.034 814.996 M12.034 811.292 Q17.8442 811.292 20.8997 815.898 Q23.9784 820.482 23.9784 829.232 Q23.9784 837.958 20.8997 842.565 Q17.8442 847.148 12.034 847.148 Q6.22385 847.148 3.14516 842.565 Q0.089621 837.958 0.089621 829.232 Q0.089621 820.482 3.14516 815.898 Q6.22385 811.292 12.034 811.292 Z" fill="#000000" fill-rule="evenodd" fill-opacity="1" /><path clip-path="url(#clip950)" d="M 0 0 M39.0477 814.996 Q35.4367 814.996 33.608 818.56 Q31.8024 822.102 31.8024 829.232 Q31.8024 836.338 33.608 839.903 Q35.4367 843.444 39.0477 843.444 Q42.682 843.444 44.4875 839.903 Q46.3162 836.338 46.3162 829.232 Q46.3162 822.102 44.4875 818.56 Q42.682 814.996 39.0477 814.996 M39.0477 811.292 Q44.8579 811.292 47.9134 815.898 Q50.9921 820.482 50.9921 829.232 Q50.9921 837.958 47.9134 842.565 Q44.8579 847.148 39.0477 847.148 Q33.2376 847.148 30.1589 842.565 Q27.1034 837.958 27.1034 829.232 Q27.1034 820.482 30.1589 815.898 Q33.2376 811.292 39.0477 811.292 Z" fill="#000000" fill-rule="evenodd" fill-opacity="1" /><path clip-path="url(#clip950)" d="M 0 0 M-73.3822 617.187 L-57.0629 617.187 L-57.0629 621.123 L-79.0072 621.123 L-79.0072 617.187 Q-76.3452 614.433 -71.7618 609.803 Q-67.1554 605.15 -65.9748 603.808 Q-63.7295 601.285 -62.8499 599.549 Q-61.9471 597.789 -61.9471 596.1 Q-61.9471 593.345 -63.8915 591.609 Q-65.8128 589.873 -68.9146 589.873 Q-71.1137 589.873 -73.5674 590.637 Q-75.9979 591.4 -78.7757 592.951 L-78.7757 588.229 Q-75.9516 587.095 -73.4979 586.516 Q-71.0443 585.938 -69.0072 585.938 Q-63.6369 585.938 -60.4425 588.623 Q-57.248 591.308 -57.248 595.799 Q-57.248 597.928 -58.0582 599.849 Q-58.8452 601.748 -60.9517 604.34 Q-61.5304 605.011 -64.6323 608.229 Q-67.7341 611.423 -73.3822 617.187 Z" fill="#000000" fill-rule="evenodd" fill-opacity="1" /><path clip-path="url(#clip950)" d="M 0 0 M-41.9935 589.641 Q-45.6046 589.641 -47.4333 593.206 Q-49.2388 596.748 -49.2388 603.877 Q-49.2388 610.984 -47.4333 614.548 Q-45.6046 618.09 -41.9935 618.09 Q-38.3592 618.09 -36.5537 614.548 Q-34.725 610.984 -34.725 603.877 Q-34.725 596.748 -36.5537 593.206 Q-38.3592 589.641 -41.9935 589.641 M-41.9935 585.938 Q-36.1833 585.938 -33.1278 590.544 Q-30.0491 595.127 -30.0491 603.877 Q-30.0491 612.604 -33.1278 617.211 Q-36.1833 621.794 -41.9935 621.794 Q-47.8036 621.794 -50.8823 617.211 Q-53.9379 612.604 -53.9379 603.877 Q-53.9379 595.127 -50.8823 590.544 Q-47.8036 585.938 -41.9935 585.938 Z" fill="#000000" fill-rule="evenodd" fill-opacity="1" /><path clip-path="url(#clip950)" d="M 0 0 M-14.9797 589.641 Q-18.5908 589.641 -20.4195 593.206 Q-22.2251 596.748 -22.2251 603.877 Q-22.2251 610.984 -20.4195 614.548 Q-18.5908 618.09 -14.9797 618.09 Q-11.3455 618.09 -9.53996 614.548 Q-7.71126 610.984 -7.71126 603.877 Q-7.71126 596.748 -9.53996 593.206 Q-11.3455 589.641 -14.9797 589.641 M-14.9797 585.938 Q-9.16959 585.938 -6.11405 590.544 Q-3.03536 595.127 -3.03536 603.877 Q-3.03536 612.604 -6.11405 617.211 Q-9.16959 621.794 -14.9797 621.794 Q-20.7899 621.794 -23.8686 617.211 Q-26.9241 612.604 -26.9241 603.877 Q-26.9241 595.127 -23.8686 590.544 Q-20.7899 585.938 -14.9797 585.938 Z" fill="#000000" fill-rule="evenodd" fill-opacity="1" /><path clip-path="url(#clip950)" d="M 0 0 M12.034 589.641 Q8.42291 589.641 6.59422 593.206 Q4.78867 596.748 4.78867 603.877 Q4.78867 610.984 6.59422 614.548 Q8.42291 618.09 12.034 618.09 Q15.6682 618.09 17.4738 614.548 Q19.3025 610.984 19.3025 603.877 Q19.3025 596.748 17.4738 593.206 Q15.6682 589.641 12.034 589.641 M12.034 585.938 Q17.8442 585.938 20.8997 590.544 Q23.9784 595.127 23.9784 603.877 Q23.9784 612.604 20.8997 617.211 Q17.8442 621.794 12.034 621.794 Q6.22385 621.794 3.14516 617.211 Q0.089621 612.604 0.089621 603.877 Q0.089621 595.127 3.14516 590.544 Q6.22385 585.938 12.034 585.938 Z" fill="#000000" fill-rule="evenodd" fill-opacity="1" /><path clip-path="url(#clip950)" d="M 0 0 M39.0477 589.641 Q35.4367 589.641 33.608 593.206 Q31.8024 596.748 31.8024 603.877 Q31.8024 610.984 33.608 614.548 Q35.4367 618.09 39.0477 618.09 Q42.682 618.09 44.4875 614.548 Q46.3162 610.984 46.3162 603.877 Q46.3162 596.748 44.4875 593.206 Q42.682 589.641 39.0477 589.641 M39.0477 585.938 Q44.8579 585.938 47.9134 590.544 Q50.9921 595.127 50.9921 603.877 Q50.9921 612.604 47.9134 617.211 Q44.8579 621.794 39.0477 621.794 Q33.2376 621.794 30.1589 617.211 Q27.1034 612.604 27.1034 603.877 Q27.1034 595.127 30.1589 590.544 Q33.2376 585.938 39.0477 585.938 Z" fill="#000000" fill-rule="evenodd" fill-opacity="1" /><path clip-path="url(#clip950)" d="M 0 0 M-72.3868 391.833 L-56.0675 391.833 L-56.0675 395.768 L-78.0118 395.768 L-78.0118 391.833 Q-75.3498 389.078 -70.7665 384.449 Q-66.16 379.796 -64.9795 378.453 Q-62.7341 375.93 -61.8545 374.194 Q-60.9517 372.435 -60.9517 370.745 Q-60.9517 367.991 -62.8962 366.254 Q-64.8174 364.518 -67.9193 364.518 Q-70.1183 364.518 -72.572 365.282 Q-75.0026 366.046 -77.7803 367.597 L-77.7803 362.875 Q-74.9563 361.741 -72.5026 361.162 Q-70.0489 360.583 -68.0119 360.583 Q-62.6415 360.583 -59.4471 363.268 Q-56.2527 365.954 -56.2527 370.444 Q-56.2527 372.574 -57.0629 374.495 Q-57.8499 376.393 -59.9564 378.986 Q-60.5351 379.657 -63.6369 382.875 Q-66.7387 386.069 -72.3868 391.833 Z" fill="#000000" fill-rule="evenodd" fill-opacity="1" /><path clip-path="url(#clip950)" d="M 0 0 M-50.9518 361.208 L-32.5954 361.208 L-32.5954 365.143 L-46.6694 365.143 L-46.6694 373.616 Q-45.6509 373.268 -44.6324 373.106 Q-43.6138 372.921 -42.5953 372.921 Q-36.8083 372.921 -33.4287 376.092 Q-30.0491 379.264 -30.0491 384.68 Q-30.0491 390.259 -33.5213 393.361 Q-36.9935 396.439 -43.3129 396.439 Q-45.4888 396.439 -47.7573 396.069 Q-50.0027 395.699 -52.4101 394.958 L-52.4101 390.259 Q-50.3268 391.393 -48.1046 391.949 Q-45.8824 392.504 -43.4055 392.504 Q-39.4009 392.504 -37.063 390.398 Q-34.725 388.291 -34.725 384.68 Q-34.725 381.069 -37.063 378.963 Q-39.4009 376.856 -43.4055 376.856 Q-45.2805 376.856 -47.1555 377.273 Q-49.0073 377.69 -50.9518 378.569 L-50.9518 361.208 Z" fill="#000000" fill-rule="evenodd" fill-opacity="1" /><path clip-path="url(#clip950)" d="M 0 0 M-14.9797 364.287 Q-18.5908 364.287 -20.4195 367.852 Q-22.2251 371.393 -22.2251 378.523 Q-22.2251 385.629 -20.4195 389.194 Q-18.5908 392.736 -14.9797 392.736 Q-11.3455 392.736 -9.53996 389.194 Q-7.71126 385.629 -7.71126 378.523 Q-7.71126 371.393 -9.53996 367.852 Q-11.3455 364.287 -14.9797 364.287 M-14.9797 360.583 Q-9.16959 360.583 -6.11405 365.19 Q-3.03536 369.773 -3.03536 378.523 Q-3.03536 387.25 -6.11405 391.856 Q-9.16959 396.439 -14.9797 396.439 Q-20.7899 396.439 -23.8686 391.856 Q-26.9241 387.25 -26.9241 378.523 Q-26.9241 369.773 -23.8686 365.19 Q-20.7899 360.583 -14.9797 360.583 Z" fill="#000000" fill-rule="evenodd" fill-opacity="1" /><path clip-path="url(#clip950)" d="M 0 0 M12.034 364.287 Q8.42291 364.287 6.59422 367.852 Q4.78867 371.393 4.78867 378.523 Q4.78867 385.629 6.59422 389.194 Q8.42291 392.736 12.034 392.736 Q15.6682 392.736 17.4738 389.194 Q19.3025 385.629 19.3025 378.523 Q19.3025 371.393 17.4738 367.852 Q15.6682 364.287 12.034 364.287 M12.034 360.583 Q17.8442 360.583 20.8997 365.19 Q23.9784 369.773 23.9784 378.523 Q23.9784 387.25 20.8997 391.856 Q17.8442 396.439 12.034 396.439 Q6.22385 396.439 3.14516 391.856 Q0.089621 387.25 0.089621 378.523 Q0.089621 369.773 3.14516 365.19 Q6.22385 360.583 12.034 360.583 Z" fill="#000000" fill-rule="evenodd" fill-opacity="1" /><path clip-path="url(#clip950)" d="M 0 0 M39.0477 364.287 Q35.4367 364.287 33.608 367.852 Q31.8024 371.393 31.8024 378.523 Q31.8024 385.629 33.608 389.194 Q35.4367 392.736 39.0477 392.736 Q42.682 392.736 44.4875 389.194 Q46.3162 385.629 46.3162 378.523 Q46.3162 371.393 44.4875 367.852 Q42.682 364.287 39.0477 364.287 M39.0477 360.583 Q44.8579 360.583 47.9134 365.19 Q50.9921 369.773 50.9921 378.523 Q50.9921 387.25 47.9134 391.856 Q44.8579 396.439 39.0477 396.439 Q33.2376 396.439 30.1589 391.856 Q27.1034 387.25 27.1034 378.523 Q27.1034 369.773 30.1589 365.19 Q33.2376 360.583 39.0477 360.583 Z" fill="#000000" fill-rule="evenodd" fill-opacity="1" /><path clip-path="url(#clip950)" d="M 0 0 M-64.1924 151.78 Q-60.836 152.497 -58.961 154.766 Q-57.0629 157.034 -57.0629 160.368 Q-57.0629 165.483 -60.5814 168.284 Q-64.0998 171.085 -70.5813 171.085 Q-72.7572 171.085 -75.072 170.645 Q-77.3637 170.229 -79.8174 169.372 L-79.8174 164.858 Q-77.8729 165.993 -75.5581 166.571 Q-73.2433 167.15 -70.7202 167.15 Q-66.3221 167.15 -64.0304 165.414 Q-61.7156 163.678 -61.7156 160.368 Q-61.7156 157.312 -63.8684 155.599 Q-65.998 153.863 -69.8174 153.863 L-73.8452 153.863 L-73.8452 150.02 L-69.6322 150.02 Q-66.1832 150.02 -64.3545 148.655 Q-62.5258 147.266 -62.5258 144.673 Q-62.5258 142.011 -64.4239 140.599 Q-66.2989 139.164 -69.8174 139.164 Q-71.7387 139.164 -73.9378 139.581 Q-76.1368 139.997 -78.7757 140.877 L-78.7757 136.71 Q-76.1137 135.97 -73.7989 135.599 Q-71.4609 135.229 -69.4007 135.229 Q-64.0767 135.229 -60.9749 137.659 Q-57.873 140.067 -57.873 144.187 Q-57.873 147.058 -59.5165 149.048 Q-61.1601 151.016 -64.1924 151.78 Z" fill="#000000" fill-rule="evenodd" fill-opacity="1" /><path clip-path="url(#clip950)" d="M 0 0 M-41.9935 138.933 Q-45.6046 138.933 -47.4333 142.497 Q-49.2388 146.039 -49.2388 153.169 Q-49.2388 160.275 -47.4333 163.84 Q-45.6046 167.381 -41.9935 167.381 Q-38.3592 167.381 -36.5537 163.84 Q-34.725 160.275 -34.725 153.169 Q-34.725 146.039 -36.5537 142.497 Q-38.3592 138.933 -41.9935 138.933 M-41.9935 135.229 Q-36.1833 135.229 -33.1278 139.835 Q-30.0491 144.419 -30.0491 153.169 Q-30.0491 161.895 -33.1278 166.502 Q-36.1833 171.085 -41.9935 171.085 Q-47.8036 171.085 -50.8823 166.502 Q-53.9379 161.895 -53.9379 153.169 Q-53.9379 144.419 -50.8823 139.835 Q-47.8036 135.229 -41.9935 135.229 Z" fill="#000000" fill-rule="evenodd" fill-opacity="1" /><path clip-path="url(#clip950)" d="M 0 0 M-14.9797 138.933 Q-18.5908 138.933 -20.4195 142.497 Q-22.2251 146.039 -22.2251 153.169 Q-22.2251 160.275 -20.4195 163.84 Q-18.5908 167.381 -14.9797 167.381 Q-11.3455 167.381 -9.53996 163.84 Q-7.71126 160.275 -7.71126 153.169 Q-7.71126 146.039 -9.53996 142.497 Q-11.3455 138.933 -14.9797 138.933 M-14.9797 135.229 Q-9.16959 135.229 -6.11405 139.835 Q-3.03536 144.419 -3.03536 153.169 Q-3.03536 161.895 -6.11405 166.502 Q-9.16959 171.085 -14.9797 171.085 Q-20.7899 171.085 -23.8686 166.502 Q-26.9241 161.895 -26.9241 153.169 Q-26.9241 144.419 -23.8686 139.835 Q-20.7899 135.229 -14.9797 135.229 Z" fill="#000000" fill-rule="evenodd" fill-opacity="1" /><path clip-path="url(#clip950)" d="M 0 0 M12.034 138.933 Q8.42291 138.933 6.59422 142.497 Q4.78867 146.039 4.78867 153.169 Q4.78867 160.275 6.59422 163.84 Q8.42291 167.381 12.034 167.381 Q15.6682 167.381 17.4738 163.84 Q19.3025 160.275 19.3025 153.169 Q19.3025 146.039 17.4738 142.497 Q15.6682 138.933 12.034 138.933 M12.034 135.229 Q17.8442 135.229 20.8997 139.835 Q23.9784 144.419 23.9784 153.169 Q23.9784 161.895 20.8997 166.502 Q17.8442 171.085 12.034 171.085 Q6.22385 171.085 3.14516 166.502 Q0.089621 161.895 0.089621 153.169 Q0.089621 144.419 3.14516 139.835 Q6.22385 135.229 12.034 135.229 Z" fill="#000000" fill-rule="evenodd" fill-opacity="1" /><path clip-path="url(#clip950)" d="M 0 0 M39.0477 138.933 Q35.4367 138.933 33.608 142.497 Q31.8024 146.039 31.8024 153.169 Q31.8024 160.275 33.608 163.84 Q35.4367 167.381 39.0477 167.381 Q42.682 167.381 44.4875 163.84 Q46.3162 160.275 46.3162 153.169 Q46.3162 146.039 44.4875 142.497 Q42.682 138.933 39.0477 138.933 M39.0477 135.229 Q44.8579 135.229 47.9134 139.835 Q50.9921 144.419 50.9921 153.169 Q50.9921 161.895 47.9134 166.502 Q44.8579 171.085 39.0477 171.085 Q33.2376 171.085 30.1589 166.502 Q27.1034 161.895 27.1034 153.169 Q27.1034 144.419 30.1589 139.835 Q33.2376 135.229 39.0477 135.229 Z" fill="#000000" fill-rule="evenodd" fill-opacity="1" /><path clip-path="url(#clip950)" d="M 0 0 M320.776 20.1573 L309.676 50.2555 L331.916 50.2555 L320.776 20.1573 M316.158 12.096 L325.434 12.096 L348.484 72.576 L339.977 72.576 L334.468 57.061 L307.205 57.061 L301.696 72.576 L293.068 72.576 L316.158 12.096 Z" fill="#000000" fill-rule="evenodd" fill-opacity="1" /><path clip-path="url(#clip950)" d="M 0 0 M384.699 34.0924 L384.699 9.54393 L392.153 9.54393 L392.153 72.576 L384.699 72.576 L384.699 65.7705 Q382.35 69.8214 378.744 71.8063 Q375.179 73.7508 370.156 73.7508 Q361.933 73.7508 356.748 67.1883 Q351.603 60.6258 351.603 49.9314 Q351.603 39.2371 356.748 32.6746 Q361.933 26.1121 370.156 26.1121 Q375.179 26.1121 378.744 28.0971 Q382.35 30.0415 384.699 34.0924 M359.3 49.9314 Q359.3 58.1548 362.662 62.8538 Q366.065 67.5124 371.979 67.5124 Q377.894 67.5124 381.296 62.8538 Q384.699 58.1548 384.699 49.9314 Q384.699 41.7081 381.296 37.0496 Q377.894 32.3505 371.979 32.3505 Q366.065 32.3505 362.662 37.0496 Q359.3 41.7081 359.3 49.9314 Z" fill="#000000" fill-rule="evenodd" fill-opacity="1" /><path clip-path="url(#clip950)" d="M 0 0 M399.971 27.2059 L407.425 27.2059 L407.425 73.3862 Q407.425 82.0551 404.103 85.944 Q400.822 89.8329 393.49 89.8329 L390.654 89.8329 L390.654 83.5134 L392.639 83.5134 Q396.892 83.5134 398.432 81.5285 Q399.971 79.5841 399.971 73.3862 L399.971 27.2059 M399.971 9.54393 L407.425 9.54393 L407.425 18.9825 L399.971 18.9825 L399.971 9.54393 Z" fill="#000000" fill-rule="evenodd" fill-opacity="1" /><path clip-path="url(#clip950)" d="M 0 0 M414.473 54.671 L414.473 27.2059 L421.927 27.2059 L421.927 54.3874 Q421.927 60.8284 424.438 64.0691 Q426.95 67.2693 431.973 67.2693 Q438.009 67.2693 441.493 63.421 Q445.017 59.5726 445.017 52.9291 L445.017 27.2059 L452.471 27.2059 L452.471 72.576 L445.017 72.576 L445.017 65.6084 Q442.303 69.7404 438.698 71.7658 Q435.133 73.7508 430.393 73.7508 Q422.575 73.7508 418.524 68.8897 Q414.473 64.0286 414.473 54.671 M433.229 26.1121 L433.229 26.1121 Z" fill="#000000" fill-rule="evenodd" fill-opacity="1" /><path clip-path="url(#clip950)" d="M 0 0 M489.212 28.5427 L489.212 35.5912 Q486.053 33.9709 482.65 33.1607 Q479.247 32.3505 475.601 32.3505 Q470.052 32.3505 467.257 34.0519 Q464.502 35.7533 464.502 39.156 Q464.502 41.7486 466.487 43.2475 Q468.472 44.7058 474.467 46.0426 L477.019 46.6097 Q484.959 48.3111 488.281 51.4303 Q491.643 54.509 491.643 60.0587 Q491.643 66.3781 486.62 70.0644 Q481.637 73.7508 472.887 73.7508 Q469.241 73.7508 465.272 73.0216 Q461.342 72.3329 456.967 70.9151 L456.967 63.2184 Q461.099 65.3654 465.11 66.4591 Q469.12 67.5124 473.049 67.5124 Q478.315 67.5124 481.151 65.73 Q483.987 63.9071 483.987 60.6258 Q483.987 57.5877 481.921 55.9673 Q479.895 54.3469 472.968 52.8481 L470.376 52.2405 Q463.449 50.7821 460.37 47.7845 Q457.291 44.7463 457.291 39.4801 Q457.291 33.0797 461.828 29.5959 Q466.365 26.1121 474.71 26.1121 Q478.842 26.1121 482.488 26.7198 Q486.134 27.3274 489.212 28.5427 Z" fill="#000000" fill-rule="evenodd" fill-opacity="1" /><path clip-path="url(#clip950)" d="M 0 0 M506.834 14.324 L506.834 27.2059 L522.187 27.2059 L522.187 32.9987 L506.834 32.9987 L506.834 57.6282 Q506.834 63.1779 508.333 64.7578 Q509.872 66.3376 514.531 66.3376 L522.187 66.3376 L522.187 72.576 L514.531 72.576 Q505.902 72.576 502.621 69.3758 Q499.34 66.1351 499.34 57.6282 L499.34 32.9987 L493.871 32.9987 L493.871 27.2059 L499.34 27.2059 L499.34 14.324 L506.834 14.324 Z" fill="#000000" fill-rule="evenodd" fill-opacity="1" /><path clip-path="url(#clip950)" d="M 0 0 M530.005 27.2059 L537.459 27.2059 L537.459 72.576 L530.005 72.576 L530.005 27.2059 M530.005 9.54393 L537.459 9.54393 L537.459 18.9825 L530.005 18.9825 L530.005 9.54393 Z" fill="#000000" fill-rule="evenodd" fill-opacity="1" /><path clip-path="url(#clip950)" d="M 0 0 M584.085 48.0275 L584.085 51.6733 L549.814 51.6733 Q550.3 59.3701 554.432 63.421 Q558.604 67.4314 566.018 67.4314 Q570.312 67.4314 574.322 66.3781 Q578.373 65.3249 582.343 63.2184 L582.343 70.267 Q578.332 71.9684 574.119 72.8596 Q569.906 73.7508 565.572 73.7508 Q554.716 73.7508 548.356 67.4314 Q542.036 61.1119 542.036 50.3365 Q542.036 39.1965 548.032 32.6746 Q554.067 26.1121 564.276 26.1121 Q573.431 26.1121 578.737 32.0264 Q584.085 37.9003 584.085 48.0275 M576.631 45.84 Q576.55 39.7232 573.188 36.0774 Q569.866 32.4315 564.357 32.4315 Q558.118 32.4315 554.351 35.9558 Q550.624 39.4801 550.057 45.8805 L576.631 45.84 Z" fill="#000000" fill-rule="evenodd" fill-opacity="1" /><path clip-path="url(#clip950)" d="M 0 0 M618.193 34.1734 Q616.937 33.4443 615.439 33.1202 Q613.98 32.7556 612.198 32.7556 Q605.878 32.7556 602.476 36.8875 Q599.113 40.9789 599.113 48.6757 L599.113 72.576 L591.619 72.576 L591.619 27.2059 L599.113 27.2059 L599.113 34.2544 Q601.463 30.1225 605.23 28.1376 Q608.998 26.1121 614.385 26.1121 Q615.155 26.1121 616.087 26.2337 Q617.018 26.3147 618.153 26.5172 L618.193 34.1734 Z" fill="#000000" fill-rule="evenodd" fill-opacity="1" /><path clip-path="url(#clip950)" d="M 0 0 M633.384 14.324 L633.384 27.2059 L648.737 27.2059 L648.737 32.9987 L633.384 32.9987 L633.384 57.6282 Q633.384 63.1779 634.883 64.7578 Q636.422 66.3376 641.081 66.3376 L648.737 66.3376 L648.737 72.576 L641.081 72.576 Q632.452 72.576 629.171 69.3758 Q625.89 66.1351 625.89 57.6282 L625.89 32.9987 L620.421 32.9987 L620.421 27.2059 L625.89 27.2059 L625.89 14.324 L633.384 14.324 Z" fill="#000000" fill-rule="evenodd" fill-opacity="1" /><path clip-path="url(#clip950)" d="M 0 0 M695.363 48.0275 L695.363 51.6733 L661.092 51.6733 Q661.578 59.3701 665.71 63.421 Q669.883 67.4314 677.296 67.4314 Q681.59 67.4314 685.6 66.3781 Q689.651 65.3249 693.621 63.2184 L693.621 70.267 Q689.611 71.9684 685.398 72.8596 Q681.185 73.7508 676.85 73.7508 Q665.994 73.7508 659.634 67.4314 Q653.315 61.1119 653.315 50.3365 Q653.315 39.1965 659.31 32.6746 Q665.346 26.1121 675.554 26.1121 Q684.709 26.1121 690.016 32.0264 Q695.363 37.9003 695.363 48.0275 M687.909 45.84 Q687.828 39.7232 684.466 36.0774 Q681.144 32.4315 675.635 32.4315 Q669.397 32.4315 665.629 35.9558 Q661.902 39.4801 661.335 45.8805 L687.909 45.84 Z" fill="#000000" fill-rule="evenodd" fill-opacity="1" /><path clip-path="url(#clip950)" d="M 0 0 M747.458 9.62495 Q742.029 18.942 739.396 28.0566 Q736.763 37.1711 736.763 46.5287 Q736.763 55.8863 739.396 65.0818 Q742.07 74.2369 747.458 83.5134 L740.976 83.5134 Q734.9 73.9938 731.862 64.7983 Q728.864 55.6027 728.864 46.5287 Q728.864 37.4952 731.862 28.3401 Q734.859 19.1851 740.976 9.62495 L747.458 9.62495 Z" fill="#000000" fill-rule="evenodd" fill-opacity="1" /><path clip-path="url(#clip950)" d="M 0 0 M763.378 65.6895 L791.936 65.6895 L791.936 72.576 L753.534 72.576 L753.534 65.6895 Q758.192 60.8689 766.213 52.7671 Q774.275 44.6248 776.341 42.2752 Q780.27 37.8598 781.809 34.8216 Q783.389 31.7429 783.389 28.7857 Q783.389 23.9651 779.986 20.927 Q776.624 17.8888 771.196 17.8888 Q767.348 17.8888 763.054 19.2256 Q758.8 20.5624 753.939 23.2765 L753.939 15.0127 Q758.881 13.0277 763.175 12.015 Q767.469 11.0023 771.034 11.0023 Q780.432 11.0023 786.022 15.7013 Q791.612 20.4004 791.612 28.2591 Q791.612 31.9859 790.195 35.3482 Q788.817 38.6699 785.131 43.2069 Q784.118 44.3817 778.69 50.0125 Q773.262 55.6027 763.378 65.6895 Z" fill="#000000" fill-rule="evenodd" fill-opacity="1" /><path clip-path="url(#clip950)" d="M 0 0 M818.308 17.4837 Q811.988 17.4837 808.788 23.7221 Q805.629 29.92 805.629 42.3968 Q805.629 54.833 808.788 61.0714 Q811.988 67.2693 818.308 67.2693 Q824.668 67.2693 827.828 61.0714 Q831.028 54.833 831.028 42.3968 Q831.028 29.92 827.828 23.7221 Q824.668 17.4837 818.308 17.4837 M818.308 11.0023 Q828.476 11.0023 833.823 19.0636 Q839.211 27.0843 839.211 42.3968 Q839.211 57.6687 833.823 65.73 Q828.476 73.7508 818.308 73.7508 Q808.14 73.7508 802.752 65.73 Q797.405 57.6687 797.405 42.3968 Q797.405 27.0843 802.752 19.0636 Q808.14 11.0023 818.308 11.0023 Z" fill="#000000" fill-rule="evenodd" fill-opacity="1" /><path clip-path="url(#clip950)" d="M 0 0 M855.131 65.6895 L883.689 65.6895 L883.689 72.576 L845.287 72.576 L845.287 65.6895 Q849.945 60.8689 857.966 52.7671 Q866.028 44.6248 868.093 42.2752 Q872.023 37.8598 873.562 34.8216 Q875.142 31.7429 875.142 28.7857 Q875.142 23.9651 871.739 20.927 Q868.377 17.8888 862.949 17.8888 Q859.1 17.8888 854.807 19.2256 Q850.553 20.5624 845.692 23.2765 L845.692 15.0127 Q850.634 13.0277 854.928 12.015 Q859.222 11.0023 862.787 11.0023 Q872.185 11.0023 877.775 15.7013 Q883.365 20.4004 883.365 28.2591 Q883.365 31.9859 881.948 35.3482 Q880.57 38.6699 876.884 43.2069 Q875.871 44.3817 870.443 50.0125 Q865.015 55.6027 855.131 65.6895 Z" fill="#000000" fill-rule="evenodd" fill-opacity="1" /><path clip-path="url(#clip950)" d="M 0 0 M910.061 17.4837 Q903.741 17.4837 900.541 23.7221 Q897.382 29.92 897.382 42.3968 Q897.382 54.833 900.541 61.0714 Q903.741 67.2693 910.061 67.2693 Q916.421 67.2693 919.58 61.0714 Q922.781 54.833 922.781 42.3968 Q922.781 29.92 919.58 23.7221 Q916.421 17.4837 910.061 17.4837 M910.061 11.0023 Q920.229 11.0023 925.576 19.0636 Q930.964 27.0843 930.964 42.3968 Q930.964 57.6687 925.576 65.73 Q920.229 73.7508 910.061 73.7508 Q899.893 73.7508 894.505 65.73 Q889.158 57.6687 889.158 42.3968 Q889.158 27.0843 894.505 19.0636 Q899.893 11.0023 910.061 11.0023 Z" fill="#000000" fill-rule="evenodd" fill-opacity="1" /><path clip-path="url(#clip950)" d="M 0 0 M937.607 9.62495 L944.088 9.62495 Q950.165 19.1851 953.162 28.3401 Q956.201 37.4952 956.201 46.5287 Q956.201 55.6027 953.162 64.7983 Q950.165 73.9938 944.088 83.5134 L937.607 83.5134 Q942.995 74.2369 945.628 65.0818 Q948.301 55.8863 948.301 46.5287 Q948.301 37.1711 945.628 28.0566 Q942.995 18.942 937.607 9.62495 Z" fill="#000000" fill-rule="evenodd" fill-opacity="1" /><path clip-path="url(#clip950)" d="M 0 0 M1026.97 14.0809 L1026.97 22.0612 Q1022.31 19.8332 1018.18 18.7395 Q1014.05 17.6457 1010.2 17.6457 Q1003.52 17.6457 999.869 20.2383 Q996.264 22.8309 996.264 27.611 Q996.264 31.6214 998.654 33.6873 Q1001.08 35.7128 1007.81 36.9686 L1012.75 37.9813 Q1021.91 39.7232 1026.24 44.1387 Q1030.62 48.5136 1030.62 55.8863 Q1030.62 64.6767 1024.7 69.2137 Q1018.83 73.7508 1007.44 73.7508 Q1003.15 73.7508 998.29 72.7785 Q993.469 71.8063 988.284 69.9024 L988.284 61.4765 Q993.266 64.2716 998.047 65.6895 Q1002.83 67.1073 1007.44 67.1073 Q1014.45 67.1073 1018.26 64.3527 Q1022.07 61.598 1022.07 56.4939 Q1022.07 52.0379 1019.31 49.5264 Q1016.6 47.0148 1010.36 45.759 L1005.38 44.7868 Q996.224 42.9639 992.132 39.075 Q988.041 35.1862 988.041 28.2591 Q988.041 20.2383 993.672 15.6203 Q999.343 11.0023 1009.27 11.0023 Q1013.52 11.0023 1017.94 11.7719 Q1022.35 12.5416 1026.97 14.0809 Z" fill="#000000" fill-rule="evenodd" fill-opacity="1" /><path clip-path="url(#clip950)" d="M 0 0 M1045.81 14.324 L1045.81 27.2059 L1061.16 27.2059 L1061.16 32.9987 L1045.81 32.9987 L1045.81 57.6282 Q1045.81 63.1779 1047.31 64.7578 Q1048.84 66.3376 1053.5 66.3376 L1061.16 66.3376 L1061.16 72.576 L1053.5 72.576 Q1044.87 72.576 1041.59 69.3758 Q1038.31 66.1351 1038.31 57.6282 L1038.31 32.9987 L1032.84 32.9987 L1032.84 27.2059 L1038.31 27.2059 L1038.31 14.324 L1045.81 14.324 Z" fill="#000000" fill-rule="evenodd" fill-opacity="1" /><path clip-path="url(#clip950)" d="M 0 0 M1107.79 48.0275 L1107.79 51.6733 L1073.51 51.6733 Q1074 59.3701 1078.13 63.421 Q1082.31 67.4314 1089.72 67.4314 Q1094.01 67.4314 1098.02 66.3781 Q1102.07 65.3249 1106.04 63.2184 L1106.04 70.267 Q1102.03 71.9684 1097.82 72.8596 Q1093.61 73.7508 1089.27 73.7508 Q1078.42 73.7508 1072.06 67.4314 Q1065.74 61.1119 1065.74 50.3365 Q1065.74 39.1965 1071.73 32.6746 Q1077.77 26.1121 1087.98 26.1121 Q1097.13 26.1121 1102.44 32.0264 Q1107.79 37.9003 1107.79 48.0275 M1100.33 45.84 Q1100.25 39.7232 1096.89 36.0774 Q1093.57 32.4315 1088.06 32.4315 Q1081.82 32.4315 1078.05 35.9558 Q1074.33 39.4801 1073.76 45.8805 L1100.33 45.84 Z" fill="#000000" fill-rule="evenodd" fill-opacity="1" /><path clip-path="url(#clip950)" d="M 0 0 M1141.89 34.1734 Q1140.64 33.4443 1139.14 33.1202 Q1137.68 32.7556 1135.9 32.7556 Q1129.58 32.7556 1126.18 36.8875 Q1122.81 40.9789 1122.81 48.6757 L1122.81 72.576 L1115.32 72.576 L1115.32 27.2059 L1122.81 27.2059 L1122.81 34.2544 Q1125.16 30.1225 1128.93 28.1376 Q1132.7 26.1121 1138.09 26.1121 Q1138.86 26.1121 1139.79 26.2337 Q1140.72 26.3147 1141.85 26.5172 L1141.89 34.1734 Z" fill="#000000" fill-rule="evenodd" fill-opacity="1" /><path clip-path="url(#clip950)" d="M 0 0 M1182.28 49.9314 Q1182.28 41.7081 1178.88 37.0496 Q1175.52 32.3505 1169.6 32.3505 Q1163.69 32.3505 1160.29 37.0496 Q1156.92 41.7081 1156.92 49.9314 Q1156.92 58.1548 1160.29 62.8538 Q1163.69 67.5124 1169.6 67.5124 Q1175.52 67.5124 1178.88 62.8538 Q1182.28 58.1548 1182.28 49.9314 M1156.92 34.0924 Q1159.27 30.0415 1162.84 28.0971 Q1166.44 26.1121 1171.43 26.1121 Q1179.69 26.1121 1184.83 32.6746 Q1190.02 39.2371 1190.02 49.9314 Q1190.02 60.6258 1184.83 67.1883 Q1179.69 73.7508 1171.43 73.7508 Q1166.44 73.7508 1162.84 71.8063 Q1159.27 69.8214 1156.92 65.7705 L1156.92 72.576 L1149.43 72.576 L1149.43 9.54393 L1156.92 9.54393 L1156.92 34.0924 Z" fill="#000000" fill-rule="evenodd" fill-opacity="1" /><path clip-path="url(#clip950)" d="M 0 0 M1236.64 48.0275 L1236.64 51.6733 L1202.37 51.6733 Q1202.86 59.3701 1206.99 63.421 Q1211.16 67.4314 1218.58 67.4314 Q1222.87 67.4314 1226.88 66.3781 Q1230.93 65.3249 1234.9 63.2184 L1234.9 70.267 Q1230.89 71.9684 1226.68 72.8596 Q1222.47 73.7508 1218.13 73.7508 Q1207.28 73.7508 1200.92 67.4314 Q1194.6 61.1119 1194.6 50.3365 Q1194.6 39.1965 1200.59 32.6746 Q1206.63 26.1121 1216.84 26.1121 Q1225.99 26.1121 1231.3 32.0264 Q1236.64 37.9003 1236.64 48.0275 M1229.19 45.84 Q1229.11 39.7232 1225.75 36.0774 Q1222.43 32.4315 1216.92 32.4315 Q1210.68 32.4315 1206.91 35.9558 Q1203.18 39.4801 1202.62 45.8805 L1229.19 45.84 Z" fill="#000000" fill-rule="evenodd" fill-opacity="1" /><path clip-path="url(#clip950)" d="M 0 0 M1267.43 9.54393 L1267.43 15.7418 L1260.3 15.7418 Q1256.29 15.7418 1254.71 17.3622 Q1253.17 18.9825 1253.17 23.1955 L1253.17 27.2059 L1265.45 27.2059 L1265.45 32.9987 L1253.17 32.9987 L1253.17 72.576 L1245.68 72.576 L1245.68 32.9987 L1238.55 32.9987 L1238.55 27.2059 L1245.68 27.2059 L1245.68 24.0462 Q1245.68 16.471 1249.2 13.0277 Q1252.73 9.54393 1260.38 9.54393 L1267.43 9.54393 Z" fill="#000000" fill-rule="evenodd" fill-opacity="1" /><path clip-path="url(#clip950)" d="M 0 0 M1295.87 49.7694 Q1286.84 49.7694 1283.35 51.8354 Q1279.87 53.9013 1279.87 58.8839 Q1279.87 62.8538 1282.46 65.2034 Q1285.09 67.5124 1289.59 67.5124 Q1295.79 67.5124 1299.51 63.1374 Q1303.28 58.7219 1303.28 51.4303 L1303.28 49.7694 L1295.87 49.7694 M1310.74 46.6907 L1310.74 72.576 L1303.28 72.576 L1303.28 65.6895 Q1300.73 69.8214 1296.92 71.8063 Q1293.11 73.7508 1287.61 73.7508 Q1280.64 73.7508 1276.51 69.8619 Q1272.41 65.9325 1272.41 59.3701 Q1272.41 51.7138 1277.52 47.825 Q1282.66 43.9361 1292.83 43.9361 L1303.28 43.9361 L1303.28 43.2069 Q1303.28 38.0623 1299.88 35.2672 Q1296.52 32.4315 1290.4 32.4315 Q1286.51 32.4315 1282.83 33.3632 Q1279.14 34.295 1275.74 36.1584 L1275.74 29.2718 Q1279.83 27.692 1283.68 26.9223 Q1287.52 26.1121 1291.17 26.1121 Q1301.01 26.1121 1305.87 31.2163 Q1310.74 36.3204 1310.74 46.6907 Z" fill="#000000" fill-rule="evenodd" fill-opacity="1" /><path clip-path="url(#clip950)" d="M 0 0 M1318.55 9.54393 L1326.01 9.54393 L1326.01 72.576 L1318.55 72.576 L1318.55 9.54393 Z" fill="#000000" fill-rule="evenodd" fill-opacity="1" /><path clip-path="url(#clip950)" d="M 0 0 M1333.83 9.54393 L1341.28 9.54393 L1341.28 72.576 L1333.83 72.576 L1333.83 9.54393 Z" fill="#000000" fill-rule="evenodd" fill-opacity="1" /><path clip-path="url(#clip950)" d="M 0 0 M1345.86 27.2059 L1381.26 27.2059 L1381.26 34.0114 L1353.23 66.6212 L1381.26 66.6212 L1381.26 72.576 L1344.84 72.576 L1344.84 65.7705 L1372.88 33.1607 L1345.86 33.1607 L1345.86 27.2059 Z" fill="#000000" fill-rule="evenodd" fill-opacity="1" /><path clip-path="url(#clip950)" d="M 0 0 M1409.7 49.7694 Q1400.67 49.7694 1397.18 51.8354 Q1393.7 53.9013 1393.7 58.8839 Q1393.7 62.8538 1396.29 65.2034 Q1398.92 67.5124 1403.42 67.5124 Q1409.62 67.5124 1413.35 63.1374 Q1417.11 58.7219 1417.11 51.4303 L1417.11 49.7694 L1409.7 49.7694 M1424.57 46.6907 L1424.57 72.576 L1417.11 72.576 L1417.11 65.6895 Q1414.56 69.8214 1410.75 71.8063 Q1406.94 73.7508 1401.44 73.7508 Q1394.47 73.7508 1390.34 69.8619 Q1386.24 65.9325 1386.24 59.3701 Q1386.24 51.7138 1391.35 47.825 Q1396.49 43.9361 1406.66 43.9361 L1417.11 43.9361 L1417.11 43.2069 Q1417.11 38.0623 1413.71 35.2672 Q1410.35 32.4315 1404.23 32.4315 Q1400.34 32.4315 1396.66 33.3632 Q1392.97 34.295 1389.57 36.1584 L1389.57 29.2718 Q1393.66 27.692 1397.51 26.9223 Q1401.35 26.1121 1405 26.1121 Q1414.84 26.1121 1419.71 31.2163 Q1424.57 36.3204 1424.57 46.6907 Z" fill="#000000" fill-rule="evenodd" fill-opacity="1" /><path clip-path="url(#clip950)" d="M 0 0 M1470.1 45.1919 L1470.1 72.576 L1462.64 72.576 L1462.64 45.4349 Q1462.64 38.994 1460.13 35.7938 Q1457.62 32.5936 1452.6 32.5936 Q1446.56 32.5936 1443.08 36.4419 Q1439.6 40.2903 1439.6 46.9338 L1439.6 72.576 L1432.1 72.576 L1432.1 9.54393 L1439.6 9.54393 L1439.6 34.2544 Q1442.27 30.163 1445.87 28.1376 Q1449.52 26.1121 1454.26 26.1121 Q1462.08 26.1121 1466.09 30.9732 Q1470.1 35.7938 1470.1 45.1919 Z" fill="#000000" fill-rule="evenodd" fill-opacity="1" /><path clip-path="url(#clip950)" d="M 0 0 M1477.92 9.54393 L1485.37 9.54393 L1485.37 72.576 L1477.92 72.576 L1477.92 9.54393 Z" fill="#000000" fill-rule="evenodd" fill-opacity="1" /><path clip-path="url(#clip950)" d="M 0 0 M1532 48.0275 L1532 51.6733 L1497.73 51.6733 Q1498.21 59.3701 1502.34 63.421 Q1506.52 67.4314 1513.93 67.4314 Q1518.22 67.4314 1522.23 66.3781 Q1526.28 65.3249 1530.25 63.2184 L1530.25 70.267 Q1526.24 71.9684 1522.03 72.8596 Q1517.82 73.7508 1513.48 73.7508 Q1502.63 73.7508 1496.27 67.4314 Q1489.95 61.1119 1489.95 50.3365 Q1489.95 39.1965 1495.94 32.6746 Q1501.98 26.1121 1512.19 26.1121 Q1521.34 26.1121 1526.65 32.0264 Q1532 37.9003 1532 48.0275 M1524.54 45.84 Q1524.46 39.7232 1521.1 36.0774 Q1517.78 32.4315 1512.27 32.4315 Q1506.03 32.4315 1502.26 35.9558 Q1498.54 39.4801 1497.97 45.8805 L1524.54 45.84 Z" fill="#000000" fill-rule="evenodd" fill-opacity="1" /><path clip-path="url(#clip950)" d="M 0 0 M1577.53 45.1919 L1577.53 72.576 L1570.07 72.576 L1570.07 45.4349 Q1570.07 38.994 1567.56 35.7938 Q1565.05 32.5936 1560.03 32.5936 Q1553.99 32.5936 1550.51 36.4419 Q1547.03 40.2903 1547.03 46.9338 L1547.03 72.576 L1539.53 72.576 L1539.53 27.2059 L1547.03 27.2059 L1547.03 34.2544 Q1549.7 30.163 1553.3 28.1376 Q1556.95 26.1121 1561.69 26.1121 Q1569.51 26.1121 1573.52 30.9732 Q1577.53 35.7938 1577.53 45.1919 Z" fill="#000000" fill-rule="evenodd" fill-opacity="1" /><path clip-path="url(#clip950)" d="M 0 0 M1611.72 27.2059 L1619.17 27.2059 L1619.17 72.576 L1611.72 72.576 L1611.72 27.2059 M1611.72 9.54393 L1619.17 9.54393 L1619.17 18.9825 L1611.72 18.9825 L1611.72 9.54393 Z" fill="#000000" fill-rule="evenodd" fill-opacity="1" /><path clip-path="url(#clip950)" d="M 0 0 M1664.7 45.1919 L1664.7 72.576 L1657.25 72.576 L1657.25 45.4349 Q1657.25 38.994 1654.74 35.7938 Q1652.23 32.5936 1647.2 32.5936 Q1641.17 32.5936 1637.68 36.4419 Q1634.2 40.2903 1634.2 46.9338 L1634.2 72.576 L1626.71 72.576 L1626.71 27.2059 L1634.2 27.2059 L1634.2 34.2544 Q1636.87 30.163 1640.48 28.1376 Q1644.13 26.1121 1648.86 26.1121 Q1656.68 26.1121 1660.69 30.9732 Q1664.7 35.7938 1664.7 45.1919 Z" fill="#000000" fill-rule="evenodd" fill-opacity="1" /><path clip-path="url(#clip950)" d="M 0 0 M1707.4 18.8205 L1707.4 65.8515 L1717.28 65.8515 Q1729.8 65.8515 1735.59 60.1802 Q1741.43 54.509 1741.43 42.2752 Q1741.43 30.1225 1735.59 24.4918 Q1729.8 18.8205 1717.28 18.8205 L1707.4 18.8205 M1699.22 12.096 L1716.03 12.096 Q1733.61 12.096 1741.83 19.4281 Q1750.06 26.7198 1750.06 42.2752 Q1750.06 57.9117 1741.79 65.2439 Q1733.53 72.576 1716.03 72.576 L1699.22 72.576 L1699.22 12.096 Z" fill="#000000" fill-rule="evenodd" fill-opacity="1" /><path clip-path="url(#clip950)" d="M 0 0 M1796.68 48.0275 L1796.68 51.6733 L1762.41 51.6733 Q1762.9 59.3701 1767.03 63.421 Q1771.2 67.4314 1778.62 67.4314 Q1782.91 67.4314 1786.92 66.3781 Q1790.97 65.3249 1794.94 63.2184 L1794.94 70.267 Q1790.93 71.9684 1786.72 72.8596 Q1782.5 73.7508 1778.17 73.7508 Q1767.31 73.7508 1760.95 67.4314 Q1754.63 61.1119 1754.63 50.3365 Q1754.63 39.1965 1760.63 32.6746 Q1766.67 26.1121 1776.87 26.1121 Q1786.03 26.1121 1791.34 32.0264 Q1796.68 37.9003 1796.68 48.0275 M1789.23 45.84 Q1789.15 39.7232 1785.79 36.0774 Q1782.46 32.4315 1776.95 32.4315 Q1770.72 32.4315 1766.95 35.9558 Q1763.22 39.4801 1762.65 45.8805 L1789.23 45.84 Z" fill="#000000" fill-rule="evenodd" fill-opacity="1" /><path clip-path="url(#clip950)" d="M 0 0 M1803.73 54.671 L1803.73 27.2059 L1811.18 27.2059 L1811.18 54.3874 Q1811.18 60.8284 1813.7 64.0691 Q1816.21 67.2693 1821.23 67.2693 Q1827.27 67.2693 1830.75 63.421 Q1834.27 59.5726 1834.27 52.9291 L1834.27 27.2059 L1841.73 27.2059 L1841.73 72.576 L1834.27 72.576 L1834.27 65.6084 Q1831.56 69.7404 1827.96 71.7658 Q1824.39 73.7508 1819.65 73.7508 Q1811.83 73.7508 1807.78 68.8897 Q1803.73 64.0286 1803.73 54.671 M1822.49 26.1121 L1822.49 26.1121 Z" fill="#000000" fill-rule="evenodd" fill-opacity="1" /><path clip-path="url(#clip950)" d="M 0 0 M1856.92 14.324 L1856.92 27.2059 L1872.27 27.2059 L1872.27 32.9987 L1856.92 32.9987 L1856.92 57.6282 Q1856.92 63.1779 1858.42 64.7578 Q1859.96 66.3376 1864.62 66.3376 L1872.27 66.3376 L1872.27 72.576 L1864.62 72.576 Q1855.99 72.576 1852.71 69.3758 Q1849.43 66.1351 1849.43 57.6282 L1849.43 32.9987 L1843.96 32.9987 L1843.96 27.2059 L1849.43 27.2059 L1849.43 14.324 L1856.92 14.324 Z" fill="#000000" fill-rule="evenodd" fill-opacity="1" /><path clip-path="url(#clip950)" d="M 0 0 M1909.01 28.5427 L1909.01 35.5912 Q1905.85 33.9709 1902.45 33.1607 Q1899.05 32.3505 1895.4 32.3505 Q1889.85 32.3505 1887.06 34.0519 Q1884.3 35.7533 1884.3 39.156 Q1884.3 41.7486 1886.29 43.2475 Q1888.27 44.7058 1894.27 46.0426 L1896.82 46.6097 Q1904.76 48.3111 1908.08 51.4303 Q1911.44 54.509 1911.44 60.0587 Q1911.44 66.3781 1906.42 70.0644 Q1901.44 73.7508 1892.69 73.7508 Q1889.04 73.7508 1885.07 73.0216 Q1881.14 72.3329 1876.77 70.9151 L1876.77 63.2184 Q1880.9 65.3654 1884.91 66.4591 Q1888.92 67.5124 1892.85 67.5124 Q1898.12 67.5124 1900.95 65.73 Q1903.79 63.9071 1903.79 60.6258 Q1903.79 57.5877 1901.72 55.9673 Q1899.7 54.3469 1892.77 52.8481 L1890.18 52.2405 Q1883.25 50.7821 1880.17 47.7845 Q1877.09 44.7463 1877.09 39.4801 Q1877.09 33.0797 1881.63 29.5959 Q1886.17 26.1121 1894.51 26.1121 Q1898.64 26.1121 1902.29 26.7198 Q1905.94 27.3274 1909.01 28.5427 Z" fill="#000000" fill-rule="evenodd" fill-opacity="1" /><path clip-path="url(#clip950)" d="M 0 0 M1951.91 28.9478 L1951.91 35.9153 Q1948.75 34.1734 1945.55 33.3227 Q1942.39 32.4315 1939.15 32.4315 Q1931.9 32.4315 1927.89 37.0496 Q1923.88 41.6271 1923.88 49.9314 Q1923.88 58.2358 1927.89 62.8538 Q1931.9 67.4314 1939.15 67.4314 Q1942.39 67.4314 1945.55 66.5807 Q1948.75 65.6895 1951.91 63.9476 L1951.91 70.8341 Q1948.79 72.2924 1945.43 73.0216 Q1942.11 73.7508 1938.34 73.7508 Q1928.09 73.7508 1922.06 67.3098 Q1916.02 60.8689 1916.02 49.9314 Q1916.02 38.832 1922.1 32.472 Q1928.22 26.1121 1938.83 26.1121 Q1942.27 26.1121 1945.55 26.8413 Q1948.83 27.5299 1951.91 28.9478 Z" fill="#000000" fill-rule="evenodd" fill-opacity="1" /><path clip-path="url(#clip950)" d="M 0 0 M1997.45 45.1919 L1997.45 72.576 L1989.99 72.576 L1989.99 45.4349 Q1989.99 38.994 1987.48 35.7938 Q1984.97 32.5936 1979.95 32.5936 Q1973.91 32.5936 1970.43 36.4419 Q1966.94 40.2903 1966.94 46.9338 L1966.94 72.576 L1959.45 72.576 L1959.45 9.54393 L1966.94 9.54393 L1966.94 34.2544 Q1969.62 30.163 1973.22 28.1376 Q1976.87 26.1121 1981.61 26.1121 Q1989.42 26.1121 1993.43 30.9732 Q1997.45 35.7938 1997.45 45.1919 Z" fill="#000000" fill-rule="evenodd" fill-opacity="1" /><path clip-path="url(#clip950)" d="M 0 0 M2005.26 9.54393 L2012.72 9.54393 L2012.72 72.576 L2005.26 72.576 L2005.26 9.54393 Z" fill="#000000" fill-rule="evenodd" fill-opacity="1" /><path clip-path="url(#clip950)" d="M 0 0 M2041.15 49.7694 Q2032.12 49.7694 2028.64 51.8354 Q2025.15 53.9013 2025.15 58.8839 Q2025.15 62.8538 2027.75 65.2034 Q2030.38 67.5124 2034.88 67.5124 Q2041.07 67.5124 2044.8 63.1374 Q2048.57 58.7219 2048.57 51.4303 L2048.57 49.7694 L2041.15 49.7694 M2056.02 46.6907 L2056.02 72.576 L2048.57 72.576 L2048.57 65.6895 Q2046.02 69.8214 2042.21 71.8063 Q2038.4 73.7508 2032.89 73.7508 Q2025.92 73.7508 2021.79 69.8619 Q2017.7 65.9325 2017.7 59.3701 Q2017.7 51.7138 2022.8 47.825 Q2027.95 43.9361 2038.12 43.9361 L2048.57 43.9361 L2048.57 43.2069 Q2048.57 38.0623 2045.16 35.2672 Q2041.8 32.4315 2035.69 32.4315 Q2031.8 32.4315 2028.11 33.3632 Q2024.42 34.295 2021.02 36.1584 L2021.02 29.2718 Q2025.11 27.692 2028.96 26.9223 Q2032.81 26.1121 2036.46 26.1121 Q2046.3 26.1121 2051.16 31.2163 Q2056.02 36.3204 2056.02 46.6907 Z" fill="#000000" fill-rule="evenodd" fill-opacity="1" /><path clip-path="url(#clip950)" d="M 0 0 M2101.55 45.1919 L2101.55 72.576 L2094.1 72.576 L2094.1 45.4349 Q2094.1 38.994 2091.59 35.7938 Q2089.08 32.5936 2084.05 32.5936 Q2078.02 32.5936 2074.53 36.4419 Q2071.05 40.2903 2071.05 46.9338 L2071.05 72.576 L2063.56 72.576 L2063.56 27.2059 L2071.05 27.2059 L2071.05 34.2544 Q2073.72 30.163 2077.33 28.1376 Q2080.97 26.1121 2085.71 26.1121 Q2093.53 26.1121 2097.54 30.9732 Q2101.55 35.7938 2101.55 45.1919 Z" fill="#000000" fill-rule="evenodd" fill-opacity="1" /><path clip-path="url(#clip950)" d="M 0 0 M2139.23 34.0924 L2139.23 9.54393 L2146.68 9.54393 L2146.68 72.576 L2139.23 72.576 L2139.23 65.7705 Q2136.88 69.8214 2133.27 71.8063 Q2129.71 73.7508 2124.68 73.7508 Q2116.46 73.7508 2111.28 67.1883 Q2106.13 60.6258 2106.13 49.9314 Q2106.13 39.2371 2111.28 32.6746 Q2116.46 26.1121 2124.68 26.1121 Q2129.71 26.1121 2133.27 28.0971 Q2136.88 30.0415 2139.23 34.0924 M2113.83 49.9314 Q2113.83 58.1548 2117.19 62.8538 Q2120.59 67.5124 2126.51 67.5124 Q2132.42 67.5124 2135.82 62.8538 Q2139.23 58.1548 2139.23 49.9314 Q2139.23 41.7081 2135.82 37.0496 Q2132.42 32.3505 2126.51 32.3505 Q2120.59 32.3505 2117.19 37.0496 Q2113.83 41.7081 2113.83 49.9314 Z" fill="#000000" fill-rule="evenodd" fill-opacity="1" /><polyline clip-path="url(#clip952)" style="stroke:#006298; stroke-width:12; stroke-opacity:1; fill:none" points="
  86.9921,646.824 131.419,647.162 175.846,637.737 220.272,635.929 264.699,645.407 309.126,643.561 353.553,644.802 397.979,646.609 442.406,625.732 486.833,627.192 
  531.26,623.421 575.686,631.257 620.113,640.975 664.54,657.345 708.966,682.356 753.393,726.363 797.82,712.22 842.247,719.983 886.673,686.078 931.1,733.858 
  975.527,748.118 1019.95,745.891 1064.38,771.866 1108.81,775.56 1153.23,719.361 1197.66,776.139 1242.09,752.952 1286.51,753.574 1330.94,716.803 1375.37,754.376 
  1419.79,788.47 1464.22,785.115 1508.65,748.122 1553.07,708.1 1597.5,758.648 1641.93,756.576 1686.35,744.906 1730.78,780.875 1775.21,746.091 1819.64,745.13 
  1864.06,696.273 1908.49,685.537 1952.92,684.5 1997.34,686.98 2041.77,677.876 2086.2,640.774 2130.62,671.921 2175.05,659.71 2219.48,629.799 2263.9,627.076 
  2308.33,602.678 2352.76,585.54 
  "/>
<polyline clip-path="url(#clip952)" style="stroke:#a02438; stroke-width:12; stroke-opacity:1; fill:none" points="
  86.9921,552.715 131.419,498.68 175.846,537.485 220.272,498.217 264.699,427.349 309.126,467.5 353.553,470.957 397.979,490.235 442.406,550.301 486.833,634.584 
  531.26,655.698 575.686,701.035 620.113,697.284 664.54,729.681 708.966,734.509 753.393,748.343 797.82,701.329 842.247,725.676 886.673,713.727 931.1,727.426 
  975.527,755.776 1019.95,734.944 1064.38,783.641 1108.81,772.582 1153.23,738.956 1197.66,773.454 1242.09,756.675 1286.51,794.381 1330.94,749.284 1375.37,774.064 
  1419.79,752.945 1464.22,787.347 1508.65,770.542 1553.07,780.91 1597.5,773.554 1641.93,788.803 1686.35,770.549 1730.78,753.328 1775.21,742.614 1819.64,745.392 
  1864.06,708.16 1908.49,723.952 1952.92,727.829 1997.34,740.61 2041.77,713.684 2086.2,702.293 2130.62,698.365 2175.05,689.868 2219.48,671.649 2263.9,660.944 
  2308.33,661.015 2352.76,655.744 
  "/>
<polyline clip-path="url(#clip952)" style="stroke:#449adc; stroke-width:12; stroke-opacity:1; fill:none" points="
  86.9921,636.687 131.419,661.666 175.846,643.864 220.272,645.579 264.699,627.593 309.126,603.642 353.553,550.682 397.979,475.712 442.406,357.109 486.833,301.442 
  531.26,408.738 575.686,481.589 620.113,566.129 664.54,605.727 708.966,644.84 753.393,697.852 797.82,738.677 842.247,752.274 886.673,732.165 931.1,764.59 
  975.527,763.536 1019.95,739.307 1064.38,756.331 1108.81,806.501 1153.23,795.555 1197.66,761.968 1242.09,759.279 1286.51,784.285 1330.94,756.124 1375.37,681.157 
  1419.79,590.779 1464.22,675.992 1508.65,747.61 1553.07,760.042 1597.5,786.927 1641.93,769.231 1686.35,773.855 1730.78,758.537 1775.21,788.663 1819.64,759.455 
  1864.06,743.43 1908.49,763.089 1952.92,759.034 1997.34,746.88 2041.77,714.698 2086.2,749.495 2130.62,707.361 2175.05,692.031 2219.48,680.642 2263.9,698.995 
  2308.33,653.435 2352.76,698.668 
  "/>
<polyline clip-path="url(#clip952)" style="stroke:#002b52; stroke-width:12; stroke-opacity:1; fill:none" points="
  86.9921,677.991 131.419,656.783 175.846,656.805 220.272,640.84 264.699,628.914 309.126,620.42 353.553,613.891 397.979,604.398 442.406,584.468 486.833,600.068 
  531.26,628.621 575.686,663.004 620.113,683.472 664.54,678.442 708.966,714.572 753.393,704.718 797.82,711.952 842.247,748.144 886.673,747.157 931.1,738.257 
  975.527,750.068 1019.95,757.007 1064.38,731.656 1108.81,774.928 1153.23,768.897 1197.66,712.925 1242.09,773.193 1286.51,782.6 1330.94,759.936 1375.37,637.601 
  1419.79,751.013 1464.22,773.472 1508.65,801.579 1553.07,785.366 1597.5,725.349 1641.93,797.873 1686.35,783.059 1730.78,775.061 1775.21,735.023 1819.64,758.368 
  1864.06,722.619 1908.49,720.995 1952.92,738.31 1997.34,731.183 2041.77,715.238 2086.2,697.853 2130.62,684.318 2175.05,682.504 2219.48,658.03 2263.9,659.034 
  2308.33,662.764 2352.76,699.52 
  "/>
<polyline clip-path="url(#clip952)" style="stroke:#ec4a60; stroke-width:12; stroke-opacity:1; fill:none" points="
  86.9921,688.379 131.419,666.053 175.846,676.517 220.272,686.816 264.699,651.871 309.126,684.064 353.553,658.348 397.979,688.752 442.406,664.092 486.833,658.881 
  531.26,647.518 575.686,652.24 620.113,655.431 664.54,613.816 708.966,620.359 753.393,672.902 797.82,704.923 842.247,731.683 886.673,744.175 931.1,771.78 
  975.527,766.766 1019.95,781.906 1064.38,760.416 1108.81,790.547 1153.23,798.07 1197.66,759.774 1242.09,794.202 1286.51,809.294 1330.94,791.568 1375.37,776.783 
  1419.79,755.598 1464.22,751.837 1508.65,657.721 1553.07,750.188 1597.5,789.504 1641.93,784.457 1686.35,768.881 1730.78,748.668 1775.21,756.458 1819.64,748.146 
  1864.06,754.801 1908.49,742.115 1952.92,707.479 1997.34,709.3 2041.77,687.585 2086.2,660.945 2130.62,640.883 2175.05,595.872 2219.48,540.758 2263.9,486.138 
  2308.33,459.679 2352.76,438.414 
  "/>
<path clip-path="url(#clip950)" d="
M1923.56 1457.18 L2277.23 1457.18 L2277.23 1094.3 L1923.56 1094.3  Z
  " fill="#ffffff" fill-rule="evenodd" fill-opacity="1"/>
<polyline clip-path="url(#clip950)" style="stroke:#000000; stroke-width:4; stroke-opacity:1; fill:none" points="
  1923.56,1457.18 2277.23,1457.18 2277.23,1094.3 1923.56,1094.3 1923.56,1457.18 
  "/>
<polyline clip-path="url(#clip950)" style="stroke:#006298; stroke-width:4; stroke-opacity:1; fill:none" points="
  1948.73,1154.78 2099.78,1154.78 
  "/>
<path clip-path="url(#clip950)" d="M 0 0 M2130.58 1168.13 L2146.9 1168.13 L2146.9 1172.06 L2124.96 1172.06 L2124.96 1168.13 Q2127.62 1165.37 2132.2 1160.74 Q2136.81 1156.09 2137.99 1154.75 Q2140.24 1152.23 2141.12 1150.49 Q2142.02 1148.73 2142.02 1147.04 Q2142.02 1144.29 2140.08 1142.55 Q2138.15 1140.81 2135.05 1140.81 Q2132.85 1140.81 2130.4 1141.58 Q2127.97 1142.34 2125.19 1143.89 L2125.19 1139.17 Q2128.01 1138.04 2130.47 1137.46 Q2132.92 1136.88 2134.96 1136.88 Q2140.33 1136.88 2143.52 1139.56 Q2146.72 1142.25 2146.72 1146.74 Q2146.72 1148.87 2145.91 1150.79 Q2145.12 1152.69 2143.01 1155.28 Q2142.44 1155.95 2139.33 1159.17 Q2136.23 1162.37 2130.58 1168.13 Z" fill="#000000" fill-rule="evenodd" fill-opacity="1" /><path clip-path="url(#clip950)" d="M 0 0 M2161.97 1140.58 Q2158.36 1140.58 2156.53 1144.15 Q2154.73 1147.69 2154.73 1154.82 Q2154.73 1161.93 2156.53 1165.49 Q2158.36 1169.03 2161.97 1169.03 Q2165.61 1169.03 2167.41 1165.49 Q2169.24 1161.93 2169.24 1154.82 Q2169.24 1147.69 2167.41 1144.15 Q2165.61 1140.58 2161.97 1140.58 M2161.97 1136.88 Q2167.78 1136.88 2170.84 1141.49 Q2173.92 1146.07 2173.92 1154.82 Q2173.92 1163.55 2170.84 1168.15 Q2167.78 1172.74 2161.97 1172.74 Q2156.16 1172.74 2153.08 1168.15 Q2150.03 1163.55 2150.03 1154.82 Q2150.03 1146.07 2153.08 1141.49 Q2156.16 1136.88 2161.97 1136.88 Z" fill="#000000" fill-rule="evenodd" fill-opacity="1" /><path clip-path="url(#clip950)" d="M 0 0 M2179.8 1168.13 L2187.44 1168.13 L2187.44 1141.76 L2179.13 1143.43 L2179.13 1139.17 L2187.39 1137.5 L2192.07 1137.5 L2192.07 1168.13 L2199.7 1168.13 L2199.7 1172.06 L2179.8 1172.06 L2179.8 1168.13 Z" fill="#000000" fill-rule="evenodd" fill-opacity="1" /><path clip-path="url(#clip950)" d="M 0 0 M2215.35 1152.92 Q2212.2 1152.92 2210.35 1155.07 Q2208.52 1157.23 2208.52 1160.98 Q2208.52 1164.7 2210.35 1166.88 Q2212.2 1169.03 2215.35 1169.03 Q2218.5 1169.03 2220.33 1166.88 Q2222.18 1164.7 2222.18 1160.98 Q2222.18 1157.23 2220.33 1155.07 Q2218.5 1152.92 2215.35 1152.92 M2224.63 1138.27 L2224.63 1142.53 Q2222.88 1141.69 2221.07 1141.25 Q2219.29 1140.81 2217.53 1140.81 Q2212.9 1140.81 2210.45 1143.94 Q2208.01 1147.06 2207.67 1153.38 Q2209.03 1151.37 2211.09 1150.31 Q2213.15 1149.22 2215.63 1149.22 Q2220.84 1149.22 2223.85 1152.39 Q2226.88 1155.54 2226.88 1160.98 Q2226.88 1166.3 2223.73 1169.52 Q2220.58 1172.74 2215.35 1172.74 Q2209.36 1172.74 2206.19 1168.15 Q2203.01 1163.55 2203.01 1154.82 Q2203.01 1146.62 2206.9 1141.76 Q2210.79 1136.88 2217.34 1136.88 Q2219.1 1136.88 2220.88 1137.23 Q2222.69 1137.57 2224.63 1138.27 Z" fill="#000000" fill-rule="evenodd" fill-opacity="1" /><polyline clip-path="url(#clip950)" style="stroke:#a02438; stroke-width:4; stroke-opacity:1; fill:none" points="
  1948.73,1215.26 2099.78,1215.26 
  "/>
<path clip-path="url(#clip950)" d="M 0 0 M2130.58 1228.61 L2146.9 1228.61 L2146.9 1232.54 L2124.96 1232.54 L2124.96 1228.61 Q2127.62 1225.85 2132.2 1221.22 Q2136.81 1216.57 2137.99 1215.23 Q2140.24 1212.71 2141.12 1210.97 Q2142.02 1209.21 2142.02 1207.52 Q2142.02 1204.77 2140.08 1203.03 Q2138.15 1201.29 2135.05 1201.29 Q2132.85 1201.29 2130.4 1202.06 Q2127.97 1202.82 2125.19 1204.37 L2125.19 1199.65 Q2128.01 1198.52 2130.47 1197.94 Q2132.92 1197.36 2134.96 1197.36 Q2140.33 1197.36 2143.52 1200.04 Q2146.72 1202.73 2146.72 1207.22 Q2146.72 1209.35 2145.91 1211.27 Q2145.12 1213.17 2143.01 1215.76 Q2142.44 1216.43 2139.33 1219.65 Q2136.23 1222.85 2130.58 1228.61 Z" fill="#000000" fill-rule="evenodd" fill-opacity="1" /><path clip-path="url(#clip950)" d="M 0 0 M2161.97 1201.06 Q2158.36 1201.06 2156.53 1204.63 Q2154.73 1208.17 2154.73 1215.3 Q2154.73 1222.41 2156.53 1225.97 Q2158.36 1229.51 2161.97 1229.51 Q2165.61 1229.51 2167.41 1225.97 Q2169.24 1222.41 2169.24 1215.3 Q2169.24 1208.17 2167.41 1204.63 Q2165.61 1201.06 2161.97 1201.06 M2161.97 1197.36 Q2167.78 1197.36 2170.84 1201.97 Q2173.92 1206.55 2173.92 1215.3 Q2173.92 1224.03 2170.84 1228.63 Q2167.78 1233.22 2161.97 1233.22 Q2156.16 1233.22 2153.08 1228.63 Q2150.03 1224.03 2150.03 1215.3 Q2150.03 1206.55 2153.08 1201.97 Q2156.16 1197.36 2161.97 1197.36 Z" fill="#000000" fill-rule="evenodd" fill-opacity="1" /><path clip-path="url(#clip950)" d="M 0 0 M2179.8 1228.61 L2187.44 1228.61 L2187.44 1202.24 L2179.13 1203.91 L2179.13 1199.65 L2187.39 1197.98 L2192.07 1197.98 L2192.07 1228.61 L2199.7 1228.61 L2199.7 1232.54 L2179.8 1232.54 L2179.8 1228.61 Z" fill="#000000" fill-rule="evenodd" fill-opacity="1" /><path clip-path="url(#clip950)" d="M 0 0 M2203.59 1197.98 L2225.82 1197.98 L2225.82 1199.97 L2213.27 1232.54 L2208.38 1232.54 L2220.19 1201.92 L2203.59 1201.92 L2203.59 1197.98 Z" fill="#000000" fill-rule="evenodd" fill-opacity="1" /><polyline clip-path="url(#clip950)" style="stroke:#449adc; stroke-width:4; stroke-opacity:1; fill:none" points="
  1948.73,1275.74 2099.78,1275.74 
  "/>
<path clip-path="url(#clip950)" d="M 0 0 M2130.58 1289.09 L2146.9 1289.09 L2146.9 1293.02 L2124.96 1293.02 L2124.96 1289.09 Q2127.62 1286.33 2132.2 1281.7 Q2136.81 1277.05 2137.99 1275.71 Q2140.24 1273.19 2141.12 1271.45 Q2142.02 1269.69 2142.02 1268 Q2142.02 1265.25 2140.08 1263.51 Q2138.15 1261.77 2135.05 1261.77 Q2132.85 1261.77 2130.4 1262.54 Q2127.97 1263.3 2125.19 1264.85 L2125.19 1260.13 Q2128.01 1259 2130.47 1258.42 Q2132.92 1257.84 2134.96 1257.84 Q2140.33 1257.84 2143.52 1260.52 Q2146.72 1263.21 2146.72 1267.7 Q2146.72 1269.83 2145.91 1271.75 Q2145.12 1273.65 2143.01 1276.24 Q2142.44 1276.91 2139.33 1280.13 Q2136.23 1283.33 2130.58 1289.09 Z" fill="#000000" fill-rule="evenodd" fill-opacity="1" /><path clip-path="url(#clip950)" d="M 0 0 M2161.97 1261.54 Q2158.36 1261.54 2156.53 1265.11 Q2154.73 1268.65 2154.73 1275.78 Q2154.73 1282.89 2156.53 1286.45 Q2158.36 1289.99 2161.97 1289.99 Q2165.61 1289.99 2167.41 1286.45 Q2169.24 1282.89 2169.24 1275.78 Q2169.24 1268.65 2167.41 1265.11 Q2165.61 1261.54 2161.97 1261.54 M2161.97 1257.84 Q2167.78 1257.84 2170.84 1262.45 Q2173.92 1267.03 2173.92 1275.78 Q2173.92 1284.51 2170.84 1289.11 Q2167.78 1293.7 2161.97 1293.7 Q2156.16 1293.7 2153.08 1289.11 Q2150.03 1284.51 2150.03 1275.78 Q2150.03 1267.03 2153.08 1262.45 Q2156.16 1257.84 2161.97 1257.84 Z" fill="#000000" fill-rule="evenodd" fill-opacity="1" /><path clip-path="url(#clip950)" d="M 0 0 M2179.8 1289.09 L2187.44 1289.09 L2187.44 1262.72 L2179.13 1264.39 L2179.13 1260.13 L2187.39 1258.46 L2192.07 1258.46 L2192.07 1289.09 L2199.7 1289.09 L2199.7 1293.02 L2179.8 1293.02 L2179.8 1289.09 Z" fill="#000000" fill-rule="evenodd" fill-opacity="1" /><path clip-path="url(#clip950)" d="M 0 0 M2214.77 1276.61 Q2211.44 1276.61 2209.52 1278.39 Q2207.62 1280.18 2207.62 1283.3 Q2207.62 1286.43 2209.52 1288.21 Q2211.44 1289.99 2214.77 1289.99 Q2218.11 1289.99 2220.03 1288.21 Q2221.95 1286.4 2221.95 1283.3 Q2221.95 1280.18 2220.03 1278.39 Q2218.13 1276.61 2214.77 1276.61 M2210.1 1274.62 Q2207.09 1273.88 2205.4 1271.82 Q2203.73 1269.76 2203.73 1266.8 Q2203.73 1262.65 2206.67 1260.25 Q2209.63 1257.84 2214.77 1257.84 Q2219.94 1257.84 2222.88 1260.25 Q2225.82 1262.65 2225.82 1266.8 Q2225.82 1269.76 2224.13 1271.82 Q2222.46 1273.88 2219.47 1274.62 Q2222.85 1275.41 2224.73 1277.7 Q2226.63 1279.99 2226.63 1283.3 Q2226.63 1288.33 2223.55 1291.01 Q2220.49 1293.7 2214.77 1293.7 Q2209.06 1293.7 2205.98 1291.01 Q2202.92 1288.33 2202.92 1283.3 Q2202.92 1279.99 2204.82 1277.7 Q2206.72 1275.41 2210.1 1274.62 M2208.38 1267.24 Q2208.38 1269.92 2210.05 1271.43 Q2211.74 1272.93 2214.77 1272.93 Q2217.78 1272.93 2219.47 1271.43 Q2221.19 1269.92 2221.19 1267.24 Q2221.19 1264.55 2219.47 1263.05 Q2217.78 1261.54 2214.77 1261.54 Q2211.74 1261.54 2210.05 1263.05 Q2208.38 1264.55 2208.38 1267.24 Z" fill="#000000" fill-rule="evenodd" fill-opacity="1" /><polyline clip-path="url(#clip950)" style="stroke:#002b52; stroke-width:4; stroke-opacity:1; fill:none" points="
  1948.73,1336.22 2099.78,1336.22 
  "/>
<path clip-path="url(#clip950)" d="M 0 0 M2130.58 1349.57 L2146.9 1349.57 L2146.9 1353.5 L2124.96 1353.5 L2124.96 1349.57 Q2127.62 1346.81 2132.2 1342.18 Q2136.81 1337.53 2137.99 1336.19 Q2140.24 1333.67 2141.12 1331.93 Q2142.02 1330.17 2142.02 1328.48 Q2142.02 1325.73 2140.08 1323.99 Q2138.15 1322.25 2135.05 1322.25 Q2132.85 1322.25 2130.4 1323.02 Q2127.97 1323.78 2125.19 1325.33 L2125.19 1320.61 Q2128.01 1319.48 2130.47 1318.9 Q2132.92 1318.32 2134.96 1318.32 Q2140.33 1318.32 2143.52 1321 Q2146.72 1323.69 2146.72 1328.18 Q2146.72 1330.31 2145.91 1332.23 Q2145.12 1334.13 2143.01 1336.72 Q2142.44 1337.39 2139.33 1340.61 Q2136.23 1343.81 2130.58 1349.57 Z" fill="#000000" fill-rule="evenodd" fill-opacity="1" /><path clip-path="url(#clip950)" d="M 0 0 M2161.97 1322.02 Q2158.36 1322.02 2156.53 1325.59 Q2154.73 1329.13 2154.73 1336.26 Q2154.73 1343.37 2156.53 1346.93 Q2158.36 1350.47 2161.97 1350.47 Q2165.61 1350.47 2167.41 1346.93 Q2169.24 1343.37 2169.24 1336.26 Q2169.24 1329.13 2167.41 1325.59 Q2165.61 1322.02 2161.97 1322.02 M2161.97 1318.32 Q2167.78 1318.32 2170.84 1322.93 Q2173.92 1327.51 2173.92 1336.26 Q2173.92 1344.99 2170.84 1349.59 Q2167.78 1354.18 2161.97 1354.18 Q2156.16 1354.18 2153.08 1349.59 Q2150.03 1344.99 2150.03 1336.26 Q2150.03 1327.51 2153.08 1322.93 Q2156.16 1318.32 2161.97 1318.32 Z" fill="#000000" fill-rule="evenodd" fill-opacity="1" /><path clip-path="url(#clip950)" d="M 0 0 M2179.8 1349.57 L2187.44 1349.57 L2187.44 1323.2 L2179.13 1324.87 L2179.13 1320.61 L2187.39 1318.94 L2192.07 1318.94 L2192.07 1349.57 L2199.7 1349.57 L2199.7 1353.5 L2179.8 1353.5 L2179.8 1349.57 Z" fill="#000000" fill-rule="evenodd" fill-opacity="1" /><path clip-path="url(#clip950)" d="M 0 0 M2204.91 1352.79 L2204.91 1348.53 Q2206.67 1349.36 2208.48 1349.8 Q2210.28 1350.24 2212.02 1350.24 Q2216.65 1350.24 2219.08 1347.14 Q2221.53 1344.01 2221.88 1337.67 Q2220.54 1339.66 2218.48 1340.73 Q2216.42 1341.79 2213.92 1341.79 Q2208.73 1341.79 2205.7 1338.67 Q2202.69 1335.52 2202.69 1330.08 Q2202.69 1324.75 2205.84 1321.54 Q2208.99 1318.32 2214.22 1318.32 Q2220.21 1318.32 2223.36 1322.93 Q2226.53 1327.51 2226.53 1336.26 Q2226.53 1344.43 2222.64 1349.31 Q2218.78 1354.18 2212.23 1354.18 Q2210.47 1354.18 2208.66 1353.83 Q2206.86 1353.48 2204.91 1352.79 M2214.22 1338.13 Q2217.37 1338.13 2219.19 1335.98 Q2221.05 1333.83 2221.05 1330.08 Q2221.05 1326.35 2219.19 1324.2 Q2217.37 1322.02 2214.22 1322.02 Q2211.07 1322.02 2209.22 1324.2 Q2207.39 1326.35 2207.39 1330.08 Q2207.39 1333.83 2209.22 1335.98 Q2211.07 1338.13 2214.22 1338.13 Z" fill="#000000" fill-rule="evenodd" fill-opacity="1" /><polyline clip-path="url(#clip950)" style="stroke:#ec4a60; stroke-width:4; stroke-opacity:1; fill:none" points="
  1948.73,1396.7 2099.78,1396.7 
  "/>
<path clip-path="url(#clip950)" d="M 0 0 M2130.58 1410.05 L2146.9 1410.05 L2146.9 1413.98 L2124.96 1413.98 L2124.96 1410.05 Q2127.62 1407.29 2132.2 1402.66 Q2136.81 1398.01 2137.99 1396.67 Q2140.24 1394.15 2141.12 1392.41 Q2142.02 1390.65 2142.02 1388.96 Q2142.02 1386.21 2140.08 1384.47 Q2138.15 1382.73 2135.05 1382.73 Q2132.85 1382.73 2130.4 1383.5 Q2127.97 1384.26 2125.19 1385.81 L2125.19 1381.09 Q2128.01 1379.96 2130.47 1379.38 Q2132.92 1378.8 2134.96 1378.8 Q2140.33 1378.8 2143.52 1381.48 Q2146.72 1384.17 2146.72 1388.66 Q2146.72 1390.79 2145.91 1392.71 Q2145.12 1394.61 2143.01 1397.2 Q2142.44 1397.87 2139.33 1401.09 Q2136.23 1404.29 2130.58 1410.05 Z" fill="#000000" fill-rule="evenodd" fill-opacity="1" /><path clip-path="url(#clip950)" d="M 0 0 M2161.97 1382.5 Q2158.36 1382.5 2156.53 1386.07 Q2154.73 1389.61 2154.73 1396.74 Q2154.73 1403.85 2156.53 1407.41 Q2158.36 1410.95 2161.97 1410.95 Q2165.61 1410.95 2167.41 1407.41 Q2169.24 1403.85 2169.24 1396.74 Q2169.24 1389.61 2167.41 1386.07 Q2165.61 1382.5 2161.97 1382.5 M2161.97 1378.8 Q2167.78 1378.8 2170.84 1383.41 Q2173.92 1387.99 2173.92 1396.74 Q2173.92 1405.47 2170.84 1410.07 Q2167.78 1414.66 2161.97 1414.66 Q2156.16 1414.66 2153.08 1410.07 Q2150.03 1405.47 2150.03 1396.74 Q2150.03 1387.99 2153.08 1383.41 Q2156.16 1378.8 2161.97 1378.8 Z" fill="#000000" fill-rule="evenodd" fill-opacity="1" /><path clip-path="url(#clip950)" d="M 0 0 M2183.01 1410.05 L2199.33 1410.05 L2199.33 1413.98 L2177.39 1413.98 L2177.39 1410.05 Q2180.05 1407.29 2184.63 1402.66 Q2189.24 1398.01 2190.42 1396.67 Q2192.67 1394.15 2193.55 1392.41 Q2194.45 1390.65 2194.45 1388.96 Q2194.45 1386.21 2192.51 1384.47 Q2190.58 1382.73 2187.48 1382.73 Q2185.28 1382.73 2182.83 1383.5 Q2180.4 1384.26 2177.62 1385.81 L2177.62 1381.09 Q2180.45 1379.96 2182.9 1379.38 Q2185.35 1378.8 2187.39 1378.8 Q2192.76 1378.8 2195.95 1381.48 Q2199.15 1384.17 2199.15 1388.66 Q2199.15 1390.79 2198.34 1392.71 Q2197.55 1394.61 2195.45 1397.2 Q2194.87 1397.87 2191.76 1401.09 Q2188.66 1404.29 2183.01 1410.05 Z" fill="#000000" fill-rule="evenodd" fill-opacity="1" /><path clip-path="url(#clip950)" d="M 0 0 M2214.4 1382.5 Q2210.79 1382.5 2208.96 1386.07 Q2207.16 1389.61 2207.16 1396.74 Q2207.16 1403.85 2208.96 1407.41 Q2210.79 1410.95 2214.4 1410.95 Q2218.04 1410.95 2219.84 1407.41 Q2221.67 1403.85 2221.67 1396.74 Q2221.67 1389.61 2219.84 1386.07 Q2218.04 1382.5 2214.4 1382.5 M2214.4 1378.8 Q2220.21 1378.8 2223.27 1383.41 Q2226.35 1387.99 2226.35 1396.74 Q2226.35 1405.47 2223.27 1410.07 Q2220.21 1414.66 2214.4 1414.66 Q2208.59 1414.66 2205.51 1410.07 Q2202.46 1405.47 2202.46 1396.74 Q2202.46 1387.99 2205.51 1383.41 Q2208.59 1378.8 2214.4 1378.8 Z" fill="#000000" fill-rule="evenodd" fill-opacity="1" /></svg>
