<?xml version="1.0" encoding="utf-8"?>
<svg xmlns="http://www.w3.org/2000/svg" xmlns:xlink="http://www.w3.org/1999/xlink" width="600" height="400" viewBox="0 0 2400 1600">
<defs>
  <clipPath id="clip890">
    <rect x="0" y="0" width="2400" height="1600"/>
  </clipPath>
</defs>
<path clip-path="url(#clip890)" d="
M0 1600 L2400 1600 L2400 0 L0 0  Z
  " fill="#ffffff" fill-rule="evenodd" fill-opacity="1"/>
<defs>
  <clipPath id="clip891">
    <rect x="480" y="0" width="1681" height="1600"/>
  </clipPath>
</defs>
<path clip-path="url(#clip890)" d="
M271.244 1505.26 L2352.76 1505.26 L2352.76 62.9921 L271.244 62.9921  Z
  " fill="#ffffff" fill-rule="evenodd" fill-opacity="1"/>
<defs>
  <clipPath id="clip892">
    <rect x="271" y="62" width="2083" height="1443"/>
  </clipPath>
</defs>
<polyline clip-path="url(#clip892)" style="stroke:#000000; stroke-width:2; stroke-opacity:0.1; fill:none" points="
  292.392,1505.26 292.392,62.9921 
  "/>
<polyline clip-path="url(#clip892)" style="stroke:#000000; stroke-width:2; stroke-opacity:0.1; fill:none" points="
  670.024,1505.26 670.024,62.9921 
  "/>
<polyline clip-path="url(#clip892)" style="stroke:#000000; stroke-width:2; stroke-opacity:0.1; fill:none" points="
  1047.66,1505.26 1047.66,62.9921 
  "/>
<polyline clip-path="url(#clip892)" style="stroke:#000000; stroke-width:2; stroke-opacity:0.1; fill:none" points="
  1425.29,1505.26 1425.29,62.9921 
  "/>
<polyline clip-path="url(#clip892)" style="stroke:#000000; stroke-width:2; stroke-opacity:0.1; fill:none" points="
  1802.92,1505.26 1802.92,62.9921 
  "/>
<polyline clip-path="url(#clip892)" style="stroke:#000000; stroke-width:2; stroke-opacity:0.1; fill:none" points="
  2180.56,1505.26 2180.56,62.9921 
  "/>
<polyline clip-path="url(#clip890)" style="stroke:#000000; stroke-width:4; stroke-opacity:1; fill:none" points="
  271.244,1505.26 2352.76,1505.26 
  "/>
<polyline clip-path="url(#clip890)" style="stroke:#000000; stroke-width:4; stroke-opacity:1; fill:none" points="
  292.392,1505.26 292.392,1487.95 
  "/>
<polyline clip-path="url(#clip890)" style="stroke:#000000; stroke-width:4; stroke-opacity:1; fill:none" points="
  670.024,1505.26 670.024,1487.95 
  "/>
<polyline clip-path="url(#clip890)" style="stroke:#000000; stroke-width:4; stroke-opacity:1; fill:none" points="
  1047.66,1505.26 1047.66,1487.95 
  "/>
<polyline clip-path="url(#clip890)" style="stroke:#000000; stroke-width:4; stroke-opacity:1; fill:none" points="
  1425.29,1505.26 1425.29,1487.95 
  "/>
<polyline clip-path="url(#clip890)" style="stroke:#000000; stroke-width:4; stroke-opacity:1; fill:none" points="
  1802.92,1505.26 1802.92,1487.95 
  "/>
<polyline clip-path="url(#clip890)" style="stroke:#000000; stroke-width:4; stroke-opacity:1; fill:none" points="
  2180.56,1505.26 2180.56,1487.95 
  "/>
<path clip-path="url(#clip890)" d="M 0 0 M292.392 1534.45 Q288.78 1534.45 286.952 1538.02 Q285.146 1541.56 285.146 1548.69 Q285.146 1555.79 286.952 1559.36 Q288.78 1562.9 292.392 1562.9 Q296.026 1562.9 297.831 1559.36 Q299.66 1555.79 299.66 1548.69 Q299.66 1541.56 297.831 1538.02 Q296.026 1534.45 292.392 1534.45 M292.392 1530.75 Q298.202 1530.75 301.257 1535.35 Q304.336 1539.94 304.336 1548.69 Q304.336 1557.41 301.257 1562.02 Q298.202 1566.6 292.392 1566.6 Q286.581 1566.6 283.503 1562.02 Q280.447 1557.41 280.447 1548.69 Q280.447 1539.94 283.503 1535.35 Q286.581 1530.75 292.392 1530.75 Z" fill="#000000" fill-rule="evenodd" fill-opacity="1" /><path clip-path="url(#clip890)" d="M 0 0 M646.899 1562 L654.538 1562 L654.538 1535.63 L646.228 1537.3 L646.228 1533.04 L654.492 1531.37 L659.168 1531.37 L659.168 1562 L666.807 1562 L666.807 1565.93 L646.899 1565.93 L646.899 1562 Z" fill="#000000" fill-rule="evenodd" fill-opacity="1" /><path clip-path="url(#clip890)" d="M 0 0 M681.876 1534.45 Q678.265 1534.45 676.436 1538.02 Q674.631 1541.56 674.631 1548.69 Q674.631 1555.79 676.436 1559.36 Q678.265 1562.9 681.876 1562.9 Q685.51 1562.9 687.316 1559.36 Q689.145 1555.79 689.145 1548.69 Q689.145 1541.56 687.316 1538.02 Q685.51 1534.45 681.876 1534.45 M681.876 1530.75 Q687.686 1530.75 690.742 1535.35 Q693.82 1539.94 693.82 1548.69 Q693.82 1557.41 690.742 1562.02 Q687.686 1566.6 681.876 1566.6 Q676.066 1566.6 672.987 1562.02 Q669.932 1557.41 669.932 1548.69 Q669.932 1539.94 672.987 1535.35 Q676.066 1530.75 681.876 1530.75 Z" fill="#000000" fill-rule="evenodd" fill-opacity="1" /><path clip-path="url(#clip890)" d="M 0 0 M1028.8 1562 L1045.12 1562 L1045.12 1565.93 L1023.18 1565.93 L1023.18 1562 Q1025.84 1559.24 1030.42 1554.61 Q1035.03 1549.96 1036.21 1548.62 Q1038.46 1546.09 1039.34 1544.36 Q1040.24 1542.6 1040.24 1540.91 Q1040.24 1538.15 1038.29 1536.42 Q1036.37 1534.68 1033.27 1534.68 Q1031.07 1534.68 1028.62 1535.45 Q1026.19 1536.21 1023.41 1537.76 L1023.41 1533.04 Q1026.23 1531.9 1028.69 1531.33 Q1031.14 1530.75 1033.18 1530.75 Q1038.55 1530.75 1041.74 1533.43 Q1044.94 1536.12 1044.94 1540.61 Q1044.94 1542.74 1044.13 1544.66 Q1043.34 1546.56 1041.23 1549.15 Q1040.65 1549.82 1037.55 1553.04 Q1034.45 1556.23 1028.8 1562 Z" fill="#000000" fill-rule="evenodd" fill-opacity="1" /><path clip-path="url(#clip890)" d="M 0 0 M1060.19 1534.45 Q1056.58 1534.45 1054.75 1538.02 Q1052.95 1541.56 1052.95 1548.69 Q1052.95 1555.79 1054.75 1559.36 Q1056.58 1562.9 1060.19 1562.9 Q1063.83 1562.9 1065.63 1559.36 Q1067.46 1555.79 1067.46 1548.69 Q1067.46 1541.56 1065.63 1538.02 Q1063.83 1534.45 1060.19 1534.45 M1060.19 1530.75 Q1066 1530.75 1069.06 1535.35 Q1072.14 1539.94 1072.14 1548.69 Q1072.14 1557.41 1069.06 1562.02 Q1066 1566.6 1060.19 1566.6 Q1054.38 1566.6 1051.3 1562.02 Q1048.25 1557.41 1048.25 1548.69 Q1048.25 1539.94 1051.3 1535.35 Q1054.38 1530.75 1060.19 1530.75 Z" fill="#000000" fill-rule="evenodd" fill-opacity="1" /><path clip-path="url(#clip890)" d="M 0 0 M1416.03 1547.3 Q1419.39 1548.02 1421.26 1550.28 Q1423.16 1552.55 1423.16 1555.89 Q1423.16 1561 1419.64 1563.8 Q1416.12 1566.6 1409.64 1566.6 Q1407.47 1566.6 1405.15 1566.16 Q1402.86 1565.75 1400.41 1564.89 L1400.41 1560.38 Q1402.35 1561.51 1404.66 1562.09 Q1406.98 1562.67 1409.5 1562.67 Q1413.9 1562.67 1416.19 1560.93 Q1418.51 1559.2 1418.51 1555.89 Q1418.51 1552.83 1416.35 1551.12 Q1414.23 1549.38 1410.41 1549.38 L1406.38 1549.38 L1406.38 1545.54 L1410.59 1545.54 Q1414.04 1545.54 1415.87 1544.17 Q1417.7 1542.78 1417.7 1540.19 Q1417.7 1537.53 1415.8 1536.12 Q1413.92 1534.68 1410.41 1534.68 Q1408.48 1534.68 1406.29 1535.1 Q1404.09 1535.52 1401.45 1536.39 L1401.45 1532.23 Q1404.11 1531.49 1406.42 1531.12 Q1408.76 1530.75 1410.82 1530.75 Q1416.15 1530.75 1419.25 1533.18 Q1422.35 1535.58 1422.35 1539.71 Q1422.35 1542.58 1420.71 1544.57 Q1419.06 1546.53 1416.03 1547.3 Z" fill="#000000" fill-rule="evenodd" fill-opacity="1" /><path clip-path="url(#clip890)" d="M 0 0 M1438.23 1534.45 Q1434.62 1534.45 1432.79 1538.02 Q1430.98 1541.56 1430.98 1548.69 Q1430.98 1555.79 1432.79 1559.36 Q1434.62 1562.9 1438.23 1562.9 Q1441.86 1562.9 1443.67 1559.36 Q1445.5 1555.79 1445.5 1548.69 Q1445.5 1541.56 1443.67 1538.02 Q1441.86 1534.45 1438.23 1534.45 M1438.23 1530.75 Q1444.04 1530.75 1447.1 1535.35 Q1450.17 1539.94 1450.17 1548.69 Q1450.17 1557.41 1447.1 1562.02 Q1444.04 1566.6 1438.23 1566.6 Q1432.42 1566.6 1429.34 1562.02 Q1426.29 1557.41 1426.29 1548.69 Q1426.29 1539.94 1429.34 1535.35 Q1432.42 1530.75 1438.23 1530.75 Z" fill="#000000" fill-rule="evenodd" fill-opacity="1" /><path clip-path="url(#clip890)" d="M 0 0 M1792.42 1535.45 L1780.62 1553.89 L1792.42 1553.89 L1792.42 1535.45 M1791.2 1531.37 L1797.08 1531.37 L1797.08 1553.89 L1802.01 1553.89 L1802.01 1557.78 L1797.08 1557.78 L1797.08 1565.93 L1792.42 1565.93 L1792.42 1557.78 L1776.82 1557.78 L1776.82 1553.27 L1791.2 1531.37 Z" fill="#000000" fill-rule="evenodd" fill-opacity="1" /><path clip-path="url(#clip890)" d="M 0 0 M1817.08 1534.45 Q1813.47 1534.45 1811.64 1538.02 Q1809.83 1541.56 1809.83 1548.69 Q1809.83 1555.79 1811.64 1559.36 Q1813.47 1562.9 1817.08 1562.9 Q1820.71 1562.9 1822.52 1559.36 Q1824.35 1555.79 1824.35 1548.69 Q1824.35 1541.56 1822.52 1538.02 Q1820.71 1534.45 1817.08 1534.45 M1817.08 1530.75 Q1822.89 1530.75 1825.94 1535.35 Q1829.02 1539.94 1829.02 1548.69 Q1829.02 1557.41 1825.94 1562.02 Q1822.89 1566.6 1817.08 1566.6 Q1811.27 1566.6 1808.19 1562.02 Q1805.13 1557.41 1805.13 1548.69 Q1805.13 1539.94 1808.19 1535.35 Q1811.27 1530.75 1817.08 1530.75 Z" fill="#000000" fill-rule="evenodd" fill-opacity="1" /><path clip-path="url(#clip890)" d="M 0 0 M2157.33 1531.37 L2175.68 1531.37 L2175.68 1535.31 L2161.61 1535.31 L2161.61 1543.78 Q2162.63 1543.43 2163.65 1543.27 Q2164.66 1543.08 2165.68 1543.08 Q2171.47 1543.08 2174.85 1546.26 Q2178.23 1549.43 2178.23 1554.84 Q2178.23 1560.42 2174.76 1563.52 Q2171.28 1566.6 2164.97 1566.6 Q2162.79 1566.6 2160.52 1566.23 Q2158.28 1565.86 2155.87 1565.12 L2155.87 1560.42 Q2157.95 1561.56 2160.17 1562.11 Q2162.4 1562.67 2164.87 1562.67 Q2168.88 1562.67 2171.22 1560.56 Q2173.55 1558.46 2173.55 1554.84 Q2173.55 1551.23 2171.22 1549.13 Q2168.88 1547.02 2164.87 1547.02 Q2163 1547.02 2161.12 1547.44 Q2159.27 1547.85 2157.33 1548.73 L2157.33 1531.37 Z" fill="#000000" fill-rule="evenodd" fill-opacity="1" /><path clip-path="url(#clip890)" d="M 0 0 M2193.3 1534.45 Q2189.69 1534.45 2187.86 1538.02 Q2186.05 1541.56 2186.05 1548.69 Q2186.05 1555.79 2187.86 1559.36 Q2189.69 1562.9 2193.3 1562.9 Q2196.93 1562.9 2198.74 1559.36 Q2200.57 1555.79 2200.57 1548.69 Q2200.57 1541.56 2198.74 1538.02 Q2196.93 1534.45 2193.3 1534.45 M2193.3 1530.75 Q2199.11 1530.75 2202.16 1535.35 Q2205.24 1539.94 2205.24 1548.69 Q2205.24 1557.41 2202.16 1562.02 Q2199.11 1566.6 2193.3 1566.6 Q2187.49 1566.6 2184.41 1562.02 Q2181.35 1557.41 2181.35 1548.69 Q2181.35 1539.94 2184.41 1535.35 Q2187.49 1530.75 2193.3 1530.75 Z" fill="#000000" fill-rule="evenodd" fill-opacity="1" /><path clip-path="url(#clip890)" d="M 0 0 M1089.5 1602.6 L1095.93 1602.6 L1095.93 1622.69 L1117.26 1602.6 L1125.53 1602.6 L1101.95 1624.76 L1127.22 1650.12 L1118.75 1650.12 L1095.93 1627.24 L1095.93 1650.12 L1089.5 1650.12 L1089.5 1602.6 Z" fill="#000000" fill-rule="evenodd" fill-opacity="1" /><path clip-path="url(#clip890)" d="M 0 0 M1148.42 1632.2 Q1141.32 1632.2 1138.58 1633.83 Q1135.84 1635.45 1135.84 1639.37 Q1135.84 1642.48 1137.88 1644.33 Q1139.95 1646.15 1143.48 1646.15 Q1148.35 1646.15 1151.28 1642.71 Q1154.24 1639.24 1154.24 1633.51 L1154.24 1632.2 L1148.42 1632.2 M1160.1 1629.79 L1160.1 1650.12 L1154.24 1650.12 L1154.24 1644.71 Q1152.24 1647.96 1149.24 1649.52 Q1146.25 1651.05 1141.92 1651.05 Q1136.45 1651.05 1133.2 1647.99 Q1129.99 1644.9 1129.99 1639.75 Q1129.99 1633.73 1134 1630.68 Q1138.04 1627.62 1146.03 1627.62 L1154.24 1627.62 L1154.24 1627.05 Q1154.24 1623.01 1151.57 1620.81 Q1148.93 1618.58 1144.12 1618.58 Q1141.06 1618.58 1138.17 1619.31 Q1135.27 1620.05 1132.6 1621.51 L1132.6 1616.1 Q1135.81 1614.86 1138.84 1614.25 Q1141.86 1613.62 1144.73 1613.62 Q1152.46 1613.62 1156.28 1617.63 Q1160.1 1621.64 1160.1 1629.79 Z" fill="#000000" fill-rule="evenodd" fill-opacity="1" /><path clip-path="url(#clip890)" d="M 0 0 M1166.24 1600.6 L1172.1 1600.6 L1172.1 1650.12 L1166.24 1650.12 L1166.24 1600.6 Z" fill="#000000" fill-rule="evenodd" fill-opacity="1" /><path clip-path="url(#clip890)" d="M 0 0 M1208.73 1630.84 L1208.73 1633.7 L1181.81 1633.7 Q1182.19 1639.75 1185.43 1642.93 Q1188.71 1646.08 1194.54 1646.08 Q1197.91 1646.08 1201.06 1645.25 Q1204.24 1644.43 1207.36 1642.77 L1207.36 1648.31 Q1204.21 1649.65 1200.9 1650.35 Q1197.59 1651.05 1194.19 1651.05 Q1185.66 1651.05 1180.66 1646.08 Q1175.69 1641.12 1175.69 1632.65 Q1175.69 1623.9 1180.4 1618.77 Q1185.15 1613.62 1193.17 1613.62 Q1200.36 1613.62 1204.53 1618.26 Q1208.73 1622.88 1208.73 1630.84 M1202.88 1629.12 Q1202.81 1624.31 1200.17 1621.45 Q1197.56 1618.58 1193.23 1618.58 Q1188.33 1618.58 1185.37 1621.35 Q1182.44 1624.12 1182 1629.15 L1202.88 1629.12 Z" fill="#000000" fill-rule="evenodd" fill-opacity="1" /><path clip-path="url(#clip890)" d="M 0 0 M1244.51 1628.61 L1244.51 1650.12 L1238.65 1650.12 L1238.65 1628.8 Q1238.65 1623.74 1236.68 1621.22 Q1234.7 1618.71 1230.76 1618.71 Q1226.02 1618.71 1223.28 1621.73 Q1220.54 1624.76 1220.54 1629.98 L1220.54 1650.12 L1214.65 1650.12 L1214.65 1614.48 L1220.54 1614.48 L1220.54 1620.01 Q1222.64 1616.8 1225.47 1615.21 Q1228.34 1613.62 1232.06 1613.62 Q1238.21 1613.62 1241.36 1617.44 Q1244.51 1621.22 1244.51 1628.61 Z" fill="#000000" fill-rule="evenodd" fill-opacity="1" /><path clip-path="url(#clip890)" d="M 0 0 M1274.11 1619.89 L1274.11 1600.6 L1279.96 1600.6 L1279.96 1650.12 L1274.11 1650.12 L1274.11 1644.78 Q1272.26 1647.96 1269.43 1649.52 Q1266.63 1651.05 1262.68 1651.05 Q1256.22 1651.05 1252.15 1645.89 Q1248.1 1640.73 1248.1 1632.33 Q1248.1 1623.93 1252.15 1618.77 Q1256.22 1613.62 1262.68 1613.62 Q1266.63 1613.62 1269.43 1615.18 Q1272.26 1616.7 1274.11 1619.89 M1254.15 1632.33 Q1254.15 1638.79 1256.79 1642.48 Q1259.47 1646.15 1264.11 1646.15 Q1268.76 1646.15 1271.43 1642.48 Q1274.11 1638.79 1274.11 1632.33 Q1274.11 1625.87 1271.43 1622.21 Q1268.76 1618.52 1264.11 1618.52 Q1259.47 1618.52 1256.79 1622.21 Q1254.15 1625.87 1254.15 1632.33 Z" fill="#000000" fill-rule="evenodd" fill-opacity="1" /><path clip-path="url(#clip890)" d="M 0 0 M1316.6 1630.84 L1316.6 1633.7 L1289.67 1633.7 Q1290.05 1639.75 1293.3 1642.93 Q1296.58 1646.08 1302.4 1646.08 Q1305.78 1646.08 1308.93 1645.25 Q1312.11 1644.43 1315.23 1642.77 L1315.23 1648.31 Q1312.08 1649.65 1308.77 1650.35 Q1305.46 1651.05 1302.05 1651.05 Q1293.52 1651.05 1288.53 1646.08 Q1283.56 1641.12 1283.56 1632.65 Q1283.56 1623.9 1288.27 1618.77 Q1293.01 1613.62 1301.04 1613.62 Q1308.23 1613.62 1312.4 1618.26 Q1316.6 1622.88 1316.6 1630.84 M1310.74 1629.12 Q1310.68 1624.31 1308.04 1621.45 Q1305.43 1618.58 1301.1 1618.58 Q1296.2 1618.58 1293.24 1621.35 Q1290.31 1624.12 1289.86 1629.15 L1310.74 1629.12 Z" fill="#000000" fill-rule="evenodd" fill-opacity="1" /><path clip-path="url(#clip890)" d="M 0 0 M1343.4 1619.95 Q1342.41 1619.38 1341.23 1619.12 Q1340.09 1618.84 1338.69 1618.84 Q1333.72 1618.84 1331.05 1622.08 Q1328.41 1625.3 1328.41 1631.35 L1328.41 1650.12 L1322.52 1650.12 L1322.52 1614.48 L1328.41 1614.48 L1328.41 1620.01 Q1330.25 1616.77 1333.21 1615.21 Q1336.17 1613.62 1340.41 1613.62 Q1341.01 1613.62 1341.74 1613.71 Q1342.48 1613.78 1343.37 1613.93 L1343.4 1619.95 Z" fill="#000000" fill-rule="evenodd" fill-opacity="1" /><path clip-path="url(#clip890)" d="M 0 0 M1346.14 1614.48 L1351.99 1614.48 L1359.31 1642.29 L1366.6 1614.48 L1373.51 1614.48 L1380.83 1642.29 L1388.12 1614.48 L1393.97 1614.48 L1384.65 1650.12 L1377.74 1650.12 L1370.07 1620.91 L1362.37 1650.12 L1355.46 1650.12 L1346.14 1614.48 Z" fill="#000000" fill-rule="evenodd" fill-opacity="1" /><path clip-path="url(#clip890)" d="M 0 0 M1413.93 1618.58 Q1409.22 1618.58 1406.48 1622.27 Q1403.75 1625.93 1403.75 1632.33 Q1403.75 1638.73 1406.45 1642.42 Q1409.19 1646.08 1413.93 1646.08 Q1418.61 1646.08 1421.35 1642.39 Q1424.08 1638.7 1424.08 1632.33 Q1424.08 1626 1421.35 1622.31 Q1418.61 1618.58 1413.93 1618.58 M1413.93 1613.62 Q1421.57 1613.62 1425.93 1618.58 Q1430.29 1623.55 1430.29 1632.33 Q1430.29 1641.08 1425.93 1646.08 Q1421.57 1651.05 1413.93 1651.05 Q1406.26 1651.05 1401.9 1646.08 Q1397.57 1641.08 1397.57 1632.33 Q1397.57 1623.55 1401.9 1618.58 Q1406.26 1613.62 1413.93 1613.62 Z" fill="#000000" fill-rule="evenodd" fill-opacity="1" /><path clip-path="url(#clip890)" d="M 0 0 M1462.09 1615.84 L1462.09 1621.32 Q1459.6 1619.95 1457.09 1619.28 Q1454.61 1618.58 1452.06 1618.58 Q1446.36 1618.58 1443.21 1622.21 Q1440.06 1625.81 1440.06 1632.33 Q1440.06 1638.86 1443.21 1642.48 Q1446.36 1646.08 1452.06 1646.08 Q1454.61 1646.08 1457.09 1645.41 Q1459.6 1644.71 1462.09 1643.34 L1462.09 1648.76 Q1459.64 1649.9 1456.99 1650.47 Q1454.38 1651.05 1451.42 1651.05 Q1443.37 1651.05 1438.63 1645.99 Q1433.89 1640.93 1433.89 1632.33 Q1433.89 1623.61 1438.66 1618.61 Q1443.47 1613.62 1451.81 1613.62 Q1454.51 1613.62 1457.09 1614.19 Q1459.67 1614.73 1462.09 1615.84 Z" fill="#000000" fill-rule="evenodd" fill-opacity="1" /><path clip-path="url(#clip890)" d="M 0 0 M1497.86 1628.61 L1497.86 1650.12 L1492.01 1650.12 L1492.01 1628.8 Q1492.01 1623.74 1490.03 1621.22 Q1488.06 1618.71 1484.11 1618.71 Q1479.37 1618.71 1476.63 1621.73 Q1473.9 1624.76 1473.9 1629.98 L1473.9 1650.12 L1468.01 1650.12 L1468.01 1600.6 L1473.9 1600.6 L1473.9 1620.01 Q1476 1616.8 1478.83 1615.21 Q1481.69 1613.62 1485.42 1613.62 Q1491.56 1613.62 1494.71 1617.44 Q1497.86 1621.22 1497.86 1628.61 Z" fill="#000000" fill-rule="evenodd" fill-opacity="1" /><path clip-path="url(#clip890)" d="M 0 0 M1534.5 1630.84 L1534.5 1633.7 L1507.57 1633.7 Q1507.95 1639.75 1511.2 1642.93 Q1514.48 1646.08 1520.3 1646.08 Q1523.68 1646.08 1526.83 1645.25 Q1530.01 1644.43 1533.13 1642.77 L1533.13 1648.31 Q1529.98 1649.65 1526.67 1650.35 Q1523.36 1651.05 1519.95 1651.05 Q1511.42 1651.05 1506.42 1646.08 Q1501.46 1641.12 1501.46 1632.65 Q1501.46 1623.9 1506.17 1618.77 Q1510.91 1613.62 1518.93 1613.62 Q1526.13 1613.62 1530.3 1618.26 Q1534.5 1622.88 1534.5 1630.84 M1528.64 1629.12 Q1528.58 1624.31 1525.94 1621.45 Q1523.33 1618.58 1519 1618.58 Q1514.1 1618.58 1511.14 1621.35 Q1508.21 1624.12 1507.76 1629.15 L1528.64 1629.12 Z" fill="#000000" fill-rule="evenodd" fill-opacity="1" /><polyline clip-path="url(#clip892)" style="stroke:#000000; stroke-width:2; stroke-opacity:0.1; fill:none" points="
  271.244,1505.26 2352.76,1505.26 
  "/>
<polyline clip-path="url(#clip892)" style="stroke:#000000; stroke-width:2; stroke-opacity:0.1; fill:none" points="
  271.244,1279.91 2352.76,1279.91 
  "/>
<polyline clip-path="url(#clip892)" style="stroke:#000000; stroke-width:2; stroke-opacity:0.1; fill:none" points="
  271.244,1054.55 2352.76,1054.55 
  "/>
<polyline clip-path="url(#clip892)" style="stroke:#000000; stroke-width:2; stroke-opacity:0.1; fill:none" points="
  271.244,829.197 2352.76,829.197 
  "/>
<polyline clip-path="url(#clip892)" style="stroke:#000000; stroke-width:2; stroke-opacity:0.1; fill:none" points="
  271.244,603.843 2352.76,603.843 
  "/>
<polyline clip-path="url(#clip892)" style="stroke:#000000; stroke-width:2; stroke-opacity:0.1; fill:none" points="
  271.244,378.488 2352.76,378.488 
  "/>
<polyline clip-path="url(#clip892)" style="stroke:#000000; stroke-width:2; stroke-opacity:0.1; fill:none" points="
  271.244,153.134 2352.76,153.134 
  "/>
<polyline clip-path="url(#clip890)" style="stroke:#000000; stroke-width:4; stroke-opacity:1; fill:none" points="
  271.244,1505.26 271.244,62.9921 
  "/>
<polyline clip-path="url(#clip890)" style="stroke:#000000; stroke-width:4; stroke-opacity:1; fill:none" points="
  271.244,1505.26 296.222,1505.26 
  "/>
<polyline clip-path="url(#clip890)" style="stroke:#000000; stroke-width:4; stroke-opacity:1; fill:none" points="
  271.244,1279.91 296.222,1279.91 
  "/>
<polyline clip-path="url(#clip890)" style="stroke:#000000; stroke-width:4; stroke-opacity:1; fill:none" points="
  271.244,1054.55 296.222,1054.55 
  "/>
<polyline clip-path="url(#clip890)" style="stroke:#000000; stroke-width:4; stroke-opacity:1; fill:none" points="
  271.244,829.197 296.222,829.197 
  "/>
<polyline clip-path="url(#clip890)" style="stroke:#000000; stroke-width:4; stroke-opacity:1; fill:none" points="
  271.244,603.843 296.222,603.843 
  "/>
<polyline clip-path="url(#clip890)" style="stroke:#000000; stroke-width:4; stroke-opacity:1; fill:none" points="
  271.244,378.488 296.222,378.488 
  "/>
<polyline clip-path="url(#clip890)" style="stroke:#000000; stroke-width:4; stroke-opacity:1; fill:none" points="
  271.244,153.134 296.222,153.134 
  "/>
<path clip-path="url(#clip890)" d="M 0 0 M223.3 1491.06 Q219.689 1491.06 217.86 1494.62 Q216.054 1498.16 216.054 1505.29 Q216.054 1512.4 217.86 1515.97 Q219.689 1519.51 223.3 1519.51 Q226.934 1519.51 228.739 1515.97 Q230.568 1512.4 230.568 1505.29 Q230.568 1498.16 228.739 1494.62 Q226.934 1491.06 223.3 1491.06 M223.3 1487.35 Q229.11 1487.35 232.165 1491.96 Q235.244 1496.54 235.244 1505.29 Q235.244 1514.02 232.165 1518.63 Q229.11 1523.21 223.3 1523.21 Q217.49 1523.21 214.411 1518.63 Q211.355 1514.02 211.355 1505.29 Q211.355 1496.54 214.411 1491.96 Q217.49 1487.35 223.3 1487.35 Z" fill="#000000" fill-rule="evenodd" fill-opacity="1" /><path clip-path="url(#clip890)" d="M 0 0 M133.3 1262.63 L151.657 1262.63 L151.657 1266.56 L137.583 1266.56 L137.583 1275.03 Q138.601 1274.69 139.62 1274.52 Q140.638 1274.34 141.657 1274.34 Q147.444 1274.34 150.823 1277.51 Q154.203 1280.68 154.203 1286.1 Q154.203 1291.68 150.731 1294.78 Q147.258 1297.86 140.939 1297.86 Q138.763 1297.86 136.495 1297.49 Q134.249 1297.12 131.842 1296.38 L131.842 1291.68 Q133.925 1292.81 136.147 1293.37 Q138.37 1293.92 140.846 1293.92 Q144.851 1293.92 147.189 1291.82 Q149.527 1289.71 149.527 1286.1 Q149.527 1282.49 147.189 1280.38 Q144.851 1278.27 140.846 1278.27 Q138.971 1278.27 137.096 1278.69 Q135.245 1279.11 133.3 1279.99 L133.3 1262.63 Z" fill="#000000" fill-rule="evenodd" fill-opacity="1" /><path clip-path="url(#clip890)" d="M 0 0 M169.272 1265.7 Q165.661 1265.7 163.832 1269.27 Q162.027 1272.81 162.027 1279.94 Q162.027 1287.05 163.832 1290.61 Q165.661 1294.15 169.272 1294.15 Q172.906 1294.15 174.712 1290.61 Q176.541 1287.05 176.541 1279.94 Q176.541 1272.81 174.712 1269.27 Q172.906 1265.7 169.272 1265.7 M169.272 1262 Q175.082 1262 178.138 1266.61 Q181.217 1271.19 181.217 1279.94 Q181.217 1288.67 178.138 1293.27 Q175.082 1297.86 169.272 1297.86 Q163.462 1297.86 160.383 1293.27 Q157.328 1288.67 157.328 1279.94 Q157.328 1271.19 160.383 1266.61 Q163.462 1262 169.272 1262 Z" fill="#000000" fill-rule="evenodd" fill-opacity="1" /><path clip-path="url(#clip890)" d="M 0 0 M196.286 1265.7 Q192.675 1265.7 190.846 1269.27 Q189.041 1272.81 189.041 1279.94 Q189.041 1287.05 190.846 1290.61 Q192.675 1294.15 196.286 1294.15 Q199.92 1294.15 201.726 1290.61 Q203.554 1287.05 203.554 1279.94 Q203.554 1272.81 201.726 1269.27 Q199.92 1265.7 196.286 1265.7 M196.286 1262 Q202.096 1262 205.152 1266.61 Q208.23 1271.19 208.23 1279.94 Q208.23 1288.67 205.152 1293.27 Q202.096 1297.86 196.286 1297.86 Q190.476 1297.86 187.397 1293.27 Q184.342 1288.67 184.342 1279.94 Q184.342 1271.19 187.397 1266.61 Q190.476 1262 196.286 1262 Z" fill="#000000" fill-rule="evenodd" fill-opacity="1" /><path clip-path="url(#clip890)" d="M 0 0 M223.3 1265.7 Q219.689 1265.7 217.86 1269.27 Q216.054 1272.81 216.054 1279.94 Q216.054 1287.05 217.86 1290.61 Q219.689 1294.15 223.3 1294.15 Q226.934 1294.15 228.739 1290.61 Q230.568 1287.05 230.568 1279.94 Q230.568 1272.81 228.739 1269.27 Q226.934 1265.7 223.3 1265.7 M223.3 1262 Q229.11 1262 232.165 1266.61 Q235.244 1271.19 235.244 1279.94 Q235.244 1288.67 232.165 1293.27 Q229.11 1297.86 223.3 1297.86 Q217.49 1297.86 214.411 1293.27 Q211.355 1288.67 211.355 1279.94 Q211.355 1271.19 214.411 1266.61 Q217.49 1262 223.3 1262 Z" fill="#000000" fill-rule="evenodd" fill-opacity="1" /><path clip-path="url(#clip890)" d="M 0 0 M107.282 1067.9 L114.921 1067.9 L114.921 1041.53 L106.611 1043.2 L106.611 1038.94 L114.874 1037.27 L119.55 1037.27 L119.55 1067.9 L127.189 1067.9 L127.189 1071.83 L107.282 1071.83 L107.282 1067.9 Z" fill="#000000" fill-rule="evenodd" fill-opacity="1" /><path clip-path="url(#clip890)" d="M 0 0 M142.258 1040.35 Q138.647 1040.35 136.819 1043.91 Q135.013 1047.46 135.013 1054.59 Q135.013 1061.69 136.819 1065.26 Q138.647 1068.8 142.258 1068.8 Q145.893 1068.8 147.698 1065.26 Q149.527 1061.69 149.527 1054.59 Q149.527 1047.46 147.698 1043.91 Q145.893 1040.35 142.258 1040.35 M142.258 1036.65 Q148.069 1036.65 151.124 1041.25 Q154.203 1045.84 154.203 1054.59 Q154.203 1063.31 151.124 1067.92 Q148.069 1072.5 142.258 1072.5 Q136.448 1072.5 133.37 1067.92 Q130.314 1063.31 130.314 1054.59 Q130.314 1045.84 133.37 1041.25 Q136.448 1036.65 142.258 1036.65 Z" fill="#000000" fill-rule="evenodd" fill-opacity="1" /><path clip-path="url(#clip890)" d="M 0 0 M169.272 1040.35 Q165.661 1040.35 163.832 1043.91 Q162.027 1047.46 162.027 1054.59 Q162.027 1061.69 163.832 1065.26 Q165.661 1068.8 169.272 1068.8 Q172.906 1068.8 174.712 1065.26 Q176.541 1061.69 176.541 1054.59 Q176.541 1047.46 174.712 1043.91 Q172.906 1040.35 169.272 1040.35 M169.272 1036.65 Q175.082 1036.65 178.138 1041.25 Q181.217 1045.84 181.217 1054.59 Q181.217 1063.31 178.138 1067.92 Q175.082 1072.5 169.272 1072.5 Q163.462 1072.5 160.383 1067.92 Q157.328 1063.31 157.328 1054.59 Q157.328 1045.84 160.383 1041.25 Q163.462 1036.65 169.272 1036.65 Z" fill="#000000" fill-rule="evenodd" fill-opacity="1" /><path clip-path="url(#clip890)" d="M 0 0 M196.286 1040.35 Q192.675 1040.35 190.846 1043.91 Q189.041 1047.46 189.041 1054.59 Q189.041 1061.69 190.846 1065.26 Q192.675 1068.8 196.286 1068.8 Q199.92 1068.8 201.726 1065.26 Q203.554 1061.69 203.554 1054.59 Q203.554 1047.46 201.726 1043.91 Q199.92 1040.35 196.286 1040.35 M196.286 1036.65 Q202.096 1036.65 205.152 1041.25 Q208.23 1045.84 208.23 1054.59 Q208.23 1063.31 205.152 1067.92 Q202.096 1072.5 196.286 1072.5 Q190.476 1072.5 187.397 1067.92 Q184.342 1063.31 184.342 1054.59 Q184.342 1045.84 187.397 1041.25 Q190.476 1036.65 196.286 1036.65 Z" fill="#000000" fill-rule="evenodd" fill-opacity="1" /><path clip-path="url(#clip890)" d="M 0 0 M223.3 1040.35 Q219.689 1040.35 217.86 1043.91 Q216.054 1047.46 216.054 1054.59 Q216.054 1061.69 217.86 1065.26 Q219.689 1068.8 223.3 1068.8 Q226.934 1068.8 228.739 1065.26 Q230.568 1061.69 230.568 1054.59 Q230.568 1047.46 228.739 1043.91 Q226.934 1040.35 223.3 1040.35 M223.3 1036.65 Q229.11 1036.65 232.165 1041.25 Q235.244 1045.84 235.244 1054.59 Q235.244 1063.31 232.165 1067.92 Q229.11 1072.5 223.3 1072.5 Q217.49 1072.5 214.411 1067.92 Q211.355 1063.31 211.355 1054.59 Q211.355 1045.84 214.411 1041.25 Q217.49 1036.65 223.3 1036.65 Z" fill="#000000" fill-rule="evenodd" fill-opacity="1" /><path clip-path="url(#clip890)" d="M 0 0 M108.277 842.542 L115.916 842.542 L115.916 816.176 L107.606 817.843 L107.606 813.584 L115.87 811.917 L120.546 811.917 L120.546 842.542 L128.184 842.542 L128.184 846.477 L108.277 846.477 L108.277 842.542 Z" fill="#000000" fill-rule="evenodd" fill-opacity="1" /><path clip-path="url(#clip890)" d="M 0 0 M133.3 811.917 L151.657 811.917 L151.657 815.852 L137.583 815.852 L137.583 824.324 Q138.601 823.977 139.62 823.815 Q140.638 823.63 141.657 823.63 Q147.444 823.63 150.823 826.801 Q154.203 829.972 154.203 835.389 Q154.203 840.968 150.731 844.069 Q147.258 847.148 140.939 847.148 Q138.763 847.148 136.495 846.778 Q134.249 846.407 131.842 845.667 L131.842 840.968 Q133.925 842.102 136.147 842.657 Q138.37 843.213 140.846 843.213 Q144.851 843.213 147.189 841.107 Q149.527 839 149.527 835.389 Q149.527 831.778 147.189 829.671 Q144.851 827.565 140.846 827.565 Q138.971 827.565 137.096 827.982 Q135.245 828.398 133.3 829.278 L133.3 811.917 Z" fill="#000000" fill-rule="evenodd" fill-opacity="1" /><path clip-path="url(#clip890)" d="M 0 0 M169.272 814.996 Q165.661 814.996 163.832 818.56 Q162.027 822.102 162.027 829.232 Q162.027 836.338 163.832 839.903 Q165.661 843.444 169.272 843.444 Q172.906 843.444 174.712 839.903 Q176.541 836.338 176.541 829.232 Q176.541 822.102 174.712 818.56 Q172.906 814.996 169.272 814.996 M169.272 811.292 Q175.082 811.292 178.138 815.898 Q181.217 820.482 181.217 829.232 Q181.217 837.958 178.138 842.565 Q175.082 847.148 169.272 847.148 Q163.462 847.148 160.383 842.565 Q157.328 837.958 157.328 829.232 Q157.328 820.482 160.383 815.898 Q163.462 811.292 169.272 811.292 Z" fill="#000000" fill-rule="evenodd" fill-opacity="1" /><path clip-path="url(#clip890)" d="M 0 0 M196.286 814.996 Q192.675 814.996 190.846 818.56 Q189.041 822.102 189.041 829.232 Q189.041 836.338 190.846 839.903 Q192.675 843.444 196.286 843.444 Q199.92 843.444 201.726 839.903 Q203.554 836.338 203.554 829.232 Q203.554 822.102 201.726 818.56 Q199.92 814.996 196.286 814.996 M196.286 811.292 Q202.096 811.292 205.152 815.898 Q208.23 820.482 208.23 829.232 Q208.23 837.958 205.152 842.565 Q202.096 847.148 196.286 847.148 Q190.476 847.148 187.397 842.565 Q184.342 837.958 184.342 829.232 Q184.342 820.482 187.397 815.898 Q190.476 811.292 196.286 811.292 Z" fill="#000000" fill-rule="evenodd" fill-opacity="1" /><path clip-path="url(#clip890)" d="M 0 0 M223.3 814.996 Q219.689 814.996 217.86 818.56 Q216.054 822.102 216.054 829.232 Q216.054 836.338 217.86 839.903 Q219.689 843.444 223.3 843.444 Q226.934 843.444 228.739 839.903 Q230.568 836.338 230.568 829.232 Q230.568 822.102 228.739 818.56 Q226.934 814.996 223.3 814.996 M223.3 811.292 Q229.11 811.292 232.165 815.898 Q235.244 820.482 235.244 829.232 Q235.244 837.958 232.165 842.565 Q229.11 847.148 223.3 847.148 Q217.49 847.148 214.411 842.565 Q211.355 837.958 211.355 829.232 Q211.355 820.482 214.411 815.898 Q217.49 811.292 223.3 811.292 Z" fill="#000000" fill-rule="evenodd" fill-opacity="1" /><path clip-path="url(#clip890)" d="M 0 0 M110.87 617.187 L127.189 617.187 L127.189 621.123 L105.245 621.123 L105.245 617.187 Q107.907 614.433 112.49 609.803 Q117.097 605.15 118.277 603.808 Q120.522 601.285 121.402 599.549 Q122.305 597.789 122.305 596.1 Q122.305 593.345 120.36 591.609 Q118.439 589.873 115.337 589.873 Q113.138 589.873 110.685 590.637 Q108.254 591.4 105.476 592.951 L105.476 588.229 Q108.3 587.095 110.754 586.516 Q113.208 585.938 115.245 585.938 Q120.615 585.938 123.81 588.623 Q127.004 591.308 127.004 595.799 Q127.004 597.928 126.194 599.849 Q125.407 601.748 123.3 604.34 Q122.722 605.011 119.62 608.229 Q116.518 611.423 110.87 617.187 Z" fill="#000000" fill-rule="evenodd" fill-opacity="1" /><path clip-path="url(#clip890)" d="M 0 0 M142.258 589.641 Q138.647 589.641 136.819 593.206 Q135.013 596.748 135.013 603.877 Q135.013 610.984 136.819 614.548 Q138.647 618.09 142.258 618.09 Q145.893 618.09 147.698 614.548 Q149.527 610.984 149.527 603.877 Q149.527 596.748 147.698 593.206 Q145.893 589.641 142.258 589.641 M142.258 585.938 Q148.069 585.938 151.124 590.544 Q154.203 595.127 154.203 603.877 Q154.203 612.604 151.124 617.211 Q148.069 621.794 142.258 621.794 Q136.448 621.794 133.37 617.211 Q130.314 612.604 130.314 603.877 Q130.314 595.127 133.37 590.544 Q136.448 585.938 142.258 585.938 Z" fill="#000000" fill-rule="evenodd" fill-opacity="1" /><path clip-path="url(#clip890)" d="M 0 0 M169.272 589.641 Q165.661 589.641 163.832 593.206 Q162.027 596.748 162.027 603.877 Q162.027 610.984 163.832 614.548 Q165.661 618.09 169.272 618.09 Q172.906 618.09 174.712 614.548 Q176.541 610.984 176.541 603.877 Q176.541 596.748 174.712 593.206 Q172.906 589.641 169.272 589.641 M169.272 585.938 Q175.082 585.938 178.138 590.544 Q181.217 595.127 181.217 603.877 Q181.217 612.604 178.138 617.211 Q175.082 621.794 169.272 621.794 Q163.462 621.794 160.383 617.211 Q157.328 612.604 157.328 603.877 Q157.328 595.127 160.383 590.544 Q163.462 585.938 169.272 585.938 Z" fill="#000000" fill-rule="evenodd" fill-opacity="1" /><path clip-path="url(#clip890)" d="M 0 0 M196.286 589.641 Q192.675 589.641 190.846 593.206 Q189.041 596.748 189.041 603.877 Q189.041 610.984 190.846 614.548 Q192.675 618.09 196.286 618.09 Q199.92 618.09 201.726 614.548 Q203.554 610.984 203.554 603.877 Q203.554 596.748 201.726 593.206 Q199.92 589.641 196.286 589.641 M196.286 585.938 Q202.096 585.938 205.152 590.544 Q208.23 595.127 208.23 603.877 Q208.23 612.604 205.152 617.211 Q202.096 621.794 196.286 621.794 Q190.476 621.794 187.397 617.211 Q184.342 612.604 184.342 603.877 Q184.342 595.127 187.397 590.544 Q190.476 585.938 196.286 585.938 Z" fill="#000000" fill-rule="evenodd" fill-opacity="1" /><path clip-path="url(#clip890)" d="M 0 0 M223.3 589.641 Q219.689 589.641 217.86 593.206 Q216.054 596.748 216.054 603.877 Q216.054 610.984 217.86 614.548 Q219.689 618.09 223.3 618.09 Q226.934 618.09 228.739 614.548 Q230.568 610.984 230.568 603.877 Q230.568 596.748 228.739 593.206 Q226.934 589.641 223.3 589.641 M223.3 585.938 Q229.11 585.938 232.165 590.544 Q235.244 595.127 235.244 603.877 Q235.244 612.604 232.165 617.211 Q229.11 621.794 223.3 621.794 Q217.49 621.794 214.411 617.211 Q211.355 612.604 211.355 603.877 Q211.355 595.127 214.411 590.544 Q217.49 585.938 223.3 585.938 Z" fill="#000000" fill-rule="evenodd" fill-opacity="1" /><path clip-path="url(#clip890)" d="M 0 0 M111.865 391.833 L128.184 391.833 L128.184 395.768 L106.24 395.768 L106.24 391.833 Q108.902 389.078 113.485 384.449 Q118.092 379.796 119.272 378.453 Q121.518 375.93 122.397 374.194 Q123.3 372.435 123.3 370.745 Q123.3 367.991 121.356 366.254 Q119.435 364.518 116.333 364.518 Q114.134 364.518 111.68 365.282 Q109.249 366.046 106.472 367.597 L106.472 362.875 Q109.296 361.741 111.749 361.162 Q114.203 360.583 116.24 360.583 Q121.61 360.583 124.805 363.268 Q127.999 365.954 127.999 370.444 Q127.999 372.574 127.189 374.495 Q126.402 376.393 124.296 378.986 Q123.717 379.657 120.615 382.875 Q117.513 386.069 111.865 391.833 Z" fill="#000000" fill-rule="evenodd" fill-opacity="1" /><path clip-path="url(#clip890)" d="M 0 0 M133.3 361.208 L151.657 361.208 L151.657 365.143 L137.583 365.143 L137.583 373.616 Q138.601 373.268 139.62 373.106 Q140.638 372.921 141.657 372.921 Q147.444 372.921 150.823 376.092 Q154.203 379.264 154.203 384.68 Q154.203 390.259 150.731 393.361 Q147.258 396.439 140.939 396.439 Q138.763 396.439 136.495 396.069 Q134.249 395.699 131.842 394.958 L131.842 390.259 Q133.925 391.393 136.147 391.949 Q138.37 392.504 140.846 392.504 Q144.851 392.504 147.189 390.398 Q149.527 388.291 149.527 384.68 Q149.527 381.069 147.189 378.963 Q144.851 376.856 140.846 376.856 Q138.971 376.856 137.096 377.273 Q135.245 377.69 133.3 378.569 L133.3 361.208 Z" fill="#000000" fill-rule="evenodd" fill-opacity="1" /><path clip-path="url(#clip890)" d="M 0 0 M169.272 364.287 Q165.661 364.287 163.832 367.852 Q162.027 371.393 162.027 378.523 Q162.027 385.629 163.832 389.194 Q165.661 392.736 169.272 392.736 Q172.906 392.736 174.712 389.194 Q176.541 385.629 176.541 378.523 Q176.541 371.393 174.712 367.852 Q172.906 364.287 169.272 364.287 M169.272 360.583 Q175.082 360.583 178.138 365.19 Q181.217 369.773 181.217 378.523 Q181.217 387.25 178.138 391.856 Q175.082 396.439 169.272 396.439 Q163.462 396.439 160.383 391.856 Q157.328 387.25 157.328 378.523 Q157.328 369.773 160.383 365.19 Q163.462 360.583 169.272 360.583 Z" fill="#000000" fill-rule="evenodd" fill-opacity="1" /><path clip-path="url(#clip890)" d="M 0 0 M196.286 364.287 Q192.675 364.287 190.846 367.852 Q189.041 371.393 189.041 378.523 Q189.041 385.629 190.846 389.194 Q192.675 392.736 196.286 392.736 Q199.92 392.736 201.726 389.194 Q203.554 385.629 203.554 378.523 Q203.554 371.393 201.726 367.852 Q199.92 364.287 196.286 364.287 M196.286 360.583 Q202.096 360.583 205.152 365.19 Q208.23 369.773 208.23 378.523 Q208.23 387.25 205.152 391.856 Q202.096 396.439 196.286 396.439 Q190.476 396.439 187.397 391.856 Q184.342 387.25 184.342 378.523 Q184.342 369.773 187.397 365.19 Q190.476 360.583 196.286 360.583 Z" fill="#000000" fill-rule="evenodd" fill-opacity="1" /><path clip-path="url(#clip890)" d="M 0 0 M223.3 364.287 Q219.689 364.287 217.86 367.852 Q216.054 371.393 216.054 378.523 Q216.054 385.629 217.86 389.194 Q219.689 392.736 223.3 392.736 Q226.934 392.736 228.739 389.194 Q230.568 385.629 230.568 378.523 Q230.568 371.393 228.739 367.852 Q226.934 364.287 223.3 364.287 M223.3 360.583 Q229.11 360.583 232.165 365.19 Q235.244 369.773 235.244 378.523 Q235.244 387.25 232.165 391.856 Q229.11 396.439 223.3 396.439 Q217.49 396.439 214.411 391.856 Q211.355 387.25 211.355 378.523 Q211.355 369.773 214.411 365.19 Q217.49 360.583 223.3 360.583 Z" fill="#000000" fill-rule="evenodd" fill-opacity="1" /><path clip-path="url(#clip890)" d="M 0 0 M120.06 151.78 Q123.416 152.497 125.291 154.766 Q127.189 157.034 127.189 160.368 Q127.189 165.483 123.671 168.284 Q120.152 171.085 113.671 171.085 Q111.495 171.085 109.18 170.645 Q106.888 170.229 104.435 169.372 L104.435 164.858 Q106.379 165.993 108.694 166.571 Q111.009 167.15 113.532 167.15 Q117.93 167.15 120.222 165.414 Q122.536 163.678 122.536 160.368 Q122.536 157.312 120.384 155.599 Q118.254 153.863 114.435 153.863 L110.407 153.863 L110.407 150.02 L114.62 150.02 Q118.069 150.02 119.897 148.655 Q121.726 147.266 121.726 144.673 Q121.726 142.011 119.828 140.599 Q117.953 139.164 114.435 139.164 Q112.513 139.164 110.314 139.581 Q108.115 139.997 105.476 140.877 L105.476 136.71 Q108.138 135.97 110.453 135.599 Q112.791 135.229 114.851 135.229 Q120.175 135.229 123.277 137.659 Q126.379 140.067 126.379 144.187 Q126.379 147.058 124.735 149.048 Q123.092 151.016 120.06 151.78 Z" fill="#000000" fill-rule="evenodd" fill-opacity="1" /><path clip-path="url(#clip890)" d="M 0 0 M142.258 138.933 Q138.647 138.933 136.819 142.497 Q135.013 146.039 135.013 153.169 Q135.013 160.275 136.819 163.84 Q138.647 167.381 142.258 167.381 Q145.893 167.381 147.698 163.84 Q149.527 160.275 149.527 153.169 Q149.527 146.039 147.698 142.497 Q145.893 138.933 142.258 138.933 M142.258 135.229 Q148.069 135.229 151.124 139.835 Q154.203 144.419 154.203 153.169 Q154.203 161.895 151.124 166.502 Q148.069 171.085 142.258 171.085 Q136.448 171.085 133.37 166.502 Q130.314 161.895 130.314 153.169 Q130.314 144.419 133.37 139.835 Q136.448 135.229 142.258 135.229 Z" fill="#000000" fill-rule="evenodd" fill-opacity="1" /><path clip-path="url(#clip890)" d="M 0 0 M169.272 138.933 Q165.661 138.933 163.832 142.497 Q162.027 146.039 162.027 153.169 Q162.027 160.275 163.832 163.84 Q165.661 167.381 169.272 167.381 Q172.906 167.381 174.712 163.84 Q176.541 160.275 176.541 153.169 Q176.541 146.039 174.712 142.497 Q172.906 138.933 169.272 138.933 M169.272 135.229 Q175.082 135.229 178.138 139.835 Q181.217 144.419 181.217 153.169 Q181.217 161.895 178.138 166.502 Q175.082 171.085 169.272 171.085 Q163.462 171.085 160.383 166.502 Q157.328 161.895 157.328 153.169 Q157.328 144.419 160.383 139.835 Q163.462 135.229 169.272 135.229 Z" fill="#000000" fill-rule="evenodd" fill-opacity="1" /><path clip-path="url(#clip890)" d="M 0 0 M196.286 138.933 Q192.675 138.933 190.846 142.497 Q189.041 146.039 189.041 153.169 Q189.041 160.275 190.846 163.84 Q192.675 167.381 196.286 167.381 Q199.92 167.381 201.726 163.84 Q203.554 160.275 203.554 153.169 Q203.554 146.039 201.726 142.497 Q199.92 138.933 196.286 138.933 M196.286 135.229 Q202.096 135.229 205.152 139.835 Q208.23 144.419 208.23 153.169 Q208.23 161.895 205.152 166.502 Q202.096 171.085 196.286 171.085 Q190.476 171.085 187.397 166.502 Q184.342 161.895 184.342 153.169 Q184.342 144.419 187.397 139.835 Q190.476 135.229 196.286 135.229 Z" fill="#000000" fill-rule="evenodd" fill-opacity="1" /><path clip-path="url(#clip890)" d="M 0 0 M223.3 138.933 Q219.689 138.933 217.86 142.497 Q216.054 146.039 216.054 153.169 Q216.054 160.275 217.86 163.84 Q219.689 167.381 223.3 167.381 Q226.934 167.381 228.739 163.84 Q230.568 160.275 230.568 153.169 Q230.568 146.039 228.739 142.497 Q226.934 138.933 223.3 138.933 M223.3 135.229 Q229.11 135.229 232.165 139.835 Q235.244 144.419 235.244 153.169 Q235.244 161.895 232.165 166.502 Q229.11 171.085 223.3 171.085 Q217.49 171.085 214.411 166.502 Q211.355 161.895 211.355 153.169 Q211.355 144.419 214.411 139.835 Q217.49 135.229 223.3 135.229 Z" fill="#000000" fill-rule="evenodd" fill-opacity="1" /><path clip-path="url(#clip890)" d="M 0 0 M412.902 20.1573 L401.802 50.2555 L424.042 50.2555 L412.902 20.1573 M408.284 12.096 L417.56 12.096 L440.61 72.576 L432.103 72.576 L426.594 57.061 L399.331 57.061 L393.822 72.576 L385.194 72.576 L408.284 12.096 Z" fill="#000000" fill-rule="evenodd" fill-opacity="1" /><path clip-path="url(#clip890)" d="M 0 0 M476.825 34.0924 L476.825 9.54393 L484.279 9.54393 L484.279 72.576 L476.825 72.576 L476.825 65.7705 Q474.476 69.8214 470.87 71.8063 Q467.305 73.7508 462.282 73.7508 Q454.059 73.7508 448.874 67.1883 Q443.729 60.6258 443.729 49.9314 Q443.729 39.2371 448.874 32.6746 Q454.059 26.1121 462.282 26.1121 Q467.305 26.1121 470.87 28.0971 Q474.476 30.0415 476.825 34.0924 M451.426 49.9314 Q451.426 58.1548 454.788 62.8538 Q458.191 67.5124 464.105 67.5124 Q470.02 67.5124 473.422 62.8538 Q476.825 58.1548 476.825 49.9314 Q476.825 41.7081 473.422 37.0496 Q470.02 32.3505 464.105 32.3505 Q458.191 32.3505 454.788 37.0496 Q451.426 41.7081 451.426 49.9314 Z" fill="#000000" fill-rule="evenodd" fill-opacity="1" /><path clip-path="url(#clip890)" d="M 0 0 M492.097 27.2059 L499.551 27.2059 L499.551 73.3862 Q499.551 82.0551 496.229 85.944 Q492.948 89.8329 485.616 89.8329 L482.78 89.8329 L482.78 83.5134 L484.765 83.5134 Q489.018 83.5134 490.558 81.5285 Q492.097 79.5841 492.097 73.3862 L492.097 27.2059 M492.097 9.54393 L499.551 9.54393 L499.551 18.9825 L492.097 18.9825 L492.097 9.54393 Z" fill="#000000" fill-rule="evenodd" fill-opacity="1" /><path clip-path="url(#clip890)" d="M 0 0 M506.599 54.671 L506.599 27.2059 L514.053 27.2059 L514.053 54.3874 Q514.053 60.8284 516.564 64.0691 Q519.076 67.2693 524.099 67.2693 Q530.135 67.2693 533.619 63.421 Q537.143 59.5726 537.143 52.9291 L537.143 27.2059 L544.597 27.2059 L544.597 72.576 L537.143 72.576 L537.143 65.6084 Q534.429 69.7404 530.824 71.7658 Q527.259 73.7508 522.519 73.7508 Q514.701 73.7508 510.65 68.8897 Q506.599 64.0286 506.599 54.671 M525.355 26.1121 L525.355 26.1121 Z" fill="#000000" fill-rule="evenodd" fill-opacity="1" /><path clip-path="url(#clip890)" d="M 0 0 M581.338 28.5427 L581.338 35.5912 Q578.179 33.9709 574.776 33.1607 Q571.373 32.3505 567.727 32.3505 Q562.178 32.3505 559.383 34.0519 Q556.628 35.7533 556.628 39.156 Q556.628 41.7486 558.613 43.2475 Q560.598 44.7058 566.593 46.0426 L569.145 46.6097 Q577.085 48.3111 580.407 51.4303 Q583.769 54.509 583.769 60.0587 Q583.769 66.3781 578.746 70.0644 Q573.763 73.7508 565.013 73.7508 Q561.367 73.7508 557.398 73.0216 Q553.468 72.3329 549.093 70.9151 L549.093 63.2184 Q553.225 65.3654 557.236 66.4591 Q561.246 67.5124 565.175 67.5124 Q570.441 67.5124 573.277 65.73 Q576.113 63.9071 576.113 60.6258 Q576.113 57.5877 574.047 55.9673 Q572.021 54.3469 565.094 52.8481 L562.502 52.2405 Q555.575 50.7821 552.496 47.7845 Q549.417 44.7463 549.417 39.4801 Q549.417 33.0797 553.954 29.5959 Q558.491 26.1121 566.836 26.1121 Q570.968 26.1121 574.614 26.7198 Q578.26 27.3274 581.338 28.5427 Z" fill="#000000" fill-rule="evenodd" fill-opacity="1" /><path clip-path="url(#clip890)" d="M 0 0 M598.96 14.324 L598.96 27.2059 L614.313 27.2059 L614.313 32.9987 L598.96 32.9987 L598.96 57.6282 Q598.96 63.1779 600.459 64.7578 Q601.998 66.3376 606.657 66.3376 L614.313 66.3376 L614.313 72.576 L606.657 72.576 Q598.028 72.576 594.747 69.3758 Q591.466 66.1351 591.466 57.6282 L591.466 32.9987 L585.997 32.9987 L585.997 27.2059 L591.466 27.2059 L591.466 14.324 L598.96 14.324 Z" fill="#000000" fill-rule="evenodd" fill-opacity="1" /><path clip-path="url(#clip890)" d="M 0 0 M622.131 27.2059 L629.585 27.2059 L629.585 72.576 L622.131 72.576 L622.131 27.2059 M622.131 9.54393 L629.585 9.54393 L629.585 18.9825 L622.131 18.9825 L622.131 9.54393 Z" fill="#000000" fill-rule="evenodd" fill-opacity="1" /><path clip-path="url(#clip890)" d="M 0 0 M676.211 48.0275 L676.211 51.6733 L641.94 51.6733 Q642.426 59.3701 646.558 63.421 Q650.73 67.4314 658.144 67.4314 Q662.438 67.4314 666.448 66.3781 Q670.499 65.3249 674.469 63.2184 L674.469 70.267 Q670.458 71.9684 666.245 72.8596 Q662.032 73.7508 657.698 73.7508 Q646.842 73.7508 640.482 67.4314 Q634.162 61.1119 634.162 50.3365 Q634.162 39.1965 640.158 32.6746 Q646.193 26.1121 656.402 26.1121 Q665.557 26.1121 670.863 32.0264 Q676.211 37.9003 676.211 48.0275 M668.757 45.84 Q668.676 39.7232 665.314 36.0774 Q661.992 32.4315 656.483 32.4315 Q650.244 32.4315 646.477 35.9558 Q642.75 39.4801 642.183 45.8805 L668.757 45.84 Z" fill="#000000" fill-rule="evenodd" fill-opacity="1" /><path clip-path="url(#clip890)" d="M 0 0 M710.319 34.1734 Q709.063 33.4443 707.565 33.1202 Q706.106 32.7556 704.324 32.7556 Q698.004 32.7556 694.602 36.8875 Q691.239 40.9789 691.239 48.6757 L691.239 72.576 L683.745 72.576 L683.745 27.2059 L691.239 27.2059 L691.239 34.2544 Q693.589 30.1225 697.356 28.1376 Q701.124 26.1121 706.511 26.1121 Q707.281 26.1121 708.213 26.2337 Q709.144 26.3147 710.279 26.5172 L710.319 34.1734 Z" fill="#000000" fill-rule="evenodd" fill-opacity="1" /><path clip-path="url(#clip890)" d="M 0 0 M725.51 14.324 L725.51 27.2059 L740.863 27.2059 L740.863 32.9987 L725.51 32.9987 L725.51 57.6282 Q725.51 63.1779 727.009 64.7578 Q728.548 66.3376 733.207 66.3376 L740.863 66.3376 L740.863 72.576 L733.207 72.576 Q724.578 72.576 721.297 69.3758 Q718.016 66.1351 718.016 57.6282 L718.016 32.9987 L712.547 32.9987 L712.547 27.2059 L718.016 27.2059 L718.016 14.324 L725.51 14.324 Z" fill="#000000" fill-rule="evenodd" fill-opacity="1" /><path clip-path="url(#clip890)" d="M 0 0 M787.489 48.0275 L787.489 51.6733 L753.218 51.6733 Q753.704 59.3701 757.836 63.421 Q762.009 67.4314 769.422 67.4314 Q773.716 67.4314 777.726 66.3781 Q781.777 65.3249 785.747 63.2184 L785.747 70.267 Q781.737 71.9684 777.524 72.8596 Q773.311 73.7508 768.976 73.7508 Q758.12 73.7508 751.76 67.4314 Q745.441 61.1119 745.441 50.3365 Q745.441 39.1965 751.436 32.6746 Q757.472 26.1121 767.68 26.1121 Q776.835 26.1121 782.142 32.0264 Q787.489 37.9003 787.489 48.0275 M780.035 45.84 Q779.954 39.7232 776.592 36.0774 Q773.27 32.4315 767.761 32.4315 Q761.523 32.4315 757.755 35.9558 Q754.028 39.4801 753.461 45.8805 L780.035 45.84 Z" fill="#000000" fill-rule="evenodd" fill-opacity="1" /><path clip-path="url(#clip890)" d="M 0 0 M839.584 9.62495 Q834.155 18.942 831.522 28.0566 Q828.889 37.1711 828.889 46.5287 Q828.889 55.8863 831.522 65.0818 Q834.196 74.2369 839.584 83.5134 L833.102 83.5134 Q827.026 73.9938 823.988 64.7983 Q820.99 55.6027 820.99 46.5287 Q820.99 37.4952 823.988 28.3401 Q826.985 19.1851 833.102 9.62495 L839.584 9.62495 Z" fill="#000000" fill-rule="evenodd" fill-opacity="1" /><path clip-path="url(#clip890)" d="M 0 0 M855.504 65.6895 L884.062 65.6895 L884.062 72.576 L845.66 72.576 L845.66 65.6895 Q850.318 60.8689 858.339 52.7671 Q866.401 44.6248 868.466 42.2752 Q872.396 37.8598 873.935 34.8216 Q875.515 31.7429 875.515 28.7857 Q875.515 23.9651 872.112 20.927 Q868.75 17.8888 863.322 17.8888 Q859.473 17.8888 855.18 19.2256 Q850.926 20.5624 846.065 23.2765 L846.065 15.0127 Q851.007 13.0277 855.301 12.015 Q859.595 11.0023 863.16 11.0023 Q872.558 11.0023 878.148 15.7013 Q883.738 20.4004 883.738 28.2591 Q883.738 31.9859 882.321 35.3482 Q880.943 38.6699 877.257 43.2069 Q876.244 44.3817 870.816 50.0125 Q865.388 55.6027 855.504 65.6895 Z" fill="#000000" fill-rule="evenodd" fill-opacity="1" /><path clip-path="url(#clip890)" d="M 0 0 M910.434 17.4837 Q904.114 17.4837 900.914 23.7221 Q897.755 29.92 897.755 42.3968 Q897.755 54.833 900.914 61.0714 Q904.114 67.2693 910.434 67.2693 Q916.794 67.2693 919.953 61.0714 Q923.154 54.833 923.154 42.3968 Q923.154 29.92 919.953 23.7221 Q916.794 17.4837 910.434 17.4837 M910.434 11.0023 Q920.602 11.0023 925.949 19.0636 Q931.337 27.0843 931.337 42.3968 Q931.337 57.6687 925.949 65.73 Q920.602 73.7508 910.434 73.7508 Q900.266 73.7508 894.878 65.73 Q889.531 57.6687 889.531 42.3968 Q889.531 27.0843 894.878 19.0636 Q900.266 11.0023 910.434 11.0023 Z" fill="#000000" fill-rule="evenodd" fill-opacity="1" /><path clip-path="url(#clip890)" d="M 0 0 M947.257 65.6895 L975.815 65.6895 L975.815 72.576 L937.413 72.576 L937.413 65.6895 Q942.071 60.8689 950.092 52.7671 Q958.154 44.6248 960.219 42.2752 Q964.149 37.8598 965.688 34.8216 Q967.268 31.7429 967.268 28.7857 Q967.268 23.9651 963.865 20.927 Q960.503 17.8888 955.075 17.8888 Q951.226 17.8888 946.933 19.2256 Q942.679 20.5624 937.818 23.2765 L937.818 15.0127 Q942.76 13.0277 947.054 12.015 Q951.348 11.0023 954.913 11.0023 Q964.311 11.0023 969.901 15.7013 Q975.491 20.4004 975.491 28.2591 Q975.491 31.9859 974.074 35.3482 Q972.696 38.6699 969.01 43.2069 Q967.997 44.3817 962.569 50.0125 Q957.141 55.6027 947.257 65.6895 Z" fill="#000000" fill-rule="evenodd" fill-opacity="1" /><path clip-path="url(#clip890)" d="M 0 0 M1002.19 17.4837 Q995.867 17.4837 992.667 23.7221 Q989.508 29.92 989.508 42.3968 Q989.508 54.833 992.667 61.0714 Q995.867 67.2693 1002.19 67.2693 Q1008.55 67.2693 1011.71 61.0714 Q1014.91 54.833 1014.91 42.3968 Q1014.91 29.92 1011.71 23.7221 Q1008.55 17.4837 1002.19 17.4837 M1002.19 11.0023 Q1012.35 11.0023 1017.7 19.0636 Q1023.09 27.0843 1023.09 42.3968 Q1023.09 57.6687 1017.7 65.73 Q1012.35 73.7508 1002.19 73.7508 Q992.019 73.7508 986.631 65.73 Q981.284 57.6687 981.284 42.3968 Q981.284 27.0843 986.631 19.0636 Q992.019 11.0023 1002.19 11.0023 Z" fill="#000000" fill-rule="evenodd" fill-opacity="1" /><path clip-path="url(#clip890)" d="M 0 0 M1029.73 9.62495 L1036.21 9.62495 Q1042.29 19.1851 1045.29 28.3401 Q1048.33 37.4952 1048.33 46.5287 Q1048.33 55.6027 1045.29 64.7983 Q1042.29 73.9938 1036.21 83.5134 L1029.73 83.5134 Q1035.12 74.2369 1037.75 65.0818 Q1040.43 55.8863 1040.43 46.5287 Q1040.43 37.1711 1037.75 28.0566 Q1035.12 18.942 1029.73 9.62495 Z" fill="#000000" fill-rule="evenodd" fill-opacity="1" /><path clip-path="url(#clip890)" d="M 0 0 M1119.1 14.0809 L1119.1 22.0612 Q1114.44 19.8332 1110.31 18.7395 Q1106.17 17.6457 1102.33 17.6457 Q1095.64 17.6457 1092 20.2383 Q1088.39 22.8309 1088.39 27.611 Q1088.39 31.6214 1090.78 33.6873 Q1093.21 35.7128 1099.94 36.9686 L1104.88 37.9813 Q1114.03 39.7232 1118.37 44.1387 Q1122.74 48.5136 1122.74 55.8863 Q1122.74 64.6767 1116.83 69.2137 Q1110.95 73.7508 1099.57 73.7508 Q1095.28 73.7508 1090.42 72.7785 Q1085.59 71.8063 1080.41 69.9024 L1080.41 61.4765 Q1085.39 64.2716 1090.17 65.6895 Q1094.95 67.1073 1099.57 67.1073 Q1106.58 67.1073 1110.39 64.3527 Q1114.19 61.598 1114.19 56.4939 Q1114.19 52.0379 1111.44 49.5264 Q1108.73 47.0148 1102.49 45.759 L1097.5 44.7868 Q1088.35 42.9639 1084.26 39.075 Q1080.17 35.1862 1080.17 28.2591 Q1080.17 20.2383 1085.8 15.6203 Q1091.47 11.0023 1101.39 11.0023 Q1105.65 11.0023 1110.06 11.7719 Q1114.48 12.5416 1119.1 14.0809 Z" fill="#000000" fill-rule="evenodd" fill-opacity="1" /><path clip-path="url(#clip890)" d="M 0 0 M1137.93 14.324 L1137.93 27.2059 L1153.29 27.2059 L1153.29 32.9987 L1137.93 32.9987 L1137.93 57.6282 Q1137.93 63.1779 1139.43 64.7578 Q1140.97 66.3376 1145.63 66.3376 L1153.29 66.3376 L1153.29 72.576 L1145.63 72.576 Q1137 72.576 1133.72 69.3758 Q1130.44 66.1351 1130.44 57.6282 L1130.44 32.9987 L1124.97 32.9987 L1124.97 27.2059 L1130.44 27.2059 L1130.44 14.324 L1137.93 14.324 Z" fill="#000000" fill-rule="evenodd" fill-opacity="1" /><path clip-path="url(#clip890)" d="M 0 0 M1199.91 48.0275 L1199.91 51.6733 L1165.64 51.6733 Q1166.13 59.3701 1170.26 63.421 Q1174.43 67.4314 1181.84 67.4314 Q1186.14 67.4314 1190.15 66.3781 Q1194.2 65.3249 1198.17 63.2184 L1198.17 70.267 Q1194.16 71.9684 1189.95 72.8596 Q1185.73 73.7508 1181.4 73.7508 Q1170.54 73.7508 1164.18 67.4314 Q1157.86 61.1119 1157.86 50.3365 Q1157.86 39.1965 1163.86 32.6746 Q1169.89 26.1121 1180.1 26.1121 Q1189.26 26.1121 1194.56 32.0264 Q1199.91 37.9003 1199.91 48.0275 M1192.46 45.84 Q1192.38 39.7232 1189.01 36.0774 Q1185.69 32.4315 1180.18 32.4315 Q1173.95 32.4315 1170.18 35.9558 Q1166.45 39.4801 1165.88 45.8805 L1192.46 45.84 Z" fill="#000000" fill-rule="evenodd" fill-opacity="1" /><path clip-path="url(#clip890)" d="M 0 0 M1234.02 34.1734 Q1232.76 33.4443 1231.27 33.1202 Q1229.81 32.7556 1228.02 32.7556 Q1221.71 32.7556 1218.3 36.8875 Q1214.94 40.9789 1214.94 48.6757 L1214.94 72.576 L1207.45 72.576 L1207.45 27.2059 L1214.94 27.2059 L1214.94 34.2544 Q1217.29 30.1225 1221.06 28.1376 Q1224.82 26.1121 1230.21 26.1121 Q1230.98 26.1121 1231.91 26.2337 Q1232.85 26.3147 1233.98 26.5172 L1234.02 34.1734 Z" fill="#000000" fill-rule="evenodd" fill-opacity="1" /><path clip-path="url(#clip890)" d="M 0 0 M1274.41 49.9314 Q1274.41 41.7081 1271 37.0496 Q1267.64 32.3505 1261.73 32.3505 Q1255.81 32.3505 1252.41 37.0496 Q1249.05 41.7081 1249.05 49.9314 Q1249.05 58.1548 1252.41 62.8538 Q1255.81 67.5124 1261.73 67.5124 Q1267.64 67.5124 1271 62.8538 Q1274.41 58.1548 1274.41 49.9314 M1249.05 34.0924 Q1251.4 30.0415 1254.96 28.0971 Q1258.57 26.1121 1263.55 26.1121 Q1271.82 26.1121 1276.96 32.6746 Q1282.14 39.2371 1282.14 49.9314 Q1282.14 60.6258 1276.96 67.1883 Q1271.82 73.7508 1263.55 73.7508 Q1258.57 73.7508 1254.96 71.8063 Q1251.4 69.8214 1249.05 65.7705 L1249.05 72.576 L1241.55 72.576 L1241.55 9.54393 L1249.05 9.54393 L1249.05 34.0924 Z" fill="#000000" fill-rule="evenodd" fill-opacity="1" /><path clip-path="url(#clip890)" d="M 0 0 M1328.77 48.0275 L1328.77 51.6733 L1294.5 51.6733 Q1294.99 59.3701 1299.12 63.421 Q1303.29 67.4314 1310.7 67.4314 Q1315 67.4314 1319.01 66.3781 Q1323.06 65.3249 1327.03 63.2184 L1327.03 70.267 Q1323.02 71.9684 1318.81 72.8596 Q1314.59 73.7508 1310.26 73.7508 Q1299.4 73.7508 1293.04 67.4314 Q1286.72 61.1119 1286.72 50.3365 Q1286.72 39.1965 1292.72 32.6746 Q1298.75 26.1121 1308.96 26.1121 Q1318.12 26.1121 1323.42 32.0264 Q1328.77 37.9003 1328.77 48.0275 M1321.32 45.84 Q1321.24 39.7232 1317.87 36.0774 Q1314.55 32.4315 1309.04 32.4315 Q1302.8 32.4315 1299.04 35.9558 Q1295.31 39.4801 1294.74 45.8805 L1321.32 45.84 Z" fill="#000000" fill-rule="evenodd" fill-opacity="1" /><path clip-path="url(#clip890)" d="M 0 0 M1359.56 9.54393 L1359.56 15.7418 L1352.43 15.7418 Q1348.42 15.7418 1346.84 17.3622 Q1345.3 18.9825 1345.3 23.1955 L1345.3 27.2059 L1357.57 27.2059 L1357.57 32.9987 L1345.3 32.9987 L1345.3 72.576 L1337.8 72.576 L1337.8 32.9987 L1330.67 32.9987 L1330.67 27.2059 L1337.8 27.2059 L1337.8 24.0462 Q1337.8 16.471 1341.33 13.0277 Q1344.85 9.54393 1352.51 9.54393 L1359.56 9.54393 Z" fill="#000000" fill-rule="evenodd" fill-opacity="1" /><path clip-path="url(#clip890)" d="M 0 0 M1387.99 49.7694 Q1378.96 49.7694 1375.48 51.8354 Q1371.99 53.9013 1371.99 58.8839 Q1371.99 62.8538 1374.59 65.2034 Q1377.22 67.5124 1381.72 67.5124 Q1387.91 67.5124 1391.64 63.1374 Q1395.41 58.7219 1395.41 51.4303 L1395.41 49.7694 L1387.99 49.7694 M1402.86 46.6907 L1402.86 72.576 L1395.41 72.576 L1395.41 65.6895 Q1392.86 69.8214 1389.05 71.8063 Q1385.24 73.7508 1379.73 73.7508 Q1372.76 73.7508 1368.63 69.8619 Q1364.54 65.9325 1364.54 59.3701 Q1364.54 51.7138 1369.64 47.825 Q1374.79 43.9361 1384.96 43.9361 L1395.41 43.9361 L1395.41 43.2069 Q1395.41 38.0623 1392.01 35.2672 Q1388.64 32.4315 1382.53 32.4315 Q1378.64 32.4315 1374.95 33.3632 Q1371.26 34.295 1367.86 36.1584 L1367.86 29.2718 Q1371.95 27.692 1375.8 26.9223 Q1379.65 26.1121 1383.3 26.1121 Q1393.14 26.1121 1398 31.2163 Q1402.86 36.3204 1402.86 46.6907 Z" fill="#000000" fill-rule="evenodd" fill-opacity="1" /><path clip-path="url(#clip890)" d="M 0 0 M1410.68 9.54393 L1418.13 9.54393 L1418.13 72.576 L1410.68 72.576 L1410.68 9.54393 Z" fill="#000000" fill-rule="evenodd" fill-opacity="1" /><path clip-path="url(#clip890)" d="M 0 0 M1425.95 9.54393 L1433.41 9.54393 L1433.41 72.576 L1425.95 72.576 L1425.95 9.54393 Z" fill="#000000" fill-rule="evenodd" fill-opacity="1" /><path clip-path="url(#clip890)" d="M 0 0 M1437.98 27.2059 L1473.39 27.2059 L1473.39 34.0114 L1445.36 66.6212 L1473.39 66.6212 L1473.39 72.576 L1436.97 72.576 L1436.97 65.7705 L1465 33.1607 L1437.98 33.1607 L1437.98 27.2059 Z" fill="#000000" fill-rule="evenodd" fill-opacity="1" /><path clip-path="url(#clip890)" d="M 0 0 M1501.83 49.7694 Q1492.79 49.7694 1489.31 51.8354 Q1485.82 53.9013 1485.82 58.8839 Q1485.82 62.8538 1488.42 65.2034 Q1491.05 67.5124 1495.55 67.5124 Q1501.74 67.5124 1505.47 63.1374 Q1509.24 58.7219 1509.24 51.4303 L1509.24 49.7694 L1501.83 49.7694 M1516.69 46.6907 L1516.69 72.576 L1509.24 72.576 L1509.24 65.6895 Q1506.69 69.8214 1502.88 71.8063 Q1499.07 73.7508 1493.56 73.7508 Q1486.59 73.7508 1482.46 69.8619 Q1478.37 65.9325 1478.37 59.3701 Q1478.37 51.7138 1483.47 47.825 Q1488.62 43.9361 1498.79 43.9361 L1509.24 43.9361 L1509.24 43.2069 Q1509.24 38.0623 1505.84 35.2672 Q1502.47 32.4315 1496.36 32.4315 Q1492.47 32.4315 1488.78 33.3632 Q1485.1 34.295 1481.69 36.1584 L1481.69 29.2718 Q1485.78 27.692 1489.63 26.9223 Q1493.48 26.1121 1497.13 26.1121 Q1506.97 26.1121 1511.83 31.2163 Q1516.69 36.3204 1516.69 46.6907 Z" fill="#000000" fill-rule="evenodd" fill-opacity="1" /><path clip-path="url(#clip890)" d="M 0 0 M1562.22 45.1919 L1562.22 72.576 L1554.77 72.576 L1554.77 45.4349 Q1554.77 38.994 1552.26 35.7938 Q1549.75 32.5936 1544.72 32.5936 Q1538.69 32.5936 1535.2 36.4419 Q1531.72 40.2903 1531.72 46.9338 L1531.72 72.576 L1524.23 72.576 L1524.23 9.54393 L1531.72 9.54393 L1531.72 34.2544 Q1534.39 30.163 1538 28.1376 Q1541.65 26.1121 1546.39 26.1121 Q1554.2 26.1121 1558.21 30.9732 Q1562.22 35.7938 1562.22 45.1919 Z" fill="#000000" fill-rule="evenodd" fill-opacity="1" /><path clip-path="url(#clip890)" d="M 0 0 M1570.04 9.54393 L1577.5 9.54393 L1577.5 72.576 L1570.04 72.576 L1570.04 9.54393 Z" fill="#000000" fill-rule="evenodd" fill-opacity="1" /><path clip-path="url(#clip890)" d="M 0 0 M1624.12 48.0275 L1624.12 51.6733 L1589.85 51.6733 Q1590.34 59.3701 1594.47 63.421 Q1598.64 67.4314 1606.06 67.4314 Q1610.35 67.4314 1614.36 66.3781 Q1618.41 65.3249 1622.38 63.2184 L1622.38 70.267 Q1618.37 71.9684 1614.16 72.8596 Q1609.94 73.7508 1605.61 73.7508 Q1594.75 73.7508 1588.39 67.4314 Q1582.07 61.1119 1582.07 50.3365 Q1582.07 39.1965 1588.07 32.6746 Q1594.1 26.1121 1604.31 26.1121 Q1613.47 26.1121 1618.77 32.0264 Q1624.12 37.9003 1624.12 48.0275 M1616.67 45.84 Q1616.59 39.7232 1613.23 36.0774 Q1609.9 32.4315 1604.39 32.4315 Q1598.16 32.4315 1594.39 35.9558 Q1590.66 39.4801 1590.09 45.8805 L1616.67 45.84 Z" fill="#000000" fill-rule="evenodd" fill-opacity="1" /><path clip-path="url(#clip890)" d="M 0 0 M1669.65 45.1919 L1669.65 72.576 L1662.2 72.576 L1662.2 45.4349 Q1662.2 38.994 1659.69 35.7938 Q1657.18 32.5936 1652.15 32.5936 Q1646.12 32.5936 1642.63 36.4419 Q1639.15 40.2903 1639.15 46.9338 L1639.15 72.576 L1631.66 72.576 L1631.66 27.2059 L1639.15 27.2059 L1639.15 34.2544 Q1641.82 30.163 1645.43 28.1376 Q1649.08 26.1121 1653.82 26.1121 Q1661.63 26.1121 1665.64 30.9732 Q1669.65 35.7938 1669.65 45.1919 Z" fill="#000000" fill-rule="evenodd" fill-opacity="1" /><path clip-path="url(#clip890)" d="M 0 0 M1703.84 27.2059 L1711.3 27.2059 L1711.3 72.576 L1703.84 72.576 L1703.84 27.2059 M1703.84 9.54393 L1711.3 9.54393 L1711.3 18.9825 L1703.84 18.9825 L1703.84 9.54393 Z" fill="#000000" fill-rule="evenodd" fill-opacity="1" /><path clip-path="url(#clip890)" d="M 0 0 M1756.83 45.1919 L1756.83 72.576 L1749.38 72.576 L1749.38 45.4349 Q1749.38 38.994 1746.86 35.7938 Q1744.35 32.5936 1739.33 32.5936 Q1733.29 32.5936 1729.81 36.4419 Q1726.33 40.2903 1726.33 46.9338 L1726.33 72.576 L1718.83 72.576 L1718.83 27.2059 L1726.33 27.2059 L1726.33 34.2544 Q1729 30.163 1732.61 28.1376 Q1736.25 26.1121 1740.99 26.1121 Q1748.81 26.1121 1752.82 30.9732 Q1756.83 35.7938 1756.83 45.1919 Z" fill="#000000" fill-rule="evenodd" fill-opacity="1" /><path clip-path="url(#clip890)" d="M 0 0 M1799.53 18.8205 L1799.53 65.8515 L1809.41 65.8515 Q1821.93 65.8515 1827.72 60.1802 Q1833.55 54.509 1833.55 42.2752 Q1833.55 30.1225 1827.72 24.4918 Q1821.93 18.8205 1809.41 18.8205 L1799.53 18.8205 M1791.34 12.096 L1808.15 12.096 Q1825.74 12.096 1833.96 19.4281 Q1842.18 26.7198 1842.18 42.2752 Q1842.18 57.9117 1833.92 65.2439 Q1825.65 72.576 1808.15 72.576 L1791.34 72.576 L1791.34 12.096 Z" fill="#000000" fill-rule="evenodd" fill-opacity="1" /><path clip-path="url(#clip890)" d="M 0 0 M1888.81 48.0275 L1888.81 51.6733 L1854.54 51.6733 Q1855.02 59.3701 1859.16 63.421 Q1863.33 67.4314 1870.74 67.4314 Q1875.04 67.4314 1879.05 66.3781 Q1883.1 65.3249 1887.07 63.2184 L1887.07 70.267 Q1883.06 71.9684 1878.84 72.8596 Q1874.63 73.7508 1870.3 73.7508 Q1859.44 73.7508 1853.08 67.4314 Q1846.76 61.1119 1846.76 50.3365 Q1846.76 39.1965 1852.76 32.6746 Q1858.79 26.1121 1869 26.1121 Q1878.15 26.1121 1883.46 32.0264 Q1888.81 37.9003 1888.81 48.0275 M1881.35 45.84 Q1881.27 39.7232 1877.91 36.0774 Q1874.59 32.4315 1869.08 32.4315 Q1862.84 32.4315 1859.07 35.9558 Q1855.35 39.4801 1854.78 45.8805 L1881.35 45.84 Z" fill="#000000" fill-rule="evenodd" fill-opacity="1" /><path clip-path="url(#clip890)" d="M 0 0 M1895.86 54.671 L1895.86 27.2059 L1903.31 27.2059 L1903.31 54.3874 Q1903.31 60.8284 1905.82 64.0691 Q1908.33 67.2693 1913.36 67.2693 Q1919.39 67.2693 1922.88 63.421 Q1926.4 59.5726 1926.4 52.9291 L1926.4 27.2059 L1933.85 27.2059 L1933.85 72.576 L1926.4 72.576 L1926.4 65.6084 Q1923.69 69.7404 1920.08 71.7658 Q1916.52 73.7508 1911.78 73.7508 Q1903.96 73.7508 1899.91 68.8897 Q1895.86 64.0286 1895.86 54.671 M1914.61 26.1121 L1914.61 26.1121 Z" fill="#000000" fill-rule="evenodd" fill-opacity="1" /><path clip-path="url(#clip890)" d="M 0 0 M1949.05 14.324 L1949.05 27.2059 L1964.4 27.2059 L1964.4 32.9987 L1949.05 32.9987 L1949.05 57.6282 Q1949.05 63.1779 1950.54 64.7578 Q1952.08 66.3376 1956.74 66.3376 L1964.4 66.3376 L1964.4 72.576 L1956.74 72.576 Q1948.11 72.576 1944.83 69.3758 Q1941.55 66.1351 1941.55 57.6282 L1941.55 32.9987 L1936.08 32.9987 L1936.08 27.2059 L1941.55 27.2059 L1941.55 14.324 L1949.05 14.324 Z" fill="#000000" fill-rule="evenodd" fill-opacity="1" /><path clip-path="url(#clip890)" d="M 0 0 M2001.14 28.5427 L2001.14 35.5912 Q1997.98 33.9709 1994.58 33.1607 Q1991.17 32.3505 1987.53 32.3505 Q1981.98 32.3505 1979.18 34.0519 Q1976.43 35.7533 1976.43 39.156 Q1976.43 41.7486 1978.41 43.2475 Q1980.4 44.7058 1986.39 46.0426 L1988.95 46.6097 Q1996.89 48.3111 2000.21 51.4303 Q2003.57 54.509 2003.57 60.0587 Q2003.57 66.3781 1998.55 70.0644 Q1993.56 73.7508 1984.81 73.7508 Q1981.17 73.7508 1977.2 73.0216 Q1973.27 72.3329 1968.89 70.9151 L1968.89 63.2184 Q1973.03 65.3654 1977.04 66.4591 Q1981.05 67.5124 1984.98 67.5124 Q1990.24 67.5124 1993.08 65.73 Q1995.91 63.9071 1995.91 60.6258 Q1995.91 57.5877 1993.85 55.9673 Q1991.82 54.3469 1984.9 52.8481 L1982.3 52.2405 Q1975.38 50.7821 1972.3 47.7845 Q1969.22 44.7463 1969.22 39.4801 Q1969.22 33.0797 1973.76 29.5959 Q1978.29 26.1121 1986.64 26.1121 Q1990.77 26.1121 1994.42 26.7198 Q1998.06 27.3274 2001.14 28.5427 Z" fill="#000000" fill-rule="evenodd" fill-opacity="1" /><path clip-path="url(#clip890)" d="M 0 0 M2044.04 28.9478 L2044.04 35.9153 Q2040.88 34.1734 2037.68 33.3227 Q2034.52 32.4315 2031.28 32.4315 Q2024.03 32.4315 2020.02 37.0496 Q2016.01 41.6271 2016.01 49.9314 Q2016.01 58.2358 2020.02 62.8538 Q2024.03 67.4314 2031.28 67.4314 Q2034.52 67.4314 2037.68 66.5807 Q2040.88 65.6895 2044.04 63.9476 L2044.04 70.8341 Q2040.92 72.2924 2037.56 73.0216 Q2034.24 73.7508 2030.47 73.7508 Q2020.22 73.7508 2014.18 67.3098 Q2008.15 60.8689 2008.15 49.9314 Q2008.15 38.832 2014.22 32.472 Q2020.34 26.1121 2030.95 26.1121 Q2034.4 26.1121 2037.68 26.8413 Q2040.96 27.5299 2044.04 28.9478 Z" fill="#000000" fill-rule="evenodd" fill-opacity="1" /><path clip-path="url(#clip890)" d="M 0 0 M2089.57 45.1919 L2089.57 72.576 L2082.12 72.576 L2082.12 45.4349 Q2082.12 38.994 2079.61 35.7938 Q2077.09 32.5936 2072.07 32.5936 Q2066.04 32.5936 2062.55 36.4419 Q2059.07 40.2903 2059.07 46.9338 L2059.07 72.576 L2051.57 72.576 L2051.57 9.54393 L2059.07 9.54393 L2059.07 34.2544 Q2061.74 30.163 2065.35 28.1376 Q2068.99 26.1121 2073.73 26.1121 Q2081.55 26.1121 2085.56 30.9732 Q2089.57 35.7938 2089.57 45.1919 Z" fill="#000000" fill-rule="evenodd" fill-opacity="1" /><path clip-path="url(#clip890)" d="M 0 0 M2097.39 9.54393 L2104.84 9.54393 L2104.84 72.576 L2097.39 72.576 L2097.39 9.54393 Z" fill="#000000" fill-rule="evenodd" fill-opacity="1" /><path clip-path="url(#clip890)" d="M 0 0 M2133.28 49.7694 Q2124.25 49.7694 2120.76 51.8354 Q2117.28 53.9013 2117.28 58.8839 Q2117.28 62.8538 2119.87 65.2034 Q2122.5 67.5124 2127 67.5124 Q2133.2 67.5124 2136.93 63.1374 Q2140.69 58.7219 2140.69 51.4303 L2140.69 49.7694 L2133.28 49.7694 M2148.15 46.6907 L2148.15 72.576 L2140.69 72.576 L2140.69 65.6895 Q2138.14 69.8214 2134.33 71.8063 Q2130.53 73.7508 2125.02 73.7508 Q2118.05 73.7508 2113.92 69.8619 Q2109.83 65.9325 2109.83 59.3701 Q2109.83 51.7138 2114.93 47.825 Q2120.07 43.9361 2130.24 43.9361 L2140.69 43.9361 L2140.69 43.2069 Q2140.69 38.0623 2137.29 35.2672 Q2133.93 32.4315 2127.81 32.4315 Q2123.92 32.4315 2120.24 33.3632 Q2116.55 34.295 2113.15 36.1584 L2113.15 29.2718 Q2117.24 27.692 2121.09 26.9223 Q2124.94 26.1121 2128.58 26.1121 Q2138.42 26.1121 2143.29 31.2163 Q2148.15 36.3204 2148.15 46.6907 Z" fill="#000000" fill-rule="evenodd" fill-opacity="1" /><path clip-path="url(#clip890)" d="M 0 0 M2193.68 45.1919 L2193.68 72.576 L2186.23 72.576 L2186.23 45.4349 Q2186.23 38.994 2183.71 35.7938 Q2181.2 32.5936 2176.18 32.5936 Q2170.14 32.5936 2166.66 36.4419 Q2163.18 40.2903 2163.18 46.9338 L2163.18 72.576 L2155.68 72.576 L2155.68 27.2059 L2163.18 27.2059 L2163.18 34.2544 Q2165.85 30.163 2169.45 28.1376 Q2173.1 26.1121 2177.84 26.1121 Q2185.66 26.1121 2189.67 30.9732 Q2193.68 35.7938 2193.68 45.1919 Z" fill="#000000" fill-rule="evenodd" fill-opacity="1" /><path clip-path="url(#clip890)" d="M 0 0 M2231.35 34.0924 L2231.35 9.54393 L2238.81 9.54393 L2238.81 72.576 L2231.35 72.576 L2231.35 65.7705 Q2229 69.8214 2225.4 71.8063 Q2221.83 73.7508 2216.81 73.7508 Q2208.59 73.7508 2203.4 67.1883 Q2198.26 60.6258 2198.26 49.9314 Q2198.26 39.2371 2203.4 32.6746 Q2208.59 26.1121 2216.81 26.1121 Q2221.83 26.1121 2225.4 28.0971 Q2229 30.0415 2231.35 34.0924 M2205.95 49.9314 Q2205.95 58.1548 2209.32 62.8538 Q2212.72 67.5124 2218.63 67.5124 Q2224.55 67.5124 2227.95 62.8538 Q2231.35 58.1548 2231.35 49.9314 Q2231.35 41.7081 2227.95 37.0496 Q2224.55 32.3505 2218.63 32.3505 Q2212.72 32.3505 2209.32 37.0496 Q2205.95 41.7081 2205.95 49.9314 Z" fill="#000000" fill-rule="evenodd" fill-opacity="1" /><polyline clip-path="url(#clip892)" style="stroke:#006298; stroke-width:12; stroke-opacity:1; fill:none" points="
  330.155,642.694 367.918,642.874 405.681,634.761 443.445,631.381 481.208,641.522 518.971,638.502 556.734,641.206 594.498,641.882 632.261,620.654 670.024,622.592 
  707.788,618.761 745.551,625.747 783.314,635.753 821.077,653.195 858.841,678.615 896.604,721.432 934.367,707.956 972.131,714.672 1009.89,680.778 1047.66,728.509 
  1085.42,743.247 1123.18,740.678 1160.95,767.269 1198.71,771.01 1236.47,715.438 1274.24,771.191 1312,747.438 1349.76,748.745 1387.53,711.156 1425.29,750.097 
  1463.05,783.495 1500.82,781.557 1538.58,744.599 1576.34,702.998 1614.11,752.486 1651.87,751.63 1689.63,739.506 1727.4,775.968 1765.16,740.993 1802.92,740.452 
  1840.69,689.793 1878.45,681.635 1916.21,681.77 1953.98,682.491 1991.74,673.071 2029.5,634.851 2067.27,666.852 2105.03,655.178 2142.79,625.477 2180.56,621.646 
  2218.32,597.893 2256.08,580.586 
  "/>
<polyline clip-path="url(#clip892)" style="stroke:#a02438; stroke-width:12; stroke-opacity:1; fill:none" points="
  330.155,547.053 367.918,493.96 405.681,532.495 443.445,493.103 481.208,422.342 518.971,463.086 556.734,465.881 594.498,485.126 632.261,546.287 670.024,629.984 
  707.788,650.356 745.551,697.455 783.314,693.083 821.077,725.309 858.841,731.123 896.604,743.292 934.367,697.365 972.131,720.846 1009.89,710.615 1047.66,722.694 
  1085.42,751.359 1123.18,730.897 1160.95,779.123 1198.71,768.396 1236.47,734.773 1274.24,768.937 1312,752.621 1349.76,790.436 1387.53,745.275 1425.29,769.839 
  1463.05,749.782 1500.82,782.549 1538.58,765.422 1576.34,777.771 1614.11,768.757 1651.87,785.568 1689.63,765.692 1727.4,749.241 1765.16,737.883 1802.92,741.669 
  1840.69,704.396 1878.45,719.404 1916.21,723.235 1953.98,737.117 1991.74,709.128 2029.5,698.807 2067.27,694.615 2105.03,685.826 2142.79,666.671 2180.56,656.666 
  2218.32,657.116 2256.08,650.401 
  "/>
<polyline clip-path="url(#clip892)" style="stroke:#449adc; stroke-width:12; stroke-opacity:1; fill:none" points="
  330.155,632.147 367.918,657.928 405.681,639.358 443.445,639.854 481.208,622.457 518.971,598.569 556.734,545.791 594.498,471.785 632.261,352.347 670.024,296.414 
  707.788,404.224 745.551,476.968 783.314,561.521 821.077,600.733 858.841,640.215 896.604,693.173 934.367,733.782 972.131,747.528 1009.89,727.607 1047.66,760.96 
  1085.42,759.968 1123.18,736.035 1160.95,750.864 1198.71,802.019 1236.47,790.165 1274.24,757.399 1312,754.965 1349.76,779.844 1387.53,751.314 1425.29,677.308 
  1463.05,585.634 1500.82,671.133 1538.58,743.021 1576.34,755.371 1614.11,782.954 1651.87,765.377 1689.63,769.793 1727.4,753.613 1765.16,784.487 1802.92,754.875 
  1840.69,738.154 1878.45,758.12 1916.21,755.686 1953.98,742.661 1991.74,710.57 2029.5,745.095 2067.27,702.503 2105.03,688.711 2142.79,677.173 2180.56,695.291 
  2218.32,647.877 2256.08,694.66 
  "/>
<polyline clip-path="url(#clip892)" style="stroke:#002b52; stroke-width:12; stroke-opacity:1; fill:none" points="
  330.155,673.387 367.918,652.429 405.681,652.204 443.445,637.195 481.208,623.538 518.971,615.922 556.734,608.575 594.498,599.381 632.261,580.27 670.024,595.009 
  707.788,624.079 745.551,658.829 783.314,679.156 821.077,674.333 858.841,710.976 896.604,700.204 934.367,708.993 972.131,744.869 1009.89,743.742 1047.66,734.954 
  1085.42,745.275 1123.18,751.855 1160.95,726.706 1198.71,771.777 1236.47,765.061 1274.24,708.091 1312,768.802 1349.76,779.168 1387.53,755.551 1425.29,632.147 
  1463.05,747.123 1500.82,769.298 1538.58,796.295 1576.34,781.422 1614.11,720.576 1651.87,793.726 1689.63,780.025 1727.4,771.01 1765.16,731.168 1802.92,753.252 
  1840.69,719.314 1878.45,717.151 1916.21,734.458 1953.98,727.156 1991.74,710.751 2029.5,693.894 2067.27,680.914 2105.03,678.705 2142.79,653.691 2180.56,655.268 
  2218.32,657.477 2256.08,695.832 
  "/>
<polyline clip-path="url(#clip892)" style="stroke:#ec4a60; stroke-width:12; stroke-opacity:1; fill:none" points="
  330.155,685.871 367.918,662.525 405.681,673.522 443.445,683.302 481.208,646.57 518.971,679.381 556.734,653.195 594.498,683.708 632.261,660.271 670.024,653.781 
  707.788,643.325 745.551,648.598 783.314,651.663 821.077,609.927 858.841,616.823 896.604,669.285 934.367,701.105 972.131,728.463 1009.89,740.542 1047.66,768.261 
  1085.42,761.23 1123.18,778.222 1160.95,756.588 1198.71,785.703 1236.47,793.726 1274.24,755.596 1312,792.104 1349.76,804.588 1387.53,788.182 1425.29,772.813 
  1463.05,750.909 1500.82,747.619 1538.58,653.466 1576.34,745.41 1614.11,784.802 1651.87,780.701 1689.63,764.926 1727.4,745.59 1765.16,751.855 1802.92,744.689 
  1840.69,750.909 1878.45,739.1 1916.21,703.359 1953.98,704.846 1991.74,684.159 2029.5,656.936 2067.27,637.556 2105.03,592.259 2142.79,536.101 2180.56,482.557 
  2218.32,457.452 2256.08,434.151 2293.85,446.275 
  "/>
<path clip-path="url(#clip890)" d="
M1950.17 1457.18 L2283.37 1457.18 L2283.37 1094.3 L1950.17 1094.3  Z
  " fill="#ffffff" fill-rule="evenodd" fill-opacity="1"/>
<polyline clip-path="url(#clip890)" style="stroke:#000000; stroke-width:4; stroke-opacity:1; fill:none" points="
  1950.17,1457.18 2283.37,1457.18 2283.37,1094.3 1950.17,1094.3 1950.17,1457.18 
  "/>
<polyline clip-path="url(#clip890)" style="stroke:#006298; stroke-width:4; stroke-opacity:1; fill:none" points="
  1973.3,1154.78 2112.07,1154.78 
  "/>
<path clip-path="url(#clip890)" d="M 0 0 M2140.82 1168.13 L2157.14 1168.13 L2157.14 1172.06 L2135.2 1172.06 L2135.2 1168.13 Q2137.86 1165.37 2142.44 1160.74 Q2147.05 1156.09 2148.23 1154.75 Q2150.47 1152.23 2151.35 1150.49 Q2152.26 1148.73 2152.26 1147.04 Q2152.26 1144.29 2150.31 1142.55 Q2148.39 1140.81 2145.29 1140.81 Q2143.09 1140.81 2140.64 1141.58 Q2138.2 1142.34 2135.43 1143.89 L2135.43 1139.17 Q2138.25 1138.04 2140.7 1137.46 Q2143.16 1136.88 2145.2 1136.88 Q2150.57 1136.88 2153.76 1139.56 Q2156.95 1142.25 2156.95 1146.74 Q2156.95 1148.87 2156.14 1150.79 Q2155.36 1152.69 2153.25 1155.28 Q2152.67 1155.95 2149.57 1159.17 Q2146.47 1162.37 2140.82 1168.13 Z" fill="#000000" fill-rule="evenodd" fill-opacity="1" /><path clip-path="url(#clip890)" d="M 0 0 M2172.21 1140.58 Q2168.6 1140.58 2166.77 1144.15 Q2164.96 1147.69 2164.96 1154.82 Q2164.96 1161.93 2166.77 1165.49 Q2168.6 1169.03 2172.21 1169.03 Q2175.84 1169.03 2177.65 1165.49 Q2179.48 1161.93 2179.48 1154.82 Q2179.48 1147.69 2177.65 1144.15 Q2175.84 1140.58 2172.21 1140.58 M2172.21 1136.88 Q2178.02 1136.88 2181.07 1141.49 Q2184.15 1146.07 2184.15 1154.82 Q2184.15 1163.55 2181.07 1168.15 Q2178.02 1172.74 2172.21 1172.74 Q2166.4 1172.74 2163.32 1168.15 Q2160.26 1163.55 2160.26 1154.82 Q2160.26 1146.07 2163.32 1141.49 Q2166.4 1136.88 2172.21 1136.88 Z" fill="#000000" fill-rule="evenodd" fill-opacity="1" /><path clip-path="url(#clip890)" d="M 0 0 M2190.03 1168.13 L2197.67 1168.13 L2197.67 1141.76 L2189.36 1143.43 L2189.36 1139.17 L2197.63 1137.5 L2202.3 1137.5 L2202.3 1168.13 L2209.94 1168.13 L2209.94 1172.06 L2190.03 1172.06 L2190.03 1168.13 Z" fill="#000000" fill-rule="evenodd" fill-opacity="1" /><path clip-path="url(#clip890)" d="M 0 0 M2225.59 1152.92 Q2222.44 1152.92 2220.59 1155.07 Q2218.76 1157.23 2218.76 1160.98 Q2218.76 1164.7 2220.59 1166.88 Q2222.44 1169.03 2225.59 1169.03 Q2228.74 1169.03 2230.57 1166.88 Q2232.42 1164.7 2232.42 1160.98 Q2232.42 1157.23 2230.57 1155.07 Q2228.74 1152.92 2225.59 1152.92 M2234.87 1138.27 L2234.87 1142.53 Q2233.11 1141.69 2231.31 1141.25 Q2229.52 1140.81 2227.76 1140.81 Q2223.13 1140.81 2220.68 1143.94 Q2218.25 1147.06 2217.9 1153.38 Q2219.27 1151.37 2221.33 1150.31 Q2223.39 1149.22 2225.87 1149.22 Q2231.07 1149.22 2234.08 1152.39 Q2237.12 1155.54 2237.12 1160.98 Q2237.12 1166.3 2233.97 1169.52 Q2230.82 1172.74 2225.59 1172.74 Q2219.59 1172.74 2216.42 1168.15 Q2213.25 1163.55 2213.25 1154.82 Q2213.25 1146.62 2217.14 1141.76 Q2221.03 1136.88 2227.58 1136.88 Q2229.34 1136.88 2231.12 1137.23 Q2232.93 1137.57 2234.87 1138.27 Z" fill="#000000" fill-rule="evenodd" fill-opacity="1" /><polyline clip-path="url(#clip890)" style="stroke:#a02438; stroke-width:4; stroke-opacity:1; fill:none" points="
  1973.3,1215.26 2112.07,1215.26 
  "/>
<path clip-path="url(#clip890)" d="M 0 0 M2140.82 1228.61 L2157.14 1228.61 L2157.14 1232.54 L2135.2 1232.54 L2135.2 1228.61 Q2137.86 1225.85 2142.44 1221.22 Q2147.05 1216.57 2148.23 1215.23 Q2150.47 1212.71 2151.35 1210.97 Q2152.26 1209.21 2152.26 1207.52 Q2152.26 1204.77 2150.31 1203.03 Q2148.39 1201.29 2145.29 1201.29 Q2143.09 1201.29 2140.64 1202.06 Q2138.2 1202.82 2135.43 1204.37 L2135.43 1199.65 Q2138.25 1198.52 2140.7 1197.94 Q2143.16 1197.36 2145.2 1197.36 Q2150.57 1197.36 2153.76 1200.04 Q2156.95 1202.73 2156.95 1207.22 Q2156.95 1209.35 2156.14 1211.27 Q2155.36 1213.17 2153.25 1215.76 Q2152.67 1216.43 2149.57 1219.65 Q2146.47 1222.85 2140.82 1228.61 Z" fill="#000000" fill-rule="evenodd" fill-opacity="1" /><path clip-path="url(#clip890)" d="M 0 0 M2172.21 1201.06 Q2168.6 1201.06 2166.77 1204.63 Q2164.96 1208.17 2164.96 1215.3 Q2164.96 1222.41 2166.77 1225.97 Q2168.6 1229.51 2172.21 1229.51 Q2175.84 1229.51 2177.65 1225.97 Q2179.48 1222.41 2179.48 1215.3 Q2179.48 1208.17 2177.65 1204.63 Q2175.84 1201.06 2172.21 1201.06 M2172.21 1197.36 Q2178.02 1197.36 2181.07 1201.97 Q2184.15 1206.55 2184.15 1215.3 Q2184.15 1224.03 2181.07 1228.63 Q2178.02 1233.22 2172.21 1233.22 Q2166.4 1233.22 2163.32 1228.63 Q2160.26 1224.03 2160.26 1215.3 Q2160.26 1206.55 2163.32 1201.97 Q2166.4 1197.36 2172.21 1197.36 Z" fill="#000000" fill-rule="evenodd" fill-opacity="1" /><path clip-path="url(#clip890)" d="M 0 0 M2190.03 1228.61 L2197.67 1228.61 L2197.67 1202.24 L2189.36 1203.91 L2189.36 1199.65 L2197.63 1197.98 L2202.3 1197.98 L2202.3 1228.61 L2209.94 1228.61 L2209.94 1232.54 L2190.03 1232.54 L2190.03 1228.61 Z" fill="#000000" fill-rule="evenodd" fill-opacity="1" /><path clip-path="url(#clip890)" d="M 0 0 M2213.83 1197.98 L2236.05 1197.98 L2236.05 1199.97 L2223.51 1232.54 L2218.62 1232.54 L2230.43 1201.92 L2213.83 1201.92 L2213.83 1197.98 Z" fill="#000000" fill-rule="evenodd" fill-opacity="1" /><polyline clip-path="url(#clip890)" style="stroke:#449adc; stroke-width:4; stroke-opacity:1; fill:none" points="
  1973.3,1275.74 2112.07,1275.74 
  "/>
<path clip-path="url(#clip890)" d="M 0 0 M2140.82 1289.09 L2157.14 1289.09 L2157.14 1293.02 L2135.2 1293.02 L2135.2 1289.09 Q2137.86 1286.33 2142.44 1281.7 Q2147.05 1277.05 2148.23 1275.71 Q2150.47 1273.19 2151.35 1271.45 Q2152.26 1269.69 2152.26 1268 Q2152.26 1265.25 2150.31 1263.51 Q2148.39 1261.77 2145.29 1261.77 Q2143.09 1261.77 2140.64 1262.54 Q2138.2 1263.3 2135.43 1264.85 L2135.43 1260.13 Q2138.25 1259 2140.7 1258.42 Q2143.16 1257.84 2145.2 1257.84 Q2150.57 1257.84 2153.76 1260.52 Q2156.95 1263.21 2156.95 1267.7 Q2156.95 1269.83 2156.14 1271.75 Q2155.36 1273.65 2153.25 1276.24 Q2152.67 1276.91 2149.57 1280.13 Q2146.47 1283.33 2140.82 1289.09 Z" fill="#000000" fill-rule="evenodd" fill-opacity="1" /><path clip-path="url(#clip890)" d="M 0 0 M2172.21 1261.54 Q2168.6 1261.54 2166.77 1265.11 Q2164.96 1268.65 2164.96 1275.78 Q2164.96 1282.89 2166.77 1286.45 Q2168.6 1289.99 2172.21 1289.99 Q2175.84 1289.99 2177.65 1286.45 Q2179.48 1282.89 2179.48 1275.78 Q2179.48 1268.65 2177.65 1265.11 Q2175.84 1261.54 2172.21 1261.54 M2172.21 1257.84 Q2178.02 1257.84 2181.07 1262.45 Q2184.15 1267.03 2184.15 1275.78 Q2184.15 1284.51 2181.07 1289.11 Q2178.02 1293.7 2172.21 1293.7 Q2166.4 1293.7 2163.32 1289.11 Q2160.26 1284.51 2160.26 1275.78 Q2160.26 1267.03 2163.32 1262.45 Q2166.4 1257.84 2172.21 1257.84 Z" fill="#000000" fill-rule="evenodd" fill-opacity="1" /><path clip-path="url(#clip890)" d="M 0 0 M2190.03 1289.09 L2197.67 1289.09 L2197.67 1262.72 L2189.36 1264.39 L2189.36 1260.13 L2197.63 1258.46 L2202.3 1258.46 L2202.3 1289.09 L2209.94 1289.09 L2209.94 1293.02 L2190.03 1293.02 L2190.03 1289.09 Z" fill="#000000" fill-rule="evenodd" fill-opacity="1" /><path clip-path="url(#clip890)" d="M 0 0 M2225.01 1276.61 Q2221.68 1276.61 2219.76 1278.39 Q2217.86 1280.18 2217.86 1283.3 Q2217.86 1286.43 2219.76 1288.21 Q2221.68 1289.99 2225.01 1289.99 Q2228.34 1289.99 2230.26 1288.21 Q2232.19 1286.4 2232.19 1283.3 Q2232.19 1280.18 2230.26 1278.39 Q2228.37 1276.61 2225.01 1276.61 M2220.33 1274.62 Q2217.32 1273.88 2215.63 1271.82 Q2213.97 1269.76 2213.97 1266.8 Q2213.97 1262.65 2216.91 1260.25 Q2219.87 1257.84 2225.01 1257.84 Q2230.17 1257.84 2233.11 1260.25 Q2236.05 1262.65 2236.05 1266.8 Q2236.05 1269.76 2234.36 1271.82 Q2232.7 1273.88 2229.71 1274.62 Q2233.09 1275.41 2234.96 1277.7 Q2236.86 1279.99 2236.86 1283.3 Q2236.86 1288.33 2233.78 1291.01 Q2230.73 1293.7 2225.01 1293.7 Q2219.29 1293.7 2216.21 1291.01 Q2213.16 1288.33 2213.16 1283.3 Q2213.16 1279.99 2215.06 1277.7 Q2216.95 1275.41 2220.33 1274.62 M2218.62 1267.24 Q2218.62 1269.92 2220.29 1271.43 Q2221.98 1272.93 2225.01 1272.93 Q2228.02 1272.93 2229.71 1271.43 Q2231.42 1269.92 2231.42 1267.24 Q2231.42 1264.55 2229.71 1263.05 Q2228.02 1261.54 2225.01 1261.54 Q2221.98 1261.54 2220.29 1263.05 Q2218.62 1264.55 2218.62 1267.24 Z" fill="#000000" fill-rule="evenodd" fill-opacity="1" /><polyline clip-path="url(#clip890)" style="stroke:#002b52; stroke-width:4; stroke-opacity:1; fill:none" points="
  1973.3,1336.22 2112.07,1336.22 
  "/>
<path clip-path="url(#clip890)" d="M 0 0 M2140.82 1349.57 L2157.14 1349.57 L2157.14 1353.5 L2135.2 1353.5 L2135.2 1349.57 Q2137.86 1346.81 2142.44 1342.18 Q2147.05 1337.53 2148.23 1336.19 Q2150.47 1333.67 2151.35 1331.93 Q2152.26 1330.17 2152.26 1328.48 Q2152.26 1325.73 2150.31 1323.99 Q2148.39 1322.25 2145.29 1322.25 Q2143.09 1322.25 2140.64 1323.02 Q2138.2 1323.78 2135.43 1325.33 L2135.43 1320.61 Q2138.25 1319.48 2140.7 1318.9 Q2143.16 1318.32 2145.2 1318.32 Q2150.57 1318.32 2153.76 1321 Q2156.95 1323.69 2156.95 1328.18 Q2156.95 1330.31 2156.14 1332.23 Q2155.36 1334.13 2153.25 1336.72 Q2152.67 1337.39 2149.57 1340.61 Q2146.47 1343.81 2140.82 1349.57 Z" fill="#000000" fill-rule="evenodd" fill-opacity="1" /><path clip-path="url(#clip890)" d="M 0 0 M2172.21 1322.02 Q2168.6 1322.02 2166.77 1325.59 Q2164.96 1329.13 2164.96 1336.26 Q2164.96 1343.37 2166.77 1346.93 Q2168.6 1350.47 2172.21 1350.47 Q2175.84 1350.47 2177.65 1346.93 Q2179.48 1343.37 2179.48 1336.26 Q2179.48 1329.13 2177.65 1325.59 Q2175.84 1322.02 2172.21 1322.02 M2172.21 1318.32 Q2178.02 1318.32 2181.07 1322.93 Q2184.15 1327.51 2184.15 1336.26 Q2184.15 1344.99 2181.07 1349.59 Q2178.02 1354.18 2172.21 1354.18 Q2166.4 1354.18 2163.32 1349.59 Q2160.26 1344.99 2160.26 1336.26 Q2160.26 1327.51 2163.32 1322.93 Q2166.4 1318.32 2172.21 1318.32 Z" fill="#000000" fill-rule="evenodd" fill-opacity="1" /><path clip-path="url(#clip890)" d="M 0 0 M2190.03 1349.57 L2197.67 1349.57 L2197.67 1323.2 L2189.36 1324.87 L2189.36 1320.61 L2197.63 1318.94 L2202.3 1318.94 L2202.3 1349.57 L2209.94 1349.57 L2209.94 1353.5 L2190.03 1353.5 L2190.03 1349.57 Z" fill="#000000" fill-rule="evenodd" fill-opacity="1" /><path clip-path="url(#clip890)" d="M 0 0 M2215.15 1352.79 L2215.15 1348.53 Q2216.91 1349.36 2218.71 1349.8 Q2220.52 1350.24 2222.26 1350.24 Q2226.88 1350.24 2229.32 1347.14 Q2231.77 1344.01 2232.12 1337.67 Q2230.77 1339.66 2228.71 1340.73 Q2226.65 1341.79 2224.15 1341.79 Q2218.97 1341.79 2215.94 1338.67 Q2212.93 1335.52 2212.93 1330.08 Q2212.93 1324.75 2216.07 1321.54 Q2219.22 1318.32 2224.45 1318.32 Q2230.45 1318.32 2233.6 1322.93 Q2236.77 1327.51 2236.77 1336.26 Q2236.77 1344.43 2232.88 1349.31 Q2229.01 1354.18 2222.46 1354.18 Q2220.7 1354.18 2218.9 1353.83 Q2217.09 1353.48 2215.15 1352.79 M2224.45 1338.13 Q2227.6 1338.13 2229.43 1335.98 Q2231.28 1333.83 2231.28 1330.08 Q2231.28 1326.35 2229.43 1324.2 Q2227.6 1322.02 2224.45 1322.02 Q2221.31 1322.02 2219.45 1324.2 Q2217.63 1326.35 2217.63 1330.08 Q2217.63 1333.83 2219.45 1335.98 Q2221.31 1338.13 2224.45 1338.13 Z" fill="#000000" fill-rule="evenodd" fill-opacity="1" /><polyline clip-path="url(#clip890)" style="stroke:#ec4a60; stroke-width:4; stroke-opacity:1; fill:none" points="
  1973.3,1396.7 2112.07,1396.7 
  "/>
<path clip-path="url(#clip890)" d="M 0 0 M2140.82 1410.05 L2157.14 1410.05 L2157.14 1413.98 L2135.2 1413.98 L2135.2 1410.05 Q2137.86 1407.29 2142.44 1402.66 Q2147.05 1398.01 2148.23 1396.67 Q2150.47 1394.15 2151.35 1392.41 Q2152.26 1390.65 2152.26 1388.96 Q2152.26 1386.21 2150.31 1384.47 Q2148.39 1382.73 2145.29 1382.73 Q2143.09 1382.73 2140.64 1383.5 Q2138.2 1384.26 2135.43 1385.81 L2135.43 1381.09 Q2138.25 1379.96 2140.7 1379.38 Q2143.16 1378.8 2145.2 1378.8 Q2150.57 1378.8 2153.76 1381.48 Q2156.95 1384.17 2156.95 1388.66 Q2156.95 1390.79 2156.14 1392.71 Q2155.36 1394.61 2153.25 1397.2 Q2152.67 1397.87 2149.57 1401.09 Q2146.47 1404.29 2140.82 1410.05 Z" fill="#000000" fill-rule="evenodd" fill-opacity="1" /><path clip-path="url(#clip890)" d="M 0 0 M2172.21 1382.5 Q2168.6 1382.5 2166.77 1386.07 Q2164.96 1389.61 2164.96 1396.74 Q2164.96 1403.85 2166.77 1407.41 Q2168.6 1410.95 2172.21 1410.95 Q2175.84 1410.95 2177.65 1407.41 Q2179.48 1403.85 2179.48 1396.74 Q2179.48 1389.61 2177.65 1386.07 Q2175.84 1382.5 2172.21 1382.5 M2172.21 1378.8 Q2178.02 1378.8 2181.07 1383.41 Q2184.15 1387.99 2184.15 1396.74 Q2184.15 1405.47 2181.07 1410.07 Q2178.02 1414.66 2172.21 1414.66 Q2166.4 1414.66 2163.32 1410.07 Q2160.26 1405.47 2160.26 1396.74 Q2160.26 1387.99 2163.32 1383.41 Q2166.4 1378.8 2172.21 1378.8 Z" fill="#000000" fill-rule="evenodd" fill-opacity="1" /><path clip-path="url(#clip890)" d="M 0 0 M2193.25 1410.05 L2209.57 1410.05 L2209.57 1413.98 L2187.63 1413.98 L2187.63 1410.05 Q2190.29 1407.29 2194.87 1402.66 Q2199.48 1398.01 2200.66 1396.67 Q2202.9 1394.15 2203.78 1392.41 Q2204.69 1390.65 2204.69 1388.96 Q2204.69 1386.21 2202.74 1384.47 Q2200.82 1382.73 2197.72 1382.73 Q2195.52 1382.73 2193.07 1383.5 Q2190.64 1384.26 2187.86 1385.81 L2187.86 1381.09 Q2190.68 1379.96 2193.14 1379.38 Q2195.59 1378.8 2197.63 1378.8 Q2203 1378.8 2206.19 1381.48 Q2209.39 1384.17 2209.39 1388.66 Q2209.39 1390.79 2208.57 1392.71 Q2207.79 1394.61 2205.68 1397.2 Q2205.1 1397.87 2202 1401.09 Q2198.9 1404.29 2193.25 1410.05 Z" fill="#000000" fill-rule="evenodd" fill-opacity="1" /><path clip-path="url(#clip890)" d="M 0 0 M2224.64 1382.5 Q2221.03 1382.5 2219.2 1386.07 Q2217.39 1389.61 2217.39 1396.74 Q2217.39 1403.85 2219.2 1407.41 Q2221.03 1410.95 2224.64 1410.95 Q2228.27 1410.95 2230.08 1407.41 Q2231.91 1403.85 2231.91 1396.74 Q2231.91 1389.61 2230.08 1386.07 Q2228.27 1382.5 2224.64 1382.5 M2224.64 1378.8 Q2230.45 1378.8 2233.51 1383.41 Q2236.58 1387.99 2236.58 1396.74 Q2236.58 1405.47 2233.51 1410.07 Q2230.45 1414.66 2224.64 1414.66 Q2218.83 1414.66 2215.75 1410.07 Q2212.7 1405.47 2212.7 1396.74 Q2212.7 1387.99 2215.75 1383.41 Q2218.83 1378.8 2224.64 1378.8 Z" fill="#000000" fill-rule="evenodd" fill-opacity="1" /></svg>
