<?xml version="1.0" encoding="utf-8"?>
<svg xmlns="http://www.w3.org/2000/svg" xmlns:xlink="http://www.w3.org/1999/xlink" width="600" height="400" viewBox="0 0 2400 1600">
<defs>
  <clipPath id="clip350">
    <rect x="0" y="0" width="2400" height="1600"/>
  </clipPath>
</defs>
<path clip-path="url(#clip350)" d="
M0 1600 L2400 1600 L2400 0 L0 0  Z
  " fill="#ffffff" fill-rule="evenodd" fill-opacity="1"/>
<defs>
  <clipPath id="clip351">
    <rect x="480" y="0" width="1681" height="1600"/>
  </clipPath>
</defs>
<path clip-path="url(#clip350)" d="
M86.9921 1505.26 L2352.76 1505.26 L2352.76 62.9921 L86.9921 62.9921  Z
  " fill="#ffffff" fill-rule="evenodd" fill-opacity="1"/>
<defs>
  <clipPath id="clip352">
    <rect x="86" y="62" width="2267" height="1443"/>
  </clipPath>
</defs>
<polyline clip-path="url(#clip352)" style="stroke:#000000; stroke-width:2; stroke-opacity:0.1; fill:none" points="
  486.833,1505.26 486.833,62.9921 
  "/>
<polyline clip-path="url(#clip352)" style="stroke:#000000; stroke-width:2; stroke-opacity:0.1; fill:none" points="
  931.1,1505.26 931.1,62.9921 
  "/>
<polyline clip-path="url(#clip352)" style="stroke:#000000; stroke-width:2; stroke-opacity:0.1; fill:none" points="
  1375.37,1505.26 1375.37,62.9921 
  "/>
<polyline clip-path="url(#clip352)" style="stroke:#000000; stroke-width:2; stroke-opacity:0.1; fill:none" points="
  1819.64,1505.26 1819.64,62.9921 
  "/>
<polyline clip-path="url(#clip352)" style="stroke:#000000; stroke-width:2; stroke-opacity:0.1; fill:none" points="
  2263.9,1505.26 2263.9,62.9921 
  "/>
<polyline clip-path="url(#clip350)" style="stroke:#000000; stroke-width:4; stroke-opacity:1; fill:none" points="
  86.9921,1505.26 2352.76,1505.26 
  "/>
<polyline clip-path="url(#clip350)" style="stroke:#000000; stroke-width:4; stroke-opacity:1; fill:none" points="
  486.833,1505.26 486.833,1487.95 
  "/>
<polyline clip-path="url(#clip350)" style="stroke:#000000; stroke-width:4; stroke-opacity:1; fill:none" points="
  931.1,1505.26 931.1,1487.95 
  "/>
<polyline clip-path="url(#clip350)" style="stroke:#000000; stroke-width:4; stroke-opacity:1; fill:none" points="
  1375.37,1505.26 1375.37,1487.95 
  "/>
<polyline clip-path="url(#clip350)" style="stroke:#000000; stroke-width:4; stroke-opacity:1; fill:none" points="
  1819.64,1505.26 1819.64,1487.95 
  "/>
<polyline clip-path="url(#clip350)" style="stroke:#000000; stroke-width:4; stroke-opacity:1; fill:none" points="
  2263.9,1505.26 2263.9,1487.95 
  "/>
<path clip-path="url(#clip350)" d="M 0 0 M463.708 1562 L471.347 1562 L471.347 1535.63 L463.037 1537.3 L463.037 1533.04 L471.3 1531.37 L475.976 1531.37 L475.976 1562 L483.615 1562 L483.615 1565.93 L463.708 1565.93 L463.708 1562 Z" fill="#000000" fill-rule="evenodd" fill-opacity="1" /><path clip-path="url(#clip350)" d="M 0 0 M498.685 1534.45 Q495.073 1534.45 493.245 1538.02 Q491.439 1541.56 491.439 1548.69 Q491.439 1555.79 493.245 1559.36 Q495.073 1562.9 498.685 1562.9 Q502.319 1562.9 504.124 1559.36 Q505.953 1555.79 505.953 1548.69 Q505.953 1541.56 504.124 1538.02 Q502.319 1534.45 498.685 1534.45 M498.685 1530.75 Q504.495 1530.75 507.55 1535.35 Q510.629 1539.94 510.629 1548.69 Q510.629 1557.41 507.55 1562.02 Q504.495 1566.6 498.685 1566.6 Q492.874 1566.6 489.796 1562.02 Q486.74 1557.41 486.74 1548.69 Q486.74 1539.94 489.796 1535.35 Q492.874 1530.75 498.685 1530.75 Z" fill="#000000" fill-rule="evenodd" fill-opacity="1" /><path clip-path="url(#clip350)" d="M 0 0 M912.246 1562 L928.565 1562 L928.565 1565.93 L906.621 1565.93 L906.621 1562 Q909.283 1559.24 913.866 1554.61 Q918.473 1549.96 919.654 1548.62 Q921.899 1546.09 922.778 1544.36 Q923.681 1542.6 923.681 1540.91 Q923.681 1538.15 921.737 1536.42 Q919.816 1534.68 916.714 1534.68 Q914.515 1534.68 912.061 1535.45 Q909.63 1536.21 906.853 1537.76 L906.853 1533.04 Q909.677 1531.9 912.13 1531.33 Q914.584 1530.75 916.621 1530.75 Q921.991 1530.75 925.186 1533.43 Q928.38 1536.12 928.38 1540.61 Q928.38 1542.74 927.57 1544.66 Q926.783 1546.56 924.677 1549.15 Q924.098 1549.82 920.996 1553.04 Q917.894 1556.23 912.246 1562 Z" fill="#000000" fill-rule="evenodd" fill-opacity="1" /><path clip-path="url(#clip350)" d="M 0 0 M943.635 1534.45 Q940.024 1534.45 938.195 1538.02 Q936.39 1541.56 936.39 1548.69 Q936.39 1555.79 938.195 1559.36 Q940.024 1562.9 943.635 1562.9 Q947.269 1562.9 949.075 1559.36 Q950.903 1555.79 950.903 1548.69 Q950.903 1541.56 949.075 1538.02 Q947.269 1534.45 943.635 1534.45 M943.635 1530.75 Q949.445 1530.75 952.501 1535.35 Q955.579 1539.94 955.579 1548.69 Q955.579 1557.41 952.501 1562.02 Q949.445 1566.6 943.635 1566.6 Q937.825 1566.6 934.746 1562.02 Q931.69 1557.41 931.69 1548.69 Q931.69 1539.94 934.746 1535.35 Q937.825 1530.75 943.635 1530.75 Z" fill="#000000" fill-rule="evenodd" fill-opacity="1" /><path clip-path="url(#clip350)" d="M 0 0 M1366.11 1547.3 Q1369.46 1548.02 1371.34 1550.28 Q1373.24 1552.55 1373.24 1555.89 Q1373.24 1561 1369.72 1563.8 Q1366.2 1566.6 1359.72 1566.6 Q1357.54 1566.6 1355.23 1566.16 Q1352.94 1565.75 1350.48 1564.89 L1350.48 1560.38 Q1352.43 1561.51 1354.74 1562.09 Q1357.06 1562.67 1359.58 1562.67 Q1363.98 1562.67 1366.27 1560.93 Q1368.59 1559.2 1368.59 1555.89 Q1368.59 1552.83 1366.43 1551.12 Q1364.3 1549.38 1360.48 1549.38 L1356.46 1549.38 L1356.46 1545.54 L1360.67 1545.54 Q1364.12 1545.54 1365.95 1544.17 Q1367.78 1542.78 1367.78 1540.19 Q1367.78 1537.53 1365.88 1536.12 Q1364 1534.68 1360.48 1534.68 Q1358.56 1534.68 1356.36 1535.1 Q1354.16 1535.52 1351.53 1536.39 L1351.53 1532.23 Q1354.19 1531.49 1356.5 1531.12 Q1358.84 1530.75 1360.9 1530.75 Q1366.22 1530.75 1369.33 1533.18 Q1372.43 1535.58 1372.43 1539.71 Q1372.43 1542.58 1370.78 1544.57 Q1369.14 1546.53 1366.11 1547.3 Z" fill="#000000" fill-rule="evenodd" fill-opacity="1" /><path clip-path="url(#clip350)" d="M 0 0 M1388.31 1534.45 Q1384.7 1534.45 1382.87 1538.02 Q1381.06 1541.56 1381.06 1548.69 Q1381.06 1555.79 1382.87 1559.36 Q1384.7 1562.9 1388.31 1562.9 Q1391.94 1562.9 1393.75 1559.36 Q1395.58 1555.79 1395.58 1548.69 Q1395.58 1541.56 1393.75 1538.02 Q1391.94 1534.45 1388.31 1534.45 M1388.31 1530.75 Q1394.12 1530.75 1397.17 1535.35 Q1400.25 1539.94 1400.25 1548.69 Q1400.25 1557.41 1397.17 1562.02 Q1394.12 1566.6 1388.31 1566.6 Q1382.5 1566.6 1379.42 1562.02 Q1376.36 1557.41 1376.36 1548.69 Q1376.36 1539.94 1379.42 1535.35 Q1382.5 1530.75 1388.31 1530.75 Z" fill="#000000" fill-rule="evenodd" fill-opacity="1" /><path clip-path="url(#clip350)" d="M 0 0 M1809.14 1535.45 L1797.33 1553.89 L1809.14 1553.89 L1809.14 1535.45 M1807.91 1531.37 L1813.79 1531.37 L1813.79 1553.89 L1818.72 1553.89 L1818.72 1557.78 L1813.79 1557.78 L1813.79 1565.93 L1809.14 1565.93 L1809.14 1557.78 L1793.54 1557.78 L1793.54 1553.27 L1807.91 1531.37 Z" fill="#000000" fill-rule="evenodd" fill-opacity="1" /><path clip-path="url(#clip350)" d="M 0 0 M1833.79 1534.45 Q1830.18 1534.45 1828.35 1538.02 Q1826.54 1541.56 1826.54 1548.69 Q1826.54 1555.79 1828.35 1559.36 Q1830.18 1562.9 1833.79 1562.9 Q1837.42 1562.9 1839.23 1559.36 Q1841.06 1555.79 1841.06 1548.69 Q1841.06 1541.56 1839.23 1538.02 Q1837.42 1534.45 1833.79 1534.45 M1833.79 1530.75 Q1839.6 1530.75 1842.66 1535.35 Q1845.73 1539.94 1845.73 1548.69 Q1845.73 1557.41 1842.66 1562.02 Q1839.6 1566.6 1833.79 1566.6 Q1827.98 1566.6 1824.9 1562.02 Q1821.85 1557.41 1821.85 1548.69 Q1821.85 1539.94 1824.9 1535.35 Q1827.98 1530.75 1833.79 1530.75 Z" fill="#000000" fill-rule="evenodd" fill-opacity="1" /><path clip-path="url(#clip350)" d="M 0 0 M2240.67 1531.37 L2259.03 1531.37 L2259.03 1535.31 L2244.96 1535.31 L2244.96 1543.78 Q2245.97 1543.43 2246.99 1543.27 Q2248.01 1543.08 2249.03 1543.08 Q2254.82 1543.08 2258.2 1546.26 Q2261.58 1549.43 2261.58 1554.84 Q2261.58 1560.42 2258.1 1563.52 Q2254.63 1566.6 2248.31 1566.6 Q2246.14 1566.6 2243.87 1566.23 Q2241.62 1565.86 2239.22 1565.12 L2239.22 1560.42 Q2241.3 1561.56 2243.52 1562.11 Q2245.74 1562.67 2248.22 1562.67 Q2252.22 1562.67 2254.56 1560.56 Q2256.9 1558.46 2256.9 1554.84 Q2256.9 1551.23 2254.56 1549.13 Q2252.22 1547.02 2248.22 1547.02 Q2246.34 1547.02 2244.47 1547.44 Q2242.62 1547.85 2240.67 1548.73 L2240.67 1531.37 Z" fill="#000000" fill-rule="evenodd" fill-opacity="1" /><path clip-path="url(#clip350)" d="M 0 0 M2276.65 1534.45 Q2273.03 1534.45 2271.21 1538.02 Q2269.4 1541.56 2269.4 1548.69 Q2269.4 1555.79 2271.21 1559.36 Q2273.03 1562.9 2276.65 1562.9 Q2280.28 1562.9 2282.09 1559.36 Q2283.91 1555.79 2283.91 1548.69 Q2283.91 1541.56 2282.09 1538.02 Q2280.28 1534.45 2276.65 1534.45 M2276.65 1530.75 Q2282.46 1530.75 2285.51 1535.35 Q2288.59 1539.94 2288.59 1548.69 Q2288.59 1557.41 2285.51 1562.02 Q2282.46 1566.6 2276.65 1566.6 Q2270.84 1566.6 2267.76 1562.02 Q2264.7 1557.41 2264.7 1548.69 Q2264.7 1539.94 2267.76 1535.35 Q2270.84 1530.75 2276.65 1530.75 Z" fill="#000000" fill-rule="evenodd" fill-opacity="1" /><path clip-path="url(#clip350)" d="M 0 0 M997.377 1602.6 L1003.81 1602.6 L1003.81 1622.69 L1025.13 1602.6 L1033.41 1602.6 L1009.82 1624.76 L1035.09 1650.12 L1026.63 1650.12 L1003.81 1627.24 L1003.81 1650.12 L997.377 1650.12 L997.377 1602.6 Z" fill="#000000" fill-rule="evenodd" fill-opacity="1" /><path clip-path="url(#clip350)" d="M 0 0 M1056.29 1632.2 Q1049.19 1632.2 1046.46 1633.83 Q1043.72 1635.45 1043.72 1639.37 Q1043.72 1642.48 1045.76 1644.33 Q1047.82 1646.15 1051.36 1646.15 Q1056.23 1646.15 1059.16 1642.71 Q1062.12 1639.24 1062.12 1633.51 L1062.12 1632.2 L1056.29 1632.2 M1067.97 1629.79 L1067.97 1650.12 L1062.12 1650.12 L1062.12 1644.71 Q1060.11 1647.96 1057.12 1649.52 Q1054.13 1651.05 1049.8 1651.05 Q1044.32 1651.05 1041.08 1647.99 Q1037.86 1644.9 1037.86 1639.75 Q1037.86 1633.73 1041.87 1630.68 Q1045.92 1627.62 1053.9 1627.62 L1062.12 1627.62 L1062.12 1627.05 Q1062.12 1623.01 1059.44 1620.81 Q1056.8 1618.58 1051.99 1618.58 Q1048.94 1618.58 1046.04 1619.31 Q1043.15 1620.05 1040.47 1621.51 L1040.47 1616.1 Q1043.69 1614.86 1046.71 1614.25 Q1049.73 1613.62 1052.6 1613.62 Q1060.33 1613.62 1064.15 1617.63 Q1067.97 1621.64 1067.97 1629.79 Z" fill="#000000" fill-rule="evenodd" fill-opacity="1" /><path clip-path="url(#clip350)" d="M 0 0 M1074.12 1600.6 L1079.97 1600.6 L1079.97 1650.12 L1074.12 1650.12 L1074.12 1600.6 Z" fill="#000000" fill-rule="evenodd" fill-opacity="1" /><path clip-path="url(#clip350)" d="M 0 0 M1116.61 1630.84 L1116.61 1633.7 L1089.68 1633.7 Q1090.06 1639.75 1093.31 1642.93 Q1096.59 1646.08 1102.41 1646.08 Q1105.78 1646.08 1108.94 1645.25 Q1112.12 1644.43 1115.24 1642.77 L1115.24 1648.31 Q1112.09 1649.65 1108.78 1650.35 Q1105.47 1651.05 1102.06 1651.05 Q1093.53 1651.05 1088.53 1646.08 Q1083.57 1641.12 1083.57 1632.65 Q1083.57 1623.9 1088.28 1618.77 Q1093.02 1613.62 1101.04 1613.62 Q1108.24 1613.62 1112.4 1618.26 Q1116.61 1622.88 1116.61 1630.84 M1110.75 1629.12 Q1110.69 1624.31 1108.04 1621.45 Q1105.43 1618.58 1101.11 1618.58 Q1096.2 1618.58 1093.24 1621.35 Q1090.32 1624.12 1089.87 1629.15 L1110.75 1629.12 Z" fill="#000000" fill-rule="evenodd" fill-opacity="1" /><path clip-path="url(#clip350)" d="M 0 0 M1152.38 1628.61 L1152.38 1650.12 L1146.53 1650.12 L1146.53 1628.8 Q1146.53 1623.74 1144.55 1621.22 Q1142.58 1618.71 1138.63 1618.71 Q1133.89 1618.71 1131.15 1621.73 Q1128.41 1624.76 1128.41 1629.98 L1128.41 1650.12 L1122.53 1650.12 L1122.53 1614.48 L1128.41 1614.48 L1128.41 1620.01 Q1130.52 1616.8 1133.35 1615.21 Q1136.21 1613.62 1139.94 1613.62 Q1146.08 1613.62 1149.23 1617.44 Q1152.38 1621.22 1152.38 1628.61 Z" fill="#000000" fill-rule="evenodd" fill-opacity="1" /><path clip-path="url(#clip350)" d="M 0 0 M1181.98 1619.89 L1181.98 1600.6 L1187.84 1600.6 L1187.84 1650.12 L1181.98 1650.12 L1181.98 1644.78 Q1180.14 1647.96 1177.3 1649.52 Q1174.5 1651.05 1170.56 1651.05 Q1164.09 1651.05 1160.02 1645.89 Q1155.98 1640.73 1155.98 1632.33 Q1155.98 1623.93 1160.02 1618.77 Q1164.09 1613.62 1170.56 1613.62 Q1174.5 1613.62 1177.3 1615.18 Q1180.14 1616.7 1181.98 1619.89 M1162.03 1632.33 Q1162.03 1638.79 1164.67 1642.48 Q1167.34 1646.15 1171.99 1646.15 Q1176.63 1646.15 1179.31 1642.48 Q1181.98 1638.79 1181.98 1632.33 Q1181.98 1625.87 1179.31 1622.21 Q1176.63 1618.52 1171.99 1618.52 Q1167.34 1618.52 1164.67 1622.21 Q1162.03 1625.87 1162.03 1632.33 Z" fill="#000000" fill-rule="evenodd" fill-opacity="1" /><path clip-path="url(#clip350)" d="M 0 0 M1224.47 1630.84 L1224.47 1633.7 L1197.55 1633.7 Q1197.93 1639.75 1201.17 1642.93 Q1204.45 1646.08 1210.28 1646.08 Q1213.65 1646.08 1216.8 1645.25 Q1219.99 1644.43 1223.1 1642.77 L1223.1 1648.31 Q1219.95 1649.65 1216.64 1650.35 Q1213.33 1651.05 1209.93 1651.05 Q1201.4 1651.05 1196.4 1646.08 Q1191.44 1641.12 1191.44 1632.65 Q1191.44 1623.9 1196.15 1618.77 Q1200.89 1613.62 1208.91 1613.62 Q1216.1 1613.62 1220.27 1618.26 Q1224.47 1622.88 1224.47 1630.84 M1218.62 1629.12 Q1218.55 1624.31 1215.91 1621.45 Q1213.3 1618.58 1208.97 1618.58 Q1204.07 1618.58 1201.11 1621.35 Q1198.18 1624.12 1197.74 1629.15 L1218.62 1629.12 Z" fill="#000000" fill-rule="evenodd" fill-opacity="1" /><path clip-path="url(#clip350)" d="M 0 0 M1251.27 1619.95 Q1250.29 1619.38 1249.11 1619.12 Q1247.96 1618.84 1246.56 1618.84 Q1241.6 1618.84 1238.92 1622.08 Q1236.28 1625.3 1236.28 1631.35 L1236.28 1650.12 L1230.39 1650.12 L1230.39 1614.48 L1236.28 1614.48 L1236.28 1620.01 Q1238.13 1616.77 1241.09 1615.21 Q1244.05 1613.62 1248.28 1613.62 Q1248.89 1613.62 1249.62 1613.71 Q1250.35 1613.78 1251.24 1613.93 L1251.27 1619.95 Z" fill="#000000" fill-rule="evenodd" fill-opacity="1" /><path clip-path="url(#clip350)" d="M 0 0 M1254.01 1614.48 L1259.87 1614.48 L1267.19 1642.29 L1274.48 1614.48 L1281.38 1614.48 L1288.7 1642.29 L1295.99 1614.48 L1301.85 1614.48 L1292.52 1650.12 L1285.62 1650.12 L1277.95 1620.91 L1270.24 1650.12 L1263.34 1650.12 L1254.01 1614.48 Z" fill="#000000" fill-rule="evenodd" fill-opacity="1" /><path clip-path="url(#clip350)" d="M 0 0 M1321.8 1618.58 Q1317.09 1618.58 1314.36 1622.27 Q1311.62 1625.93 1311.62 1632.33 Q1311.62 1638.73 1314.33 1642.42 Q1317.06 1646.08 1321.8 1646.08 Q1326.48 1646.08 1329.22 1642.39 Q1331.96 1638.7 1331.96 1632.33 Q1331.96 1626 1329.22 1622.31 Q1326.48 1618.58 1321.8 1618.58 M1321.8 1613.62 Q1329.44 1613.62 1333.8 1618.58 Q1338.16 1623.55 1338.16 1632.33 Q1338.16 1641.08 1333.8 1646.08 Q1329.44 1651.05 1321.8 1651.05 Q1314.13 1651.05 1309.77 1646.08 Q1305.45 1641.08 1305.45 1632.33 Q1305.45 1623.55 1309.77 1618.58 Q1314.13 1613.62 1321.8 1613.62 Z" fill="#000000" fill-rule="evenodd" fill-opacity="1" /><path clip-path="url(#clip350)" d="M 0 0 M1369.96 1615.84 L1369.96 1621.32 Q1367.48 1619.95 1364.96 1619.28 Q1362.48 1618.58 1359.94 1618.58 Q1354.24 1618.58 1351.09 1622.21 Q1347.94 1625.81 1347.94 1632.33 Q1347.94 1638.86 1351.09 1642.48 Q1354.24 1646.08 1359.94 1646.08 Q1362.48 1646.08 1364.96 1645.41 Q1367.48 1644.71 1369.96 1643.34 L1369.96 1648.76 Q1367.51 1649.9 1364.87 1650.47 Q1362.26 1651.05 1359.3 1651.05 Q1351.25 1651.05 1346.5 1645.99 Q1341.76 1640.93 1341.76 1632.33 Q1341.76 1623.61 1346.54 1618.61 Q1351.34 1613.62 1359.68 1613.62 Q1362.39 1613.62 1364.96 1614.19 Q1367.54 1614.73 1369.96 1615.84 Z" fill="#000000" fill-rule="evenodd" fill-opacity="1" /><path clip-path="url(#clip350)" d="M 0 0 M1405.74 1628.61 L1405.74 1650.12 L1399.88 1650.12 L1399.88 1628.8 Q1399.88 1623.74 1397.91 1621.22 Q1395.93 1618.71 1391.99 1618.71 Q1387.24 1618.71 1384.51 1621.73 Q1381.77 1624.76 1381.77 1629.98 L1381.77 1650.12 L1375.88 1650.12 L1375.88 1600.6 L1381.77 1600.6 L1381.77 1620.01 Q1383.87 1616.8 1386.7 1615.21 Q1389.57 1613.62 1393.29 1613.62 Q1399.43 1613.62 1402.59 1617.44 Q1405.74 1621.22 1405.74 1628.61 Z" fill="#000000" fill-rule="evenodd" fill-opacity="1" /><path clip-path="url(#clip350)" d="M 0 0 M1442.37 1630.84 L1442.37 1633.7 L1415.44 1633.7 Q1415.83 1639.75 1419.07 1642.93 Q1422.35 1646.08 1428.18 1646.08 Q1431.55 1646.08 1434.7 1645.25 Q1437.88 1644.43 1441 1642.77 L1441 1648.31 Q1437.85 1649.65 1434.54 1650.35 Q1431.23 1651.05 1427.83 1651.05 Q1419.3 1651.05 1414.3 1646.08 Q1409.33 1641.12 1409.33 1632.65 Q1409.33 1623.9 1414.04 1618.77 Q1418.79 1613.62 1426.81 1613.62 Q1434 1613.62 1438.17 1618.26 Q1442.37 1622.88 1442.37 1630.84 M1436.51 1629.12 Q1436.45 1624.31 1433.81 1621.45 Q1431.2 1618.58 1426.87 1618.58 Q1421.97 1618.58 1419.01 1621.35 Q1416.08 1624.12 1415.64 1629.15 L1436.51 1629.12 Z" fill="#000000" fill-rule="evenodd" fill-opacity="1" /><polyline clip-path="url(#clip352)" style="stroke:#000000; stroke-width:2; stroke-opacity:0.1; fill:none" points="
  86.9921,1505.26 2352.76,1505.26 
  "/>
<polyline clip-path="url(#clip352)" style="stroke:#000000; stroke-width:2; stroke-opacity:0.1; fill:none" points="
  86.9921,1279.91 2352.76,1279.91 
  "/>
<polyline clip-path="url(#clip352)" style="stroke:#000000; stroke-width:2; stroke-opacity:0.1; fill:none" points="
  86.9921,1054.55 2352.76,1054.55 
  "/>
<polyline clip-path="url(#clip352)" style="stroke:#000000; stroke-width:2; stroke-opacity:0.1; fill:none" points="
  86.9921,829.197 2352.76,829.197 
  "/>
<polyline clip-path="url(#clip352)" style="stroke:#000000; stroke-width:2; stroke-opacity:0.1; fill:none" points="
  86.9921,603.843 2352.76,603.843 
  "/>
<polyline clip-path="url(#clip352)" style="stroke:#000000; stroke-width:2; stroke-opacity:0.1; fill:none" points="
  86.9921,378.488 2352.76,378.488 
  "/>
<polyline clip-path="url(#clip352)" style="stroke:#000000; stroke-width:2; stroke-opacity:0.1; fill:none" points="
  86.9921,153.134 2352.76,153.134 
  "/>
<polyline clip-path="url(#clip350)" style="stroke:#000000; stroke-width:4; stroke-opacity:1; fill:none" points="
  86.9921,1505.26 86.9921,62.9921 
  "/>
<polyline clip-path="url(#clip350)" style="stroke:#000000; stroke-width:4; stroke-opacity:1; fill:none" points="
  86.9921,1505.26 114.181,1505.26 
  "/>
<polyline clip-path="url(#clip350)" style="stroke:#000000; stroke-width:4; stroke-opacity:1; fill:none" points="
  86.9921,1279.91 114.181,1279.91 
  "/>
<polyline clip-path="url(#clip350)" style="stroke:#000000; stroke-width:4; stroke-opacity:1; fill:none" points="
  86.9921,1054.55 114.181,1054.55 
  "/>
<polyline clip-path="url(#clip350)" style="stroke:#000000; stroke-width:4; stroke-opacity:1; fill:none" points="
  86.9921,829.197 114.181,829.197 
  "/>
<polyline clip-path="url(#clip350)" style="stroke:#000000; stroke-width:4; stroke-opacity:1; fill:none" points="
  86.9921,603.843 114.181,603.843 
  "/>
<polyline clip-path="url(#clip350)" style="stroke:#000000; stroke-width:4; stroke-opacity:1; fill:none" points="
  86.9921,378.488 114.181,378.488 
  "/>
<polyline clip-path="url(#clip350)" style="stroke:#000000; stroke-width:4; stroke-opacity:1; fill:none" points="
  86.9921,153.134 114.181,153.134 
  "/>
<path clip-path="url(#clip350)" d="M 0 0 M39.0477 1491.06 Q35.4367 1491.06 33.608 1494.62 Q31.8024 1498.16 31.8024 1505.29 Q31.8024 1512.4 33.608 1515.97 Q35.4367 1519.51 39.0477 1519.51 Q42.682 1519.51 44.4875 1515.97 Q46.3162 1512.4 46.3162 1505.29 Q46.3162 1498.16 44.4875 1494.62 Q42.682 1491.06 39.0477 1491.06 M39.0477 1487.35 Q44.8579 1487.35 47.9134 1491.96 Q50.9921 1496.54 50.9921 1505.29 Q50.9921 1514.02 47.9134 1518.63 Q44.8579 1523.21 39.0477 1523.21 Q33.2376 1523.21 30.1589 1518.63 Q27.1034 1514.02 27.1034 1505.29 Q27.1034 1496.54 30.1589 1491.96 Q33.2376 1487.35 39.0477 1487.35 Z" fill="#000000" fill-rule="evenodd" fill-opacity="1" /><path clip-path="url(#clip350)" d="M 0 0 M-50.9518 1262.63 L-32.5954 1262.63 L-32.5954 1266.56 L-46.6694 1266.56 L-46.6694 1275.03 Q-45.6509 1274.69 -44.6324 1274.52 Q-43.6138 1274.34 -42.5953 1274.34 Q-36.8083 1274.34 -33.4287 1277.51 Q-30.0491 1280.68 -30.0491 1286.1 Q-30.0491 1291.68 -33.5213 1294.78 Q-36.9935 1297.86 -43.3129 1297.86 Q-45.4888 1297.86 -47.7573 1297.49 Q-50.0027 1297.12 -52.4101 1296.38 L-52.4101 1291.68 Q-50.3268 1292.81 -48.1046 1293.37 Q-45.8824 1293.92 -43.4055 1293.92 Q-39.4009 1293.92 -37.063 1291.82 Q-34.725 1289.71 -34.725 1286.1 Q-34.725 1282.49 -37.063 1280.38 Q-39.4009 1278.27 -43.4055 1278.27 Q-45.2805 1278.27 -47.1555 1278.69 Q-49.0073 1279.11 -50.9518 1279.99 L-50.9518 1262.63 Z" fill="#000000" fill-rule="evenodd" fill-opacity="1" /><path clip-path="url(#clip350)" d="M 0 0 M-14.9797 1265.7 Q-18.5908 1265.7 -20.4195 1269.27 Q-22.2251 1272.81 -22.2251 1279.94 Q-22.2251 1287.05 -20.4195 1290.61 Q-18.5908 1294.15 -14.9797 1294.15 Q-11.3455 1294.15 -9.53996 1290.61 Q-7.71126 1287.05 -7.71126 1279.94 Q-7.71126 1272.81 -9.53996 1269.27 Q-11.3455 1265.7 -14.9797 1265.7 M-14.9797 1262 Q-9.16959 1262 -6.11405 1266.61 Q-3.03536 1271.19 -3.03536 1279.94 Q-3.03536 1288.67 -6.11405 1293.27 Q-9.16959 1297.86 -14.9797 1297.86 Q-20.7899 1297.86 -23.8686 1293.27 Q-26.9241 1288.67 -26.9241 1279.94 Q-26.9241 1271.19 -23.8686 1266.61 Q-20.7899 1262 -14.9797 1262 Z" fill="#000000" fill-rule="evenodd" fill-opacity="1" /><path clip-path="url(#clip350)" d="M 0 0 M12.034 1265.7 Q8.42291 1265.7 6.59422 1269.27 Q4.78867 1272.81 4.78867 1279.94 Q4.78867 1287.05 6.59422 1290.61 Q8.42291 1294.15 12.034 1294.15 Q15.6682 1294.15 17.4738 1290.61 Q19.3025 1287.05 19.3025 1279.94 Q19.3025 1272.81 17.4738 1269.27 Q15.6682 1265.7 12.034 1265.7 M12.034 1262 Q17.8442 1262 20.8997 1266.61 Q23.9784 1271.19 23.9784 1279.94 Q23.9784 1288.67 20.8997 1293.27 Q17.8442 1297.86 12.034 1297.86 Q6.22385 1297.86 3.14516 1293.27 Q0.089621 1288.67 0.089621 1279.94 Q0.089621 1271.19 3.14516 1266.61 Q6.22385 1262 12.034 1262 Z" fill="#000000" fill-rule="evenodd" fill-opacity="1" /><path clip-path="url(#clip350)" d="M 0 0 M39.0477 1265.7 Q35.4367 1265.7 33.608 1269.27 Q31.8024 1272.81 31.8024 1279.94 Q31.8024 1287.05 33.608 1290.61 Q35.4367 1294.15 39.0477 1294.15 Q42.682 1294.15 44.4875 1290.61 Q46.3162 1287.05 46.3162 1279.94 Q46.3162 1272.81 44.4875 1269.27 Q42.682 1265.7 39.0477 1265.7 M39.0477 1262 Q44.8579 1262 47.9134 1266.61 Q50.9921 1271.19 50.9921 1279.94 Q50.9921 1288.67 47.9134 1293.27 Q44.8579 1297.86 39.0477 1297.86 Q33.2376 1297.86 30.1589 1293.27 Q27.1034 1288.67 27.1034 1279.94 Q27.1034 1271.19 30.1589 1266.61 Q33.2376 1262 39.0477 1262 Z" fill="#000000" fill-rule="evenodd" fill-opacity="1" /><path clip-path="url(#clip350)" d="M 0 0 M-76.9702 1067.9 L-69.3313 1067.9 L-69.3313 1041.53 L-77.6414 1043.2 L-77.6414 1038.94 L-69.3776 1037.27 L-64.7017 1037.27 L-64.7017 1067.9 L-57.0629 1067.9 L-57.0629 1071.83 L-76.9702 1071.83 L-76.9702 1067.9 Z" fill="#000000" fill-rule="evenodd" fill-opacity="1" /><path clip-path="url(#clip350)" d="M 0 0 M-41.9935 1040.35 Q-45.6046 1040.35 -47.4333 1043.91 Q-49.2388 1047.46 -49.2388 1054.59 Q-49.2388 1061.69 -47.4333 1065.26 Q-45.6046 1068.8 -41.9935 1068.8 Q-38.3592 1068.8 -36.5537 1065.26 Q-34.725 1061.69 -34.725 1054.59 Q-34.725 1047.46 -36.5537 1043.91 Q-38.3592 1040.35 -41.9935 1040.35 M-41.9935 1036.65 Q-36.1833 1036.65 -33.1278 1041.25 Q-30.0491 1045.84 -30.0491 1054.59 Q-30.0491 1063.31 -33.1278 1067.92 Q-36.1833 1072.5 -41.9935 1072.5 Q-47.8036 1072.5 -50.8823 1067.92 Q-53.9379 1063.31 -53.9379 1054.59 Q-53.9379 1045.84 -50.8823 1041.25 Q-47.8036 1036.65 -41.9935 1036.65 Z" fill="#000000" fill-rule="evenodd" fill-opacity="1" /><path clip-path="url(#clip350)" d="M 0 0 M-14.9797 1040.35 Q-18.5908 1040.35 -20.4195 1043.91 Q-22.2251 1047.46 -22.2251 1054.59 Q-22.2251 1061.69 -20.4195 1065.26 Q-18.5908 1068.8 -14.9797 1068.8 Q-11.3455 1068.8 -9.53996 1065.26 Q-7.71126 1061.69 -7.71126 1054.59 Q-7.71126 1047.46 -9.53996 1043.91 Q-11.3455 1040.35 -14.9797 1040.35 M-14.9797 1036.65 Q-9.16959 1036.65 -6.11405 1041.25 Q-3.03536 1045.84 -3.03536 1054.59 Q-3.03536 1063.31 -6.11405 1067.92 Q-9.16959 1072.5 -14.9797 1072.5 Q-20.7899 1072.5 -23.8686 1067.92 Q-26.9241 1063.31 -26.9241 1054.59 Q-26.9241 1045.84 -23.8686 1041.25 Q-20.7899 1036.65 -14.9797 1036.65 Z" fill="#000000" fill-rule="evenodd" fill-opacity="1" /><path clip-path="url(#clip350)" d="M 0 0 M12.034 1040.35 Q8.42291 1040.35 6.59422 1043.91 Q4.78867 1047.46 4.78867 1054.59 Q4.78867 1061.69 6.59422 1065.26 Q8.42291 1068.8 12.034 1068.8 Q15.6682 1068.8 17.4738 1065.26 Q19.3025 1061.69 19.3025 1054.59 Q19.3025 1047.46 17.4738 1043.91 Q15.6682 1040.35 12.034 1040.35 M12.034 1036.65 Q17.8442 1036.65 20.8997 1041.25 Q23.9784 1045.84 23.9784 1054.59 Q23.9784 1063.31 20.8997 1067.92 Q17.8442 1072.5 12.034 1072.5 Q6.22385 1072.5 3.14516 1067.92 Q0.089621 1063.31 0.089621 1054.59 Q0.089621 1045.84 3.14516 1041.25 Q6.22385 1036.65 12.034 1036.65 Z" fill="#000000" fill-rule="evenodd" fill-opacity="1" /><path clip-path="url(#clip350)" d="M 0 0 M39.0477 1040.35 Q35.4367 1040.35 33.608 1043.91 Q31.8024 1047.46 31.8024 1054.59 Q31.8024 1061.69 33.608 1065.26 Q35.4367 1068.8 39.0477 1068.8 Q42.682 1068.8 44.4875 1065.26 Q46.3162 1061.69 46.3162 1054.59 Q46.3162 1047.46 44.4875 1043.91 Q42.682 1040.35 39.0477 1040.35 M39.0477 1036.65 Q44.8579 1036.65 47.9134 1041.25 Q50.9921 1045.84 50.9921 1054.59 Q50.9921 1063.31 47.9134 1067.92 Q44.8579 1072.5 39.0477 1072.5 Q33.2376 1072.5 30.1589 1067.92 Q27.1034 1063.31 27.1034 1054.59 Q27.1034 1045.84 30.1589 1041.25 Q33.2376 1036.65 39.0477 1036.65 Z" fill="#000000" fill-rule="evenodd" fill-opacity="1" /><path clip-path="url(#clip350)" d="M 0 0 M-75.9748 842.542 L-68.3359 842.542 L-68.3359 816.176 L-76.6461 817.843 L-76.6461 813.584 L-68.3822 811.917 L-63.7063 811.917 L-63.7063 842.542 L-56.0675 842.542 L-56.0675 846.477 L-75.9748 846.477 L-75.9748 842.542 Z" fill="#000000" fill-rule="evenodd" fill-opacity="1" /><path clip-path="url(#clip350)" d="M 0 0 M-50.9518 811.917 L-32.5954 811.917 L-32.5954 815.852 L-46.6694 815.852 L-46.6694 824.324 Q-45.6509 823.977 -44.6324 823.815 Q-43.6138 823.63 -42.5953 823.63 Q-36.8083 823.63 -33.4287 826.801 Q-30.0491 829.972 -30.0491 835.389 Q-30.0491 840.968 -33.5213 844.069 Q-36.9935 847.148 -43.3129 847.148 Q-45.4888 847.148 -47.7573 846.778 Q-50.0027 846.407 -52.4101 845.667 L-52.4101 840.968 Q-50.3268 842.102 -48.1046 842.657 Q-45.8824 843.213 -43.4055 843.213 Q-39.4009 843.213 -37.063 841.107 Q-34.725 839 -34.725 835.389 Q-34.725 831.778 -37.063 829.671 Q-39.4009 827.565 -43.4055 827.565 Q-45.2805 827.565 -47.1555 827.982 Q-49.0073 828.398 -50.9518 829.278 L-50.9518 811.917 Z" fill="#000000" fill-rule="evenodd" fill-opacity="1" /><path clip-path="url(#clip350)" d="M 0 0 M-14.9797 814.996 Q-18.5908 814.996 -20.4195 818.56 Q-22.2251 822.102 -22.2251 829.232 Q-22.2251 836.338 -20.4195 839.903 Q-18.5908 843.444 -14.9797 843.444 Q-11.3455 843.444 -9.53996 839.903 Q-7.71126 836.338 -7.71126 829.232 Q-7.71126 822.102 -9.53996 818.56 Q-11.3455 814.996 -14.9797 814.996 M-14.9797 811.292 Q-9.16959 811.292 -6.11405 815.898 Q-3.03536 820.482 -3.03536 829.232 Q-3.03536 837.958 -6.11405 842.565 Q-9.16959 847.148 -14.9797 847.148 Q-20.7899 847.148 -23.8686 842.565 Q-26.9241 837.958 -26.9241 829.232 Q-26.9241 820.482 -23.8686 815.898 Q-20.7899 811.292 -14.9797 811.292 Z" fill="#000000" fill-rule="evenodd" fill-opacity="1" /><path clip-path="url(#clip350)" d="M 0 0 M12.034 814.996 Q8.42291 814.996 6.59422 818.56 Q4.78867 822.102 4.78867 829.232 Q4.78867 836.338 6.59422 839.903 Q8.42291 843.444 12.034 843.444 Q15.6682 843.444 17.4738 839.903 Q19.3025 836.338 19.3025 829.232 Q19.3025 822.102 17.4738 818.56 Q15.6682 814.996 12.034 814.996 M12.034 811.292 Q17.8442 811.292 20.8997 815.898 Q23.9784 820.482 23.9784 829.232 Q23.9784 837.958 20.8997 842.565 Q17.8442 847.148 12.034 847.148 Q6.22385 847.148 3.14516 842.565 Q0.089621 837.958 0.089621 829.232 Q0.089621 820.482 3.14516 815.898 Q6.22385 811.292 12.034 811.292 Z" fill="#000000" fill-rule="evenodd" fill-opacity="1" /><path clip-path="url(#clip350)" d="M 0 0 M39.0477 814.996 Q35.4367 814.996 33.608 818.56 Q31.8024 822.102 31.8024 829.232 Q31.8024 836.338 33.608 839.903 Q35.4367 843.444 39.0477 843.444 Q42.682 843.444 44.4875 839.903 Q46.3162 836.338 46.3162 829.232 Q46.3162 822.102 44.4875 818.56 Q42.682 814.996 39.0477 814.996 M39.0477 811.292 Q44.8579 811.292 47.9134 815.898 Q50.9921 820.482 50.9921 829.232 Q50.9921 837.958 47.9134 842.565 Q44.8579 847.148 39.0477 847.148 Q33.2376 847.148 30.1589 842.565 Q27.1034 837.958 27.1034 829.232 Q27.1034 820.482 30.1589 815.898 Q33.2376 811.292 39.0477 811.292 Z" fill="#000000" fill-rule="evenodd" fill-opacity="1" /><path clip-path="url(#clip350)" d="M 0 0 M-73.3822 617.187 L-57.0629 617.187 L-57.0629 621.123 L-79.0072 621.123 L-79.0072 617.187 Q-76.3452 614.433 -71.7618 609.803 Q-67.1554 605.15 -65.9748 603.808 Q-63.7295 601.285 -62.8499 599.549 Q-61.9471 597.789 -61.9471 596.1 Q-61.9471 593.345 -63.8915 591.609 Q-65.8128 589.873 -68.9146 589.873 Q-71.1137 589.873 -73.5674 590.637 Q-75.9979 591.4 -78.7757 592.951 L-78.7757 588.229 Q-75.9516 587.095 -73.4979 586.516 Q-71.0443 585.938 -69.0072 585.938 Q-63.6369 585.938 -60.4425 588.623 Q-57.248 591.308 -57.248 595.799 Q-57.248 597.928 -58.0582 599.849 Q-58.8452 601.748 -60.9517 604.34 Q-61.5304 605.011 -64.6323 608.229 Q-67.7341 611.423 -73.3822 617.187 Z" fill="#000000" fill-rule="evenodd" fill-opacity="1" /><path clip-path="url(#clip350)" d="M 0 0 M-41.9935 589.641 Q-45.6046 589.641 -47.4333 593.206 Q-49.2388 596.748 -49.2388 603.877 Q-49.2388 610.984 -47.4333 614.548 Q-45.6046 618.09 -41.9935 618.09 Q-38.3592 618.09 -36.5537 614.548 Q-34.725 610.984 -34.725 603.877 Q-34.725 596.748 -36.5537 593.206 Q-38.3592 589.641 -41.9935 589.641 M-41.9935 585.938 Q-36.1833 585.938 -33.1278 590.544 Q-30.0491 595.127 -30.0491 603.877 Q-30.0491 612.604 -33.1278 617.211 Q-36.1833 621.794 -41.9935 621.794 Q-47.8036 621.794 -50.8823 617.211 Q-53.9379 612.604 -53.9379 603.877 Q-53.9379 595.127 -50.8823 590.544 Q-47.8036 585.938 -41.9935 585.938 Z" fill="#000000" fill-rule="evenodd" fill-opacity="1" /><path clip-path="url(#clip350)" d="M 0 0 M-14.9797 589.641 Q-18.5908 589.641 -20.4195 593.206 Q-22.2251 596.748 -22.2251 603.877 Q-22.2251 610.984 -20.4195 614.548 Q-18.5908 618.09 -14.9797 618.09 Q-11.3455 618.09 -9.53996 614.548 Q-7.71126 610.984 -7.71126 603.877 Q-7.71126 596.748 -9.53996 593.206 Q-11.3455 589.641 -14.9797 589.641 M-14.9797 585.938 Q-9.16959 585.938 -6.11405 590.544 Q-3.03536 595.127 -3.03536 603.877 Q-3.03536 612.604 -6.11405 617.211 Q-9.16959 621.794 -14.9797 621.794 Q-20.7899 621.794 -23.8686 617.211 Q-26.9241 612.604 -26.9241 603.877 Q-26.9241 595.127 -23.8686 590.544 Q-20.7899 585.938 -14.9797 585.938 Z" fill="#000000" fill-rule="evenodd" fill-opacity="1" /><path clip-path="url(#clip350)" d="M 0 0 M12.034 589.641 Q8.42291 589.641 6.59422 593.206 Q4.78867 596.748 4.78867 603.877 Q4.78867 610.984 6.59422 614.548 Q8.42291 618.09 12.034 618.09 Q15.6682 618.09 17.4738 614.548 Q19.3025 610.984 19.3025 603.877 Q19.3025 596.748 17.4738 593.206 Q15.6682 589.641 12.034 589.641 M12.034 585.938 Q17.8442 585.938 20.8997 590.544 Q23.9784 595.127 23.9784 603.877 Q23.9784 612.604 20.8997 617.211 Q17.8442 621.794 12.034 621.794 Q6.22385 621.794 3.14516 617.211 Q0.089621 612.604 0.089621 603.877 Q0.089621 595.127 3.14516 590.544 Q6.22385 585.938 12.034 585.938 Z" fill="#000000" fill-rule="evenodd" fill-opacity="1" /><path clip-path="url(#clip350)" d="M 0 0 M39.0477 589.641 Q35.4367 589.641 33.608 593.206 Q31.8024 596.748 31.8024 603.877 Q31.8024 610.984 33.608 614.548 Q35.4367 618.09 39.0477 618.09 Q42.682 618.09 44.4875 614.548 Q46.3162 610.984 46.3162 603.877 Q46.3162 596.748 44.4875 593.206 Q42.682 589.641 39.0477 589.641 M39.0477 585.938 Q44.8579 585.938 47.9134 590.544 Q50.9921 595.127 50.9921 603.877 Q50.9921 612.604 47.9134 617.211 Q44.8579 621.794 39.0477 621.794 Q33.2376 621.794 30.1589 617.211 Q27.1034 612.604 27.1034 603.877 Q27.1034 595.127 30.1589 590.544 Q33.2376 585.938 39.0477 585.938 Z" fill="#000000" fill-rule="evenodd" fill-opacity="1" /><path clip-path="url(#clip350)" d="M 0 0 M-72.3868 391.833 L-56.0675 391.833 L-56.0675 395.768 L-78.0118 395.768 L-78.0118 391.833 Q-75.3498 389.078 -70.7665 384.449 Q-66.16 379.796 -64.9795 378.453 Q-62.7341 375.93 -61.8545 374.194 Q-60.9517 372.435 -60.9517 370.745 Q-60.9517 367.991 -62.8962 366.254 Q-64.8174 364.518 -67.9193 364.518 Q-70.1183 364.518 -72.572 365.282 Q-75.0026 366.046 -77.7803 367.597 L-77.7803 362.875 Q-74.9563 361.741 -72.5026 361.162 Q-70.0489 360.583 -68.0119 360.583 Q-62.6415 360.583 -59.4471 363.268 Q-56.2527 365.954 -56.2527 370.444 Q-56.2527 372.574 -57.0629 374.495 Q-57.8499 376.393 -59.9564 378.986 Q-60.5351 379.657 -63.6369 382.875 Q-66.7387 386.069 -72.3868 391.833 Z" fill="#000000" fill-rule="evenodd" fill-opacity="1" /><path clip-path="url(#clip350)" d="M 0 0 M-50.9518 361.208 L-32.5954 361.208 L-32.5954 365.143 L-46.6694 365.143 L-46.6694 373.616 Q-45.6509 373.268 -44.6324 373.106 Q-43.6138 372.921 -42.5953 372.921 Q-36.8083 372.921 -33.4287 376.092 Q-30.0491 379.264 -30.0491 384.68 Q-30.0491 390.259 -33.5213 393.361 Q-36.9935 396.439 -43.3129 396.439 Q-45.4888 396.439 -47.7573 396.069 Q-50.0027 395.699 -52.4101 394.958 L-52.4101 390.259 Q-50.3268 391.393 -48.1046 391.949 Q-45.8824 392.504 -43.4055 392.504 Q-39.4009 392.504 -37.063 390.398 Q-34.725 388.291 -34.725 384.68 Q-34.725 381.069 -37.063 378.963 Q-39.4009 376.856 -43.4055 376.856 Q-45.2805 376.856 -47.1555 377.273 Q-49.0073 377.69 -50.9518 378.569 L-50.9518 361.208 Z" fill="#000000" fill-rule="evenodd" fill-opacity="1" /><path clip-path="url(#clip350)" d="M 0 0 M-14.9797 364.287 Q-18.5908 364.287 -20.4195 367.852 Q-22.2251 371.393 -22.2251 378.523 Q-22.2251 385.629 -20.4195 389.194 Q-18.5908 392.736 -14.9797 392.736 Q-11.3455 392.736 -9.53996 389.194 Q-7.71126 385.629 -7.71126 378.523 Q-7.71126 371.393 -9.53996 367.852 Q-11.3455 364.287 -14.9797 364.287 M-14.9797 360.583 Q-9.16959 360.583 -6.11405 365.19 Q-3.03536 369.773 -3.03536 378.523 Q-3.03536 387.25 -6.11405 391.856 Q-9.16959 396.439 -14.9797 396.439 Q-20.7899 396.439 -23.8686 391.856 Q-26.9241 387.25 -26.9241 378.523 Q-26.9241 369.773 -23.8686 365.19 Q-20.7899 360.583 -14.9797 360.583 Z" fill="#000000" fill-rule="evenodd" fill-opacity="1" /><path clip-path="url(#clip350)" d="M 0 0 M12.034 364.287 Q8.42291 364.287 6.59422 367.852 Q4.78867 371.393 4.78867 378.523 Q4.78867 385.629 6.59422 389.194 Q8.42291 392.736 12.034 392.736 Q15.6682 392.736 17.4738 389.194 Q19.3025 385.629 19.3025 378.523 Q19.3025 371.393 17.4738 367.852 Q15.6682 364.287 12.034 364.287 M12.034 360.583 Q17.8442 360.583 20.8997 365.19 Q23.9784 369.773 23.9784 378.523 Q23.9784 387.25 20.8997 391.856 Q17.8442 396.439 12.034 396.439 Q6.22385 396.439 3.14516 391.856 Q0.089621 387.25 0.089621 378.523 Q0.089621 369.773 3.14516 365.19 Q6.22385 360.583 12.034 360.583 Z" fill="#000000" fill-rule="evenodd" fill-opacity="1" /><path clip-path="url(#clip350)" d="M 0 0 M39.0477 364.287 Q35.4367 364.287 33.608 367.852 Q31.8024 371.393 31.8024 378.523 Q31.8024 385.629 33.608 389.194 Q35.4367 392.736 39.0477 392.736 Q42.682 392.736 44.4875 389.194 Q46.3162 385.629 46.3162 378.523 Q46.3162 371.393 44.4875 367.852 Q42.682 364.287 39.0477 364.287 M39.0477 360.583 Q44.8579 360.583 47.9134 365.19 Q50.9921 369.773 50.9921 378.523 Q50.9921 387.25 47.9134 391.856 Q44.8579 396.439 39.0477 396.439 Q33.2376 396.439 30.1589 391.856 Q27.1034 387.25 27.1034 378.523 Q27.1034 369.773 30.1589 365.19 Q33.2376 360.583 39.0477 360.583 Z" fill="#000000" fill-rule="evenodd" fill-opacity="1" /><path clip-path="url(#clip350)" d="M 0 0 M-64.1924 151.78 Q-60.836 152.497 -58.961 154.766 Q-57.0629 157.034 -57.0629 160.368 Q-57.0629 165.483 -60.5814 168.284 Q-64.0998 171.085 -70.5813 171.085 Q-72.7572 171.085 -75.072 170.645 Q-77.3637 170.229 -79.8174 169.372 L-79.8174 164.858 Q-77.8729 165.993 -75.5581 166.571 Q-73.2433 167.15 -70.7202 167.15 Q-66.3221 167.15 -64.0304 165.414 Q-61.7156 163.678 -61.7156 160.368 Q-61.7156 157.312 -63.8684 155.599 Q-65.998 153.863 -69.8174 153.863 L-73.8452 153.863 L-73.8452 150.02 L-69.6322 150.02 Q-66.1832 150.02 -64.3545 148.655 Q-62.5258 147.266 -62.5258 144.673 Q-62.5258 142.011 -64.4239 140.599 Q-66.2989 139.164 -69.8174 139.164 Q-71.7387 139.164 -73.9378 139.581 Q-76.1368 139.997 -78.7757 140.877 L-78.7757 136.71 Q-76.1137 135.97 -73.7989 135.599 Q-71.4609 135.229 -69.4007 135.229 Q-64.0767 135.229 -60.9749 137.659 Q-57.873 140.067 -57.873 144.187 Q-57.873 147.058 -59.5165 149.048 Q-61.1601 151.016 -64.1924 151.78 Z" fill="#000000" fill-rule="evenodd" fill-opacity="1" /><path clip-path="url(#clip350)" d="M 0 0 M-41.9935 138.933 Q-45.6046 138.933 -47.4333 142.497 Q-49.2388 146.039 -49.2388 153.169 Q-49.2388 160.275 -47.4333 163.84 Q-45.6046 167.381 -41.9935 167.381 Q-38.3592 167.381 -36.5537 163.84 Q-34.725 160.275 -34.725 153.169 Q-34.725 146.039 -36.5537 142.497 Q-38.3592 138.933 -41.9935 138.933 M-41.9935 135.229 Q-36.1833 135.229 -33.1278 139.835 Q-30.0491 144.419 -30.0491 153.169 Q-30.0491 161.895 -33.1278 166.502 Q-36.1833 171.085 -41.9935 171.085 Q-47.8036 171.085 -50.8823 166.502 Q-53.9379 161.895 -53.9379 153.169 Q-53.9379 144.419 -50.8823 139.835 Q-47.8036 135.229 -41.9935 135.229 Z" fill="#000000" fill-rule="evenodd" fill-opacity="1" /><path clip-path="url(#clip350)" d="M 0 0 M-14.9797 138.933 Q-18.5908 138.933 -20.4195 142.497 Q-22.2251 146.039 -22.2251 153.169 Q-22.2251 160.275 -20.4195 163.84 Q-18.5908 167.381 -14.9797 167.381 Q-11.3455 167.381 -9.53996 163.84 Q-7.71126 160.275 -7.71126 153.169 Q-7.71126 146.039 -9.53996 142.497 Q-11.3455 138.933 -14.9797 138.933 M-14.9797 135.229 Q-9.16959 135.229 -6.11405 139.835 Q-3.03536 144.419 -3.03536 153.169 Q-3.03536 161.895 -6.11405 166.502 Q-9.16959 171.085 -14.9797 171.085 Q-20.7899 171.085 -23.8686 166.502 Q-26.9241 161.895 -26.9241 153.169 Q-26.9241 144.419 -23.8686 139.835 Q-20.7899 135.229 -14.9797 135.229 Z" fill="#000000" fill-rule="evenodd" fill-opacity="1" /><path clip-path="url(#clip350)" d="M 0 0 M12.034 138.933 Q8.42291 138.933 6.59422 142.497 Q4.78867 146.039 4.78867 153.169 Q4.78867 160.275 6.59422 163.84 Q8.42291 167.381 12.034 167.381 Q15.6682 167.381 17.4738 163.84 Q19.3025 160.275 19.3025 153.169 Q19.3025 146.039 17.4738 142.497 Q15.6682 138.933 12.034 138.933 M12.034 135.229 Q17.8442 135.229 20.8997 139.835 Q23.9784 144.419 23.9784 153.169 Q23.9784 161.895 20.8997 166.502 Q17.8442 171.085 12.034 171.085 Q6.22385 171.085 3.14516 166.502 Q0.089621 161.895 0.089621 153.169 Q0.089621 144.419 3.14516 139.835 Q6.22385 135.229 12.034 135.229 Z" fill="#000000" fill-rule="evenodd" fill-opacity="1" /><path clip-path="url(#clip350)" d="M 0 0 M39.0477 138.933 Q35.4367 138.933 33.608 142.497 Q31.8024 146.039 31.8024 153.169 Q31.8024 160.275 33.608 163.84 Q35.4367 167.381 39.0477 167.381 Q42.682 167.381 44.4875 163.84 Q46.3162 160.275 46.3162 153.169 Q46.3162 146.039 44.4875 142.497 Q42.682 138.933 39.0477 138.933 M39.0477 135.229 Q44.8579 135.229 47.9134 139.835 Q50.9921 144.419 50.9921 153.169 Q50.9921 161.895 47.9134 166.502 Q44.8579 171.085 39.0477 171.085 Q33.2376 171.085 30.1589 166.502 Q27.1034 161.895 27.1034 153.169 Q27.1034 144.419 30.1589 139.835 Q33.2376 135.229 39.0477 135.229 Z" fill="#000000" fill-rule="evenodd" fill-opacity="1" /><path clip-path="url(#clip350)" d="M 0 0 M379.737 12.096 L388.001 12.096 L400.72 63.2184 L413.4 12.096 L422.595 12.096 L435.315 63.2184 L447.994 12.096 L456.299 12.096 L441.108 72.576 L430.819 72.576 L418.058 20.0763 L405.176 72.576 L394.887 72.576 L379.737 12.096 Z" fill="#000000" fill-rule="evenodd" fill-opacity="1" /><path clip-path="url(#clip350)" d="M 0 0 M476.837 32.4315 Q470.842 32.4315 467.358 37.1306 Q463.874 41.7891 463.874 49.9314 Q463.874 58.0738 467.317 62.7728 Q470.801 67.4314 476.837 67.4314 Q482.792 67.4314 486.276 62.7323 Q489.759 58.0333 489.759 49.9314 Q489.759 41.8701 486.276 37.1711 Q482.792 32.4315 476.837 32.4315 M476.837 26.1121 Q486.559 26.1121 492.109 32.4315 Q497.659 38.7509 497.659 49.9314 Q497.659 61.0714 492.109 67.4314 Q486.559 73.7508 476.837 73.7508 Q467.074 73.7508 461.524 67.4314 Q456.015 61.0714 456.015 49.9314 Q456.015 38.7509 461.524 32.4315 Q467.074 26.1121 476.837 26.1121 M480.645 9.70597 L488.868 9.70597 L488.868 17.8888 L480.645 17.8888 L480.645 9.70597 M464.806 9.70597 L473.029 9.70597 L473.029 17.8888 L464.806 17.8888 L464.806 9.70597 Z" fill="#000000" fill-rule="evenodd" fill-opacity="1" /><path clip-path="url(#clip350)" d="M 0 0 M538.127 28.9478 L538.127 35.9153 Q534.967 34.1734 531.767 33.3227 Q528.607 32.4315 525.367 32.4315 Q518.116 32.4315 514.105 37.0496 Q510.095 41.6271 510.095 49.9314 Q510.095 58.2358 514.105 62.8538 Q518.116 67.4314 525.367 67.4314 Q528.607 67.4314 531.767 66.5807 Q534.967 65.6895 538.127 63.9476 L538.127 70.8341 Q535.008 72.2924 531.646 73.0216 Q528.324 73.7508 524.557 73.7508 Q514.308 73.7508 508.272 67.3098 Q502.236 60.8689 502.236 49.9314 Q502.236 38.832 508.312 32.472 Q514.429 26.1121 525.043 26.1121 Q528.486 26.1121 531.767 26.8413 Q535.048 27.5299 538.127 28.9478 Z" fill="#000000" fill-rule="evenodd" fill-opacity="1" /><path clip-path="url(#clip350)" d="M 0 0 M583.659 45.1919 L583.659 72.576 L576.206 72.576 L576.206 45.4349 Q576.206 38.994 573.694 35.7938 Q571.182 32.5936 566.159 32.5936 Q560.124 32.5936 556.64 36.4419 Q553.156 40.2903 553.156 46.9338 L553.156 72.576 L545.662 72.576 L545.662 9.54393 L553.156 9.54393 L553.156 34.2544 Q555.83 30.163 559.435 28.1376 Q563.081 26.1121 567.82 26.1121 Q575.638 26.1121 579.649 30.9732 Q583.659 35.7938 583.659 45.1919 Z" fill="#000000" fill-rule="evenodd" fill-opacity="1" /><path clip-path="url(#clip350)" d="M 0 0 M630.285 48.0275 L630.285 51.6733 L596.015 51.6733 Q596.501 59.3701 600.633 63.421 Q604.805 67.4314 612.218 67.4314 Q616.512 67.4314 620.522 66.3781 Q624.573 65.3249 628.543 63.2184 L628.543 70.267 Q624.533 71.9684 620.32 72.8596 Q616.107 73.7508 611.773 73.7508 Q600.916 73.7508 594.556 67.4314 Q588.237 61.1119 588.237 50.3365 Q588.237 39.1965 594.232 32.6746 Q600.268 26.1121 610.476 26.1121 Q619.631 26.1121 624.938 32.0264 Q630.285 37.9003 630.285 48.0275 M622.831 45.84 Q622.75 39.7232 619.388 36.0774 Q616.066 32.4315 610.557 32.4315 Q604.319 32.4315 600.552 35.9558 Q596.825 39.4801 596.258 45.8805 L622.831 45.84 Z" fill="#000000" fill-rule="evenodd" fill-opacity="1" /><path clip-path="url(#clip350)" d="M 0 0 M675.817 45.1919 L675.817 72.576 L668.364 72.576 L668.364 45.4349 Q668.364 38.994 665.852 35.7938 Q663.341 32.5936 658.317 32.5936 Q652.282 32.5936 648.798 36.4419 Q645.314 40.2903 645.314 46.9338 L645.314 72.576 L637.82 72.576 L637.82 27.2059 L645.314 27.2059 L645.314 34.2544 Q647.988 30.163 651.593 28.1376 Q655.239 26.1121 659.978 26.1121 Q667.797 26.1121 671.807 30.9732 Q675.817 35.7938 675.817 45.1919 Z" fill="#000000" fill-rule="evenodd" fill-opacity="1" /><path clip-path="url(#clip350)" d="M 0 0 M691.008 14.324 L691.008 27.2059 L706.361 27.2059 L706.361 32.9987 L691.008 32.9987 L691.008 57.6282 Q691.008 63.1779 692.507 64.7578 Q694.046 66.3376 698.705 66.3376 L706.361 66.3376 L706.361 72.576 L698.705 72.576 Q690.077 72.576 686.795 69.3758 Q683.514 66.1351 683.514 57.6282 L683.514 32.9987 L678.045 32.9987 L678.045 27.2059 L683.514 27.2059 L683.514 14.324 L691.008 14.324 Z" fill="#000000" fill-rule="evenodd" fill-opacity="1" /><path clip-path="url(#clip350)" d="M 0 0 M714.179 9.54393 L721.633 9.54393 L721.633 72.576 L714.179 72.576 L714.179 9.54393 Z" fill="#000000" fill-rule="evenodd" fill-opacity="1" /><path clip-path="url(#clip350)" d="M 0 0 M729.451 27.2059 L736.905 27.2059 L736.905 72.576 L729.451 72.576 L729.451 27.2059 M729.451 9.54393 L736.905 9.54393 L736.905 18.9825 L729.451 18.9825 L729.451 9.54393 Z" fill="#000000" fill-rule="evenodd" fill-opacity="1" /><path clip-path="url(#clip350)" d="M 0 0 M777.373 28.9478 L777.373 35.9153 Q774.214 34.1734 771.014 33.3227 Q767.854 32.4315 764.613 32.4315 Q757.362 32.4315 753.352 37.0496 Q749.341 41.6271 749.341 49.9314 Q749.341 58.2358 753.352 62.8538 Q757.362 67.4314 764.613 67.4314 Q767.854 67.4314 771.014 66.5807 Q774.214 65.6895 777.373 63.9476 L777.373 70.8341 Q774.254 72.2924 770.892 73.0216 Q767.57 73.7508 763.803 73.7508 Q753.554 73.7508 747.518 67.3098 Q741.482 60.8689 741.482 49.9314 Q741.482 38.832 747.559 32.472 Q753.676 26.1121 764.289 26.1121 Q767.732 26.1121 771.014 26.8413 Q774.295 27.5299 777.373 28.9478 Z" fill="#000000" fill-rule="evenodd" fill-opacity="1" /><path clip-path="url(#clip350)" d="M 0 0 M822.906 45.1919 L822.906 72.576 L815.452 72.576 L815.452 45.4349 Q815.452 38.994 812.94 35.7938 Q810.429 32.5936 805.406 32.5936 Q799.37 32.5936 795.886 36.4419 Q792.402 40.2903 792.402 46.9338 L792.402 72.576 L784.908 72.576 L784.908 9.54393 L792.402 9.54393 L792.402 34.2544 Q795.076 30.163 798.681 28.1376 Q802.327 26.1121 807.067 26.1121 Q814.885 26.1121 818.895 30.9732 Q822.906 35.7938 822.906 45.1919 Z" fill="#000000" fill-rule="evenodd" fill-opacity="1" /><path clip-path="url(#clip350)" d="M 0 0 M869.532 48.0275 L869.532 51.6733 L835.261 51.6733 Q835.747 59.3701 839.879 63.421 Q844.051 67.4314 851.465 67.4314 Q855.758 67.4314 859.769 66.3781 Q863.82 65.3249 867.79 63.2184 L867.79 70.267 Q863.779 71.9684 859.566 72.8596 Q855.353 73.7508 851.019 73.7508 Q840.163 73.7508 833.803 67.4314 Q827.483 61.1119 827.483 50.3365 Q827.483 39.1965 833.479 32.6746 Q839.514 26.1121 849.723 26.1121 Q858.878 26.1121 864.184 32.0264 Q869.532 37.9003 869.532 48.0275 M862.078 45.84 Q861.997 39.7232 858.635 36.0774 Q855.313 32.4315 849.804 32.4315 Q843.565 32.4315 839.798 35.9558 Q836.071 39.4801 835.504 45.8805 L862.078 45.84 Z" fill="#000000" fill-rule="evenodd" fill-opacity="1" /><path clip-path="url(#clip350)" d="M 0 0 M940.301 14.0809 L940.301 22.0612 Q935.642 19.8332 931.51 18.7395 Q927.378 17.6457 923.53 17.6457 Q916.846 17.6457 913.2 20.2383 Q909.595 22.8309 909.595 27.611 Q909.595 31.6214 911.985 33.6873 Q914.416 35.7128 921.14 36.9686 L926.082 37.9813 Q935.237 39.7232 939.572 44.1387 Q943.947 48.5136 943.947 55.8863 Q943.947 64.6767 938.032 69.2137 Q932.159 73.7508 920.776 73.7508 Q916.482 73.7508 911.62 72.7785 Q906.8 71.8063 901.615 69.9024 L901.615 61.4765 Q906.597 64.2716 911.377 65.6895 Q916.157 67.1073 920.776 67.1073 Q927.784 67.1073 931.591 64.3527 Q935.399 61.598 935.399 56.4939 Q935.399 52.0379 932.645 49.5264 Q929.931 47.0148 923.692 45.759 L918.71 44.7868 Q909.554 42.9639 905.463 39.075 Q901.372 35.1862 901.372 28.2591 Q901.372 20.2383 907.002 15.6203 Q912.674 11.0023 922.598 11.0023 Q926.852 11.0023 931.267 11.7719 Q935.683 12.5416 940.301 14.0809 Z" fill="#000000" fill-rule="evenodd" fill-opacity="1" /><path clip-path="url(#clip350)" d="M 0 0 M959.138 14.324 L959.138 27.2059 L974.49 27.2059 L974.49 32.9987 L959.138 32.9987 L959.138 57.6282 Q959.138 63.1779 960.636 64.7578 Q962.176 66.3376 966.834 66.3376 L974.49 66.3376 L974.49 72.576 L966.834 72.576 Q958.206 72.576 954.925 69.3758 Q951.643 66.1351 951.643 57.6282 L951.643 32.9987 L946.175 32.9987 L946.175 27.2059 L951.643 27.2059 L951.643 14.324 L959.138 14.324 Z" fill="#000000" fill-rule="evenodd" fill-opacity="1" /><path clip-path="url(#clip350)" d="M 0 0 M1021.12 48.0275 L1021.12 51.6733 L986.846 51.6733 Q987.332 59.3701 991.464 63.421 Q995.636 67.4314 1003.05 67.4314 Q1007.34 67.4314 1011.35 66.3781 Q1015.4 65.3249 1019.37 63.2184 L1019.37 70.267 Q1015.36 71.9684 1011.15 72.8596 Q1006.94 73.7508 1002.6 73.7508 Q991.747 73.7508 985.387 67.4314 Q979.068 61.1119 979.068 50.3365 Q979.068 39.1965 985.063 32.6746 Q991.099 26.1121 1001.31 26.1121 Q1010.46 26.1121 1015.77 32.0264 Q1021.12 37.9003 1021.12 48.0275 M1013.66 45.84 Q1013.58 39.7232 1010.22 36.0774 Q1006.9 32.4315 1001.39 32.4315 Q995.15 32.4315 991.383 35.9558 Q987.656 39.4801 987.089 45.8805 L1013.66 45.84 Z" fill="#000000" fill-rule="evenodd" fill-opacity="1" /><path clip-path="url(#clip350)" d="M 0 0 M1055.23 34.1734 Q1053.97 33.4443 1052.47 33.1202 Q1051.01 32.7556 1049.23 32.7556 Q1042.91 32.7556 1039.51 36.8875 Q1036.15 40.9789 1036.15 48.6757 L1036.15 72.576 L1028.65 72.576 L1028.65 27.2059 L1036.15 27.2059 L1036.15 34.2544 Q1038.49 30.1225 1042.26 28.1376 Q1046.03 26.1121 1051.42 26.1121 Q1052.19 26.1121 1053.12 26.2337 Q1054.05 26.3147 1055.18 26.5172 L1055.23 34.1734 Z" fill="#000000" fill-rule="evenodd" fill-opacity="1" /><path clip-path="url(#clip350)" d="M 0 0 M1095.61 49.9314 Q1095.61 41.7081 1092.21 37.0496 Q1088.85 32.3505 1082.93 32.3505 Q1077.02 32.3505 1073.62 37.0496 Q1070.25 41.7081 1070.25 49.9314 Q1070.25 58.1548 1073.62 62.8538 Q1077.02 67.5124 1082.93 67.5124 Q1088.85 67.5124 1092.21 62.8538 Q1095.61 58.1548 1095.61 49.9314 M1070.25 34.0924 Q1072.6 30.0415 1076.17 28.0971 Q1079.77 26.1121 1084.76 26.1121 Q1093.02 26.1121 1098.16 32.6746 Q1103.35 39.2371 1103.35 49.9314 Q1103.35 60.6258 1098.16 67.1883 Q1093.02 73.7508 1084.76 73.7508 Q1079.77 73.7508 1076.17 71.8063 Q1072.6 69.8214 1070.25 65.7705 L1070.25 72.576 L1062.76 72.576 L1062.76 9.54393 L1070.25 9.54393 L1070.25 34.0924 Z" fill="#000000" fill-rule="evenodd" fill-opacity="1" /><path clip-path="url(#clip350)" d="M 0 0 M1149.98 48.0275 L1149.98 51.6733 L1115.71 51.6733 Q1116.19 59.3701 1120.32 63.421 Q1124.5 67.4314 1131.91 67.4314 Q1136.2 67.4314 1140.21 66.3781 Q1144.26 65.3249 1148.23 63.2184 L1148.23 70.267 Q1144.22 71.9684 1140.01 72.8596 Q1135.8 73.7508 1131.46 73.7508 Q1120.61 73.7508 1114.25 67.4314 Q1107.93 61.1119 1107.93 50.3365 Q1107.93 39.1965 1113.92 32.6746 Q1119.96 26.1121 1130.17 26.1121 Q1139.32 26.1121 1144.63 32.0264 Q1149.98 37.9003 1149.98 48.0275 M1142.52 45.84 Q1142.44 39.7232 1139.08 36.0774 Q1135.76 32.4315 1130.25 32.4315 Q1124.01 32.4315 1120.24 35.9558 Q1116.52 39.4801 1115.95 45.8805 L1142.52 45.84 Z" fill="#000000" fill-rule="evenodd" fill-opacity="1" /><path clip-path="url(#clip350)" d="M 0 0 M1180.76 9.54393 L1180.76 15.7418 L1173.63 15.7418 Q1169.62 15.7418 1168.04 17.3622 Q1166.5 18.9825 1166.5 23.1955 L1166.5 27.2059 L1178.78 27.2059 L1178.78 32.9987 L1166.5 32.9987 L1166.5 72.576 L1159.01 72.576 L1159.01 32.9987 L1151.88 32.9987 L1151.88 27.2059 L1159.01 27.2059 L1159.01 24.0462 Q1159.01 16.471 1162.53 13.0277 Q1166.06 9.54393 1173.71 9.54393 L1180.76 9.54393 Z" fill="#000000" fill-rule="evenodd" fill-opacity="1" /><path clip-path="url(#clip350)" d="M 0 0 M1209.2 49.7694 Q1200.17 49.7694 1196.68 51.8354 Q1193.2 53.9013 1193.2 58.8839 Q1193.2 62.8538 1195.79 65.2034 Q1198.42 67.5124 1202.92 67.5124 Q1209.12 67.5124 1212.85 63.1374 Q1216.61 58.7219 1216.61 51.4303 L1216.61 49.7694 L1209.2 49.7694 M1224.07 46.6907 L1224.07 72.576 L1216.61 72.576 L1216.61 65.6895 Q1214.06 69.8214 1210.25 71.8063 Q1206.45 73.7508 1200.94 73.7508 Q1193.97 73.7508 1189.84 69.8619 Q1185.75 65.9325 1185.75 59.3701 Q1185.75 51.7138 1190.85 47.825 Q1195.99 43.9361 1206.16 43.9361 L1216.61 43.9361 L1216.61 43.2069 Q1216.61 38.0623 1213.21 35.2672 Q1209.85 32.4315 1203.73 32.4315 Q1199.84 32.4315 1196.16 33.3632 Q1192.47 34.295 1189.07 36.1584 L1189.07 29.2718 Q1193.16 27.692 1197.01 26.9223 Q1200.86 26.1121 1204.5 26.1121 Q1214.34 26.1121 1219.21 31.2163 Q1224.07 36.3204 1224.07 46.6907 Z" fill="#000000" fill-rule="evenodd" fill-opacity="1" /><path clip-path="url(#clip350)" d="M 0 0 M1231.88 9.54393 L1239.34 9.54393 L1239.34 72.576 L1231.88 72.576 L1231.88 9.54393 Z" fill="#000000" fill-rule="evenodd" fill-opacity="1" /><path clip-path="url(#clip350)" d="M 0 0 M1247.16 9.54393 L1254.61 9.54393 L1254.61 72.576 L1247.16 72.576 L1247.16 9.54393 Z" fill="#000000" fill-rule="evenodd" fill-opacity="1" /><path clip-path="url(#clip350)" d="M 0 0 M1259.19 27.2059 L1294.59 27.2059 L1294.59 34.0114 L1266.56 66.6212 L1294.59 66.6212 L1294.59 72.576 L1258.18 72.576 L1258.18 65.7705 L1286.21 33.1607 L1259.19 33.1607 L1259.19 27.2059 Z" fill="#000000" fill-rule="evenodd" fill-opacity="1" /><path clip-path="url(#clip350)" d="M 0 0 M1323.03 49.7694 Q1314 49.7694 1310.51 51.8354 Q1307.03 53.9013 1307.03 58.8839 Q1307.03 62.8538 1309.62 65.2034 Q1312.25 67.5124 1316.75 67.5124 Q1322.95 67.5124 1326.68 63.1374 Q1330.44 58.7219 1330.44 51.4303 L1330.44 49.7694 L1323.03 49.7694 M1337.9 46.6907 L1337.9 72.576 L1330.44 72.576 L1330.44 65.6895 Q1327.89 69.8214 1324.08 71.8063 Q1320.28 73.7508 1314.77 73.7508 Q1307.8 73.7508 1303.67 69.8619 Q1299.58 65.9325 1299.58 59.3701 Q1299.58 51.7138 1304.68 47.825 Q1309.82 43.9361 1319.99 43.9361 L1330.44 43.9361 L1330.44 43.2069 Q1330.44 38.0623 1327.04 35.2672 Q1323.68 32.4315 1317.56 32.4315 Q1313.67 32.4315 1309.99 33.3632 Q1306.3 34.295 1302.9 36.1584 L1302.9 29.2718 Q1306.99 27.692 1310.84 26.9223 Q1314.69 26.1121 1318.33 26.1121 Q1328.17 26.1121 1333.04 31.2163 Q1337.9 36.3204 1337.9 46.6907 Z" fill="#000000" fill-rule="evenodd" fill-opacity="1" /><path clip-path="url(#clip350)" d="M 0 0 M1383.43 45.1919 L1383.43 72.576 L1375.98 72.576 L1375.98 45.4349 Q1375.98 38.994 1373.46 35.7938 Q1370.95 32.5936 1365.93 32.5936 Q1359.89 32.5936 1356.41 36.4419 Q1352.93 40.2903 1352.93 46.9338 L1352.93 72.576 L1345.43 72.576 L1345.43 9.54393 L1352.93 9.54393 L1352.93 34.2544 Q1355.6 30.163 1359.2 28.1376 Q1362.85 26.1121 1367.59 26.1121 Q1375.41 26.1121 1379.42 30.9732 Q1383.43 35.7938 1383.43 45.1919 Z" fill="#000000" fill-rule="evenodd" fill-opacity="1" /><path clip-path="url(#clip350)" d="M 0 0 M1391.25 9.54393 L1398.7 9.54393 L1398.7 72.576 L1391.25 72.576 L1391.25 9.54393 Z" fill="#000000" fill-rule="evenodd" fill-opacity="1" /><path clip-path="url(#clip350)" d="M 0 0 M1445.33 48.0275 L1445.33 51.6733 L1411.06 51.6733 Q1411.54 59.3701 1415.67 63.421 Q1419.85 67.4314 1427.26 67.4314 Q1431.55 67.4314 1435.56 66.3781 Q1439.62 65.3249 1443.59 63.2184 L1443.59 70.267 Q1439.57 71.9684 1435.36 72.8596 Q1431.15 73.7508 1426.81 73.7508 Q1415.96 73.7508 1409.6 67.4314 Q1403.28 61.1119 1403.28 50.3365 Q1403.28 39.1965 1409.27 32.6746 Q1415.31 26.1121 1425.52 26.1121 Q1434.67 26.1121 1439.98 32.0264 Q1445.33 37.9003 1445.33 48.0275 M1437.87 45.84 Q1437.79 39.7232 1434.43 36.0774 Q1431.11 32.4315 1425.6 32.4315 Q1419.36 32.4315 1415.59 35.9558 Q1411.87 39.4801 1411.3 45.8805 L1437.87 45.84 Z" fill="#000000" fill-rule="evenodd" fill-opacity="1" /><path clip-path="url(#clip350)" d="M 0 0 M1490.86 45.1919 L1490.86 72.576 L1483.41 72.576 L1483.41 45.4349 Q1483.41 38.994 1480.89 35.7938 Q1478.38 32.5936 1473.36 32.5936 Q1467.32 32.5936 1463.84 36.4419 Q1460.36 40.2903 1460.36 46.9338 L1460.36 72.576 L1452.86 72.576 L1452.86 27.2059 L1460.36 27.2059 L1460.36 34.2544 Q1463.03 30.163 1466.63 28.1376 Q1470.28 26.1121 1475.02 26.1121 Q1482.84 26.1121 1486.85 30.9732 Q1490.86 35.7938 1490.86 45.1919 Z" fill="#000000" fill-rule="evenodd" fill-opacity="1" /><path clip-path="url(#clip350)" d="M 0 0 M1525.05 27.2059 L1532.5 27.2059 L1532.5 72.576 L1525.05 72.576 L1525.05 27.2059 M1525.05 9.54393 L1532.5 9.54393 L1532.5 18.9825 L1525.05 18.9825 L1525.05 9.54393 Z" fill="#000000" fill-rule="evenodd" fill-opacity="1" /><path clip-path="url(#clip350)" d="M 0 0 M1578.03 45.1919 L1578.03 72.576 L1570.58 72.576 L1570.58 45.4349 Q1570.58 38.994 1568.07 35.7938 Q1565.56 32.5936 1560.53 32.5936 Q1554.5 32.5936 1551.02 36.4419 Q1547.53 40.2903 1547.53 46.9338 L1547.53 72.576 L1540.04 72.576 L1540.04 27.2059 L1547.53 27.2059 L1547.53 34.2544 Q1550.21 30.163 1553.81 28.1376 Q1557.46 26.1121 1562.2 26.1121 Q1570.01 26.1121 1574.02 30.9732 Q1578.03 35.7938 1578.03 45.1919 Z" fill="#000000" fill-rule="evenodd" fill-opacity="1" /><path clip-path="url(#clip350)" d="M 0 0 M1620.73 18.8205 L1620.73 65.8515 L1630.62 65.8515 Q1643.13 65.8515 1648.93 60.1802 Q1654.76 54.509 1654.76 42.2752 Q1654.76 30.1225 1648.93 24.4918 Q1643.13 18.8205 1630.62 18.8205 L1620.73 18.8205 M1612.55 12.096 L1629.36 12.096 Q1646.94 12.096 1655.16 19.4281 Q1663.39 26.7198 1663.39 42.2752 Q1663.39 57.9117 1655.12 65.2439 Q1646.86 72.576 1629.36 72.576 L1612.55 72.576 L1612.55 12.096 Z" fill="#000000" fill-rule="evenodd" fill-opacity="1" /><path clip-path="url(#clip350)" d="M 0 0 M1710.01 48.0275 L1710.01 51.6733 L1675.74 51.6733 Q1676.23 59.3701 1680.36 63.421 Q1684.53 67.4314 1691.95 67.4314 Q1696.24 67.4314 1700.25 66.3781 Q1704.3 65.3249 1708.27 63.2184 L1708.27 70.267 Q1704.26 71.9684 1700.05 72.8596 Q1695.84 73.7508 1691.5 73.7508 Q1680.64 73.7508 1674.28 67.4314 Q1667.96 61.1119 1667.96 50.3365 Q1667.96 39.1965 1673.96 32.6746 Q1680 26.1121 1690.2 26.1121 Q1699.36 26.1121 1704.67 32.0264 Q1710.01 37.9003 1710.01 48.0275 M1702.56 45.84 Q1702.48 39.7232 1699.12 36.0774 Q1695.79 32.4315 1690.29 32.4315 Q1684.05 32.4315 1680.28 35.9558 Q1676.55 39.4801 1675.99 45.8805 L1702.56 45.84 Z" fill="#000000" fill-rule="evenodd" fill-opacity="1" /><path clip-path="url(#clip350)" d="M 0 0 M1717.06 54.671 L1717.06 27.2059 L1724.52 27.2059 L1724.52 54.3874 Q1724.52 60.8284 1727.03 64.0691 Q1729.54 67.2693 1734.56 67.2693 Q1740.6 67.2693 1744.08 63.421 Q1747.61 59.5726 1747.61 52.9291 L1747.61 27.2059 L1755.06 27.2059 L1755.06 72.576 L1747.61 72.576 L1747.61 65.6084 Q1744.89 69.7404 1741.29 71.7658 Q1737.72 73.7508 1732.98 73.7508 Q1725.16 73.7508 1721.11 68.8897 Q1717.06 64.0286 1717.06 54.671 M1735.82 26.1121 L1735.82 26.1121 Z" fill="#000000" fill-rule="evenodd" fill-opacity="1" /><path clip-path="url(#clip350)" d="M 0 0 M1770.25 14.324 L1770.25 27.2059 L1785.6 27.2059 L1785.6 32.9987 L1770.25 32.9987 L1770.25 57.6282 Q1770.25 63.1779 1771.75 64.7578 Q1773.29 66.3376 1777.95 66.3376 L1785.6 66.3376 L1785.6 72.576 L1777.95 72.576 Q1769.32 72.576 1766.04 69.3758 Q1762.76 66.1351 1762.76 57.6282 L1762.76 32.9987 L1757.29 32.9987 L1757.29 27.2059 L1762.76 27.2059 L1762.76 14.324 L1770.25 14.324 Z" fill="#000000" fill-rule="evenodd" fill-opacity="1" /><path clip-path="url(#clip350)" d="M 0 0 M1822.34 28.5427 L1822.34 35.5912 Q1819.19 33.9709 1815.78 33.1607 Q1812.38 32.3505 1808.73 32.3505 Q1803.18 32.3505 1800.39 34.0519 Q1797.63 35.7533 1797.63 39.156 Q1797.63 41.7486 1799.62 43.2475 Q1801.6 44.7058 1807.6 46.0426 L1810.15 46.6097 Q1818.09 48.3111 1821.41 51.4303 Q1824.78 54.509 1824.78 60.0587 Q1824.78 66.3781 1819.75 70.0644 Q1814.77 73.7508 1806.02 73.7508 Q1802.37 73.7508 1798.4 73.0216 Q1794.47 72.3329 1790.1 70.9151 L1790.1 63.2184 Q1794.23 65.3654 1798.24 66.4591 Q1802.25 67.5124 1806.18 67.5124 Q1811.45 67.5124 1814.28 65.73 Q1817.12 63.9071 1817.12 60.6258 Q1817.12 57.5877 1815.05 55.9673 Q1813.03 54.3469 1806.1 52.8481 L1803.51 52.2405 Q1796.58 50.7821 1793.5 47.7845 Q1790.42 44.7463 1790.42 39.4801 Q1790.42 33.0797 1794.96 29.5959 Q1799.5 26.1121 1807.84 26.1121 Q1811.97 26.1121 1815.62 26.7198 Q1819.27 27.3274 1822.34 28.5427 Z" fill="#000000" fill-rule="evenodd" fill-opacity="1" /><path clip-path="url(#clip350)" d="M 0 0 M1865.24 28.9478 L1865.24 35.9153 Q1862.08 34.1734 1858.88 33.3227 Q1855.72 32.4315 1852.48 32.4315 Q1845.23 32.4315 1841.22 37.0496 Q1837.21 41.6271 1837.21 49.9314 Q1837.21 58.2358 1841.22 62.8538 Q1845.23 67.4314 1852.48 67.4314 Q1855.72 67.4314 1858.88 66.5807 Q1862.08 65.6895 1865.24 63.9476 L1865.24 70.8341 Q1862.12 72.2924 1858.76 73.0216 Q1855.44 73.7508 1851.67 73.7508 Q1841.42 73.7508 1835.39 67.3098 Q1829.35 60.8689 1829.35 49.9314 Q1829.35 38.832 1835.43 32.472 Q1841.55 26.1121 1852.16 26.1121 Q1855.6 26.1121 1858.88 26.8413 Q1862.17 27.5299 1865.24 28.9478 Z" fill="#000000" fill-rule="evenodd" fill-opacity="1" /><path clip-path="url(#clip350)" d="M 0 0 M1910.78 45.1919 L1910.78 72.576 L1903.32 72.576 L1903.32 45.4349 Q1903.32 38.994 1900.81 35.7938 Q1898.3 32.5936 1893.28 32.5936 Q1887.24 32.5936 1883.76 36.4419 Q1880.27 40.2903 1880.27 46.9338 L1880.27 72.576 L1872.78 72.576 L1872.78 9.54393 L1880.27 9.54393 L1880.27 34.2544 Q1882.95 30.163 1886.55 28.1376 Q1890.2 26.1121 1894.94 26.1121 Q1902.76 26.1121 1906.77 30.9732 Q1910.78 35.7938 1910.78 45.1919 Z" fill="#000000" fill-rule="evenodd" fill-opacity="1" /><path clip-path="url(#clip350)" d="M 0 0 M1918.59 9.54393 L1926.05 9.54393 L1926.05 72.576 L1918.59 72.576 L1918.59 9.54393 Z" fill="#000000" fill-rule="evenodd" fill-opacity="1" /><path clip-path="url(#clip350)" d="M 0 0 M1954.49 49.7694 Q1945.45 49.7694 1941.97 51.8354 Q1938.48 53.9013 1938.48 58.8839 Q1938.48 62.8538 1941.08 65.2034 Q1943.71 67.5124 1948.21 67.5124 Q1954.4 67.5124 1958.13 63.1374 Q1961.9 58.7219 1961.9 51.4303 L1961.9 49.7694 L1954.49 49.7694 M1969.35 46.6907 L1969.35 72.576 L1961.9 72.576 L1961.9 65.6895 Q1959.35 69.8214 1955.54 71.8063 Q1951.73 73.7508 1946.22 73.7508 Q1939.25 73.7508 1935.12 69.8619 Q1931.03 65.9325 1931.03 59.3701 Q1931.03 51.7138 1936.13 47.825 Q1941.28 43.9361 1951.45 43.9361 L1961.9 43.9361 L1961.9 43.2069 Q1961.9 38.0623 1958.5 35.2672 Q1955.13 32.4315 1949.02 32.4315 Q1945.13 32.4315 1941.44 33.3632 Q1937.76 34.295 1934.35 36.1584 L1934.35 29.2718 Q1938.44 27.692 1942.29 26.9223 Q1946.14 26.1121 1949.79 26.1121 Q1959.63 26.1121 1964.49 31.2163 Q1969.35 36.3204 1969.35 46.6907 Z" fill="#000000" fill-rule="evenodd" fill-opacity="1" /><path clip-path="url(#clip350)" d="M 0 0 M2014.88 45.1919 L2014.88 72.576 L2007.43 72.576 L2007.43 45.4349 Q2007.43 38.994 2004.92 35.7938 Q2002.41 32.5936 1997.38 32.5936 Q1991.35 32.5936 1987.86 36.4419 Q1984.38 40.2903 1984.38 46.9338 L1984.38 72.576 L1976.89 72.576 L1976.89 27.2059 L1984.38 27.2059 L1984.38 34.2544 Q1987.05 30.163 1990.66 28.1376 Q1994.31 26.1121 1999.05 26.1121 Q2006.86 26.1121 2010.87 30.9732 Q2014.88 35.7938 2014.88 45.1919 Z" fill="#000000" fill-rule="evenodd" fill-opacity="1" /><path clip-path="url(#clip350)" d="M 0 0 M2052.56 34.0924 L2052.56 9.54393 L2060.01 9.54393 L2060.01 72.576 L2052.56 72.576 L2052.56 65.7705 Q2050.21 69.8214 2046.6 71.8063 Q2043.04 73.7508 2038.01 73.7508 Q2029.79 73.7508 2024.61 67.1883 Q2019.46 60.6258 2019.46 49.9314 Q2019.46 39.2371 2024.61 32.6746 Q2029.79 26.1121 2038.01 26.1121 Q2043.04 26.1121 2046.6 28.0971 Q2050.21 30.0415 2052.56 34.0924 M2027.16 49.9314 Q2027.16 58.1548 2030.52 62.8538 Q2033.92 67.5124 2039.84 67.5124 Q2045.75 67.5124 2049.15 62.8538 Q2052.56 58.1548 2052.56 49.9314 Q2052.56 41.7081 2049.15 37.0496 Q2045.75 32.3505 2039.84 32.3505 Q2033.92 32.3505 2030.52 37.0496 Q2027.16 41.7081 2027.16 49.9314 Z" fill="#000000" fill-rule="evenodd" fill-opacity="1" /><polyline clip-path="url(#clip352)" style="stroke:#006298; stroke-width:12; stroke-opacity:1; fill:none" points="
  86.9921,677.128 131.419,678.435 175.846,668.79 220.272,666.716 264.699,675.685 309.126,674.694 353.553,675.776 397.979,677.263 442.406,657.342 486.833,658.513 
  531.26,654.908 575.686,662.345 620.113,671.359 664.54,687.179 708.966,710.66 753.393,754.109 797.82,740.948 842.247,748.835 886.673,715.934 931.1,762.357 
  975.527,776.103 1019.95,773.579 1064.38,797.828 1108.81,801.568 1153.23,747.078 1197.66,802.74 1242.09,779.303 1286.51,781.241 1330.94,745.365 1375.37,781.377 
  1419.79,814.188 1464.22,810.808 1508.65,776.013 1553.07,737.478 1597.5,785.658 1641.93,783.81 1686.35,772.768 1730.78,806.752 1775.21,774.075 1819.64,772.903 
  1864.06,726.3 1908.49,716.024 1952.92,715.348 1997.34,717.331 2041.77,708.722 2086.2,673.252 2130.62,702.953 2175.05,692.001 2219.48,662.525 2263.9,659.55 
  2308.33,636.789 2352.76,620.203 
  "/>
<polyline clip-path="url(#clip352)" style="stroke:#a02438; stroke-width:12; stroke-opacity:1; fill:none" points="
  86.9921,568.101 131.419,515.368 175.846,553.093 220.272,515.053 264.699,444.833 309.126,484.585 353.553,487.83 397.979,506.94 442.406,566.028 486.833,648.823 
  531.26,669.33 575.686,713.815 620.113,710.345 664.54,742.12 708.966,746.897 753.393,760.374 797.82,714.491 842.247,738.064 886.673,726.616 931.1,740.227 
  975.527,768.216 1019.95,747.438 1064.38,795.529 1108.81,784.351 1153.23,751.495 1197.66,785.253 1242.09,769.027 1286.51,805.985 1330.94,761.5 1375.37,785.794 
  1419.79,765.016 1464.22,798.774 1508.65,782.503 1553.07,792.78 1597.5,786.019 1641.93,800.577 1686.35,782.368 1730.78,765.422 1775.21,755.145 1819.64,757.94 
  1864.06,721.613 1908.49,737.252 1952.92,740.993 1997.34,753.343 2041.77,726.841 2086.2,715.753 2130.62,712.373 2175.05,703.584 2219.48,685.601 2263.9,675.55 
  2308.33,675.415 2352.76,670.007 
  "/>
<polyline clip-path="url(#clip352)" style="stroke:#449adc; stroke-width:12; stroke-opacity:1; fill:none" points="
  86.9921,638.096 131.419,662.975 175.846,645.037 220.272,646.885 264.699,628.902 309.126,605.059 353.553,552.191 397.979,477.554 442.406,359.063 486.833,303.4 
  531.26,410.624 575.686,483.278 620.113,567.56 664.54,607.178 708.966,646.164 753.393,698.987 797.82,739.776 842.247,753.298 886.673,733.331 931.1,765.737 
  975.527,764.565 1019.95,740.542 1064.38,757.354 1108.81,807.473 1153.23,796.566 1197.66,763.078 1242.09,760.464 1286.51,785.343 1330.94,757.264 1375.37,682.491 
  1419.79,592.214 1464.22,677.218 1508.65,748.7 1553.07,761.185 1597.5,788.002 1641.93,770.424 1686.35,774.977 1730.78,759.653 1775.21,789.67 1819.64,760.689 
  1864.06,744.599 1908.49,764.205 1952.92,760.193 1997.34,747.979 2041.77,715.934 2086.2,750.638 2130.62,708.542 2175.05,693.263 2219.48,682.04 2263.9,700.294 
  2308.33,654.908 2352.76,699.979 
  "/>
<polyline clip-path="url(#clip352)" style="stroke:#002b52; stroke-width:12; stroke-opacity:1; fill:none" points="
  86.9921,667.573 131.419,645.668 175.846,646.209 220.272,629.939 264.699,617.679 309.126,609.161 353.553,602.4 397.979,593.161 442.406,572.473 486.833,588.383 
  531.26,617.634 575.686,652.294 620.113,672.981 664.54,667.798 708.966,704.396 753.393,694.525 797.82,701.782 842.247,738.244 886.673,737.207 931.1,728.193 
  975.527,740.317 1019.95,747.754 1064.38,721.748 1108.81,765.512 1153.23,759.202 1197.66,702.548 1242.09,763.619 1286.51,773.219 1330.94,750.007 1375.37,626.017 
  1419.79,741.354 1464.22,763.979 1508.65,792.419 1553.07,776.194 1597.5,715.168 1641.93,788.813 1686.35,773.489 1730.78,765.602 1775.21,724.723 1819.64,748.835 
  1864.06,712.373 1908.49,710.931 1952.92,728.193 1997.34,721.072 2041.77,704.846 2086.2,687.088 2130.62,673.297 2175.05,671.674 2219.48,646.795 2263.9,648.102 
  2308.33,651.437 2352.76,688.576 
  "/>
<polyline clip-path="url(#clip352)" style="stroke:#ec4a60; stroke-width:12; stroke-opacity:1; fill:none" points="
  86.9921,655.854 131.419,633.003 175.846,643.595 220.272,655.088 264.699,618.175 309.126,652.158 353.553,624.8 397.979,656.215 442.406,630.615 486.833,624.981 
  531.26,613.307 575.686,619.257 620.113,621.015 664.54,578.558 708.966,584.372 753.393,639.764 797.82,672.891 842.247,701.06 886.673,713.996 931.1,743.247 
  975.527,737.523 1019.95,753.568 1064.38,730.762 1108.81,761.771 1153.23,770.695 1197.66,730.537 1242.09,766.774 1286.51,781.827 1330.94,764.25 1375.37,747.438 
  1419.79,726.03 1464.22,722.063 1508.65,623.043 1553.07,719.404 1597.5,760.509 1641.93,755.686 1686.35,739.461 1730.78,718.908 1775.21,726.616 1819.64,717.331 
  1864.06,723.776 1908.49,711.697 1952.92,674.964 1997.34,676.226 2041.77,654.006 2086.2,624.981 2130.62,604.834 2175.05,557.194 2219.48,499.188 2263.9,442.128 
  2308.33,413.734 2352.76,391.108 
  "/>
<path clip-path="url(#clip350)" d="
M1923.56 1457.18 L2277.23 1457.18 L2277.23 1094.3 L1923.56 1094.3  Z
  " fill="#ffffff" fill-rule="evenodd" fill-opacity="1"/>
<polyline clip-path="url(#clip350)" style="stroke:#000000; stroke-width:4; stroke-opacity:1; fill:none" points="
  1923.56,1457.18 2277.23,1457.18 2277.23,1094.3 1923.56,1094.3 1923.56,1457.18 
  "/>
<polyline clip-path="url(#clip350)" style="stroke:#006298; stroke-width:4; stroke-opacity:1; fill:none" points="
  1948.73,1154.78 2099.78,1154.78 
  "/>
<path clip-path="url(#clip350)" d="M 0 0 M2130.58 1168.13 L2146.9 1168.13 L2146.9 1172.06 L2124.96 1172.06 L2124.96 1168.13 Q2127.62 1165.37 2132.2 1160.74 Q2136.81 1156.09 2137.99 1154.75 Q2140.24 1152.23 2141.12 1150.49 Q2142.02 1148.73 2142.02 1147.04 Q2142.02 1144.29 2140.08 1142.55 Q2138.15 1140.81 2135.05 1140.81 Q2132.85 1140.81 2130.4 1141.58 Q2127.97 1142.34 2125.19 1143.89 L2125.19 1139.17 Q2128.01 1138.04 2130.47 1137.46 Q2132.92 1136.88 2134.96 1136.88 Q2140.33 1136.88 2143.52 1139.56 Q2146.72 1142.25 2146.72 1146.74 Q2146.72 1148.87 2145.91 1150.79 Q2145.12 1152.69 2143.01 1155.28 Q2142.44 1155.95 2139.33 1159.17 Q2136.23 1162.37 2130.58 1168.13 Z" fill="#000000" fill-rule="evenodd" fill-opacity="1" /><path clip-path="url(#clip350)" d="M 0 0 M2161.97 1140.58 Q2158.36 1140.58 2156.53 1144.15 Q2154.73 1147.69 2154.73 1154.82 Q2154.73 1161.93 2156.53 1165.49 Q2158.36 1169.03 2161.97 1169.03 Q2165.61 1169.03 2167.41 1165.49 Q2169.24 1161.93 2169.24 1154.82 Q2169.24 1147.69 2167.41 1144.15 Q2165.61 1140.58 2161.97 1140.58 M2161.97 1136.88 Q2167.78 1136.88 2170.84 1141.49 Q2173.92 1146.07 2173.92 1154.82 Q2173.92 1163.55 2170.84 1168.15 Q2167.78 1172.74 2161.97 1172.74 Q2156.16 1172.74 2153.08 1168.15 Q2150.03 1163.55 2150.03 1154.82 Q2150.03 1146.07 2153.08 1141.49 Q2156.16 1136.88 2161.97 1136.88 Z" fill="#000000" fill-rule="evenodd" fill-opacity="1" /><path clip-path="url(#clip350)" d="M 0 0 M2179.8 1168.13 L2187.44 1168.13 L2187.44 1141.76 L2179.13 1143.43 L2179.13 1139.17 L2187.39 1137.5 L2192.07 1137.5 L2192.07 1168.13 L2199.7 1168.13 L2199.7 1172.06 L2179.8 1172.06 L2179.8 1168.13 Z" fill="#000000" fill-rule="evenodd" fill-opacity="1" /><path clip-path="url(#clip350)" d="M 0 0 M2215.35 1152.92 Q2212.2 1152.92 2210.35 1155.07 Q2208.52 1157.23 2208.52 1160.98 Q2208.52 1164.7 2210.35 1166.88 Q2212.2 1169.03 2215.35 1169.03 Q2218.5 1169.03 2220.33 1166.88 Q2222.18 1164.7 2222.18 1160.98 Q2222.18 1157.23 2220.33 1155.07 Q2218.5 1152.92 2215.35 1152.92 M2224.63 1138.27 L2224.63 1142.53 Q2222.88 1141.69 2221.07 1141.25 Q2219.29 1140.81 2217.53 1140.81 Q2212.9 1140.81 2210.45 1143.94 Q2208.01 1147.06 2207.67 1153.38 Q2209.03 1151.37 2211.09 1150.31 Q2213.15 1149.22 2215.63 1149.22 Q2220.84 1149.22 2223.85 1152.39 Q2226.88 1155.54 2226.88 1160.98 Q2226.88 1166.3 2223.73 1169.52 Q2220.58 1172.74 2215.35 1172.74 Q2209.36 1172.74 2206.19 1168.15 Q2203.01 1163.55 2203.01 1154.82 Q2203.01 1146.62 2206.9 1141.76 Q2210.79 1136.88 2217.34 1136.88 Q2219.1 1136.88 2220.88 1137.23 Q2222.69 1137.57 2224.63 1138.27 Z" fill="#000000" fill-rule="evenodd" fill-opacity="1" /><polyline clip-path="url(#clip350)" style="stroke:#a02438; stroke-width:4; stroke-opacity:1; fill:none" points="
  1948.73,1215.26 2099.78,1215.26 
  "/>
<path clip-path="url(#clip350)" d="M 0 0 M2130.58 1228.61 L2146.9 1228.61 L2146.9 1232.54 L2124.96 1232.54 L2124.96 1228.61 Q2127.62 1225.85 2132.2 1221.22 Q2136.81 1216.57 2137.99 1215.23 Q2140.24 1212.71 2141.12 1210.97 Q2142.02 1209.21 2142.02 1207.52 Q2142.02 1204.77 2140.08 1203.03 Q2138.15 1201.29 2135.05 1201.29 Q2132.85 1201.29 2130.4 1202.06 Q2127.97 1202.82 2125.19 1204.37 L2125.19 1199.65 Q2128.01 1198.52 2130.47 1197.94 Q2132.92 1197.36 2134.96 1197.36 Q2140.33 1197.36 2143.52 1200.04 Q2146.72 1202.73 2146.72 1207.22 Q2146.72 1209.35 2145.91 1211.27 Q2145.12 1213.17 2143.01 1215.76 Q2142.44 1216.43 2139.33 1219.65 Q2136.23 1222.85 2130.58 1228.61 Z" fill="#000000" fill-rule="evenodd" fill-opacity="1" /><path clip-path="url(#clip350)" d="M 0 0 M2161.97 1201.06 Q2158.36 1201.06 2156.53 1204.63 Q2154.73 1208.17 2154.73 1215.3 Q2154.73 1222.41 2156.53 1225.97 Q2158.36 1229.51 2161.97 1229.51 Q2165.61 1229.51 2167.41 1225.97 Q2169.24 1222.41 2169.24 1215.3 Q2169.24 1208.17 2167.41 1204.63 Q2165.61 1201.06 2161.97 1201.06 M2161.97 1197.36 Q2167.78 1197.36 2170.84 1201.97 Q2173.92 1206.55 2173.92 1215.3 Q2173.92 1224.03 2170.84 1228.63 Q2167.78 1233.22 2161.97 1233.22 Q2156.16 1233.22 2153.08 1228.63 Q2150.03 1224.03 2150.03 1215.3 Q2150.03 1206.55 2153.08 1201.97 Q2156.16 1197.36 2161.97 1197.36 Z" fill="#000000" fill-rule="evenodd" fill-opacity="1" /><path clip-path="url(#clip350)" d="M 0 0 M2179.8 1228.61 L2187.44 1228.61 L2187.44 1202.24 L2179.13 1203.91 L2179.13 1199.65 L2187.39 1197.98 L2192.07 1197.98 L2192.07 1228.61 L2199.7 1228.61 L2199.7 1232.54 L2179.8 1232.54 L2179.8 1228.61 Z" fill="#000000" fill-rule="evenodd" fill-opacity="1" /><path clip-path="url(#clip350)" d="M 0 0 M2203.59 1197.98 L2225.82 1197.98 L2225.82 1199.97 L2213.27 1232.54 L2208.38 1232.54 L2220.19 1201.92 L2203.59 1201.92 L2203.59 1197.98 Z" fill="#000000" fill-rule="evenodd" fill-opacity="1" /><polyline clip-path="url(#clip350)" style="stroke:#449adc; stroke-width:4; stroke-opacity:1; fill:none" points="
  1948.73,1275.74 2099.78,1275.74 
  "/>
<path clip-path="url(#clip350)" d="M 0 0 M2130.58 1289.09 L2146.9 1289.09 L2146.9 1293.02 L2124.96 1293.02 L2124.96 1289.09 Q2127.62 1286.33 2132.2 1281.7 Q2136.81 1277.05 2137.99 1275.71 Q2140.24 1273.19 2141.12 1271.45 Q2142.02 1269.69 2142.02 1268 Q2142.02 1265.25 2140.08 1263.51 Q2138.15 1261.77 2135.05 1261.77 Q2132.85 1261.77 2130.4 1262.54 Q2127.97 1263.3 2125.19 1264.85 L2125.19 1260.13 Q2128.01 1259 2130.47 1258.42 Q2132.92 1257.84 2134.96 1257.84 Q2140.33 1257.84 2143.52 1260.52 Q2146.72 1263.21 2146.72 1267.7 Q2146.72 1269.83 2145.91 1271.75 Q2145.12 1273.65 2143.01 1276.24 Q2142.44 1276.91 2139.33 1280.13 Q2136.23 1283.33 2130.58 1289.09 Z" fill="#000000" fill-rule="evenodd" fill-opacity="1" /><path clip-path="url(#clip350)" d="M 0 0 M2161.97 1261.54 Q2158.36 1261.54 2156.53 1265.11 Q2154.73 1268.65 2154.73 1275.78 Q2154.73 1282.89 2156.53 1286.45 Q2158.36 1289.99 2161.97 1289.99 Q2165.61 1289.99 2167.41 1286.45 Q2169.24 1282.89 2169.24 1275.78 Q2169.24 1268.65 2167.41 1265.11 Q2165.61 1261.54 2161.97 1261.54 M2161.97 1257.84 Q2167.78 1257.84 2170.84 1262.45 Q2173.92 1267.03 2173.92 1275.78 Q2173.92 1284.51 2170.84 1289.11 Q2167.78 1293.7 2161.97 1293.7 Q2156.16 1293.7 2153.08 1289.11 Q2150.03 1284.51 2150.03 1275.78 Q2150.03 1267.03 2153.08 1262.45 Q2156.16 1257.84 2161.97 1257.84 Z" fill="#000000" fill-rule="evenodd" fill-opacity="1" /><path clip-path="url(#clip350)" d="M 0 0 M2179.8 1289.09 L2187.44 1289.09 L2187.44 1262.72 L2179.13 1264.39 L2179.13 1260.13 L2187.39 1258.46 L2192.07 1258.46 L2192.07 1289.09 L2199.7 1289.09 L2199.7 1293.02 L2179.8 1293.02 L2179.8 1289.09 Z" fill="#000000" fill-rule="evenodd" fill-opacity="1" /><path clip-path="url(#clip350)" d="M 0 0 M2214.77 1276.61 Q2211.44 1276.61 2209.52 1278.39 Q2207.62 1280.18 2207.62 1283.3 Q2207.62 1286.43 2209.52 1288.21 Q2211.44 1289.99 2214.77 1289.99 Q2218.11 1289.99 2220.03 1288.21 Q2221.95 1286.4 2221.95 1283.3 Q2221.95 1280.18 2220.03 1278.39 Q2218.13 1276.61 2214.77 1276.61 M2210.1 1274.62 Q2207.09 1273.88 2205.4 1271.82 Q2203.73 1269.76 2203.73 1266.8 Q2203.73 1262.65 2206.67 1260.25 Q2209.63 1257.84 2214.77 1257.84 Q2219.94 1257.84 2222.88 1260.25 Q2225.82 1262.65 2225.82 1266.8 Q2225.82 1269.76 2224.13 1271.82 Q2222.46 1273.88 2219.47 1274.62 Q2222.85 1275.41 2224.73 1277.7 Q2226.63 1279.99 2226.63 1283.3 Q2226.63 1288.33 2223.55 1291.01 Q2220.49 1293.7 2214.77 1293.7 Q2209.06 1293.7 2205.98 1291.01 Q2202.92 1288.33 2202.92 1283.3 Q2202.92 1279.99 2204.82 1277.7 Q2206.72 1275.41 2210.1 1274.62 M2208.38 1267.24 Q2208.38 1269.92 2210.05 1271.43 Q2211.74 1272.93 2214.77 1272.93 Q2217.78 1272.93 2219.47 1271.43 Q2221.19 1269.92 2221.19 1267.24 Q2221.19 1264.55 2219.47 1263.05 Q2217.78 1261.54 2214.77 1261.54 Q2211.74 1261.54 2210.05 1263.05 Q2208.38 1264.55 2208.38 1267.24 Z" fill="#000000" fill-rule="evenodd" fill-opacity="1" /><polyline clip-path="url(#clip350)" style="stroke:#002b52; stroke-width:4; stroke-opacity:1; fill:none" points="
  1948.73,1336.22 2099.78,1336.22 
  "/>
<path clip-path="url(#clip350)" d="M 0 0 M2130.58 1349.57 L2146.9 1349.57 L2146.9 1353.5 L2124.96 1353.5 L2124.96 1349.57 Q2127.62 1346.81 2132.2 1342.18 Q2136.81 1337.53 2137.99 1336.19 Q2140.24 1333.67 2141.12 1331.93 Q2142.02 1330.17 2142.02 1328.48 Q2142.02 1325.73 2140.08 1323.99 Q2138.15 1322.25 2135.05 1322.25 Q2132.85 1322.25 2130.4 1323.02 Q2127.97 1323.78 2125.19 1325.33 L2125.19 1320.61 Q2128.01 1319.48 2130.47 1318.9 Q2132.92 1318.32 2134.96 1318.32 Q2140.33 1318.32 2143.52 1321 Q2146.72 1323.69 2146.72 1328.18 Q2146.72 1330.31 2145.91 1332.23 Q2145.12 1334.13 2143.01 1336.72 Q2142.44 1337.39 2139.33 1340.61 Q2136.23 1343.81 2130.58 1349.57 Z" fill="#000000" fill-rule="evenodd" fill-opacity="1" /><path clip-path="url(#clip350)" d="M 0 0 M2161.97 1322.02 Q2158.36 1322.02 2156.53 1325.59 Q2154.73 1329.13 2154.73 1336.26 Q2154.73 1343.37 2156.53 1346.93 Q2158.36 1350.47 2161.97 1350.47 Q2165.61 1350.47 2167.41 1346.93 Q2169.24 1343.37 2169.24 1336.26 Q2169.24 1329.13 2167.41 1325.59 Q2165.61 1322.02 2161.97 1322.02 M2161.97 1318.32 Q2167.78 1318.32 2170.84 1322.93 Q2173.92 1327.51 2173.92 1336.26 Q2173.92 1344.99 2170.84 1349.59 Q2167.78 1354.18 2161.97 1354.18 Q2156.16 1354.18 2153.08 1349.59 Q2150.03 1344.99 2150.03 1336.26 Q2150.03 1327.51 2153.08 1322.93 Q2156.16 1318.32 2161.97 1318.32 Z" fill="#000000" fill-rule="evenodd" fill-opacity="1" /><path clip-path="url(#clip350)" d="M 0 0 M2179.8 1349.57 L2187.44 1349.57 L2187.44 1323.2 L2179.13 1324.87 L2179.13 1320.61 L2187.39 1318.94 L2192.07 1318.94 L2192.07 1349.57 L2199.7 1349.57 L2199.7 1353.5 L2179.8 1353.5 L2179.8 1349.57 Z" fill="#000000" fill-rule="evenodd" fill-opacity="1" /><path clip-path="url(#clip350)" d="M 0 0 M2204.91 1352.79 L2204.91 1348.53 Q2206.67 1349.36 2208.48 1349.8 Q2210.28 1350.24 2212.02 1350.24 Q2216.65 1350.24 2219.08 1347.14 Q2221.53 1344.01 2221.88 1337.67 Q2220.54 1339.66 2218.48 1340.73 Q2216.42 1341.79 2213.92 1341.79 Q2208.73 1341.79 2205.7 1338.67 Q2202.69 1335.52 2202.69 1330.08 Q2202.69 1324.75 2205.84 1321.54 Q2208.99 1318.32 2214.22 1318.32 Q2220.21 1318.32 2223.36 1322.93 Q2226.53 1327.51 2226.53 1336.26 Q2226.53 1344.43 2222.64 1349.31 Q2218.78 1354.18 2212.23 1354.18 Q2210.47 1354.18 2208.66 1353.83 Q2206.86 1353.48 2204.91 1352.79 M2214.22 1338.13 Q2217.37 1338.13 2219.19 1335.98 Q2221.05 1333.83 2221.05 1330.08 Q2221.05 1326.35 2219.19 1324.2 Q2217.37 1322.02 2214.22 1322.02 Q2211.07 1322.02 2209.22 1324.2 Q2207.39 1326.35 2207.39 1330.08 Q2207.39 1333.83 2209.22 1335.98 Q2211.07 1338.13 2214.22 1338.13 Z" fill="#000000" fill-rule="evenodd" fill-opacity="1" /><polyline clip-path="url(#clip350)" style="stroke:#ec4a60; stroke-width:4; stroke-opacity:1; fill:none" points="
  1948.73,1396.7 2099.78,1396.7 
  "/>
<path clip-path="url(#clip350)" d="M 0 0 M2130.58 1410.05 L2146.9 1410.05 L2146.9 1413.98 L2124.96 1413.98 L2124.96 1410.05 Q2127.62 1407.29 2132.2 1402.66 Q2136.81 1398.01 2137.99 1396.67 Q2140.24 1394.15 2141.12 1392.41 Q2142.02 1390.65 2142.02 1388.96 Q2142.02 1386.21 2140.08 1384.47 Q2138.15 1382.73 2135.05 1382.73 Q2132.85 1382.73 2130.4 1383.5 Q2127.97 1384.26 2125.19 1385.81 L2125.19 1381.09 Q2128.01 1379.96 2130.47 1379.38 Q2132.92 1378.8 2134.96 1378.8 Q2140.33 1378.8 2143.52 1381.48 Q2146.72 1384.17 2146.72 1388.66 Q2146.72 1390.79 2145.91 1392.71 Q2145.12 1394.61 2143.01 1397.2 Q2142.44 1397.87 2139.33 1401.09 Q2136.23 1404.29 2130.58 1410.05 Z" fill="#000000" fill-rule="evenodd" fill-opacity="1" /><path clip-path="url(#clip350)" d="M 0 0 M2161.97 1382.5 Q2158.36 1382.5 2156.53 1386.07 Q2154.73 1389.61 2154.73 1396.74 Q2154.73 1403.85 2156.53 1407.41 Q2158.36 1410.95 2161.97 1410.95 Q2165.61 1410.95 2167.41 1407.41 Q2169.24 1403.85 2169.24 1396.74 Q2169.24 1389.61 2167.41 1386.07 Q2165.61 1382.5 2161.97 1382.5 M2161.97 1378.8 Q2167.78 1378.8 2170.84 1383.41 Q2173.92 1387.99 2173.92 1396.74 Q2173.92 1405.47 2170.84 1410.07 Q2167.78 1414.66 2161.97 1414.66 Q2156.16 1414.66 2153.08 1410.07 Q2150.03 1405.47 2150.03 1396.74 Q2150.03 1387.99 2153.08 1383.41 Q2156.16 1378.8 2161.97 1378.8 Z" fill="#000000" fill-rule="evenodd" fill-opacity="1" /><path clip-path="url(#clip350)" d="M 0 0 M2183.01 1410.05 L2199.33 1410.05 L2199.33 1413.98 L2177.39 1413.98 L2177.39 1410.05 Q2180.05 1407.29 2184.63 1402.66 Q2189.24 1398.01 2190.42 1396.67 Q2192.67 1394.15 2193.55 1392.41 Q2194.45 1390.65 2194.45 1388.96 Q2194.45 1386.21 2192.51 1384.47 Q2190.58 1382.73 2187.48 1382.73 Q2185.28 1382.73 2182.83 1383.5 Q2180.4 1384.26 2177.62 1385.81 L2177.62 1381.09 Q2180.45 1379.96 2182.9 1379.38 Q2185.35 1378.8 2187.39 1378.8 Q2192.76 1378.8 2195.95 1381.48 Q2199.15 1384.17 2199.15 1388.66 Q2199.15 1390.79 2198.34 1392.71 Q2197.55 1394.61 2195.45 1397.2 Q2194.87 1397.87 2191.76 1401.09 Q2188.66 1404.29 2183.01 1410.05 Z" fill="#000000" fill-rule="evenodd" fill-opacity="1" /><path clip-path="url(#clip350)" d="M 0 0 M2214.4 1382.5 Q2210.79 1382.5 2208.96 1386.07 Q2207.16 1389.61 2207.16 1396.74 Q2207.16 1403.85 2208.96 1407.41 Q2210.79 1410.95 2214.4 1410.95 Q2218.04 1410.95 2219.84 1407.41 Q2221.67 1403.85 2221.67 1396.74 Q2221.67 1389.61 2219.84 1386.07 Q2218.04 1382.5 2214.4 1382.5 M2214.4 1378.8 Q2220.21 1378.8 2223.27 1383.41 Q2226.35 1387.99 2226.35 1396.74 Q2226.35 1405.47 2223.27 1410.07 Q2220.21 1414.66 2214.4 1414.66 Q2208.59 1414.66 2205.51 1410.07 Q2202.46 1405.47 2202.46 1396.74 Q2202.46 1387.99 2205.51 1383.41 Q2208.59 1378.8 2214.4 1378.8 Z" fill="#000000" fill-rule="evenodd" fill-opacity="1" /></svg>
