<?xml version="1.0" encoding="utf-8"?>
<svg xmlns="http://www.w3.org/2000/svg" xmlns:xlink="http://www.w3.org/1999/xlink" width="600" height="400" viewBox="0 0 2400 1600">
<defs>
  <clipPath id="clip780">
    <rect x="0" y="0" width="2400" height="1600"/>
  </clipPath>
</defs>
<path clip-path="url(#clip780)" d="
M0 1600 L2400 1600 L2400 0 L0 0  Z
  " fill="#ffffff" fill-rule="evenodd" fill-opacity="1"/>
<defs>
  <clipPath id="clip781">
    <rect x="480" y="0" width="1681" height="1600"/>
  </clipPath>
</defs>
<path clip-path="url(#clip780)" d="
M271.244 1505.26 L2352.76 1505.26 L2352.76 62.9921 L271.244 62.9921  Z
  " fill="#ffffff" fill-rule="evenodd" fill-opacity="1"/>
<defs>
  <clipPath id="clip782">
    <rect x="271" y="62" width="2083" height="1443"/>
  </clipPath>
</defs>
<polyline clip-path="url(#clip782)" style="stroke:#000000; stroke-width:2; stroke-opacity:0.1; fill:none" points="
  292.392,1505.26 292.392,62.9921 
  "/>
<polyline clip-path="url(#clip782)" style="stroke:#000000; stroke-width:2; stroke-opacity:0.1; fill:none" points="
  670.024,1505.26 670.024,62.9921 
  "/>
<polyline clip-path="url(#clip782)" style="stroke:#000000; stroke-width:2; stroke-opacity:0.1; fill:none" points="
  1047.66,1505.26 1047.66,62.9921 
  "/>
<polyline clip-path="url(#clip782)" style="stroke:#000000; stroke-width:2; stroke-opacity:0.1; fill:none" points="
  1425.29,1505.26 1425.29,62.9921 
  "/>
<polyline clip-path="url(#clip782)" style="stroke:#000000; stroke-width:2; stroke-opacity:0.1; fill:none" points="
  1802.92,1505.26 1802.92,62.9921 
  "/>
<polyline clip-path="url(#clip782)" style="stroke:#000000; stroke-width:2; stroke-opacity:0.1; fill:none" points="
  2180.56,1505.26 2180.56,62.9921 
  "/>
<polyline clip-path="url(#clip780)" style="stroke:#000000; stroke-width:4; stroke-opacity:1; fill:none" points="
  271.244,1505.26 2352.76,1505.26 
  "/>
<polyline clip-path="url(#clip780)" style="stroke:#000000; stroke-width:4; stroke-opacity:1; fill:none" points="
  292.392,1505.26 292.392,1487.95 
  "/>
<polyline clip-path="url(#clip780)" style="stroke:#000000; stroke-width:4; stroke-opacity:1; fill:none" points="
  670.024,1505.26 670.024,1487.95 
  "/>
<polyline clip-path="url(#clip780)" style="stroke:#000000; stroke-width:4; stroke-opacity:1; fill:none" points="
  1047.66,1505.26 1047.66,1487.95 
  "/>
<polyline clip-path="url(#clip780)" style="stroke:#000000; stroke-width:4; stroke-opacity:1; fill:none" points="
  1425.29,1505.26 1425.29,1487.95 
  "/>
<polyline clip-path="url(#clip780)" style="stroke:#000000; stroke-width:4; stroke-opacity:1; fill:none" points="
  1802.92,1505.26 1802.92,1487.95 
  "/>
<polyline clip-path="url(#clip780)" style="stroke:#000000; stroke-width:4; stroke-opacity:1; fill:none" points="
  2180.56,1505.26 2180.56,1487.95 
  "/>
<path clip-path="url(#clip780)" d="M 0 0 M292.392 1534.45 Q288.78 1534.45 286.952 1538.02 Q285.146 1541.56 285.146 1548.69 Q285.146 1555.79 286.952 1559.36 Q288.78 1562.9 292.392 1562.9 Q296.026 1562.9 297.831 1559.36 Q299.66 1555.79 299.66 1548.69 Q299.66 1541.56 297.831 1538.02 Q296.026 1534.45 292.392 1534.45 M292.392 1530.75 Q298.202 1530.75 301.257 1535.35 Q304.336 1539.94 304.336 1548.69 Q304.336 1557.41 301.257 1562.02 Q298.202 1566.6 292.392 1566.6 Q286.581 1566.6 283.503 1562.02 Q280.447 1557.41 280.447 1548.69 Q280.447 1539.94 283.503 1535.35 Q286.581 1530.75 292.392 1530.75 Z" fill="#000000" fill-rule="evenodd" fill-opacity="1" /><path clip-path="url(#clip780)" d="M 0 0 M646.899 1562 L654.538 1562 L654.538 1535.63 L646.228 1537.3 L646.228 1533.04 L654.492 1531.37 L659.168 1531.37 L659.168 1562 L666.807 1562 L666.807 1565.93 L646.899 1565.93 L646.899 1562 Z" fill="#000000" fill-rule="evenodd" fill-opacity="1" /><path clip-path="url(#clip780)" d="M 0 0 M681.876 1534.45 Q678.265 1534.45 676.436 1538.02 Q674.631 1541.56 674.631 1548.69 Q674.631 1555.79 676.436 1559.36 Q678.265 1562.9 681.876 1562.9 Q685.51 1562.9 687.316 1559.36 Q689.145 1555.79 689.145 1548.69 Q689.145 1541.56 687.316 1538.02 Q685.51 1534.45 681.876 1534.45 M681.876 1530.75 Q687.686 1530.75 690.742 1535.35 Q693.82 1539.94 693.82 1548.69 Q693.82 1557.41 690.742 1562.02 Q687.686 1566.6 681.876 1566.6 Q676.066 1566.6 672.987 1562.02 Q669.932 1557.41 669.932 1548.69 Q669.932 1539.94 672.987 1535.35 Q676.066 1530.75 681.876 1530.75 Z" fill="#000000" fill-rule="evenodd" fill-opacity="1" /><path clip-path="url(#clip780)" d="M 0 0 M1028.8 1562 L1045.12 1562 L1045.12 1565.93 L1023.18 1565.93 L1023.18 1562 Q1025.84 1559.24 1030.42 1554.61 Q1035.03 1549.96 1036.21 1548.62 Q1038.46 1546.09 1039.34 1544.36 Q1040.24 1542.6 1040.24 1540.91 Q1040.24 1538.15 1038.29 1536.42 Q1036.37 1534.68 1033.27 1534.68 Q1031.07 1534.68 1028.62 1535.45 Q1026.19 1536.21 1023.41 1537.76 L1023.41 1533.04 Q1026.23 1531.9 1028.69 1531.33 Q1031.14 1530.75 1033.18 1530.75 Q1038.55 1530.75 1041.74 1533.43 Q1044.94 1536.12 1044.94 1540.61 Q1044.94 1542.74 1044.13 1544.66 Q1043.34 1546.56 1041.23 1549.15 Q1040.65 1549.82 1037.55 1553.04 Q1034.45 1556.23 1028.8 1562 Z" fill="#000000" fill-rule="evenodd" fill-opacity="1" /><path clip-path="url(#clip780)" d="M 0 0 M1060.19 1534.45 Q1056.58 1534.45 1054.75 1538.02 Q1052.95 1541.56 1052.95 1548.69 Q1052.95 1555.79 1054.75 1559.36 Q1056.58 1562.9 1060.19 1562.9 Q1063.83 1562.9 1065.63 1559.36 Q1067.46 1555.79 1067.46 1548.69 Q1067.46 1541.56 1065.63 1538.02 Q1063.83 1534.45 1060.19 1534.45 M1060.19 1530.75 Q1066 1530.75 1069.06 1535.35 Q1072.14 1539.94 1072.14 1548.69 Q1072.14 1557.41 1069.06 1562.02 Q1066 1566.6 1060.19 1566.6 Q1054.38 1566.6 1051.3 1562.02 Q1048.25 1557.41 1048.25 1548.69 Q1048.25 1539.94 1051.3 1535.35 Q1054.38 1530.75 1060.19 1530.75 Z" fill="#000000" fill-rule="evenodd" fill-opacity="1" /><path clip-path="url(#clip780)" d="M 0 0 M1416.03 1547.3 Q1419.39 1548.02 1421.26 1550.28 Q1423.16 1552.55 1423.16 1555.89 Q1423.16 1561 1419.64 1563.8 Q1416.12 1566.6 1409.64 1566.6 Q1407.47 1566.6 1405.15 1566.16 Q1402.86 1565.75 1400.41 1564.89 L1400.41 1560.38 Q1402.35 1561.51 1404.66 1562.09 Q1406.98 1562.67 1409.5 1562.67 Q1413.9 1562.67 1416.19 1560.93 Q1418.51 1559.2 1418.51 1555.89 Q1418.51 1552.83 1416.35 1551.12 Q1414.23 1549.38 1410.41 1549.38 L1406.38 1549.38 L1406.38 1545.54 L1410.59 1545.54 Q1414.04 1545.54 1415.87 1544.17 Q1417.7 1542.78 1417.7 1540.19 Q1417.7 1537.53 1415.8 1536.12 Q1413.92 1534.68 1410.41 1534.68 Q1408.48 1534.68 1406.29 1535.1 Q1404.09 1535.52 1401.45 1536.39 L1401.45 1532.23 Q1404.11 1531.49 1406.42 1531.12 Q1408.76 1530.75 1410.82 1530.75 Q1416.15 1530.75 1419.25 1533.18 Q1422.35 1535.58 1422.35 1539.71 Q1422.35 1542.58 1420.71 1544.57 Q1419.06 1546.53 1416.03 1547.3 Z" fill="#000000" fill-rule="evenodd" fill-opacity="1" /><path clip-path="url(#clip780)" d="M 0 0 M1438.23 1534.45 Q1434.62 1534.45 1432.79 1538.02 Q1430.98 1541.56 1430.98 1548.69 Q1430.98 1555.79 1432.79 1559.36 Q1434.62 1562.9 1438.23 1562.9 Q1441.86 1562.9 1443.67 1559.36 Q1445.5 1555.79 1445.5 1548.69 Q1445.5 1541.56 1443.67 1538.02 Q1441.86 1534.45 1438.23 1534.45 M1438.23 1530.75 Q1444.04 1530.75 1447.1 1535.35 Q1450.17 1539.94 1450.17 1548.69 Q1450.17 1557.41 1447.1 1562.02 Q1444.04 1566.6 1438.23 1566.6 Q1432.42 1566.6 1429.34 1562.02 Q1426.29 1557.41 1426.29 1548.69 Q1426.29 1539.94 1429.34 1535.35 Q1432.42 1530.75 1438.23 1530.75 Z" fill="#000000" fill-rule="evenodd" fill-opacity="1" /><path clip-path="url(#clip780)" d="M 0 0 M1792.42 1535.45 L1780.62 1553.89 L1792.42 1553.89 L1792.42 1535.45 M1791.2 1531.37 L1797.08 1531.37 L1797.08 1553.89 L1802.01 1553.89 L1802.01 1557.78 L1797.08 1557.78 L1797.08 1565.93 L1792.42 1565.93 L1792.42 1557.78 L1776.82 1557.78 L1776.82 1553.27 L1791.2 1531.37 Z" fill="#000000" fill-rule="evenodd" fill-opacity="1" /><path clip-path="url(#clip780)" d="M 0 0 M1817.08 1534.45 Q1813.47 1534.45 1811.64 1538.02 Q1809.83 1541.56 1809.83 1548.69 Q1809.83 1555.79 1811.64 1559.36 Q1813.47 1562.9 1817.08 1562.9 Q1820.71 1562.9 1822.52 1559.36 Q1824.35 1555.79 1824.35 1548.69 Q1824.35 1541.56 1822.52 1538.02 Q1820.71 1534.45 1817.08 1534.45 M1817.08 1530.75 Q1822.89 1530.75 1825.94 1535.35 Q1829.02 1539.94 1829.02 1548.69 Q1829.02 1557.41 1825.94 1562.02 Q1822.89 1566.6 1817.08 1566.6 Q1811.27 1566.6 1808.19 1562.02 Q1805.13 1557.41 1805.13 1548.69 Q1805.13 1539.94 1808.19 1535.35 Q1811.27 1530.75 1817.08 1530.75 Z" fill="#000000" fill-rule="evenodd" fill-opacity="1" /><path clip-path="url(#clip780)" d="M 0 0 M2157.33 1531.37 L2175.68 1531.37 L2175.68 1535.31 L2161.61 1535.31 L2161.61 1543.78 Q2162.63 1543.43 2163.65 1543.27 Q2164.66 1543.08 2165.68 1543.08 Q2171.47 1543.08 2174.85 1546.26 Q2178.23 1549.43 2178.23 1554.84 Q2178.23 1560.42 2174.76 1563.52 Q2171.28 1566.6 2164.97 1566.6 Q2162.79 1566.6 2160.52 1566.23 Q2158.28 1565.86 2155.87 1565.12 L2155.87 1560.42 Q2157.95 1561.56 2160.17 1562.11 Q2162.4 1562.67 2164.87 1562.67 Q2168.88 1562.67 2171.22 1560.56 Q2173.55 1558.46 2173.55 1554.84 Q2173.55 1551.23 2171.22 1549.13 Q2168.88 1547.02 2164.87 1547.02 Q2163 1547.02 2161.12 1547.44 Q2159.27 1547.85 2157.33 1548.73 L2157.33 1531.37 Z" fill="#000000" fill-rule="evenodd" fill-opacity="1" /><path clip-path="url(#clip780)" d="M 0 0 M2193.3 1534.45 Q2189.69 1534.45 2187.86 1538.02 Q2186.05 1541.56 2186.05 1548.69 Q2186.05 1555.79 2187.86 1559.36 Q2189.69 1562.9 2193.3 1562.9 Q2196.93 1562.9 2198.74 1559.36 Q2200.57 1555.79 2200.57 1548.69 Q2200.57 1541.56 2198.74 1538.02 Q2196.93 1534.45 2193.3 1534.45 M2193.3 1530.75 Q2199.11 1530.75 2202.16 1535.35 Q2205.24 1539.94 2205.24 1548.69 Q2205.24 1557.41 2202.16 1562.02 Q2199.11 1566.6 2193.3 1566.6 Q2187.49 1566.6 2184.41 1562.02 Q2181.35 1557.41 2181.35 1548.69 Q2181.35 1539.94 2184.41 1535.35 Q2187.49 1530.75 2193.3 1530.75 Z" fill="#000000" fill-rule="evenodd" fill-opacity="1" /><path clip-path="url(#clip780)" d="M 0 0 M1089.5 1602.6 L1095.93 1602.6 L1095.93 1622.69 L1117.26 1602.6 L1125.53 1602.6 L1101.95 1624.76 L1127.22 1650.12 L1118.75 1650.12 L1095.93 1627.24 L1095.93 1650.12 L1089.5 1650.12 L1089.5 1602.6 Z" fill="#000000" fill-rule="evenodd" fill-opacity="1" /><path clip-path="url(#clip780)" d="M 0 0 M1148.42 1632.2 Q1141.32 1632.2 1138.58 1633.83 Q1135.84 1635.45 1135.84 1639.37 Q1135.84 1642.48 1137.88 1644.33 Q1139.95 1646.15 1143.48 1646.15 Q1148.35 1646.15 1151.28 1642.71 Q1154.24 1639.24 1154.24 1633.51 L1154.24 1632.2 L1148.42 1632.2 M1160.1 1629.79 L1160.1 1650.12 L1154.24 1650.12 L1154.24 1644.71 Q1152.24 1647.96 1149.24 1649.52 Q1146.25 1651.05 1141.92 1651.05 Q1136.45 1651.05 1133.2 1647.99 Q1129.99 1644.9 1129.99 1639.75 Q1129.99 1633.73 1134 1630.68 Q1138.04 1627.62 1146.03 1627.62 L1154.24 1627.62 L1154.24 1627.05 Q1154.24 1623.01 1151.57 1620.81 Q1148.93 1618.58 1144.12 1618.58 Q1141.06 1618.58 1138.17 1619.31 Q1135.27 1620.05 1132.6 1621.51 L1132.6 1616.1 Q1135.81 1614.86 1138.84 1614.25 Q1141.86 1613.62 1144.73 1613.62 Q1152.46 1613.62 1156.28 1617.63 Q1160.1 1621.64 1160.1 1629.79 Z" fill="#000000" fill-rule="evenodd" fill-opacity="1" /><path clip-path="url(#clip780)" d="M 0 0 M1166.24 1600.6 L1172.1 1600.6 L1172.1 1650.12 L1166.24 1650.12 L1166.24 1600.6 Z" fill="#000000" fill-rule="evenodd" fill-opacity="1" /><path clip-path="url(#clip780)" d="M 0 0 M1208.73 1630.84 L1208.73 1633.7 L1181.81 1633.7 Q1182.19 1639.75 1185.43 1642.93 Q1188.71 1646.08 1194.54 1646.08 Q1197.91 1646.08 1201.06 1645.25 Q1204.24 1644.43 1207.36 1642.77 L1207.36 1648.31 Q1204.21 1649.65 1200.9 1650.35 Q1197.59 1651.05 1194.19 1651.05 Q1185.66 1651.05 1180.66 1646.08 Q1175.69 1641.12 1175.69 1632.65 Q1175.69 1623.9 1180.4 1618.77 Q1185.15 1613.62 1193.17 1613.62 Q1200.36 1613.62 1204.53 1618.26 Q1208.73 1622.88 1208.73 1630.84 M1202.88 1629.12 Q1202.81 1624.31 1200.17 1621.45 Q1197.56 1618.58 1193.23 1618.58 Q1188.33 1618.58 1185.37 1621.35 Q1182.44 1624.12 1182 1629.15 L1202.88 1629.12 Z" fill="#000000" fill-rule="evenodd" fill-opacity="1" /><path clip-path="url(#clip780)" d="M 0 0 M1244.51 1628.61 L1244.51 1650.12 L1238.65 1650.12 L1238.65 1628.8 Q1238.65 1623.74 1236.68 1621.22 Q1234.7 1618.71 1230.76 1618.71 Q1226.02 1618.71 1223.28 1621.73 Q1220.54 1624.76 1220.54 1629.98 L1220.54 1650.12 L1214.65 1650.12 L1214.65 1614.48 L1220.54 1614.48 L1220.54 1620.01 Q1222.64 1616.8 1225.47 1615.21 Q1228.34 1613.62 1232.06 1613.62 Q1238.21 1613.62 1241.36 1617.44 Q1244.51 1621.22 1244.51 1628.61 Z" fill="#000000" fill-rule="evenodd" fill-opacity="1" /><path clip-path="url(#clip780)" d="M 0 0 M1274.11 1619.89 L1274.11 1600.6 L1279.96 1600.6 L1279.96 1650.12 L1274.11 1650.12 L1274.11 1644.78 Q1272.26 1647.96 1269.43 1649.52 Q1266.63 1651.05 1262.68 1651.05 Q1256.22 1651.05 1252.15 1645.89 Q1248.1 1640.73 1248.1 1632.33 Q1248.1 1623.93 1252.15 1618.77 Q1256.22 1613.62 1262.68 1613.62 Q1266.63 1613.62 1269.43 1615.18 Q1272.26 1616.7 1274.11 1619.89 M1254.15 1632.33 Q1254.15 1638.79 1256.79 1642.48 Q1259.47 1646.15 1264.11 1646.15 Q1268.76 1646.15 1271.43 1642.48 Q1274.11 1638.79 1274.11 1632.33 Q1274.11 1625.87 1271.43 1622.21 Q1268.76 1618.52 1264.11 1618.52 Q1259.47 1618.52 1256.79 1622.21 Q1254.15 1625.87 1254.15 1632.33 Z" fill="#000000" fill-rule="evenodd" fill-opacity="1" /><path clip-path="url(#clip780)" d="M 0 0 M1316.6 1630.84 L1316.6 1633.7 L1289.67 1633.7 Q1290.05 1639.75 1293.3 1642.93 Q1296.58 1646.08 1302.4 1646.08 Q1305.78 1646.08 1308.93 1645.25 Q1312.11 1644.43 1315.23 1642.77 L1315.23 1648.31 Q1312.08 1649.65 1308.77 1650.35 Q1305.46 1651.05 1302.05 1651.05 Q1293.52 1651.05 1288.53 1646.08 Q1283.56 1641.12 1283.56 1632.65 Q1283.56 1623.9 1288.27 1618.77 Q1293.01 1613.62 1301.04 1613.62 Q1308.23 1613.62 1312.4 1618.26 Q1316.6 1622.88 1316.6 1630.84 M1310.74 1629.12 Q1310.68 1624.31 1308.04 1621.45 Q1305.43 1618.58 1301.1 1618.58 Q1296.2 1618.58 1293.24 1621.35 Q1290.31 1624.12 1289.86 1629.15 L1310.74 1629.12 Z" fill="#000000" fill-rule="evenodd" fill-opacity="1" /><path clip-path="url(#clip780)" d="M 0 0 M1343.4 1619.95 Q1342.41 1619.38 1341.23 1619.12 Q1340.09 1618.84 1338.69 1618.84 Q1333.72 1618.84 1331.05 1622.08 Q1328.41 1625.3 1328.41 1631.35 L1328.41 1650.12 L1322.52 1650.12 L1322.52 1614.48 L1328.41 1614.48 L1328.41 1620.01 Q1330.25 1616.77 1333.21 1615.21 Q1336.17 1613.62 1340.41 1613.62 Q1341.01 1613.62 1341.74 1613.71 Q1342.48 1613.78 1343.37 1613.93 L1343.4 1619.95 Z" fill="#000000" fill-rule="evenodd" fill-opacity="1" /><path clip-path="url(#clip780)" d="M 0 0 M1346.14 1614.48 L1351.99 1614.48 L1359.31 1642.29 L1366.6 1614.48 L1373.51 1614.48 L1380.83 1642.29 L1388.12 1614.48 L1393.97 1614.48 L1384.65 1650.12 L1377.74 1650.12 L1370.07 1620.91 L1362.37 1650.12 L1355.46 1650.12 L1346.14 1614.48 Z" fill="#000000" fill-rule="evenodd" fill-opacity="1" /><path clip-path="url(#clip780)" d="M 0 0 M1413.93 1618.58 Q1409.22 1618.58 1406.48 1622.27 Q1403.75 1625.93 1403.75 1632.33 Q1403.75 1638.73 1406.45 1642.42 Q1409.19 1646.08 1413.93 1646.08 Q1418.61 1646.08 1421.35 1642.39 Q1424.08 1638.7 1424.08 1632.33 Q1424.08 1626 1421.35 1622.31 Q1418.61 1618.58 1413.93 1618.58 M1413.93 1613.62 Q1421.57 1613.62 1425.93 1618.58 Q1430.29 1623.55 1430.29 1632.33 Q1430.29 1641.08 1425.93 1646.08 Q1421.57 1651.05 1413.93 1651.05 Q1406.26 1651.05 1401.9 1646.08 Q1397.57 1641.08 1397.57 1632.33 Q1397.57 1623.55 1401.9 1618.58 Q1406.26 1613.62 1413.93 1613.62 Z" fill="#000000" fill-rule="evenodd" fill-opacity="1" /><path clip-path="url(#clip780)" d="M 0 0 M1462.09 1615.84 L1462.09 1621.32 Q1459.6 1619.95 1457.09 1619.28 Q1454.61 1618.58 1452.06 1618.58 Q1446.36 1618.58 1443.21 1622.21 Q1440.06 1625.81 1440.06 1632.33 Q1440.06 1638.86 1443.21 1642.48 Q1446.36 1646.08 1452.06 1646.08 Q1454.61 1646.08 1457.09 1645.41 Q1459.6 1644.71 1462.09 1643.34 L1462.09 1648.76 Q1459.64 1649.9 1456.99 1650.47 Q1454.38 1651.05 1451.42 1651.05 Q1443.37 1651.05 1438.63 1645.99 Q1433.89 1640.93 1433.89 1632.33 Q1433.89 1623.61 1438.66 1618.61 Q1443.47 1613.62 1451.81 1613.62 Q1454.51 1613.62 1457.09 1614.19 Q1459.67 1614.73 1462.09 1615.84 Z" fill="#000000" fill-rule="evenodd" fill-opacity="1" /><path clip-path="url(#clip780)" d="M 0 0 M1497.86 1628.61 L1497.86 1650.12 L1492.01 1650.12 L1492.01 1628.8 Q1492.01 1623.74 1490.03 1621.22 Q1488.06 1618.71 1484.11 1618.71 Q1479.37 1618.71 1476.63 1621.73 Q1473.9 1624.76 1473.9 1629.98 L1473.9 1650.12 L1468.01 1650.12 L1468.01 1600.6 L1473.9 1600.6 L1473.9 1620.01 Q1476 1616.8 1478.83 1615.21 Q1481.69 1613.62 1485.42 1613.62 Q1491.56 1613.62 1494.71 1617.44 Q1497.86 1621.22 1497.86 1628.61 Z" fill="#000000" fill-rule="evenodd" fill-opacity="1" /><path clip-path="url(#clip780)" d="M 0 0 M1534.5 1630.84 L1534.5 1633.7 L1507.57 1633.7 Q1507.95 1639.75 1511.2 1642.93 Q1514.48 1646.08 1520.3 1646.08 Q1523.68 1646.08 1526.83 1645.25 Q1530.01 1644.43 1533.13 1642.77 L1533.13 1648.31 Q1529.98 1649.65 1526.67 1650.35 Q1523.36 1651.05 1519.95 1651.05 Q1511.42 1651.05 1506.42 1646.08 Q1501.46 1641.12 1501.46 1632.65 Q1501.46 1623.9 1506.17 1618.77 Q1510.91 1613.62 1518.93 1613.62 Q1526.13 1613.62 1530.3 1618.26 Q1534.5 1622.88 1534.5 1630.84 M1528.64 1629.12 Q1528.58 1624.31 1525.94 1621.45 Q1523.33 1618.58 1519 1618.58 Q1514.1 1618.58 1511.14 1621.35 Q1508.21 1624.12 1507.76 1629.15 L1528.64 1629.12 Z" fill="#000000" fill-rule="evenodd" fill-opacity="1" /><polyline clip-path="url(#clip782)" style="stroke:#000000; stroke-width:2; stroke-opacity:0.1; fill:none" points="
  271.244,1505.26 2352.76,1505.26 
  "/>
<polyline clip-path="url(#clip782)" style="stroke:#000000; stroke-width:2; stroke-opacity:0.1; fill:none" points="
  271.244,1279.91 2352.76,1279.91 
  "/>
<polyline clip-path="url(#clip782)" style="stroke:#000000; stroke-width:2; stroke-opacity:0.1; fill:none" points="
  271.244,1054.55 2352.76,1054.55 
  "/>
<polyline clip-path="url(#clip782)" style="stroke:#000000; stroke-width:2; stroke-opacity:0.1; fill:none" points="
  271.244,829.197 2352.76,829.197 
  "/>
<polyline clip-path="url(#clip782)" style="stroke:#000000; stroke-width:2; stroke-opacity:0.1; fill:none" points="
  271.244,603.843 2352.76,603.843 
  "/>
<polyline clip-path="url(#clip782)" style="stroke:#000000; stroke-width:2; stroke-opacity:0.1; fill:none" points="
  271.244,378.488 2352.76,378.488 
  "/>
<polyline clip-path="url(#clip782)" style="stroke:#000000; stroke-width:2; stroke-opacity:0.1; fill:none" points="
  271.244,153.134 2352.76,153.134 
  "/>
<polyline clip-path="url(#clip780)" style="stroke:#000000; stroke-width:4; stroke-opacity:1; fill:none" points="
  271.244,1505.26 271.244,62.9921 
  "/>
<polyline clip-path="url(#clip780)" style="stroke:#000000; stroke-width:4; stroke-opacity:1; fill:none" points="
  271.244,1505.26 296.222,1505.26 
  "/>
<polyline clip-path="url(#clip780)" style="stroke:#000000; stroke-width:4; stroke-opacity:1; fill:none" points="
  271.244,1279.91 296.222,1279.91 
  "/>
<polyline clip-path="url(#clip780)" style="stroke:#000000; stroke-width:4; stroke-opacity:1; fill:none" points="
  271.244,1054.55 296.222,1054.55 
  "/>
<polyline clip-path="url(#clip780)" style="stroke:#000000; stroke-width:4; stroke-opacity:1; fill:none" points="
  271.244,829.197 296.222,829.197 
  "/>
<polyline clip-path="url(#clip780)" style="stroke:#000000; stroke-width:4; stroke-opacity:1; fill:none" points="
  271.244,603.843 296.222,603.843 
  "/>
<polyline clip-path="url(#clip780)" style="stroke:#000000; stroke-width:4; stroke-opacity:1; fill:none" points="
  271.244,378.488 296.222,378.488 
  "/>
<polyline clip-path="url(#clip780)" style="stroke:#000000; stroke-width:4; stroke-opacity:1; fill:none" points="
  271.244,153.134 296.222,153.134 
  "/>
<path clip-path="url(#clip780)" d="M 0 0 M223.3 1491.06 Q219.689 1491.06 217.86 1494.62 Q216.054 1498.16 216.054 1505.29 Q216.054 1512.4 217.86 1515.97 Q219.689 1519.51 223.3 1519.51 Q226.934 1519.51 228.739 1515.97 Q230.568 1512.4 230.568 1505.29 Q230.568 1498.16 228.739 1494.62 Q226.934 1491.06 223.3 1491.06 M223.3 1487.35 Q229.11 1487.35 232.165 1491.96 Q235.244 1496.54 235.244 1505.29 Q235.244 1514.02 232.165 1518.63 Q229.11 1523.21 223.3 1523.21 Q217.49 1523.21 214.411 1518.63 Q211.355 1514.02 211.355 1505.29 Q211.355 1496.54 214.411 1491.96 Q217.49 1487.35 223.3 1487.35 Z" fill="#000000" fill-rule="evenodd" fill-opacity="1" /><path clip-path="url(#clip780)" d="M 0 0 M133.3 1262.63 L151.657 1262.63 L151.657 1266.56 L137.583 1266.56 L137.583 1275.03 Q138.601 1274.69 139.62 1274.52 Q140.638 1274.34 141.657 1274.34 Q147.444 1274.34 150.823 1277.51 Q154.203 1280.68 154.203 1286.1 Q154.203 1291.68 150.731 1294.78 Q147.258 1297.86 140.939 1297.86 Q138.763 1297.86 136.495 1297.49 Q134.249 1297.12 131.842 1296.38 L131.842 1291.68 Q133.925 1292.81 136.147 1293.37 Q138.37 1293.92 140.846 1293.92 Q144.851 1293.92 147.189 1291.82 Q149.527 1289.71 149.527 1286.1 Q149.527 1282.49 147.189 1280.38 Q144.851 1278.27 140.846 1278.27 Q138.971 1278.27 137.096 1278.69 Q135.245 1279.11 133.3 1279.99 L133.3 1262.63 Z" fill="#000000" fill-rule="evenodd" fill-opacity="1" /><path clip-path="url(#clip780)" d="M 0 0 M169.272 1265.7 Q165.661 1265.7 163.832 1269.27 Q162.027 1272.81 162.027 1279.94 Q162.027 1287.05 163.832 1290.61 Q165.661 1294.15 169.272 1294.15 Q172.906 1294.15 174.712 1290.61 Q176.541 1287.05 176.541 1279.94 Q176.541 1272.81 174.712 1269.27 Q172.906 1265.7 169.272 1265.7 M169.272 1262 Q175.082 1262 178.138 1266.61 Q181.217 1271.19 181.217 1279.94 Q181.217 1288.67 178.138 1293.27 Q175.082 1297.86 169.272 1297.86 Q163.462 1297.86 160.383 1293.27 Q157.328 1288.67 157.328 1279.94 Q157.328 1271.19 160.383 1266.61 Q163.462 1262 169.272 1262 Z" fill="#000000" fill-rule="evenodd" fill-opacity="1" /><path clip-path="url(#clip780)" d="M 0 0 M196.286 1265.7 Q192.675 1265.7 190.846 1269.27 Q189.041 1272.81 189.041 1279.94 Q189.041 1287.05 190.846 1290.61 Q192.675 1294.15 196.286 1294.15 Q199.92 1294.15 201.726 1290.61 Q203.554 1287.05 203.554 1279.94 Q203.554 1272.81 201.726 1269.27 Q199.92 1265.7 196.286 1265.7 M196.286 1262 Q202.096 1262 205.152 1266.61 Q208.23 1271.19 208.23 1279.94 Q208.23 1288.67 205.152 1293.27 Q202.096 1297.86 196.286 1297.86 Q190.476 1297.86 187.397 1293.27 Q184.342 1288.67 184.342 1279.94 Q184.342 1271.19 187.397 1266.61 Q190.476 1262 196.286 1262 Z" fill="#000000" fill-rule="evenodd" fill-opacity="1" /><path clip-path="url(#clip780)" d="M 0 0 M223.3 1265.7 Q219.689 1265.7 217.86 1269.27 Q216.054 1272.81 216.054 1279.94 Q216.054 1287.05 217.86 1290.61 Q219.689 1294.15 223.3 1294.15 Q226.934 1294.15 228.739 1290.61 Q230.568 1287.05 230.568 1279.94 Q230.568 1272.81 228.739 1269.27 Q226.934 1265.7 223.3 1265.7 M223.3 1262 Q229.11 1262 232.165 1266.61 Q235.244 1271.19 235.244 1279.94 Q235.244 1288.67 232.165 1293.27 Q229.11 1297.86 223.3 1297.86 Q217.49 1297.86 214.411 1293.27 Q211.355 1288.67 211.355 1279.94 Q211.355 1271.19 214.411 1266.61 Q217.49 1262 223.3 1262 Z" fill="#000000" fill-rule="evenodd" fill-opacity="1" /><path clip-path="url(#clip780)" d="M 0 0 M107.282 1067.9 L114.921 1067.9 L114.921 1041.53 L106.611 1043.2 L106.611 1038.94 L114.874 1037.27 L119.55 1037.27 L119.55 1067.9 L127.189 1067.9 L127.189 1071.83 L107.282 1071.83 L107.282 1067.9 Z" fill="#000000" fill-rule="evenodd" fill-opacity="1" /><path clip-path="url(#clip780)" d="M 0 0 M142.258 1040.35 Q138.647 1040.35 136.819 1043.91 Q135.013 1047.46 135.013 1054.59 Q135.013 1061.69 136.819 1065.26 Q138.647 1068.8 142.258 1068.8 Q145.893 1068.8 147.698 1065.26 Q149.527 1061.69 149.527 1054.59 Q149.527 1047.46 147.698 1043.91 Q145.893 1040.35 142.258 1040.35 M142.258 1036.65 Q148.069 1036.65 151.124 1041.25 Q154.203 1045.84 154.203 1054.59 Q154.203 1063.31 151.124 1067.92 Q148.069 1072.5 142.258 1072.5 Q136.448 1072.5 133.37 1067.92 Q130.314 1063.31 130.314 1054.59 Q130.314 1045.84 133.37 1041.25 Q136.448 1036.65 142.258 1036.65 Z" fill="#000000" fill-rule="evenodd" fill-opacity="1" /><path clip-path="url(#clip780)" d="M 0 0 M169.272 1040.35 Q165.661 1040.35 163.832 1043.91 Q162.027 1047.46 162.027 1054.59 Q162.027 1061.69 163.832 1065.26 Q165.661 1068.8 169.272 1068.8 Q172.906 1068.8 174.712 1065.26 Q176.541 1061.69 176.541 1054.59 Q176.541 1047.46 174.712 1043.91 Q172.906 1040.35 169.272 1040.35 M169.272 1036.65 Q175.082 1036.65 178.138 1041.25 Q181.217 1045.84 181.217 1054.59 Q181.217 1063.31 178.138 1067.92 Q175.082 1072.5 169.272 1072.5 Q163.462 1072.5 160.383 1067.92 Q157.328 1063.31 157.328 1054.59 Q157.328 1045.84 160.383 1041.25 Q163.462 1036.65 169.272 1036.65 Z" fill="#000000" fill-rule="evenodd" fill-opacity="1" /><path clip-path="url(#clip780)" d="M 0 0 M196.286 1040.35 Q192.675 1040.35 190.846 1043.91 Q189.041 1047.46 189.041 1054.59 Q189.041 1061.69 190.846 1065.26 Q192.675 1068.8 196.286 1068.8 Q199.92 1068.8 201.726 1065.26 Q203.554 1061.69 203.554 1054.59 Q203.554 1047.46 201.726 1043.91 Q199.92 1040.35 196.286 1040.35 M196.286 1036.65 Q202.096 1036.65 205.152 1041.25 Q208.23 1045.84 208.23 1054.59 Q208.23 1063.31 205.152 1067.92 Q202.096 1072.5 196.286 1072.5 Q190.476 1072.5 187.397 1067.92 Q184.342 1063.31 184.342 1054.59 Q184.342 1045.84 187.397 1041.25 Q190.476 1036.65 196.286 1036.65 Z" fill="#000000" fill-rule="evenodd" fill-opacity="1" /><path clip-path="url(#clip780)" d="M 0 0 M223.3 1040.35 Q219.689 1040.35 217.86 1043.91 Q216.054 1047.46 216.054 1054.59 Q216.054 1061.69 217.86 1065.26 Q219.689 1068.8 223.3 1068.8 Q226.934 1068.8 228.739 1065.26 Q230.568 1061.69 230.568 1054.59 Q230.568 1047.46 228.739 1043.91 Q226.934 1040.35 223.3 1040.35 M223.3 1036.65 Q229.11 1036.65 232.165 1041.25 Q235.244 1045.84 235.244 1054.59 Q235.244 1063.31 232.165 1067.92 Q229.11 1072.5 223.3 1072.5 Q217.49 1072.5 214.411 1067.92 Q211.355 1063.31 211.355 1054.59 Q211.355 1045.84 214.411 1041.25 Q217.49 1036.65 223.3 1036.65 Z" fill="#000000" fill-rule="evenodd" fill-opacity="1" /><path clip-path="url(#clip780)" d="M 0 0 M108.277 842.542 L115.916 842.542 L115.916 816.176 L107.606 817.843 L107.606 813.584 L115.87 811.917 L120.546 811.917 L120.546 842.542 L128.184 842.542 L128.184 846.477 L108.277 846.477 L108.277 842.542 Z" fill="#000000" fill-rule="evenodd" fill-opacity="1" /><path clip-path="url(#clip780)" d="M 0 0 M133.3 811.917 L151.657 811.917 L151.657 815.852 L137.583 815.852 L137.583 824.324 Q138.601 823.977 139.62 823.815 Q140.638 823.63 141.657 823.63 Q147.444 823.63 150.823 826.801 Q154.203 829.972 154.203 835.389 Q154.203 840.968 150.731 844.069 Q147.258 847.148 140.939 847.148 Q138.763 847.148 136.495 846.778 Q134.249 846.407 131.842 845.667 L131.842 840.968 Q133.925 842.102 136.147 842.657 Q138.37 843.213 140.846 843.213 Q144.851 843.213 147.189 841.107 Q149.527 839 149.527 835.389 Q149.527 831.778 147.189 829.671 Q144.851 827.565 140.846 827.565 Q138.971 827.565 137.096 827.982 Q135.245 828.398 133.3 829.278 L133.3 811.917 Z" fill="#000000" fill-rule="evenodd" fill-opacity="1" /><path clip-path="url(#clip780)" d="M 0 0 M169.272 814.996 Q165.661 814.996 163.832 818.56 Q162.027 822.102 162.027 829.232 Q162.027 836.338 163.832 839.903 Q165.661 843.444 169.272 843.444 Q172.906 843.444 174.712 839.903 Q176.541 836.338 176.541 829.232 Q176.541 822.102 174.712 818.56 Q172.906 814.996 169.272 814.996 M169.272 811.292 Q175.082 811.292 178.138 815.898 Q181.217 820.482 181.217 829.232 Q181.217 837.958 178.138 842.565 Q175.082 847.148 169.272 847.148 Q163.462 847.148 160.383 842.565 Q157.328 837.958 157.328 829.232 Q157.328 820.482 160.383 815.898 Q163.462 811.292 169.272 811.292 Z" fill="#000000" fill-rule="evenodd" fill-opacity="1" /><path clip-path="url(#clip780)" d="M 0 0 M196.286 814.996 Q192.675 814.996 190.846 818.56 Q189.041 822.102 189.041 829.232 Q189.041 836.338 190.846 839.903 Q192.675 843.444 196.286 843.444 Q199.92 843.444 201.726 839.903 Q203.554 836.338 203.554 829.232 Q203.554 822.102 201.726 818.56 Q199.92 814.996 196.286 814.996 M196.286 811.292 Q202.096 811.292 205.152 815.898 Q208.23 820.482 208.23 829.232 Q208.23 837.958 205.152 842.565 Q202.096 847.148 196.286 847.148 Q190.476 847.148 187.397 842.565 Q184.342 837.958 184.342 829.232 Q184.342 820.482 187.397 815.898 Q190.476 811.292 196.286 811.292 Z" fill="#000000" fill-rule="evenodd" fill-opacity="1" /><path clip-path="url(#clip780)" d="M 0 0 M223.3 814.996 Q219.689 814.996 217.86 818.56 Q216.054 822.102 216.054 829.232 Q216.054 836.338 217.86 839.903 Q219.689 843.444 223.3 843.444 Q226.934 843.444 228.739 839.903 Q230.568 836.338 230.568 829.232 Q230.568 822.102 228.739 818.56 Q226.934 814.996 223.3 814.996 M223.3 811.292 Q229.11 811.292 232.165 815.898 Q235.244 820.482 235.244 829.232 Q235.244 837.958 232.165 842.565 Q229.11 847.148 223.3 847.148 Q217.49 847.148 214.411 842.565 Q211.355 837.958 211.355 829.232 Q211.355 820.482 214.411 815.898 Q217.49 811.292 223.3 811.292 Z" fill="#000000" fill-rule="evenodd" fill-opacity="1" /><path clip-path="url(#clip780)" d="M 0 0 M110.87 617.187 L127.189 617.187 L127.189 621.123 L105.245 621.123 L105.245 617.187 Q107.907 614.433 112.49 609.803 Q117.097 605.15 118.277 603.808 Q120.522 601.285 121.402 599.549 Q122.305 597.789 122.305 596.1 Q122.305 593.345 120.36 591.609 Q118.439 589.873 115.337 589.873 Q113.138 589.873 110.685 590.637 Q108.254 591.4 105.476 592.951 L105.476 588.229 Q108.3 587.095 110.754 586.516 Q113.208 585.938 115.245 585.938 Q120.615 585.938 123.81 588.623 Q127.004 591.308 127.004 595.799 Q127.004 597.928 126.194 599.849 Q125.407 601.748 123.3 604.34 Q122.722 605.011 119.62 608.229 Q116.518 611.423 110.87 617.187 Z" fill="#000000" fill-rule="evenodd" fill-opacity="1" /><path clip-path="url(#clip780)" d="M 0 0 M142.258 589.641 Q138.647 589.641 136.819 593.206 Q135.013 596.748 135.013 603.877 Q135.013 610.984 136.819 614.548 Q138.647 618.09 142.258 618.09 Q145.893 618.09 147.698 614.548 Q149.527 610.984 149.527 603.877 Q149.527 596.748 147.698 593.206 Q145.893 589.641 142.258 589.641 M142.258 585.938 Q148.069 585.938 151.124 590.544 Q154.203 595.127 154.203 603.877 Q154.203 612.604 151.124 617.211 Q148.069 621.794 142.258 621.794 Q136.448 621.794 133.37 617.211 Q130.314 612.604 130.314 603.877 Q130.314 595.127 133.37 590.544 Q136.448 585.938 142.258 585.938 Z" fill="#000000" fill-rule="evenodd" fill-opacity="1" /><path clip-path="url(#clip780)" d="M 0 0 M169.272 589.641 Q165.661 589.641 163.832 593.206 Q162.027 596.748 162.027 603.877 Q162.027 610.984 163.832 614.548 Q165.661 618.09 169.272 618.09 Q172.906 618.09 174.712 614.548 Q176.541 610.984 176.541 603.877 Q176.541 596.748 174.712 593.206 Q172.906 589.641 169.272 589.641 M169.272 585.938 Q175.082 585.938 178.138 590.544 Q181.217 595.127 181.217 603.877 Q181.217 612.604 178.138 617.211 Q175.082 621.794 169.272 621.794 Q163.462 621.794 160.383 617.211 Q157.328 612.604 157.328 603.877 Q157.328 595.127 160.383 590.544 Q163.462 585.938 169.272 585.938 Z" fill="#000000" fill-rule="evenodd" fill-opacity="1" /><path clip-path="url(#clip780)" d="M 0 0 M196.286 589.641 Q192.675 589.641 190.846 593.206 Q189.041 596.748 189.041 603.877 Q189.041 610.984 190.846 614.548 Q192.675 618.09 196.286 618.09 Q199.92 618.09 201.726 614.548 Q203.554 610.984 203.554 603.877 Q203.554 596.748 201.726 593.206 Q199.92 589.641 196.286 589.641 M196.286 585.938 Q202.096 585.938 205.152 590.544 Q208.23 595.127 208.23 603.877 Q208.23 612.604 205.152 617.211 Q202.096 621.794 196.286 621.794 Q190.476 621.794 187.397 617.211 Q184.342 612.604 184.342 603.877 Q184.342 595.127 187.397 590.544 Q190.476 585.938 196.286 585.938 Z" fill="#000000" fill-rule="evenodd" fill-opacity="1" /><path clip-path="url(#clip780)" d="M 0 0 M223.3 589.641 Q219.689 589.641 217.86 593.206 Q216.054 596.748 216.054 603.877 Q216.054 610.984 217.86 614.548 Q219.689 618.09 223.3 618.09 Q226.934 618.09 228.739 614.548 Q230.568 610.984 230.568 603.877 Q230.568 596.748 228.739 593.206 Q226.934 589.641 223.3 589.641 M223.3 585.938 Q229.11 585.938 232.165 590.544 Q235.244 595.127 235.244 603.877 Q235.244 612.604 232.165 617.211 Q229.11 621.794 223.3 621.794 Q217.49 621.794 214.411 617.211 Q211.355 612.604 211.355 603.877 Q211.355 595.127 214.411 590.544 Q217.49 585.938 223.3 585.938 Z" fill="#000000" fill-rule="evenodd" fill-opacity="1" /><path clip-path="url(#clip780)" d="M 0 0 M111.865 391.833 L128.184 391.833 L128.184 395.768 L106.24 395.768 L106.24 391.833 Q108.902 389.078 113.485 384.449 Q118.092 379.796 119.272 378.453 Q121.518 375.93 122.397 374.194 Q123.3 372.435 123.3 370.745 Q123.3 367.991 121.356 366.254 Q119.435 364.518 116.333 364.518 Q114.134 364.518 111.68 365.282 Q109.249 366.046 106.472 367.597 L106.472 362.875 Q109.296 361.741 111.749 361.162 Q114.203 360.583 116.24 360.583 Q121.61 360.583 124.805 363.268 Q127.999 365.954 127.999 370.444 Q127.999 372.574 127.189 374.495 Q126.402 376.393 124.296 378.986 Q123.717 379.657 120.615 382.875 Q117.513 386.069 111.865 391.833 Z" fill="#000000" fill-rule="evenodd" fill-opacity="1" /><path clip-path="url(#clip780)" d="M 0 0 M133.3 361.208 L151.657 361.208 L151.657 365.143 L137.583 365.143 L137.583 373.616 Q138.601 373.268 139.62 373.106 Q140.638 372.921 141.657 372.921 Q147.444 372.921 150.823 376.092 Q154.203 379.264 154.203 384.68 Q154.203 390.259 150.731 393.361 Q147.258 396.439 140.939 396.439 Q138.763 396.439 136.495 396.069 Q134.249 395.699 131.842 394.958 L131.842 390.259 Q133.925 391.393 136.147 391.949 Q138.37 392.504 140.846 392.504 Q144.851 392.504 147.189 390.398 Q149.527 388.291 149.527 384.68 Q149.527 381.069 147.189 378.963 Q144.851 376.856 140.846 376.856 Q138.971 376.856 137.096 377.273 Q135.245 377.69 133.3 378.569 L133.3 361.208 Z" fill="#000000" fill-rule="evenodd" fill-opacity="1" /><path clip-path="url(#clip780)" d="M 0 0 M169.272 364.287 Q165.661 364.287 163.832 367.852 Q162.027 371.393 162.027 378.523 Q162.027 385.629 163.832 389.194 Q165.661 392.736 169.272 392.736 Q172.906 392.736 174.712 389.194 Q176.541 385.629 176.541 378.523 Q176.541 371.393 174.712 367.852 Q172.906 364.287 169.272 364.287 M169.272 360.583 Q175.082 360.583 178.138 365.19 Q181.217 369.773 181.217 378.523 Q181.217 387.25 178.138 391.856 Q175.082 396.439 169.272 396.439 Q163.462 396.439 160.383 391.856 Q157.328 387.25 157.328 378.523 Q157.328 369.773 160.383 365.19 Q163.462 360.583 169.272 360.583 Z" fill="#000000" fill-rule="evenodd" fill-opacity="1" /><path clip-path="url(#clip780)" d="M 0 0 M196.286 364.287 Q192.675 364.287 190.846 367.852 Q189.041 371.393 189.041 378.523 Q189.041 385.629 190.846 389.194 Q192.675 392.736 196.286 392.736 Q199.92 392.736 201.726 389.194 Q203.554 385.629 203.554 378.523 Q203.554 371.393 201.726 367.852 Q199.92 364.287 196.286 364.287 M196.286 360.583 Q202.096 360.583 205.152 365.19 Q208.23 369.773 208.23 378.523 Q208.23 387.25 205.152 391.856 Q202.096 396.439 196.286 396.439 Q190.476 396.439 187.397 391.856 Q184.342 387.25 184.342 378.523 Q184.342 369.773 187.397 365.19 Q190.476 360.583 196.286 360.583 Z" fill="#000000" fill-rule="evenodd" fill-opacity="1" /><path clip-path="url(#clip780)" d="M 0 0 M223.3 364.287 Q219.689 364.287 217.86 367.852 Q216.054 371.393 216.054 378.523 Q216.054 385.629 217.86 389.194 Q219.689 392.736 223.3 392.736 Q226.934 392.736 228.739 389.194 Q230.568 385.629 230.568 378.523 Q230.568 371.393 228.739 367.852 Q226.934 364.287 223.3 364.287 M223.3 360.583 Q229.11 360.583 232.165 365.19 Q235.244 369.773 235.244 378.523 Q235.244 387.25 232.165 391.856 Q229.11 396.439 223.3 396.439 Q217.49 396.439 214.411 391.856 Q211.355 387.25 211.355 378.523 Q211.355 369.773 214.411 365.19 Q217.49 360.583 223.3 360.583 Z" fill="#000000" fill-rule="evenodd" fill-opacity="1" /><path clip-path="url(#clip780)" d="M 0 0 M120.06 151.78 Q123.416 152.497 125.291 154.766 Q127.189 157.034 127.189 160.368 Q127.189 165.483 123.671 168.284 Q120.152 171.085 113.671 171.085 Q111.495 171.085 109.18 170.645 Q106.888 170.229 104.435 169.372 L104.435 164.858 Q106.379 165.993 108.694 166.571 Q111.009 167.15 113.532 167.15 Q117.93 167.15 120.222 165.414 Q122.536 163.678 122.536 160.368 Q122.536 157.312 120.384 155.599 Q118.254 153.863 114.435 153.863 L110.407 153.863 L110.407 150.02 L114.62 150.02 Q118.069 150.02 119.897 148.655 Q121.726 147.266 121.726 144.673 Q121.726 142.011 119.828 140.599 Q117.953 139.164 114.435 139.164 Q112.513 139.164 110.314 139.581 Q108.115 139.997 105.476 140.877 L105.476 136.71 Q108.138 135.97 110.453 135.599 Q112.791 135.229 114.851 135.229 Q120.175 135.229 123.277 137.659 Q126.379 140.067 126.379 144.187 Q126.379 147.058 124.735 149.048 Q123.092 151.016 120.06 151.78 Z" fill="#000000" fill-rule="evenodd" fill-opacity="1" /><path clip-path="url(#clip780)" d="M 0 0 M142.258 138.933 Q138.647 138.933 136.819 142.497 Q135.013 146.039 135.013 153.169 Q135.013 160.275 136.819 163.84 Q138.647 167.381 142.258 167.381 Q145.893 167.381 147.698 163.84 Q149.527 160.275 149.527 153.169 Q149.527 146.039 147.698 142.497 Q145.893 138.933 142.258 138.933 M142.258 135.229 Q148.069 135.229 151.124 139.835 Q154.203 144.419 154.203 153.169 Q154.203 161.895 151.124 166.502 Q148.069 171.085 142.258 171.085 Q136.448 171.085 133.37 166.502 Q130.314 161.895 130.314 153.169 Q130.314 144.419 133.37 139.835 Q136.448 135.229 142.258 135.229 Z" fill="#000000" fill-rule="evenodd" fill-opacity="1" /><path clip-path="url(#clip780)" d="M 0 0 M169.272 138.933 Q165.661 138.933 163.832 142.497 Q162.027 146.039 162.027 153.169 Q162.027 160.275 163.832 163.84 Q165.661 167.381 169.272 167.381 Q172.906 167.381 174.712 163.84 Q176.541 160.275 176.541 153.169 Q176.541 146.039 174.712 142.497 Q172.906 138.933 169.272 138.933 M169.272 135.229 Q175.082 135.229 178.138 139.835 Q181.217 144.419 181.217 153.169 Q181.217 161.895 178.138 166.502 Q175.082 171.085 169.272 171.085 Q163.462 171.085 160.383 166.502 Q157.328 161.895 157.328 153.169 Q157.328 144.419 160.383 139.835 Q163.462 135.229 169.272 135.229 Z" fill="#000000" fill-rule="evenodd" fill-opacity="1" /><path clip-path="url(#clip780)" d="M 0 0 M196.286 138.933 Q192.675 138.933 190.846 142.497 Q189.041 146.039 189.041 153.169 Q189.041 160.275 190.846 163.84 Q192.675 167.381 196.286 167.381 Q199.92 167.381 201.726 163.84 Q203.554 160.275 203.554 153.169 Q203.554 146.039 201.726 142.497 Q199.92 138.933 196.286 138.933 M196.286 135.229 Q202.096 135.229 205.152 139.835 Q208.23 144.419 208.23 153.169 Q208.23 161.895 205.152 166.502 Q202.096 171.085 196.286 171.085 Q190.476 171.085 187.397 166.502 Q184.342 161.895 184.342 153.169 Q184.342 144.419 187.397 139.835 Q190.476 135.229 196.286 135.229 Z" fill="#000000" fill-rule="evenodd" fill-opacity="1" /><path clip-path="url(#clip780)" d="M 0 0 M223.3 138.933 Q219.689 138.933 217.86 142.497 Q216.054 146.039 216.054 153.169 Q216.054 160.275 217.86 163.84 Q219.689 167.381 223.3 167.381 Q226.934 167.381 228.739 163.84 Q230.568 160.275 230.568 153.169 Q230.568 146.039 228.739 142.497 Q226.934 138.933 223.3 138.933 M223.3 135.229 Q229.11 135.229 232.165 139.835 Q235.244 144.419 235.244 153.169 Q235.244 161.895 232.165 166.502 Q229.11 171.085 223.3 171.085 Q217.49 171.085 214.411 166.502 Q211.355 161.895 211.355 153.169 Q211.355 144.419 214.411 139.835 Q217.49 135.229 223.3 135.229 Z" fill="#000000" fill-rule="evenodd" fill-opacity="1" /><path clip-path="url(#clip780)" d="M 0 0 M471.863 12.096 L480.127 12.096 L492.846 63.2184 L505.526 12.096 L514.721 12.096 L527.441 63.2184 L540.12 12.096 L548.425 12.096 L533.234 72.576 L522.945 72.576 L510.184 20.0763 L497.302 72.576 L487.013 72.576 L471.863 12.096 Z" fill="#000000" fill-rule="evenodd" fill-opacity="1" /><path clip-path="url(#clip780)" d="M 0 0 M568.963 32.4315 Q562.968 32.4315 559.484 37.1306 Q556 41.7891 556 49.9314 Q556 58.0738 559.443 62.7728 Q562.927 67.4314 568.963 67.4314 Q574.918 67.4314 578.402 62.7323 Q581.885 58.0333 581.885 49.9314 Q581.885 41.8701 578.402 37.1711 Q574.918 32.4315 568.963 32.4315 M568.963 26.1121 Q578.685 26.1121 584.235 32.4315 Q589.785 38.7509 589.785 49.9314 Q589.785 61.0714 584.235 67.4314 Q578.685 73.7508 568.963 73.7508 Q559.2 73.7508 553.65 67.4314 Q548.141 61.0714 548.141 49.9314 Q548.141 38.7509 553.65 32.4315 Q559.2 26.1121 568.963 26.1121 M572.771 9.70597 L580.994 9.70597 L580.994 17.8888 L572.771 17.8888 L572.771 9.70597 M556.932 9.70597 L565.155 9.70597 L565.155 17.8888 L556.932 17.8888 L556.932 9.70597 Z" fill="#000000" fill-rule="evenodd" fill-opacity="1" /><path clip-path="url(#clip780)" d="M 0 0 M630.253 28.9478 L630.253 35.9153 Q627.093 34.1734 623.893 33.3227 Q620.733 32.4315 617.493 32.4315 Q610.242 32.4315 606.231 37.0496 Q602.221 41.6271 602.221 49.9314 Q602.221 58.2358 606.231 62.8538 Q610.242 67.4314 617.493 67.4314 Q620.733 67.4314 623.893 66.5807 Q627.093 65.6895 630.253 63.9476 L630.253 70.8341 Q627.134 72.2924 623.772 73.0216 Q620.45 73.7508 616.683 73.7508 Q606.434 73.7508 600.398 67.3098 Q594.362 60.8689 594.362 49.9314 Q594.362 38.832 600.438 32.472 Q606.555 26.1121 617.169 26.1121 Q620.612 26.1121 623.893 26.8413 Q627.174 27.5299 630.253 28.9478 Z" fill="#000000" fill-rule="evenodd" fill-opacity="1" /><path clip-path="url(#clip780)" d="M 0 0 M675.785 45.1919 L675.785 72.576 L668.332 72.576 L668.332 45.4349 Q668.332 38.994 665.82 35.7938 Q663.308 32.5936 658.285 32.5936 Q652.249 32.5936 648.766 36.4419 Q645.282 40.2903 645.282 46.9338 L645.282 72.576 L637.788 72.576 L637.788 9.54393 L645.282 9.54393 L645.282 34.2544 Q647.956 30.163 651.561 28.1376 Q655.207 26.1121 659.946 26.1121 Q667.764 26.1121 671.775 30.9732 Q675.785 35.7938 675.785 45.1919 Z" fill="#000000" fill-rule="evenodd" fill-opacity="1" /><path clip-path="url(#clip780)" d="M 0 0 M722.411 48.0275 L722.411 51.6733 L688.14 51.6733 Q688.627 59.3701 692.759 63.421 Q696.931 67.4314 704.344 67.4314 Q708.638 67.4314 712.648 66.3781 Q716.699 65.3249 720.669 63.2184 L720.669 70.267 Q716.659 71.9684 712.446 72.8596 Q708.233 73.7508 703.899 73.7508 Q693.042 73.7508 686.682 67.4314 Q680.363 61.1119 680.363 50.3365 Q680.363 39.1965 686.358 32.6746 Q692.394 26.1121 702.602 26.1121 Q711.757 26.1121 717.064 32.0264 Q722.411 37.9003 722.411 48.0275 M714.957 45.84 Q714.876 39.7232 711.514 36.0774 Q708.192 32.4315 702.683 32.4315 Q696.445 32.4315 692.678 35.9558 Q688.951 39.4801 688.384 45.8805 L714.957 45.84 Z" fill="#000000" fill-rule="evenodd" fill-opacity="1" /><path clip-path="url(#clip780)" d="M 0 0 M767.943 45.1919 L767.943 72.576 L760.49 72.576 L760.49 45.4349 Q760.49 38.994 757.978 35.7938 Q755.467 32.5936 750.443 32.5936 Q744.408 32.5936 740.924 36.4419 Q737.44 40.2903 737.44 46.9338 L737.44 72.576 L729.946 72.576 L729.946 27.2059 L737.44 27.2059 L737.44 34.2544 Q740.114 30.163 743.719 28.1376 Q747.365 26.1121 752.104 26.1121 Q759.923 26.1121 763.933 30.9732 Q767.943 35.7938 767.943 45.1919 Z" fill="#000000" fill-rule="evenodd" fill-opacity="1" /><path clip-path="url(#clip780)" d="M 0 0 M783.134 14.324 L783.134 27.2059 L798.487 27.2059 L798.487 32.9987 L783.134 32.9987 L783.134 57.6282 Q783.134 63.1779 784.633 64.7578 Q786.172 66.3376 790.831 66.3376 L798.487 66.3376 L798.487 72.576 L790.831 72.576 Q782.202 72.576 778.921 69.3758 Q775.64 66.1351 775.64 57.6282 L775.64 32.9987 L770.171 32.9987 L770.171 27.2059 L775.64 27.2059 L775.64 14.324 L783.134 14.324 Z" fill="#000000" fill-rule="evenodd" fill-opacity="1" /><path clip-path="url(#clip780)" d="M 0 0 M806.305 9.54393 L813.759 9.54393 L813.759 72.576 L806.305 72.576 L806.305 9.54393 Z" fill="#000000" fill-rule="evenodd" fill-opacity="1" /><path clip-path="url(#clip780)" d="M 0 0 M821.577 27.2059 L829.031 27.2059 L829.031 72.576 L821.577 72.576 L821.577 27.2059 M821.577 9.54393 L829.031 9.54393 L829.031 18.9825 L821.577 18.9825 L821.577 9.54393 Z" fill="#000000" fill-rule="evenodd" fill-opacity="1" /><path clip-path="url(#clip780)" d="M 0 0 M869.499 28.9478 L869.499 35.9153 Q866.34 34.1734 863.14 33.3227 Q859.98 32.4315 856.739 32.4315 Q849.488 32.4315 845.478 37.0496 Q841.467 41.6271 841.467 49.9314 Q841.467 58.2358 845.478 62.8538 Q849.488 67.4314 856.739 67.4314 Q859.98 67.4314 863.14 66.5807 Q866.34 65.6895 869.499 63.9476 L869.499 70.8341 Q866.38 72.2924 863.018 73.0216 Q859.696 73.7508 855.929 73.7508 Q845.68 73.7508 839.644 67.3098 Q833.608 60.8689 833.608 49.9314 Q833.608 38.832 839.685 32.472 Q845.802 26.1121 856.415 26.1121 Q859.858 26.1121 863.14 26.8413 Q866.421 27.5299 869.499 28.9478 Z" fill="#000000" fill-rule="evenodd" fill-opacity="1" /><path clip-path="url(#clip780)" d="M 0 0 M915.032 45.1919 L915.032 72.576 L907.578 72.576 L907.578 45.4349 Q907.578 38.994 905.066 35.7938 Q902.555 32.5936 897.532 32.5936 Q891.496 32.5936 888.012 36.4419 Q884.528 40.2903 884.528 46.9338 L884.528 72.576 L877.034 72.576 L877.034 9.54393 L884.528 9.54393 L884.528 34.2544 Q887.202 30.163 890.807 28.1376 Q894.453 26.1121 899.193 26.1121 Q907.011 26.1121 911.021 30.9732 Q915.032 35.7938 915.032 45.1919 Z" fill="#000000" fill-rule="evenodd" fill-opacity="1" /><path clip-path="url(#clip780)" d="M 0 0 M961.658 48.0275 L961.658 51.6733 L927.387 51.6733 Q927.873 59.3701 932.005 63.421 Q936.177 67.4314 943.591 67.4314 Q947.884 67.4314 951.895 66.3781 Q955.946 65.3249 959.916 63.2184 L959.916 70.267 Q955.905 71.9684 951.692 72.8596 Q947.479 73.7508 943.145 73.7508 Q932.288 73.7508 925.929 67.4314 Q919.609 61.1119 919.609 50.3365 Q919.609 39.1965 925.605 32.6746 Q931.64 26.1121 941.849 26.1121 Q951.004 26.1121 956.31 32.0264 Q961.658 37.9003 961.658 48.0275 M954.204 45.84 Q954.123 39.7232 950.761 36.0774 Q947.439 32.4315 941.93 32.4315 Q935.691 32.4315 931.924 35.9558 Q928.197 39.4801 927.63 45.8805 L954.204 45.84 Z" fill="#000000" fill-rule="evenodd" fill-opacity="1" /><path clip-path="url(#clip780)" d="M 0 0 M1032.43 14.0809 L1032.43 22.0612 Q1027.77 19.8332 1023.64 18.7395 Q1019.5 17.6457 1015.66 17.6457 Q1008.97 17.6457 1005.33 20.2383 Q1001.72 22.8309 1001.72 27.611 Q1001.72 31.6214 1004.11 33.6873 Q1006.54 35.7128 1013.27 36.9686 L1018.21 37.9813 Q1027.36 39.7232 1031.7 44.1387 Q1036.07 48.5136 1036.07 55.8863 Q1036.07 64.6767 1030.16 69.2137 Q1024.28 73.7508 1012.9 73.7508 Q1008.61 73.7508 1003.75 72.7785 Q998.926 71.8063 993.741 69.9024 L993.741 61.4765 Q998.723 64.2716 1003.5 65.6895 Q1008.28 67.1073 1012.9 67.1073 Q1019.91 67.1073 1023.72 64.3527 Q1027.53 61.598 1027.53 56.4939 Q1027.53 52.0379 1024.77 49.5264 Q1022.06 47.0148 1015.82 45.759 L1010.84 44.7868 Q1001.68 42.9639 997.589 39.075 Q993.498 35.1862 993.498 28.2591 Q993.498 20.2383 999.128 15.6203 Q1004.8 11.0023 1014.72 11.0023 Q1018.98 11.0023 1023.39 11.7719 Q1027.81 12.5416 1032.43 14.0809 Z" fill="#000000" fill-rule="evenodd" fill-opacity="1" /><path clip-path="url(#clip780)" d="M 0 0 M1051.26 14.324 L1051.26 27.2059 L1066.62 27.2059 L1066.62 32.9987 L1051.26 32.9987 L1051.26 57.6282 Q1051.26 63.1779 1052.76 64.7578 Q1054.3 66.3376 1058.96 66.3376 L1066.62 66.3376 L1066.62 72.576 L1058.96 72.576 Q1050.33 72.576 1047.05 69.3758 Q1043.77 66.1351 1043.77 57.6282 L1043.77 32.9987 L1038.3 32.9987 L1038.3 27.2059 L1043.77 27.2059 L1043.77 14.324 L1051.26 14.324 Z" fill="#000000" fill-rule="evenodd" fill-opacity="1" /><path clip-path="url(#clip780)" d="M 0 0 M1113.24 48.0275 L1113.24 51.6733 L1078.97 51.6733 Q1079.46 59.3701 1083.59 63.421 Q1087.76 67.4314 1095.18 67.4314 Q1099.47 67.4314 1103.48 66.3781 Q1107.53 65.3249 1111.5 63.2184 L1111.5 70.267 Q1107.49 71.9684 1103.28 72.8596 Q1099.06 73.7508 1094.73 73.7508 Q1083.87 73.7508 1077.51 67.4314 Q1071.19 61.1119 1071.19 50.3365 Q1071.19 39.1965 1077.19 32.6746 Q1083.23 26.1121 1093.43 26.1121 Q1102.59 26.1121 1107.9 32.0264 Q1113.24 37.9003 1113.24 48.0275 M1105.79 45.84 Q1105.71 39.7232 1102.35 36.0774 Q1099.02 32.4315 1093.51 32.4315 Q1087.28 32.4315 1083.51 35.9558 Q1079.78 39.4801 1079.21 45.8805 L1105.79 45.84 Z" fill="#000000" fill-rule="evenodd" fill-opacity="1" /><path clip-path="url(#clip780)" d="M 0 0 M1147.35 34.1734 Q1146.1 33.4443 1144.6 33.1202 Q1143.14 32.7556 1141.36 32.7556 Q1135.04 32.7556 1131.63 36.8875 Q1128.27 40.9789 1128.27 48.6757 L1128.27 72.576 L1120.78 72.576 L1120.78 27.2059 L1128.27 27.2059 L1128.27 34.2544 Q1130.62 30.1225 1134.39 28.1376 Q1138.16 26.1121 1143.54 26.1121 Q1144.31 26.1121 1145.24 26.2337 Q1146.18 26.3147 1147.31 26.5172 L1147.35 34.1734 Z" fill="#000000" fill-rule="evenodd" fill-opacity="1" /><path clip-path="url(#clip780)" d="M 0 0 M1187.74 49.9314 Q1187.74 41.7081 1184.34 37.0496 Q1180.97 32.3505 1175.06 32.3505 Q1169.14 32.3505 1165.74 37.0496 Q1162.38 41.7081 1162.38 49.9314 Q1162.38 58.1548 1165.74 62.8538 Q1169.14 67.5124 1175.06 67.5124 Q1180.97 67.5124 1184.34 62.8538 Q1187.74 58.1548 1187.74 49.9314 M1162.38 34.0924 Q1164.73 30.0415 1168.29 28.0971 Q1171.9 26.1121 1176.88 26.1121 Q1185.15 26.1121 1190.29 32.6746 Q1195.48 39.2371 1195.48 49.9314 Q1195.48 60.6258 1190.29 67.1883 Q1185.15 73.7508 1176.88 73.7508 Q1171.9 73.7508 1168.29 71.8063 Q1164.73 69.8214 1162.38 65.7705 L1162.38 72.576 L1154.89 72.576 L1154.89 9.54393 L1162.38 9.54393 L1162.38 34.0924 Z" fill="#000000" fill-rule="evenodd" fill-opacity="1" /><path clip-path="url(#clip780)" d="M 0 0 M1242.1 48.0275 L1242.1 51.6733 L1207.83 51.6733 Q1208.32 59.3701 1212.45 63.421 Q1216.62 67.4314 1224.03 67.4314 Q1228.33 67.4314 1232.34 66.3781 Q1236.39 65.3249 1240.36 63.2184 L1240.36 70.267 Q1236.35 71.9684 1232.14 72.8596 Q1227.92 73.7508 1223.59 73.7508 Q1212.73 73.7508 1206.37 67.4314 Q1200.05 61.1119 1200.05 50.3365 Q1200.05 39.1965 1206.05 32.6746 Q1212.08 26.1121 1222.29 26.1121 Q1231.45 26.1121 1236.75 32.0264 Q1242.1 37.9003 1242.1 48.0275 M1234.65 45.84 Q1234.57 39.7232 1231.2 36.0774 Q1227.88 32.4315 1222.37 32.4315 Q1216.14 32.4315 1212.37 35.9558 Q1208.64 39.4801 1208.07 45.8805 L1234.65 45.84 Z" fill="#000000" fill-rule="evenodd" fill-opacity="1" /><path clip-path="url(#clip780)" d="M 0 0 M1272.89 9.54393 L1272.89 15.7418 L1265.76 15.7418 Q1261.75 15.7418 1260.17 17.3622 Q1258.63 18.9825 1258.63 23.1955 L1258.63 27.2059 L1270.9 27.2059 L1270.9 32.9987 L1258.63 32.9987 L1258.63 72.576 L1251.14 72.576 L1251.14 32.9987 L1244.01 32.9987 L1244.01 27.2059 L1251.14 27.2059 L1251.14 24.0462 Q1251.14 16.471 1254.66 13.0277 Q1258.18 9.54393 1265.84 9.54393 L1272.89 9.54393 Z" fill="#000000" fill-rule="evenodd" fill-opacity="1" /><path clip-path="url(#clip780)" d="M 0 0 M1301.33 49.7694 Q1292.29 49.7694 1288.81 51.8354 Q1285.32 53.9013 1285.32 58.8839 Q1285.32 62.8538 1287.92 65.2034 Q1290.55 67.5124 1295.05 67.5124 Q1301.24 67.5124 1304.97 63.1374 Q1308.74 58.7219 1308.74 51.4303 L1308.74 49.7694 L1301.33 49.7694 M1316.19 46.6907 L1316.19 72.576 L1308.74 72.576 L1308.74 65.6895 Q1306.19 69.8214 1302.38 71.8063 Q1298.57 73.7508 1293.06 73.7508 Q1286.09 73.7508 1281.96 69.8619 Q1277.87 65.9325 1277.87 59.3701 Q1277.87 51.7138 1282.98 47.825 Q1288.12 43.9361 1298.29 43.9361 L1308.74 43.9361 L1308.74 43.2069 Q1308.74 38.0623 1305.34 35.2672 Q1301.97 32.4315 1295.86 32.4315 Q1291.97 32.4315 1288.28 33.3632 Q1284.6 34.295 1281.19 36.1584 L1281.19 29.2718 Q1285.28 27.692 1289.13 26.9223 Q1292.98 26.1121 1296.63 26.1121 Q1306.47 26.1121 1311.33 31.2163 Q1316.19 36.3204 1316.19 46.6907 Z" fill="#000000" fill-rule="evenodd" fill-opacity="1" /><path clip-path="url(#clip780)" d="M 0 0 M1324.01 9.54393 L1331.46 9.54393 L1331.46 72.576 L1324.01 72.576 L1324.01 9.54393 Z" fill="#000000" fill-rule="evenodd" fill-opacity="1" /><path clip-path="url(#clip780)" d="M 0 0 M1339.28 9.54393 L1346.74 9.54393 L1346.74 72.576 L1339.28 72.576 L1339.28 9.54393 Z" fill="#000000" fill-rule="evenodd" fill-opacity="1" /><path clip-path="url(#clip780)" d="M 0 0 M1351.31 27.2059 L1386.72 27.2059 L1386.72 34.0114 L1358.69 66.6212 L1386.72 66.6212 L1386.72 72.576 L1350.3 72.576 L1350.3 65.7705 L1378.33 33.1607 L1351.31 33.1607 L1351.31 27.2059 Z" fill="#000000" fill-rule="evenodd" fill-opacity="1" /><path clip-path="url(#clip780)" d="M 0 0 M1415.16 49.7694 Q1406.12 49.7694 1402.64 51.8354 Q1399.16 53.9013 1399.16 58.8839 Q1399.16 62.8538 1401.75 65.2034 Q1404.38 67.5124 1408.88 67.5124 Q1415.08 67.5124 1418.8 63.1374 Q1422.57 58.7219 1422.57 51.4303 L1422.57 49.7694 L1415.16 49.7694 M1430.02 46.6907 L1430.02 72.576 L1422.57 72.576 L1422.57 65.6895 Q1420.02 69.8214 1416.21 71.8063 Q1412.4 73.7508 1406.89 73.7508 Q1399.92 73.7508 1395.79 69.8619 Q1391.7 65.9325 1391.7 59.3701 Q1391.7 51.7138 1396.81 47.825 Q1401.95 43.9361 1412.12 43.9361 L1422.57 43.9361 L1422.57 43.2069 Q1422.57 38.0623 1419.17 35.2672 Q1415.8 32.4315 1409.69 32.4315 Q1405.8 32.4315 1402.11 33.3632 Q1398.43 34.295 1395.02 36.1584 L1395.02 29.2718 Q1399.11 27.692 1402.96 26.9223 Q1406.81 26.1121 1410.46 26.1121 Q1420.3 26.1121 1425.16 31.2163 Q1430.02 36.3204 1430.02 46.6907 Z" fill="#000000" fill-rule="evenodd" fill-opacity="1" /><path clip-path="url(#clip780)" d="M 0 0 M1475.56 45.1919 L1475.56 72.576 L1468.1 72.576 L1468.1 45.4349 Q1468.1 38.994 1465.59 35.7938 Q1463.08 32.5936 1458.06 32.5936 Q1452.02 32.5936 1448.54 36.4419 Q1445.05 40.2903 1445.05 46.9338 L1445.05 72.576 L1437.56 72.576 L1437.56 9.54393 L1445.05 9.54393 L1445.05 34.2544 Q1447.73 30.163 1451.33 28.1376 Q1454.98 26.1121 1459.72 26.1121 Q1467.53 26.1121 1471.54 30.9732 Q1475.56 35.7938 1475.56 45.1919 Z" fill="#000000" fill-rule="evenodd" fill-opacity="1" /><path clip-path="url(#clip780)" d="M 0 0 M1483.37 9.54393 L1490.83 9.54393 L1490.83 72.576 L1483.37 72.576 L1483.37 9.54393 Z" fill="#000000" fill-rule="evenodd" fill-opacity="1" /><path clip-path="url(#clip780)" d="M 0 0 M1537.45 48.0275 L1537.45 51.6733 L1503.18 51.6733 Q1503.67 59.3701 1507.8 63.421 Q1511.97 67.4314 1519.39 67.4314 Q1523.68 67.4314 1527.69 66.3781 Q1531.74 65.3249 1535.71 63.2184 L1535.71 70.267 Q1531.7 71.9684 1527.49 72.8596 Q1523.27 73.7508 1518.94 73.7508 Q1508.08 73.7508 1501.72 67.4314 Q1495.4 61.1119 1495.4 50.3365 Q1495.4 39.1965 1501.4 32.6746 Q1507.44 26.1121 1517.64 26.1121 Q1526.8 26.1121 1532.11 32.0264 Q1537.45 37.9003 1537.45 48.0275 M1530 45.84 Q1529.92 39.7232 1526.56 36.0774 Q1523.23 32.4315 1517.73 32.4315 Q1511.49 32.4315 1507.72 35.9558 Q1503.99 39.4801 1503.43 45.8805 L1530 45.84 Z" fill="#000000" fill-rule="evenodd" fill-opacity="1" /><path clip-path="url(#clip780)" d="M 0 0 M1582.99 45.1919 L1582.99 72.576 L1575.53 72.576 L1575.53 45.4349 Q1575.53 38.994 1573.02 35.7938 Q1570.51 32.5936 1565.49 32.5936 Q1559.45 32.5936 1555.97 36.4419 Q1552.48 40.2903 1552.48 46.9338 L1552.48 72.576 L1544.99 72.576 L1544.99 27.2059 L1552.48 27.2059 L1552.48 34.2544 Q1555.16 30.163 1558.76 28.1376 Q1562.41 26.1121 1567.15 26.1121 Q1574.96 26.1121 1578.97 30.9732 Q1582.99 35.7938 1582.99 45.1919 Z" fill="#000000" fill-rule="evenodd" fill-opacity="1" /><path clip-path="url(#clip780)" d="M 0 0 M1617.17 27.2059 L1624.63 27.2059 L1624.63 72.576 L1617.17 72.576 L1617.17 27.2059 M1617.17 9.54393 L1624.63 9.54393 L1624.63 18.9825 L1617.17 18.9825 L1617.17 9.54393 Z" fill="#000000" fill-rule="evenodd" fill-opacity="1" /><path clip-path="url(#clip780)" d="M 0 0 M1670.16 45.1919 L1670.16 72.576 L1662.71 72.576 L1662.71 45.4349 Q1662.71 38.994 1660.2 35.7938 Q1657.68 32.5936 1652.66 32.5936 Q1646.62 32.5936 1643.14 36.4419 Q1639.66 40.2903 1639.66 46.9338 L1639.66 72.576 L1632.16 72.576 L1632.16 27.2059 L1639.66 27.2059 L1639.66 34.2544 Q1642.33 30.163 1645.94 28.1376 Q1649.58 26.1121 1654.32 26.1121 Q1662.14 26.1121 1666.15 30.9732 Q1670.16 35.7938 1670.16 45.1919 Z" fill="#000000" fill-rule="evenodd" fill-opacity="1" /><path clip-path="url(#clip780)" d="M 0 0 M1712.86 18.8205 L1712.86 65.8515 L1722.74 65.8515 Q1735.26 65.8515 1741.05 60.1802 Q1746.88 54.509 1746.88 42.2752 Q1746.88 30.1225 1741.05 24.4918 Q1735.26 18.8205 1722.74 18.8205 L1712.86 18.8205 M1704.67 12.096 L1721.49 12.096 Q1739.07 12.096 1747.29 19.4281 Q1755.51 26.7198 1755.51 42.2752 Q1755.51 57.9117 1747.25 65.2439 Q1738.99 72.576 1721.49 72.576 L1704.67 72.576 L1704.67 12.096 Z" fill="#000000" fill-rule="evenodd" fill-opacity="1" /><path clip-path="url(#clip780)" d="M 0 0 M1802.14 48.0275 L1802.14 51.6733 L1767.87 51.6733 Q1768.35 59.3701 1772.49 63.421 Q1776.66 67.4314 1784.07 67.4314 Q1788.37 67.4314 1792.38 66.3781 Q1796.43 65.3249 1800.4 63.2184 L1800.4 70.267 Q1796.39 71.9684 1792.17 72.8596 Q1787.96 73.7508 1783.63 73.7508 Q1772.77 73.7508 1766.41 67.4314 Q1760.09 61.1119 1760.09 50.3365 Q1760.09 39.1965 1766.09 32.6746 Q1772.12 26.1121 1782.33 26.1121 Q1791.49 26.1121 1796.79 32.0264 Q1802.14 37.9003 1802.14 48.0275 M1794.69 45.84 Q1794.6 39.7232 1791.24 36.0774 Q1787.92 32.4315 1782.41 32.4315 Q1776.17 32.4315 1772.41 35.9558 Q1768.68 39.4801 1768.11 45.8805 L1794.69 45.84 Z" fill="#000000" fill-rule="evenodd" fill-opacity="1" /><path clip-path="url(#clip780)" d="M 0 0 M1809.19 54.671 L1809.19 27.2059 L1816.64 27.2059 L1816.64 54.3874 Q1816.64 60.8284 1819.15 64.0691 Q1821.66 67.2693 1826.69 67.2693 Q1832.72 67.2693 1836.21 63.421 Q1839.73 59.5726 1839.73 52.9291 L1839.73 27.2059 L1847.19 27.2059 L1847.19 72.576 L1839.73 72.576 L1839.73 65.6084 Q1837.02 69.7404 1833.41 71.7658 Q1829.85 73.7508 1825.11 73.7508 Q1817.29 73.7508 1813.24 68.8897 Q1809.19 64.0286 1809.19 54.671 M1827.94 26.1121 L1827.94 26.1121 Z" fill="#000000" fill-rule="evenodd" fill-opacity="1" /><path clip-path="url(#clip780)" d="M 0 0 M1862.38 14.324 L1862.38 27.2059 L1877.73 27.2059 L1877.73 32.9987 L1862.38 32.9987 L1862.38 57.6282 Q1862.38 63.1779 1863.87 64.7578 Q1865.41 66.3376 1870.07 66.3376 L1877.73 66.3376 L1877.73 72.576 L1870.07 72.576 Q1861.44 72.576 1858.16 69.3758 Q1854.88 66.1351 1854.88 57.6282 L1854.88 32.9987 L1849.41 32.9987 L1849.41 27.2059 L1854.88 27.2059 L1854.88 14.324 L1862.38 14.324 Z" fill="#000000" fill-rule="evenodd" fill-opacity="1" /><path clip-path="url(#clip780)" d="M 0 0 M1914.47 28.5427 L1914.47 35.5912 Q1911.31 33.9709 1907.91 33.1607 Q1904.51 32.3505 1900.86 32.3505 Q1895.31 32.3505 1892.51 34.0519 Q1889.76 35.7533 1889.76 39.156 Q1889.76 41.7486 1891.75 43.2475 Q1893.73 44.7058 1899.73 46.0426 L1902.28 46.6097 Q1910.22 48.3111 1913.54 51.4303 Q1916.9 54.509 1916.9 60.0587 Q1916.9 66.3781 1911.88 70.0644 Q1906.9 73.7508 1898.15 73.7508 Q1894.5 73.7508 1890.53 73.0216 Q1886.6 72.3329 1882.23 70.9151 L1882.23 63.2184 Q1886.36 65.3654 1890.37 66.4591 Q1894.38 67.5124 1898.31 67.5124 Q1903.57 67.5124 1906.41 65.73 Q1909.25 63.9071 1909.25 60.6258 Q1909.25 57.5877 1907.18 55.9673 Q1905.15 54.3469 1898.23 52.8481 L1895.63 52.2405 Q1888.71 50.7821 1885.63 47.7845 Q1882.55 44.7463 1882.55 39.4801 Q1882.55 33.0797 1887.09 29.5959 Q1891.62 26.1121 1899.97 26.1121 Q1904.1 26.1121 1907.75 26.7198 Q1911.39 27.3274 1914.47 28.5427 Z" fill="#000000" fill-rule="evenodd" fill-opacity="1" /><path clip-path="url(#clip780)" d="M 0 0 M1957.37 28.9478 L1957.37 35.9153 Q1954.21 34.1734 1951.01 33.3227 Q1947.85 32.4315 1944.61 32.4315 Q1937.36 32.4315 1933.35 37.0496 Q1929.34 41.6271 1929.34 49.9314 Q1929.34 58.2358 1933.35 62.8538 Q1937.36 67.4314 1944.61 67.4314 Q1947.85 67.4314 1951.01 66.5807 Q1954.21 65.6895 1957.37 63.9476 L1957.37 70.8341 Q1954.25 72.2924 1950.89 73.0216 Q1947.57 73.7508 1943.8 73.7508 Q1933.55 73.7508 1927.51 67.3098 Q1921.48 60.8689 1921.48 49.9314 Q1921.48 38.832 1927.56 32.472 Q1933.67 26.1121 1944.29 26.1121 Q1947.73 26.1121 1951.01 26.8413 Q1954.29 27.5299 1957.37 28.9478 Z" fill="#000000" fill-rule="evenodd" fill-opacity="1" /><path clip-path="url(#clip780)" d="M 0 0 M2002.9 45.1919 L2002.9 72.576 L1995.45 72.576 L1995.45 45.4349 Q1995.45 38.994 1992.94 35.7938 Q1990.43 32.5936 1985.4 32.5936 Q1979.37 32.5936 1975.88 36.4419 Q1972.4 40.2903 1972.4 46.9338 L1972.4 72.576 L1964.9 72.576 L1964.9 9.54393 L1972.4 9.54393 L1972.4 34.2544 Q1975.07 30.163 1978.68 28.1376 Q1982.32 26.1121 1987.06 26.1121 Q1994.88 26.1121 1998.89 30.9732 Q2002.9 35.7938 2002.9 45.1919 Z" fill="#000000" fill-rule="evenodd" fill-opacity="1" /><path clip-path="url(#clip780)" d="M 0 0 M2010.72 9.54393 L2018.17 9.54393 L2018.17 72.576 L2010.72 72.576 L2010.72 9.54393 Z" fill="#000000" fill-rule="evenodd" fill-opacity="1" /><path clip-path="url(#clip780)" d="M 0 0 M2046.61 49.7694 Q2037.58 49.7694 2034.09 51.8354 Q2030.61 53.9013 2030.61 58.8839 Q2030.61 62.8538 2033.2 65.2034 Q2035.84 67.5124 2040.33 67.5124 Q2046.53 67.5124 2050.26 63.1374 Q2054.02 58.7219 2054.02 51.4303 L2054.02 49.7694 L2046.61 49.7694 M2061.48 46.6907 L2061.48 72.576 L2054.02 72.576 L2054.02 65.6895 Q2051.47 69.8214 2047.66 71.8063 Q2043.86 73.7508 2038.35 73.7508 Q2031.38 73.7508 2027.25 69.8619 Q2023.16 65.9325 2023.16 59.3701 Q2023.16 51.7138 2028.26 47.825 Q2033.41 43.9361 2043.57 43.9361 L2054.02 43.9361 L2054.02 43.2069 Q2054.02 38.0623 2050.62 35.2672 Q2047.26 32.4315 2041.14 32.4315 Q2037.25 32.4315 2033.57 33.3632 Q2029.88 34.295 2026.48 36.1584 L2026.48 29.2718 Q2030.57 27.692 2034.42 26.9223 Q2038.27 26.1121 2041.91 26.1121 Q2051.76 26.1121 2056.62 31.2163 Q2061.48 36.3204 2061.48 46.6907 Z" fill="#000000" fill-rule="evenodd" fill-opacity="1" /><path clip-path="url(#clip780)" d="M 0 0 M2107.01 45.1919 L2107.01 72.576 L2099.56 72.576 L2099.56 45.4349 Q2099.56 38.994 2097.04 35.7938 Q2094.53 32.5936 2089.51 32.5936 Q2083.47 32.5936 2079.99 36.4419 Q2076.51 40.2903 2076.51 46.9338 L2076.51 72.576 L2069.01 72.576 L2069.01 27.2059 L2076.51 27.2059 L2076.51 34.2544 Q2079.18 30.163 2082.79 28.1376 Q2086.43 26.1121 2091.17 26.1121 Q2098.99 26.1121 2103 30.9732 Q2107.01 35.7938 2107.01 45.1919 Z" fill="#000000" fill-rule="evenodd" fill-opacity="1" /><path clip-path="url(#clip780)" d="M 0 0 M2144.68 34.0924 L2144.68 9.54393 L2152.14 9.54393 L2152.14 72.576 L2144.68 72.576 L2144.68 65.7705 Q2142.33 69.8214 2138.73 71.8063 Q2135.16 73.7508 2130.14 73.7508 Q2121.92 73.7508 2116.73 67.1883 Q2111.59 60.6258 2111.59 49.9314 Q2111.59 39.2371 2116.73 32.6746 Q2121.92 26.1121 2130.14 26.1121 Q2135.16 26.1121 2138.73 28.0971 Q2142.33 30.0415 2144.68 34.0924 M2119.28 49.9314 Q2119.28 58.1548 2122.65 62.8538 Q2126.05 67.5124 2131.96 67.5124 Q2137.88 67.5124 2141.28 62.8538 Q2144.68 58.1548 2144.68 49.9314 Q2144.68 41.7081 2141.28 37.0496 Q2137.88 32.3505 2131.96 32.3505 Q2126.05 32.3505 2122.65 37.0496 Q2119.28 41.7081 2119.28 49.9314 Z" fill="#000000" fill-rule="evenodd" fill-opacity="1" /><polyline clip-path="url(#clip782)" style="stroke:#006298; stroke-width:12; stroke-opacity:1; fill:none" points="
  330.155,672.936 367.918,674.198 405.681,665.725 443.445,662.119 481.208,671.764 518.971,669.601 556.734,672.215 594.498,672.576 632.261,652.249 670.024,653.961 
  707.788,650.22 745.551,656.756 783.314,666.176 821.077,682.987 858.841,706.965 896.604,749.196 934.367,736.666 972.131,743.517 1009.89,710.706 1047.66,757.038 
  1085.42,771.236 1123.18,768.531 1160.95,793.185 1198.71,796.881 1236.47,743.111 1274.24,797.692 1312,773.805 1349.76,776.374 1387.53,739.731 1425.29,777.05 
  1463.05,809.411 1500.82,807.247 1538.58,772.498 1576.34,732.43 1614.11,779.574 1651.87,778.898 1689.63,767.36 1727.4,801.884 1765.16,768.982 1802.92,768.261 
  1840.69,719.81 1878.45,712.058 1916.21,712.644 1953.98,712.914 1991.74,703.81 2029.5,667.347 2067.27,697.996 2105.03,687.404 2142.79,658.243 2180.56,654.097 
  2218.32,631.967 2256.08,615.381 
  "/>
<polyline clip-path="url(#clip782)" style="stroke:#a02438; stroke-width:12; stroke-opacity:1; fill:none" points="
  330.155,562.467 367.918,510.546 405.681,548.135 443.445,509.96 481.208,439.785 518.971,480.168 556.734,482.917 594.498,501.712 632.261,561.927 670.024,644.316 
  707.788,664.012 745.551,710.21 783.314,706.108 821.077,737.793 858.841,743.517 896.604,755.416 934.367,710.48 972.131,733.241 1009.89,723.596 1047.66,735.495 
  1085.42,763.799 1123.18,743.472 1160.95,791.067 1198.71,780.205 1236.47,747.213 1274.24,780.701 1312,765.016 1349.76,802.019 1387.53,757.579 1425.29,781.512 
  1463.05,761.861 1500.82,793.861 1538.58,777.455 1576.34,789.534 1614.11,781.241 1651.87,797.377 1689.63,777.546 1727.4,761.365 1765.16,750.458 1802.92,754.199 
  1840.69,717.872 1878.45,732.79 1916.21,736.396 1953.98,749.782 1991.74,722.334 2029.5,712.283 2067.27,708.587 2105.03,699.528 2142.79,680.688 2180.56,671.269 
  2218.32,671.449 2256.08,664.598 
  "/>
<polyline clip-path="url(#clip782)" style="stroke:#449adc; stroke-width:12; stroke-opacity:1; fill:none" points="
  330.155,633.499 367.918,659.28 405.681,640.485 443.445,641.206 481.208,623.764 518.971,599.966 556.734,547.324 594.498,473.678 632.261,354.375 670.024,298.397 
  707.788,406.207 745.551,478.681 783.314,563.008 821.077,602.13 858.841,641.477 896.604,694.345 934.367,734.864 972.131,748.565 1009.89,728.869 1047.66,762.131 
  1085.42,761.005 1123.18,737.297 1160.95,751.945 1198.71,802.966 1236.47,791.202 1274.24,758.481 1312,756.092 1349.76,780.971 1387.53,752.486 1425.29,678.66 
  1463.05,587.121 1500.82,672.44 1538.58,744.013 1576.34,756.543 1614.11,784.126 1651.87,766.548 1689.63,770.965 1727.4,754.785 1765.16,785.523 1802.92,756.092 
  1840.69,739.371 1878.45,759.247 1916.21,756.723 1953.98,743.788 1991.74,711.832 2029.5,746.176 2067.27,703.674 2105.03,689.883 2142.79,678.57 2180.56,696.553 
  2218.32,649.364 2256.08,696.058 
  "/>
<polyline clip-path="url(#clip782)" style="stroke:#002b52; stroke-width:12; stroke-opacity:1; fill:none" points="
  330.155,663.066 367.918,641.251 405.681,641.567 443.445,626.153 481.208,612.316 518.971,604.699 556.734,597.082 594.498,588.113 632.261,568.237 670.024,583.425 
  707.788,613.082 745.551,648.192 783.314,668.654 821.077,663.742 858.841,700.655 896.604,689.973 934.367,698.762 972.131,734.999 1009.89,733.737 1047.66,724.858 
  1085.42,735.449 1123.18,742.616 1160.95,716.925 1198.71,762.312 1236.47,755.326 1274.24,697.68 1312,759.247 1349.76,769.748 1387.53,745.545 1425.29,620.519 
  1463.05,737.523 1500.82,759.788 1538.58,787.101 1576.34,772.272 1614.11,710.345 1651.87,784.667 1689.63,770.47 1727.4,761.591 1765.16,720.937 1802.92,743.607 
  1840.69,709.038 1878.45,706.92 1916.21,724.317 1953.98,717.061 1991.74,700.339 2029.5,683.077 2067.27,669.871 2105.03,667.798 2142.79,642.468 2180.56,644.361 
  2218.32,646.119 2256.08,684.79 
  "/>
<polyline clip-path="url(#clip782)" style="stroke:#ec4a60; stroke-width:12; stroke-opacity:1; fill:none" points="
  330.155,653.285 367.918,629.533 405.681,640.62 443.445,651.618 481.208,612.857 518.971,647.516 556.734,619.617 594.498,651.257 632.261,626.739 670.024,619.933 
  707.788,609.071 745.551,615.516 783.314,617.229 821.077,574.682 858.841,580.721 896.604,636.158 934.367,669.06 972.131,697.815 1009.89,710.39 1047.66,739.731 
  1085.42,731.979 1123.18,749.962 1160.95,727.021 1198.71,757.083 1236.47,766.458 1274.24,726.345 1312,764.61 1349.76,777.095 1387.53,760.869 1425.29,743.472 
  1463.05,721.252 1500.82,717.872 1538.58,618.626 1576.34,714.627 1614.11,755.867 1651.87,751.81 1689.63,735.449 1727.4,715.799 1765.16,722.063 1802.92,713.906 
  1840.69,719.855 1878.45,708.767 1916.21,670.773 1953.98,671.854 1991.74,650.491 2029.5,621.06 2067.27,601.499 2105.03,553.679 2142.79,494.636 2180.56,438.432 
  2218.32,411.525 2256.08,386.691 2293.85,399.626 
  "/>
<path clip-path="url(#clip780)" d="
M1950.17 1457.18 L2283.37 1457.18 L2283.37 1094.3 L1950.17 1094.3  Z
  " fill="#ffffff" fill-rule="evenodd" fill-opacity="1"/>
<polyline clip-path="url(#clip780)" style="stroke:#000000; stroke-width:4; stroke-opacity:1; fill:none" points="
  1950.17,1457.18 2283.37,1457.18 2283.37,1094.3 1950.17,1094.3 1950.17,1457.18 
  "/>
<polyline clip-path="url(#clip780)" style="stroke:#006298; stroke-width:4; stroke-opacity:1; fill:none" points="
  1973.3,1154.78 2112.07,1154.78 
  "/>
<path clip-path="url(#clip780)" d="M 0 0 M2140.82 1168.13 L2157.14 1168.13 L2157.14 1172.06 L2135.2 1172.06 L2135.2 1168.13 Q2137.86 1165.37 2142.44 1160.74 Q2147.05 1156.09 2148.23 1154.75 Q2150.47 1152.23 2151.35 1150.49 Q2152.26 1148.73 2152.26 1147.04 Q2152.26 1144.29 2150.31 1142.55 Q2148.39 1140.81 2145.29 1140.81 Q2143.09 1140.81 2140.64 1141.58 Q2138.2 1142.34 2135.43 1143.89 L2135.43 1139.17 Q2138.25 1138.04 2140.7 1137.46 Q2143.16 1136.88 2145.2 1136.88 Q2150.57 1136.88 2153.76 1139.56 Q2156.95 1142.25 2156.95 1146.74 Q2156.95 1148.87 2156.14 1150.79 Q2155.36 1152.69 2153.25 1155.28 Q2152.67 1155.95 2149.57 1159.17 Q2146.47 1162.37 2140.82 1168.13 Z" fill="#000000" fill-rule="evenodd" fill-opacity="1" /><path clip-path="url(#clip780)" d="M 0 0 M2172.21 1140.58 Q2168.6 1140.58 2166.77 1144.15 Q2164.96 1147.69 2164.96 1154.82 Q2164.96 1161.93 2166.77 1165.49 Q2168.6 1169.03 2172.21 1169.03 Q2175.84 1169.03 2177.65 1165.49 Q2179.48 1161.93 2179.48 1154.82 Q2179.48 1147.69 2177.65 1144.15 Q2175.84 1140.58 2172.21 1140.58 M2172.21 1136.88 Q2178.02 1136.88 2181.07 1141.49 Q2184.15 1146.07 2184.15 1154.82 Q2184.15 1163.55 2181.07 1168.15 Q2178.02 1172.74 2172.21 1172.74 Q2166.4 1172.74 2163.32 1168.15 Q2160.26 1163.55 2160.26 1154.82 Q2160.26 1146.07 2163.32 1141.49 Q2166.4 1136.88 2172.21 1136.88 Z" fill="#000000" fill-rule="evenodd" fill-opacity="1" /><path clip-path="url(#clip780)" d="M 0 0 M2190.03 1168.13 L2197.67 1168.13 L2197.67 1141.76 L2189.36 1143.43 L2189.36 1139.17 L2197.63 1137.5 L2202.3 1137.5 L2202.3 1168.13 L2209.94 1168.13 L2209.94 1172.06 L2190.03 1172.06 L2190.03 1168.13 Z" fill="#000000" fill-rule="evenodd" fill-opacity="1" /><path clip-path="url(#clip780)" d="M 0 0 M2225.59 1152.92 Q2222.44 1152.92 2220.59 1155.07 Q2218.76 1157.23 2218.76 1160.98 Q2218.76 1164.7 2220.59 1166.88 Q2222.44 1169.03 2225.59 1169.03 Q2228.74 1169.03 2230.57 1166.88 Q2232.42 1164.7 2232.42 1160.98 Q2232.42 1157.23 2230.57 1155.07 Q2228.74 1152.92 2225.59 1152.92 M2234.87 1138.27 L2234.87 1142.53 Q2233.11 1141.69 2231.31 1141.25 Q2229.52 1140.81 2227.76 1140.81 Q2223.13 1140.81 2220.68 1143.94 Q2218.25 1147.06 2217.9 1153.38 Q2219.27 1151.37 2221.33 1150.31 Q2223.39 1149.22 2225.87 1149.22 Q2231.07 1149.22 2234.08 1152.39 Q2237.12 1155.54 2237.12 1160.98 Q2237.12 1166.3 2233.97 1169.52 Q2230.82 1172.74 2225.59 1172.74 Q2219.59 1172.74 2216.42 1168.15 Q2213.25 1163.55 2213.25 1154.82 Q2213.25 1146.62 2217.14 1141.76 Q2221.03 1136.88 2227.58 1136.88 Q2229.34 1136.88 2231.12 1137.23 Q2232.93 1137.57 2234.87 1138.27 Z" fill="#000000" fill-rule="evenodd" fill-opacity="1" /><polyline clip-path="url(#clip780)" style="stroke:#a02438; stroke-width:4; stroke-opacity:1; fill:none" points="
  1973.3,1215.26 2112.07,1215.26 
  "/>
<path clip-path="url(#clip780)" d="M 0 0 M2140.82 1228.61 L2157.14 1228.61 L2157.14 1232.54 L2135.2 1232.54 L2135.2 1228.61 Q2137.86 1225.85 2142.44 1221.22 Q2147.05 1216.57 2148.23 1215.23 Q2150.47 1212.71 2151.35 1210.97 Q2152.26 1209.21 2152.26 1207.52 Q2152.26 1204.77 2150.31 1203.03 Q2148.39 1201.29 2145.29 1201.29 Q2143.09 1201.29 2140.64 1202.06 Q2138.2 1202.82 2135.43 1204.37 L2135.43 1199.65 Q2138.25 1198.52 2140.7 1197.94 Q2143.16 1197.36 2145.2 1197.36 Q2150.57 1197.36 2153.76 1200.04 Q2156.95 1202.73 2156.95 1207.22 Q2156.95 1209.35 2156.14 1211.27 Q2155.36 1213.17 2153.25 1215.76 Q2152.67 1216.43 2149.57 1219.65 Q2146.47 1222.85 2140.82 1228.61 Z" fill="#000000" fill-rule="evenodd" fill-opacity="1" /><path clip-path="url(#clip780)" d="M 0 0 M2172.21 1201.06 Q2168.6 1201.06 2166.77 1204.63 Q2164.96 1208.17 2164.96 1215.3 Q2164.96 1222.41 2166.77 1225.97 Q2168.6 1229.51 2172.21 1229.51 Q2175.84 1229.51 2177.65 1225.97 Q2179.48 1222.41 2179.48 1215.3 Q2179.48 1208.17 2177.65 1204.63 Q2175.84 1201.06 2172.21 1201.06 M2172.21 1197.36 Q2178.02 1197.36 2181.07 1201.97 Q2184.15 1206.55 2184.15 1215.3 Q2184.15 1224.03 2181.07 1228.63 Q2178.02 1233.22 2172.21 1233.22 Q2166.4 1233.22 2163.32 1228.63 Q2160.26 1224.03 2160.26 1215.3 Q2160.26 1206.55 2163.32 1201.97 Q2166.4 1197.36 2172.21 1197.36 Z" fill="#000000" fill-rule="evenodd" fill-opacity="1" /><path clip-path="url(#clip780)" d="M 0 0 M2190.03 1228.61 L2197.67 1228.61 L2197.67 1202.24 L2189.36 1203.91 L2189.36 1199.65 L2197.63 1197.98 L2202.3 1197.98 L2202.3 1228.61 L2209.94 1228.61 L2209.94 1232.54 L2190.03 1232.54 L2190.03 1228.61 Z" fill="#000000" fill-rule="evenodd" fill-opacity="1" /><path clip-path="url(#clip780)" d="M 0 0 M2213.83 1197.98 L2236.05 1197.98 L2236.05 1199.97 L2223.51 1232.54 L2218.62 1232.54 L2230.43 1201.92 L2213.83 1201.92 L2213.83 1197.98 Z" fill="#000000" fill-rule="evenodd" fill-opacity="1" /><polyline clip-path="url(#clip780)" style="stroke:#449adc; stroke-width:4; stroke-opacity:1; fill:none" points="
  1973.3,1275.74 2112.07,1275.74 
  "/>
<path clip-path="url(#clip780)" d="M 0 0 M2140.82 1289.09 L2157.14 1289.09 L2157.14 1293.02 L2135.2 1293.02 L2135.2 1289.09 Q2137.86 1286.33 2142.44 1281.7 Q2147.05 1277.05 2148.23 1275.71 Q2150.47 1273.19 2151.35 1271.45 Q2152.26 1269.69 2152.26 1268 Q2152.26 1265.25 2150.31 1263.51 Q2148.39 1261.77 2145.29 1261.77 Q2143.09 1261.77 2140.64 1262.54 Q2138.2 1263.3 2135.43 1264.85 L2135.43 1260.13 Q2138.25 1259 2140.7 1258.42 Q2143.16 1257.84 2145.2 1257.84 Q2150.57 1257.84 2153.76 1260.52 Q2156.95 1263.21 2156.95 1267.7 Q2156.95 1269.83 2156.14 1271.75 Q2155.36 1273.65 2153.25 1276.24 Q2152.67 1276.91 2149.57 1280.13 Q2146.47 1283.33 2140.82 1289.09 Z" fill="#000000" fill-rule="evenodd" fill-opacity="1" /><path clip-path="url(#clip780)" d="M 0 0 M2172.21 1261.54 Q2168.6 1261.54 2166.77 1265.11 Q2164.96 1268.65 2164.96 1275.78 Q2164.96 1282.89 2166.77 1286.45 Q2168.6 1289.99 2172.21 1289.99 Q2175.84 1289.99 2177.65 1286.45 Q2179.48 1282.89 2179.48 1275.78 Q2179.48 1268.65 2177.65 1265.11 Q2175.84 1261.54 2172.21 1261.54 M2172.21 1257.84 Q2178.02 1257.84 2181.07 1262.45 Q2184.15 1267.03 2184.15 1275.78 Q2184.15 1284.51 2181.07 1289.11 Q2178.02 1293.7 2172.21 1293.7 Q2166.4 1293.7 2163.32 1289.11 Q2160.26 1284.51 2160.26 1275.78 Q2160.26 1267.03 2163.32 1262.45 Q2166.4 1257.84 2172.21 1257.84 Z" fill="#000000" fill-rule="evenodd" fill-opacity="1" /><path clip-path="url(#clip780)" d="M 0 0 M2190.03 1289.09 L2197.67 1289.09 L2197.67 1262.72 L2189.36 1264.39 L2189.36 1260.13 L2197.63 1258.46 L2202.3 1258.46 L2202.3 1289.09 L2209.94 1289.09 L2209.94 1293.02 L2190.03 1293.02 L2190.03 1289.09 Z" fill="#000000" fill-rule="evenodd" fill-opacity="1" /><path clip-path="url(#clip780)" d="M 0 0 M2225.01 1276.61 Q2221.68 1276.61 2219.76 1278.39 Q2217.86 1280.18 2217.86 1283.3 Q2217.86 1286.43 2219.76 1288.21 Q2221.68 1289.99 2225.01 1289.99 Q2228.34 1289.99 2230.26 1288.21 Q2232.19 1286.4 2232.19 1283.3 Q2232.19 1280.18 2230.26 1278.39 Q2228.37 1276.61 2225.01 1276.61 M2220.33 1274.62 Q2217.32 1273.88 2215.63 1271.82 Q2213.97 1269.76 2213.97 1266.8 Q2213.97 1262.65 2216.91 1260.25 Q2219.87 1257.84 2225.01 1257.84 Q2230.17 1257.84 2233.11 1260.25 Q2236.05 1262.65 2236.05 1266.8 Q2236.05 1269.76 2234.36 1271.82 Q2232.7 1273.88 2229.71 1274.62 Q2233.09 1275.41 2234.96 1277.7 Q2236.86 1279.99 2236.86 1283.3 Q2236.86 1288.33 2233.78 1291.01 Q2230.73 1293.7 2225.01 1293.7 Q2219.29 1293.7 2216.21 1291.01 Q2213.16 1288.33 2213.16 1283.3 Q2213.16 1279.99 2215.06 1277.7 Q2216.95 1275.41 2220.33 1274.62 M2218.62 1267.24 Q2218.62 1269.92 2220.29 1271.43 Q2221.98 1272.93 2225.01 1272.93 Q2228.02 1272.93 2229.71 1271.43 Q2231.42 1269.92 2231.42 1267.24 Q2231.42 1264.55 2229.71 1263.05 Q2228.02 1261.54 2225.01 1261.54 Q2221.98 1261.54 2220.29 1263.05 Q2218.62 1264.55 2218.62 1267.24 Z" fill="#000000" fill-rule="evenodd" fill-opacity="1" /><polyline clip-path="url(#clip780)" style="stroke:#002b52; stroke-width:4; stroke-opacity:1; fill:none" points="
  1973.3,1336.22 2112.07,1336.22 
  "/>
<path clip-path="url(#clip780)" d="M 0 0 M2140.82 1349.57 L2157.14 1349.57 L2157.14 1353.5 L2135.2 1353.5 L2135.2 1349.57 Q2137.86 1346.81 2142.44 1342.18 Q2147.05 1337.53 2148.23 1336.19 Q2150.47 1333.67 2151.35 1331.93 Q2152.26 1330.17 2152.26 1328.48 Q2152.26 1325.73 2150.31 1323.99 Q2148.39 1322.25 2145.29 1322.25 Q2143.09 1322.25 2140.64 1323.02 Q2138.2 1323.78 2135.43 1325.33 L2135.43 1320.61 Q2138.25 1319.48 2140.7 1318.9 Q2143.16 1318.32 2145.2 1318.32 Q2150.57 1318.32 2153.76 1321 Q2156.95 1323.69 2156.95 1328.18 Q2156.95 1330.31 2156.14 1332.23 Q2155.36 1334.13 2153.25 1336.72 Q2152.67 1337.39 2149.57 1340.61 Q2146.47 1343.81 2140.82 1349.57 Z" fill="#000000" fill-rule="evenodd" fill-opacity="1" /><path clip-path="url(#clip780)" d="M 0 0 M2172.21 1322.02 Q2168.6 1322.02 2166.77 1325.59 Q2164.96 1329.13 2164.96 1336.26 Q2164.96 1343.37 2166.77 1346.93 Q2168.6 1350.47 2172.21 1350.47 Q2175.84 1350.47 2177.65 1346.93 Q2179.48 1343.37 2179.48 1336.26 Q2179.48 1329.13 2177.65 1325.59 Q2175.84 1322.02 2172.21 1322.02 M2172.21 1318.32 Q2178.02 1318.32 2181.07 1322.93 Q2184.15 1327.51 2184.15 1336.26 Q2184.15 1344.99 2181.07 1349.59 Q2178.02 1354.18 2172.21 1354.18 Q2166.4 1354.18 2163.32 1349.59 Q2160.26 1344.99 2160.26 1336.26 Q2160.26 1327.51 2163.32 1322.93 Q2166.4 1318.32 2172.21 1318.32 Z" fill="#000000" fill-rule="evenodd" fill-opacity="1" /><path clip-path="url(#clip780)" d="M 0 0 M2190.03 1349.57 L2197.67 1349.57 L2197.67 1323.2 L2189.36 1324.87 L2189.36 1320.61 L2197.63 1318.94 L2202.3 1318.94 L2202.3 1349.57 L2209.94 1349.57 L2209.94 1353.5 L2190.03 1353.5 L2190.03 1349.57 Z" fill="#000000" fill-rule="evenodd" fill-opacity="1" /><path clip-path="url(#clip780)" d="M 0 0 M2215.15 1352.79 L2215.15 1348.53 Q2216.91 1349.36 2218.71 1349.8 Q2220.52 1350.24 2222.26 1350.24 Q2226.88 1350.24 2229.32 1347.14 Q2231.77 1344.01 2232.12 1337.67 Q2230.77 1339.66 2228.71 1340.73 Q2226.65 1341.79 2224.15 1341.79 Q2218.97 1341.79 2215.94 1338.67 Q2212.93 1335.52 2212.93 1330.08 Q2212.93 1324.75 2216.07 1321.54 Q2219.22 1318.32 2224.45 1318.32 Q2230.45 1318.32 2233.6 1322.93 Q2236.77 1327.51 2236.77 1336.26 Q2236.77 1344.43 2232.88 1349.31 Q2229.01 1354.18 2222.46 1354.18 Q2220.7 1354.18 2218.9 1353.83 Q2217.09 1353.48 2215.15 1352.79 M2224.45 1338.13 Q2227.6 1338.13 2229.43 1335.98 Q2231.28 1333.83 2231.28 1330.08 Q2231.28 1326.35 2229.43 1324.2 Q2227.6 1322.02 2224.45 1322.02 Q2221.31 1322.02 2219.45 1324.2 Q2217.63 1326.35 2217.63 1330.08 Q2217.63 1333.83 2219.45 1335.98 Q2221.31 1338.13 2224.45 1338.13 Z" fill="#000000" fill-rule="evenodd" fill-opacity="1" /><polyline clip-path="url(#clip780)" style="stroke:#ec4a60; stroke-width:4; stroke-opacity:1; fill:none" points="
  1973.3,1396.7 2112.07,1396.7 
  "/>
<path clip-path="url(#clip780)" d="M 0 0 M2140.82 1410.05 L2157.14 1410.05 L2157.14 1413.98 L2135.2 1413.98 L2135.2 1410.05 Q2137.86 1407.29 2142.44 1402.66 Q2147.05 1398.01 2148.23 1396.67 Q2150.47 1394.15 2151.35 1392.41 Q2152.26 1390.65 2152.26 1388.96 Q2152.26 1386.21 2150.31 1384.47 Q2148.39 1382.73 2145.29 1382.73 Q2143.09 1382.73 2140.64 1383.5 Q2138.2 1384.26 2135.43 1385.81 L2135.43 1381.09 Q2138.25 1379.96 2140.7 1379.38 Q2143.16 1378.8 2145.2 1378.8 Q2150.57 1378.8 2153.76 1381.48 Q2156.95 1384.17 2156.95 1388.66 Q2156.95 1390.79 2156.14 1392.71 Q2155.36 1394.61 2153.25 1397.2 Q2152.67 1397.87 2149.57 1401.09 Q2146.47 1404.29 2140.82 1410.05 Z" fill="#000000" fill-rule="evenodd" fill-opacity="1" /><path clip-path="url(#clip780)" d="M 0 0 M2172.21 1382.5 Q2168.6 1382.5 2166.77 1386.07 Q2164.96 1389.61 2164.96 1396.74 Q2164.96 1403.85 2166.77 1407.41 Q2168.6 1410.95 2172.21 1410.95 Q2175.84 1410.95 2177.65 1407.41 Q2179.48 1403.85 2179.48 1396.74 Q2179.48 1389.61 2177.65 1386.07 Q2175.84 1382.5 2172.21 1382.5 M2172.21 1378.8 Q2178.02 1378.8 2181.07 1383.41 Q2184.15 1387.99 2184.15 1396.74 Q2184.15 1405.47 2181.07 1410.07 Q2178.02 1414.66 2172.21 1414.66 Q2166.4 1414.66 2163.32 1410.07 Q2160.26 1405.47 2160.26 1396.74 Q2160.26 1387.99 2163.32 1383.41 Q2166.4 1378.8 2172.21 1378.8 Z" fill="#000000" fill-rule="evenodd" fill-opacity="1" /><path clip-path="url(#clip780)" d="M 0 0 M2193.25 1410.05 L2209.57 1410.05 L2209.57 1413.98 L2187.63 1413.98 L2187.63 1410.05 Q2190.29 1407.29 2194.87 1402.66 Q2199.48 1398.01 2200.66 1396.67 Q2202.9 1394.15 2203.78 1392.41 Q2204.69 1390.65 2204.69 1388.96 Q2204.69 1386.21 2202.74 1384.47 Q2200.82 1382.73 2197.72 1382.73 Q2195.52 1382.73 2193.07 1383.5 Q2190.64 1384.26 2187.86 1385.81 L2187.86 1381.09 Q2190.68 1379.96 2193.14 1379.38 Q2195.59 1378.8 2197.63 1378.8 Q2203 1378.8 2206.19 1381.48 Q2209.39 1384.17 2209.39 1388.66 Q2209.39 1390.79 2208.57 1392.71 Q2207.79 1394.61 2205.68 1397.2 Q2205.1 1397.87 2202 1401.09 Q2198.9 1404.29 2193.25 1410.05 Z" fill="#000000" fill-rule="evenodd" fill-opacity="1" /><path clip-path="url(#clip780)" d="M 0 0 M2224.64 1382.5 Q2221.03 1382.5 2219.2 1386.07 Q2217.39 1389.61 2217.39 1396.74 Q2217.39 1403.85 2219.2 1407.41 Q2221.03 1410.95 2224.64 1410.95 Q2228.27 1410.95 2230.08 1407.41 Q2231.91 1403.85 2231.91 1396.74 Q2231.91 1389.61 2230.08 1386.07 Q2228.27 1382.5 2224.64 1382.5 M2224.64 1378.8 Q2230.45 1378.8 2233.51 1383.41 Q2236.58 1387.99 2236.58 1396.74 Q2236.58 1405.47 2233.51 1410.07 Q2230.45 1414.66 2224.64 1414.66 Q2218.83 1414.66 2215.75 1410.07 Q2212.7 1405.47 2212.7 1396.74 Q2212.7 1387.99 2215.75 1383.41 Q2218.83 1378.8 2224.64 1378.8 Z" fill="#000000" fill-rule="evenodd" fill-opacity="1" /></svg>
