<?xml version="1.0" encoding="utf-8"?>
<svg xmlns="http://www.w3.org/2000/svg" xmlns:xlink="http://www.w3.org/1999/xlink" width="600" height="400" viewBox="0 0 2400 1600">
<defs>
  <clipPath id="clip280">
    <rect x="0" y="0" width="2400" height="1600"/>
  </clipPath>
</defs>
<path clip-path="url(#clip280)" d="
M0 1600 L2400 1600 L2400 0 L0 0  Z
  " fill="#ffffff" fill-rule="evenodd" fill-opacity="1"/>
<defs>
  <clipPath id="clip281">
    <rect x="480" y="0" width="1681" height="1600"/>
  </clipPath>
</defs>
<path clip-path="url(#clip280)" d="
M102.74 1505.26 L2352.76 1505.26 L2352.76 62.9921 L102.74 62.9921  Z
  " fill="#ffffff" fill-rule="evenodd" fill-opacity="1"/>
<defs>
  <clipPath id="clip282">
    <rect x="102" y="62" width="2251" height="1443"/>
  </clipPath>
</defs>
<polyline clip-path="url(#clip282)" style="stroke:#000000; stroke-width:2; stroke-opacity:0.1; fill:none" points="
  166.42,1505.26 166.42,62.9921 
  "/>
<polyline clip-path="url(#clip282)" style="stroke:#000000; stroke-width:2; stroke-opacity:0.1; fill:none" points="
  665.868,1505.26 665.868,62.9921 
  "/>
<polyline clip-path="url(#clip282)" style="stroke:#000000; stroke-width:2; stroke-opacity:0.1; fill:none" points="
  1165.32,1505.26 1165.32,62.9921 
  "/>
<polyline clip-path="url(#clip282)" style="stroke:#000000; stroke-width:2; stroke-opacity:0.1; fill:none" points="
  1664.77,1505.26 1664.77,62.9921 
  "/>
<polyline clip-path="url(#clip282)" style="stroke:#000000; stroke-width:2; stroke-opacity:0.1; fill:none" points="
  2164.21,1505.26 2164.21,62.9921 
  "/>
<polyline clip-path="url(#clip280)" style="stroke:#000000; stroke-width:4; stroke-opacity:1; fill:none" points="
  102.74,1505.26 2352.76,1505.26 
  "/>
<polyline clip-path="url(#clip280)" style="stroke:#000000; stroke-width:4; stroke-opacity:1; fill:none" points="
  166.42,1505.26 166.42,1487.95 
  "/>
<polyline clip-path="url(#clip280)" style="stroke:#000000; stroke-width:4; stroke-opacity:1; fill:none" points="
  665.868,1505.26 665.868,1487.95 
  "/>
<polyline clip-path="url(#clip280)" style="stroke:#000000; stroke-width:4; stroke-opacity:1; fill:none" points="
  1165.32,1505.26 1165.32,1487.95 
  "/>
<polyline clip-path="url(#clip280)" style="stroke:#000000; stroke-width:4; stroke-opacity:1; fill:none" points="
  1664.77,1505.26 1664.77,1487.95 
  "/>
<polyline clip-path="url(#clip280)" style="stroke:#000000; stroke-width:4; stroke-opacity:1; fill:none" points="
  2164.21,1505.26 2164.21,1487.95 
  "/>
<path clip-path="url(#clip280)" d="M 0 0 M166.42 1534.45 Q162.809 1534.45 160.98 1538.02 Q159.175 1541.56 159.175 1548.69 Q159.175 1555.79 160.98 1559.36 Q162.809 1562.9 166.42 1562.9 Q170.054 1562.9 171.86 1559.36 Q173.688 1555.79 173.688 1548.69 Q173.688 1541.56 171.86 1538.02 Q170.054 1534.45 166.42 1534.45 M166.42 1530.75 Q172.23 1530.75 175.286 1535.35 Q178.364 1539.94 178.364 1548.69 Q178.364 1557.41 175.286 1562.02 Q172.23 1566.6 166.42 1566.6 Q160.61 1566.6 157.531 1562.02 Q154.475 1557.41 154.475 1548.69 Q154.475 1539.94 157.531 1535.35 Q160.61 1530.75 166.42 1530.75 Z" fill="#000000" fill-rule="evenodd" fill-opacity="1" /><path clip-path="url(#clip280)" d="M 0 0 M647.014 1562 L663.334 1562 L663.334 1565.93 L641.389 1565.93 L641.389 1562 Q644.051 1559.24 648.635 1554.61 Q653.241 1549.96 654.422 1548.62 Q656.667 1546.09 657.547 1544.36 Q658.449 1542.6 658.449 1540.91 Q658.449 1538.15 656.505 1536.42 Q654.584 1534.68 651.482 1534.68 Q649.283 1534.68 646.829 1535.45 Q644.399 1536.21 641.621 1537.76 L641.621 1533.04 Q644.445 1531.9 646.899 1531.33 Q649.352 1530.75 651.389 1530.75 Q656.76 1530.75 659.954 1533.43 Q663.149 1536.12 663.149 1540.61 Q663.149 1542.74 662.338 1544.66 Q661.551 1546.56 659.445 1549.15 Q658.866 1549.82 655.764 1553.04 Q652.662 1556.23 647.014 1562 Z" fill="#000000" fill-rule="evenodd" fill-opacity="1" /><path clip-path="url(#clip280)" d="M 0 0 M678.403 1534.45 Q674.792 1534.45 672.963 1538.02 Q671.158 1541.56 671.158 1548.69 Q671.158 1555.79 672.963 1559.36 Q674.792 1562.9 678.403 1562.9 Q682.037 1562.9 683.843 1559.36 Q685.672 1555.79 685.672 1548.69 Q685.672 1541.56 683.843 1538.02 Q682.037 1534.45 678.403 1534.45 M678.403 1530.75 Q684.213 1530.75 687.269 1535.35 Q690.347 1539.94 690.347 1548.69 Q690.347 1557.41 687.269 1562.02 Q684.213 1566.6 678.403 1566.6 Q672.593 1566.6 669.514 1562.02 Q666.459 1557.41 666.459 1548.69 Q666.459 1539.94 669.514 1535.35 Q672.593 1530.75 678.403 1530.75 Z" fill="#000000" fill-rule="evenodd" fill-opacity="1" /><path clip-path="url(#clip280)" d="M 0 0 M1154.82 1535.45 L1143.01 1553.89 L1154.82 1553.89 L1154.82 1535.45 M1153.59 1531.37 L1159.47 1531.37 L1159.47 1553.89 L1164.4 1553.89 L1164.4 1557.78 L1159.47 1557.78 L1159.47 1565.93 L1154.82 1565.93 L1154.82 1557.78 L1139.22 1557.78 L1139.22 1553.27 L1153.59 1531.37 Z" fill="#000000" fill-rule="evenodd" fill-opacity="1" /><path clip-path="url(#clip280)" d="M 0 0 M1179.47 1534.45 Q1175.86 1534.45 1174.03 1538.02 Q1172.23 1541.56 1172.23 1548.69 Q1172.23 1555.79 1174.03 1559.36 Q1175.86 1562.9 1179.47 1562.9 Q1183.11 1562.9 1184.91 1559.36 Q1186.74 1555.79 1186.74 1548.69 Q1186.74 1541.56 1184.91 1538.02 Q1183.11 1534.45 1179.47 1534.45 M1179.47 1530.75 Q1185.28 1530.75 1188.34 1535.35 Q1191.42 1539.94 1191.42 1548.69 Q1191.42 1557.41 1188.34 1562.02 Q1185.28 1566.6 1179.47 1566.6 Q1173.66 1566.6 1170.58 1562.02 Q1167.53 1557.41 1167.53 1548.69 Q1167.53 1539.94 1170.58 1535.35 Q1173.66 1530.75 1179.47 1530.75 Z" fill="#000000" fill-rule="evenodd" fill-opacity="1" /><path clip-path="url(#clip280)" d="M 0 0 M1651.66 1546.79 Q1648.52 1546.79 1646.66 1548.94 Q1644.84 1551.09 1644.84 1554.84 Q1644.84 1558.57 1646.66 1560.75 Q1648.52 1562.9 1651.66 1562.9 Q1654.81 1562.9 1656.64 1560.75 Q1658.49 1558.57 1658.49 1554.84 Q1658.49 1551.09 1656.64 1548.94 Q1654.81 1546.79 1651.66 1546.79 M1660.95 1532.14 L1660.95 1536.39 Q1659.19 1535.56 1657.38 1535.12 Q1655.6 1534.68 1653.84 1534.68 Q1649.21 1534.68 1646.76 1537.81 Q1644.33 1540.93 1643.98 1547.25 Q1645.34 1545.24 1647.4 1544.17 Q1649.46 1543.08 1651.94 1543.08 Q1657.15 1543.08 1660.16 1546.26 Q1663.19 1549.4 1663.19 1554.84 Q1663.19 1560.17 1660.04 1563.39 Q1656.9 1566.6 1651.66 1566.6 Q1645.67 1566.6 1642.5 1562.02 Q1639.33 1557.41 1639.33 1548.69 Q1639.33 1540.49 1643.21 1535.63 Q1647.1 1530.75 1653.65 1530.75 Q1655.41 1530.75 1657.2 1531.09 Q1659 1531.44 1660.95 1532.14 Z" fill="#000000" fill-rule="evenodd" fill-opacity="1" /><path clip-path="url(#clip280)" d="M 0 0 M1678.26 1534.45 Q1674.65 1534.45 1672.82 1538.02 Q1671.02 1541.56 1671.02 1548.69 Q1671.02 1555.79 1672.82 1559.36 Q1674.65 1562.9 1678.26 1562.9 Q1681.9 1562.9 1683.7 1559.36 Q1685.53 1555.79 1685.53 1548.69 Q1685.53 1541.56 1683.7 1538.02 Q1681.9 1534.45 1678.26 1534.45 M1678.26 1530.75 Q1684.07 1530.75 1687.13 1535.35 Q1690.21 1539.94 1690.21 1548.69 Q1690.21 1557.41 1687.13 1562.02 Q1684.07 1566.6 1678.26 1566.6 Q1672.45 1566.6 1669.37 1562.02 Q1666.32 1557.41 1666.32 1548.69 Q1666.32 1539.94 1669.37 1535.35 Q1672.45 1530.75 1678.26 1530.75 Z" fill="#000000" fill-rule="evenodd" fill-opacity="1" /><path clip-path="url(#clip280)" d="M 0 0 M2150.71 1549.52 Q2147.37 1549.52 2145.45 1551.3 Q2143.55 1553.08 2143.55 1556.21 Q2143.55 1559.33 2145.45 1561.12 Q2147.37 1562.9 2150.71 1562.9 Q2154.04 1562.9 2155.96 1561.12 Q2157.88 1559.31 2157.88 1556.21 Q2157.88 1553.08 2155.96 1551.3 Q2154.06 1549.52 2150.71 1549.52 M2146.03 1547.53 Q2143.02 1546.79 2141.33 1544.73 Q2139.67 1542.67 2139.67 1539.71 Q2139.67 1535.56 2142.61 1533.15 Q2145.57 1530.75 2150.71 1530.75 Q2155.87 1530.75 2158.81 1533.15 Q2161.75 1535.56 2161.75 1539.71 Q2161.75 1542.67 2160.06 1544.73 Q2158.39 1546.79 2155.41 1547.53 Q2158.79 1548.32 2160.66 1550.61 Q2162.56 1552.9 2162.56 1556.21 Q2162.56 1561.23 2159.48 1563.92 Q2156.42 1566.6 2150.71 1566.6 Q2144.99 1566.6 2141.91 1563.92 Q2138.86 1561.23 2138.86 1556.21 Q2138.86 1552.9 2140.75 1550.61 Q2142.65 1548.32 2146.03 1547.53 M2144.32 1540.14 Q2144.32 1542.83 2145.99 1544.33 Q2147.67 1545.84 2150.71 1545.84 Q2153.72 1545.84 2155.41 1544.33 Q2157.12 1542.83 2157.12 1540.14 Q2157.12 1537.46 2155.41 1535.96 Q2153.72 1534.45 2150.71 1534.45 Q2147.67 1534.45 2145.99 1535.96 Q2144.32 1537.46 2144.32 1540.14 Z" fill="#000000" fill-rule="evenodd" fill-opacity="1" /><path clip-path="url(#clip280)" d="M 0 0 M2177.63 1534.45 Q2174.02 1534.45 2172.19 1538.02 Q2170.38 1541.56 2170.38 1548.69 Q2170.38 1555.79 2172.19 1559.36 Q2174.02 1562.9 2177.63 1562.9 Q2181.26 1562.9 2183.07 1559.36 Q2184.9 1555.79 2184.9 1548.69 Q2184.9 1541.56 2183.07 1538.02 Q2181.26 1534.45 2177.63 1534.45 M2177.63 1530.75 Q2183.44 1530.75 2186.49 1535.35 Q2189.57 1539.94 2189.57 1548.69 Q2189.57 1557.41 2186.49 1562.02 Q2183.44 1566.6 2177.63 1566.6 Q2171.82 1566.6 2168.74 1562.02 Q2165.68 1557.41 2165.68 1548.69 Q2165.68 1539.94 2168.74 1535.35 Q2171.82 1530.75 2177.63 1530.75 Z" fill="#000000" fill-rule="evenodd" fill-opacity="1" /><path clip-path="url(#clip280)" d="M 0 0 M1178.03 1608.94 L1169.31 1632.59 L1186.78 1632.59 L1178.03 1608.94 M1174.4 1602.6 L1181.69 1602.6 L1199.8 1650.12 L1193.12 1650.12 L1188.79 1637.93 L1167.37 1637.93 L1163.04 1650.12 L1156.26 1650.12 L1174.4 1602.6 Z" fill="#000000" fill-rule="evenodd" fill-opacity="1" /><path clip-path="url(#clip280)" d="M 0 0 M1205.95 1600.6 L1211.8 1600.6 L1211.8 1650.12 L1205.95 1650.12 L1205.95 1600.6 Z" fill="#000000" fill-rule="evenodd" fill-opacity="1" /><path clip-path="url(#clip280)" d="M 0 0 M1223.74 1604.35 L1223.74 1614.48 L1235.8 1614.48 L1235.8 1619.03 L1223.74 1619.03 L1223.74 1638.38 Q1223.74 1642.74 1224.92 1643.98 Q1226.12 1645.22 1229.79 1645.22 L1235.8 1645.22 L1235.8 1650.12 L1229.79 1650.12 Q1223.01 1650.12 1220.43 1647.61 Q1217.85 1645.06 1217.85 1638.38 L1217.85 1619.03 L1213.55 1619.03 L1213.55 1614.48 L1217.85 1614.48 L1217.85 1604.35 L1223.74 1604.35 Z" fill="#000000" fill-rule="evenodd" fill-opacity="1" /><path clip-path="url(#clip280)" d="M 0 0 M1272.44 1630.84 L1272.44 1633.7 L1245.51 1633.7 Q1245.89 1639.75 1249.14 1642.93 Q1252.42 1646.08 1258.24 1646.08 Q1261.61 1646.08 1264.76 1645.25 Q1267.95 1644.43 1271.07 1642.77 L1271.07 1648.31 Q1267.92 1649.65 1264.61 1650.35 Q1261.3 1651.05 1257.89 1651.05 Q1249.36 1651.05 1244.36 1646.08 Q1239.4 1641.12 1239.4 1632.65 Q1239.4 1623.9 1244.11 1618.77 Q1248.85 1613.62 1256.87 1613.62 Q1264.06 1613.62 1268.23 1618.26 Q1272.44 1622.88 1272.44 1630.84 M1266.58 1629.12 Q1266.52 1624.31 1263.87 1621.45 Q1261.26 1618.58 1256.93 1618.58 Q1252.03 1618.58 1249.07 1621.35 Q1246.14 1624.12 1245.7 1629.15 L1266.58 1629.12 Z" fill="#000000" fill-rule="evenodd" fill-opacity="1" /><path clip-path="url(#clip280)" d="M 0 0 M1299.23 1619.95 Q1298.25 1619.38 1297.07 1619.12 Q1295.92 1618.84 1294.52 1618.84 Q1289.56 1618.84 1286.89 1622.08 Q1284.24 1625.3 1284.24 1631.35 L1284.24 1650.12 L1278.36 1650.12 L1278.36 1614.48 L1284.24 1614.48 L1284.24 1620.01 Q1286.09 1616.77 1289.05 1615.21 Q1292.01 1613.62 1296.24 1613.62 Q1296.85 1613.62 1297.58 1613.71 Q1298.31 1613.78 1299.2 1613.93 L1299.23 1619.95 Z" fill="#000000" fill-rule="evenodd" fill-opacity="1" /><polyline clip-path="url(#clip282)" style="stroke:#000000; stroke-width:2; stroke-opacity:0.1; fill:none" points="
  102.74,1476.84 2352.76,1476.84 
  "/>
<polyline clip-path="url(#clip282)" style="stroke:#000000; stroke-width:2; stroke-opacity:0.1; fill:none" points="
  102.74,1150.6 2352.76,1150.6 
  "/>
<polyline clip-path="url(#clip282)" style="stroke:#000000; stroke-width:2; stroke-opacity:0.1; fill:none" points="
  102.74,824.36 2352.76,824.36 
  "/>
<polyline clip-path="url(#clip282)" style="stroke:#000000; stroke-width:2; stroke-opacity:0.1; fill:none" points="
  102.74,498.123 2352.76,498.123 
  "/>
<polyline clip-path="url(#clip282)" style="stroke:#000000; stroke-width:2; stroke-opacity:0.1; fill:none" points="
  102.74,171.885 2352.76,171.885 
  "/>
<polyline clip-path="url(#clip280)" style="stroke:#000000; stroke-width:4; stroke-opacity:1; fill:none" points="
  102.74,1505.26 102.74,62.9921 
  "/>
<polyline clip-path="url(#clip280)" style="stroke:#000000; stroke-width:4; stroke-opacity:1; fill:none" points="
  102.74,1476.84 129.74,1476.84 
  "/>
<polyline clip-path="url(#clip280)" style="stroke:#000000; stroke-width:4; stroke-opacity:1; fill:none" points="
  102.74,1150.6 129.74,1150.6 
  "/>
<polyline clip-path="url(#clip280)" style="stroke:#000000; stroke-width:4; stroke-opacity:1; fill:none" points="
  102.74,824.36 129.74,824.36 
  "/>
<polyline clip-path="url(#clip280)" style="stroke:#000000; stroke-width:4; stroke-opacity:1; fill:none" points="
  102.74,498.123 129.74,498.123 
  "/>
<polyline clip-path="url(#clip280)" style="stroke:#000000; stroke-width:4; stroke-opacity:1; fill:none" points="
  102.74,171.885 129.74,171.885 
  "/>
<path clip-path="url(#clip280)" d="M 0 0 M17.8284 1462.63 Q14.2173 1462.63 12.3886 1466.2 Q10.5831 1469.74 10.5831 1476.87 Q10.5831 1483.98 12.3886 1487.54 Q14.2173 1491.08 17.8284 1491.08 Q21.4626 1491.08 23.2682 1487.54 Q25.0969 1483.98 25.0969 1476.87 Q25.0969 1469.74 23.2682 1466.2 Q21.4626 1462.63 17.8284 1462.63 M17.8284 1458.93 Q23.6385 1458.93 26.6941 1463.54 Q29.7728 1468.12 29.7728 1476.87 Q29.7728 1485.6 26.6941 1490.2 Q23.6385 1494.79 17.8284 1494.79 Q12.0182 1494.79 8.93954 1490.2 Q5.884 1485.6 5.884 1476.87 Q5.884 1468.12 8.93954 1463.54 Q12.0182 1458.93 17.8284 1458.93 Z" fill="#000000" fill-rule="evenodd" fill-opacity="1" /><path clip-path="url(#clip280)" d="M 0 0 M34.8422 1488.24 L39.7264 1488.24 L39.7264 1494.12 L34.8422 1494.12 L34.8422 1488.24 Z" fill="#000000" fill-rule="evenodd" fill-opacity="1" /><path clip-path="url(#clip280)" d="M 0 0 M54.7958 1462.63 Q51.1847 1462.63 49.356 1466.2 Q47.5504 1469.74 47.5504 1476.87 Q47.5504 1483.98 49.356 1487.54 Q51.1847 1491.08 54.7958 1491.08 Q58.43 1491.08 60.2356 1487.54 Q62.0643 1483.98 62.0643 1476.87 Q62.0643 1469.74 60.2356 1466.2 Q58.43 1462.63 54.7958 1462.63 M54.7958 1458.93 Q60.6059 1458.93 63.6615 1463.54 Q66.7402 1468.12 66.7402 1476.87 Q66.7402 1485.6 63.6615 1490.2 Q60.6059 1494.79 54.7958 1494.79 Q48.9856 1494.79 45.9069 1490.2 Q42.8514 1485.6 42.8514 1476.87 Q42.8514 1468.12 45.9069 1463.54 Q48.9856 1458.93 54.7958 1458.93 Z" fill="#000000" fill-rule="evenodd" fill-opacity="1" /><path clip-path="url(#clip280)" d="M 0 0 M19.4256 1136.4 Q15.8145 1136.4 13.9858 1139.96 Q12.1803 1143.5 12.1803 1150.63 Q12.1803 1157.74 13.9858 1161.3 Q15.8145 1164.85 19.4256 1164.85 Q23.0598 1164.85 24.8654 1161.3 Q26.6941 1157.74 26.6941 1150.63 Q26.6941 1143.5 24.8654 1139.96 Q23.0598 1136.4 19.4256 1136.4 M19.4256 1132.69 Q25.2358 1132.69 28.2913 1137.3 Q31.37 1141.88 31.37 1150.63 Q31.37 1159.36 28.2913 1163.97 Q25.2358 1168.55 19.4256 1168.55 Q13.6154 1168.55 10.5368 1163.97 Q7.48122 1159.36 7.48122 1150.63 Q7.48122 1141.88 10.5368 1137.3 Q13.6154 1132.69 19.4256 1132.69 Z" fill="#000000" fill-rule="evenodd" fill-opacity="1" /><path clip-path="url(#clip280)" d="M 0 0 M36.4394 1162 L41.3236 1162 L41.3236 1167.88 L36.4394 1167.88 L36.4394 1162 Z" fill="#000000" fill-rule="evenodd" fill-opacity="1" /><path clip-path="url(#clip280)" d="M 0 0 M50.4208 1163.94 L66.7402 1163.94 L66.7402 1167.88 L44.7958 1167.88 L44.7958 1163.94 Q47.4579 1161.19 52.0412 1156.56 Q56.6476 1151.91 57.8282 1150.56 Q60.0735 1148.04 60.9532 1146.3 Q61.8559 1144.54 61.8559 1142.86 Q61.8559 1140.1 59.9115 1138.36 Q57.9902 1136.63 54.8884 1136.63 Q52.6893 1136.63 50.2356 1137.39 Q47.8051 1138.16 45.0273 1139.71 L45.0273 1134.98 Q47.8514 1133.85 50.3051 1133.27 Q52.7588 1132.69 54.7958 1132.69 Q60.1661 1132.69 63.3605 1135.38 Q66.555 1138.06 66.555 1142.55 Q66.555 1144.68 65.7448 1146.61 Q64.9578 1148.5 62.8513 1151.1 Q62.2726 1151.77 59.1708 1154.98 Q56.0689 1158.18 50.4208 1163.94 Z" fill="#000000" fill-rule="evenodd" fill-opacity="1" /><path clip-path="url(#clip280)" d="M 0 0 M17.3423 810.159 Q13.7312 810.159 11.9025 813.724 Q10.0969 817.266 10.0969 824.395 Q10.0969 831.502 11.9025 835.066 Q13.7312 838.608 17.3423 838.608 Q20.9765 838.608 22.7821 835.066 Q24.6108 831.502 24.6108 824.395 Q24.6108 817.266 22.7821 813.724 Q20.9765 810.159 17.3423 810.159 M17.3423 806.455 Q23.1524 806.455 26.208 811.062 Q29.2867 815.645 29.2867 824.395 Q29.2867 833.122 26.208 837.728 Q23.1524 842.312 17.3423 842.312 Q11.5321 842.312 8.45343 837.728 Q5.39789 833.122 5.39789 824.395 Q5.39789 815.645 8.45343 811.062 Q11.5321 806.455 17.3423 806.455 Z" fill="#000000" fill-rule="evenodd" fill-opacity="1" /><path clip-path="url(#clip280)" d="M 0 0 M34.3561 835.761 L39.2403 835.761 L39.2403 841.64 L34.3561 841.64 L34.3561 835.761 Z" fill="#000000" fill-rule="evenodd" fill-opacity="1" /><path clip-path="url(#clip280)" d="M 0 0 M57.1569 811.155 L45.3514 829.603 L57.1569 829.603 L57.1569 811.155 M55.93 807.08 L61.8096 807.08 L61.8096 829.603 L66.7402 829.603 L66.7402 833.492 L61.8096 833.492 L61.8096 841.64 L57.1569 841.64 L57.1569 833.492 L41.5551 833.492 L41.5551 828.978 L55.93 807.08 Z" fill="#000000" fill-rule="evenodd" fill-opacity="1" /><path clip-path="url(#clip280)" d="M 0 0 M17.6663 483.921 Q14.0553 483.921 12.2266 487.486 Q10.421 491.028 10.421 498.158 Q10.421 505.264 12.2266 508.829 Q14.0553 512.37 17.6663 512.37 Q21.3006 512.37 23.1061 508.829 Q24.9348 505.264 24.9348 498.158 Q24.9348 491.028 23.1061 487.486 Q21.3006 483.921 17.6663 483.921 M17.6663 480.218 Q23.4765 480.218 26.532 484.824 Q29.6107 489.408 29.6107 498.158 Q29.6107 506.884 26.532 511.491 Q23.4765 516.074 17.6663 516.074 Q11.8562 516.074 8.77751 511.491 Q5.72197 506.884 5.72197 498.158 Q5.72197 489.408 8.77751 484.824 Q11.8562 480.218 17.6663 480.218 Z" fill="#000000" fill-rule="evenodd" fill-opacity="1" /><path clip-path="url(#clip280)" d="M 0 0 M34.6801 509.523 L39.5644 509.523 L39.5644 515.403 L34.6801 515.403 L34.6801 509.523 Z" fill="#000000" fill-rule="evenodd" fill-opacity="1" /><path clip-path="url(#clip280)" d="M 0 0 M55.2124 496.259 Q52.0643 496.259 50.2125 498.412 Q48.3838 500.565 48.3838 504.315 Q48.3838 508.042 50.2125 510.218 Q52.0643 512.37 55.2124 512.37 Q58.3606 512.37 60.1893 510.218 Q62.0411 508.042 62.0411 504.315 Q62.0411 500.565 60.1893 498.412 Q58.3606 496.259 55.2124 496.259 M64.4948 481.607 L64.4948 485.866 Q62.7355 485.033 60.93 484.593 Q59.1476 484.153 57.3884 484.153 Q52.7588 484.153 50.3051 487.278 Q47.8745 490.403 47.5273 496.722 Q48.893 494.708 50.9532 493.644 Q53.0134 492.556 55.4902 492.556 Q60.6985 492.556 63.7078 495.727 Q66.7402 498.875 66.7402 504.315 Q66.7402 509.639 63.592 512.857 Q60.4439 516.074 55.2124 516.074 Q49.2171 516.074 46.0458 511.491 Q42.8745 506.884 42.8745 498.158 Q42.8745 489.963 46.7634 485.102 Q50.6523 480.218 57.2032 480.218 Q58.9624 480.218 60.7448 480.565 Q62.5504 480.912 64.4948 481.607 Z" fill="#000000" fill-rule="evenodd" fill-opacity="1" /><path clip-path="url(#clip280)" d="M 0 0 M17.921 157.684 Q14.3099 157.684 12.4812 161.249 Q10.6756 164.79 10.6756 171.92 Q10.6756 179.026 12.4812 182.591 Q14.3099 186.133 17.921 186.133 Q21.5552 186.133 23.3608 182.591 Q25.1895 179.026 25.1895 171.92 Q25.1895 164.79 23.3608 161.249 Q21.5552 157.684 17.921 157.684 M17.921 153.98 Q23.7311 153.98 26.7867 158.587 Q29.8654 163.17 29.8654 171.92 Q29.8654 180.647 26.7867 185.253 Q23.7311 189.836 17.921 189.836 Q12.1108 189.836 9.03213 185.253 Q5.97659 180.647 5.97659 171.92 Q5.97659 163.17 9.03213 158.587 Q12.1108 153.98 17.921 153.98 Z" fill="#000000" fill-rule="evenodd" fill-opacity="1" /><path clip-path="url(#clip280)" d="M 0 0 M34.9348 183.286 L39.819 183.286 L39.819 189.165 L34.9348 189.165 L34.9348 183.286 Z" fill="#000000" fill-rule="evenodd" fill-opacity="1" /><path clip-path="url(#clip280)" d="M 0 0 M54.8884 172.753 Q51.5551 172.753 49.6338 174.536 Q47.7356 176.318 47.7356 179.443 Q47.7356 182.568 49.6338 184.35 Q51.5551 186.133 54.8884 186.133 Q58.2217 186.133 60.143 184.35 Q62.0643 182.545 62.0643 179.443 Q62.0643 176.318 60.143 174.536 Q58.2448 172.753 54.8884 172.753 M50.2125 170.762 Q47.2032 170.022 45.5134 167.962 Q43.8468 165.901 43.8468 162.938 Q43.8468 158.795 46.7866 156.388 Q49.7495 153.98 54.8884 153.98 Q60.0504 153.98 62.9902 156.388 Q65.93 158.795 65.93 162.938 Q65.93 165.901 64.2402 167.962 Q62.5735 170.022 59.5874 170.762 Q62.967 171.549 64.842 173.841 Q66.7402 176.133 66.7402 179.443 Q66.7402 184.466 63.6615 187.151 Q60.6059 189.836 54.8884 189.836 Q49.1708 189.836 46.0921 187.151 Q43.0366 184.466 43.0366 179.443 Q43.0366 176.133 44.9347 173.841 Q46.8329 171.549 50.2125 170.762 M48.4995 163.378 Q48.4995 166.063 50.1662 167.568 Q51.856 169.073 54.8884 169.073 Q57.8976 169.073 59.5874 167.568 Q61.3004 166.063 61.3004 163.378 Q61.3004 160.693 59.5874 159.188 Q57.8976 157.684 54.8884 157.684 Q51.856 157.684 50.1662 159.188 Q48.4995 160.693 48.4995 163.378 Z" fill="#000000" fill-rule="evenodd" fill-opacity="1" /><path clip-path="url(#clip280)" d="M 0 0 M-65.7695 961.554 Q-65.7695 964.323 -63.4141 965.915 Q-61.0588 967.474 -56.8575 967.474 Q-52.7198 967.474 -50.3326 965.915 Q-47.9773 964.323 -47.9773 961.554 Q-47.9773 958.849 -50.3326 957.289 Q-52.7198 955.698 -56.8575 955.698 Q-61.027 955.698 -63.3823 957.289 Q-65.7695 958.849 -65.7695 961.554 M-69.8117 961.554 Q-69.8117 956.525 -66.3105 953.565 Q-62.8094 950.605 -56.8575 950.605 Q-50.9055 950.605 -47.4044 953.597 Q-43.9351 956.557 -43.9351 961.554 Q-43.9351 966.647 -47.4044 969.607 Q-50.9055 972.567 -56.8575 972.567 Q-62.8412 972.567 -66.3105 969.607 Q-69.8117 966.615 -69.8117 961.554 M-89.1953 994.401 Q-89.1953 997.138 -86.8081 998.73 Q-84.4528 1000.29 -80.3151 1000.29 Q-76.1137 1000.29 -73.7584 998.73 Q-71.4031 997.17 -71.4031 994.401 Q-71.4031 991.632 -73.7584 990.073 Q-76.1137 988.481 -80.3151 988.481 Q-84.421 988.481 -86.8081 990.073 Q-89.1953 991.664 -89.1953 994.401 M-93.2375 965.66 L-93.2375 960.567 L-43.9351 990.295 L-43.9351 995.388 L-93.2375 965.66 M-93.2375 994.401 Q-93.2375 989.372 -89.7363 986.38 Q-86.267 983.389 -80.3151 983.389 Q-74.2995 983.389 -70.8302 986.38 Q-67.3609 989.34 -67.3609 994.401 Q-67.3609 999.462 -70.8302 1002.42 Q-74.3313 1005.35 -80.3151 1005.35 Q-86.2352 1005.35 -89.7363 1002.39 Q-93.2375 999.43 -93.2375 994.401 Z" fill="#000000" fill-rule="evenodd" fill-opacity="1" /><path clip-path="url(#clip280)" d="M 0 0 M-67.5519 917.058 L-50.1416 917.058 L-50.1416 906.745 Q-50.1416 901.557 -52.2742 899.075 Q-54.4385 896.56 -58.8627 896.56 Q-63.3187 896.56 -65.4193 899.075 Q-67.5519 901.557 -67.5519 906.745 L-67.5519 917.058 M-87.0946 917.058 L-72.7717 917.058 L-72.7717 907.541 Q-72.7717 902.83 -74.5223 900.539 Q-76.3047 898.215 -79.9331 898.215 Q-83.5298 898.215 -85.3122 900.539 Q-87.0946 902.83 -87.0946 907.541 L-87.0946 917.058 M-92.3781 923.487 L-92.3781 907.064 Q-92.3781 899.711 -89.3226 895.733 Q-86.267 891.754 -80.6334 891.754 Q-76.2729 891.754 -73.6948 893.791 Q-71.1166 895.828 -70.4801 899.775 Q-69.4616 895.033 -66.2151 892.423 Q-63.0004 889.781 -58.1624 889.781 Q-51.7967 889.781 -48.3274 894.109 Q-44.8581 898.438 -44.8581 906.427 L-44.8581 923.487 L-92.3781 923.487 Z" fill="#000000" fill-rule="evenodd" fill-opacity="1" /><path clip-path="url(#clip280)" d="M 0 0 M-64.1462 853.146 L-61.2816 853.146 L-61.2816 880.073 Q-55.2342 879.691 -52.0514 876.445 Q-48.9003 873.166 -48.9003 867.342 Q-48.9003 863.968 -49.7279 860.817 Q-50.5554 857.634 -52.2105 854.515 L-46.6723 854.515 Q-45.3355 857.666 -44.6353 860.976 Q-43.9351 864.286 -43.9351 867.692 Q-43.9351 876.222 -48.9003 881.219 Q-53.8656 886.184 -62.332 886.184 Q-71.0848 886.184 -76.2092 881.474 Q-81.3654 876.731 -81.3654 868.71 Q-81.3654 861.517 -76.7185 857.348 Q-72.1033 853.146 -64.1462 853.146 M-65.8649 859.003 Q-70.671 859.066 -73.5356 861.708 Q-76.4002 864.318 -76.4002 868.647 Q-76.4002 873.548 -73.6311 876.508 Q-70.862 879.437 -65.8331 879.882 L-65.8649 859.003 Z" fill="#000000" fill-rule="evenodd" fill-opacity="1" /><path clip-path="url(#clip280)" d="M 0 0 M-80.5061 851.205 L-80.5061 844.998 L-50.5872 833.858 L-80.5061 822.718 L-80.5061 816.512 L-44.8581 829.88 L-44.8581 837.837 L-80.5061 851.205 Z" fill="#000000" fill-rule="evenodd" fill-opacity="1" /><path clip-path="url(#clip280)" d="M 0 0 M-76.4002 796.555 Q-76.4002 801.266 -72.7081 804.003 Q-69.0478 806.74 -62.6503 806.74 Q-56.2527 806.74 -52.5606 804.035 Q-48.9003 801.297 -48.9003 796.555 Q-48.9003 791.876 -52.5924 789.139 Q-56.2845 786.402 -62.6503 786.402 Q-68.9841 786.402 -72.6762 789.139 Q-76.4002 791.876 -76.4002 796.555 M-81.3654 796.555 Q-81.3654 788.916 -76.4002 784.556 Q-71.4349 780.195 -62.6503 780.195 Q-53.8974 780.195 -48.9003 784.556 Q-43.9351 788.916 -43.9351 796.555 Q-43.9351 804.226 -48.9003 808.586 Q-53.8974 812.915 -62.6503 812.915 Q-71.4349 812.915 -76.4002 808.586 Q-81.3654 804.226 -81.3654 796.555 M-94.256 793.563 L-94.256 787.102 L-87.8266 787.102 L-87.8266 793.563 L-94.256 793.563 M-94.256 806.008 L-94.256 799.547 L-87.8266 799.547 L-87.8266 806.008 L-94.256 806.008 Z" fill="#000000" fill-rule="evenodd" fill-opacity="1" /><path clip-path="url(#clip280)" d="M 0 0 M-94.3833 774.052 L-94.3833 768.196 L-44.8581 768.196 L-44.8581 774.052 L-94.3833 774.052 Z" fill="#000000" fill-rule="evenodd" fill-opacity="1" /><path clip-path="url(#clip280)" d="M 0 0 M-94.3833 762.276 L-94.3833 756.387 L-65.1329 756.387 L-80.5061 738.914 L-80.5061 731.434 L-63.8279 750.34 L-44.8581 730.638 L-44.8581 738.277 L-62.2683 756.387 L-44.8581 756.387 L-44.8581 762.276 L-94.3833 762.276 Z" fill="#000000" fill-rule="evenodd" fill-opacity="1" /><path clip-path="url(#clip280)" d="M 0 0 M-64.1462 696.327 L-61.2816 696.327 L-61.2816 723.254 Q-55.2342 722.872 -52.0514 719.625 Q-48.9003 716.347 -48.9003 710.523 Q-48.9003 707.149 -49.7279 703.998 Q-50.5554 700.815 -52.2105 697.696 L-46.6723 697.696 Q-45.3355 700.847 -44.6353 704.157 Q-43.9351 707.467 -43.9351 710.873 Q-43.9351 719.403 -48.9003 724.4 Q-53.8656 729.365 -62.332 729.365 Q-71.0848 729.365 -76.2092 724.654 Q-81.3654 719.912 -81.3654 711.891 Q-81.3654 704.698 -76.7185 700.528 Q-72.1033 696.327 -64.1462 696.327 M-65.8649 702.183 Q-70.671 702.247 -73.5356 704.889 Q-76.4002 707.499 -76.4002 711.827 Q-76.4002 716.729 -73.6311 719.689 Q-70.862 722.617 -65.8331 723.063 L-65.8649 702.183 Z" fill="#000000" fill-rule="evenodd" fill-opacity="1" /><path clip-path="url(#clip280)" d="M 0 0 M-75.0316 669.527 Q-75.6045 670.514 -75.8591 671.692 Q-76.1456 672.838 -76.1456 674.238 Q-76.1456 679.203 -72.899 681.877 Q-69.6844 684.519 -63.6369 684.519 L-44.8581 684.519 L-44.8581 690.407 L-80.5061 690.407 L-80.5061 684.519 L-74.9679 684.519 Q-78.2144 682.673 -79.774 679.712 Q-81.3654 676.752 -81.3654 672.519 Q-81.3654 671.914 -81.2699 671.182 Q-81.2063 670.45 -81.0471 669.559 L-75.0316 669.527 Z" fill="#000000" fill-rule="evenodd" fill-opacity="1" /><path clip-path="url(#clip280)" d="M 0 0 M-58.9263 663.989 L-80.5061 663.989 L-80.5061 658.133 L-59.1491 658.133 Q-54.0884 658.133 -51.5421 656.159 Q-49.0276 654.186 -49.0276 650.239 Q-49.0276 645.497 -52.0514 642.76 Q-55.0751 639.99 -60.2949 639.99 L-80.5061 639.99 L-80.5061 634.134 L-44.8581 634.134 L-44.8581 639.99 L-50.3326 639.99 Q-47.0861 642.123 -45.4947 644.956 Q-43.9351 647.757 -43.9351 651.481 Q-43.9351 657.623 -47.7545 660.806 Q-51.5739 663.989 -58.9263 663.989 M-81.3654 649.253 L-81.3654 649.253 Z" fill="#000000" fill-rule="evenodd" fill-opacity="1" /><path clip-path="url(#clip280)" d="M 0 0 M-66.3742 598.359 L-44.8581 598.359 L-44.8581 604.215 L-66.1832 604.215 Q-71.244 604.215 -73.7584 606.189 Q-76.2729 608.162 -76.2729 612.109 Q-76.2729 616.851 -73.2492 619.588 Q-70.2254 622.326 -65.0056 622.326 L-44.8581 622.326 L-44.8581 628.214 L-80.5061 628.214 L-80.5061 622.326 L-74.9679 622.326 Q-78.1826 620.225 -79.774 617.392 Q-81.3654 614.528 -81.3654 610.804 Q-81.3654 604.661 -77.546 601.51 Q-73.7584 598.359 -66.3742 598.359 Z" fill="#000000" fill-rule="evenodd" fill-opacity="1" /><path clip-path="url(#clip280)" d="M 0 0 M-63.0959 568.758 Q-69.4616 568.758 -72.9627 571.4 Q-76.4638 574.01 -76.4638 578.752 Q-76.4638 583.463 -72.9627 586.105 Q-69.4616 588.715 -63.0959 588.715 Q-56.762 588.715 -53.2608 586.105 Q-49.7597 583.463 -49.7597 578.752 Q-49.7597 574.01 -53.2608 571.4 Q-56.762 568.758 -63.0959 568.758 M-49.2823 562.902 Q-40.1793 562.902 -35.7551 566.944 Q-31.2992 570.986 -31.2992 579.325 Q-31.2992 582.413 -31.7766 585.15 Q-32.2222 587.887 -33.177 590.465 L-38.8743 590.465 Q-37.4739 587.887 -36.8055 585.373 Q-36.1371 582.858 -36.1371 580.248 Q-36.1371 574.487 -39.1608 571.623 Q-42.1527 568.758 -48.2319 568.758 L-51.1283 568.758 Q-47.9773 570.572 -46.4177 573.405 Q-44.8581 576.238 -44.8581 580.185 Q-44.8581 586.741 -49.8552 590.752 Q-54.8523 594.762 -63.0959 594.762 Q-71.3713 594.762 -76.3684 590.752 Q-81.3654 586.741 -81.3654 580.185 Q-81.3654 576.238 -79.8058 573.405 Q-78.2462 570.572 -75.0952 568.758 L-80.5061 568.758 L-80.5061 562.902 L-49.2823 562.902 Z" fill="#000000" fill-rule="evenodd" fill-opacity="1" /><path clip-path="url(#clip280)" d="M 0 0 M249.252 43.6931 L249.252 65.8515 L262.377 65.8515 Q268.98 65.8515 272.14 63.1374 Q275.34 60.3828 275.34 54.752 Q275.34 49.0808 272.14 46.4072 Q268.98 43.6931 262.377 43.6931 L249.252 43.6931 M249.252 18.8205 L249.252 37.0496 L261.364 37.0496 Q267.36 37.0496 270.276 34.8216 Q273.233 32.5531 273.233 27.935 Q273.233 23.3575 270.276 21.089 Q267.36 18.8205 261.364 18.8205 L249.252 18.8205 M241.069 12.096 L261.972 12.096 Q271.33 12.096 276.393 15.9849 Q281.457 19.8737 281.457 27.0438 Q281.457 32.5936 278.864 35.8748 Q276.272 39.156 271.249 39.9662 Q277.284 41.2625 280.606 45.3944 Q283.968 49.4858 283.968 55.6432 Q283.968 63.745 278.459 68.1605 Q272.95 72.576 262.782 72.576 L241.069 72.576 L241.069 12.096 Z" fill="#000000" fill-rule="evenodd" fill-opacity="1" /><path clip-path="url(#clip280)" d="M 0 0 M330.594 48.0275 L330.594 51.6733 L296.324 51.6733 Q296.81 59.3701 300.942 63.421 Q305.114 67.4314 312.527 67.4314 Q316.821 67.4314 320.832 66.3781 Q324.882 65.3249 328.852 63.2184 L328.852 70.267 Q324.842 71.9684 320.629 72.8596 Q316.416 73.7508 312.082 73.7508 Q301.225 73.7508 294.865 67.4314 Q288.546 61.1119 288.546 50.3365 Q288.546 39.1965 294.541 32.6746 Q300.577 26.1121 310.785 26.1121 Q319.94 26.1121 325.247 32.0264 Q330.594 37.9003 330.594 48.0275 M323.141 45.84 Q323.06 39.7232 319.697 36.0774 Q316.376 32.4315 310.866 32.4315 Q304.628 32.4315 300.861 35.9558 Q297.134 39.4801 296.567 45.8805 L323.141 45.84 Z" fill="#000000" fill-rule="evenodd" fill-opacity="1" /><path clip-path="url(#clip280)" d="M 0 0 M333.065 27.2059 L340.965 27.2059 L355.143 65.2844 L369.321 27.2059 L377.22 27.2059 L360.206 72.576 L350.079 72.576 L333.065 27.2059 Z" fill="#000000" fill-rule="evenodd" fill-opacity="1" /><path clip-path="url(#clip280)" d="M 0 0 M402.619 32.4315 Q396.624 32.4315 393.14 37.1306 Q389.656 41.7891 389.656 49.9314 Q389.656 58.0738 393.1 62.7728 Q396.584 67.4314 402.619 67.4314 Q408.574 67.4314 412.058 62.7323 Q415.542 58.0333 415.542 49.9314 Q415.542 41.8701 412.058 37.1711 Q408.574 32.4315 402.619 32.4315 M402.619 26.1121 Q412.342 26.1121 417.891 32.4315 Q423.441 38.7509 423.441 49.9314 Q423.441 61.0714 417.891 67.4314 Q412.342 73.7508 402.619 73.7508 Q392.857 73.7508 387.307 67.4314 Q381.798 61.0714 381.798 49.9314 Q381.798 38.7509 387.307 32.4315 Q392.857 26.1121 402.619 26.1121 M406.427 9.70597 L414.651 9.70597 L414.651 17.8888 L406.427 17.8888 L406.427 9.70597 M390.588 9.70597 L398.812 9.70597 L398.812 17.8888 L390.588 17.8888 L390.588 9.70597 Z" fill="#000000" fill-rule="evenodd" fill-opacity="1" /><path clip-path="url(#clip280)" d="M 0 0 M431.259 9.54393 L438.713 9.54393 L438.713 72.576 L431.259 72.576 L431.259 9.54393 Z" fill="#000000" fill-rule="evenodd" fill-opacity="1" /><path clip-path="url(#clip280)" d="M 0 0 M446.248 9.54393 L453.742 9.54393 L453.742 46.7717 L475.981 27.2059 L485.501 27.2059 L461.438 48.4326 L486.514 72.576 L476.791 72.576 L453.742 50.4176 L453.742 72.576 L446.248 72.576 L446.248 9.54393 Z" fill="#000000" fill-rule="evenodd" fill-opacity="1" /><path clip-path="url(#clip280)" d="M 0 0 M530.182 48.0275 L530.182 51.6733 L495.912 51.6733 Q496.398 59.3701 500.53 63.421 Q504.702 67.4314 512.115 67.4314 Q516.409 67.4314 520.42 66.3781 Q524.471 65.3249 528.44 63.2184 L528.44 70.267 Q524.43 71.9684 520.217 72.8596 Q516.004 73.7508 511.67 73.7508 Q500.813 73.7508 494.453 67.4314 Q488.134 61.1119 488.134 50.3365 Q488.134 39.1965 494.129 32.6746 Q500.165 26.1121 510.373 26.1121 Q519.528 26.1121 524.835 32.0264 Q530.182 37.9003 530.182 48.0275 M522.729 45.84 Q522.648 39.7232 519.285 36.0774 Q515.964 32.4315 510.454 32.4315 Q504.216 32.4315 500.449 35.9558 Q496.722 39.4801 496.155 45.8805 L522.729 45.84 Z" fill="#000000" fill-rule="evenodd" fill-opacity="1" /><path clip-path="url(#clip280)" d="M 0 0 M564.291 34.1734 Q563.035 33.4443 561.536 33.1202 Q560.078 32.7556 558.296 32.7556 Q551.976 32.7556 548.573 36.8875 Q545.211 40.9789 545.211 48.6757 L545.211 72.576 L537.717 72.576 L537.717 27.2059 L545.211 27.2059 L545.211 34.2544 Q547.561 30.1225 551.328 28.1376 Q555.095 26.1121 560.483 26.1121 Q561.253 26.1121 562.184 26.2337 Q563.116 26.3147 564.25 26.5172 L564.291 34.1734 Z" fill="#000000" fill-rule="evenodd" fill-opacity="1" /><path clip-path="url(#clip280)" d="M 0 0 M571.34 54.671 L571.34 27.2059 L578.793 27.2059 L578.793 54.3874 Q578.793 60.8284 581.305 64.0691 Q583.816 67.2693 588.839 67.2693 Q594.875 67.2693 598.359 63.421 Q601.883 59.5726 601.883 52.9291 L601.883 27.2059 L609.337 27.2059 L609.337 72.576 L601.883 72.576 L601.883 65.6084 Q599.169 69.7404 595.564 71.7658 Q591.999 73.7508 587.26 73.7508 Q579.441 73.7508 575.39 68.8897 Q571.34 64.0286 571.34 54.671 M590.095 26.1121 L590.095 26.1121 Z" fill="#000000" fill-rule="evenodd" fill-opacity="1" /><path clip-path="url(#clip280)" d="M 0 0 M654.869 45.1919 L654.869 72.576 L647.415 72.576 L647.415 45.4349 Q647.415 38.994 644.904 35.7938 Q642.392 32.5936 637.369 32.5936 Q631.333 32.5936 627.85 36.4419 Q624.366 40.2903 624.366 46.9338 L624.366 72.576 L616.872 72.576 L616.872 27.2059 L624.366 27.2059 L624.366 34.2544 Q627.039 30.163 630.645 28.1376 Q634.291 26.1121 639.03 26.1121 Q646.848 26.1121 650.859 30.9732 Q654.869 35.7938 654.869 45.1919 Z" fill="#000000" fill-rule="evenodd" fill-opacity="1" /><path clip-path="url(#clip280)" d="M 0 0 M692.543 49.3643 Q692.543 41.2625 689.18 36.8065 Q685.859 32.3505 679.823 32.3505 Q673.827 32.3505 670.465 36.8065 Q667.143 41.2625 667.143 49.3643 Q667.143 57.4256 670.465 61.8816 Q673.827 66.3376 679.823 66.3376 Q685.859 66.3376 689.18 61.8816 Q692.543 57.4256 692.543 49.3643 M699.996 66.9452 Q699.996 78.5308 694.852 84.1616 Q689.707 89.8329 679.094 89.8329 Q675.164 89.8329 671.68 89.2252 Q668.197 88.6581 664.915 87.4428 L664.915 80.1917 Q668.197 81.9741 671.397 82.8248 Q674.597 83.6755 677.919 83.6755 Q685.251 83.6755 688.897 79.8271 Q692.543 76.0193 692.543 68.282 L692.543 64.5957 Q690.234 68.6061 686.628 70.5911 Q683.023 72.576 678 72.576 Q669.655 72.576 664.551 66.2161 Q659.447 59.8562 659.447 49.3643 Q659.447 38.832 664.551 32.472 Q669.655 26.1121 678 26.1121 Q683.023 26.1121 686.628 28.0971 Q690.234 30.082 692.543 34.0924 L692.543 27.2059 L699.996 27.2059 L699.996 66.9452 Z" fill="#000000" fill-rule="evenodd" fill-opacity="1" /><path clip-path="url(#clip280)" d="M 0 0 M736.738 28.5427 L736.738 35.5912 Q733.578 33.9709 730.175 33.1607 Q726.773 32.3505 723.127 32.3505 Q717.577 32.3505 714.782 34.0519 Q712.027 35.7533 712.027 39.156 Q712.027 41.7486 714.012 43.2475 Q715.997 44.7058 721.993 46.0426 L724.545 46.6097 Q732.484 48.3111 735.806 51.4303 Q739.168 54.509 739.168 60.0587 Q739.168 66.3781 734.145 70.0644 Q729.163 73.7508 720.413 73.7508 Q716.767 73.7508 712.797 73.0216 Q708.868 72.3329 704.493 70.9151 L704.493 63.2184 Q708.625 65.3654 712.635 66.4591 Q716.645 67.5124 720.575 67.5124 Q725.841 67.5124 728.677 65.73 Q731.512 63.9071 731.512 60.6258 Q731.512 57.5877 729.446 55.9673 Q727.421 54.3469 720.494 52.8481 L717.901 52.2405 Q710.974 50.7821 707.895 47.7845 Q704.817 44.7463 704.817 39.4801 Q704.817 33.0797 709.354 29.5959 Q713.891 26.1121 722.236 26.1121 Q726.368 26.1121 730.013 26.7198 Q733.659 27.3274 736.738 28.5427 Z" fill="#000000" fill-rule="evenodd" fill-opacity="1" /><path clip-path="url(#clip280)" d="M 0 0 M767.606 49.7694 Q758.572 49.7694 755.089 51.8354 Q751.605 53.9013 751.605 58.8839 Q751.605 62.8538 754.197 65.2034 Q756.83 67.5124 761.327 67.5124 Q767.525 67.5124 771.252 63.1374 Q775.019 58.7219 775.019 51.4303 L775.019 49.7694 L767.606 49.7694 M782.473 46.6907 L782.473 72.576 L775.019 72.576 L775.019 65.6895 Q772.467 69.8214 768.659 71.8063 Q764.851 73.7508 759.342 73.7508 Q752.374 73.7508 748.242 69.8619 Q744.151 65.9325 744.151 59.3701 Q744.151 51.7138 749.255 47.825 Q754.4 43.9361 764.568 43.9361 L775.019 43.9361 L775.019 43.2069 Q775.019 38.0623 771.616 35.2672 Q768.254 32.4315 762.137 32.4315 Q758.248 32.4315 754.562 33.3632 Q750.876 34.295 747.473 36.1584 L747.473 29.2718 Q751.564 27.692 755.413 26.9223 Q759.261 26.1121 762.907 26.1121 Q772.75 26.1121 777.612 31.2163 Q782.473 36.3204 782.473 46.6907 Z" fill="#000000" fill-rule="evenodd" fill-opacity="1" /><path clip-path="url(#clip280)" d="M 0 0 M828.005 45.1919 L828.005 72.576 L820.551 72.576 L820.551 45.4349 Q820.551 38.994 818.04 35.7938 Q815.528 32.5936 810.505 32.5936 Q804.469 32.5936 800.985 36.4419 Q797.501 40.2903 797.501 46.9338 L797.501 72.576 L790.007 72.576 L790.007 27.2059 L797.501 27.2059 L797.501 34.2544 Q800.175 30.163 803.78 28.1376 Q807.426 26.1121 812.166 26.1121 Q819.984 26.1121 823.994 30.9732 Q828.005 35.7938 828.005 45.1919 Z" fill="#000000" fill-rule="evenodd" fill-opacity="1" /><path clip-path="url(#clip280)" d="M 0 0 M843.196 14.324 L843.196 27.2059 L858.549 27.2059 L858.549 32.9987 L843.196 32.9987 L843.196 57.6282 Q843.196 63.1779 844.695 64.7578 Q846.234 66.3376 850.892 66.3376 L858.549 66.3376 L858.549 72.576 L850.892 72.576 Q842.264 72.576 838.983 69.3758 Q835.702 66.1351 835.702 57.6282 L835.702 32.9987 L830.233 32.9987 L830.233 27.2059 L835.702 27.2059 L835.702 14.324 L843.196 14.324 Z" fill="#000000" fill-rule="evenodd" fill-opacity="1" /><path clip-path="url(#clip280)" d="M 0 0 M905.175 48.0275 L905.175 51.6733 L870.904 51.6733 Q871.39 59.3701 875.522 63.421 Q879.694 67.4314 887.107 67.4314 Q891.401 67.4314 895.412 66.3781 Q899.463 65.3249 903.433 63.2184 L903.433 70.267 Q899.422 71.9684 895.209 72.8596 Q890.996 73.7508 886.662 73.7508 Q875.805 73.7508 869.446 67.4314 Q863.126 61.1119 863.126 50.3365 Q863.126 39.1965 869.121 32.6746 Q875.157 26.1121 885.366 26.1121 Q894.521 26.1121 899.827 32.0264 Q905.175 37.9003 905.175 48.0275 M897.721 45.84 Q897.64 39.7232 894.278 36.0774 Q890.956 32.4315 885.447 32.4315 Q879.208 32.4315 875.441 35.9558 Q871.714 39.4801 871.147 45.8805 L897.721 45.84 Z" fill="#000000" fill-rule="evenodd" fill-opacity="1" /><path clip-path="url(#clip280)" d="M 0 0 M912.993 27.2059 L920.446 27.2059 L920.446 72.576 L912.993 72.576 L912.993 27.2059 M912.993 9.54393 L920.446 9.54393 L920.446 18.9825 L912.993 18.9825 L912.993 9.54393 Z" fill="#000000" fill-rule="evenodd" fill-opacity="1" /><path clip-path="url(#clip280)" d="M 0 0 M928.265 9.54393 L935.718 9.54393 L935.718 72.576 L928.265 72.576 L928.265 9.54393 Z" fill="#000000" fill-rule="evenodd" fill-opacity="1" /><path clip-path="url(#clip280)" d="M 0 0 M987.813 9.62495 Q982.385 18.942 979.752 28.0566 Q977.119 37.1711 977.119 46.5287 Q977.119 55.8863 979.752 65.0818 Q982.425 74.2369 987.813 83.5134 L981.332 83.5134 Q975.255 73.9938 972.217 64.7983 Q969.219 55.6027 969.219 46.5287 Q969.219 37.4952 972.217 28.3401 Q975.215 19.1851 981.332 9.62495 L987.813 9.62495 Z" fill="#000000" fill-rule="evenodd" fill-opacity="1" /><path clip-path="url(#clip280)" d="M 0 0 M1030.96 35.9153 Q1033.75 30.8922 1037.64 28.5022 Q1041.53 26.1121 1046.79 26.1121 Q1053.88 26.1121 1057.73 31.0947 Q1061.58 36.0368 1061.58 45.1919 L1061.58 72.576 L1054.09 72.576 L1054.09 45.4349 Q1054.09 38.913 1051.78 35.7533 Q1049.47 32.5936 1044.73 32.5936 Q1038.94 32.5936 1035.57 36.4419 Q1032.21 40.2903 1032.21 46.9338 L1032.21 72.576 L1024.72 72.576 L1024.72 45.4349 Q1024.72 38.8725 1022.41 35.7533 Q1020.1 32.5936 1015.28 32.5936 Q1009.57 32.5936 1006.2 36.4824 Q1002.84 40.3308 1002.84 46.9338 L1002.84 72.576 L995.348 72.576 L995.348 27.2059 L1002.84 27.2059 L1002.84 34.2544 Q1005.39 30.082 1008.96 28.0971 Q1012.52 26.1121 1017.43 26.1121 Q1022.37 26.1121 1025.81 28.6237 Q1029.29 31.1352 1030.96 35.9153 Z" fill="#000000" fill-rule="evenodd" fill-opacity="1" /><path clip-path="url(#clip280)" d="M 0 0 M1069.4 27.2059 L1076.85 27.2059 L1076.85 72.576 L1069.4 72.576 L1069.4 27.2059 M1069.4 9.54393 L1076.85 9.54393 L1076.85 18.9825 L1069.4 18.9825 L1069.4 9.54393 Z" fill="#000000" fill-rule="evenodd" fill-opacity="1" /><path clip-path="url(#clip280)" d="M 0 0 M1092.04 14.324 L1092.04 27.2059 L1107.4 27.2059 L1107.4 32.9987 L1092.04 32.9987 L1092.04 57.6282 Q1092.04 63.1779 1093.54 64.7578 Q1095.08 66.3376 1099.74 66.3376 L1107.4 66.3376 L1107.4 72.576 L1099.74 72.576 Q1091.11 72.576 1087.83 69.3758 Q1084.55 66.1351 1084.55 57.6282 L1084.55 32.9987 L1079.08 32.9987 L1079.08 27.2059 L1084.55 27.2059 L1084.55 14.324 L1092.04 14.324 Z" fill="#000000" fill-rule="evenodd" fill-opacity="1" /><path clip-path="url(#clip280)" d="M 0 0 M1122.59 14.324 L1122.59 27.2059 L1137.94 27.2059 L1137.94 32.9987 L1122.59 32.9987 L1122.59 57.6282 Q1122.59 63.1779 1124.09 64.7578 Q1125.62 66.3376 1130.28 66.3376 L1137.94 66.3376 L1137.94 72.576 L1130.28 72.576 Q1121.65 72.576 1118.37 69.3758 Q1115.09 66.1351 1115.09 57.6282 L1115.09 32.9987 L1109.62 32.9987 L1109.62 27.2059 L1115.09 27.2059 L1115.09 14.324 L1122.59 14.324 Z" fill="#000000" fill-rule="evenodd" fill-opacity="1" /><path clip-path="url(#clip280)" d="M 0 0 M1184.57 48.0275 L1184.57 51.6733 L1150.29 51.6733 Q1150.78 59.3701 1154.91 63.421 Q1159.09 67.4314 1166.5 67.4314 Q1170.79 67.4314 1174.8 66.3781 Q1178.85 65.3249 1182.82 63.2184 L1182.82 70.267 Q1178.81 71.9684 1174.6 72.8596 Q1170.39 73.7508 1166.05 73.7508 Q1155.2 73.7508 1148.84 67.4314 Q1142.52 61.1119 1142.52 50.3365 Q1142.52 39.1965 1148.51 32.6746 Q1154.55 26.1121 1164.76 26.1121 Q1173.91 26.1121 1179.22 32.0264 Q1184.57 37.9003 1184.57 48.0275 M1177.11 45.84 Q1177.03 39.7232 1173.67 36.0774 Q1170.35 32.4315 1164.84 32.4315 Q1158.6 32.4315 1154.83 35.9558 Q1151.1 39.4801 1150.54 45.8805 L1177.11 45.84 Z" fill="#000000" fill-rule="evenodd" fill-opacity="1" /><path clip-path="url(#clip280)" d="M 0 0 M1192.38 9.54393 L1199.84 9.54393 L1199.84 72.576 L1192.38 72.576 L1192.38 9.54393 Z" fill="#000000" fill-rule="evenodd" fill-opacity="1" /><path clip-path="url(#clip280)" d="M 0 0 M1242.13 65.6895 L1270.69 65.6895 L1270.69 72.576 L1232.29 72.576 L1232.29 65.6895 Q1236.94 60.8689 1244.96 52.7671 Q1253.03 44.6248 1255.09 42.2752 Q1259.02 37.8598 1260.56 34.8216 Q1262.14 31.7429 1262.14 28.7857 Q1262.14 23.9651 1258.74 20.927 Q1255.38 17.8888 1249.95 17.8888 Q1246.1 17.8888 1241.8 19.2256 Q1237.55 20.5624 1232.69 23.2765 L1232.69 15.0127 Q1237.63 13.0277 1241.93 12.015 Q1246.22 11.0023 1249.78 11.0023 Q1259.18 11.0023 1264.77 15.7013 Q1270.36 20.4004 1270.36 28.2591 Q1270.36 31.9859 1268.95 35.3482 Q1267.57 38.6699 1263.88 43.2069 Q1262.87 44.3817 1257.44 50.0125 Q1252.01 55.6027 1242.13 65.6895 Z" fill="#000000" fill-rule="evenodd" fill-opacity="1" /><path clip-path="url(#clip280)" d="M 0 0 M1297.06 17.4837 Q1290.74 17.4837 1287.54 23.7221 Q1284.38 29.92 1284.38 42.3968 Q1284.38 54.833 1287.54 61.0714 Q1290.74 67.2693 1297.06 67.2693 Q1303.42 67.2693 1306.58 61.0714 Q1309.78 54.833 1309.78 42.3968 Q1309.78 29.92 1306.58 23.7221 Q1303.42 17.4837 1297.06 17.4837 M1297.06 11.0023 Q1307.23 11.0023 1312.57 19.0636 Q1317.96 27.0843 1317.96 42.3968 Q1317.96 57.6687 1312.57 65.73 Q1307.23 73.7508 1297.06 73.7508 Q1286.89 73.7508 1281.5 65.73 Q1276.16 57.6687 1276.16 42.3968 Q1276.16 27.0843 1281.5 19.0636 Q1286.89 11.0023 1297.06 11.0023 Z" fill="#000000" fill-rule="evenodd" fill-opacity="1" /><path clip-path="url(#clip280)" d="M 0 0 M1328.25 65.6895 L1341.62 65.6895 L1341.62 19.5497 L1327.08 22.4663 L1327.08 15.0127 L1341.54 12.096 L1349.72 12.096 L1349.72 65.6895 L1363.09 65.6895 L1363.09 72.576 L1328.25 72.576 L1328.25 65.6895 Z" fill="#000000" fill-rule="evenodd" fill-opacity="1" /><path clip-path="url(#clip280)" d="M 0 0 M1390.47 39.075 Q1384.96 39.075 1381.72 42.8424 Q1378.52 46.6097 1378.52 53.1722 Q1378.52 59.6941 1381.72 63.502 Q1384.96 67.2693 1390.47 67.2693 Q1395.98 67.2693 1399.18 63.502 Q1402.42 59.6941 1402.42 53.1722 Q1402.42 46.6097 1399.18 42.8424 Q1395.98 39.075 1390.47 39.075 M1406.72 13.4328 L1406.72 20.8865 Q1403.64 19.4281 1400.48 18.6585 Q1397.36 17.8888 1394.28 17.8888 Q1386.18 17.8888 1381.88 23.3575 Q1377.63 28.8262 1377.02 39.8852 Q1379.41 36.3609 1383.02 34.4975 Q1386.62 32.5936 1390.96 32.5936 Q1400.07 32.5936 1405.34 38.1433 Q1410.65 43.6525 1410.65 53.1722 Q1410.65 62.4892 1405.14 68.12 Q1399.63 73.7508 1390.47 73.7508 Q1379.98 73.7508 1374.43 65.73 Q1368.88 57.6687 1368.88 42.3968 Q1368.88 28.0566 1375.69 19.5497 Q1382.49 11.0023 1393.96 11.0023 Q1397.04 11.0023 1400.15 11.6099 Q1403.31 12.2175 1406.72 13.4328 Z" fill="#000000" fill-rule="evenodd" fill-opacity="1" /><path clip-path="url(#clip280)" d="M 0 0 M1414.7 46.5287 L1436.53 46.5287 L1436.53 53.1722 L1414.7 53.1722 L1414.7 46.5287 Z" fill="#000000" fill-rule="evenodd" fill-opacity="1" /><path clip-path="url(#clip280)" d="M 0 0 M1452.45 65.6895 L1481.01 65.6895 L1481.01 72.576 L1442.61 72.576 L1442.61 65.6895 Q1447.27 60.8689 1455.29 52.7671 Q1463.35 44.6248 1465.41 42.2752 Q1469.34 37.8598 1470.88 34.8216 Q1472.46 31.7429 1472.46 28.7857 Q1472.46 23.9651 1469.06 20.927 Q1465.7 17.8888 1460.27 17.8888 Q1456.42 17.8888 1452.13 19.2256 Q1447.87 20.5624 1443.01 23.2765 L1443.01 15.0127 Q1447.96 13.0277 1452.25 12.015 Q1456.54 11.0023 1460.11 11.0023 Q1469.51 11.0023 1475.1 15.7013 Q1480.69 20.4004 1480.69 28.2591 Q1480.69 31.9859 1479.27 35.3482 Q1477.89 38.6699 1474.21 43.2069 Q1473.19 44.3817 1467.76 50.0125 Q1462.34 55.6027 1452.45 65.6895 Z" fill="#000000" fill-rule="evenodd" fill-opacity="1" /><path clip-path="url(#clip280)" d="M 0 0 M1507.38 17.4837 Q1501.06 17.4837 1497.86 23.7221 Q1494.7 29.92 1494.7 42.3968 Q1494.7 54.833 1497.86 61.0714 Q1501.06 67.2693 1507.38 67.2693 Q1513.74 67.2693 1516.9 61.0714 Q1520.1 54.833 1520.1 42.3968 Q1520.1 29.92 1516.9 23.7221 Q1513.74 17.4837 1507.38 17.4837 M1507.38 11.0023 Q1517.55 11.0023 1522.9 19.0636 Q1528.28 27.0843 1528.28 42.3968 Q1528.28 57.6687 1522.9 65.73 Q1517.55 73.7508 1507.38 73.7508 Q1497.21 73.7508 1491.83 65.73 Q1486.48 57.6687 1486.48 42.3968 Q1486.48 27.0843 1491.83 19.0636 Q1497.21 11.0023 1507.38 11.0023 Z" fill="#000000" fill-rule="evenodd" fill-opacity="1" /><path clip-path="url(#clip280)" d="M 0 0 M1544.2 65.6895 L1572.76 65.6895 L1572.76 72.576 L1534.36 72.576 L1534.36 65.6895 Q1539.02 60.8689 1547.04 52.7671 Q1555.1 44.6248 1557.17 42.2752 Q1561.1 37.8598 1562.64 34.8216 Q1564.22 31.7429 1564.22 28.7857 Q1564.22 23.9651 1560.81 20.927 Q1557.45 17.8888 1552.02 17.8888 Q1548.17 17.8888 1543.88 19.2256 Q1539.63 20.5624 1534.77 23.2765 L1534.77 15.0127 Q1539.71 13.0277 1544 12.015 Q1548.3 11.0023 1551.86 11.0023 Q1561.26 11.0023 1566.85 15.7013 Q1572.44 20.4004 1572.44 28.2591 Q1572.44 31.9859 1571.02 35.3482 Q1569.64 38.6699 1565.96 43.2069 Q1564.95 44.3817 1559.52 50.0125 Q1554.09 55.6027 1544.2 65.6895 Z" fill="#000000" fill-rule="evenodd" fill-opacity="1" /><path clip-path="url(#clip280)" d="M 0 0 M1599.13 17.4837 Q1592.82 17.4837 1589.62 23.7221 Q1586.46 29.92 1586.46 42.3968 Q1586.46 54.833 1589.62 61.0714 Q1592.82 67.2693 1599.13 67.2693 Q1605.49 67.2693 1608.65 61.0714 Q1611.85 54.833 1611.85 42.3968 Q1611.85 29.92 1608.65 23.7221 Q1605.49 17.4837 1599.13 17.4837 M1599.13 11.0023 Q1609.3 11.0023 1614.65 19.0636 Q1620.04 27.0843 1620.04 42.3968 Q1620.04 57.6687 1614.65 65.73 Q1609.3 73.7508 1599.13 73.7508 Q1588.97 73.7508 1583.58 65.73 Q1578.23 57.6687 1578.23 42.3968 Q1578.23 27.0843 1583.58 19.0636 Q1588.97 11.0023 1599.13 11.0023 Z" fill="#000000" fill-rule="evenodd" fill-opacity="1" /><path clip-path="url(#clip280)" d="M 0 0 M1626.68 9.62495 L1633.16 9.62495 Q1639.24 19.1851 1642.24 28.3401 Q1645.27 37.4952 1645.27 46.5287 Q1645.27 55.6027 1642.24 64.7983 Q1639.24 73.9938 1633.16 83.5134 L1626.68 83.5134 Q1632.07 74.2369 1634.7 65.0818 Q1637.38 55.8863 1637.38 46.5287 Q1637.38 37.1711 1634.7 28.0566 Q1632.07 18.942 1626.68 9.62495 Z" fill="#000000" fill-rule="evenodd" fill-opacity="1" /><path clip-path="url(#clip280)" d="M 0 0 M1679.46 27.2059 L1686.92 27.2059 L1686.92 72.576 L1679.46 72.576 L1679.46 27.2059 M1679.46 9.54393 L1686.92 9.54393 L1686.92 18.9825 L1679.46 18.9825 L1679.46 9.54393 Z" fill="#000000" fill-rule="evenodd" fill-opacity="1" /><path clip-path="url(#clip280)" d="M 0 0 M1732.45 45.1919 L1732.45 72.576 L1725 72.576 L1725 45.4349 Q1725 38.994 1722.48 35.7938 Q1719.97 32.5936 1714.95 32.5936 Q1708.91 32.5936 1705.43 36.4419 Q1701.95 40.2903 1701.95 46.9338 L1701.95 72.576 L1694.45 72.576 L1694.45 27.2059 L1701.95 27.2059 L1701.95 34.2544 Q1704.62 30.163 1708.23 28.1376 Q1711.87 26.1121 1716.61 26.1121 Q1724.43 26.1121 1728.44 30.9732 Q1732.45 35.7938 1732.45 45.1919 Z" fill="#000000" fill-rule="evenodd" fill-opacity="1" /><path clip-path="url(#clip280)" d="M 0 0 M1775.15 18.8205 L1775.15 65.8515 L1785.03 65.8515 Q1797.55 65.8515 1803.34 60.1802 Q1809.17 54.509 1809.17 42.2752 Q1809.17 30.1225 1803.34 24.4918 Q1797.55 18.8205 1785.03 18.8205 L1775.15 18.8205 M1766.96 12.096 L1783.78 12.096 Q1801.36 12.096 1809.58 19.4281 Q1817.8 26.7198 1817.8 42.2752 Q1817.8 57.9117 1809.54 65.2439 Q1801.28 72.576 1783.78 72.576 L1766.96 72.576 L1766.96 12.096 Z" fill="#000000" fill-rule="evenodd" fill-opacity="1" /><path clip-path="url(#clip280)" d="M 0 0 M1864.43 48.0275 L1864.43 51.6733 L1830.16 51.6733 Q1830.64 59.3701 1834.78 63.421 Q1838.95 67.4314 1846.36 67.4314 Q1850.66 67.4314 1854.67 66.3781 Q1858.72 65.3249 1862.69 63.2184 L1862.69 70.267 Q1858.68 71.9684 1854.46 72.8596 Q1850.25 73.7508 1845.92 73.7508 Q1835.06 73.7508 1828.7 67.4314 Q1822.38 61.1119 1822.38 50.3365 Q1822.38 39.1965 1828.38 32.6746 Q1834.41 26.1121 1844.62 26.1121 Q1853.77 26.1121 1859.08 32.0264 Q1864.43 37.9003 1864.43 48.0275 M1856.97 45.84 Q1856.89 39.7232 1853.53 36.0774 Q1850.21 32.4315 1844.7 32.4315 Q1838.46 32.4315 1834.7 35.9558 Q1830.97 39.4801 1830.4 45.8805 L1856.97 45.84 Z" fill="#000000" fill-rule="evenodd" fill-opacity="1" /><path clip-path="url(#clip280)" d="M 0 0 M1871.48 54.671 L1871.48 27.2059 L1878.93 27.2059 L1878.93 54.3874 Q1878.93 60.8284 1881.44 64.0691 Q1883.95 67.2693 1888.98 67.2693 Q1895.01 67.2693 1898.5 63.421 Q1902.02 59.5726 1902.02 52.9291 L1902.02 27.2059 L1909.47 27.2059 L1909.47 72.576 L1902.02 72.576 L1902.02 65.6084 Q1899.31 69.7404 1895.7 71.7658 Q1892.14 73.7508 1887.4 73.7508 Q1879.58 73.7508 1875.53 68.8897 Q1871.48 64.0286 1871.48 54.671 M1890.23 26.1121 L1890.23 26.1121 Z" fill="#000000" fill-rule="evenodd" fill-opacity="1" /><path clip-path="url(#clip280)" d="M 0 0 M1924.67 14.324 L1924.67 27.2059 L1940.02 27.2059 L1940.02 32.9987 L1924.67 32.9987 L1924.67 57.6282 Q1924.67 63.1779 1926.16 64.7578 Q1927.7 66.3376 1932.36 66.3376 L1940.02 66.3376 L1940.02 72.576 L1932.36 72.576 Q1923.73 72.576 1920.45 69.3758 Q1917.17 66.1351 1917.17 57.6282 L1917.17 32.9987 L1911.7 32.9987 L1911.7 27.2059 L1917.17 27.2059 L1917.17 14.324 L1924.67 14.324 Z" fill="#000000" fill-rule="evenodd" fill-opacity="1" /><path clip-path="url(#clip280)" d="M 0 0 M1976.76 28.5427 L1976.76 35.5912 Q1973.6 33.9709 1970.2 33.1607 Q1966.79 32.3505 1963.15 32.3505 Q1957.6 32.3505 1954.8 34.0519 Q1952.05 35.7533 1952.05 39.156 Q1952.05 41.7486 1954.03 43.2475 Q1956.02 44.7058 1962.01 46.0426 L1964.57 46.6097 Q1972.51 48.3111 1975.83 51.4303 Q1979.19 54.509 1979.19 60.0587 Q1979.19 66.3781 1974.17 70.0644 Q1969.19 73.7508 1960.44 73.7508 Q1956.79 73.7508 1952.82 73.0216 Q1948.89 72.3329 1944.52 70.9151 L1944.52 63.2184 Q1948.65 65.3654 1952.66 66.4591 Q1956.67 67.5124 1960.6 67.5124 Q1965.86 67.5124 1968.7 65.73 Q1971.53 63.9071 1971.53 60.6258 Q1971.53 57.5877 1969.47 55.9673 Q1967.44 54.3469 1960.52 52.8481 L1957.92 52.2405 Q1951 50.7821 1947.92 47.7845 Q1944.84 44.7463 1944.84 39.4801 Q1944.84 33.0797 1949.38 29.5959 Q1953.91 26.1121 1962.26 26.1121 Q1966.39 26.1121 1970.04 26.7198 Q1973.68 27.3274 1976.76 28.5427 Z" fill="#000000" fill-rule="evenodd" fill-opacity="1" /><path clip-path="url(#clip280)" d="M 0 0 M2019.66 28.9478 L2019.66 35.9153 Q2016.5 34.1734 2013.3 33.3227 Q2010.14 32.4315 2006.9 32.4315 Q1999.65 32.4315 1995.64 37.0496 Q1991.63 41.6271 1991.63 49.9314 Q1991.63 58.2358 1995.64 62.8538 Q1999.65 67.4314 2006.9 67.4314 Q2010.14 67.4314 2013.3 66.5807 Q2016.5 65.6895 2019.66 63.9476 L2019.66 70.8341 Q2016.54 72.2924 2013.18 73.0216 Q2009.86 73.7508 2006.09 73.7508 Q1995.84 73.7508 1989.8 67.3098 Q1983.77 60.8689 1983.77 49.9314 Q1983.77 38.832 1989.84 32.472 Q1995.96 26.1121 2006.57 26.1121 Q2010.02 26.1121 2013.3 26.8413 Q2016.58 27.5299 2019.66 28.9478 Z" fill="#000000" fill-rule="evenodd" fill-opacity="1" /><path clip-path="url(#clip280)" d="M 0 0 M2065.19 45.1919 L2065.19 72.576 L2057.74 72.576 L2057.74 45.4349 Q2057.74 38.994 2055.23 35.7938 Q2052.71 32.5936 2047.69 32.5936 Q2041.66 32.5936 2038.17 36.4419 Q2034.69 40.2903 2034.69 46.9338 L2034.69 72.576 L2027.19 72.576 L2027.19 9.54393 L2034.69 9.54393 L2034.69 34.2544 Q2037.36 30.163 2040.97 28.1376 Q2044.61 26.1121 2049.35 26.1121 Q2057.17 26.1121 2061.18 30.9732 Q2065.19 35.7938 2065.19 45.1919 Z" fill="#000000" fill-rule="evenodd" fill-opacity="1" /><path clip-path="url(#clip280)" d="M 0 0 M2073.01 9.54393 L2080.46 9.54393 L2080.46 72.576 L2073.01 72.576 L2073.01 9.54393 Z" fill="#000000" fill-rule="evenodd" fill-opacity="1" /><path clip-path="url(#clip280)" d="M 0 0 M2108.9 49.7694 Q2099.87 49.7694 2096.38 51.8354 Q2092.9 53.9013 2092.9 58.8839 Q2092.9 62.8538 2095.49 65.2034 Q2098.13 67.5124 2102.62 67.5124 Q2108.82 67.5124 2112.55 63.1374 Q2116.31 58.7219 2116.31 51.4303 L2116.31 49.7694 L2108.9 49.7694 M2123.77 46.6907 L2123.77 72.576 L2116.31 72.576 L2116.31 65.6895 Q2113.76 69.8214 2109.95 71.8063 Q2106.15 73.7508 2100.64 73.7508 Q2093.67 73.7508 2089.54 69.8619 Q2085.45 65.9325 2085.45 59.3701 Q2085.45 51.7138 2090.55 47.825 Q2095.69 43.9361 2105.86 43.9361 L2116.31 43.9361 L2116.31 43.2069 Q2116.31 38.0623 2112.91 35.2672 Q2109.55 32.4315 2103.43 32.4315 Q2099.54 32.4315 2095.86 33.3632 Q2092.17 34.295 2088.77 36.1584 L2088.77 29.2718 Q2092.86 27.692 2096.71 26.9223 Q2100.56 26.1121 2104.2 26.1121 Q2114.05 26.1121 2118.91 31.2163 Q2123.77 36.3204 2123.77 46.6907 Z" fill="#000000" fill-rule="evenodd" fill-opacity="1" /><path clip-path="url(#clip280)" d="M 0 0 M2169.3 45.1919 L2169.3 72.576 L2161.85 72.576 L2161.85 45.4349 Q2161.85 38.994 2159.33 35.7938 Q2156.82 32.5936 2151.8 32.5936 Q2145.76 32.5936 2142.28 36.4419 Q2138.8 40.2903 2138.8 46.9338 L2138.8 72.576 L2131.3 72.576 L2131.3 27.2059 L2138.8 27.2059 L2138.8 34.2544 Q2141.47 30.163 2145.08 28.1376 Q2148.72 26.1121 2153.46 26.1121 Q2161.28 26.1121 2165.29 30.9732 Q2169.3 35.7938 2169.3 45.1919 Z" fill="#000000" fill-rule="evenodd" fill-opacity="1" /><path clip-path="url(#clip280)" d="M 0 0 M2206.97 34.0924 L2206.97 9.54393 L2214.43 9.54393 L2214.43 72.576 L2206.97 72.576 L2206.97 65.7705 Q2204.62 69.8214 2201.02 71.8063 Q2197.45 73.7508 2192.43 73.7508 Q2184.21 73.7508 2179.02 67.1883 Q2173.88 60.6258 2173.88 49.9314 Q2173.88 39.2371 2179.02 32.6746 Q2184.21 26.1121 2192.43 26.1121 Q2197.45 26.1121 2201.02 28.0971 Q2204.62 30.0415 2206.97 34.0924 M2181.57 49.9314 Q2181.57 58.1548 2184.94 62.8538 Q2188.34 67.5124 2194.25 67.5124 Q2200.17 67.5124 2203.57 62.8538 Q2206.97 58.1548 2206.97 49.9314 Q2206.97 41.7081 2203.57 37.0496 Q2200.17 32.3505 2194.25 32.3505 Q2188.34 32.3505 2184.94 37.0496 Q2181.57 41.7081 2181.57 49.9314 Z" fill="#000000" fill-rule="evenodd" fill-opacity="1" /><polyline clip-path="url(#clip282)" style="stroke:#009af9; stroke-width:12; stroke-opacity:1; fill:none" points="
  166.42,622.426 915.593,400.106 1040.45,450.59 1165.32,509.273 1290.18,299.338 1415.04,103.811 1539.9,216.669 1664.77,435.503 1789.63,599.746 1914.49,795.861 
  2039.35,746.346 2164.21,1006.77 2289.08,1464.44 
  "/>
<polyline clip-path="url(#clip282)" style="stroke:#e26f46; stroke-width:12; stroke-opacity:1; fill:none" points="
  166.42,682.051 915.593,457.23 1040.45,476.498 1165.32,523.9 1290.18,320.394 1415.04,129.433 1539.9,213.851 1664.77,389.074 1789.63,518.718 1914.49,698.11 
  2039.35,565.082 2164.21,803.002 2289.08,1450.21 
  "/>
<path clip-path="url(#clip280)" d="
M1852.75 1457.18 L2277.76 1457.18 L2277.76 1275.74 L1852.75 1275.74  Z
  " fill="#ffffff" fill-rule="evenodd" fill-opacity="1"/>
<polyline clip-path="url(#clip280)" style="stroke:#000000; stroke-width:4; stroke-opacity:1; fill:none" points="
  1852.75,1457.18 2277.76,1457.18 2277.76,1275.74 1852.75,1275.74 1852.75,1457.18 
  "/>
<polyline clip-path="url(#clip280)" style="stroke:#009af9; stroke-width:4; stroke-opacity:1; fill:none" points="
  1877.75,1336.22 2027.76,1336.22 
  "/>
<path clip-path="url(#clip280)" d="M 0 0 M2052.76 1318.94 L2059.72 1318.94 L2068.54 1342.46 L2077.41 1318.94 L2084.38 1318.94 L2084.38 1353.5 L2079.82 1353.5 L2079.82 1323.16 L2070.9 1346.86 L2066.2 1346.86 L2057.29 1323.16 L2057.29 1353.5 L2052.76 1353.5 L2052.76 1318.94 Z" fill="#000000" fill-rule="evenodd" fill-opacity="1" /><path clip-path="url(#clip280)" d="M 0 0 M2100.63 1340.47 Q2095.46 1340.47 2093.47 1341.65 Q2091.48 1342.83 2091.48 1345.68 Q2091.48 1347.95 2092.96 1349.29 Q2094.47 1350.61 2097.04 1350.61 Q2100.58 1350.61 2102.71 1348.11 Q2104.86 1345.59 2104.86 1341.42 L2104.86 1340.47 L2100.63 1340.47 M2109.12 1338.71 L2109.12 1353.5 L2104.86 1353.5 L2104.86 1349.57 Q2103.4 1351.93 2101.23 1353.06 Q2099.05 1354.18 2095.9 1354.18 Q2091.92 1354.18 2089.56 1351.95 Q2087.22 1349.71 2087.22 1345.96 Q2087.22 1341.58 2090.14 1339.36 Q2093.08 1337.14 2098.89 1337.14 L2104.86 1337.14 L2104.86 1336.72 Q2104.86 1333.78 2102.92 1332.18 Q2101 1330.56 2097.5 1330.56 Q2095.28 1330.56 2093.17 1331.1 Q2091.07 1331.63 2089.12 1332.69 L2089.12 1328.76 Q2091.46 1327.86 2093.66 1327.42 Q2095.86 1326.95 2097.94 1326.95 Q2103.57 1326.95 2106.34 1329.87 Q2109.12 1332.79 2109.12 1338.71 M2100.3 1317.58 L2105 1317.58 L2105 1322.25 L2100.3 1322.25 L2100.3 1317.58 M2091.25 1317.58 L2095.95 1317.58 L2095.95 1322.25 L2091.25 1322.25 L2091.25 1317.58 Z" fill="#000000" fill-rule="evenodd" fill-opacity="1" /><path clip-path="url(#clip280)" d="M 0 0 M2135.14 1337.86 L2135.14 1353.5 L2130.88 1353.5 L2130.88 1338 Q2130.88 1334.31 2129.45 1332.49 Q2128.01 1330.66 2125.14 1330.66 Q2121.69 1330.66 2119.7 1332.86 Q2117.71 1335.06 2117.71 1338.85 L2117.71 1353.5 L2113.43 1353.5 L2113.43 1327.58 L2117.71 1327.58 L2117.71 1331.61 Q2119.24 1329.27 2121.3 1328.11 Q2123.38 1326.95 2126.09 1326.95 Q2130.56 1326.95 2132.85 1329.73 Q2135.14 1332.49 2135.14 1337.86 Z" fill="#000000" fill-rule="evenodd" fill-opacity="1" /><path clip-path="url(#clip280)" d="M 0 0 M2161.16 1337.86 L2161.16 1353.5 L2156.9 1353.5 L2156.9 1338 Q2156.9 1334.31 2155.46 1332.49 Q2154.03 1330.66 2151.16 1330.66 Q2147.71 1330.66 2145.72 1332.86 Q2143.73 1335.06 2143.73 1338.85 L2143.73 1353.5 L2139.45 1353.5 L2139.45 1327.58 L2143.73 1327.58 L2143.73 1331.61 Q2145.26 1329.27 2147.32 1328.11 Q2149.4 1326.95 2152.11 1326.95 Q2156.57 1326.95 2158.87 1329.73 Q2161.16 1332.49 2161.16 1337.86 Z" fill="#000000" fill-rule="evenodd" fill-opacity="1" /><path clip-path="url(#clip280)" d="M 0 0 M2165.63 1317.49 L2169.88 1317.49 L2169.88 1353.5 L2165.63 1353.5 L2165.63 1317.49 Z" fill="#000000" fill-rule="evenodd" fill-opacity="1" /><path clip-path="url(#clip280)" d="M 0 0 M2174.35 1327.58 L2178.61 1327.58 L2178.61 1353.5 L2174.35 1353.5 L2174.35 1327.58 M2174.35 1317.49 L2178.61 1317.49 L2178.61 1322.88 L2174.35 1322.88 L2174.35 1317.49 Z" fill="#000000" fill-rule="evenodd" fill-opacity="1" /><path clip-path="url(#clip280)" d="M 0 0 M2201.74 1328.57 L2201.74 1332.56 Q2199.93 1331.56 2198.1 1331.07 Q2196.3 1330.56 2194.45 1330.56 Q2190.3 1330.56 2188.01 1333.2 Q2185.72 1335.82 2185.72 1340.56 Q2185.72 1345.31 2188.01 1347.95 Q2190.3 1350.56 2194.45 1350.56 Q2196.3 1350.56 2198.1 1350.08 Q2199.93 1349.57 2201.74 1348.57 L2201.74 1352.51 Q2199.95 1353.34 2198.03 1353.76 Q2196.13 1354.18 2193.98 1354.18 Q2188.13 1354.18 2184.68 1350.5 Q2181.23 1346.81 2181.23 1340.56 Q2181.23 1334.22 2184.7 1330.59 Q2188.2 1326.95 2194.26 1326.95 Q2196.23 1326.95 2198.1 1327.37 Q2199.98 1327.76 2201.74 1328.57 Z" fill="#000000" fill-rule="evenodd" fill-opacity="1" /><path clip-path="url(#clip280)" d="M 0 0 M2227.76 1337.86 L2227.76 1353.5 L2223.5 1353.5 L2223.5 1338 Q2223.5 1334.31 2222.06 1332.49 Q2220.63 1330.66 2217.76 1330.66 Q2214.31 1330.66 2212.32 1332.86 Q2210.32 1335.06 2210.32 1338.85 L2210.32 1353.5 L2206.04 1353.5 L2206.04 1317.49 L2210.32 1317.49 L2210.32 1331.61 Q2211.85 1329.27 2213.91 1328.11 Q2216 1326.95 2218.7 1326.95 Q2223.17 1326.95 2225.46 1329.73 Q2227.76 1332.49 2227.76 1337.86 Z" fill="#000000" fill-rule="evenodd" fill-opacity="1" /><polyline clip-path="url(#clip280)" style="stroke:#e26f46; stroke-width:4; stroke-opacity:1; fill:none" points="
  1877.75,1396.7 2027.76,1396.7 
  "/>
<path clip-path="url(#clip280)" d="M 0 0 M2052.76 1379.42 L2057.48 1379.42 L2064.75 1408.64 L2071.99 1379.42 L2077.25 1379.42 L2084.52 1408.64 L2091.76 1379.42 L2096.51 1379.42 L2087.83 1413.98 L2081.95 1413.98 L2074.65 1383.98 L2067.29 1413.98 L2061.41 1413.98 L2052.76 1379.42 Z" fill="#000000" fill-rule="evenodd" fill-opacity="1" /><path clip-path="url(#clip280)" d="M 0 0 M2120.37 1399.96 L2120.37 1402.04 L2100.79 1402.04 Q2101.07 1406.44 2103.43 1408.75 Q2105.81 1411.04 2110.05 1411.04 Q2112.5 1411.04 2114.79 1410.44 Q2117.11 1409.84 2119.38 1408.64 L2119.38 1412.66 Q2117.08 1413.64 2114.68 1414.15 Q2112.27 1414.66 2109.79 1414.66 Q2103.59 1414.66 2099.95 1411.04 Q2096.34 1407.43 2096.34 1401.28 Q2096.34 1394.91 2099.77 1391.18 Q2103.22 1387.43 2109.05 1387.43 Q2114.28 1387.43 2117.32 1390.81 Q2120.37 1394.17 2120.37 1399.96 M2116.11 1398.71 Q2116.07 1395.21 2114.14 1393.13 Q2112.25 1391.04 2109.1 1391.04 Q2105.53 1391.04 2103.38 1393.06 Q2101.25 1395.07 2100.93 1398.73 L2116.11 1398.71 Z" fill="#000000" fill-rule="evenodd" fill-opacity="1" /><path clip-path="url(#clip280)" d="M 0 0 M2124.84 1388.06 L2129.1 1388.06 L2129.1 1413.98 L2124.84 1413.98 L2124.84 1388.06 M2124.84 1377.97 L2129.1 1377.97 L2129.1 1383.36 L2124.84 1383.36 L2124.84 1377.97 Z" fill="#000000" fill-rule="evenodd" fill-opacity="1" /><path clip-path="url(#clip280)" d="M 0 0 M2152.18 1401.04 Q2152.18 1396.35 2150.23 1393.68 Q2148.31 1391 2144.93 1391 Q2141.55 1391 2139.61 1393.68 Q2137.69 1396.35 2137.69 1401.04 Q2137.69 1405.74 2139.61 1408.43 Q2141.55 1411.09 2144.93 1411.09 Q2148.31 1411.09 2150.23 1408.43 Q2152.18 1405.74 2152.18 1401.04 M2137.69 1391.99 Q2139.03 1389.68 2141.07 1388.57 Q2143.13 1387.43 2145.97 1387.43 Q2150.7 1387.43 2153.64 1391.18 Q2156.6 1394.93 2156.6 1401.04 Q2156.6 1407.16 2153.64 1410.91 Q2150.7 1414.66 2145.97 1414.66 Q2143.13 1414.66 2141.07 1413.54 Q2139.03 1412.41 2137.69 1410.1 L2137.69 1413.98 L2133.4 1413.98 L2133.4 1377.97 L2137.69 1377.97 L2137.69 1391.99 Z" fill="#000000" fill-rule="evenodd" fill-opacity="1" /><path clip-path="url(#clip280)" d="M 0 0 M2161.07 1377.97 L2165.32 1377.97 L2165.32 1413.98 L2161.07 1413.98 L2161.07 1377.97 Z" fill="#000000" fill-rule="evenodd" fill-opacity="1" /><path clip-path="url(#clip280)" d="M 0 0 M2169.79 1388.06 L2174.05 1388.06 L2174.05 1413.98 L2169.79 1413.98 L2169.79 1388.06 M2169.79 1377.97 L2174.05 1377.97 L2174.05 1383.36 L2169.79 1383.36 L2169.79 1377.97 Z" fill="#000000" fill-rule="evenodd" fill-opacity="1" /><path clip-path="url(#clip280)" d="M 0 0 M2197.18 1389.05 L2197.18 1393.04 Q2195.37 1392.04 2193.54 1391.55 Q2191.74 1391.04 2189.88 1391.04 Q2185.74 1391.04 2183.45 1393.68 Q2181.16 1396.3 2181.16 1401.04 Q2181.16 1405.79 2183.45 1408.43 Q2185.74 1411.04 2189.88 1411.04 Q2191.74 1411.04 2193.54 1410.56 Q2195.37 1410.05 2197.18 1409.05 L2197.18 1412.99 Q2195.39 1413.82 2193.47 1414.24 Q2191.57 1414.66 2189.42 1414.66 Q2183.57 1414.66 2180.12 1410.98 Q2176.67 1407.29 2176.67 1401.04 Q2176.67 1394.7 2180.14 1391.07 Q2183.63 1387.43 2189.7 1387.43 Q2191.67 1387.43 2193.54 1387.85 Q2195.42 1388.24 2197.18 1389.05 Z" fill="#000000" fill-rule="evenodd" fill-opacity="1" /><path clip-path="url(#clip280)" d="M 0 0 M2223.19 1398.34 L2223.19 1413.98 L2218.94 1413.98 L2218.94 1398.48 Q2218.94 1394.79 2217.5 1392.97 Q2216.07 1391.14 2213.19 1391.14 Q2209.75 1391.14 2207.76 1393.34 Q2205.76 1395.54 2205.76 1399.33 L2205.76 1413.98 L2201.48 1413.98 L2201.48 1377.97 L2205.76 1377.97 L2205.76 1392.09 Q2207.29 1389.75 2209.35 1388.59 Q2211.44 1387.43 2214.14 1387.43 Q2218.61 1387.43 2220.9 1390.21 Q2223.19 1392.97 2223.19 1398.34 Z" fill="#000000" fill-rule="evenodd" fill-opacity="1" /></svg>
