<?xml version="1.0" encoding="utf-8"?>
<svg xmlns="http://www.w3.org/2000/svg" xmlns:xlink="http://www.w3.org/1999/xlink" width="600" height="400" viewBox="0 0 2400 1600">
<defs>
  <clipPath id="clip180">
    <rect x="0" y="0" width="2400" height="1600"/>
  </clipPath>
</defs>
<path clip-path="url(#clip180)" d="
M0 1600 L2400 1600 L2400 0 L0 0  Z
  " fill="#ffffff" fill-rule="evenodd" fill-opacity="1"/>
<defs>
  <clipPath id="clip181">
    <rect x="480" y="0" width="1681" height="1600"/>
  </clipPath>
</defs>
<path clip-path="url(#clip180)" d="
M271.244 1521.01 L2352.76 1521.01 L2352.76 47.2441 L271.244 47.2441  Z
  " fill="#ffffff" fill-rule="evenodd" fill-opacity="1"/>
<defs>
  <clipPath id="clip182">
    <rect x="271" y="47" width="2083" height="1475"/>
  </clipPath>
</defs>
<polyline clip-path="url(#clip182)" style="stroke:#000000; stroke-width:2; stroke-opacity:0.1; fill:none" points="
  330.155,1521.01 330.155,47.2441 
  "/>
<polyline clip-path="url(#clip182)" style="stroke:#000000; stroke-width:2; stroke-opacity:0.1; fill:none" points="
  821.077,1521.01 821.077,47.2441 
  "/>
<polyline clip-path="url(#clip182)" style="stroke:#000000; stroke-width:2; stroke-opacity:0.1; fill:none" points="
  1312,1521.01 1312,47.2441 
  "/>
<polyline clip-path="url(#clip182)" style="stroke:#000000; stroke-width:2; stroke-opacity:0.1; fill:none" points="
  1802.92,1521.01 1802.92,47.2441 
  "/>
<polyline clip-path="url(#clip182)" style="stroke:#000000; stroke-width:2; stroke-opacity:0.1; fill:none" points="
  2293.85,1521.01 2293.85,47.2441 
  "/>
<polyline clip-path="url(#clip180)" style="stroke:#000000; stroke-width:4; stroke-opacity:1; fill:none" points="
  271.244,1521.01 2352.76,1521.01 
  "/>
<polyline clip-path="url(#clip180)" style="stroke:#000000; stroke-width:4; stroke-opacity:1; fill:none" points="
  330.155,1521.01 330.155,1503.32 
  "/>
<polyline clip-path="url(#clip180)" style="stroke:#000000; stroke-width:4; stroke-opacity:1; fill:none" points="
  821.077,1521.01 821.077,1503.32 
  "/>
<polyline clip-path="url(#clip180)" style="stroke:#000000; stroke-width:4; stroke-opacity:1; fill:none" points="
  1312,1521.01 1312,1503.32 
  "/>
<polyline clip-path="url(#clip180)" style="stroke:#000000; stroke-width:4; stroke-opacity:1; fill:none" points="
  1802.92,1521.01 1802.92,1503.32 
  "/>
<polyline clip-path="url(#clip180)" style="stroke:#000000; stroke-width:4; stroke-opacity:1; fill:none" points="
  2293.85,1521.01 2293.85,1503.32 
  "/>
<path clip-path="url(#clip180)" d="M 0 0 M284.819 1577.74 L301.139 1577.74 L301.139 1581.68 L279.194 1581.68 L279.194 1577.74 Q281.856 1574.99 286.44 1570.36 Q291.046 1565.71 292.227 1564.37 Q294.472 1561.84 295.352 1560.11 Q296.255 1558.35 296.255 1556.66 Q296.255 1553.9 294.31 1552.17 Q292.389 1550.43 289.287 1550.43 Q287.088 1550.43 284.634 1551.19 Q282.204 1551.96 279.426 1553.51 L279.426 1548.79 Q282.25 1547.65 284.704 1547.07 Q287.157 1546.49 289.194 1546.49 Q294.565 1546.49 297.759 1549.18 Q300.954 1551.87 300.954 1556.36 Q300.954 1558.49 300.143 1560.41 Q299.356 1562.3 297.25 1564.9 Q296.671 1565.57 293.569 1568.79 Q290.468 1571.98 284.819 1577.74 Z" fill="#000000" fill-rule="evenodd" fill-opacity="1" /><path clip-path="url(#clip180)" d="M 0 0 M316.208 1550.2 Q312.597 1550.2 310.768 1553.76 Q308.963 1557.31 308.963 1564.43 Q308.963 1571.54 310.768 1575.11 Q312.597 1578.65 316.208 1578.65 Q319.842 1578.65 321.648 1575.11 Q323.477 1571.54 323.477 1564.43 Q323.477 1557.31 321.648 1553.76 Q319.842 1550.2 316.208 1550.2 M316.208 1546.49 Q322.018 1546.49 325.074 1551.1 Q328.153 1555.68 328.153 1564.43 Q328.153 1573.16 325.074 1577.77 Q322.018 1582.35 316.208 1582.35 Q310.398 1582.35 307.319 1577.77 Q304.264 1573.16 304.264 1564.43 Q304.264 1555.68 307.319 1551.1 Q310.398 1546.49 316.208 1546.49 Z" fill="#000000" fill-rule="evenodd" fill-opacity="1" /><path clip-path="url(#clip180)" d="M 0 0 M334.032 1577.74 L341.671 1577.74 L341.671 1551.38 L333.361 1553.05 L333.361 1548.79 L341.625 1547.12 L346.301 1547.12 L346.301 1577.74 L353.939 1577.74 L353.939 1581.68 L334.032 1581.68 L334.032 1577.74 Z" fill="#000000" fill-rule="evenodd" fill-opacity="1" /><path clip-path="url(#clip180)" d="M 0 0 M369.587 1562.54 Q366.439 1562.54 364.587 1564.69 Q362.759 1566.84 362.759 1570.59 Q362.759 1574.32 364.587 1576.49 Q366.439 1578.65 369.587 1578.65 Q372.736 1578.65 374.564 1576.49 Q376.416 1574.32 376.416 1570.59 Q376.416 1566.84 374.564 1564.69 Q372.736 1562.54 369.587 1562.54 M378.87 1547.88 L378.87 1552.14 Q377.111 1551.31 375.305 1550.87 Q373.523 1550.43 371.763 1550.43 Q367.134 1550.43 364.68 1553.56 Q362.25 1556.68 361.902 1563 Q363.268 1560.99 365.328 1559.92 Q367.388 1558.83 369.865 1558.83 Q375.074 1558.83 378.083 1562 Q381.115 1565.15 381.115 1570.59 Q381.115 1575.92 377.967 1579.13 Q374.819 1582.35 369.587 1582.35 Q363.592 1582.35 360.421 1577.77 Q357.25 1573.16 357.25 1564.43 Q357.25 1556.24 361.138 1551.38 Q365.027 1546.49 371.578 1546.49 Q373.337 1546.49 375.12 1546.84 Q376.925 1547.19 378.87 1547.88 Z" fill="#000000" fill-rule="evenodd" fill-opacity="1" /><path clip-path="url(#clip180)" d="M 0 0 M776.274 1577.74 L792.594 1577.74 L792.594 1581.68 L770.649 1581.68 L770.649 1577.74 Q773.311 1574.99 777.895 1570.36 Q782.501 1565.71 783.682 1564.37 Q785.927 1561.84 786.807 1560.11 Q787.71 1558.35 787.71 1556.66 Q787.71 1553.9 785.765 1552.17 Q783.844 1550.43 780.742 1550.43 Q778.543 1550.43 776.089 1551.19 Q773.659 1551.96 770.881 1553.51 L770.881 1548.79 Q773.705 1547.65 776.159 1547.07 Q778.612 1546.49 780.649 1546.49 Q786.02 1546.49 789.214 1549.18 Q792.409 1551.87 792.409 1556.36 Q792.409 1558.49 791.598 1560.41 Q790.811 1562.3 788.705 1564.9 Q788.126 1565.57 785.024 1568.79 Q781.923 1571.98 776.274 1577.74 Z" fill="#000000" fill-rule="evenodd" fill-opacity="1" /><path clip-path="url(#clip180)" d="M 0 0 M807.663 1550.2 Q804.052 1550.2 802.223 1553.76 Q800.418 1557.31 800.418 1564.43 Q800.418 1571.54 802.223 1575.11 Q804.052 1578.65 807.663 1578.65 Q811.297 1578.65 813.103 1575.11 Q814.932 1571.54 814.932 1564.43 Q814.932 1557.31 813.103 1553.76 Q811.297 1550.2 807.663 1550.2 M807.663 1546.49 Q813.473 1546.49 816.529 1551.1 Q819.608 1555.68 819.608 1564.43 Q819.608 1573.16 816.529 1577.77 Q813.473 1582.35 807.663 1582.35 Q801.853 1582.35 798.774 1577.77 Q795.719 1573.16 795.719 1564.43 Q795.719 1555.68 798.774 1551.1 Q801.853 1546.49 807.663 1546.49 Z" fill="#000000" fill-rule="evenodd" fill-opacity="1" /><path clip-path="url(#clip180)" d="M 0 0 M825.487 1577.74 L833.126 1577.74 L833.126 1551.38 L824.816 1553.05 L824.816 1548.79 L833.08 1547.12 L837.756 1547.12 L837.756 1577.74 L845.394 1577.74 L845.394 1581.68 L825.487 1581.68 L825.487 1577.74 Z" fill="#000000" fill-rule="evenodd" fill-opacity="1" /><path clip-path="url(#clip180)" d="M 0 0 M849.283 1547.12 L871.505 1547.12 L871.505 1549.11 L858.959 1581.68 L854.075 1581.68 L865.88 1551.06 L849.283 1551.06 L849.283 1547.12 Z" fill="#000000" fill-rule="evenodd" fill-opacity="1" /><path clip-path="url(#clip180)" d="M 0 0 M1266.79 1577.74 L1283.11 1577.74 L1283.11 1581.68 L1261.17 1581.68 L1261.17 1577.74 Q1263.83 1574.99 1268.41 1570.36 Q1273.02 1565.71 1274.2 1564.37 Q1276.44 1561.84 1277.32 1560.11 Q1278.23 1558.35 1278.23 1556.66 Q1278.23 1553.9 1276.28 1552.17 Q1274.36 1550.43 1271.26 1550.43 Q1269.06 1550.43 1266.61 1551.19 Q1264.18 1551.96 1261.4 1553.51 L1261.4 1548.79 Q1264.22 1547.65 1266.68 1547.07 Q1269.13 1546.49 1271.17 1546.49 Q1276.54 1546.49 1279.73 1549.18 Q1282.93 1551.87 1282.93 1556.36 Q1282.93 1558.49 1282.12 1560.41 Q1281.33 1562.3 1279.22 1564.9 Q1278.64 1565.57 1275.54 1568.79 Q1272.44 1571.98 1266.79 1577.74 Z" fill="#000000" fill-rule="evenodd" fill-opacity="1" /><path clip-path="url(#clip180)" d="M 0 0 M1298.18 1550.2 Q1294.57 1550.2 1292.74 1553.76 Q1290.94 1557.31 1290.94 1564.43 Q1290.94 1571.54 1292.74 1575.11 Q1294.57 1578.65 1298.18 1578.65 Q1301.81 1578.65 1303.62 1575.11 Q1305.45 1571.54 1305.45 1564.43 Q1305.45 1557.31 1303.62 1553.76 Q1301.81 1550.2 1298.18 1550.2 M1298.18 1546.49 Q1303.99 1546.49 1307.05 1551.1 Q1310.13 1555.68 1310.13 1564.43 Q1310.13 1573.16 1307.05 1577.77 Q1303.99 1582.35 1298.18 1582.35 Q1292.37 1582.35 1289.29 1577.77 Q1286.24 1573.16 1286.24 1564.43 Q1286.24 1555.68 1289.29 1551.1 Q1292.37 1546.49 1298.18 1546.49 Z" fill="#000000" fill-rule="evenodd" fill-opacity="1" /><path clip-path="url(#clip180)" d="M 0 0 M1316 1577.74 L1323.64 1577.74 L1323.64 1551.38 L1315.33 1553.05 L1315.33 1548.79 L1323.6 1547.12 L1328.27 1547.12 L1328.27 1577.74 L1335.91 1577.74 L1335.91 1581.68 L1316 1581.68 L1316 1577.74 Z" fill="#000000" fill-rule="evenodd" fill-opacity="1" /><path clip-path="url(#clip180)" d="M 0 0 M1350.98 1565.27 Q1347.65 1565.27 1345.73 1567.05 Q1343.83 1568.83 1343.83 1571.96 Q1343.83 1575.08 1345.73 1576.87 Q1347.65 1578.65 1350.98 1578.65 Q1354.31 1578.65 1356.24 1576.87 Q1358.16 1575.06 1358.16 1571.96 Q1358.16 1568.83 1356.24 1567.05 Q1354.34 1565.27 1350.98 1565.27 M1346.31 1563.28 Q1343.3 1562.54 1341.61 1560.48 Q1339.94 1558.42 1339.94 1555.45 Q1339.94 1551.31 1342.88 1548.9 Q1345.84 1546.49 1350.98 1546.49 Q1356.14 1546.49 1359.08 1548.9 Q1362.02 1551.31 1362.02 1555.45 Q1362.02 1558.42 1360.33 1560.48 Q1358.67 1562.54 1355.68 1563.28 Q1359.06 1564.06 1360.93 1566.36 Q1362.83 1568.65 1362.83 1571.96 Q1362.83 1576.98 1359.75 1579.67 Q1356.7 1582.35 1350.98 1582.35 Q1345.26 1582.35 1342.19 1579.67 Q1339.13 1576.98 1339.13 1571.96 Q1339.13 1568.65 1341.03 1566.36 Q1342.93 1564.06 1346.31 1563.28 M1344.59 1555.89 Q1344.59 1558.58 1346.26 1560.08 Q1347.95 1561.59 1350.98 1561.59 Q1353.99 1561.59 1355.68 1560.08 Q1357.39 1558.58 1357.39 1555.89 Q1357.39 1553.21 1355.68 1551.7 Q1353.99 1550.2 1350.98 1550.2 Q1347.95 1550.2 1346.26 1551.7 Q1344.59 1553.21 1344.59 1555.89 Z" fill="#000000" fill-rule="evenodd" fill-opacity="1" /><path clip-path="url(#clip180)" d="M 0 0 M1757.76 1577.74 L1774.08 1577.74 L1774.08 1581.68 L1752.14 1581.68 L1752.14 1577.74 Q1754.8 1574.99 1759.38 1570.36 Q1763.99 1565.71 1765.17 1564.37 Q1767.41 1561.84 1768.29 1560.11 Q1769.2 1558.35 1769.2 1556.66 Q1769.2 1553.9 1767.25 1552.17 Q1765.33 1550.43 1762.23 1550.43 Q1760.03 1550.43 1757.58 1551.19 Q1755.15 1551.96 1752.37 1553.51 L1752.37 1548.79 Q1755.19 1547.65 1757.65 1547.07 Q1760.1 1546.49 1762.14 1546.49 Q1767.51 1546.49 1770.7 1549.18 Q1773.89 1551.87 1773.89 1556.36 Q1773.89 1558.49 1773.08 1560.41 Q1772.3 1562.3 1770.19 1564.9 Q1769.61 1565.57 1766.51 1568.79 Q1763.41 1571.98 1757.76 1577.74 Z" fill="#000000" fill-rule="evenodd" fill-opacity="1" /><path clip-path="url(#clip180)" d="M 0 0 M1789.15 1550.2 Q1785.54 1550.2 1783.71 1553.76 Q1781.9 1557.31 1781.9 1564.43 Q1781.9 1571.54 1783.71 1575.11 Q1785.54 1578.65 1789.15 1578.65 Q1792.78 1578.65 1794.59 1575.11 Q1796.42 1571.54 1796.42 1564.43 Q1796.42 1557.31 1794.59 1553.76 Q1792.78 1550.2 1789.15 1550.2 M1789.15 1546.49 Q1794.96 1546.49 1798.02 1551.1 Q1801.09 1555.68 1801.09 1564.43 Q1801.09 1573.16 1798.02 1577.77 Q1794.96 1582.35 1789.15 1582.35 Q1783.34 1582.35 1780.26 1577.77 Q1777.21 1573.16 1777.21 1564.43 Q1777.21 1555.68 1780.26 1551.1 Q1783.34 1546.49 1789.15 1546.49 Z" fill="#000000" fill-rule="evenodd" fill-opacity="1" /><path clip-path="url(#clip180)" d="M 0 0 M1806.97 1577.74 L1814.61 1577.74 L1814.61 1551.38 L1806.3 1553.05 L1806.3 1548.79 L1814.57 1547.12 L1819.24 1547.12 L1819.24 1577.74 L1826.88 1577.74 L1826.88 1581.68 L1806.97 1581.68 L1806.97 1577.74 Z" fill="#000000" fill-rule="evenodd" fill-opacity="1" /><path clip-path="url(#clip180)" d="M 0 0 M1832.09 1580.96 L1832.09 1576.7 Q1833.85 1577.54 1835.65 1577.98 Q1837.46 1578.42 1839.2 1578.42 Q1843.83 1578.42 1846.26 1575.31 Q1848.71 1572.19 1849.06 1565.85 Q1847.71 1567.84 1845.65 1568.9 Q1843.59 1569.97 1841.09 1569.97 Q1835.91 1569.97 1832.88 1566.84 Q1829.87 1563.69 1829.87 1558.25 Q1829.87 1552.93 1833.02 1549.71 Q1836.16 1546.49 1841.39 1546.49 Q1847.39 1546.49 1850.54 1551.1 Q1853.71 1555.68 1853.71 1564.43 Q1853.71 1572.61 1849.82 1577.49 Q1845.95 1582.35 1839.4 1582.35 Q1837.64 1582.35 1835.84 1582 Q1834.03 1581.66 1832.09 1580.96 M1841.39 1566.31 Q1844.54 1566.31 1846.37 1564.16 Q1848.22 1562 1848.22 1558.25 Q1848.22 1554.53 1846.37 1552.37 Q1844.54 1550.2 1841.39 1550.2 Q1838.25 1550.2 1836.39 1552.37 Q1834.57 1554.53 1834.57 1558.25 Q1834.57 1562 1836.39 1564.16 Q1838.25 1566.31 1841.39 1566.31 Z" fill="#000000" fill-rule="evenodd" fill-opacity="1" /><path clip-path="url(#clip180)" d="M 0 0 M2248.78 1577.74 L2265.1 1577.74 L2265.1 1581.68 L2243.15 1581.68 L2243.15 1577.74 Q2245.81 1574.99 2250.4 1570.36 Q2255 1565.71 2256.18 1564.37 Q2258.43 1561.84 2259.31 1560.11 Q2260.21 1558.35 2260.21 1556.66 Q2260.21 1553.9 2258.27 1552.17 Q2256.35 1550.43 2253.24 1550.43 Q2251.04 1550.43 2248.59 1551.19 Q2246.16 1551.96 2243.38 1553.51 L2243.38 1548.79 Q2246.21 1547.65 2248.66 1547.07 Q2251.11 1546.49 2253.15 1546.49 Q2258.52 1546.49 2261.72 1549.18 Q2264.91 1551.87 2264.91 1556.36 Q2264.91 1558.49 2264.1 1560.41 Q2263.31 1562.3 2261.21 1564.9 Q2260.63 1565.57 2257.53 1568.79 Q2254.42 1571.98 2248.78 1577.74 Z" fill="#000000" fill-rule="evenodd" fill-opacity="1" /><path clip-path="url(#clip180)" d="M 0 0 M2280.16 1550.2 Q2276.55 1550.2 2274.72 1553.76 Q2272.92 1557.31 2272.92 1564.43 Q2272.92 1571.54 2274.72 1575.11 Q2276.55 1578.65 2280.16 1578.65 Q2283.8 1578.65 2285.6 1575.11 Q2287.43 1571.54 2287.43 1564.43 Q2287.43 1557.31 2285.6 1553.76 Q2283.8 1550.2 2280.16 1550.2 M2280.16 1546.49 Q2285.97 1546.49 2289.03 1551.1 Q2292.11 1555.68 2292.11 1564.43 Q2292.11 1573.16 2289.03 1577.77 Q2285.97 1582.35 2280.16 1582.35 Q2274.35 1582.35 2271.28 1577.77 Q2268.22 1573.16 2268.22 1564.43 Q2268.22 1555.68 2271.28 1551.1 Q2274.35 1546.49 2280.16 1546.49 Z" fill="#000000" fill-rule="evenodd" fill-opacity="1" /><path clip-path="url(#clip180)" d="M 0 0 M2301.21 1577.74 L2317.53 1577.74 L2317.53 1581.68 L2295.58 1581.68 L2295.58 1577.74 Q2298.24 1574.99 2302.83 1570.36 Q2307.43 1565.71 2308.61 1564.37 Q2310.86 1561.84 2311.74 1560.11 Q2312.64 1558.35 2312.64 1556.66 Q2312.64 1553.9 2310.7 1552.17 Q2308.78 1550.43 2305.67 1550.43 Q2303.47 1550.43 2301.02 1551.19 Q2298.59 1551.96 2295.81 1553.51 L2295.81 1548.79 Q2298.64 1547.65 2301.09 1547.07 Q2303.54 1546.49 2305.58 1546.49 Q2310.95 1546.49 2314.15 1549.18 Q2317.34 1551.87 2317.34 1556.36 Q2317.34 1558.49 2316.53 1560.41 Q2315.74 1562.3 2313.64 1564.9 Q2313.06 1565.57 2309.96 1568.79 Q2306.85 1571.98 2301.21 1577.74 Z" fill="#000000" fill-rule="evenodd" fill-opacity="1" /><path clip-path="url(#clip180)" d="M 0 0 M2332.59 1550.2 Q2328.98 1550.2 2327.16 1553.76 Q2325.35 1557.31 2325.35 1564.43 Q2325.35 1571.54 2327.16 1575.11 Q2328.98 1578.65 2332.59 1578.65 Q2336.23 1578.65 2338.03 1575.11 Q2339.86 1571.54 2339.86 1564.43 Q2339.86 1557.31 2338.03 1553.76 Q2336.23 1550.2 2332.59 1550.2 M2332.59 1546.49 Q2338.41 1546.49 2341.46 1551.1 Q2344.54 1555.68 2344.54 1564.43 Q2344.54 1573.16 2341.46 1577.77 Q2338.41 1582.35 2332.59 1582.35 Q2326.78 1582.35 2323.71 1577.77 Q2320.65 1573.16 2320.65 1564.43 Q2320.65 1555.68 2323.71 1551.1 Q2326.78 1546.49 2332.59 1546.49 Z" fill="#000000" fill-rule="evenodd" fill-opacity="1" /><polyline clip-path="url(#clip182)" style="stroke:#000000; stroke-width:2; stroke-opacity:0.1; fill:none" points="
  271.244,1302.55 2352.76,1302.55 
  "/>
<polyline clip-path="url(#clip182)" style="stroke:#000000; stroke-width:2; stroke-opacity:0.1; fill:none" points="
  271.244,914.13 2352.76,914.13 
  "/>
<polyline clip-path="url(#clip182)" style="stroke:#000000; stroke-width:2; stroke-opacity:0.1; fill:none" points="
  271.244,525.711 2352.76,525.711 
  "/>
<polyline clip-path="url(#clip182)" style="stroke:#000000; stroke-width:2; stroke-opacity:0.1; fill:none" points="
  271.244,137.293 2352.76,137.293 
  "/>
<polyline clip-path="url(#clip180)" style="stroke:#000000; stroke-width:4; stroke-opacity:1; fill:none" points="
  271.244,1521.01 271.244,47.2441 
  "/>
<polyline clip-path="url(#clip180)" style="stroke:#000000; stroke-width:4; stroke-opacity:1; fill:none" points="
  271.244,1302.55 296.222,1302.55 
  "/>
<polyline clip-path="url(#clip180)" style="stroke:#000000; stroke-width:4; stroke-opacity:1; fill:none" points="
  271.244,914.13 296.222,914.13 
  "/>
<polyline clip-path="url(#clip180)" style="stroke:#000000; stroke-width:4; stroke-opacity:1; fill:none" points="
  271.244,525.711 296.222,525.711 
  "/>
<polyline clip-path="url(#clip180)" style="stroke:#000000; stroke-width:4; stroke-opacity:1; fill:none" points="
  271.244,137.293 296.222,137.293 
  "/>
<path clip-path="url(#clip180)" d="M 0 0 M80.1523 1319.11 L80.1523 1314.85 Q81.9116 1315.68 83.7171 1316.12 Q85.5227 1316.56 87.2588 1316.56 Q91.8884 1316.56 94.3189 1313.46 Q96.7726 1310.34 97.1198 1303.99 Q95.7772 1305.99 93.7171 1307.05 Q91.6569 1308.11 89.1569 1308.11 Q83.9718 1308.11 80.9394 1304.99 Q77.9301 1301.84 77.9301 1296.4 Q77.9301 1291.08 81.0783 1287.86 Q84.2264 1284.64 89.4578 1284.64 Q95.4532 1284.64 98.6013 1289.25 Q101.773 1293.83 101.773 1302.58 Q101.773 1310.75 97.8837 1315.64 Q94.018 1320.5 87.4671 1320.5 Q85.7079 1320.5 83.9023 1320.15 Q82.0968 1319.8 80.1523 1319.11 M89.4578 1304.46 Q92.606 1304.46 94.4347 1302.3 Q96.2865 1300.15 96.2865 1296.4 Q96.2865 1292.68 94.4347 1290.52 Q92.606 1288.35 89.4578 1288.35 Q86.3097 1288.35 84.4579 1290.52 Q82.6292 1292.68 82.6292 1296.4 Q82.6292 1300.15 84.4579 1302.3 Q86.3097 1304.46 89.4578 1304.46 Z" fill="#000000" fill-rule="evenodd" fill-opacity="1" /><path clip-path="url(#clip180)" d="M 0 0 M110.87 1315.89 L127.189 1315.89 L127.189 1319.83 L105.245 1319.83 L105.245 1315.89 Q107.907 1313.14 112.49 1308.51 Q117.097 1303.86 118.277 1302.51 Q120.522 1299.99 121.402 1298.25 Q122.305 1296.49 122.305 1294.8 Q122.305 1292.05 120.36 1290.31 Q118.439 1288.58 115.337 1288.58 Q113.138 1288.58 110.685 1289.34 Q108.254 1290.11 105.476 1291.66 L105.476 1286.93 Q108.3 1285.8 110.754 1285.22 Q113.208 1284.64 115.245 1284.64 Q120.615 1284.64 123.81 1287.33 Q127.004 1290.01 127.004 1294.5 Q127.004 1296.63 126.194 1298.55 Q125.407 1300.45 123.3 1303.05 Q122.722 1303.72 119.62 1306.93 Q116.518 1310.13 110.87 1315.89 Z" fill="#000000" fill-rule="evenodd" fill-opacity="1" /><path clip-path="url(#clip180)" d="M 0 0 M142.258 1288.35 Q138.647 1288.35 136.819 1291.91 Q135.013 1295.45 135.013 1302.58 Q135.013 1309.69 136.819 1313.25 Q138.647 1316.8 142.258 1316.8 Q145.893 1316.8 147.698 1313.25 Q149.527 1309.69 149.527 1302.58 Q149.527 1295.45 147.698 1291.91 Q145.893 1288.35 142.258 1288.35 M142.258 1284.64 Q148.069 1284.64 151.124 1289.25 Q154.203 1293.83 154.203 1302.58 Q154.203 1311.31 151.124 1315.92 Q148.069 1320.5 142.258 1320.5 Q136.448 1320.5 133.37 1315.92 Q130.314 1311.31 130.314 1302.58 Q130.314 1293.83 133.37 1289.25 Q136.448 1284.64 142.258 1284.64 Z" fill="#000000" fill-rule="evenodd" fill-opacity="1" /><path clip-path="url(#clip180)" d="M 0 0 M169.272 1288.35 Q165.661 1288.35 163.832 1291.91 Q162.027 1295.45 162.027 1302.58 Q162.027 1309.69 163.832 1313.25 Q165.661 1316.8 169.272 1316.8 Q172.906 1316.8 174.712 1313.25 Q176.541 1309.69 176.541 1302.58 Q176.541 1295.45 174.712 1291.91 Q172.906 1288.35 169.272 1288.35 M169.272 1284.64 Q175.082 1284.64 178.138 1289.25 Q181.217 1293.83 181.217 1302.58 Q181.217 1311.31 178.138 1315.92 Q175.082 1320.5 169.272 1320.5 Q163.462 1320.5 160.383 1315.92 Q157.328 1311.31 157.328 1302.58 Q157.328 1293.83 160.383 1289.25 Q163.462 1284.64 169.272 1284.64 Z" fill="#000000" fill-rule="evenodd" fill-opacity="1" /><path clip-path="url(#clip180)" d="M 0 0 M196.286 1288.35 Q192.675 1288.35 190.846 1291.91 Q189.041 1295.45 189.041 1302.58 Q189.041 1309.69 190.846 1313.25 Q192.675 1316.8 196.286 1316.8 Q199.92 1316.8 201.726 1313.25 Q203.554 1309.69 203.554 1302.58 Q203.554 1295.45 201.726 1291.91 Q199.92 1288.35 196.286 1288.35 M196.286 1284.64 Q202.096 1284.64 205.152 1289.25 Q208.23 1293.83 208.23 1302.58 Q208.23 1311.31 205.152 1315.92 Q202.096 1320.5 196.286 1320.5 Q190.476 1320.5 187.397 1315.92 Q184.342 1311.31 184.342 1302.58 Q184.342 1293.83 187.397 1289.25 Q190.476 1284.64 196.286 1284.64 Z" fill="#000000" fill-rule="evenodd" fill-opacity="1" /><path clip-path="url(#clip180)" d="M 0 0 M223.3 1288.35 Q219.689 1288.35 217.86 1291.91 Q216.054 1295.45 216.054 1302.58 Q216.054 1309.69 217.86 1313.25 Q219.689 1316.8 223.3 1316.8 Q226.934 1316.8 228.739 1313.25 Q230.568 1309.69 230.568 1302.58 Q230.568 1295.45 228.739 1291.91 Q226.934 1288.35 223.3 1288.35 M223.3 1284.64 Q229.11 1284.64 232.165 1289.25 Q235.244 1293.83 235.244 1302.58 Q235.244 1311.31 232.165 1315.92 Q229.11 1320.5 223.3 1320.5 Q217.49 1320.5 214.411 1315.92 Q211.355 1311.31 211.355 1302.58 Q211.355 1293.83 214.411 1289.25 Q217.49 1284.64 223.3 1284.64 Z" fill="#000000" fill-rule="evenodd" fill-opacity="1" /><path clip-path="url(#clip180)" d="M 0 0 M78.069 930.692 L78.069 926.433 Q79.8283 927.266 81.6338 927.706 Q83.4394 928.146 85.1755 928.146 Q89.8051 928.146 92.2356 925.044 Q94.6893 921.919 95.0365 915.576 Q93.6939 917.567 91.6338 918.632 Q89.5736 919.697 87.0736 919.697 Q81.8884 919.697 78.856 916.572 Q75.8468 913.424 75.8468 907.984 Q75.8468 902.66 78.9949 899.442 Q82.1431 896.225 87.3745 896.225 Q93.3699 896.225 96.518 900.831 Q99.6893 905.414 99.6893 914.164 Q99.6893 922.336 95.8004 927.22 Q91.9347 932.081 85.3838 932.081 Q83.6245 932.081 81.819 931.734 Q80.0134 931.386 78.069 930.692 M87.3745 916.039 Q90.5226 916.039 92.3513 913.887 Q94.2032 911.734 94.2032 907.984 Q94.2032 904.257 92.3513 902.104 Q90.5226 899.928 87.3745 899.928 Q84.2264 899.928 82.3745 902.104 Q80.5458 904.257 80.5458 907.984 Q80.5458 911.734 82.3745 913.887 Q84.2264 916.039 87.3745 916.039 Z" fill="#000000" fill-rule="evenodd" fill-opacity="1" /><path clip-path="url(#clip180)" d="M 0 0 M117.606 900.924 L105.8 919.373 L117.606 919.373 L117.606 900.924 M116.379 896.85 L122.259 896.85 L122.259 919.373 L127.189 919.373 L127.189 923.261 L122.259 923.261 L122.259 931.41 L117.606 931.41 L117.606 923.261 L102.004 923.261 L102.004 918.748 L116.379 896.85 Z" fill="#000000" fill-rule="evenodd" fill-opacity="1" /><path clip-path="url(#clip180)" d="M 0 0 M142.258 899.928 Q138.647 899.928 136.819 903.493 Q135.013 907.035 135.013 914.164 Q135.013 921.271 136.819 924.836 Q138.647 928.377 142.258 928.377 Q145.893 928.377 147.698 924.836 Q149.527 921.271 149.527 914.164 Q149.527 907.035 147.698 903.493 Q145.893 899.928 142.258 899.928 M142.258 896.225 Q148.069 896.225 151.124 900.831 Q154.203 905.414 154.203 914.164 Q154.203 922.891 151.124 927.498 Q148.069 932.081 142.258 932.081 Q136.448 932.081 133.37 927.498 Q130.314 922.891 130.314 914.164 Q130.314 905.414 133.37 900.831 Q136.448 896.225 142.258 896.225 Z" fill="#000000" fill-rule="evenodd" fill-opacity="1" /><path clip-path="url(#clip180)" d="M 0 0 M169.272 899.928 Q165.661 899.928 163.832 903.493 Q162.027 907.035 162.027 914.164 Q162.027 921.271 163.832 924.836 Q165.661 928.377 169.272 928.377 Q172.906 928.377 174.712 924.836 Q176.541 921.271 176.541 914.164 Q176.541 907.035 174.712 903.493 Q172.906 899.928 169.272 899.928 M169.272 896.225 Q175.082 896.225 178.138 900.831 Q181.217 905.414 181.217 914.164 Q181.217 922.891 178.138 927.498 Q175.082 932.081 169.272 932.081 Q163.462 932.081 160.383 927.498 Q157.328 922.891 157.328 914.164 Q157.328 905.414 160.383 900.831 Q163.462 896.225 169.272 896.225 Z" fill="#000000" fill-rule="evenodd" fill-opacity="1" /><path clip-path="url(#clip180)" d="M 0 0 M196.286 899.928 Q192.675 899.928 190.846 903.493 Q189.041 907.035 189.041 914.164 Q189.041 921.271 190.846 924.836 Q192.675 928.377 196.286 928.377 Q199.92 928.377 201.726 924.836 Q203.554 921.271 203.554 914.164 Q203.554 907.035 201.726 903.493 Q199.92 899.928 196.286 899.928 M196.286 896.225 Q202.096 896.225 205.152 900.831 Q208.23 905.414 208.23 914.164 Q208.23 922.891 205.152 927.498 Q202.096 932.081 196.286 932.081 Q190.476 932.081 187.397 927.498 Q184.342 922.891 184.342 914.164 Q184.342 905.414 187.397 900.831 Q190.476 896.225 196.286 896.225 Z" fill="#000000" fill-rule="evenodd" fill-opacity="1" /><path clip-path="url(#clip180)" d="M 0 0 M223.3 899.928 Q219.689 899.928 217.86 903.493 Q216.054 907.035 216.054 914.164 Q216.054 921.271 217.86 924.836 Q219.689 928.377 223.3 928.377 Q226.934 928.377 228.739 924.836 Q230.568 921.271 230.568 914.164 Q230.568 907.035 228.739 903.493 Q226.934 899.928 223.3 899.928 M223.3 896.225 Q229.11 896.225 232.165 900.831 Q235.244 905.414 235.244 914.164 Q235.244 922.891 232.165 927.498 Q229.11 932.081 223.3 932.081 Q217.49 932.081 214.411 927.498 Q211.355 922.891 211.355 914.164 Q211.355 905.414 214.411 900.831 Q217.49 896.225 223.3 896.225 Z" fill="#000000" fill-rule="evenodd" fill-opacity="1" /><path clip-path="url(#clip180)" d="M 0 0 M78.3931 542.274 L78.3931 538.014 Q80.1523 538.848 81.9579 539.288 Q83.7634 539.727 85.4995 539.727 Q90.1291 539.727 92.5597 536.626 Q95.0134 533.501 95.3606 527.158 Q94.018 529.149 91.9578 530.214 Q89.8977 531.278 87.3977 531.278 Q82.2125 531.278 79.1801 528.153 Q76.1709 525.005 76.1709 519.566 Q76.1709 514.241 79.319 511.024 Q82.4671 507.806 87.6986 507.806 Q93.6939 507.806 96.8421 512.413 Q100.013 516.996 100.013 525.746 Q100.013 533.917 96.1245 538.802 Q92.2587 543.663 85.7079 543.663 Q83.9486 543.663 82.1431 543.315 Q80.3375 542.968 78.3931 542.274 M87.6986 527.621 Q90.8467 527.621 92.6754 525.468 Q94.5273 523.315 94.5273 519.566 Q94.5273 515.839 92.6754 513.686 Q90.8467 511.51 87.6986 511.51 Q84.5505 511.51 82.6986 513.686 Q80.8699 515.839 80.8699 519.566 Q80.8699 523.315 82.6986 525.468 Q84.5505 527.621 87.6986 527.621 Z" fill="#000000" fill-rule="evenodd" fill-opacity="1" /><path clip-path="url(#clip180)" d="M 0 0 M115.661 523.848 Q112.513 523.848 110.661 526.001 Q108.833 528.153 108.833 531.903 Q108.833 535.63 110.661 537.806 Q112.513 539.959 115.661 539.959 Q118.81 539.959 120.638 537.806 Q122.49 535.63 122.49 531.903 Q122.49 528.153 120.638 526.001 Q118.81 523.848 115.661 523.848 M124.944 509.195 L124.944 513.454 Q123.185 512.621 121.379 512.181 Q119.597 511.741 117.837 511.741 Q113.208 511.741 110.754 514.866 Q108.323 517.991 107.976 524.311 Q109.342 522.297 111.402 521.232 Q113.462 520.144 115.939 520.144 Q121.147 520.144 124.157 523.315 Q127.189 526.464 127.189 531.903 Q127.189 537.227 124.041 540.445 Q120.893 543.663 115.661 543.663 Q109.666 543.663 106.495 539.079 Q103.324 534.473 103.324 525.746 Q103.324 517.552 107.212 512.691 Q111.101 507.806 117.652 507.806 Q119.411 507.806 121.194 508.154 Q122.999 508.501 124.944 509.195 Z" fill="#000000" fill-rule="evenodd" fill-opacity="1" /><path clip-path="url(#clip180)" d="M 0 0 M142.258 511.51 Q138.647 511.51 136.819 515.075 Q135.013 518.616 135.013 525.746 Q135.013 532.852 136.819 536.417 Q138.647 539.959 142.258 539.959 Q145.893 539.959 147.698 536.417 Q149.527 532.852 149.527 525.746 Q149.527 518.616 147.698 515.075 Q145.893 511.51 142.258 511.51 M142.258 507.806 Q148.069 507.806 151.124 512.413 Q154.203 516.996 154.203 525.746 Q154.203 534.473 151.124 539.079 Q148.069 543.663 142.258 543.663 Q136.448 543.663 133.37 539.079 Q130.314 534.473 130.314 525.746 Q130.314 516.996 133.37 512.413 Q136.448 507.806 142.258 507.806 Z" fill="#000000" fill-rule="evenodd" fill-opacity="1" /><path clip-path="url(#clip180)" d="M 0 0 M169.272 511.51 Q165.661 511.51 163.832 515.075 Q162.027 518.616 162.027 525.746 Q162.027 532.852 163.832 536.417 Q165.661 539.959 169.272 539.959 Q172.906 539.959 174.712 536.417 Q176.541 532.852 176.541 525.746 Q176.541 518.616 174.712 515.075 Q172.906 511.51 169.272 511.51 M169.272 507.806 Q175.082 507.806 178.138 512.413 Q181.217 516.996 181.217 525.746 Q181.217 534.473 178.138 539.079 Q175.082 543.663 169.272 543.663 Q163.462 543.663 160.383 539.079 Q157.328 534.473 157.328 525.746 Q157.328 516.996 160.383 512.413 Q163.462 507.806 169.272 507.806 Z" fill="#000000" fill-rule="evenodd" fill-opacity="1" /><path clip-path="url(#clip180)" d="M 0 0 M196.286 511.51 Q192.675 511.51 190.846 515.075 Q189.041 518.616 189.041 525.746 Q189.041 532.852 190.846 536.417 Q192.675 539.959 196.286 539.959 Q199.92 539.959 201.726 536.417 Q203.554 532.852 203.554 525.746 Q203.554 518.616 201.726 515.075 Q199.92 511.51 196.286 511.51 M196.286 507.806 Q202.096 507.806 205.152 512.413 Q208.23 516.996 208.23 525.746 Q208.23 534.473 205.152 539.079 Q202.096 543.663 196.286 543.663 Q190.476 543.663 187.397 539.079 Q184.342 534.473 184.342 525.746 Q184.342 516.996 187.397 512.413 Q190.476 507.806 196.286 507.806 Z" fill="#000000" fill-rule="evenodd" fill-opacity="1" /><path clip-path="url(#clip180)" d="M 0 0 M223.3 511.51 Q219.689 511.51 217.86 515.075 Q216.054 518.616 216.054 525.746 Q216.054 532.852 217.86 536.417 Q219.689 539.959 223.3 539.959 Q226.934 539.959 228.739 536.417 Q230.568 532.852 230.568 525.746 Q230.568 518.616 228.739 515.075 Q226.934 511.51 223.3 511.51 M223.3 507.806 Q229.11 507.806 232.165 512.413 Q235.244 516.996 235.244 525.746 Q235.244 534.473 232.165 539.079 Q229.11 543.663 223.3 543.663 Q217.49 543.663 214.411 539.079 Q211.355 534.473 211.355 525.746 Q211.355 516.996 214.411 512.413 Q217.49 507.806 223.3 507.806 Z" fill="#000000" fill-rule="evenodd" fill-opacity="1" /><path clip-path="url(#clip180)" d="M 0 0 M78.6477 153.855 L78.6477 149.596 Q80.407 150.43 82.2125 150.869 Q84.0181 151.309 85.7542 151.309 Q90.3838 151.309 92.8143 148.207 Q95.268 145.082 95.6152 138.74 Q94.2726 140.731 92.2125 141.795 Q90.1523 142.86 87.6523 142.86 Q82.4671 142.86 79.4347 139.735 Q76.4255 136.587 76.4255 131.147 Q76.4255 125.823 79.5736 122.606 Q82.7218 119.388 87.9532 119.388 Q93.9486 119.388 97.0967 123.995 Q100.268 128.578 100.268 137.328 Q100.268 145.499 96.3791 150.383 Q92.5134 155.244 85.9625 155.244 Q84.2032 155.244 82.3977 154.897 Q80.5921 154.55 78.6477 153.855 M87.9532 139.203 Q91.1013 139.203 92.93 137.05 Q94.7819 134.897 94.7819 131.147 Q94.7819 127.42 92.93 125.268 Q91.1013 123.092 87.9532 123.092 Q84.8051 123.092 82.9532 125.268 Q81.1245 127.42 81.1245 131.147 Q81.1245 134.897 82.9532 137.05 Q84.8051 139.203 87.9532 139.203 Z" fill="#000000" fill-rule="evenodd" fill-opacity="1" /><path clip-path="url(#clip180)" d="M 0 0 M115.337 138.161 Q112.004 138.161 110.083 139.943 Q108.185 141.726 108.185 144.851 Q108.185 147.976 110.083 149.758 Q112.004 151.541 115.337 151.541 Q118.671 151.541 120.592 149.758 Q122.513 147.953 122.513 144.851 Q122.513 141.726 120.592 139.943 Q118.694 138.161 115.337 138.161 M110.661 136.17 Q107.652 135.43 105.962 133.369 Q104.296 131.309 104.296 128.346 Q104.296 124.203 107.236 121.795 Q110.198 119.388 115.337 119.388 Q120.499 119.388 123.439 121.795 Q126.379 124.203 126.379 128.346 Q126.379 131.309 124.689 133.369 Q123.022 135.43 120.036 136.17 Q123.416 136.957 125.291 139.249 Q127.189 141.541 127.189 144.851 Q127.189 149.874 124.11 152.559 Q121.055 155.244 115.337 155.244 Q109.62 155.244 106.541 152.559 Q103.486 149.874 103.486 144.851 Q103.486 141.541 105.384 139.249 Q107.282 136.957 110.661 136.17 M108.948 128.786 Q108.948 131.471 110.615 132.976 Q112.305 134.481 115.337 134.481 Q118.347 134.481 120.036 132.976 Q121.749 131.471 121.749 128.786 Q121.749 126.101 120.036 124.596 Q118.347 123.092 115.337 123.092 Q112.305 123.092 110.615 124.596 Q108.948 126.101 108.948 128.786 Z" fill="#000000" fill-rule="evenodd" fill-opacity="1" /><path clip-path="url(#clip180)" d="M 0 0 M142.258 123.092 Q138.647 123.092 136.819 126.657 Q135.013 130.198 135.013 137.328 Q135.013 144.434 136.819 147.999 Q138.647 151.541 142.258 151.541 Q145.893 151.541 147.698 147.999 Q149.527 144.434 149.527 137.328 Q149.527 130.198 147.698 126.657 Q145.893 123.092 142.258 123.092 M142.258 119.388 Q148.069 119.388 151.124 123.995 Q154.203 128.578 154.203 137.328 Q154.203 146.055 151.124 150.661 Q148.069 155.244 142.258 155.244 Q136.448 155.244 133.37 150.661 Q130.314 146.055 130.314 137.328 Q130.314 128.578 133.37 123.995 Q136.448 119.388 142.258 119.388 Z" fill="#000000" fill-rule="evenodd" fill-opacity="1" /><path clip-path="url(#clip180)" d="M 0 0 M169.272 123.092 Q165.661 123.092 163.832 126.657 Q162.027 130.198 162.027 137.328 Q162.027 144.434 163.832 147.999 Q165.661 151.541 169.272 151.541 Q172.906 151.541 174.712 147.999 Q176.541 144.434 176.541 137.328 Q176.541 130.198 174.712 126.657 Q172.906 123.092 169.272 123.092 M169.272 119.388 Q175.082 119.388 178.138 123.995 Q181.217 128.578 181.217 137.328 Q181.217 146.055 178.138 150.661 Q175.082 155.244 169.272 155.244 Q163.462 155.244 160.383 150.661 Q157.328 146.055 157.328 137.328 Q157.328 128.578 160.383 123.995 Q163.462 119.388 169.272 119.388 Z" fill="#000000" fill-rule="evenodd" fill-opacity="1" /><path clip-path="url(#clip180)" d="M 0 0 M196.286 123.092 Q192.675 123.092 190.846 126.657 Q189.041 130.198 189.041 137.328 Q189.041 144.434 190.846 147.999 Q192.675 151.541 196.286 151.541 Q199.92 151.541 201.726 147.999 Q203.554 144.434 203.554 137.328 Q203.554 130.198 201.726 126.657 Q199.92 123.092 196.286 123.092 M196.286 119.388 Q202.096 119.388 205.152 123.995 Q208.23 128.578 208.23 137.328 Q208.23 146.055 205.152 150.661 Q202.096 155.244 196.286 155.244 Q190.476 155.244 187.397 150.661 Q184.342 146.055 184.342 137.328 Q184.342 128.578 187.397 123.995 Q190.476 119.388 196.286 119.388 Z" fill="#000000" fill-rule="evenodd" fill-opacity="1" /><path clip-path="url(#clip180)" d="M 0 0 M223.3 123.092 Q219.689 123.092 217.86 126.657 Q216.054 130.198 216.054 137.328 Q216.054 144.434 217.86 147.999 Q219.689 151.541 223.3 151.541 Q226.934 151.541 228.739 147.999 Q230.568 144.434 230.568 137.328 Q230.568 130.198 228.739 126.657 Q226.934 123.092 223.3 123.092 M223.3 119.388 Q229.11 119.388 232.165 123.995 Q235.244 128.578 235.244 137.328 Q235.244 146.055 232.165 150.661 Q229.11 155.244 223.3 155.244 Q217.49 155.244 214.411 150.661 Q211.355 146.055 211.355 137.328 Q211.355 128.578 214.411 123.995 Q217.49 119.388 223.3 119.388 Z" fill="#000000" fill-rule="evenodd" fill-opacity="1" /><polyline clip-path="url(#clip182)" style="stroke:#009af9; stroke-width:12; stroke-opacity:1; fill:none" points="
  330.155,1479.3 821.077,1064.39 1312,625.263 1802.92,923.452 2293.85,88.9544 
  "/>
<polyline clip-path="url(#clip182)" style="stroke:#e26f46; stroke-width:12; stroke-opacity:1; fill:none" points="
  330.155,1358.87 821.077,1017.55 1312,638.081 1802.92,985.89 2293.85,187.982 
  "/>
<polyline clip-path="url(#clip182)" style="stroke:#3da44d; stroke-width:12; stroke-opacity:1; fill:none" points="
  330.155,816.326 821.077,764.045 1312,596.734 1802.92,1155.84 2293.85,826.192 
  "/>
<path clip-path="url(#clip180)" d="
M1620.27 1471.88 L2283.37 1471.88 L2283.37 1229.96 L1620.27 1229.96  Z
  " fill="#ffffff" fill-rule="evenodd" fill-opacity="1"/>
<polyline clip-path="url(#clip180)" style="stroke:#000000; stroke-width:4; stroke-opacity:1; fill:none" points="
  1620.27,1471.88 2283.37,1471.88 2283.37,1229.96 1620.27,1229.96 1620.27,1471.88 
  "/>
<polyline clip-path="url(#clip180)" style="stroke:#009af9; stroke-width:4; stroke-opacity:1; fill:none" points="
  1643.39,1290.44 1782.16,1290.44 
  "/>
<path clip-path="url(#clip180)" d="M 0 0 M1824.2 1285.73 L1824.2 1271.7 L1828.46 1271.7 L1828.46 1307.72 L1824.2 1307.72 L1824.2 1303.83 Q1822.86 1306.15 1820.8 1307.28 Q1818.76 1308.39 1815.89 1308.39 Q1811.19 1308.39 1808.23 1304.64 Q1805.29 1300.89 1805.29 1294.78 Q1805.29 1288.67 1808.23 1284.92 Q1811.19 1281.17 1815.89 1281.17 Q1818.76 1281.17 1820.8 1282.31 Q1822.86 1283.42 1824.2 1285.73 M1809.69 1294.78 Q1809.69 1299.48 1811.61 1302.17 Q1813.55 1304.83 1816.93 1304.83 Q1820.31 1304.83 1822.26 1302.17 Q1824.2 1299.48 1824.2 1294.78 Q1824.2 1290.08 1822.26 1287.42 Q1820.31 1284.74 1816.93 1284.74 Q1813.55 1284.74 1811.61 1287.42 Q1809.69 1290.08 1809.69 1294.78 Z" fill="#000000" fill-rule="evenodd" fill-opacity="1" /><path clip-path="url(#clip180)" d="M 0 0 M1844.71 1294.69 Q1839.55 1294.69 1837.56 1295.87 Q1835.57 1297.05 1835.57 1299.9 Q1835.57 1302.17 1837.05 1303.51 Q1838.55 1304.83 1841.12 1304.83 Q1844.66 1304.83 1846.79 1302.33 Q1848.95 1299.81 1848.95 1295.64 L1848.95 1294.69 L1844.71 1294.69 M1853.21 1292.93 L1853.21 1307.72 L1848.95 1307.72 L1848.95 1303.79 Q1847.49 1306.15 1845.31 1307.28 Q1843.14 1308.39 1839.99 1308.39 Q1836.01 1308.39 1833.65 1306.17 Q1831.31 1303.93 1831.31 1300.18 Q1831.31 1295.8 1834.23 1293.58 Q1837.16 1291.36 1842.97 1291.36 L1848.95 1291.36 L1848.95 1290.94 Q1848.95 1288 1847 1286.4 Q1845.08 1284.78 1841.59 1284.78 Q1839.36 1284.78 1837.26 1285.32 Q1835.15 1285.85 1833.21 1286.91 L1833.21 1282.98 Q1835.54 1282.07 1837.74 1281.63 Q1839.94 1281.17 1842.03 1281.17 Q1847.65 1281.17 1850.43 1284.09 Q1853.21 1287 1853.21 1292.93 Z" fill="#000000" fill-rule="evenodd" fill-opacity="1" /><path clip-path="url(#clip180)" d="M 0 0 M1861.89 1274.44 L1861.89 1281.8 L1870.66 1281.8 L1870.66 1285.11 L1861.89 1285.11 L1861.89 1299.18 Q1861.89 1302.35 1862.74 1303.25 Q1863.62 1304.16 1866.29 1304.16 L1870.66 1304.16 L1870.66 1307.72 L1866.29 1307.72 Q1861.35 1307.72 1859.48 1305.89 Q1857.6 1304.04 1857.6 1299.18 L1857.6 1285.11 L1854.48 1285.11 L1854.48 1281.8 L1857.6 1281.8 L1857.6 1274.44 L1861.89 1274.44 Z" fill="#000000" fill-rule="evenodd" fill-opacity="1" /><path clip-path="url(#clip180)" d="M 0 0 M1886.91 1294.69 Q1881.75 1294.69 1879.76 1295.87 Q1877.77 1297.05 1877.77 1299.9 Q1877.77 1302.17 1879.25 1303.51 Q1880.75 1304.83 1883.32 1304.83 Q1886.86 1304.83 1888.99 1302.33 Q1891.15 1299.81 1891.15 1295.64 L1891.15 1294.69 L1886.91 1294.69 M1895.41 1292.93 L1895.41 1307.72 L1891.15 1307.72 L1891.15 1303.79 Q1889.69 1306.15 1887.51 1307.28 Q1885.34 1308.39 1882.19 1308.39 Q1878.21 1308.39 1875.85 1306.17 Q1873.51 1303.93 1873.51 1300.18 Q1873.51 1295.8 1876.42 1293.58 Q1879.36 1291.36 1885.17 1291.36 L1891.15 1291.36 L1891.15 1290.94 Q1891.15 1288 1889.2 1286.4 Q1887.28 1284.78 1883.78 1284.78 Q1881.56 1284.78 1879.46 1285.32 Q1877.35 1285.85 1875.41 1286.91 L1875.41 1282.98 Q1877.74 1282.07 1879.94 1281.63 Q1882.14 1281.17 1884.22 1281.17 Q1889.85 1281.17 1892.63 1284.09 Q1895.41 1287 1895.41 1292.93 Z" fill="#000000" fill-rule="evenodd" fill-opacity="1" /><polyline clip-path="url(#clip180)" style="stroke:#e26f46; stroke-width:4; stroke-opacity:1; fill:none" points="
  1643.39,1350.92 1782.16,1350.92 
  "/>
<path clip-path="url(#clip180)" d="M 0 0 M1805.29 1333.64 L1811.59 1333.64 L1826.91 1362.55 L1826.91 1333.64 L1831.45 1333.64 L1831.45 1368.2 L1825.15 1368.2 L1809.83 1339.29 L1809.83 1368.2 L1805.29 1368.2 L1805.29 1333.64 Z" fill="#000000" fill-rule="evenodd" fill-opacity="1" /><path clip-path="url(#clip180)" d="M 0 0 M1862.77 1355.17 Q1857.6 1355.17 1855.61 1356.35 Q1853.62 1357.53 1853.62 1360.38 Q1853.62 1362.65 1855.1 1363.99 Q1856.61 1365.31 1859.18 1365.31 Q1862.72 1365.31 1864.85 1362.81 Q1867 1360.29 1867 1356.12 L1867 1355.17 L1862.77 1355.17 M1871.26 1353.41 L1871.26 1368.2 L1867 1368.2 L1867 1364.27 Q1865.54 1366.63 1863.37 1367.76 Q1861.19 1368.87 1858.04 1368.87 Q1854.06 1368.87 1851.7 1366.65 Q1849.36 1364.41 1849.36 1360.66 Q1849.36 1356.28 1852.28 1354.06 Q1855.22 1351.84 1861.03 1351.84 L1867 1351.84 L1867 1351.42 Q1867 1348.48 1865.06 1346.88 Q1863.14 1345.26 1859.64 1345.26 Q1857.42 1345.26 1855.31 1345.8 Q1853.21 1346.33 1851.26 1347.39 L1851.26 1343.46 Q1853.6 1342.55 1855.8 1342.11 Q1858 1341.65 1860.08 1341.65 Q1865.71 1341.65 1868.48 1344.57 Q1871.26 1347.48 1871.26 1353.41 Z" fill="#000000" fill-rule="evenodd" fill-opacity="1" /><path clip-path="url(#clip180)" d="M 0 0 M1892.79 1346.21 L1892.79 1332.18 L1897.05 1332.18 L1897.05 1368.2 L1892.79 1368.2 L1892.79 1364.31 Q1891.45 1366.63 1889.39 1367.76 Q1887.35 1368.87 1884.48 1368.87 Q1879.78 1368.87 1876.82 1365.12 Q1873.88 1361.37 1873.88 1355.26 Q1873.88 1349.15 1876.82 1345.4 Q1879.78 1341.65 1884.48 1341.65 Q1887.35 1341.65 1889.39 1342.79 Q1891.45 1343.9 1892.79 1346.21 M1878.28 1355.26 Q1878.28 1359.96 1880.2 1362.65 Q1882.14 1365.31 1885.52 1365.31 Q1888.9 1365.31 1890.85 1362.65 Q1892.79 1359.96 1892.79 1355.26 Q1892.79 1350.56 1890.85 1347.9 Q1888.9 1345.22 1885.52 1345.22 Q1882.14 1345.22 1880.2 1347.9 Q1878.28 1350.56 1878.28 1355.26 Z" fill="#000000" fill-rule="evenodd" fill-opacity="1" /><path clip-path="url(#clip180)" d="M 0 0 M1901.52 1342.28 L1905.78 1342.28 L1905.78 1368.67 Q1905.78 1373.62 1903.88 1375.84 Q1902 1378.06 1897.81 1378.06 L1896.19 1378.06 L1896.19 1374.45 L1897.33 1374.45 Q1899.76 1374.45 1900.64 1373.32 Q1901.52 1372.21 1901.52 1368.67 L1901.52 1342.28 M1901.52 1332.18 L1905.78 1332.18 L1905.78 1337.58 L1901.52 1337.58 L1901.52 1332.18 Z" fill="#000000" fill-rule="evenodd" fill-opacity="1" /><path clip-path="url(#clip180)" d="M 0 0 M1909.8 1357.97 L1909.8 1342.28 L1914.06 1342.28 L1914.06 1357.81 Q1914.06 1361.49 1915.5 1363.34 Q1916.93 1365.17 1919.8 1365.17 Q1923.25 1365.17 1925.24 1362.97 Q1927.26 1360.77 1927.26 1356.98 L1927.26 1342.28 L1931.52 1342.28 L1931.52 1368.2 L1927.26 1368.2 L1927.26 1364.22 Q1925.71 1366.58 1923.65 1367.74 Q1921.61 1368.87 1918.9 1368.87 Q1914.43 1368.87 1912.12 1366.1 Q1909.8 1363.32 1909.8 1357.97 M1920.52 1341.65 L1920.52 1341.65 Z" fill="#000000" fill-rule="evenodd" fill-opacity="1" /><path clip-path="url(#clip180)" d="M 0 0 M1952.51 1343.04 L1952.51 1347.07 Q1950.71 1346.14 1948.76 1345.68 Q1946.82 1345.22 1944.73 1345.22 Q1941.56 1345.22 1939.97 1346.19 Q1938.39 1347.16 1938.39 1349.11 Q1938.39 1350.59 1939.53 1351.44 Q1940.66 1352.28 1944.09 1353.04 L1945.54 1353.36 Q1950.08 1354.34 1951.98 1356.12 Q1953.9 1357.88 1953.9 1361.05 Q1953.9 1364.66 1951.03 1366.77 Q1948.18 1368.87 1943.18 1368.87 Q1941.1 1368.87 1938.83 1368.46 Q1936.59 1368.06 1934.09 1367.25 L1934.09 1362.86 Q1936.45 1364.08 1938.74 1364.71 Q1941.03 1365.31 1943.28 1365.31 Q1946.28 1365.31 1947.9 1364.29 Q1949.53 1363.25 1949.53 1361.37 Q1949.53 1359.64 1948.34 1358.71 Q1947.19 1357.79 1943.23 1356.93 L1941.75 1356.58 Q1937.79 1355.75 1936.03 1354.04 Q1934.27 1352.3 1934.27 1349.29 Q1934.27 1345.63 1936.86 1343.64 Q1939.46 1341.65 1944.22 1341.65 Q1946.59 1341.65 1948.67 1342 Q1950.75 1342.35 1952.51 1343.04 Z" fill="#000000" fill-rule="evenodd" fill-opacity="1" /><path clip-path="url(#clip180)" d="M 0 0 M1962.58 1334.92 L1962.58 1342.28 L1971.35 1342.28 L1971.35 1345.59 L1962.58 1345.59 L1962.58 1359.66 Q1962.58 1362.83 1963.44 1363.73 Q1964.32 1364.64 1966.98 1364.64 L1971.35 1364.64 L1971.35 1368.2 L1966.98 1368.2 Q1962.05 1368.2 1960.17 1366.37 Q1958.3 1364.52 1958.3 1359.66 L1958.3 1345.59 L1955.17 1345.59 L1955.17 1342.28 L1958.3 1342.28 L1958.3 1334.92 L1962.58 1334.92 Z" fill="#000000" fill-rule="evenodd" fill-opacity="1" /><path clip-path="url(#clip180)" d="M 0 0 M1998 1354.17 L1998 1356.26 L1978.41 1356.26 Q1978.69 1360.66 1981.05 1362.97 Q1983.44 1365.26 1987.67 1365.26 Q1990.13 1365.26 1992.42 1364.66 Q1994.73 1364.06 1997 1362.86 L1997 1366.88 Q1994.71 1367.86 1992.3 1368.36 Q1989.9 1368.87 1987.42 1368.87 Q1981.21 1368.87 1977.58 1365.26 Q1973.97 1361.65 1973.97 1355.49 Q1973.97 1349.13 1977.4 1345.4 Q1980.84 1341.65 1986.68 1341.65 Q1991.91 1341.65 1994.94 1345.03 Q1998 1348.39 1998 1354.17 M1993.74 1352.92 Q1993.69 1349.43 1991.77 1347.35 Q1989.87 1345.26 1986.72 1345.26 Q1983.16 1345.26 1981.01 1347.28 Q1978.88 1349.29 1978.55 1352.95 L1993.74 1352.92 Z" fill="#000000" fill-rule="evenodd" fill-opacity="1" /><path clip-path="url(#clip180)" d="M 0 0 M2019.52 1346.21 L2019.52 1332.18 L2023.78 1332.18 L2023.78 1368.2 L2019.52 1368.2 L2019.52 1364.31 Q2018.18 1366.63 2016.12 1367.76 Q2014.09 1368.87 2011.21 1368.87 Q2006.52 1368.87 2003.55 1365.12 Q2000.61 1361.37 2000.61 1355.26 Q2000.61 1349.15 2003.55 1345.4 Q2006.52 1341.65 2011.21 1341.65 Q2014.09 1341.65 2016.12 1342.79 Q2018.18 1343.9 2019.52 1346.21 M2005.01 1355.26 Q2005.01 1359.96 2006.93 1362.65 Q2008.88 1365.31 2012.26 1365.31 Q2015.64 1365.31 2017.58 1362.65 Q2019.52 1359.96 2019.52 1355.26 Q2019.52 1350.56 2017.58 1347.9 Q2015.64 1345.22 2012.26 1345.22 Q2008.88 1345.22 2006.93 1347.9 Q2005.01 1350.56 2005.01 1355.26 Z" fill="#000000" fill-rule="evenodd" fill-opacity="1" /><polyline clip-path="url(#clip180)" style="stroke:#3da44d; stroke-width:4; stroke-opacity:1; fill:none" points="
  1643.39,1411.4 1782.16,1411.4 
  "/>
<path clip-path="url(#clip180)" d="M 0 0 M1818.69 1415.65 Q1813.53 1415.65 1811.54 1416.83 Q1809.55 1418.01 1809.55 1420.86 Q1809.55 1423.13 1811.03 1424.47 Q1812.54 1425.79 1815.1 1425.79 Q1818.65 1425.79 1820.78 1423.29 Q1822.93 1420.77 1822.93 1416.6 L1822.93 1415.65 L1818.69 1415.65 M1827.19 1413.89 L1827.19 1428.68 L1822.93 1428.68 L1822.93 1424.75 Q1821.47 1427.11 1819.29 1428.24 Q1817.12 1429.35 1813.97 1429.35 Q1809.99 1429.35 1807.63 1427.13 Q1805.29 1424.89 1805.29 1421.14 Q1805.29 1416.76 1808.21 1414.54 Q1811.15 1412.32 1816.96 1412.32 L1822.93 1412.32 L1822.93 1411.9 Q1822.93 1408.96 1820.98 1407.36 Q1819.06 1405.74 1815.57 1405.74 Q1813.35 1405.74 1811.24 1406.28 Q1809.13 1406.81 1807.19 1407.87 L1807.19 1403.94 Q1809.53 1403.03 1811.73 1402.59 Q1813.92 1402.13 1816.01 1402.13 Q1821.63 1402.13 1824.41 1405.05 Q1827.19 1407.96 1827.19 1413.89 Z" fill="#000000" fill-rule="evenodd" fill-opacity="1" /><path clip-path="url(#clip180)" d="M 0 0 M1848.72 1415.42 Q1848.72 1410.79 1846.79 1408.24 Q1844.9 1405.7 1841.45 1405.7 Q1838.02 1405.7 1836.1 1408.24 Q1834.2 1410.79 1834.2 1415.42 Q1834.2 1420.03 1836.1 1422.57 Q1838.02 1425.12 1841.45 1425.12 Q1844.9 1425.12 1846.79 1422.57 Q1848.72 1420.03 1848.72 1415.42 M1852.97 1425.46 Q1852.97 1432.09 1850.04 1435.3 Q1847.1 1438.54 1841.03 1438.54 Q1838.79 1438.54 1836.79 1438.2 Q1834.8 1437.87 1832.93 1437.18 L1832.93 1433.03 Q1834.8 1434.05 1836.63 1434.54 Q1838.46 1435.02 1840.36 1435.02 Q1844.55 1435.02 1846.63 1432.83 Q1848.72 1430.65 1848.72 1426.23 L1848.72 1424.12 Q1847.4 1426.41 1845.34 1427.55 Q1843.28 1428.68 1840.41 1428.68 Q1835.64 1428.68 1832.72 1425.05 Q1829.8 1421.41 1829.8 1415.42 Q1829.8 1409.4 1832.72 1405.77 Q1835.64 1402.13 1840.41 1402.13 Q1843.28 1402.13 1845.34 1403.27 Q1847.4 1404.4 1848.72 1406.69 L1848.72 1402.76 L1852.97 1402.76 L1852.97 1425.46 Z" fill="#000000" fill-rule="evenodd" fill-opacity="1" /><path clip-path="url(#clip180)" d="M 0 0 M1879.62 1414.65 L1879.62 1416.74 L1860.04 1416.74 Q1860.31 1421.14 1862.67 1423.45 Q1865.06 1425.74 1869.29 1425.74 Q1871.75 1425.74 1874.04 1425.14 Q1876.35 1424.54 1878.62 1423.34 L1878.62 1427.36 Q1876.33 1428.34 1873.92 1428.84 Q1871.52 1429.35 1869.04 1429.35 Q1862.84 1429.35 1859.2 1425.74 Q1855.59 1422.13 1855.59 1415.97 Q1855.59 1409.61 1859.02 1405.88 Q1862.47 1402.13 1868.3 1402.13 Q1873.53 1402.13 1876.56 1405.51 Q1879.62 1408.87 1879.62 1414.65 M1875.36 1413.4 Q1875.31 1409.91 1873.39 1407.83 Q1871.49 1405.74 1868.35 1405.74 Q1864.78 1405.74 1862.63 1407.76 Q1860.5 1409.77 1860.17 1413.43 L1875.36 1413.4 Z" fill="#000000" fill-rule="evenodd" fill-opacity="1" /><path clip-path="url(#clip180)" d="M 0 0 M1881.93 1413.8 L1894.41 1413.8 L1894.41 1417.59 L1881.93 1417.59 L1881.93 1413.8 Z" fill="#000000" fill-rule="evenodd" fill-opacity="1" /><path clip-path="url(#clip180)" d="M 0 0 M1915.94 1415.42 Q1915.94 1410.79 1914.02 1408.24 Q1912.12 1405.7 1908.67 1405.7 Q1905.24 1405.7 1903.32 1408.24 Q1901.42 1410.79 1901.42 1415.42 Q1901.42 1420.03 1903.32 1422.57 Q1905.24 1425.12 1908.67 1425.12 Q1912.12 1425.12 1914.02 1422.57 Q1915.94 1420.03 1915.94 1415.42 M1920.2 1425.46 Q1920.2 1432.09 1917.26 1435.3 Q1914.32 1438.54 1908.25 1438.54 Q1906.01 1438.54 1904.02 1438.2 Q1902.03 1437.87 1900.15 1437.18 L1900.15 1433.03 Q1902.03 1434.05 1903.85 1434.54 Q1905.68 1435.02 1907.58 1435.02 Q1911.77 1435.02 1913.85 1432.83 Q1915.94 1430.65 1915.94 1426.23 L1915.94 1424.12 Q1914.62 1426.41 1912.56 1427.55 Q1910.5 1428.68 1907.63 1428.68 Q1902.86 1428.68 1899.94 1425.05 Q1897.03 1421.41 1897.03 1415.42 Q1897.03 1409.4 1899.94 1405.77 Q1902.86 1402.13 1907.63 1402.13 Q1910.5 1402.13 1912.56 1403.27 Q1914.62 1404.4 1915.94 1406.69 L1915.94 1402.76 L1920.2 1402.76 L1920.2 1425.46 Z" fill="#000000" fill-rule="evenodd" fill-opacity="1" /><path clip-path="url(#clip180)" d="M 0 0 M1946.84 1414.65 L1946.84 1416.74 L1927.26 1416.74 Q1927.53 1421.14 1929.9 1423.45 Q1932.28 1425.74 1936.52 1425.74 Q1938.97 1425.74 1941.26 1425.14 Q1943.58 1424.54 1945.84 1423.34 L1945.84 1427.36 Q1943.55 1428.34 1941.15 1428.84 Q1938.74 1429.35 1936.26 1429.35 Q1930.06 1429.35 1926.42 1425.74 Q1922.81 1422.13 1922.81 1415.97 Q1922.81 1409.61 1926.24 1405.88 Q1929.69 1402.13 1935.52 1402.13 Q1940.75 1402.13 1943.78 1405.51 Q1946.84 1408.87 1946.84 1414.65 M1942.58 1413.4 Q1942.53 1409.91 1940.61 1407.83 Q1938.72 1405.74 1935.57 1405.74 Q1932 1405.74 1929.85 1407.76 Q1927.72 1409.77 1927.4 1413.43 L1942.58 1413.4 Z" fill="#000000" fill-rule="evenodd" fill-opacity="1" /><path clip-path="url(#clip180)" d="M 0 0 M1972.86 1413.03 L1972.86 1428.68 L1968.6 1428.68 L1968.6 1413.17 Q1968.6 1409.49 1967.16 1407.66 Q1965.73 1405.84 1962.86 1405.84 Q1959.41 1405.84 1957.42 1408.03 Q1955.43 1410.23 1955.43 1414.03 L1955.43 1428.68 L1951.15 1428.68 L1951.15 1402.76 L1955.43 1402.76 L1955.43 1406.78 Q1956.96 1404.45 1959.02 1403.29 Q1961.1 1402.13 1963.81 1402.13 Q1968.28 1402.13 1970.57 1404.91 Q1972.86 1407.66 1972.86 1413.03 Z" fill="#000000" fill-rule="evenodd" fill-opacity="1" /><path clip-path="url(#clip180)" d="M 0 0 M1994.39 1406.69 L1994.39 1392.66 L1998.65 1392.66 L1998.65 1428.68 L1994.39 1428.68 L1994.39 1424.79 Q1993.04 1427.11 1990.98 1428.24 Q1988.95 1429.35 1986.08 1429.35 Q1981.38 1429.35 1978.41 1425.6 Q1975.47 1421.85 1975.47 1415.74 Q1975.47 1409.63 1978.41 1405.88 Q1981.38 1402.13 1986.08 1402.13 Q1988.95 1402.13 1990.98 1403.27 Q1993.04 1404.38 1994.39 1406.69 M1979.87 1415.74 Q1979.87 1420.44 1981.79 1423.13 Q1983.74 1425.79 1987.12 1425.79 Q1990.5 1425.79 1992.44 1423.13 Q1994.39 1420.44 1994.39 1415.74 Q1994.39 1411.04 1992.44 1408.38 Q1990.5 1405.7 1987.12 1405.7 Q1983.74 1405.7 1981.79 1408.38 Q1979.87 1411.04 1979.87 1415.74 Z" fill="#000000" fill-rule="evenodd" fill-opacity="1" /><path clip-path="url(#clip180)" d="M 0 0 M2025.29 1414.65 L2025.29 1416.74 L2005.71 1416.74 Q2005.98 1421.14 2008.34 1423.45 Q2010.73 1425.74 2014.96 1425.74 Q2017.42 1425.74 2019.71 1425.14 Q2022.02 1424.54 2024.29 1423.34 L2024.29 1427.36 Q2022 1428.34 2019.59 1428.84 Q2017.19 1429.35 2014.71 1429.35 Q2008.51 1429.35 2004.87 1425.74 Q2001.26 1422.13 2001.26 1415.97 Q2001.26 1409.61 2004.69 1405.88 Q2008.14 1402.13 2013.97 1402.13 Q2019.2 1402.13 2022.23 1405.51 Q2025.29 1408.87 2025.29 1414.65 M2021.03 1413.4 Q2020.98 1409.91 2019.06 1407.83 Q2017.16 1405.74 2014.02 1405.74 Q2010.45 1405.74 2008.3 1407.76 Q2006.17 1409.77 2005.84 1413.43 L2021.03 1413.4 Z" fill="#000000" fill-rule="evenodd" fill-opacity="1" /><path clip-path="url(#clip180)" d="M 0 0 M2044.78 1406.74 Q2044.06 1406.32 2043.21 1406.14 Q2042.37 1405.93 2041.35 1405.93 Q2037.74 1405.93 2035.8 1408.29 Q2033.88 1410.63 2033.88 1415.03 L2033.88 1428.68 L2029.59 1428.68 L2029.59 1402.76 L2033.88 1402.76 L2033.88 1406.78 Q2035.22 1404.42 2037.37 1403.29 Q2039.52 1402.13 2042.6 1402.13 Q2043.04 1402.13 2043.58 1402.2 Q2044.11 1402.25 2044.76 1402.36 L2044.78 1406.74 Z" fill="#000000" fill-rule="evenodd" fill-opacity="1" /><path clip-path="url(#clip180)" d="M 0 0 M2076.1 1415.65 Q2070.94 1415.65 2068.95 1416.83 Q2066.96 1418.01 2066.96 1420.86 Q2066.96 1423.13 2068.44 1424.47 Q2069.94 1425.79 2072.51 1425.79 Q2076.05 1425.79 2078.18 1423.29 Q2080.33 1420.77 2080.33 1416.6 L2080.33 1415.65 L2076.1 1415.65 M2084.59 1413.89 L2084.59 1428.68 L2080.33 1428.68 L2080.33 1424.75 Q2078.88 1427.11 2076.7 1428.24 Q2074.52 1429.35 2071.38 1429.35 Q2067.4 1429.35 2065.03 1427.13 Q2062.7 1424.89 2062.7 1421.14 Q2062.7 1416.76 2065.61 1414.54 Q2068.55 1412.32 2074.36 1412.32 L2080.33 1412.32 L2080.33 1411.9 Q2080.33 1408.96 2078.39 1407.36 Q2076.47 1405.74 2072.97 1405.74 Q2070.75 1405.74 2068.65 1406.28 Q2066.54 1406.81 2064.59 1407.87 L2064.59 1403.94 Q2066.93 1403.03 2069.13 1402.59 Q2071.33 1402.13 2073.41 1402.13 Q2079.04 1402.13 2081.82 1405.05 Q2084.59 1407.96 2084.59 1413.89 Z" fill="#000000" fill-rule="evenodd" fill-opacity="1" /><path clip-path="url(#clip180)" d="M 0 0 M2106.12 1406.69 L2106.12 1392.66 L2110.38 1392.66 L2110.38 1428.68 L2106.12 1428.68 L2106.12 1424.79 Q2104.78 1427.11 2102.72 1428.24 Q2100.68 1429.35 2097.81 1429.35 Q2093.11 1429.35 2090.15 1425.6 Q2087.21 1421.85 2087.21 1415.74 Q2087.21 1409.63 2090.15 1405.88 Q2093.11 1402.13 2097.81 1402.13 Q2100.68 1402.13 2102.72 1403.27 Q2104.78 1404.38 2106.12 1406.69 M2091.61 1415.74 Q2091.61 1420.44 2093.53 1423.13 Q2095.47 1425.79 2098.85 1425.79 Q2102.23 1425.79 2104.18 1423.13 Q2106.12 1420.44 2106.12 1415.74 Q2106.12 1411.04 2104.18 1408.38 Q2102.23 1405.7 2098.85 1405.7 Q2095.47 1405.7 2093.53 1408.38 Q2091.61 1411.04 2091.61 1415.74 Z" fill="#000000" fill-rule="evenodd" fill-opacity="1" /><path clip-path="url(#clip180)" d="M 0 0 M2114.85 1402.76 L2119.11 1402.76 L2119.11 1429.15 Q2119.11 1434.1 2117.21 1436.32 Q2115.33 1438.54 2111.14 1438.54 L2109.52 1438.54 L2109.52 1434.93 L2110.66 1434.93 Q2113.09 1434.93 2113.97 1433.8 Q2114.85 1432.69 2114.85 1429.15 L2114.85 1402.76 M2114.85 1392.66 L2119.11 1392.66 L2119.11 1398.06 L2114.85 1398.06 L2114.85 1392.66 Z" fill="#000000" fill-rule="evenodd" fill-opacity="1" /><path clip-path="url(#clip180)" d="M 0 0 M2123.14 1418.45 L2123.14 1402.76 L2127.39 1402.76 L2127.39 1418.29 Q2127.39 1421.97 2128.83 1423.82 Q2130.27 1425.65 2133.14 1425.65 Q2136.58 1425.65 2138.58 1423.45 Q2140.59 1421.25 2140.59 1417.46 L2140.59 1402.76 L2144.85 1402.76 L2144.85 1428.68 L2140.59 1428.68 L2140.59 1424.7 Q2139.04 1427.06 2136.98 1428.22 Q2134.94 1429.35 2132.23 1429.35 Q2127.77 1429.35 2125.45 1426.58 Q2123.14 1423.8 2123.14 1418.45 M2133.85 1402.13 L2133.85 1402.13 Z" fill="#000000" fill-rule="evenodd" fill-opacity="1" /><path clip-path="url(#clip180)" d="M 0 0 M2165.84 1403.52 L2165.84 1407.55 Q2164.04 1406.62 2162.09 1406.16 Q2160.15 1405.7 2158.07 1405.7 Q2154.89 1405.7 2153.3 1406.67 Q2151.72 1407.64 2151.72 1409.59 Q2151.72 1411.07 2152.86 1411.92 Q2153.99 1412.76 2157.42 1413.52 L2158.88 1413.84 Q2163.41 1414.82 2165.31 1416.6 Q2167.23 1418.36 2167.23 1421.53 Q2167.23 1425.14 2164.36 1427.25 Q2161.51 1429.35 2156.51 1429.35 Q2154.43 1429.35 2152.16 1428.94 Q2149.92 1428.54 2147.42 1427.73 L2147.42 1423.34 Q2149.78 1424.56 2152.07 1425.19 Q2154.36 1425.79 2156.61 1425.79 Q2159.62 1425.79 2161.24 1424.77 Q2162.86 1423.73 2162.86 1421.85 Q2162.86 1420.12 2161.68 1419.19 Q2160.52 1418.27 2156.56 1417.41 L2155.08 1417.06 Q2151.12 1416.23 2149.36 1414.52 Q2147.6 1412.78 2147.6 1409.77 Q2147.6 1406.11 2150.2 1404.12 Q2152.79 1402.13 2157.56 1402.13 Q2159.92 1402.13 2162 1402.48 Q2164.08 1402.83 2165.84 1403.52 Z" fill="#000000" fill-rule="evenodd" fill-opacity="1" /><path clip-path="url(#clip180)" d="M 0 0 M2175.91 1395.4 L2175.91 1402.76 L2184.69 1402.76 L2184.69 1406.07 L2175.91 1406.07 L2175.91 1420.14 Q2175.91 1423.31 2176.77 1424.21 Q2177.65 1425.12 2180.31 1425.12 L2184.69 1425.12 L2184.69 1428.68 L2180.31 1428.68 Q2175.38 1428.68 2173.51 1426.85 Q2171.63 1425 2171.63 1420.14 L2171.63 1406.07 L2168.51 1406.07 L2168.51 1402.76 L2171.63 1402.76 L2171.63 1395.4 L2175.91 1395.4 Z" fill="#000000" fill-rule="evenodd" fill-opacity="1" /><path clip-path="url(#clip180)" d="M 0 0 M2211.33 1414.65 L2211.33 1416.74 L2191.75 1416.74 Q2192.02 1421.14 2194.39 1423.45 Q2196.77 1425.74 2201.01 1425.74 Q2203.46 1425.74 2205.75 1425.14 Q2208.07 1424.54 2210.33 1423.34 L2210.33 1427.36 Q2208.04 1428.34 2205.64 1428.84 Q2203.23 1429.35 2200.75 1429.35 Q2194.55 1429.35 2190.91 1425.74 Q2187.3 1422.13 2187.3 1415.97 Q2187.3 1409.61 2190.73 1405.88 Q2194.18 1402.13 2200.01 1402.13 Q2205.24 1402.13 2208.27 1405.51 Q2211.33 1408.87 2211.33 1414.65 M2207.07 1413.4 Q2207.02 1409.91 2205.1 1407.83 Q2203.2 1405.74 2200.06 1405.74 Q2196.49 1405.74 2194.34 1407.76 Q2192.21 1409.77 2191.89 1413.43 L2207.07 1413.4 Z" fill="#000000" fill-rule="evenodd" fill-opacity="1" /><path clip-path="url(#clip180)" d="M 0 0 M2232.86 1406.69 L2232.86 1392.66 L2237.12 1392.66 L2237.12 1428.68 L2232.86 1428.68 L2232.86 1424.79 Q2231.51 1427.11 2229.45 1428.24 Q2227.42 1429.35 2224.55 1429.35 Q2219.85 1429.35 2216.88 1425.6 Q2213.95 1421.85 2213.95 1415.74 Q2213.95 1409.63 2216.88 1405.88 Q2219.85 1402.13 2224.55 1402.13 Q2227.42 1402.13 2229.45 1403.27 Q2231.51 1404.38 2232.86 1406.69 M2218.34 1415.74 Q2218.34 1420.44 2220.26 1423.13 Q2222.21 1425.79 2225.59 1425.79 Q2228.97 1425.79 2230.91 1423.13 Q2232.86 1420.44 2232.86 1415.74 Q2232.86 1411.04 2230.91 1408.38 Q2228.97 1405.7 2225.59 1405.7 Q2222.21 1405.7 2220.26 1408.38 Q2218.34 1411.04 2218.34 1415.74 Z" fill="#000000" fill-rule="evenodd" fill-opacity="1" /></svg>
