<?xml version="1.0" encoding="utf-8"?>
<svg xmlns="http://www.w3.org/2000/svg" xmlns:xlink="http://www.w3.org/1999/xlink" width="600" height="400" viewBox="0 0 2400 1600">
<defs>
  <clipPath id="clip410">
    <rect x="0" y="0" width="2400" height="1600"/>
  </clipPath>
</defs>
<path clip-path="url(#clip410)" d="
M0 1600 L2400 1600 L2400 0 L0 0  Z
  " fill="#ffffff" fill-rule="evenodd" fill-opacity="1"/>
<defs>
  <clipPath id="clip411">
    <rect x="480" y="0" width="1681" height="1600"/>
  </clipPath>
</defs>
<path clip-path="url(#clip410)" d="
M271.244 1505.26 L2352.76 1505.26 L2352.76 62.9921 L271.244 62.9921  Z
  " fill="#ffffff" fill-rule="evenodd" fill-opacity="1"/>
<defs>
  <clipPath id="clip412">
    <rect x="271" y="62" width="2083" height="1443"/>
  </clipPath>
</defs>
<polyline clip-path="url(#clip412)" style="stroke:#000000; stroke-width:2; stroke-opacity:0.1; fill:none" points="
  330.155,1505.26 330.155,62.9921 
  "/>
<polyline clip-path="url(#clip412)" style="stroke:#000000; stroke-width:2; stroke-opacity:0.1; fill:none" points="
  508.672,1505.26 508.672,62.9921 
  "/>
<polyline clip-path="url(#clip412)" style="stroke:#000000; stroke-width:2; stroke-opacity:0.1; fill:none" points="
  687.189,1505.26 687.189,62.9921 
  "/>
<polyline clip-path="url(#clip412)" style="stroke:#000000; stroke-width:2; stroke-opacity:0.1; fill:none" points="
  865.707,1505.26 865.707,62.9921 
  "/>
<polyline clip-path="url(#clip412)" style="stroke:#000000; stroke-width:2; stroke-opacity:0.1; fill:none" points="
  1044.22,1505.26 1044.22,62.9921 
  "/>
<polyline clip-path="url(#clip412)" style="stroke:#000000; stroke-width:2; stroke-opacity:0.1; fill:none" points="
  1222.74,1505.26 1222.74,62.9921 
  "/>
<polyline clip-path="url(#clip412)" style="stroke:#000000; stroke-width:2; stroke-opacity:0.1; fill:none" points="
  1401.26,1505.26 1401.26,62.9921 
  "/>
<polyline clip-path="url(#clip412)" style="stroke:#000000; stroke-width:2; stroke-opacity:0.1; fill:none" points="
  1579.78,1505.26 1579.78,62.9921 
  "/>
<polyline clip-path="url(#clip412)" style="stroke:#000000; stroke-width:2; stroke-opacity:0.1; fill:none" points="
  1758.29,1505.26 1758.29,62.9921 
  "/>
<polyline clip-path="url(#clip412)" style="stroke:#000000; stroke-width:2; stroke-opacity:0.1; fill:none" points="
  1936.81,1505.26 1936.81,62.9921 
  "/>
<polyline clip-path="url(#clip412)" style="stroke:#000000; stroke-width:2; stroke-opacity:0.1; fill:none" points="
  2115.33,1505.26 2115.33,62.9921 
  "/>
<polyline clip-path="url(#clip412)" style="stroke:#000000; stroke-width:2; stroke-opacity:0.1; fill:none" points="
  2293.85,1505.26 2293.85,62.9921 
  "/>
<polyline clip-path="url(#clip410)" style="stroke:#000000; stroke-width:4; stroke-opacity:1; fill:none" points="
  271.244,1505.26 2352.76,1505.26 
  "/>
<polyline clip-path="url(#clip410)" style="stroke:#000000; stroke-width:4; stroke-opacity:1; fill:none" points="
  330.155,1505.26 330.155,1487.95 
  "/>
<polyline clip-path="url(#clip410)" style="stroke:#000000; stroke-width:4; stroke-opacity:1; fill:none" points="
  508.672,1505.26 508.672,1487.95 
  "/>
<polyline clip-path="url(#clip410)" style="stroke:#000000; stroke-width:4; stroke-opacity:1; fill:none" points="
  687.189,1505.26 687.189,1487.95 
  "/>
<polyline clip-path="url(#clip410)" style="stroke:#000000; stroke-width:4; stroke-opacity:1; fill:none" points="
  865.707,1505.26 865.707,1487.95 
  "/>
<polyline clip-path="url(#clip410)" style="stroke:#000000; stroke-width:4; stroke-opacity:1; fill:none" points="
  1044.22,1505.26 1044.22,1487.95 
  "/>
<polyline clip-path="url(#clip410)" style="stroke:#000000; stroke-width:4; stroke-opacity:1; fill:none" points="
  1222.74,1505.26 1222.74,1487.95 
  "/>
<polyline clip-path="url(#clip410)" style="stroke:#000000; stroke-width:4; stroke-opacity:1; fill:none" points="
  1401.26,1505.26 1401.26,1487.95 
  "/>
<polyline clip-path="url(#clip410)" style="stroke:#000000; stroke-width:4; stroke-opacity:1; fill:none" points="
  1579.78,1505.26 1579.78,1487.95 
  "/>
<polyline clip-path="url(#clip410)" style="stroke:#000000; stroke-width:4; stroke-opacity:1; fill:none" points="
  1758.29,1505.26 1758.29,1487.95 
  "/>
<polyline clip-path="url(#clip410)" style="stroke:#000000; stroke-width:4; stroke-opacity:1; fill:none" points="
  1936.81,1505.26 1936.81,1487.95 
  "/>
<polyline clip-path="url(#clip410)" style="stroke:#000000; stroke-width:4; stroke-opacity:1; fill:none" points="
  2115.33,1505.26 2115.33,1487.95 
  "/>
<polyline clip-path="url(#clip410)" style="stroke:#000000; stroke-width:4; stroke-opacity:1; fill:none" points="
  2293.85,1505.26 2293.85,1487.95 
  "/>
<path clip-path="url(#clip410)" d="M 0 0 M320.537 1562 L328.176 1562 L328.176 1535.63 L319.866 1537.3 L319.866 1533.04 L328.129 1531.37 L332.805 1531.37 L332.805 1562 L340.444 1562 L340.444 1565.93 L320.537 1565.93 L320.537 1562 Z" fill="#000000" fill-rule="evenodd" fill-opacity="1" /><path clip-path="url(#clip410)" d="M 0 0 M503.325 1562 L519.644 1562 L519.644 1565.93 L497.7 1565.93 L497.7 1562 Q500.362 1559.24 504.945 1554.61 Q509.552 1549.96 510.732 1548.62 Q512.978 1546.09 513.857 1544.36 Q514.76 1542.6 514.76 1540.91 Q514.76 1538.15 512.816 1536.42 Q510.894 1534.68 507.792 1534.68 Q505.593 1534.68 503.14 1535.45 Q500.709 1536.21 497.931 1537.76 L497.931 1533.04 Q500.755 1531.9 503.209 1531.33 Q505.663 1530.75 507.7 1530.75 Q513.07 1530.75 516.265 1533.43 Q519.459 1536.12 519.459 1540.61 Q519.459 1542.74 518.649 1544.66 Q517.862 1546.56 515.755 1549.15 Q515.177 1549.82 512.075 1553.04 Q508.973 1556.23 503.325 1562 Z" fill="#000000" fill-rule="evenodd" fill-opacity="1" /><path clip-path="url(#clip410)" d="M 0 0 M691.437 1547.3 Q694.794 1548.02 696.669 1550.28 Q698.567 1552.55 698.567 1555.89 Q698.567 1561 695.048 1563.8 Q691.53 1566.6 685.048 1566.6 Q682.872 1566.6 680.558 1566.16 Q678.266 1565.75 675.812 1564.89 L675.812 1560.38 Q677.757 1561.51 680.071 1562.09 Q682.386 1562.67 684.909 1562.67 Q689.307 1562.67 691.599 1560.93 Q693.914 1559.2 693.914 1555.89 Q693.914 1552.83 691.761 1551.12 Q689.632 1549.38 685.812 1549.38 L681.784 1549.38 L681.784 1545.54 L685.997 1545.54 Q689.446 1545.54 691.275 1544.17 Q693.104 1542.78 693.104 1540.19 Q693.104 1537.53 691.206 1536.12 Q689.331 1534.68 685.812 1534.68 Q683.891 1534.68 681.692 1535.1 Q679.493 1535.52 676.854 1536.39 L676.854 1532.23 Q679.516 1531.49 681.831 1531.12 Q684.169 1530.75 686.229 1530.75 Q691.553 1530.75 694.655 1533.18 Q697.756 1535.58 697.756 1539.71 Q697.756 1542.58 696.113 1544.57 Q694.469 1546.53 691.437 1547.3 Z" fill="#000000" fill-rule="evenodd" fill-opacity="1" /><path clip-path="url(#clip410)" d="M 0 0 M868.716 1535.45 L856.91 1553.89 L868.716 1553.89 L868.716 1535.45 M867.489 1531.37 L873.369 1531.37 L873.369 1553.89 L878.299 1553.89 L878.299 1557.78 L873.369 1557.78 L873.369 1565.93 L868.716 1565.93 L868.716 1557.78 L853.114 1557.78 L853.114 1553.27 L867.489 1531.37 Z" fill="#000000" fill-rule="evenodd" fill-opacity="1" /><path clip-path="url(#clip410)" d="M 0 0 M1034.5 1531.37 L1052.86 1531.37 L1052.86 1535.31 L1038.78 1535.31 L1038.78 1543.78 Q1039.8 1543.43 1040.82 1543.27 Q1041.84 1543.08 1042.86 1543.08 Q1048.65 1543.08 1052.02 1546.26 Q1055.4 1549.43 1055.4 1554.84 Q1055.4 1560.42 1051.93 1563.52 Q1048.46 1566.6 1042.14 1566.6 Q1039.96 1566.6 1037.7 1566.23 Q1035.45 1565.86 1033.04 1565.12 L1033.04 1560.42 Q1035.13 1561.56 1037.35 1562.11 Q1039.57 1562.67 1042.05 1562.67 Q1046.05 1562.67 1048.39 1560.56 Q1050.73 1558.46 1050.73 1554.84 Q1050.73 1551.23 1048.39 1549.13 Q1046.05 1547.02 1042.05 1547.02 Q1040.17 1547.02 1038.3 1547.44 Q1036.45 1547.85 1034.5 1548.73 L1034.5 1531.37 Z" fill="#000000" fill-rule="evenodd" fill-opacity="1" /><path clip-path="url(#clip410)" d="M 0 0 M1223.15 1546.79 Q1220 1546.79 1218.15 1548.94 Q1216.32 1551.09 1216.32 1554.84 Q1216.32 1558.57 1218.15 1560.75 Q1220 1562.9 1223.15 1562.9 Q1226.29 1562.9 1228.12 1560.75 Q1229.98 1558.57 1229.98 1554.84 Q1229.98 1551.09 1228.12 1548.94 Q1226.29 1546.79 1223.15 1546.79 M1232.43 1532.14 L1232.43 1536.39 Q1230.67 1535.56 1228.86 1535.12 Q1227.08 1534.68 1225.32 1534.68 Q1220.69 1534.68 1218.24 1537.81 Q1215.81 1540.93 1215.46 1547.25 Q1216.83 1545.24 1218.89 1544.17 Q1220.95 1543.08 1223.42 1543.08 Q1228.63 1543.08 1231.64 1546.26 Q1234.67 1549.4 1234.67 1554.84 Q1234.67 1560.17 1231.53 1563.39 Q1228.38 1566.6 1223.15 1566.6 Q1217.15 1566.6 1213.98 1562.02 Q1210.81 1557.41 1210.81 1548.69 Q1210.81 1540.49 1214.7 1535.63 Q1218.59 1530.75 1225.14 1530.75 Q1226.9 1530.75 1228.68 1531.09 Q1230.48 1531.44 1232.43 1532.14 Z" fill="#000000" fill-rule="evenodd" fill-opacity="1" /><path clip-path="url(#clip410)" d="M 0 0 M1390.15 1531.37 L1412.37 1531.37 L1412.37 1533.36 L1399.82 1565.93 L1394.94 1565.93 L1406.74 1535.31 L1390.15 1535.31 L1390.15 1531.37 Z" fill="#000000" fill-rule="evenodd" fill-opacity="1" /><path clip-path="url(#clip410)" d="M 0 0 M1579.78 1549.52 Q1576.44 1549.52 1574.52 1551.3 Q1572.62 1553.08 1572.62 1556.21 Q1572.62 1559.33 1574.52 1561.12 Q1576.44 1562.9 1579.78 1562.9 Q1583.11 1562.9 1585.03 1561.12 Q1586.95 1559.31 1586.95 1556.21 Q1586.95 1553.08 1585.03 1551.3 Q1583.13 1549.52 1579.78 1549.52 M1575.1 1547.53 Q1572.09 1546.79 1570.4 1544.73 Q1568.73 1542.67 1568.73 1539.71 Q1568.73 1535.56 1571.67 1533.15 Q1574.64 1530.75 1579.78 1530.75 Q1584.94 1530.75 1587.88 1533.15 Q1590.82 1535.56 1590.82 1539.71 Q1590.82 1542.67 1589.13 1544.73 Q1587.46 1546.79 1584.48 1547.53 Q1587.85 1548.32 1589.73 1550.61 Q1591.63 1552.9 1591.63 1556.21 Q1591.63 1561.23 1588.55 1563.92 Q1585.49 1566.6 1579.78 1566.6 Q1574.06 1566.6 1570.98 1563.92 Q1567.92 1561.23 1567.92 1556.21 Q1567.92 1552.9 1569.82 1550.61 Q1571.72 1548.32 1575.1 1547.53 M1573.39 1540.14 Q1573.39 1542.83 1575.05 1544.33 Q1576.74 1545.84 1579.78 1545.84 Q1582.79 1545.84 1584.48 1544.33 Q1586.19 1542.83 1586.19 1540.14 Q1586.19 1537.46 1584.48 1535.96 Q1582.79 1534.45 1579.78 1534.45 Q1576.74 1534.45 1575.05 1535.96 Q1573.39 1537.46 1573.39 1540.14 Z" fill="#000000" fill-rule="evenodd" fill-opacity="1" /><path clip-path="url(#clip410)" d="M 0 0 M1748.59 1565.21 L1748.59 1560.96 Q1750.35 1561.79 1752.16 1562.23 Q1753.96 1562.67 1755.7 1562.67 Q1760.33 1562.67 1762.76 1559.57 Q1765.21 1556.44 1765.56 1550.1 Q1764.22 1552.09 1762.16 1553.15 Q1760.1 1554.22 1757.6 1554.22 Q1752.41 1554.22 1749.38 1551.09 Q1746.37 1547.95 1746.37 1542.51 Q1746.37 1537.18 1749.52 1533.96 Q1752.67 1530.75 1757.9 1530.75 Q1763.9 1530.75 1767.04 1535.35 Q1770.21 1539.94 1770.21 1548.69 Q1770.21 1556.86 1766.33 1561.74 Q1762.46 1566.6 1755.91 1566.6 Q1754.15 1566.6 1752.34 1566.26 Q1750.54 1565.91 1748.59 1565.21 M1757.9 1550.56 Q1761.05 1550.56 1762.88 1548.41 Q1764.73 1546.26 1764.73 1542.51 Q1764.73 1538.78 1762.88 1536.63 Q1761.05 1534.45 1757.9 1534.45 Q1754.75 1534.45 1752.9 1536.63 Q1751.07 1538.78 1751.07 1542.51 Q1751.07 1546.26 1752.9 1548.41 Q1754.75 1550.56 1757.9 1550.56 Z" fill="#000000" fill-rule="evenodd" fill-opacity="1" /><path clip-path="url(#clip410)" d="M 0 0 M1913.69 1562 L1921.32 1562 L1921.32 1535.63 L1913.01 1537.3 L1913.01 1533.04 L1921.28 1531.37 L1925.95 1531.37 L1925.95 1562 L1933.59 1562 L1933.59 1565.93 L1913.69 1565.93 L1913.69 1562 Z" fill="#000000" fill-rule="evenodd" fill-opacity="1" /><path clip-path="url(#clip410)" d="M 0 0 M1948.66 1534.45 Q1945.05 1534.45 1943.22 1538.02 Q1941.42 1541.56 1941.42 1548.69 Q1941.42 1555.79 1943.22 1559.36 Q1945.05 1562.9 1948.66 1562.9 Q1952.3 1562.9 1954.1 1559.36 Q1955.93 1555.79 1955.93 1548.69 Q1955.93 1541.56 1954.1 1538.02 Q1952.3 1534.45 1948.66 1534.45 M1948.66 1530.75 Q1954.47 1530.75 1957.53 1535.35 Q1960.61 1539.94 1960.61 1548.69 Q1960.61 1557.41 1957.53 1562.02 Q1954.47 1566.6 1948.66 1566.6 Q1942.85 1566.6 1939.77 1562.02 Q1936.72 1557.41 1936.72 1548.69 Q1936.72 1539.94 1939.77 1535.35 Q1942.85 1530.75 1948.66 1530.75 Z" fill="#000000" fill-rule="evenodd" fill-opacity="1" /><path clip-path="url(#clip410)" d="M 0 0 M2092.82 1562 L2100.46 1562 L2100.46 1535.63 L2092.15 1537.3 L2092.15 1533.04 L2100.41 1531.37 L2105.08 1531.37 L2105.08 1562 L2112.72 1562 L2112.72 1565.93 L2092.82 1565.93 L2092.82 1562 Z" fill="#000000" fill-rule="evenodd" fill-opacity="1" /><path clip-path="url(#clip410)" d="M 0 0 M2118.6 1562 L2126.24 1562 L2126.24 1535.63 L2117.93 1537.3 L2117.93 1533.04 L2126.2 1531.37 L2130.87 1531.37 L2130.87 1562 L2138.51 1562 L2138.51 1565.93 L2118.6 1565.93 L2118.6 1562 Z" fill="#000000" fill-rule="evenodd" fill-opacity="1" /><path clip-path="url(#clip410)" d="M 0 0 M2271.52 1562 L2279.16 1562 L2279.16 1535.63 L2270.85 1537.3 L2270.85 1533.04 L2279.11 1531.37 L2283.79 1531.37 L2283.79 1562 L2291.43 1562 L2291.43 1565.93 L2271.52 1565.93 L2271.52 1562 Z" fill="#000000" fill-rule="evenodd" fill-opacity="1" /><path clip-path="url(#clip410)" d="M 0 0 M2300.52 1562 L2316.84 1562 L2316.84 1565.93 L2294.9 1565.93 L2294.9 1562 Q2297.56 1559.24 2302.14 1554.61 Q2306.75 1549.96 2307.93 1548.62 Q2310.18 1546.09 2311.06 1544.36 Q2311.96 1542.6 2311.96 1540.91 Q2311.96 1538.15 2310.01 1536.42 Q2308.09 1534.68 2304.99 1534.68 Q2302.79 1534.68 2300.34 1535.45 Q2297.91 1536.21 2295.13 1537.76 L2295.13 1533.04 Q2297.95 1531.9 2300.41 1531.33 Q2302.86 1530.75 2304.9 1530.75 Q2310.27 1530.75 2313.46 1533.43 Q2316.66 1536.12 2316.66 1540.61 Q2316.66 1542.74 2315.85 1544.66 Q2315.06 1546.56 2312.95 1549.15 Q2312.38 1549.82 2309.27 1553.04 Q2306.17 1556.23 2300.52 1562 Z" fill="#000000" fill-rule="evenodd" fill-opacity="1" /><path clip-path="url(#clip410)" d="M 0 0 M1225.2 1602.6 L1234.78 1602.6 L1246.91 1634.94 L1259.1 1602.6 L1268.68 1602.6 L1268.68 1650.12 L1262.41 1650.12 L1262.41 1608.4 L1250.16 1640.99 L1243.7 1640.99 L1231.44 1608.4 L1231.44 1650.12 L1225.2 1650.12 L1225.2 1602.6 Z" fill="#000000" fill-rule="evenodd" fill-opacity="1" /><path clip-path="url(#clip410)" d="M 0 0 M1288.64 1618.58 Q1283.93 1618.58 1281.19 1622.27 Q1278.45 1625.93 1278.45 1632.33 Q1278.45 1638.73 1281.16 1642.42 Q1283.9 1646.08 1288.64 1646.08 Q1293.32 1646.08 1296.05 1642.39 Q1298.79 1638.7 1298.79 1632.33 Q1298.79 1626 1296.05 1622.31 Q1293.32 1618.58 1288.64 1618.58 M1288.64 1613.62 Q1296.28 1613.62 1300.64 1618.58 Q1305 1623.55 1305 1632.33 Q1305 1641.08 1300.64 1646.08 Q1296.28 1651.05 1288.64 1651.05 Q1280.97 1651.05 1276.61 1646.08 Q1272.28 1641.08 1272.28 1632.33 Q1272.28 1623.55 1276.61 1618.58 Q1280.97 1613.62 1288.64 1613.62 Z" fill="#000000" fill-rule="evenodd" fill-opacity="1" /><path clip-path="url(#clip410)" d="M 0 0 M1340.77 1628.61 L1340.77 1650.12 L1334.92 1650.12 L1334.92 1628.8 Q1334.92 1623.74 1332.94 1621.22 Q1330.97 1618.71 1327.02 1618.71 Q1322.28 1618.71 1319.54 1621.73 Q1316.81 1624.76 1316.81 1629.98 L1316.81 1650.12 L1310.92 1650.12 L1310.92 1614.48 L1316.81 1614.48 L1316.81 1620.01 Q1318.91 1616.8 1321.74 1615.21 Q1324.6 1613.62 1328.33 1613.62 Q1334.47 1613.62 1337.62 1617.44 Q1340.77 1621.22 1340.77 1628.61 Z" fill="#000000" fill-rule="evenodd" fill-opacity="1" /><path clip-path="url(#clip410)" d="M 0 0 M1363.12 1632.2 Q1356.02 1632.2 1353.28 1633.83 Q1350.54 1635.45 1350.54 1639.37 Q1350.54 1642.48 1352.58 1644.33 Q1354.65 1646.15 1358.18 1646.15 Q1363.05 1646.15 1365.98 1642.71 Q1368.94 1639.24 1368.94 1633.51 L1368.94 1632.2 L1363.12 1632.2 M1374.8 1629.79 L1374.8 1650.12 L1368.94 1650.12 L1368.94 1644.71 Q1366.94 1647.96 1363.94 1649.52 Q1360.95 1651.05 1356.62 1651.05 Q1351.15 1651.05 1347.9 1647.99 Q1344.69 1644.9 1344.69 1639.75 Q1344.69 1633.73 1348.7 1630.68 Q1352.74 1627.62 1360.73 1627.62 L1368.94 1627.62 L1368.94 1627.05 Q1368.94 1623.01 1366.27 1620.81 Q1363.63 1618.58 1358.82 1618.58 Q1355.76 1618.58 1352.87 1619.31 Q1349.97 1620.05 1347.3 1621.51 L1347.3 1616.1 Q1350.51 1614.86 1353.54 1614.25 Q1356.56 1613.62 1359.42 1613.62 Q1367.16 1613.62 1370.98 1617.63 Q1374.8 1621.64 1374.8 1629.79 Z" fill="#000000" fill-rule="evenodd" fill-opacity="1" /><path clip-path="url(#clip410)" d="M 0 0 M1386.73 1604.35 L1386.73 1614.48 L1398.8 1614.48 L1398.8 1619.03 L1386.73 1619.03 L1386.73 1638.38 Q1386.73 1642.74 1387.91 1643.98 Q1389.12 1645.22 1392.78 1645.22 L1398.8 1645.22 L1398.8 1650.12 L1392.78 1650.12 Q1386 1650.12 1383.42 1647.61 Q1380.85 1645.06 1380.85 1638.38 L1380.85 1619.03 L1376.55 1619.03 L1376.55 1614.48 L1380.85 1614.48 L1380.85 1604.35 L1386.73 1604.35 Z" fill="#000000" fill-rule="evenodd" fill-opacity="1" /><polyline clip-path="url(#clip412)" style="stroke:#000000; stroke-width:2; stroke-opacity:0.1; fill:none" points="
  271.244,1505.26 2352.76,1505.26 
  "/>
<polyline clip-path="url(#clip412)" style="stroke:#000000; stroke-width:2; stroke-opacity:0.1; fill:none" points="
  271.244,1374.14 2352.76,1374.14 
  "/>
<polyline clip-path="url(#clip412)" style="stroke:#000000; stroke-width:2; stroke-opacity:0.1; fill:none" points="
  271.244,1243.03 2352.76,1243.03 
  "/>
<polyline clip-path="url(#clip412)" style="stroke:#000000; stroke-width:2; stroke-opacity:0.1; fill:none" points="
  271.244,1111.91 2352.76,1111.91 
  "/>
<polyline clip-path="url(#clip412)" style="stroke:#000000; stroke-width:2; stroke-opacity:0.1; fill:none" points="
  271.244,980.799 2352.76,980.799 
  "/>
<polyline clip-path="url(#clip412)" style="stroke:#000000; stroke-width:2; stroke-opacity:0.1; fill:none" points="
  271.244,849.684 2352.76,849.684 
  "/>
<polyline clip-path="url(#clip412)" style="stroke:#000000; stroke-width:2; stroke-opacity:0.1; fill:none" points="
  271.244,718.568 2352.76,718.568 
  "/>
<polyline clip-path="url(#clip412)" style="stroke:#000000; stroke-width:2; stroke-opacity:0.1; fill:none" points="
  271.244,587.453 2352.76,587.453 
  "/>
<polyline clip-path="url(#clip412)" style="stroke:#000000; stroke-width:2; stroke-opacity:0.1; fill:none" points="
  271.244,456.338 2352.76,456.338 
  "/>
<polyline clip-path="url(#clip412)" style="stroke:#000000; stroke-width:2; stroke-opacity:0.1; fill:none" points="
  271.244,325.223 2352.76,325.223 
  "/>
<polyline clip-path="url(#clip412)" style="stroke:#000000; stroke-width:2; stroke-opacity:0.1; fill:none" points="
  271.244,194.107 2352.76,194.107 
  "/>
<polyline clip-path="url(#clip412)" style="stroke:#000000; stroke-width:2; stroke-opacity:0.1; fill:none" points="
  271.244,62.9921 2352.76,62.9921 
  "/>
<polyline clip-path="url(#clip410)" style="stroke:#000000; stroke-width:4; stroke-opacity:1; fill:none" points="
  271.244,1505.26 271.244,62.9921 
  "/>
<polyline clip-path="url(#clip410)" style="stroke:#000000; stroke-width:4; stroke-opacity:1; fill:none" points="
  271.244,1505.26 296.222,1505.26 
  "/>
<polyline clip-path="url(#clip410)" style="stroke:#000000; stroke-width:4; stroke-opacity:1; fill:none" points="
  271.244,1374.14 296.222,1374.14 
  "/>
<polyline clip-path="url(#clip410)" style="stroke:#000000; stroke-width:4; stroke-opacity:1; fill:none" points="
  271.244,1243.03 296.222,1243.03 
  "/>
<polyline clip-path="url(#clip410)" style="stroke:#000000; stroke-width:4; stroke-opacity:1; fill:none" points="
  271.244,1111.91 296.222,1111.91 
  "/>
<polyline clip-path="url(#clip410)" style="stroke:#000000; stroke-width:4; stroke-opacity:1; fill:none" points="
  271.244,980.799 296.222,980.799 
  "/>
<polyline clip-path="url(#clip410)" style="stroke:#000000; stroke-width:4; stroke-opacity:1; fill:none" points="
  271.244,849.684 296.222,849.684 
  "/>
<polyline clip-path="url(#clip410)" style="stroke:#000000; stroke-width:4; stroke-opacity:1; fill:none" points="
  271.244,718.568 296.222,718.568 
  "/>
<polyline clip-path="url(#clip410)" style="stroke:#000000; stroke-width:4; stroke-opacity:1; fill:none" points="
  271.244,587.453 296.222,587.453 
  "/>
<polyline clip-path="url(#clip410)" style="stroke:#000000; stroke-width:4; stroke-opacity:1; fill:none" points="
  271.244,456.338 296.222,456.338 
  "/>
<polyline clip-path="url(#clip410)" style="stroke:#000000; stroke-width:4; stroke-opacity:1; fill:none" points="
  271.244,325.223 296.222,325.223 
  "/>
<polyline clip-path="url(#clip410)" style="stroke:#000000; stroke-width:4; stroke-opacity:1; fill:none" points="
  271.244,194.107 296.222,194.107 
  "/>
<polyline clip-path="url(#clip410)" style="stroke:#000000; stroke-width:4; stroke-opacity:1; fill:none" points="
  271.244,62.9921 296.222,62.9921 
  "/>
<path clip-path="url(#clip410)" d="M 0 0 M223.3 1491.06 Q219.689 1491.06 217.86 1494.62 Q216.054 1498.16 216.054 1505.29 Q216.054 1512.4 217.86 1515.97 Q219.689 1519.51 223.3 1519.51 Q226.934 1519.51 228.739 1515.97 Q230.568 1512.4 230.568 1505.29 Q230.568 1498.16 228.739 1494.62 Q226.934 1491.06 223.3 1491.06 M223.3 1487.35 Q229.11 1487.35 232.165 1491.96 Q235.244 1496.54 235.244 1505.29 Q235.244 1514.02 232.165 1518.63 Q229.11 1523.21 223.3 1523.21 Q217.49 1523.21 214.411 1518.63 Q211.355 1514.02 211.355 1505.29 Q211.355 1496.54 214.411 1491.96 Q217.49 1487.35 223.3 1487.35 Z" fill="#000000" fill-rule="evenodd" fill-opacity="1" /><path clip-path="url(#clip410)" d="M 0 0 M107.282 1387.49 L114.921 1387.49 L114.921 1361.12 L106.611 1362.79 L106.611 1358.53 L114.874 1356.86 L119.55 1356.86 L119.55 1387.49 L127.189 1387.49 L127.189 1391.42 L107.282 1391.42 L107.282 1387.49 Z" fill="#000000" fill-rule="evenodd" fill-opacity="1" /><path clip-path="url(#clip410)" d="M 0 0 M142.258 1359.94 Q138.647 1359.94 136.819 1363.51 Q135.013 1367.05 135.013 1374.18 Q135.013 1381.29 136.819 1384.85 Q138.647 1388.39 142.258 1388.39 Q145.893 1388.39 147.698 1384.85 Q149.527 1381.29 149.527 1374.18 Q149.527 1367.05 147.698 1363.51 Q145.893 1359.94 142.258 1359.94 M142.258 1356.24 Q148.069 1356.24 151.124 1360.85 Q154.203 1365.43 154.203 1374.18 Q154.203 1382.91 151.124 1387.51 Q148.069 1392.1 142.258 1392.1 Q136.448 1392.1 133.37 1387.51 Q130.314 1382.91 130.314 1374.18 Q130.314 1365.43 133.37 1360.85 Q136.448 1356.24 142.258 1356.24 Z" fill="#000000" fill-rule="evenodd" fill-opacity="1" /><path clip-path="url(#clip410)" d="M 0 0 M169.272 1359.94 Q165.661 1359.94 163.832 1363.51 Q162.027 1367.05 162.027 1374.18 Q162.027 1381.29 163.832 1384.85 Q165.661 1388.39 169.272 1388.39 Q172.906 1388.39 174.712 1384.85 Q176.541 1381.29 176.541 1374.18 Q176.541 1367.05 174.712 1363.51 Q172.906 1359.94 169.272 1359.94 M169.272 1356.24 Q175.082 1356.24 178.138 1360.85 Q181.217 1365.43 181.217 1374.18 Q181.217 1382.91 178.138 1387.51 Q175.082 1392.1 169.272 1392.1 Q163.462 1392.1 160.383 1387.51 Q157.328 1382.91 157.328 1374.18 Q157.328 1365.43 160.383 1360.85 Q163.462 1356.24 169.272 1356.24 Z" fill="#000000" fill-rule="evenodd" fill-opacity="1" /><path clip-path="url(#clip410)" d="M 0 0 M196.286 1359.94 Q192.675 1359.94 190.846 1363.51 Q189.041 1367.05 189.041 1374.18 Q189.041 1381.29 190.846 1384.85 Q192.675 1388.39 196.286 1388.39 Q199.92 1388.39 201.726 1384.85 Q203.554 1381.29 203.554 1374.18 Q203.554 1367.05 201.726 1363.51 Q199.92 1359.94 196.286 1359.94 M196.286 1356.24 Q202.096 1356.24 205.152 1360.85 Q208.23 1365.43 208.23 1374.18 Q208.23 1382.91 205.152 1387.51 Q202.096 1392.1 196.286 1392.1 Q190.476 1392.1 187.397 1387.51 Q184.342 1382.91 184.342 1374.18 Q184.342 1365.43 187.397 1360.85 Q190.476 1356.24 196.286 1356.24 Z" fill="#000000" fill-rule="evenodd" fill-opacity="1" /><path clip-path="url(#clip410)" d="M 0 0 M223.3 1359.94 Q219.689 1359.94 217.86 1363.51 Q216.054 1367.05 216.054 1374.18 Q216.054 1381.29 217.86 1384.85 Q219.689 1388.39 223.3 1388.39 Q226.934 1388.39 228.739 1384.85 Q230.568 1381.29 230.568 1374.18 Q230.568 1367.05 228.739 1363.51 Q226.934 1359.94 223.3 1359.94 M223.3 1356.24 Q229.11 1356.24 232.165 1360.85 Q235.244 1365.43 235.244 1374.18 Q235.244 1382.91 232.165 1387.51 Q229.11 1392.1 223.3 1392.1 Q217.49 1392.1 214.411 1387.51 Q211.355 1382.91 211.355 1374.18 Q211.355 1365.43 214.411 1360.85 Q217.49 1356.24 223.3 1356.24 Z" fill="#000000" fill-rule="evenodd" fill-opacity="1" /><path clip-path="url(#clip410)" d="M 0 0 M110.87 1256.37 L127.189 1256.37 L127.189 1260.31 L105.245 1260.31 L105.245 1256.37 Q107.907 1253.62 112.49 1248.99 Q117.097 1244.34 118.277 1242.99 Q120.522 1240.47 121.402 1238.74 Q122.305 1236.98 122.305 1235.29 Q122.305 1232.53 120.36 1230.8 Q118.439 1229.06 115.337 1229.06 Q113.138 1229.06 110.685 1229.82 Q108.254 1230.59 105.476 1232.14 L105.476 1227.42 Q108.3 1226.28 110.754 1225.7 Q113.208 1225.12 115.245 1225.12 Q120.615 1225.12 123.81 1227.81 Q127.004 1230.49 127.004 1234.99 Q127.004 1237.12 126.194 1239.04 Q125.407 1240.93 123.3 1243.53 Q122.722 1244.2 119.62 1247.42 Q116.518 1250.61 110.87 1256.37 Z" fill="#000000" fill-rule="evenodd" fill-opacity="1" /><path clip-path="url(#clip410)" d="M 0 0 M142.258 1228.83 Q138.647 1228.83 136.819 1232.39 Q135.013 1235.93 135.013 1243.06 Q135.013 1250.17 136.819 1253.74 Q138.647 1257.28 142.258 1257.28 Q145.893 1257.28 147.698 1253.74 Q149.527 1250.17 149.527 1243.06 Q149.527 1235.93 147.698 1232.39 Q145.893 1228.83 142.258 1228.83 M142.258 1225.12 Q148.069 1225.12 151.124 1229.73 Q154.203 1234.31 154.203 1243.06 Q154.203 1251.79 151.124 1256.4 Q148.069 1260.98 142.258 1260.98 Q136.448 1260.98 133.37 1256.4 Q130.314 1251.79 130.314 1243.06 Q130.314 1234.31 133.37 1229.73 Q136.448 1225.12 142.258 1225.12 Z" fill="#000000" fill-rule="evenodd" fill-opacity="1" /><path clip-path="url(#clip410)" d="M 0 0 M169.272 1228.83 Q165.661 1228.83 163.832 1232.39 Q162.027 1235.93 162.027 1243.06 Q162.027 1250.17 163.832 1253.74 Q165.661 1257.28 169.272 1257.28 Q172.906 1257.28 174.712 1253.74 Q176.541 1250.17 176.541 1243.06 Q176.541 1235.93 174.712 1232.39 Q172.906 1228.83 169.272 1228.83 M169.272 1225.12 Q175.082 1225.12 178.138 1229.73 Q181.217 1234.31 181.217 1243.06 Q181.217 1251.79 178.138 1256.4 Q175.082 1260.98 169.272 1260.98 Q163.462 1260.98 160.383 1256.4 Q157.328 1251.79 157.328 1243.06 Q157.328 1234.31 160.383 1229.73 Q163.462 1225.12 169.272 1225.12 Z" fill="#000000" fill-rule="evenodd" fill-opacity="1" /><path clip-path="url(#clip410)" d="M 0 0 M196.286 1228.83 Q192.675 1228.83 190.846 1232.39 Q189.041 1235.93 189.041 1243.06 Q189.041 1250.17 190.846 1253.74 Q192.675 1257.28 196.286 1257.28 Q199.92 1257.28 201.726 1253.74 Q203.554 1250.17 203.554 1243.06 Q203.554 1235.93 201.726 1232.39 Q199.92 1228.83 196.286 1228.83 M196.286 1225.12 Q202.096 1225.12 205.152 1229.73 Q208.23 1234.31 208.23 1243.06 Q208.23 1251.79 205.152 1256.4 Q202.096 1260.98 196.286 1260.98 Q190.476 1260.98 187.397 1256.4 Q184.342 1251.79 184.342 1243.06 Q184.342 1234.31 187.397 1229.73 Q190.476 1225.12 196.286 1225.12 Z" fill="#000000" fill-rule="evenodd" fill-opacity="1" /><path clip-path="url(#clip410)" d="M 0 0 M223.3 1228.83 Q219.689 1228.83 217.86 1232.39 Q216.054 1235.93 216.054 1243.06 Q216.054 1250.17 217.86 1253.74 Q219.689 1257.28 223.3 1257.28 Q226.934 1257.28 228.739 1253.74 Q230.568 1250.17 230.568 1243.06 Q230.568 1235.93 228.739 1232.39 Q226.934 1228.83 223.3 1228.83 M223.3 1225.12 Q229.11 1225.12 232.165 1229.73 Q235.244 1234.31 235.244 1243.06 Q235.244 1251.79 232.165 1256.4 Q229.11 1260.98 223.3 1260.98 Q217.49 1260.98 214.411 1256.4 Q211.355 1251.79 211.355 1243.06 Q211.355 1234.31 214.411 1229.73 Q217.49 1225.12 223.3 1225.12 Z" fill="#000000" fill-rule="evenodd" fill-opacity="1" /><path clip-path="url(#clip410)" d="M 0 0 M120.06 1110.56 Q123.416 1111.28 125.291 1113.55 Q127.189 1115.81 127.189 1119.15 Q127.189 1124.26 123.671 1127.06 Q120.152 1129.87 113.671 1129.87 Q111.495 1129.87 109.18 1129.43 Q106.888 1129.01 104.435 1128.15 L104.435 1123.64 Q106.379 1124.77 108.694 1125.35 Q111.009 1125.93 113.532 1125.93 Q117.93 1125.93 120.222 1124.19 Q122.536 1122.46 122.536 1119.15 Q122.536 1116.09 120.384 1114.38 Q118.254 1112.64 114.435 1112.64 L110.407 1112.64 L110.407 1108.8 L114.62 1108.8 Q118.069 1108.8 119.897 1107.43 Q121.726 1106.05 121.726 1103.45 Q121.726 1100.79 119.828 1099.38 Q117.953 1097.94 114.435 1097.94 Q112.513 1097.94 110.314 1098.36 Q108.115 1098.78 105.476 1099.66 L105.476 1095.49 Q108.138 1094.75 110.453 1094.38 Q112.791 1094.01 114.851 1094.01 Q120.175 1094.01 123.277 1096.44 Q126.379 1098.85 126.379 1102.97 Q126.379 1105.84 124.735 1107.83 Q123.092 1109.8 120.06 1110.56 Z" fill="#000000" fill-rule="evenodd" fill-opacity="1" /><path clip-path="url(#clip410)" d="M 0 0 M142.258 1097.71 Q138.647 1097.71 136.819 1101.28 Q135.013 1104.82 135.013 1111.95 Q135.013 1119.06 136.819 1122.62 Q138.647 1126.16 142.258 1126.16 Q145.893 1126.16 147.698 1122.62 Q149.527 1119.06 149.527 1111.95 Q149.527 1104.82 147.698 1101.28 Q145.893 1097.71 142.258 1097.71 M142.258 1094.01 Q148.069 1094.01 151.124 1098.62 Q154.203 1103.2 154.203 1111.95 Q154.203 1120.68 151.124 1125.28 Q148.069 1129.87 142.258 1129.87 Q136.448 1129.87 133.37 1125.28 Q130.314 1120.68 130.314 1111.95 Q130.314 1103.2 133.37 1098.62 Q136.448 1094.01 142.258 1094.01 Z" fill="#000000" fill-rule="evenodd" fill-opacity="1" /><path clip-path="url(#clip410)" d="M 0 0 M169.272 1097.71 Q165.661 1097.71 163.832 1101.28 Q162.027 1104.82 162.027 1111.95 Q162.027 1119.06 163.832 1122.62 Q165.661 1126.16 169.272 1126.16 Q172.906 1126.16 174.712 1122.62 Q176.541 1119.06 176.541 1111.95 Q176.541 1104.82 174.712 1101.28 Q172.906 1097.71 169.272 1097.71 M169.272 1094.01 Q175.082 1094.01 178.138 1098.62 Q181.217 1103.2 181.217 1111.95 Q181.217 1120.68 178.138 1125.28 Q175.082 1129.87 169.272 1129.87 Q163.462 1129.87 160.383 1125.28 Q157.328 1120.68 157.328 1111.95 Q157.328 1103.2 160.383 1098.62 Q163.462 1094.01 169.272 1094.01 Z" fill="#000000" fill-rule="evenodd" fill-opacity="1" /><path clip-path="url(#clip410)" d="M 0 0 M196.286 1097.71 Q192.675 1097.71 190.846 1101.28 Q189.041 1104.82 189.041 1111.95 Q189.041 1119.06 190.846 1122.62 Q192.675 1126.16 196.286 1126.16 Q199.92 1126.16 201.726 1122.62 Q203.554 1119.06 203.554 1111.95 Q203.554 1104.82 201.726 1101.28 Q199.92 1097.71 196.286 1097.71 M196.286 1094.01 Q202.096 1094.01 205.152 1098.62 Q208.23 1103.2 208.23 1111.95 Q208.23 1120.68 205.152 1125.28 Q202.096 1129.87 196.286 1129.87 Q190.476 1129.87 187.397 1125.28 Q184.342 1120.68 184.342 1111.95 Q184.342 1103.2 187.397 1098.62 Q190.476 1094.01 196.286 1094.01 Z" fill="#000000" fill-rule="evenodd" fill-opacity="1" /><path clip-path="url(#clip410)" d="M 0 0 M223.3 1097.71 Q219.689 1097.71 217.86 1101.28 Q216.054 1104.82 216.054 1111.95 Q216.054 1119.06 217.86 1122.62 Q219.689 1126.16 223.3 1126.16 Q226.934 1126.16 228.739 1122.62 Q230.568 1119.06 230.568 1111.95 Q230.568 1104.82 228.739 1101.28 Q226.934 1097.71 223.3 1097.71 M223.3 1094.01 Q229.11 1094.01 232.165 1098.62 Q235.244 1103.2 235.244 1111.95 Q235.244 1120.68 232.165 1125.28 Q229.11 1129.87 223.3 1129.87 Q217.49 1129.87 214.411 1125.28 Q211.355 1120.68 211.355 1111.95 Q211.355 1103.2 214.411 1098.62 Q217.49 1094.01 223.3 1094.01 Z" fill="#000000" fill-rule="evenodd" fill-opacity="1" /><path clip-path="url(#clip410)" d="M 0 0 M117.606 967.593 L105.8 986.042 L117.606 986.042 L117.606 967.593 M116.379 963.519 L122.259 963.519 L122.259 986.042 L127.189 986.042 L127.189 989.931 L122.259 989.931 L122.259 998.079 L117.606 998.079 L117.606 989.931 L102.004 989.931 L102.004 985.417 L116.379 963.519 Z" fill="#000000" fill-rule="evenodd" fill-opacity="1" /><path clip-path="url(#clip410)" d="M 0 0 M142.258 966.598 Q138.647 966.598 136.819 970.162 Q135.013 973.704 135.013 980.834 Q135.013 987.94 136.819 991.505 Q138.647 995.046 142.258 995.046 Q145.893 995.046 147.698 991.505 Q149.527 987.94 149.527 980.834 Q149.527 973.704 147.698 970.162 Q145.893 966.598 142.258 966.598 M142.258 962.894 Q148.069 962.894 151.124 967.5 Q154.203 972.084 154.203 980.834 Q154.203 989.56 151.124 994.167 Q148.069 998.75 142.258 998.75 Q136.448 998.75 133.37 994.167 Q130.314 989.56 130.314 980.834 Q130.314 972.084 133.37 967.5 Q136.448 962.894 142.258 962.894 Z" fill="#000000" fill-rule="evenodd" fill-opacity="1" /><path clip-path="url(#clip410)" d="M 0 0 M169.272 966.598 Q165.661 966.598 163.832 970.162 Q162.027 973.704 162.027 980.834 Q162.027 987.94 163.832 991.505 Q165.661 995.046 169.272 995.046 Q172.906 995.046 174.712 991.505 Q176.541 987.94 176.541 980.834 Q176.541 973.704 174.712 970.162 Q172.906 966.598 169.272 966.598 M169.272 962.894 Q175.082 962.894 178.138 967.5 Q181.217 972.084 181.217 980.834 Q181.217 989.56 178.138 994.167 Q175.082 998.75 169.272 998.75 Q163.462 998.75 160.383 994.167 Q157.328 989.56 157.328 980.834 Q157.328 972.084 160.383 967.5 Q163.462 962.894 169.272 962.894 Z" fill="#000000" fill-rule="evenodd" fill-opacity="1" /><path clip-path="url(#clip410)" d="M 0 0 M196.286 966.598 Q192.675 966.598 190.846 970.162 Q189.041 973.704 189.041 980.834 Q189.041 987.94 190.846 991.505 Q192.675 995.046 196.286 995.046 Q199.92 995.046 201.726 991.505 Q203.554 987.94 203.554 980.834 Q203.554 973.704 201.726 970.162 Q199.92 966.598 196.286 966.598 M196.286 962.894 Q202.096 962.894 205.152 967.5 Q208.23 972.084 208.23 980.834 Q208.23 989.56 205.152 994.167 Q202.096 998.75 196.286 998.75 Q190.476 998.75 187.397 994.167 Q184.342 989.56 184.342 980.834 Q184.342 972.084 187.397 967.5 Q190.476 962.894 196.286 962.894 Z" fill="#000000" fill-rule="evenodd" fill-opacity="1" /><path clip-path="url(#clip410)" d="M 0 0 M223.3 966.598 Q219.689 966.598 217.86 970.162 Q216.054 973.704 216.054 980.834 Q216.054 987.94 217.86 991.505 Q219.689 995.046 223.3 995.046 Q226.934 995.046 228.739 991.505 Q230.568 987.94 230.568 980.834 Q230.568 973.704 228.739 970.162 Q226.934 966.598 223.3 966.598 M223.3 962.894 Q229.11 962.894 232.165 967.5 Q235.244 972.084 235.244 980.834 Q235.244 989.56 232.165 994.167 Q229.11 998.75 223.3 998.75 Q217.49 998.75 214.411 994.167 Q211.355 989.56 211.355 980.834 Q211.355 972.084 214.411 967.5 Q217.49 962.894 223.3 962.894 Z" fill="#000000" fill-rule="evenodd" fill-opacity="1" /><path clip-path="url(#clip410)" d="M 0 0 M106.286 832.404 L124.643 832.404 L124.643 836.339 L110.569 836.339 L110.569 844.811 Q111.587 844.464 112.606 844.302 Q113.624 844.117 114.643 844.117 Q120.43 844.117 123.81 847.288 Q127.189 850.459 127.189 855.876 Q127.189 861.454 123.717 864.556 Q120.245 867.635 113.925 867.635 Q111.749 867.635 109.481 867.265 Q107.236 866.894 104.828 866.153 L104.828 861.454 Q106.911 862.589 109.134 863.144 Q111.356 863.7 113.833 863.7 Q117.837 863.7 120.175 861.593 Q122.513 859.487 122.513 855.876 Q122.513 852.265 120.175 850.158 Q117.837 848.052 113.833 848.052 Q111.958 848.052 110.083 848.468 Q108.231 848.885 106.286 849.765 L106.286 832.404 Z" fill="#000000" fill-rule="evenodd" fill-opacity="1" /><path clip-path="url(#clip410)" d="M 0 0 M142.258 835.482 Q138.647 835.482 136.819 839.047 Q135.013 842.589 135.013 849.718 Q135.013 856.825 136.819 860.39 Q138.647 863.931 142.258 863.931 Q145.893 863.931 147.698 860.39 Q149.527 856.825 149.527 849.718 Q149.527 842.589 147.698 839.047 Q145.893 835.482 142.258 835.482 M142.258 831.779 Q148.069 831.779 151.124 836.385 Q154.203 840.968 154.203 849.718 Q154.203 858.445 151.124 863.052 Q148.069 867.635 142.258 867.635 Q136.448 867.635 133.37 863.052 Q130.314 858.445 130.314 849.718 Q130.314 840.968 133.37 836.385 Q136.448 831.779 142.258 831.779 Z" fill="#000000" fill-rule="evenodd" fill-opacity="1" /><path clip-path="url(#clip410)" d="M 0 0 M169.272 835.482 Q165.661 835.482 163.832 839.047 Q162.027 842.589 162.027 849.718 Q162.027 856.825 163.832 860.39 Q165.661 863.931 169.272 863.931 Q172.906 863.931 174.712 860.39 Q176.541 856.825 176.541 849.718 Q176.541 842.589 174.712 839.047 Q172.906 835.482 169.272 835.482 M169.272 831.779 Q175.082 831.779 178.138 836.385 Q181.217 840.968 181.217 849.718 Q181.217 858.445 178.138 863.052 Q175.082 867.635 169.272 867.635 Q163.462 867.635 160.383 863.052 Q157.328 858.445 157.328 849.718 Q157.328 840.968 160.383 836.385 Q163.462 831.779 169.272 831.779 Z" fill="#000000" fill-rule="evenodd" fill-opacity="1" /><path clip-path="url(#clip410)" d="M 0 0 M196.286 835.482 Q192.675 835.482 190.846 839.047 Q189.041 842.589 189.041 849.718 Q189.041 856.825 190.846 860.39 Q192.675 863.931 196.286 863.931 Q199.92 863.931 201.726 860.39 Q203.554 856.825 203.554 849.718 Q203.554 842.589 201.726 839.047 Q199.92 835.482 196.286 835.482 M196.286 831.779 Q202.096 831.779 205.152 836.385 Q208.23 840.968 208.23 849.718 Q208.23 858.445 205.152 863.052 Q202.096 867.635 196.286 867.635 Q190.476 867.635 187.397 863.052 Q184.342 858.445 184.342 849.718 Q184.342 840.968 187.397 836.385 Q190.476 831.779 196.286 831.779 Z" fill="#000000" fill-rule="evenodd" fill-opacity="1" /><path clip-path="url(#clip410)" d="M 0 0 M223.3 835.482 Q219.689 835.482 217.86 839.047 Q216.054 842.589 216.054 849.718 Q216.054 856.825 217.86 860.39 Q219.689 863.931 223.3 863.931 Q226.934 863.931 228.739 860.39 Q230.568 856.825 230.568 849.718 Q230.568 842.589 228.739 839.047 Q226.934 835.482 223.3 835.482 M223.3 831.779 Q229.11 831.779 232.165 836.385 Q235.244 840.968 235.244 849.718 Q235.244 858.445 232.165 863.052 Q229.11 867.635 223.3 867.635 Q217.49 867.635 214.411 863.052 Q211.355 858.445 211.355 849.718 Q211.355 840.968 214.411 836.385 Q217.49 831.779 223.3 831.779 Z" fill="#000000" fill-rule="evenodd" fill-opacity="1" /><path clip-path="url(#clip410)" d="M 0 0 M115.661 716.705 Q112.513 716.705 110.661 718.858 Q108.833 721.01 108.833 724.76 Q108.833 728.487 110.661 730.663 Q112.513 732.816 115.661 732.816 Q118.81 732.816 120.638 730.663 Q122.49 728.487 122.49 724.76 Q122.49 721.01 120.638 718.858 Q118.81 716.705 115.661 716.705 M124.944 702.052 L124.944 706.311 Q123.185 705.478 121.379 705.038 Q119.597 704.599 117.837 704.599 Q113.208 704.599 110.754 707.724 Q108.323 710.848 107.976 717.168 Q109.342 715.154 111.402 714.089 Q113.462 713.001 115.939 713.001 Q121.147 713.001 124.157 716.173 Q127.189 719.321 127.189 724.76 Q127.189 730.085 124.041 733.302 Q120.893 736.52 115.661 736.52 Q109.666 736.52 106.495 731.936 Q103.324 727.33 103.324 718.603 Q103.324 710.409 107.212 705.548 Q111.101 700.663 117.652 700.663 Q119.411 700.663 121.194 701.011 Q122.999 701.358 124.944 702.052 Z" fill="#000000" fill-rule="evenodd" fill-opacity="1" /><path clip-path="url(#clip410)" d="M 0 0 M142.258 704.367 Q138.647 704.367 136.819 707.932 Q135.013 711.473 135.013 718.603 Q135.013 725.71 136.819 729.274 Q138.647 732.816 142.258 732.816 Q145.893 732.816 147.698 729.274 Q149.527 725.71 149.527 718.603 Q149.527 711.473 147.698 707.932 Q145.893 704.367 142.258 704.367 M142.258 700.663 Q148.069 700.663 151.124 705.27 Q154.203 709.853 154.203 718.603 Q154.203 727.33 151.124 731.936 Q148.069 736.52 142.258 736.52 Q136.448 736.52 133.37 731.936 Q130.314 727.33 130.314 718.603 Q130.314 709.853 133.37 705.27 Q136.448 700.663 142.258 700.663 Z" fill="#000000" fill-rule="evenodd" fill-opacity="1" /><path clip-path="url(#clip410)" d="M 0 0 M169.272 704.367 Q165.661 704.367 163.832 707.932 Q162.027 711.473 162.027 718.603 Q162.027 725.71 163.832 729.274 Q165.661 732.816 169.272 732.816 Q172.906 732.816 174.712 729.274 Q176.541 725.71 176.541 718.603 Q176.541 711.473 174.712 707.932 Q172.906 704.367 169.272 704.367 M169.272 700.663 Q175.082 700.663 178.138 705.27 Q181.217 709.853 181.217 718.603 Q181.217 727.33 178.138 731.936 Q175.082 736.52 169.272 736.52 Q163.462 736.52 160.383 731.936 Q157.328 727.33 157.328 718.603 Q157.328 709.853 160.383 705.27 Q163.462 700.663 169.272 700.663 Z" fill="#000000" fill-rule="evenodd" fill-opacity="1" /><path clip-path="url(#clip410)" d="M 0 0 M196.286 704.367 Q192.675 704.367 190.846 707.932 Q189.041 711.473 189.041 718.603 Q189.041 725.71 190.846 729.274 Q192.675 732.816 196.286 732.816 Q199.92 732.816 201.726 729.274 Q203.554 725.71 203.554 718.603 Q203.554 711.473 201.726 707.932 Q199.92 704.367 196.286 704.367 M196.286 700.663 Q202.096 700.663 205.152 705.27 Q208.23 709.853 208.23 718.603 Q208.23 727.33 205.152 731.936 Q202.096 736.52 196.286 736.52 Q190.476 736.52 187.397 731.936 Q184.342 727.33 184.342 718.603 Q184.342 709.853 187.397 705.27 Q190.476 700.663 196.286 700.663 Z" fill="#000000" fill-rule="evenodd" fill-opacity="1" /><path clip-path="url(#clip410)" d="M 0 0 M223.3 704.367 Q219.689 704.367 217.86 707.932 Q216.054 711.473 216.054 718.603 Q216.054 725.71 217.86 729.274 Q219.689 732.816 223.3 732.816 Q226.934 732.816 228.739 729.274 Q230.568 725.71 230.568 718.603 Q230.568 711.473 228.739 707.932 Q226.934 704.367 223.3 704.367 M223.3 700.663 Q229.11 700.663 232.165 705.27 Q235.244 709.853 235.244 718.603 Q235.244 727.33 232.165 731.936 Q229.11 736.52 223.3 736.52 Q217.49 736.52 214.411 731.936 Q211.355 727.33 211.355 718.603 Q211.355 709.853 214.411 705.27 Q217.49 700.663 223.3 700.663 Z" fill="#000000" fill-rule="evenodd" fill-opacity="1" /><path clip-path="url(#clip410)" d="M 0 0 M104.967 570.173 L127.189 570.173 L127.189 572.164 L114.643 604.733 L109.759 604.733 L121.564 574.108 L104.967 574.108 L104.967 570.173 Z" fill="#000000" fill-rule="evenodd" fill-opacity="1" /><path clip-path="url(#clip410)" d="M 0 0 M142.258 573.252 Q138.647 573.252 136.819 576.817 Q135.013 580.358 135.013 587.488 Q135.013 594.594 136.819 598.159 Q138.647 601.701 142.258 601.701 Q145.893 601.701 147.698 598.159 Q149.527 594.594 149.527 587.488 Q149.527 580.358 147.698 576.817 Q145.893 573.252 142.258 573.252 M142.258 569.548 Q148.069 569.548 151.124 574.155 Q154.203 578.738 154.203 587.488 Q154.203 596.215 151.124 600.821 Q148.069 605.404 142.258 605.404 Q136.448 605.404 133.37 600.821 Q130.314 596.215 130.314 587.488 Q130.314 578.738 133.37 574.155 Q136.448 569.548 142.258 569.548 Z" fill="#000000" fill-rule="evenodd" fill-opacity="1" /><path clip-path="url(#clip410)" d="M 0 0 M169.272 573.252 Q165.661 573.252 163.832 576.817 Q162.027 580.358 162.027 587.488 Q162.027 594.594 163.832 598.159 Q165.661 601.701 169.272 601.701 Q172.906 601.701 174.712 598.159 Q176.541 594.594 176.541 587.488 Q176.541 580.358 174.712 576.817 Q172.906 573.252 169.272 573.252 M169.272 569.548 Q175.082 569.548 178.138 574.155 Q181.217 578.738 181.217 587.488 Q181.217 596.215 178.138 600.821 Q175.082 605.404 169.272 605.404 Q163.462 605.404 160.383 600.821 Q157.328 596.215 157.328 587.488 Q157.328 578.738 160.383 574.155 Q163.462 569.548 169.272 569.548 Z" fill="#000000" fill-rule="evenodd" fill-opacity="1" /><path clip-path="url(#clip410)" d="M 0 0 M196.286 573.252 Q192.675 573.252 190.846 576.817 Q189.041 580.358 189.041 587.488 Q189.041 594.594 190.846 598.159 Q192.675 601.701 196.286 601.701 Q199.92 601.701 201.726 598.159 Q203.554 594.594 203.554 587.488 Q203.554 580.358 201.726 576.817 Q199.92 573.252 196.286 573.252 M196.286 569.548 Q202.096 569.548 205.152 574.155 Q208.23 578.738 208.23 587.488 Q208.23 596.215 205.152 600.821 Q202.096 605.404 196.286 605.404 Q190.476 605.404 187.397 600.821 Q184.342 596.215 184.342 587.488 Q184.342 578.738 187.397 574.155 Q190.476 569.548 196.286 569.548 Z" fill="#000000" fill-rule="evenodd" fill-opacity="1" /><path clip-path="url(#clip410)" d="M 0 0 M223.3 573.252 Q219.689 573.252 217.86 576.817 Q216.054 580.358 216.054 587.488 Q216.054 594.594 217.86 598.159 Q219.689 601.701 223.3 601.701 Q226.934 601.701 228.739 598.159 Q230.568 594.594 230.568 587.488 Q230.568 580.358 228.739 576.817 Q226.934 573.252 223.3 573.252 M223.3 569.548 Q229.11 569.548 232.165 574.155 Q235.244 578.738 235.244 587.488 Q235.244 596.215 232.165 600.821 Q229.11 605.404 223.3 605.404 Q217.49 605.404 214.411 600.821 Q211.355 596.215 211.355 587.488 Q211.355 578.738 214.411 574.155 Q217.49 569.548 223.3 569.548 Z" fill="#000000" fill-rule="evenodd" fill-opacity="1" /><path clip-path="url(#clip410)" d="M 0 0 M115.337 457.206 Q112.004 457.206 110.083 458.988 Q108.185 460.771 108.185 463.896 Q108.185 467.021 110.083 468.803 Q112.004 470.585 115.337 470.585 Q118.671 470.585 120.592 468.803 Q122.513 466.998 122.513 463.896 Q122.513 460.771 120.592 458.988 Q118.694 457.206 115.337 457.206 M110.661 455.215 Q107.652 454.474 105.962 452.414 Q104.296 450.354 104.296 447.391 Q104.296 443.248 107.236 440.84 Q110.198 438.433 115.337 438.433 Q120.499 438.433 123.439 440.84 Q126.379 443.248 126.379 447.391 Q126.379 450.354 124.689 452.414 Q123.022 454.474 120.036 455.215 Q123.416 456.002 125.291 458.294 Q127.189 460.586 127.189 463.896 Q127.189 468.919 124.11 471.604 Q121.055 474.289 115.337 474.289 Q109.62 474.289 106.541 471.604 Q103.486 468.919 103.486 463.896 Q103.486 460.586 105.384 458.294 Q107.282 456.002 110.661 455.215 M108.948 447.831 Q108.948 450.516 110.615 452.021 Q112.305 453.525 115.337 453.525 Q118.347 453.525 120.036 452.021 Q121.749 450.516 121.749 447.831 Q121.749 445.146 120.036 443.641 Q118.347 442.137 115.337 442.137 Q112.305 442.137 110.615 443.641 Q108.948 445.146 108.948 447.831 Z" fill="#000000" fill-rule="evenodd" fill-opacity="1" /><path clip-path="url(#clip410)" d="M 0 0 M142.258 442.137 Q138.647 442.137 136.819 445.701 Q135.013 449.243 135.013 456.373 Q135.013 463.479 136.819 467.044 Q138.647 470.585 142.258 470.585 Q145.893 470.585 147.698 467.044 Q149.527 463.479 149.527 456.373 Q149.527 449.243 147.698 445.701 Q145.893 442.137 142.258 442.137 M142.258 438.433 Q148.069 438.433 151.124 443.039 Q154.203 447.623 154.203 456.373 Q154.203 465.099 151.124 469.706 Q148.069 474.289 142.258 474.289 Q136.448 474.289 133.37 469.706 Q130.314 465.099 130.314 456.373 Q130.314 447.623 133.37 443.039 Q136.448 438.433 142.258 438.433 Z" fill="#000000" fill-rule="evenodd" fill-opacity="1" /><path clip-path="url(#clip410)" d="M 0 0 M169.272 442.137 Q165.661 442.137 163.832 445.701 Q162.027 449.243 162.027 456.373 Q162.027 463.479 163.832 467.044 Q165.661 470.585 169.272 470.585 Q172.906 470.585 174.712 467.044 Q176.541 463.479 176.541 456.373 Q176.541 449.243 174.712 445.701 Q172.906 442.137 169.272 442.137 M169.272 438.433 Q175.082 438.433 178.138 443.039 Q181.217 447.623 181.217 456.373 Q181.217 465.099 178.138 469.706 Q175.082 474.289 169.272 474.289 Q163.462 474.289 160.383 469.706 Q157.328 465.099 157.328 456.373 Q157.328 447.623 160.383 443.039 Q163.462 438.433 169.272 438.433 Z" fill="#000000" fill-rule="evenodd" fill-opacity="1" /><path clip-path="url(#clip410)" d="M 0 0 M196.286 442.137 Q192.675 442.137 190.846 445.701 Q189.041 449.243 189.041 456.373 Q189.041 463.479 190.846 467.044 Q192.675 470.585 196.286 470.585 Q199.92 470.585 201.726 467.044 Q203.554 463.479 203.554 456.373 Q203.554 449.243 201.726 445.701 Q199.92 442.137 196.286 442.137 M196.286 438.433 Q202.096 438.433 205.152 443.039 Q208.23 447.623 208.23 456.373 Q208.23 465.099 205.152 469.706 Q202.096 474.289 196.286 474.289 Q190.476 474.289 187.397 469.706 Q184.342 465.099 184.342 456.373 Q184.342 447.623 187.397 443.039 Q190.476 438.433 196.286 438.433 Z" fill="#000000" fill-rule="evenodd" fill-opacity="1" /><path clip-path="url(#clip410)" d="M 0 0 M223.3 442.137 Q219.689 442.137 217.86 445.701 Q216.054 449.243 216.054 456.373 Q216.054 463.479 217.86 467.044 Q219.689 470.585 223.3 470.585 Q226.934 470.585 228.739 467.044 Q230.568 463.479 230.568 456.373 Q230.568 449.243 228.739 445.701 Q226.934 442.137 223.3 442.137 M223.3 438.433 Q229.11 438.433 232.165 443.039 Q235.244 447.623 235.244 456.373 Q235.244 465.099 232.165 469.706 Q229.11 474.289 223.3 474.289 Q217.49 474.289 214.411 469.706 Q211.355 465.099 211.355 456.373 Q211.355 447.623 214.411 443.039 Q217.49 438.433 223.3 438.433 Z" fill="#000000" fill-rule="evenodd" fill-opacity="1" /><path clip-path="url(#clip410)" d="M 0 0 M105.569 341.785 L105.569 337.526 Q107.328 338.359 109.134 338.799 Q110.939 339.239 112.675 339.239 Q117.305 339.239 119.735 336.137 Q122.189 333.012 122.536 326.669 Q121.194 328.66 119.134 329.725 Q117.073 330.79 114.573 330.79 Q109.388 330.79 106.356 327.665 Q103.347 324.517 103.347 319.077 Q103.347 313.753 106.495 310.535 Q109.643 307.318 114.874 307.318 Q120.87 307.318 124.018 311.924 Q127.189 316.507 127.189 325.257 Q127.189 333.429 123.3 338.313 Q119.435 343.174 112.884 343.174 Q111.124 343.174 109.319 342.827 Q107.513 342.479 105.569 341.785 M114.874 327.132 Q118.023 327.132 119.851 324.98 Q121.703 322.827 121.703 319.077 Q121.703 315.35 119.851 313.197 Q118.023 311.021 114.874 311.021 Q111.726 311.021 109.874 313.197 Q108.046 315.35 108.046 319.077 Q108.046 322.827 109.874 324.98 Q111.726 327.132 114.874 327.132 Z" fill="#000000" fill-rule="evenodd" fill-opacity="1" /><path clip-path="url(#clip410)" d="M 0 0 M142.258 311.021 Q138.647 311.021 136.819 314.586 Q135.013 318.128 135.013 325.257 Q135.013 332.364 136.819 335.929 Q138.647 339.47 142.258 339.47 Q145.893 339.47 147.698 335.929 Q149.527 332.364 149.527 325.257 Q149.527 318.128 147.698 314.586 Q145.893 311.021 142.258 311.021 M142.258 307.318 Q148.069 307.318 151.124 311.924 Q154.203 316.507 154.203 325.257 Q154.203 333.984 151.124 338.591 Q148.069 343.174 142.258 343.174 Q136.448 343.174 133.37 338.591 Q130.314 333.984 130.314 325.257 Q130.314 316.507 133.37 311.924 Q136.448 307.318 142.258 307.318 Z" fill="#000000" fill-rule="evenodd" fill-opacity="1" /><path clip-path="url(#clip410)" d="M 0 0 M169.272 311.021 Q165.661 311.021 163.832 314.586 Q162.027 318.128 162.027 325.257 Q162.027 332.364 163.832 335.929 Q165.661 339.47 169.272 339.47 Q172.906 339.47 174.712 335.929 Q176.541 332.364 176.541 325.257 Q176.541 318.128 174.712 314.586 Q172.906 311.021 169.272 311.021 M169.272 307.318 Q175.082 307.318 178.138 311.924 Q181.217 316.507 181.217 325.257 Q181.217 333.984 178.138 338.591 Q175.082 343.174 169.272 343.174 Q163.462 343.174 160.383 338.591 Q157.328 333.984 157.328 325.257 Q157.328 316.507 160.383 311.924 Q163.462 307.318 169.272 307.318 Z" fill="#000000" fill-rule="evenodd" fill-opacity="1" /><path clip-path="url(#clip410)" d="M 0 0 M196.286 311.021 Q192.675 311.021 190.846 314.586 Q189.041 318.128 189.041 325.257 Q189.041 332.364 190.846 335.929 Q192.675 339.47 196.286 339.47 Q199.92 339.47 201.726 335.929 Q203.554 332.364 203.554 325.257 Q203.554 318.128 201.726 314.586 Q199.92 311.021 196.286 311.021 M196.286 307.318 Q202.096 307.318 205.152 311.924 Q208.23 316.507 208.23 325.257 Q208.23 333.984 205.152 338.591 Q202.096 343.174 196.286 343.174 Q190.476 343.174 187.397 338.591 Q184.342 333.984 184.342 325.257 Q184.342 316.507 187.397 311.924 Q190.476 307.318 196.286 307.318 Z" fill="#000000" fill-rule="evenodd" fill-opacity="1" /><path clip-path="url(#clip410)" d="M 0 0 M223.3 311.021 Q219.689 311.021 217.86 314.586 Q216.054 318.128 216.054 325.257 Q216.054 332.364 217.86 335.929 Q219.689 339.47 223.3 339.47 Q226.934 339.47 228.739 335.929 Q230.568 332.364 230.568 325.257 Q230.568 318.128 228.739 314.586 Q226.934 311.021 223.3 311.021 M223.3 307.318 Q229.11 307.318 232.165 311.924 Q235.244 316.507 235.244 325.257 Q235.244 333.984 232.165 338.591 Q229.11 343.174 223.3 343.174 Q217.49 343.174 214.411 338.591 Q211.355 333.984 211.355 325.257 Q211.355 316.507 214.411 311.924 Q217.49 307.318 223.3 307.318 Z" fill="#000000" fill-rule="evenodd" fill-opacity="1" /><path clip-path="url(#clip410)" d="M 0 0 M80.2681 207.452 L87.9069 207.452 L87.9069 181.087 L79.5968 182.753 L79.5968 178.494 L87.8606 176.827 L92.5365 176.827 L92.5365 207.452 L100.175 207.452 L100.175 211.387 L80.2681 211.387 L80.2681 207.452 Z" fill="#000000" fill-rule="evenodd" fill-opacity="1" /><path clip-path="url(#clip410)" d="M 0 0 M115.245 179.906 Q111.634 179.906 109.805 183.471 Q107.999 187.013 107.999 194.142 Q107.999 201.249 109.805 204.813 Q111.634 208.355 115.245 208.355 Q118.879 208.355 120.685 204.813 Q122.513 201.249 122.513 194.142 Q122.513 187.013 120.685 183.471 Q118.879 179.906 115.245 179.906 M115.245 176.202 Q121.055 176.202 124.11 180.809 Q127.189 185.392 127.189 194.142 Q127.189 202.869 124.11 207.475 Q121.055 212.059 115.245 212.059 Q109.435 212.059 106.356 207.475 Q103.3 202.869 103.3 194.142 Q103.3 185.392 106.356 180.809 Q109.435 176.202 115.245 176.202 Z" fill="#000000" fill-rule="evenodd" fill-opacity="1" /><path clip-path="url(#clip410)" d="M 0 0 M142.258 179.906 Q138.647 179.906 136.819 183.471 Q135.013 187.013 135.013 194.142 Q135.013 201.249 136.819 204.813 Q138.647 208.355 142.258 208.355 Q145.893 208.355 147.698 204.813 Q149.527 201.249 149.527 194.142 Q149.527 187.013 147.698 183.471 Q145.893 179.906 142.258 179.906 M142.258 176.202 Q148.069 176.202 151.124 180.809 Q154.203 185.392 154.203 194.142 Q154.203 202.869 151.124 207.475 Q148.069 212.059 142.258 212.059 Q136.448 212.059 133.37 207.475 Q130.314 202.869 130.314 194.142 Q130.314 185.392 133.37 180.809 Q136.448 176.202 142.258 176.202 Z" fill="#000000" fill-rule="evenodd" fill-opacity="1" /><path clip-path="url(#clip410)" d="M 0 0 M169.272 179.906 Q165.661 179.906 163.832 183.471 Q162.027 187.013 162.027 194.142 Q162.027 201.249 163.832 204.813 Q165.661 208.355 169.272 208.355 Q172.906 208.355 174.712 204.813 Q176.541 201.249 176.541 194.142 Q176.541 187.013 174.712 183.471 Q172.906 179.906 169.272 179.906 M169.272 176.202 Q175.082 176.202 178.138 180.809 Q181.217 185.392 181.217 194.142 Q181.217 202.869 178.138 207.475 Q175.082 212.059 169.272 212.059 Q163.462 212.059 160.383 207.475 Q157.328 202.869 157.328 194.142 Q157.328 185.392 160.383 180.809 Q163.462 176.202 169.272 176.202 Z" fill="#000000" fill-rule="evenodd" fill-opacity="1" /><path clip-path="url(#clip410)" d="M 0 0 M196.286 179.906 Q192.675 179.906 190.846 183.471 Q189.041 187.013 189.041 194.142 Q189.041 201.249 190.846 204.813 Q192.675 208.355 196.286 208.355 Q199.92 208.355 201.726 204.813 Q203.554 201.249 203.554 194.142 Q203.554 187.013 201.726 183.471 Q199.92 179.906 196.286 179.906 M196.286 176.202 Q202.096 176.202 205.152 180.809 Q208.23 185.392 208.23 194.142 Q208.23 202.869 205.152 207.475 Q202.096 212.059 196.286 212.059 Q190.476 212.059 187.397 207.475 Q184.342 202.869 184.342 194.142 Q184.342 185.392 187.397 180.809 Q190.476 176.202 196.286 176.202 Z" fill="#000000" fill-rule="evenodd" fill-opacity="1" /><path clip-path="url(#clip410)" d="M 0 0 M223.3 179.906 Q219.689 179.906 217.86 183.471 Q216.054 187.013 216.054 194.142 Q216.054 201.249 217.86 204.813 Q219.689 208.355 223.3 208.355 Q226.934 208.355 228.739 204.813 Q230.568 201.249 230.568 194.142 Q230.568 187.013 228.739 183.471 Q226.934 179.906 223.3 179.906 M223.3 176.202 Q229.11 176.202 232.165 180.809 Q235.244 185.392 235.244 194.142 Q235.244 202.869 232.165 207.475 Q229.11 212.059 223.3 212.059 Q217.49 212.059 214.411 207.475 Q211.355 202.869 211.355 194.142 Q211.355 185.392 214.411 180.809 Q217.49 176.202 223.3 176.202 Z" fill="#000000" fill-rule="evenodd" fill-opacity="1" /><path clip-path="url(#clip410)" d="M 0 0 M81.4949 76.337 L89.1338 76.337 L89.1338 49.9714 L80.8236 51.638 L80.8236 47.3788 L89.0875 45.7121 L93.7634 45.7121 L93.7634 76.337 L101.402 76.337 L101.402 80.2721 L81.4949 80.2721 L81.4949 76.337 Z" fill="#000000" fill-rule="evenodd" fill-opacity="1" /><path clip-path="url(#clip410)" d="M 0 0 M107.282 76.337 L114.921 76.337 L114.921 49.9714 L106.611 51.638 L106.611 47.3788 L114.874 45.7121 L119.55 45.7121 L119.55 76.337 L127.189 76.337 L127.189 80.2721 L107.282 80.2721 L107.282 76.337 Z" fill="#000000" fill-rule="evenodd" fill-opacity="1" /><path clip-path="url(#clip410)" d="M 0 0 M142.258 48.7908 Q138.647 48.7908 136.819 52.3556 Q135.013 55.8973 135.013 63.0268 Q135.013 70.1333 136.819 73.6981 Q138.647 77.2397 142.258 77.2397 Q145.893 77.2397 147.698 73.6981 Q149.527 70.1333 149.527 63.0268 Q149.527 55.8973 147.698 52.3556 Q145.893 48.7908 142.258 48.7908 M142.258 45.0871 Q148.069 45.0871 151.124 49.6936 Q154.203 54.2769 154.203 63.0268 Q154.203 71.7537 151.124 76.3601 Q148.069 80.9434 142.258 80.9434 Q136.448 80.9434 133.37 76.3601 Q130.314 71.7537 130.314 63.0268 Q130.314 54.2769 133.37 49.6936 Q136.448 45.0871 142.258 45.0871 Z" fill="#000000" fill-rule="evenodd" fill-opacity="1" /><path clip-path="url(#clip410)" d="M 0 0 M169.272 48.7908 Q165.661 48.7908 163.832 52.3556 Q162.027 55.8973 162.027 63.0268 Q162.027 70.1333 163.832 73.6981 Q165.661 77.2397 169.272 77.2397 Q172.906 77.2397 174.712 73.6981 Q176.541 70.1333 176.541 63.0268 Q176.541 55.8973 174.712 52.3556 Q172.906 48.7908 169.272 48.7908 M169.272 45.0871 Q175.082 45.0871 178.138 49.6936 Q181.217 54.2769 181.217 63.0268 Q181.217 71.7537 178.138 76.3601 Q175.082 80.9434 169.272 80.9434 Q163.462 80.9434 160.383 76.3601 Q157.328 71.7537 157.328 63.0268 Q157.328 54.2769 160.383 49.6936 Q163.462 45.0871 169.272 45.0871 Z" fill="#000000" fill-rule="evenodd" fill-opacity="1" /><path clip-path="url(#clip410)" d="M 0 0 M196.286 48.7908 Q192.675 48.7908 190.846 52.3556 Q189.041 55.8973 189.041 63.0268 Q189.041 70.1333 190.846 73.6981 Q192.675 77.2397 196.286 77.2397 Q199.92 77.2397 201.726 73.6981 Q203.554 70.1333 203.554 63.0268 Q203.554 55.8973 201.726 52.3556 Q199.92 48.7908 196.286 48.7908 M196.286 45.0871 Q202.096 45.0871 205.152 49.6936 Q208.23 54.2769 208.23 63.0268 Q208.23 71.7537 205.152 76.3601 Q202.096 80.9434 196.286 80.9434 Q190.476 80.9434 187.397 76.3601 Q184.342 71.7537 184.342 63.0268 Q184.342 54.2769 187.397 49.6936 Q190.476 45.0871 196.286 45.0871 Z" fill="#000000" fill-rule="evenodd" fill-opacity="1" /><path clip-path="url(#clip410)" d="M 0 0 M223.3 48.7908 Q219.689 48.7908 217.86 52.3556 Q216.054 55.8973 216.054 63.0268 Q216.054 70.1333 217.86 73.6981 Q219.689 77.2397 223.3 77.2397 Q226.934 77.2397 228.739 73.6981 Q230.568 70.1333 230.568 63.0268 Q230.568 55.8973 228.739 52.3556 Q226.934 48.7908 223.3 48.7908 M223.3 45.0871 Q229.11 45.0871 232.165 49.6936 Q235.244 54.2769 235.244 63.0268 Q235.244 71.7537 232.165 76.3601 Q229.11 80.9434 223.3 80.9434 Q217.49 80.9434 214.411 76.3601 Q211.355 71.7537 211.355 63.0268 Q211.355 54.2769 214.411 49.6936 Q217.49 45.0871 223.3 45.0871 Z" fill="#000000" fill-rule="evenodd" fill-opacity="1" /><path clip-path="url(#clip410)" d="M 0 0 M524.707 12.096 L536.9 12.096 L552.334 53.2532 L567.849 12.096 L580.042 12.096 L580.042 72.576 L572.062 72.576 L572.062 19.4686 L556.466 60.9499 L548.243 60.9499 L532.647 19.4686 L532.647 72.576 L524.707 72.576 L524.707 12.096 Z" fill="#000000" fill-rule="evenodd" fill-opacity="1" /><path clip-path="url(#clip410)" d="M 0 0 M605.441 32.4315 Q599.446 32.4315 595.962 37.1306 Q592.478 41.7891 592.478 49.9314 Q592.478 58.0738 595.922 62.7728 Q599.405 67.4314 605.441 67.4314 Q611.396 67.4314 614.88 62.7323 Q618.364 58.0333 618.364 49.9314 Q618.364 41.8701 614.88 37.1711 Q611.396 32.4315 605.441 32.4315 M605.441 26.1121 Q615.163 26.1121 620.713 32.4315 Q626.263 38.7509 626.263 49.9314 Q626.263 61.0714 620.713 67.4314 Q615.163 73.7508 605.441 73.7508 Q595.679 73.7508 590.129 67.4314 Q584.62 61.0714 584.62 49.9314 Q584.62 38.7509 590.129 32.4315 Q595.679 26.1121 605.441 26.1121 Z" fill="#000000" fill-rule="evenodd" fill-opacity="1" /><path clip-path="url(#clip410)" d="M 0 0 M671.795 45.1919 L671.795 72.576 L664.341 72.576 L664.341 45.4349 Q664.341 38.994 661.83 35.7938 Q659.318 32.5936 654.295 32.5936 Q648.259 32.5936 644.776 36.4419 Q641.292 40.2903 641.292 46.9338 L641.292 72.576 L633.798 72.576 L633.798 27.2059 L641.292 27.2059 L641.292 34.2544 Q643.965 30.163 647.571 28.1376 Q651.217 26.1121 655.956 26.1121 Q663.774 26.1121 667.785 30.9732 Q671.795 35.7938 671.795 45.1919 Z" fill="#000000" fill-rule="evenodd" fill-opacity="1" /><path clip-path="url(#clip410)" d="M 0 0 M700.232 49.7694 Q691.199 49.7694 687.715 51.8354 Q684.231 53.9013 684.231 58.8839 Q684.231 62.8538 686.824 65.2034 Q689.457 67.5124 693.954 67.5124 Q700.151 67.5124 703.878 63.1374 Q707.646 58.7219 707.646 51.4303 L707.646 49.7694 L700.232 49.7694 M715.099 46.6907 L715.099 72.576 L707.646 72.576 L707.646 65.6895 Q705.094 69.8214 701.286 71.8063 Q697.478 73.7508 691.969 73.7508 Q685.001 73.7508 680.869 69.8619 Q676.778 65.9325 676.778 59.3701 Q676.778 51.7138 681.882 47.825 Q687.026 43.9361 697.194 43.9361 L707.646 43.9361 L707.646 43.2069 Q707.646 38.0623 704.243 35.2672 Q700.881 32.4315 694.764 32.4315 Q690.875 32.4315 687.189 33.3632 Q683.502 34.295 680.099 36.1584 L680.099 29.2718 Q684.191 27.692 688.039 26.9223 Q691.888 26.1121 695.533 26.1121 Q705.377 26.1121 710.238 31.2163 Q715.099 36.3204 715.099 46.6907 Z" fill="#000000" fill-rule="evenodd" fill-opacity="1" /><path clip-path="url(#clip410)" d="M 0 0 M730.29 14.324 L730.29 27.2059 L745.643 27.2059 L745.643 32.9987 L730.29 32.9987 L730.29 57.6282 Q730.29 63.1779 731.789 64.7578 Q733.328 66.3376 737.987 66.3376 L745.643 66.3376 L745.643 72.576 L737.987 72.576 Q729.358 72.576 726.077 69.3758 Q722.796 66.1351 722.796 57.6282 L722.796 32.9987 L717.327 32.9987 L717.327 27.2059 L722.796 27.2059 L722.796 14.324 L730.29 14.324 Z" fill="#000000" fill-rule="evenodd" fill-opacity="1" /><path clip-path="url(#clip410)" d="M 0 0 M753.461 9.54393 L760.915 9.54393 L760.915 72.576 L753.461 72.576 L753.461 9.54393 Z" fill="#000000" fill-rule="evenodd" fill-opacity="1" /><path clip-path="url(#clip410)" d="M 0 0 M768.733 27.2059 L776.187 27.2059 L776.187 72.576 L768.733 72.576 L768.733 27.2059 M768.733 9.54393 L776.187 9.54393 L776.187 18.9825 L768.733 18.9825 L768.733 9.54393 Z" fill="#000000" fill-rule="evenodd" fill-opacity="1" /><path clip-path="url(#clip410)" d="M 0 0 M816.655 28.9478 L816.655 35.9153 Q813.496 34.1734 810.296 33.3227 Q807.136 32.4315 803.895 32.4315 Q796.644 32.4315 792.634 37.0496 Q788.623 41.6271 788.623 49.9314 Q788.623 58.2358 792.634 62.8538 Q796.644 67.4314 803.895 67.4314 Q807.136 67.4314 810.296 66.5807 Q813.496 65.6895 816.655 63.9476 L816.655 70.8341 Q813.536 72.2924 810.174 73.0216 Q806.852 73.7508 803.085 73.7508 Q792.836 73.7508 786.8 67.3098 Q780.764 60.8689 780.764 49.9314 Q780.764 38.832 786.841 32.472 Q792.958 26.1121 803.571 26.1121 Q807.014 26.1121 810.296 26.8413 Q813.577 27.5299 816.655 28.9478 Z" fill="#000000" fill-rule="evenodd" fill-opacity="1" /><path clip-path="url(#clip410)" d="M 0 0 M862.188 45.1919 L862.188 72.576 L854.734 72.576 L854.734 45.4349 Q854.734 38.994 852.222 35.7938 Q849.711 32.5936 844.688 32.5936 Q838.652 32.5936 835.168 36.4419 Q831.684 40.2903 831.684 46.9338 L831.684 72.576 L824.19 72.576 L824.19 9.54393 L831.684 9.54393 L831.684 34.2544 Q834.358 30.163 837.963 28.1376 Q841.609 26.1121 846.349 26.1121 Q854.167 26.1121 858.177 30.9732 Q862.188 35.7938 862.188 45.1919 Z" fill="#000000" fill-rule="evenodd" fill-opacity="1" /><path clip-path="url(#clip410)" d="M 0 0 M908.814 48.0275 L908.814 51.6733 L874.543 51.6733 Q875.029 59.3701 879.161 63.421 Q883.333 67.4314 890.746 67.4314 Q895.04 67.4314 899.051 66.3781 Q903.102 65.3249 907.072 63.2184 L907.072 70.267 Q903.061 71.9684 898.848 72.8596 Q894.635 73.7508 890.301 73.7508 Q879.444 73.7508 873.085 67.4314 Q866.765 61.1119 866.765 50.3365 Q866.765 39.1965 872.76 32.6746 Q878.796 26.1121 889.005 26.1121 Q898.16 26.1121 903.466 32.0264 Q908.814 37.9003 908.814 48.0275 M901.36 45.84 Q901.279 39.7232 897.917 36.0774 Q894.595 32.4315 889.086 32.4315 Q882.847 32.4315 879.08 35.9558 Q875.353 39.4801 874.786 45.8805 L901.36 45.84 Z" fill="#000000" fill-rule="evenodd" fill-opacity="1" /><path clip-path="url(#clip410)" d="M 0 0 M979.583 14.0809 L979.583 22.0612 Q974.924 19.8332 970.792 18.7395 Q966.66 17.6457 962.812 17.6457 Q956.128 17.6457 952.482 20.2383 Q948.877 22.8309 948.877 27.611 Q948.877 31.6214 951.267 33.6873 Q953.698 35.7128 960.422 36.9686 L965.364 37.9813 Q974.519 39.7232 978.854 44.1387 Q983.229 48.5136 983.229 55.8863 Q983.229 64.6767 977.314 69.2137 Q971.44 73.7508 960.057 73.7508 Q955.763 73.7508 950.902 72.7785 Q946.082 71.8063 940.897 69.9024 L940.897 61.4765 Q945.879 64.2716 950.659 65.6895 Q955.439 67.1073 960.057 67.1073 Q967.066 67.1073 970.873 64.3527 Q974.681 61.598 974.681 56.4939 Q974.681 52.0379 971.927 49.5264 Q969.212 47.0148 962.974 45.759 L957.991 44.7868 Q948.836 42.9639 944.745 39.075 Q940.654 35.1862 940.654 28.2591 Q940.654 20.2383 946.284 15.6203 Q951.956 11.0023 961.88 11.0023 Q966.134 11.0023 970.549 11.7719 Q974.965 12.5416 979.583 14.0809 Z" fill="#000000" fill-rule="evenodd" fill-opacity="1" /><path clip-path="url(#clip410)" d="M 0 0 M998.42 14.324 L998.42 27.2059 L1013.77 27.2059 L1013.77 32.9987 L998.42 32.9987 L998.42 57.6282 Q998.42 63.1779 999.918 64.7578 Q1001.46 66.3376 1006.12 66.3376 L1013.77 66.3376 L1013.77 72.576 L1006.12 72.576 Q997.488 72.576 994.207 69.3758 Q990.925 66.1351 990.925 57.6282 L990.925 32.9987 L985.457 32.9987 L985.457 27.2059 L990.925 27.2059 L990.925 14.324 L998.42 14.324 Z" fill="#000000" fill-rule="evenodd" fill-opacity="1" /><path clip-path="url(#clip410)" d="M 0 0 M1060.4 48.0275 L1060.4 51.6733 L1026.13 51.6733 Q1026.61 59.3701 1030.75 63.421 Q1034.92 67.4314 1042.33 67.4314 Q1046.63 67.4314 1050.64 66.3781 Q1054.69 65.3249 1058.66 63.2184 L1058.66 70.267 Q1054.65 71.9684 1050.43 72.8596 Q1046.22 73.7508 1041.89 73.7508 Q1031.03 73.7508 1024.67 67.4314 Q1018.35 61.1119 1018.35 50.3365 Q1018.35 39.1965 1024.35 32.6746 Q1030.38 26.1121 1040.59 26.1121 Q1049.74 26.1121 1055.05 32.0264 Q1060.4 37.9003 1060.4 48.0275 M1052.94 45.84 Q1052.86 39.7232 1049.5 36.0774 Q1046.18 32.4315 1040.67 32.4315 Q1034.43 32.4315 1030.66 35.9558 Q1026.94 39.4801 1026.37 45.8805 L1052.94 45.84 Z" fill="#000000" fill-rule="evenodd" fill-opacity="1" /><path clip-path="url(#clip410)" d="M 0 0 M1094.51 34.1734 Q1093.25 33.4443 1091.75 33.1202 Q1090.29 32.7556 1088.51 32.7556 Q1082.19 32.7556 1078.79 36.8875 Q1075.43 40.9789 1075.43 48.6757 L1075.43 72.576 L1067.93 72.576 L1067.93 27.2059 L1075.43 27.2059 L1075.43 34.2544 Q1077.78 30.1225 1081.54 28.1376 Q1085.31 26.1121 1090.7 26.1121 Q1091.47 26.1121 1092.4 26.2337 Q1093.33 26.3147 1094.47 26.5172 L1094.51 34.1734 Z" fill="#000000" fill-rule="evenodd" fill-opacity="1" /><path clip-path="url(#clip410)" d="M 0 0 M1134.89 49.9314 Q1134.89 41.7081 1131.49 37.0496 Q1128.13 32.3505 1122.22 32.3505 Q1116.3 32.3505 1112.9 37.0496 Q1109.54 41.7081 1109.54 49.9314 Q1109.54 58.1548 1112.9 62.8538 Q1116.3 67.5124 1122.22 67.5124 Q1128.13 67.5124 1131.49 62.8538 Q1134.89 58.1548 1134.89 49.9314 M1109.54 34.0924 Q1111.89 30.0415 1115.45 28.0971 Q1119.06 26.1121 1124.04 26.1121 Q1132.3 26.1121 1137.45 32.6746 Q1142.63 39.2371 1142.63 49.9314 Q1142.63 60.6258 1137.45 67.1883 Q1132.3 73.7508 1124.04 73.7508 Q1119.06 73.7508 1115.45 71.8063 Q1111.89 69.8214 1109.54 65.7705 L1109.54 72.576 L1102.04 72.576 L1102.04 9.54393 L1109.54 9.54393 L1109.54 34.0924 Z" fill="#000000" fill-rule="evenodd" fill-opacity="1" /><path clip-path="url(#clip410)" d="M 0 0 M1189.26 48.0275 L1189.26 51.6733 L1154.99 51.6733 Q1155.47 59.3701 1159.6 63.421 Q1163.78 67.4314 1171.19 67.4314 Q1175.48 67.4314 1179.49 66.3781 Q1183.55 65.3249 1187.52 63.2184 L1187.52 70.267 Q1183.51 71.9684 1179.29 72.8596 Q1175.08 73.7508 1170.74 73.7508 Q1159.89 73.7508 1153.53 67.4314 Q1147.21 61.1119 1147.21 50.3365 Q1147.21 39.1965 1153.2 32.6746 Q1159.24 26.1121 1169.45 26.1121 Q1178.6 26.1121 1183.91 32.0264 Q1189.26 37.9003 1189.26 48.0275 M1181.8 45.84 Q1181.72 39.7232 1178.36 36.0774 Q1175.04 32.4315 1169.53 32.4315 Q1163.29 32.4315 1159.52 35.9558 Q1155.8 39.4801 1155.23 45.8805 L1181.8 45.84 Z" fill="#000000" fill-rule="evenodd" fill-opacity="1" /><path clip-path="url(#clip410)" d="M 0 0 M1220.04 9.54393 L1220.04 15.7418 L1212.91 15.7418 Q1208.9 15.7418 1207.32 17.3622 Q1205.79 18.9825 1205.79 23.1955 L1205.79 27.2059 L1218.06 27.2059 L1218.06 32.9987 L1205.79 32.9987 L1205.79 72.576 L1198.29 72.576 L1198.29 32.9987 L1191.16 32.9987 L1191.16 27.2059 L1198.29 27.2059 L1198.29 24.0462 Q1198.29 16.471 1201.82 13.0277 Q1205.34 9.54393 1213 9.54393 L1220.04 9.54393 Z" fill="#000000" fill-rule="evenodd" fill-opacity="1" /><path clip-path="url(#clip410)" d="M 0 0 M1248.48 49.7694 Q1239.45 49.7694 1235.96 51.8354 Q1232.48 53.9013 1232.48 58.8839 Q1232.48 62.8538 1235.07 65.2034 Q1237.71 67.5124 1242.2 67.5124 Q1248.4 67.5124 1252.13 63.1374 Q1255.89 58.7219 1255.89 51.4303 L1255.89 49.7694 L1248.48 49.7694 M1263.35 46.6907 L1263.35 72.576 L1255.89 72.576 L1255.89 65.6895 Q1253.34 69.8214 1249.54 71.8063 Q1245.73 73.7508 1240.22 73.7508 Q1233.25 73.7508 1229.12 69.8619 Q1225.03 65.9325 1225.03 59.3701 Q1225.03 51.7138 1230.13 47.825 Q1235.28 43.9361 1245.44 43.9361 L1255.89 43.9361 L1255.89 43.2069 Q1255.89 38.0623 1252.49 35.2672 Q1249.13 32.4315 1243.01 32.4315 Q1239.12 32.4315 1235.44 33.3632 Q1231.75 34.295 1228.35 36.1584 L1228.35 29.2718 Q1232.44 27.692 1236.29 26.9223 Q1240.14 26.1121 1243.78 26.1121 Q1253.63 26.1121 1258.49 31.2163 Q1263.35 36.3204 1263.35 46.6907 Z" fill="#000000" fill-rule="evenodd" fill-opacity="1" /><path clip-path="url(#clip410)" d="M 0 0 M1271.17 9.54393 L1278.62 9.54393 L1278.62 72.576 L1271.17 72.576 L1271.17 9.54393 Z" fill="#000000" fill-rule="evenodd" fill-opacity="1" /><path clip-path="url(#clip410)" d="M 0 0 M1286.44 9.54393 L1293.89 9.54393 L1293.89 72.576 L1286.44 72.576 L1286.44 9.54393 Z" fill="#000000" fill-rule="evenodd" fill-opacity="1" /><path clip-path="url(#clip410)" d="M 0 0 M1298.47 27.2059 L1333.87 27.2059 L1333.87 34.0114 L1305.84 66.6212 L1333.87 66.6212 L1333.87 72.576 L1297.46 72.576 L1297.46 65.7705 L1325.49 33.1607 L1298.47 33.1607 L1298.47 27.2059 Z" fill="#000000" fill-rule="evenodd" fill-opacity="1" /><path clip-path="url(#clip410)" d="M 0 0 M1362.31 49.7694 Q1353.28 49.7694 1349.79 51.8354 Q1346.31 53.9013 1346.31 58.8839 Q1346.31 62.8538 1348.9 65.2034 Q1351.54 67.5124 1356.03 67.5124 Q1362.23 67.5124 1365.96 63.1374 Q1369.73 58.7219 1369.73 51.4303 L1369.73 49.7694 L1362.31 49.7694 M1377.18 46.6907 L1377.18 72.576 L1369.73 72.576 L1369.73 65.6895 Q1367.17 69.8214 1363.37 71.8063 Q1359.56 73.7508 1354.05 73.7508 Q1347.08 73.7508 1342.95 69.8619 Q1338.86 65.9325 1338.86 59.3701 Q1338.86 51.7138 1343.96 47.825 Q1349.11 43.9361 1359.27 43.9361 L1369.73 43.9361 L1369.73 43.2069 Q1369.73 38.0623 1366.32 35.2672 Q1362.96 32.4315 1356.84 32.4315 Q1352.95 32.4315 1349.27 33.3632 Q1345.58 34.295 1342.18 36.1584 L1342.18 29.2718 Q1346.27 27.692 1350.12 26.9223 Q1353.97 26.1121 1357.61 26.1121 Q1367.46 26.1121 1372.32 31.2163 Q1377.18 36.3204 1377.18 46.6907 Z" fill="#000000" fill-rule="evenodd" fill-opacity="1" /><path clip-path="url(#clip410)" d="M 0 0 M1422.71 45.1919 L1422.71 72.576 L1415.26 72.576 L1415.26 45.4349 Q1415.26 38.994 1412.75 35.7938 Q1410.23 32.5936 1405.21 32.5936 Q1399.18 32.5936 1395.69 36.4419 Q1392.21 40.2903 1392.21 46.9338 L1392.21 72.576 L1384.71 72.576 L1384.71 9.54393 L1392.21 9.54393 L1392.21 34.2544 Q1394.88 30.163 1398.49 28.1376 Q1402.13 26.1121 1406.87 26.1121 Q1414.69 26.1121 1418.7 30.9732 Q1422.71 35.7938 1422.71 45.1919 Z" fill="#000000" fill-rule="evenodd" fill-opacity="1" /><path clip-path="url(#clip410)" d="M 0 0 M1430.53 9.54393 L1437.98 9.54393 L1437.98 72.576 L1430.53 72.576 L1430.53 9.54393 Z" fill="#000000" fill-rule="evenodd" fill-opacity="1" /><path clip-path="url(#clip410)" d="M 0 0 M1484.61 48.0275 L1484.61 51.6733 L1450.34 51.6733 Q1450.82 59.3701 1454.96 63.421 Q1459.13 67.4314 1466.54 67.4314 Q1470.84 67.4314 1474.85 66.3781 Q1478.9 65.3249 1482.87 63.2184 L1482.87 70.267 Q1478.86 71.9684 1474.64 72.8596 Q1470.43 73.7508 1466.1 73.7508 Q1455.24 73.7508 1448.88 67.4314 Q1442.56 61.1119 1442.56 50.3365 Q1442.56 39.1965 1448.56 32.6746 Q1454.59 26.1121 1464.8 26.1121 Q1473.96 26.1121 1479.26 32.0264 Q1484.61 37.9003 1484.61 48.0275 M1477.16 45.84 Q1477.07 39.7232 1473.71 36.0774 Q1470.39 32.4315 1464.88 32.4315 Q1458.64 32.4315 1454.88 35.9558 Q1451.15 39.4801 1450.58 45.8805 L1477.16 45.84 Z" fill="#000000" fill-rule="evenodd" fill-opacity="1" /><path clip-path="url(#clip410)" d="M 0 0 M1530.14 45.1919 L1530.14 72.576 L1522.69 72.576 L1522.69 45.4349 Q1522.69 38.994 1520.18 35.7938 Q1517.66 32.5936 1512.64 32.5936 Q1506.61 32.5936 1503.12 36.4419 Q1499.64 40.2903 1499.64 46.9338 L1499.64 72.576 L1492.14 72.576 L1492.14 27.2059 L1499.64 27.2059 L1499.64 34.2544 Q1502.31 30.163 1505.92 28.1376 Q1509.56 26.1121 1514.3 26.1121 Q1522.12 26.1121 1526.13 30.9732 Q1530.14 35.7938 1530.14 45.1919 Z" fill="#000000" fill-rule="evenodd" fill-opacity="1" /><path clip-path="url(#clip410)" d="M 0 0 M1564.33 27.2059 L1571.78 27.2059 L1571.78 72.576 L1564.33 72.576 L1564.33 27.2059 M1564.33 9.54393 L1571.78 9.54393 L1571.78 18.9825 L1564.33 18.9825 L1564.33 9.54393 Z" fill="#000000" fill-rule="evenodd" fill-opacity="1" /><path clip-path="url(#clip410)" d="M 0 0 M1617.32 45.1919 L1617.32 72.576 L1609.86 72.576 L1609.86 45.4349 Q1609.86 38.994 1607.35 35.7938 Q1604.84 32.5936 1599.82 32.5936 Q1593.78 32.5936 1590.3 36.4419 Q1586.81 40.2903 1586.81 46.9338 L1586.81 72.576 L1579.32 72.576 L1579.32 27.2059 L1586.81 27.2059 L1586.81 34.2544 Q1589.49 30.163 1593.09 28.1376 Q1596.74 26.1121 1601.48 26.1121 Q1609.3 26.1121 1613.31 30.9732 Q1617.32 35.7938 1617.32 45.1919 Z" fill="#000000" fill-rule="evenodd" fill-opacity="1" /><path clip-path="url(#clip410)" d="M 0 0 M1660.01 18.8205 L1660.01 65.8515 L1669.9 65.8515 Q1682.41 65.8515 1688.21 60.1802 Q1694.04 54.509 1694.04 42.2752 Q1694.04 30.1225 1688.21 24.4918 Q1682.41 18.8205 1669.9 18.8205 L1660.01 18.8205 M1651.83 12.096 L1668.64 12.096 Q1686.22 12.096 1694.45 19.4281 Q1702.67 26.7198 1702.67 42.2752 Q1702.67 57.9117 1694.41 65.2439 Q1686.14 72.576 1668.64 72.576 L1651.83 72.576 L1651.83 12.096 Z" fill="#000000" fill-rule="evenodd" fill-opacity="1" /><path clip-path="url(#clip410)" d="M 0 0 M1749.3 48.0275 L1749.3 51.6733 L1715.02 51.6733 Q1715.51 59.3701 1719.64 63.421 Q1723.81 67.4314 1731.23 67.4314 Q1735.52 67.4314 1739.53 66.3781 Q1743.58 65.3249 1747.55 63.2184 L1747.55 70.267 Q1743.54 71.9684 1739.33 72.8596 Q1735.12 73.7508 1730.78 73.7508 Q1719.93 73.7508 1713.57 67.4314 Q1707.25 61.1119 1707.25 50.3365 Q1707.25 39.1965 1713.24 32.6746 Q1719.28 26.1121 1729.49 26.1121 Q1738.64 26.1121 1743.95 32.0264 Q1749.3 37.9003 1749.3 48.0275 M1741.84 45.84 Q1741.76 39.7232 1738.4 36.0774 Q1735.08 32.4315 1729.57 32.4315 Q1723.33 32.4315 1719.56 35.9558 Q1715.83 39.4801 1715.27 45.8805 L1741.84 45.84 Z" fill="#000000" fill-rule="evenodd" fill-opacity="1" /><path clip-path="url(#clip410)" d="M 0 0 M1756.34 54.671 L1756.34 27.2059 L1763.8 27.2059 L1763.8 54.3874 Q1763.8 60.8284 1766.31 64.0691 Q1768.82 67.2693 1773.84 67.2693 Q1779.88 67.2693 1783.36 63.421 Q1786.89 59.5726 1786.89 52.9291 L1786.89 27.2059 L1794.34 27.2059 L1794.34 72.576 L1786.89 72.576 L1786.89 65.6084 Q1784.17 69.7404 1780.57 71.7658 Q1777 73.7508 1772.26 73.7508 Q1764.45 73.7508 1760.39 68.8897 Q1756.34 64.0286 1756.34 54.671 M1775.1 26.1121 L1775.1 26.1121 Z" fill="#000000" fill-rule="evenodd" fill-opacity="1" /><path clip-path="url(#clip410)" d="M 0 0 M1809.53 14.324 L1809.53 27.2059 L1824.88 27.2059 L1824.88 32.9987 L1809.53 32.9987 L1809.53 57.6282 Q1809.53 63.1779 1811.03 64.7578 Q1812.57 66.3376 1817.23 66.3376 L1824.88 66.3376 L1824.88 72.576 L1817.23 72.576 Q1808.6 72.576 1805.32 69.3758 Q1802.04 66.1351 1802.04 57.6282 L1802.04 32.9987 L1796.57 32.9987 L1796.57 27.2059 L1802.04 27.2059 L1802.04 14.324 L1809.53 14.324 Z" fill="#000000" fill-rule="evenodd" fill-opacity="1" /><path clip-path="url(#clip410)" d="M 0 0 M1861.63 28.5427 L1861.63 35.5912 Q1858.47 33.9709 1855.06 33.1607 Q1851.66 32.3505 1848.02 32.3505 Q1842.47 32.3505 1839.67 34.0519 Q1836.92 35.7533 1836.92 39.156 Q1836.92 41.7486 1838.9 43.2475 Q1840.89 44.7058 1846.88 46.0426 L1849.43 46.6097 Q1857.37 48.3111 1860.69 51.4303 Q1864.06 54.509 1864.06 60.0587 Q1864.06 66.3781 1859.03 70.0644 Q1854.05 73.7508 1845.3 73.7508 Q1841.66 73.7508 1837.69 73.0216 Q1833.76 72.3329 1829.38 70.9151 L1829.38 63.2184 Q1833.51 65.3654 1837.52 66.4591 Q1841.53 67.5124 1845.46 67.5124 Q1850.73 67.5124 1853.57 65.73 Q1856.4 63.9071 1856.4 60.6258 Q1856.4 57.5877 1854.34 55.9673 Q1852.31 54.3469 1845.38 52.8481 L1842.79 52.2405 Q1835.86 50.7821 1832.78 47.7845 Q1829.71 44.7463 1829.71 39.4801 Q1829.71 33.0797 1834.24 29.5959 Q1838.78 26.1121 1847.12 26.1121 Q1851.26 26.1121 1854.9 26.7198 Q1858.55 27.3274 1861.63 28.5427 Z" fill="#000000" fill-rule="evenodd" fill-opacity="1" /><path clip-path="url(#clip410)" d="M 0 0 M1904.53 28.9478 L1904.53 35.9153 Q1901.37 34.1734 1898.17 33.3227 Q1895.01 32.4315 1891.77 32.4315 Q1884.51 32.4315 1880.5 37.0496 Q1876.49 41.6271 1876.49 49.9314 Q1876.49 58.2358 1880.5 62.8538 Q1884.51 67.4314 1891.77 67.4314 Q1895.01 67.4314 1898.17 66.5807 Q1901.37 65.6895 1904.53 63.9476 L1904.53 70.8341 Q1901.41 72.2924 1898.04 73.0216 Q1894.72 73.7508 1890.96 73.7508 Q1880.71 73.7508 1874.67 67.3098 Q1868.63 60.8689 1868.63 49.9314 Q1868.63 38.832 1874.71 32.472 Q1880.83 26.1121 1891.44 26.1121 Q1894.88 26.1121 1898.17 26.8413 Q1901.45 27.5299 1904.53 28.9478 Z" fill="#000000" fill-rule="evenodd" fill-opacity="1" /><path clip-path="url(#clip410)" d="M 0 0 M1950.06 45.1919 L1950.06 72.576 L1942.6 72.576 L1942.6 45.4349 Q1942.6 38.994 1940.09 35.7938 Q1937.58 32.5936 1932.56 32.5936 Q1926.52 32.5936 1923.04 36.4419 Q1919.55 40.2903 1919.55 46.9338 L1919.55 72.576 L1912.06 72.576 L1912.06 9.54393 L1919.55 9.54393 L1919.55 34.2544 Q1922.23 30.163 1925.83 28.1376 Q1929.48 26.1121 1934.22 26.1121 Q1942.04 26.1121 1946.05 30.9732 Q1950.06 35.7938 1950.06 45.1919 Z" fill="#000000" fill-rule="evenodd" fill-opacity="1" /><path clip-path="url(#clip410)" d="M 0 0 M1957.88 9.54393 L1965.33 9.54393 L1965.33 72.576 L1957.88 72.576 L1957.88 9.54393 Z" fill="#000000" fill-rule="evenodd" fill-opacity="1" /><path clip-path="url(#clip410)" d="M 0 0 M1993.77 49.7694 Q1984.73 49.7694 1981.25 51.8354 Q1977.77 53.9013 1977.77 58.8839 Q1977.77 62.8538 1980.36 65.2034 Q1982.99 67.5124 1987.49 67.5124 Q1993.69 67.5124 1997.41 63.1374 Q2001.18 58.7219 2001.18 51.4303 L2001.18 49.7694 L1993.77 49.7694 M2008.63 46.6907 L2008.63 72.576 L2001.18 72.576 L2001.18 65.6895 Q1998.63 69.8214 1994.82 71.8063 Q1991.01 73.7508 1985.5 73.7508 Q1978.54 73.7508 1974.4 69.8619 Q1970.31 65.9325 1970.31 59.3701 Q1970.31 51.7138 1975.42 47.825 Q1980.56 43.9361 1990.73 43.9361 L2001.18 43.9361 L2001.18 43.2069 Q2001.18 38.0623 1997.78 35.2672 Q1994.42 32.4315 1988.3 32.4315 Q1984.41 32.4315 1980.72 33.3632 Q1977.04 34.295 1973.63 36.1584 L1973.63 29.2718 Q1977.73 27.692 1981.57 26.9223 Q1985.42 26.1121 1989.07 26.1121 Q1998.91 26.1121 2003.77 31.2163 Q2008.63 36.3204 2008.63 46.6907 Z" fill="#000000" fill-rule="evenodd" fill-opacity="1" /><path clip-path="url(#clip410)" d="M 0 0 M2054.17 45.1919 L2054.17 72.576 L2046.71 72.576 L2046.71 45.4349 Q2046.71 38.994 2044.2 35.7938 Q2041.69 32.5936 2036.67 32.5936 Q2030.63 32.5936 2027.15 36.4419 Q2023.66 40.2903 2023.66 46.9338 L2023.66 72.576 L2016.17 72.576 L2016.17 27.2059 L2023.66 27.2059 L2023.66 34.2544 Q2026.34 30.163 2029.94 28.1376 Q2033.59 26.1121 2038.33 26.1121 Q2046.15 26.1121 2050.16 30.9732 Q2054.17 35.7938 2054.17 45.1919 Z" fill="#000000" fill-rule="evenodd" fill-opacity="1" /><path clip-path="url(#clip410)" d="M 0 0 M2091.84 34.0924 L2091.84 9.54393 L2099.29 9.54393 L2099.29 72.576 L2091.84 72.576 L2091.84 65.7705 Q2089.49 69.8214 2085.88 71.8063 Q2082.32 73.7508 2077.3 73.7508 Q2069.07 73.7508 2063.89 67.1883 Q2058.74 60.6258 2058.74 49.9314 Q2058.74 39.2371 2063.89 32.6746 Q2069.07 26.1121 2077.3 26.1121 Q2082.32 26.1121 2085.88 28.0971 Q2089.49 30.0415 2091.84 34.0924 M2066.44 49.9314 Q2066.44 58.1548 2069.8 62.8538 Q2073.21 67.5124 2079.12 67.5124 Q2085.03 67.5124 2088.44 62.8538 Q2091.84 58.1548 2091.84 49.9314 Q2091.84 41.7081 2088.44 37.0496 Q2085.03 32.3505 2079.12 32.3505 Q2073.21 32.3505 2069.8 37.0496 Q2066.44 41.7081 2066.44 49.9314 Z" fill="#000000" fill-rule="evenodd" fill-opacity="1" /><polyline clip-path="url(#clip412)" style="stroke:#006298; stroke-width:12; stroke-opacity:1; fill:none" points="
  330.155,433.498 508.672,500.668 687.189,408.245 865.707,517.765 1044.22,528.123 1222.74,598.126 1401.26,559.63 1579.78,570.474 1758.29,600.08 1936.81,508.771 
  2115.33,495.017 2293.85,399.447 
  "/>
<polyline clip-path="url(#clip412)" style="stroke:#a02438; stroke-width:12; stroke-opacity:1; fill:none" points="
  330.155,246.121 508.672,316.713 687.189,417.869 865.707,545.444 1044.22,512.94 1222.74,592.121 1401.26,568.953 1579.78,567.943 1758.29,595.438 1936.81,518.893 
  2115.33,522.066 2293.85,435.228 
  "/>
<polyline clip-path="url(#clip412)" style="stroke:#449adc; stroke-width:12; stroke-opacity:1; fill:none" points="
  330.155,391.134 508.672,380.304 687.189,100.963 865.707,462.382 1044.22,526.511 1222.74,596.264 1401.26,513.963 1579.78,477.71 1758.29,591.282 1936.81,534.496 
  2115.33,525.016 2293.85,443.239 
  "/>
<polyline clip-path="url(#clip412)" style="stroke:#002b52; stroke-width:12; stroke-opacity:1; fill:none" points="
  330.155,389.404 508.672,443.108 687.189,367.979 865.707,490.297 1044.22,513.124 1222.74,541.786 1401.26,496.643 1579.78,542.297 1758.29,574.053 1936.81,495.594 
  2115.33,477.605 2293.85,412.69 
  "/>
<polyline clip-path="url(#clip412)" style="stroke:#ec4a60; stroke-width:12; stroke-opacity:1; fill:none" points="
  330.155,385.745 508.672,456.167 687.189,358.631 865.707,405.924 1044.22,511.734 1222.74,559.473 1401.26,538.206 1579.78,474.314 1758.29,535.269 1936.81,463.798 
  2115.33,384.447 2293.85,107.48 
  "/>
<path clip-path="url(#clip410)" d="
M1950.17 1457.18 L2283.37 1457.18 L2283.37 1094.3 L1950.17 1094.3  Z
  " fill="#ffffff" fill-rule="evenodd" fill-opacity="1"/>
<polyline clip-path="url(#clip410)" style="stroke:#000000; stroke-width:4; stroke-opacity:1; fill:none" points="
  1950.17,1457.18 2283.37,1457.18 2283.37,1094.3 1950.17,1094.3 1950.17,1457.18 
  "/>
<polyline clip-path="url(#clip410)" style="stroke:#006298; stroke-width:4; stroke-opacity:1; fill:none" points="
  1973.3,1154.78 2112.07,1154.78 
  "/>
<path clip-path="url(#clip410)" d="M 0 0 M2140.82 1168.13 L2157.14 1168.13 L2157.14 1172.06 L2135.2 1172.06 L2135.2 1168.13 Q2137.86 1165.37 2142.44 1160.74 Q2147.05 1156.09 2148.23 1154.75 Q2150.47 1152.23 2151.35 1150.49 Q2152.26 1148.73 2152.26 1147.04 Q2152.26 1144.29 2150.31 1142.55 Q2148.39 1140.81 2145.29 1140.81 Q2143.09 1140.81 2140.64 1141.58 Q2138.2 1142.34 2135.43 1143.89 L2135.43 1139.17 Q2138.25 1138.04 2140.7 1137.46 Q2143.16 1136.88 2145.2 1136.88 Q2150.57 1136.88 2153.76 1139.56 Q2156.95 1142.25 2156.95 1146.74 Q2156.95 1148.87 2156.14 1150.79 Q2155.36 1152.69 2153.25 1155.28 Q2152.67 1155.95 2149.57 1159.17 Q2146.47 1162.37 2140.82 1168.13 Z" fill="#000000" fill-rule="evenodd" fill-opacity="1" /><path clip-path="url(#clip410)" d="M 0 0 M2172.21 1140.58 Q2168.6 1140.58 2166.77 1144.15 Q2164.96 1147.69 2164.96 1154.82 Q2164.96 1161.93 2166.77 1165.49 Q2168.6 1169.03 2172.21 1169.03 Q2175.84 1169.03 2177.65 1165.49 Q2179.48 1161.93 2179.48 1154.82 Q2179.48 1147.69 2177.65 1144.15 Q2175.84 1140.58 2172.21 1140.58 M2172.21 1136.88 Q2178.02 1136.88 2181.07 1141.49 Q2184.15 1146.07 2184.15 1154.82 Q2184.15 1163.55 2181.07 1168.15 Q2178.02 1172.74 2172.21 1172.74 Q2166.4 1172.74 2163.32 1168.15 Q2160.26 1163.55 2160.26 1154.82 Q2160.26 1146.07 2163.32 1141.49 Q2166.4 1136.88 2172.21 1136.88 Z" fill="#000000" fill-rule="evenodd" fill-opacity="1" /><path clip-path="url(#clip410)" d="M 0 0 M2190.03 1168.13 L2197.67 1168.13 L2197.67 1141.76 L2189.36 1143.43 L2189.36 1139.17 L2197.63 1137.5 L2202.3 1137.5 L2202.3 1168.13 L2209.94 1168.13 L2209.94 1172.06 L2190.03 1172.06 L2190.03 1168.13 Z" fill="#000000" fill-rule="evenodd" fill-opacity="1" /><path clip-path="url(#clip410)" d="M 0 0 M2225.59 1152.92 Q2222.44 1152.92 2220.59 1155.07 Q2218.76 1157.23 2218.76 1160.98 Q2218.76 1164.7 2220.59 1166.88 Q2222.44 1169.03 2225.59 1169.03 Q2228.74 1169.03 2230.57 1166.88 Q2232.42 1164.7 2232.42 1160.98 Q2232.42 1157.23 2230.57 1155.07 Q2228.74 1152.92 2225.59 1152.92 M2234.87 1138.27 L2234.87 1142.53 Q2233.11 1141.69 2231.31 1141.25 Q2229.52 1140.81 2227.76 1140.81 Q2223.13 1140.81 2220.68 1143.94 Q2218.25 1147.06 2217.9 1153.38 Q2219.27 1151.37 2221.33 1150.31 Q2223.39 1149.22 2225.87 1149.22 Q2231.07 1149.22 2234.08 1152.39 Q2237.12 1155.54 2237.12 1160.98 Q2237.12 1166.3 2233.97 1169.52 Q2230.82 1172.74 2225.59 1172.74 Q2219.59 1172.74 2216.42 1168.15 Q2213.25 1163.55 2213.25 1154.82 Q2213.25 1146.62 2217.14 1141.76 Q2221.03 1136.88 2227.58 1136.88 Q2229.34 1136.88 2231.12 1137.23 Q2232.93 1137.57 2234.87 1138.27 Z" fill="#000000" fill-rule="evenodd" fill-opacity="1" /><polyline clip-path="url(#clip410)" style="stroke:#a02438; stroke-width:4; stroke-opacity:1; fill:none" points="
  1973.3,1215.26 2112.07,1215.26 
  "/>
<path clip-path="url(#clip410)" d="M 0 0 M2140.82 1228.61 L2157.14 1228.61 L2157.14 1232.54 L2135.2 1232.54 L2135.2 1228.61 Q2137.86 1225.85 2142.44 1221.22 Q2147.05 1216.57 2148.23 1215.23 Q2150.47 1212.71 2151.35 1210.97 Q2152.26 1209.21 2152.26 1207.52 Q2152.26 1204.77 2150.31 1203.03 Q2148.39 1201.29 2145.29 1201.29 Q2143.09 1201.29 2140.64 1202.06 Q2138.2 1202.82 2135.43 1204.37 L2135.43 1199.65 Q2138.25 1198.52 2140.7 1197.94 Q2143.16 1197.36 2145.2 1197.36 Q2150.57 1197.36 2153.76 1200.04 Q2156.95 1202.73 2156.95 1207.22 Q2156.95 1209.35 2156.14 1211.27 Q2155.36 1213.17 2153.25 1215.76 Q2152.67 1216.43 2149.57 1219.65 Q2146.47 1222.85 2140.82 1228.61 Z" fill="#000000" fill-rule="evenodd" fill-opacity="1" /><path clip-path="url(#clip410)" d="M 0 0 M2172.21 1201.06 Q2168.6 1201.06 2166.77 1204.63 Q2164.96 1208.17 2164.96 1215.3 Q2164.96 1222.41 2166.77 1225.97 Q2168.6 1229.51 2172.21 1229.51 Q2175.84 1229.51 2177.65 1225.97 Q2179.48 1222.41 2179.48 1215.3 Q2179.48 1208.17 2177.65 1204.63 Q2175.84 1201.06 2172.21 1201.06 M2172.21 1197.36 Q2178.02 1197.36 2181.07 1201.97 Q2184.15 1206.55 2184.15 1215.3 Q2184.15 1224.03 2181.07 1228.63 Q2178.02 1233.22 2172.21 1233.22 Q2166.4 1233.22 2163.32 1228.63 Q2160.26 1224.03 2160.26 1215.3 Q2160.26 1206.55 2163.32 1201.97 Q2166.4 1197.36 2172.21 1197.36 Z" fill="#000000" fill-rule="evenodd" fill-opacity="1" /><path clip-path="url(#clip410)" d="M 0 0 M2190.03 1228.61 L2197.67 1228.61 L2197.67 1202.24 L2189.36 1203.91 L2189.36 1199.65 L2197.63 1197.98 L2202.3 1197.98 L2202.3 1228.61 L2209.94 1228.61 L2209.94 1232.54 L2190.03 1232.54 L2190.03 1228.61 Z" fill="#000000" fill-rule="evenodd" fill-opacity="1" /><path clip-path="url(#clip410)" d="M 0 0 M2213.83 1197.98 L2236.05 1197.98 L2236.05 1199.97 L2223.51 1232.54 L2218.62 1232.54 L2230.43 1201.92 L2213.83 1201.92 L2213.83 1197.98 Z" fill="#000000" fill-rule="evenodd" fill-opacity="1" /><polyline clip-path="url(#clip410)" style="stroke:#449adc; stroke-width:4; stroke-opacity:1; fill:none" points="
  1973.3,1275.74 2112.07,1275.74 
  "/>
<path clip-path="url(#clip410)" d="M 0 0 M2140.82 1289.09 L2157.14 1289.09 L2157.14 1293.02 L2135.2 1293.02 L2135.2 1289.09 Q2137.86 1286.33 2142.44 1281.7 Q2147.05 1277.05 2148.23 1275.71 Q2150.47 1273.19 2151.35 1271.45 Q2152.26 1269.69 2152.26 1268 Q2152.26 1265.25 2150.31 1263.51 Q2148.39 1261.77 2145.29 1261.77 Q2143.09 1261.77 2140.64 1262.54 Q2138.2 1263.3 2135.43 1264.85 L2135.43 1260.13 Q2138.25 1259 2140.7 1258.42 Q2143.16 1257.84 2145.2 1257.84 Q2150.57 1257.84 2153.76 1260.52 Q2156.95 1263.21 2156.95 1267.7 Q2156.95 1269.83 2156.14 1271.75 Q2155.36 1273.65 2153.25 1276.24 Q2152.67 1276.91 2149.57 1280.13 Q2146.47 1283.33 2140.82 1289.09 Z" fill="#000000" fill-rule="evenodd" fill-opacity="1" /><path clip-path="url(#clip410)" d="M 0 0 M2172.21 1261.54 Q2168.6 1261.54 2166.77 1265.11 Q2164.96 1268.65 2164.96 1275.78 Q2164.96 1282.89 2166.77 1286.45 Q2168.6 1289.99 2172.21 1289.99 Q2175.84 1289.99 2177.65 1286.45 Q2179.48 1282.89 2179.48 1275.78 Q2179.48 1268.65 2177.65 1265.11 Q2175.84 1261.54 2172.21 1261.54 M2172.21 1257.84 Q2178.02 1257.84 2181.07 1262.45 Q2184.15 1267.03 2184.15 1275.78 Q2184.15 1284.51 2181.07 1289.11 Q2178.02 1293.7 2172.21 1293.7 Q2166.4 1293.7 2163.32 1289.11 Q2160.26 1284.51 2160.26 1275.78 Q2160.26 1267.03 2163.32 1262.45 Q2166.4 1257.84 2172.21 1257.84 Z" fill="#000000" fill-rule="evenodd" fill-opacity="1" /><path clip-path="url(#clip410)" d="M 0 0 M2190.03 1289.09 L2197.67 1289.09 L2197.67 1262.72 L2189.36 1264.39 L2189.36 1260.13 L2197.63 1258.46 L2202.3 1258.46 L2202.3 1289.09 L2209.94 1289.09 L2209.94 1293.02 L2190.03 1293.02 L2190.03 1289.09 Z" fill="#000000" fill-rule="evenodd" fill-opacity="1" /><path clip-path="url(#clip410)" d="M 0 0 M2225.01 1276.61 Q2221.68 1276.61 2219.76 1278.39 Q2217.86 1280.18 2217.86 1283.3 Q2217.86 1286.43 2219.76 1288.21 Q2221.68 1289.99 2225.01 1289.99 Q2228.34 1289.99 2230.26 1288.21 Q2232.19 1286.4 2232.19 1283.3 Q2232.19 1280.18 2230.26 1278.39 Q2228.37 1276.61 2225.01 1276.61 M2220.33 1274.62 Q2217.32 1273.88 2215.63 1271.82 Q2213.97 1269.76 2213.97 1266.8 Q2213.97 1262.65 2216.91 1260.25 Q2219.87 1257.84 2225.01 1257.84 Q2230.17 1257.84 2233.11 1260.25 Q2236.05 1262.65 2236.05 1266.8 Q2236.05 1269.76 2234.36 1271.82 Q2232.7 1273.88 2229.71 1274.62 Q2233.09 1275.41 2234.96 1277.7 Q2236.86 1279.99 2236.86 1283.3 Q2236.86 1288.33 2233.78 1291.01 Q2230.73 1293.7 2225.01 1293.7 Q2219.29 1293.7 2216.21 1291.01 Q2213.16 1288.33 2213.16 1283.3 Q2213.16 1279.99 2215.06 1277.7 Q2216.95 1275.41 2220.33 1274.62 M2218.62 1267.24 Q2218.62 1269.92 2220.29 1271.43 Q2221.98 1272.93 2225.01 1272.93 Q2228.02 1272.93 2229.71 1271.43 Q2231.42 1269.92 2231.42 1267.24 Q2231.42 1264.55 2229.71 1263.05 Q2228.02 1261.54 2225.01 1261.54 Q2221.98 1261.54 2220.29 1263.05 Q2218.62 1264.55 2218.62 1267.24 Z" fill="#000000" fill-rule="evenodd" fill-opacity="1" /><polyline clip-path="url(#clip410)" style="stroke:#002b52; stroke-width:4; stroke-opacity:1; fill:none" points="
  1973.3,1336.22 2112.07,1336.22 
  "/>
<path clip-path="url(#clip410)" d="M 0 0 M2140.82 1349.57 L2157.14 1349.57 L2157.14 1353.5 L2135.2 1353.5 L2135.2 1349.57 Q2137.86 1346.81 2142.44 1342.18 Q2147.05 1337.53 2148.23 1336.19 Q2150.47 1333.67 2151.35 1331.93 Q2152.26 1330.17 2152.26 1328.48 Q2152.26 1325.73 2150.31 1323.99 Q2148.39 1322.25 2145.29 1322.25 Q2143.09 1322.25 2140.64 1323.02 Q2138.2 1323.78 2135.43 1325.33 L2135.43 1320.61 Q2138.25 1319.48 2140.7 1318.9 Q2143.16 1318.32 2145.2 1318.32 Q2150.57 1318.32 2153.76 1321 Q2156.95 1323.69 2156.95 1328.18 Q2156.95 1330.31 2156.14 1332.23 Q2155.36 1334.13 2153.25 1336.72 Q2152.67 1337.39 2149.57 1340.61 Q2146.47 1343.81 2140.82 1349.57 Z" fill="#000000" fill-rule="evenodd" fill-opacity="1" /><path clip-path="url(#clip410)" d="M 0 0 M2172.21 1322.02 Q2168.6 1322.02 2166.77 1325.59 Q2164.96 1329.13 2164.96 1336.26 Q2164.96 1343.37 2166.77 1346.93 Q2168.6 1350.47 2172.21 1350.47 Q2175.84 1350.47 2177.65 1346.93 Q2179.48 1343.37 2179.48 1336.26 Q2179.48 1329.13 2177.65 1325.59 Q2175.84 1322.02 2172.21 1322.02 M2172.21 1318.32 Q2178.02 1318.32 2181.07 1322.93 Q2184.15 1327.51 2184.15 1336.26 Q2184.15 1344.99 2181.07 1349.59 Q2178.02 1354.18 2172.21 1354.18 Q2166.4 1354.18 2163.32 1349.59 Q2160.26 1344.99 2160.26 1336.26 Q2160.26 1327.51 2163.32 1322.93 Q2166.4 1318.32 2172.21 1318.32 Z" fill="#000000" fill-rule="evenodd" fill-opacity="1" /><path clip-path="url(#clip410)" d="M 0 0 M2190.03 1349.57 L2197.67 1349.57 L2197.67 1323.2 L2189.36 1324.87 L2189.36 1320.61 L2197.63 1318.94 L2202.3 1318.94 L2202.3 1349.57 L2209.94 1349.57 L2209.94 1353.5 L2190.03 1353.5 L2190.03 1349.57 Z" fill="#000000" fill-rule="evenodd" fill-opacity="1" /><path clip-path="url(#clip410)" d="M 0 0 M2215.15 1352.79 L2215.15 1348.53 Q2216.91 1349.36 2218.71 1349.8 Q2220.52 1350.24 2222.26 1350.24 Q2226.88 1350.24 2229.32 1347.14 Q2231.77 1344.01 2232.12 1337.67 Q2230.77 1339.66 2228.71 1340.73 Q2226.65 1341.79 2224.15 1341.79 Q2218.97 1341.79 2215.94 1338.67 Q2212.93 1335.52 2212.93 1330.08 Q2212.93 1324.75 2216.07 1321.54 Q2219.22 1318.32 2224.45 1318.32 Q2230.45 1318.32 2233.6 1322.93 Q2236.77 1327.51 2236.77 1336.26 Q2236.77 1344.43 2232.88 1349.31 Q2229.01 1354.18 2222.46 1354.18 Q2220.7 1354.18 2218.9 1353.83 Q2217.09 1353.48 2215.15 1352.79 M2224.45 1338.13 Q2227.6 1338.13 2229.43 1335.98 Q2231.28 1333.83 2231.28 1330.08 Q2231.28 1326.35 2229.43 1324.2 Q2227.6 1322.02 2224.45 1322.02 Q2221.31 1322.02 2219.45 1324.2 Q2217.63 1326.35 2217.63 1330.08 Q2217.63 1333.83 2219.45 1335.98 Q2221.31 1338.13 2224.45 1338.13 Z" fill="#000000" fill-rule="evenodd" fill-opacity="1" /><polyline clip-path="url(#clip410)" style="stroke:#ec4a60; stroke-width:4; stroke-opacity:1; fill:none" points="
  1973.3,1396.7 2112.07,1396.7 
  "/>
<path clip-path="url(#clip410)" d="M 0 0 M2140.82 1410.05 L2157.14 1410.05 L2157.14 1413.98 L2135.2 1413.98 L2135.2 1410.05 Q2137.86 1407.29 2142.44 1402.66 Q2147.05 1398.01 2148.23 1396.67 Q2150.47 1394.15 2151.35 1392.41 Q2152.26 1390.65 2152.26 1388.96 Q2152.26 1386.21 2150.31 1384.47 Q2148.39 1382.73 2145.29 1382.73 Q2143.09 1382.73 2140.64 1383.5 Q2138.2 1384.26 2135.43 1385.81 L2135.43 1381.09 Q2138.25 1379.96 2140.7 1379.38 Q2143.16 1378.8 2145.2 1378.8 Q2150.57 1378.8 2153.76 1381.48 Q2156.95 1384.17 2156.95 1388.66 Q2156.95 1390.79 2156.14 1392.71 Q2155.36 1394.61 2153.25 1397.2 Q2152.67 1397.87 2149.57 1401.09 Q2146.47 1404.29 2140.82 1410.05 Z" fill="#000000" fill-rule="evenodd" fill-opacity="1" /><path clip-path="url(#clip410)" d="M 0 0 M2172.21 1382.5 Q2168.6 1382.5 2166.77 1386.07 Q2164.96 1389.61 2164.96 1396.74 Q2164.96 1403.85 2166.77 1407.41 Q2168.6 1410.95 2172.21 1410.95 Q2175.84 1410.95 2177.65 1407.41 Q2179.48 1403.85 2179.48 1396.74 Q2179.48 1389.61 2177.65 1386.07 Q2175.84 1382.5 2172.21 1382.5 M2172.21 1378.8 Q2178.02 1378.8 2181.07 1383.41 Q2184.15 1387.99 2184.15 1396.74 Q2184.15 1405.47 2181.07 1410.07 Q2178.02 1414.66 2172.21 1414.66 Q2166.4 1414.66 2163.32 1410.07 Q2160.26 1405.47 2160.26 1396.74 Q2160.26 1387.99 2163.32 1383.41 Q2166.4 1378.8 2172.21 1378.8 Z" fill="#000000" fill-rule="evenodd" fill-opacity="1" /><path clip-path="url(#clip410)" d="M 0 0 M2193.25 1410.05 L2209.57 1410.05 L2209.57 1413.98 L2187.63 1413.98 L2187.63 1410.05 Q2190.29 1407.29 2194.87 1402.66 Q2199.48 1398.01 2200.66 1396.67 Q2202.9 1394.15 2203.78 1392.41 Q2204.69 1390.65 2204.69 1388.96 Q2204.69 1386.21 2202.74 1384.47 Q2200.82 1382.73 2197.72 1382.73 Q2195.52 1382.73 2193.07 1383.5 Q2190.64 1384.26 2187.86 1385.81 L2187.86 1381.09 Q2190.68 1379.96 2193.14 1379.38 Q2195.59 1378.8 2197.63 1378.8 Q2203 1378.8 2206.19 1381.48 Q2209.39 1384.17 2209.39 1388.66 Q2209.39 1390.79 2208.57 1392.71 Q2207.79 1394.61 2205.68 1397.2 Q2205.1 1397.87 2202 1401.09 Q2198.9 1404.29 2193.25 1410.05 Z" fill="#000000" fill-rule="evenodd" fill-opacity="1" /><path clip-path="url(#clip410)" d="M 0 0 M2224.64 1382.5 Q2221.03 1382.5 2219.2 1386.07 Q2217.39 1389.61 2217.39 1396.74 Q2217.39 1403.85 2219.2 1407.41 Q2221.03 1410.95 2224.64 1410.95 Q2228.27 1410.95 2230.08 1407.41 Q2231.91 1403.85 2231.91 1396.74 Q2231.91 1389.61 2230.08 1386.07 Q2228.27 1382.5 2224.64 1382.5 M2224.64 1378.8 Q2230.45 1378.8 2233.51 1383.41 Q2236.58 1387.99 2236.58 1396.74 Q2236.58 1405.47 2233.51 1410.07 Q2230.45 1414.66 2224.64 1414.66 Q2218.83 1414.66 2215.75 1410.07 Q2212.7 1405.47 2212.7 1396.74 Q2212.7 1387.99 2215.75 1383.41 Q2218.83 1378.8 2224.64 1378.8 Z" fill="#000000" fill-rule="evenodd" fill-opacity="1" /></svg>
